M48
; DRILL file KiCad 10.0.6 date 2026-09-01T18:20:26
; FORMAT={-:-/ absolute / metric / decimal}
; #@! TF.CreationDate,2026-09-01T18:20:26-07:00
; #@! TF.GenerationSoftware,Kicad,Pcbnew,10.0.6
; #@! TF.FileFunction,Plated,1,4,PTH
FMAT,2
METRIC
; #@! TA.AperFunction,Plated,PTH,ViaDrill
T1C0.300
; #@! TA.AperFunction,Plated,PTH,ComponentDrill
T2C0.813
; #@! TA.AperFunction,Plated,PTH,ComponentDrill
T3C0.889
; #@! TA.AperFunction,Plated,PTH,ComponentDrill
T4C0.900
; #@! TA.AperFunction,Plated,PTH,ComponentDrill
T5C1.000
; #@! TA.AperFunction,Plated,PTH,ComponentDrill
T6C1.020
; #@! TA.AperFunction,Plated,PTH,ComponentDrill
T7C1.100
; #@! TA.AperFunction,Plated,PTH,ComponentDrill
T8C1.100
; #@! TA.AperFunction,Plated,PTH,ComponentDrill
T9C1.100
%
G90
G05
T1
X49.0Y-56.5
X50.0Y-43.6
X51.5Y-32.0
X52.0Y-62.0
X52.5Y-61.0
X53.502Y-57.685
X53.8Y-33.4
X56.7Y-34.0
X61.0Y-48.0
X62.5Y-38.0
X62.5Y-45.0
X63.9Y-25.0
X67.5Y-36.0
X67.5Y-56.0
X68.2Y-57.602
X71.0Y-60.7
X81.547Y-26.052
X83.2Y-33.1
X84.2Y-40.4
X85.65Y-59.05
X86.92Y-40.2
X87.7Y-41.35
X89.5Y-29.0
X90.5Y-46.5
X91.389Y-52.5
X91.5Y-25.5
X91.54Y-55.24
X91.54Y-56.09
X91.55Y-54.45
X92.28Y-55.24
X92.28Y-56.09
X92.29Y-54.45
X93.02Y-55.25
X93.02Y-56.1
X93.03Y-54.46
X93.5Y-45.5
X93.76Y-55.25
X93.76Y-56.1
X93.77Y-54.46
X94.0Y-46.0
X94.5Y-55.25
X94.5Y-56.1
X94.51Y-54.46
X95.0Y-38.5
X95.09Y-45.5
X96.0Y-29.5
X96.245Y-34.55
X96.5Y-27.0
X97.5Y-43.15
X97.8Y-33.5
X97.9Y-62.7
X98.2Y-35.9
X99.0Y-27.0
X99.239Y-54.765
X99.3Y-58.4
X99.5Y-56.5
X100.5Y-47.05
X101.029Y-54.785
X101.5Y-41.8
X101.5Y-44.0
X101.5Y-46.4
X102.0Y-62.5
X102.4Y-38.11
X102.48Y-37.5
X102.5Y-45.5
X103.0Y-43.175
X103.5Y-26.0
X103.5Y-45.0
X104.5Y-50.0
X106.13Y-38.02
X106.177Y-42.5
X106.32Y-37.44
X107.0Y-29.0
X109.0Y-25.5
X109.0Y-56.5
X110.0Y-43.79
X110.55Y-47.1
X110.8Y-37.85
X110.8Y-41.2
X110.9Y-45.8
X111.0Y-50.5
X111.06Y-36.21
X112.0Y-34.0
X112.05Y-40.05
X112.1Y-38.6
X113.0Y-40.55
X113.95Y-39.0
X114.5Y-35.0
X115.6Y-48.6
T2
X68.96Y-52.0
X69.1Y-31.85
X71.5Y-52.0
X71.64Y-31.85
X74.04Y-52.0
X74.18Y-31.85
X81.66Y-52.0
X81.8Y-31.85
X84.2Y-52.0
X84.34Y-31.85
X86.74Y-52.0
X86.88Y-31.85
T3
X38.96Y-50.15
X39.76Y-33.1
X44.04Y-50.15
X44.84Y-33.1
T4
X52.38Y-37.48
X52.38Y-45.1
X54.92Y-37.48
X54.92Y-45.1
X55.599Y-54.855
X55.599Y-57.395
X55.599Y-59.935
X55.599Y-62.475
X57.46Y-37.48
X57.46Y-45.1
X60.0Y-37.48
X60.0Y-45.1
X63.219Y-54.855
X63.219Y-57.395
X63.219Y-59.935
X63.219Y-62.475
T5
X96.725Y-60.5
X99.265Y-60.5
X106.474Y-52.5
X109.014Y-52.5
X111.554Y-52.5
X114.094Y-52.5
T6
X94.794Y-28.2
X94.794Y-31.2
X97.794Y-28.2
X97.794Y-31.2
X100.794Y-28.2
X100.794Y-31.2
X103.794Y-28.2
X103.794Y-31.2
T7
X27.904Y-47.15
X27.904Y-53.15
X27.93Y-37.03
X27.93Y-43.03
X45.21Y-39.45
X45.21Y-45.45
X45.25Y-55.79
X45.25Y-61.79
T8
X28.844Y-50.15
X31.844Y-50.15
T9
X28.87Y-40.03
X31.87Y-40.03
X41.27Y-42.45
X41.31Y-58.79
X44.27Y-42.45
X44.31Y-58.79
M30
