%TF.GenerationSoftware,KiCad,Pcbnew,10.0.6*%
%TF.CreationDate,2026-09-01T18:20:09-07:00*%
%TF.ProjectId,Precharge_2027,50726563-6861-4726-9765-5f323032372e,rev?*%
%TF.SameCoordinates,Original*%
%TF.FileFunction,Copper,L2,Inr*%
%TF.FilePolarity,Positive*%
%FSLAX46Y46*%
G04 Gerber Fmt 4.6, Leading zero omitted, Abs format (unit mm)*
G04 Created by KiCad (PCBNEW 10.0.6) date 2026-09-01 18:20:09*
%MOMM*%
%LPD*%
G01*
G04 APERTURE LIST*
G04 Aperture macros list*
%AMRoundRect*
0 Rectangle with rounded corners*
0 $1 Rounding radius*
0 $2 $3 $4 $5 $6 $7 $8 $9 X,Y pos of 4 corners*
0 Add a 4 corners polygon primitive as box body*
4,1,4,$2,$3,$4,$5,$6,$7,$8,$9,$2,$3,0*
0 Add four circle primitives for the rounded corners*
1,1,$1+$1,$2,$3*
1,1,$1+$1,$4,$5*
1,1,$1+$1,$6,$7*
1,1,$1+$1,$8,$9*
0 Add four rect primitives between the rounded corners*
20,1,$1+$1,$2,$3,$4,$5,0*
20,1,$1+$1,$4,$5,$6,$7,0*
20,1,$1+$1,$6,$7,$8,$9,0*
20,1,$1+$1,$8,$9,$2,$3,0*%
G04 Aperture macros list end*
%TA.AperFunction,ComponentPad*%
%ADD10C,1.320800*%
%TD*%
%TA.AperFunction,ComponentPad*%
%ADD11C,1.100000*%
%TD*%
%TA.AperFunction,ComponentPad*%
%ADD12C,1.800000*%
%TD*%
%TA.AperFunction,ComponentPad*%
%ADD13C,1.397000*%
%TD*%
%TA.AperFunction,ComponentPad*%
%ADD14R,1.500000X1.500000*%
%TD*%
%TA.AperFunction,ComponentPad*%
%ADD15C,1.500000*%
%TD*%
%TA.AperFunction,ComponentPad*%
%ADD16R,1.700000X1.700000*%
%TD*%
%TA.AperFunction,ComponentPad*%
%ADD17C,1.700000*%
%TD*%
%TA.AperFunction,ComponentPad*%
%ADD18RoundRect,0.250001X0.499999X0.499999X-0.499999X0.499999X-0.499999X-0.499999X0.499999X-0.499999X0*%
%TD*%
%TA.AperFunction,ViaPad*%
%ADD19C,0.600000*%
%TD*%
G04 APERTURE END LIST*
D10*
%TO.N,GLV-*%
%TO.C,U8*%
X86880000Y-31850000D03*
%TO.N,GLV+*%
X84340000Y-31850000D03*
%TO.N,unconnected-(U8-CONTROL-Pad3)*%
X81800000Y-31850000D03*
%TO.N,POST_12V_HV*%
X74180000Y-31850000D03*
%TO.N,POST_HV-*%
X71640000Y-31850000D03*
%TO.N,unconnected-(U8-N{slash}C-Pad8)*%
X69100000Y-31850000D03*
%TD*%
D11*
%TO.N,*%
%TO.C,Molex4*%
X45210000Y-45450000D03*
X45210000Y-39450000D03*
D12*
%TO.N,POST_HV-*%
X44270000Y-42450000D03*
X41270000Y-42450000D03*
%TD*%
D13*
%TO.N,/HV+_preAIR*%
%TO.C,F2*%
X44040000Y-50150000D03*
%TO.N,Net-(Molex1-Pin_1)*%
X38960000Y-50150000D03*
%TD*%
D14*
%TO.N,Net-(U2-IOUT)*%
%TO.C,U2*%
X52380000Y-45100000D03*
D15*
%TO.N,Net-(U2-IREF)*%
X54920000Y-45100000D03*
%TO.N,Net-(U1-CAT)*%
X57460000Y-45100000D03*
%TO.N,POST_HV-*%
X60000000Y-45100000D03*
%TO.N,Net-(U2-RC)*%
X60000000Y-37480000D03*
%TO.N,Net-(U2-IOUT)*%
X57460000Y-37480000D03*
%TO.N,Net-(U2-COMPIN)*%
X54920000Y-37480000D03*
%TO.N,POST_12V_HV*%
X52380000Y-37480000D03*
%TD*%
D11*
%TO.N,*%
%TO.C,Molex3*%
X27930000Y-37030000D03*
X27930000Y-43030000D03*
D12*
%TO.N,Net-(Molex3-Pin_1)*%
X28870000Y-40030000D03*
X31870000Y-40030000D03*
%TD*%
D16*
%TO.N,USART2_TX*%
%TO.C,J3*%
X96725000Y-60500000D03*
D17*
%TO.N,GLV-*%
X99265000Y-60500000D03*
%TD*%
D10*
%TO.N,GLV-*%
%TO.C,U6*%
X86740000Y-52000000D03*
%TO.N,GLV+*%
X84200000Y-52000000D03*
%TO.N,unconnected-(U6-CONTROL-Pad3)*%
X81660000Y-52000000D03*
%TO.N,PRE_12V_HV*%
X74040000Y-52000000D03*
%TO.N,PRE_HV-*%
X71500000Y-52000000D03*
%TO.N,unconnected-(U6-N{slash}C-Pad8)*%
X68960000Y-52000000D03*
%TD*%
D11*
%TO.N,*%
%TO.C,Molex1*%
X27903750Y-47150000D03*
X27903750Y-53150000D03*
D12*
%TO.N,Net-(Molex1-Pin_1)*%
X28843750Y-50150000D03*
X31843750Y-50150000D03*
%TD*%
D13*
%TO.N,/HV+_postAIR*%
%TO.C,F1*%
X44840000Y-33100000D03*
%TO.N,Net-(Molex3-Pin_1)*%
X39760000Y-33100000D03*
%TD*%
D18*
%TO.N,SDCin*%
%TO.C,J1*%
X103793750Y-31200000D03*
D15*
%TO.N,Pre_en*%
X100793750Y-31200000D03*
%TO.N,AIR+_en*%
X97793750Y-31200000D03*
%TO.N,Precharge_Fault*%
X94793750Y-31200000D03*
%TO.N,CHG*%
X103793750Y-28200000D03*
%TO.N,Charge_on*%
X100793750Y-28200000D03*
%TO.N,GLV-*%
X97793750Y-28200000D03*
%TO.N,Net-(J1-Pin_8)*%
X94793750Y-28200000D03*
%TD*%
D11*
%TO.N,*%
%TO.C,Molex2*%
X45250000Y-61790000D03*
X45250000Y-55790000D03*
D12*
%TO.N,PRE_HV-*%
X44310000Y-58790000D03*
X41310000Y-58790000D03*
%TD*%
D16*
%TO.N,3.3 V*%
%TO.C,J2*%
X106473750Y-52500000D03*
D17*
%TO.N,SWCLK*%
X109013750Y-52500000D03*
%TO.N,SWDIO*%
X111553750Y-52500000D03*
%TO.N,GLV-*%
X114093750Y-52500000D03*
%TD*%
D14*
%TO.N,Net-(U5-IOUT)*%
%TO.C,U5*%
X63218554Y-62475000D03*
D15*
%TO.N,Net-(U5-IREF)*%
X63218554Y-59935000D03*
%TO.N,Net-(U4-CAT)*%
X63218554Y-57395000D03*
%TO.N,PRE_HV-*%
X63218554Y-54855000D03*
%TO.N,Net-(U5-RC)*%
X55598554Y-54855000D03*
%TO.N,Net-(U5-IOUT)*%
X55598554Y-57395000D03*
%TO.N,Net-(U5-COMPIN)*%
X55598554Y-59935000D03*
%TO.N,PRE_12V_HV*%
X55598554Y-62475000D03*
%TD*%
D19*
%TO.N,GLV-*%
X81547500Y-26052500D03*
X99500000Y-56500000D03*
X93770000Y-54460000D03*
X92280000Y-55240000D03*
X111000000Y-50500000D03*
X102000000Y-62500000D03*
X91550000Y-54450000D03*
X97900000Y-62700000D03*
X110800000Y-37850000D03*
X102480000Y-37500000D03*
X96000000Y-29500000D03*
X102400000Y-38110000D03*
X95000000Y-38500000D03*
X94500000Y-55250000D03*
X114500000Y-35000000D03*
X91500000Y-25500000D03*
X91540000Y-55240000D03*
X104500000Y-50000000D03*
X99238750Y-54765000D03*
X110000000Y-43790000D03*
X93020000Y-56100000D03*
X90500000Y-46500000D03*
X92290000Y-54450000D03*
X115600000Y-48600000D03*
X85650000Y-59050000D03*
X106320000Y-37440000D03*
X112000000Y-34000000D03*
X93020000Y-55250000D03*
X94500000Y-56100000D03*
X109000000Y-25500000D03*
X93760000Y-56100000D03*
X94510000Y-54460000D03*
X84200000Y-40400000D03*
X92280000Y-56090000D03*
X97800000Y-33500000D03*
X103500000Y-26000000D03*
X99300000Y-58400000D03*
X96500000Y-27000000D03*
X91540000Y-56090000D03*
X103500000Y-45000000D03*
X106130000Y-38020000D03*
X101028750Y-54785000D03*
X89500000Y-29000000D03*
X93030000Y-54460000D03*
X99000000Y-27000000D03*
X83200000Y-33100000D03*
X98200000Y-35900000D03*
X107000000Y-29000000D03*
X110550000Y-47100000D03*
X93760000Y-55250000D03*
X109000000Y-56500000D03*
%TO.N,GLV+*%
X86920000Y-40200000D03*
X95090000Y-45500000D03*
X93500000Y-45500000D03*
X94000000Y-46000000D03*
%TO.N,POST_HV-*%
X56700000Y-34000000D03*
X67500000Y-36000000D03*
X62500000Y-38000000D03*
X53800000Y-33400000D03*
X51500000Y-32000000D03*
X63900000Y-25000000D03*
X62500000Y-45000000D03*
X50000000Y-43600000D03*
%TO.N,CHG*%
X110800000Y-41200000D03*
X113000000Y-40550000D03*
%TO.N,3.3 V*%
X103000000Y-43175000D03*
X102500000Y-45500000D03*
X91389339Y-52500000D03*
%TO.N,Net-(U4-CAT)*%
X71000000Y-60700000D03*
%TO.N,PRE_HV-*%
X53502048Y-57685213D03*
X68200000Y-57602500D03*
X52500000Y-61000000D03*
X49000000Y-56500000D03*
X67500000Y-56000000D03*
X61000000Y-48000000D03*
X52000000Y-62000000D03*
%TO.N,Charge_on*%
X112050000Y-40050000D03*
X96244967Y-34550000D03*
%TO.N,SDCin*%
X113950000Y-39000000D03*
X111060000Y-36210000D03*
X112100000Y-38600000D03*
%TO.N,f_postAIR*%
X97500000Y-43150000D03*
X87700000Y-41350000D03*
%TO.N,Net-(U7-PA2)*%
X106177244Y-42500000D03*
X110900000Y-45800000D03*
%TO.N,AIR+_en_gate*%
X101500000Y-44000000D03*
X101500000Y-41800000D03*
%TO.N,SWDIO*%
X101500000Y-46400000D03*
%TO.N,SWCLK*%
X100500000Y-47050000D03*
%TD*%
%TA.AperFunction,Conductor*%
%TO.N,GLV-*%
G36*
X114700657Y-24330748D02*
G01*
X114884283Y-24371453D01*
X114894714Y-24374248D01*
X115270414Y-24492700D01*
X115280552Y-24496388D01*
X115644529Y-24647149D01*
X115654303Y-24651707D01*
X116003728Y-24833601D01*
X116013093Y-24839008D01*
X116345325Y-25050661D01*
X116354186Y-25056866D01*
X116666695Y-25296662D01*
X116674982Y-25303615D01*
X116965413Y-25569744D01*
X116973063Y-25577394D01*
X117239192Y-25867825D01*
X117246145Y-25876112D01*
X117485941Y-26188621D01*
X117492146Y-26197482D01*
X117703799Y-26529714D01*
X117709208Y-26539083D01*
X117766783Y-26649686D01*
X117844370Y-26798734D01*
X117891093Y-26888489D01*
X117895662Y-26898288D01*
X118027262Y-27216006D01*
X118046413Y-27262241D01*
X118050112Y-27272407D01*
X118168556Y-27648083D01*
X118171356Y-27658533D01*
X118256609Y-28043118D01*
X118258487Y-28053771D01*
X118309896Y-28444314D01*
X118310839Y-28455091D01*
X118328130Y-28851329D01*
X118328248Y-28856735D01*
X118328248Y-28927735D01*
X118328284Y-28928296D01*
X118342776Y-59146814D01*
X118342658Y-59152281D01*
X118325362Y-59548483D01*
X118324419Y-59559260D01*
X118273005Y-59949801D01*
X118271127Y-59960454D01*
X118185868Y-60345040D01*
X118183068Y-60355489D01*
X118064616Y-60731176D01*
X118060916Y-60741339D01*
X117995157Y-60900099D01*
X117910175Y-61105265D01*
X117905603Y-61115069D01*
X117723711Y-61464482D01*
X117718303Y-61473850D01*
X117506649Y-61806081D01*
X117500444Y-61814942D01*
X117260643Y-62127457D01*
X117253689Y-62135744D01*
X116987566Y-62426167D01*
X116979917Y-62433816D01*
X116689494Y-62699939D01*
X116681207Y-62706893D01*
X116368692Y-62946694D01*
X116359831Y-62952899D01*
X116027600Y-63164553D01*
X116018232Y-63169961D01*
X115668819Y-63351853D01*
X115659015Y-63356425D01*
X115295092Y-63507166D01*
X115284926Y-63510866D01*
X114909239Y-63629318D01*
X114898790Y-63632118D01*
X114514204Y-63717377D01*
X114503551Y-63719255D01*
X114113011Y-63770669D01*
X114102234Y-63771612D01*
X113705986Y-63788910D01*
X113700578Y-63789028D01*
X113630163Y-63789028D01*
X113628838Y-63789114D01*
X83178608Y-63824515D01*
X83111546Y-63804908D01*
X83065730Y-63752158D01*
X83054464Y-63700515D01*
X83054464Y-59618475D01*
X95474500Y-59618475D01*
X95474500Y-61381517D01*
X95485292Y-61449657D01*
X95489354Y-61475304D01*
X95546950Y-61588342D01*
X95546952Y-61588344D01*
X95546954Y-61588347D01*
X95636652Y-61678045D01*
X95636654Y-61678046D01*
X95636658Y-61678050D01*
X95749694Y-61735645D01*
X95749698Y-61735647D01*
X95843475Y-61750499D01*
X95843481Y-61750500D01*
X97606518Y-61750499D01*
X97700304Y-61735646D01*
X97813342Y-61678050D01*
X97903050Y-61588342D01*
X97960646Y-61475304D01*
X97975500Y-61381519D01*
X97975499Y-61366732D01*
X97979271Y-61351795D01*
X97989499Y-61334452D01*
X97995168Y-61315131D01*
X98006887Y-61304971D01*
X98014766Y-61291613D01*
X98032747Y-61282553D01*
X98047961Y-61269364D01*
X98064852Y-61266376D01*
X98077163Y-61260174D01*
X98091451Y-61261672D01*
X98109230Y-61258528D01*
X98149729Y-61261715D01*
X98782037Y-60629408D01*
X98799075Y-60692993D01*
X98864901Y-60807007D01*
X98957993Y-60900099D01*
X99072007Y-60965925D01*
X99135590Y-60982962D01*
X98503282Y-61615269D01*
X98503282Y-61615270D01*
X98557449Y-61654624D01*
X98746782Y-61751095D01*
X98948870Y-61816757D01*
X99158754Y-61850000D01*
X99371246Y-61850000D01*
X99581127Y-61816757D01*
X99581130Y-61816757D01*
X99783217Y-61751095D01*
X99972554Y-61654622D01*
X100026716Y-61615270D01*
X100026717Y-61615270D01*
X99394408Y-60982962D01*
X99457993Y-60965925D01*
X99572007Y-60900099D01*
X99665099Y-60807007D01*
X99730925Y-60692993D01*
X99747962Y-60629408D01*
X100380270Y-61261717D01*
X100380270Y-61261716D01*
X100419622Y-61207554D01*
X100516095Y-61018217D01*
X100581757Y-60816130D01*
X100581757Y-60816127D01*
X100615000Y-60606246D01*
X100615000Y-60393753D01*
X100581757Y-60183872D01*
X100581757Y-60183869D01*
X100516095Y-59981782D01*
X100419624Y-59792449D01*
X100380270Y-59738282D01*
X100380269Y-59738282D01*
X99747962Y-60370590D01*
X99730925Y-60307007D01*
X99665099Y-60192993D01*
X99572007Y-60099901D01*
X99457993Y-60034075D01*
X99394409Y-60017037D01*
X100026716Y-59384728D01*
X99972547Y-59345373D01*
X99946688Y-59332197D01*
X99946687Y-59332197D01*
X99783217Y-59248904D01*
X99710220Y-59225186D01*
X111183250Y-59225186D01*
X111183250Y-59494813D01*
X111213436Y-59762719D01*
X111213438Y-59762731D01*
X111273434Y-60025594D01*
X111273437Y-60025602D01*
X111362484Y-60280082D01*
X111479464Y-60522994D01*
X111479466Y-60522997D01*
X111622912Y-60751289D01*
X111791016Y-60962085D01*
X111981665Y-61152734D01*
X112192461Y-61320838D01*
X112420753Y-61464284D01*
X112663671Y-61581267D01*
X112854799Y-61648145D01*
X112918147Y-61670312D01*
X112918155Y-61670315D01*
X112918158Y-61670315D01*
X112918159Y-61670316D01*
X113181018Y-61730312D01*
X113448937Y-61760499D01*
X113448938Y-61760500D01*
X113448941Y-61760500D01*
X113718562Y-61760500D01*
X113718562Y-61760499D01*
X113986482Y-61730312D01*
X114249341Y-61670316D01*
X114503829Y-61581267D01*
X114746747Y-61464284D01*
X114975039Y-61320838D01*
X115185835Y-61152734D01*
X115376484Y-60962085D01*
X115544588Y-60751289D01*
X115688034Y-60522997D01*
X115805017Y-60280079D01*
X115894066Y-60025591D01*
X115954062Y-59762732D01*
X115984250Y-59494809D01*
X115984250Y-59225191D01*
X115954062Y-58957268D01*
X115894066Y-58694409D01*
X115805017Y-58439921D01*
X115688034Y-58197003D01*
X115544588Y-57968711D01*
X115376484Y-57757915D01*
X115185835Y-57567266D01*
X114975039Y-57399162D01*
X114746747Y-57255716D01*
X114746744Y-57255714D01*
X114503832Y-57138734D01*
X114249352Y-57049687D01*
X114249344Y-57049684D01*
X114052196Y-57004687D01*
X113986482Y-56989688D01*
X113986478Y-56989687D01*
X113986469Y-56989686D01*
X113718563Y-56959500D01*
X113718559Y-56959500D01*
X113448941Y-56959500D01*
X113448936Y-56959500D01*
X113181030Y-56989686D01*
X113181018Y-56989688D01*
X112918155Y-57049684D01*
X112918147Y-57049687D01*
X112663667Y-57138734D01*
X112420755Y-57255714D01*
X112192462Y-57399161D01*
X111981665Y-57567265D01*
X111791015Y-57757915D01*
X111622911Y-57968712D01*
X111479464Y-58197005D01*
X111362484Y-58439917D01*
X111273437Y-58694397D01*
X111273434Y-58694405D01*
X111213438Y-58957268D01*
X111213436Y-58957280D01*
X111183250Y-59225186D01*
X99710220Y-59225186D01*
X99581129Y-59183242D01*
X99371246Y-59150000D01*
X99158754Y-59150000D01*
X98948872Y-59183242D01*
X98948869Y-59183242D01*
X98746782Y-59248904D01*
X98557439Y-59345380D01*
X98503282Y-59384727D01*
X98503282Y-59384728D01*
X99135591Y-60017037D01*
X99072007Y-60034075D01*
X98957993Y-60099901D01*
X98864901Y-60192993D01*
X98799075Y-60307007D01*
X98782037Y-60370591D01*
X98149728Y-59738282D01*
X98109229Y-59741470D01*
X98040851Y-59727106D01*
X97991094Y-59678055D01*
X97979271Y-59648204D01*
X97975499Y-59633262D01*
X97975499Y-59618482D01*
X97960646Y-59524696D01*
X97903050Y-59411658D01*
X97903048Y-59411656D01*
X97903045Y-59411652D01*
X97813347Y-59321954D01*
X97813344Y-59321952D01*
X97813342Y-59321950D01*
X97736517Y-59282805D01*
X97700301Y-59264352D01*
X97606524Y-59249500D01*
X95843482Y-59249500D01*
X95762519Y-59262323D01*
X95749696Y-59264354D01*
X95636658Y-59321950D01*
X95636657Y-59321951D01*
X95636652Y-59321954D01*
X95546954Y-59411652D01*
X95546951Y-59411657D01*
X95489352Y-59524698D01*
X95474500Y-59618475D01*
X83054464Y-59618475D01*
X83054464Y-52603926D01*
X83074149Y-52536887D01*
X83126953Y-52491132D01*
X83196111Y-52481188D01*
X83259667Y-52510213D01*
X83281565Y-52535034D01*
X83302140Y-52565826D01*
X83375946Y-52676286D01*
X83523713Y-52824053D01*
X83523716Y-52824055D01*
X83697476Y-52940157D01*
X83890547Y-53020130D01*
X84095505Y-53060899D01*
X84095508Y-53060900D01*
X84095510Y-53060900D01*
X84304492Y-53060900D01*
X84304493Y-53060899D01*
X84509453Y-53020130D01*
X84702524Y-52940157D01*
X84702525Y-52940156D01*
X84702526Y-52940156D01*
X84868630Y-52829170D01*
X84868631Y-52829169D01*
X84873052Y-52826213D01*
X84876284Y-52824055D01*
X85024055Y-52676284D01*
X85140157Y-52502524D01*
X85220130Y-52309453D01*
X85260900Y-52104490D01*
X85260900Y-51908669D01*
X85579600Y-51908669D01*
X85579600Y-52091330D01*
X85608172Y-52271728D01*
X85664616Y-52445443D01*
X85747535Y-52608178D01*
X85760467Y-52625978D01*
X86333600Y-52052845D01*
X86333600Y-52053504D01*
X86361295Y-52156865D01*
X86414799Y-52249536D01*
X86490464Y-52325201D01*
X86583135Y-52378705D01*
X86686496Y-52406400D01*
X86687153Y-52406400D01*
X86114019Y-52979531D01*
X86131817Y-52992462D01*
X86294556Y-53075383D01*
X86468271Y-53131827D01*
X86648670Y-53160400D01*
X86831330Y-53160400D01*
X87011728Y-53131827D01*
X87185443Y-53075383D01*
X87348178Y-52992465D01*
X87365979Y-52979531D01*
X86792848Y-52406400D01*
X86793504Y-52406400D01*
X86896865Y-52378705D01*
X86989536Y-52325201D01*
X87065201Y-52249536D01*
X87118705Y-52156865D01*
X87146400Y-52053504D01*
X87146400Y-52052847D01*
X87719531Y-52625978D01*
X87732465Y-52608178D01*
X87752430Y-52568995D01*
X90688838Y-52568995D01*
X90715757Y-52704322D01*
X90715760Y-52704332D01*
X90768560Y-52831804D01*
X90768567Y-52831817D01*
X90845224Y-52946541D01*
X90845227Y-52946545D01*
X90942793Y-53044111D01*
X90942797Y-53044114D01*
X91057521Y-53120771D01*
X91057534Y-53120778D01*
X91155557Y-53161380D01*
X91185011Y-53173580D01*
X91185015Y-53173580D01*
X91185016Y-53173581D01*
X91320343Y-53200500D01*
X91320346Y-53200500D01*
X91458334Y-53200500D01*
X91549380Y-53182389D01*
X91593667Y-53173580D01*
X91694468Y-53131827D01*
X91721143Y-53120778D01*
X91721143Y-53120777D01*
X91721150Y-53120775D01*
X91835881Y-53044114D01*
X91933453Y-52946542D01*
X92010114Y-52831811D01*
X92013328Y-52824053D01*
X92062917Y-52704332D01*
X92062919Y-52704328D01*
X92082429Y-52606246D01*
X92089839Y-52568995D01*
X92089839Y-52431004D01*
X92062920Y-52295677D01*
X92062919Y-52295676D01*
X92062919Y-52295672D01*
X92026262Y-52207174D01*
X92010117Y-52168195D01*
X92010110Y-52168182D01*
X91933453Y-52053458D01*
X91933450Y-52053454D01*
X91835884Y-51955888D01*
X91835880Y-51955885D01*
X91721156Y-51879228D01*
X91721143Y-51879221D01*
X91593671Y-51826421D01*
X91593661Y-51826418D01*
X91458334Y-51799500D01*
X91458332Y-51799500D01*
X91320346Y-51799500D01*
X91320344Y-51799500D01*
X91185016Y-51826418D01*
X91185006Y-51826421D01*
X91057534Y-51879221D01*
X91057521Y-51879228D01*
X90942797Y-51955885D01*
X90942793Y-51955888D01*
X90845227Y-52053454D01*
X90845224Y-52053458D01*
X90768567Y-52168182D01*
X90768560Y-52168195D01*
X90715760Y-52295667D01*
X90715757Y-52295677D01*
X90688839Y-52431004D01*
X90688839Y-52431007D01*
X90688839Y-52568993D01*
X90688839Y-52568995D01*
X90688838Y-52568995D01*
X87752430Y-52568995D01*
X87815383Y-52445443D01*
X87834504Y-52386596D01*
X87871827Y-52271728D01*
X87900400Y-52091330D01*
X87900400Y-51908669D01*
X87871827Y-51728271D01*
X87847021Y-51651928D01*
X87847020Y-51651926D01*
X87836151Y-51618475D01*
X105223250Y-51618475D01*
X105223250Y-53381517D01*
X105234042Y-53449657D01*
X105238104Y-53475304D01*
X105295700Y-53588342D01*
X105295702Y-53588344D01*
X105295704Y-53588347D01*
X105385402Y-53678045D01*
X105385404Y-53678046D01*
X105385408Y-53678050D01*
X105498444Y-53735645D01*
X105498448Y-53735647D01*
X105592225Y-53750499D01*
X105592231Y-53750500D01*
X107355268Y-53750499D01*
X107449054Y-53735646D01*
X107562092Y-53678050D01*
X107651800Y-53588342D01*
X107709396Y-53475304D01*
X107709396Y-53475302D01*
X107709397Y-53475301D01*
X107724249Y-53381524D01*
X107724250Y-53381519D01*
X107724249Y-53234263D01*
X107743933Y-53167227D01*
X107796737Y-53121472D01*
X107865895Y-53111528D01*
X107929451Y-53140553D01*
X107948567Y-53161380D01*
X107957431Y-53173580D01*
X108059922Y-53314646D01*
X108199104Y-53453828D01*
X108358345Y-53569524D01*
X108441205Y-53611743D01*
X108533720Y-53658882D01*
X108533722Y-53658882D01*
X108533725Y-53658884D01*
X108592712Y-53678050D01*
X108720923Y-53719709D01*
X108915328Y-53750500D01*
X108915333Y-53750500D01*
X109112172Y-53750500D01*
X109306576Y-53719709D01*
X109493775Y-53658884D01*
X109669155Y-53569524D01*
X109828396Y-53453828D01*
X109967578Y-53314646D01*
X110083274Y-53155405D01*
X110172634Y-52980025D01*
X110173265Y-52978787D01*
X110221239Y-52927990D01*
X110289060Y-52911195D01*
X110355195Y-52933732D01*
X110394235Y-52978787D01*
X110484224Y-53155403D01*
X110516990Y-53200500D01*
X110599922Y-53314646D01*
X110739104Y-53453828D01*
X110898345Y-53569524D01*
X110981205Y-53611743D01*
X111073720Y-53658882D01*
X111073722Y-53658882D01*
X111073725Y-53658884D01*
X111132712Y-53678050D01*
X111260923Y-53719709D01*
X111455328Y-53750500D01*
X111455333Y-53750500D01*
X111652172Y-53750500D01*
X111846576Y-53719709D01*
X112033775Y-53658884D01*
X112209155Y-53569524D01*
X112368396Y-53453828D01*
X112507578Y-53314646D01*
X112623274Y-53155405D01*
X112657429Y-53088370D01*
X112705402Y-53037575D01*
X112773223Y-53020779D01*
X112839358Y-53043316D01*
X112878398Y-53088370D01*
X112939120Y-53207542D01*
X112939123Y-53207547D01*
X112978478Y-53261716D01*
X113610787Y-52629408D01*
X113627825Y-52692993D01*
X113693651Y-52807007D01*
X113786743Y-52900099D01*
X113900757Y-52965925D01*
X113964340Y-52982962D01*
X113332032Y-53615269D01*
X113332032Y-53615270D01*
X113386199Y-53654624D01*
X113575532Y-53751095D01*
X113777620Y-53816757D01*
X113987504Y-53850000D01*
X114199996Y-53850000D01*
X114409877Y-53816757D01*
X114409880Y-53816757D01*
X114611967Y-53751095D01*
X114801304Y-53654622D01*
X114855466Y-53615270D01*
X114855467Y-53615270D01*
X114223158Y-52982962D01*
X114286743Y-52965925D01*
X114400757Y-52900099D01*
X114493849Y-52807007D01*
X114559675Y-52692993D01*
X114576712Y-52629408D01*
X115209020Y-53261717D01*
X115209020Y-53261716D01*
X115248372Y-53207554D01*
X115344845Y-53018217D01*
X115410507Y-52816130D01*
X115410507Y-52816127D01*
X115443750Y-52606246D01*
X115443750Y-52393753D01*
X115410507Y-52183872D01*
X115410507Y-52183869D01*
X115344845Y-51981782D01*
X115248374Y-51792449D01*
X115209020Y-51738282D01*
X115209019Y-51738282D01*
X114576712Y-52370590D01*
X114559675Y-52307007D01*
X114493849Y-52192993D01*
X114400757Y-52099901D01*
X114286743Y-52034075D01*
X114223159Y-52017037D01*
X114855466Y-51384728D01*
X114801300Y-51345375D01*
X114611967Y-51248904D01*
X114409879Y-51183242D01*
X114199996Y-51150000D01*
X113987504Y-51150000D01*
X113777622Y-51183242D01*
X113777619Y-51183242D01*
X113575532Y-51248904D01*
X113386189Y-51345380D01*
X113332032Y-51384727D01*
X113332032Y-51384728D01*
X113964341Y-52017037D01*
X113900757Y-52034075D01*
X113786743Y-52099901D01*
X113693651Y-52192993D01*
X113627825Y-52307007D01*
X113610787Y-52370591D01*
X112978478Y-51738282D01*
X112978477Y-51738282D01*
X112939130Y-51792440D01*
X112939128Y-51792443D01*
X112878398Y-51911630D01*
X112830423Y-51962426D01*
X112762602Y-51979220D01*
X112696467Y-51956682D01*
X112657429Y-51911628D01*
X112623275Y-51844596D01*
X112586383Y-51793819D01*
X112507578Y-51685354D01*
X112368396Y-51546172D01*
X112209155Y-51430476D01*
X112206021Y-51428879D01*
X112033779Y-51341117D01*
X111846576Y-51280290D01*
X111652172Y-51249500D01*
X111652167Y-51249500D01*
X111455333Y-51249500D01*
X111455328Y-51249500D01*
X111260923Y-51280290D01*
X111073720Y-51341117D01*
X110898344Y-51430476D01*
X110818727Y-51488322D01*
X110739104Y-51546172D01*
X110739102Y-51546174D01*
X110739101Y-51546174D01*
X110599924Y-51685351D01*
X110599924Y-51685352D01*
X110599922Y-51685354D01*
X110596144Y-51690554D01*
X110484226Y-51844594D01*
X110394235Y-52021213D01*
X110346261Y-52072009D01*
X110278440Y-52088804D01*
X110212305Y-52066267D01*
X110173265Y-52021213D01*
X110146147Y-51967992D01*
X110083274Y-51844595D01*
X109967578Y-51685354D01*
X109828396Y-51546172D01*
X109669155Y-51430476D01*
X109666021Y-51428879D01*
X109493779Y-51341117D01*
X109306576Y-51280290D01*
X109112172Y-51249500D01*
X109112167Y-51249500D01*
X108915333Y-51249500D01*
X108915328Y-51249500D01*
X108720923Y-51280290D01*
X108533720Y-51341117D01*
X108358344Y-51430476D01*
X108278727Y-51488322D01*
X108199104Y-51546172D01*
X108199102Y-51546174D01*
X108199101Y-51546174D01*
X108059923Y-51685352D01*
X107948567Y-51838620D01*
X107893236Y-51881285D01*
X107823623Y-51887264D01*
X107761828Y-51854658D01*
X107727471Y-51793819D01*
X107724249Y-51765734D01*
X107724249Y-51618482D01*
X107720308Y-51593600D01*
X107709396Y-51524696D01*
X107651800Y-51411658D01*
X107651796Y-51411654D01*
X107651795Y-51411652D01*
X107562097Y-51321954D01*
X107562094Y-51321952D01*
X107562092Y-51321950D01*
X107480330Y-51280290D01*
X107449051Y-51264352D01*
X107355274Y-51249500D01*
X105592232Y-51249500D01*
X105511269Y-51262323D01*
X105498446Y-51264354D01*
X105385408Y-51321950D01*
X105385407Y-51321951D01*
X105385402Y-51321954D01*
X105295704Y-51411652D01*
X105295701Y-51411657D01*
X105295700Y-51411658D01*
X105286112Y-51430476D01*
X105238102Y-51524698D01*
X105223250Y-51618475D01*
X87836151Y-51618475D01*
X87815383Y-51554558D01*
X87732462Y-51391817D01*
X87719531Y-51374020D01*
X87719531Y-51374019D01*
X87146400Y-51947151D01*
X87146400Y-51946496D01*
X87118705Y-51843135D01*
X87065201Y-51750464D01*
X86989536Y-51674799D01*
X86896865Y-51621295D01*
X86793504Y-51593600D01*
X86792847Y-51593600D01*
X87365978Y-51020467D01*
X87348178Y-51007535D01*
X87185443Y-50924616D01*
X87011728Y-50868172D01*
X86831330Y-50839600D01*
X86648670Y-50839600D01*
X86468271Y-50868172D01*
X86294556Y-50924616D01*
X86131813Y-51007539D01*
X86131808Y-51007543D01*
X86114020Y-51020465D01*
X86114020Y-51020468D01*
X86687154Y-51593600D01*
X86686496Y-51593600D01*
X86583135Y-51621295D01*
X86490464Y-51674799D01*
X86414799Y-51750464D01*
X86361295Y-51843135D01*
X86333600Y-51946496D01*
X86333600Y-51947152D01*
X85760468Y-51374020D01*
X85760465Y-51374020D01*
X85747543Y-51391808D01*
X85747539Y-51391813D01*
X85664616Y-51554556D01*
X85608172Y-51728271D01*
X85579600Y-51908669D01*
X85260900Y-51908669D01*
X85260900Y-51895510D01*
X85260900Y-51895507D01*
X85260899Y-51895505D01*
X85240400Y-51792449D01*
X85220130Y-51690547D01*
X85140157Y-51497476D01*
X85024055Y-51323716D01*
X85024054Y-51323715D01*
X85024053Y-51323713D01*
X84876287Y-51175947D01*
X84876282Y-51175943D01*
X84868628Y-51170829D01*
X84868627Y-51170828D01*
X84702525Y-51059843D01*
X84509453Y-50979870D01*
X84509445Y-50979868D01*
X84304493Y-50939100D01*
X84304490Y-50939100D01*
X84095510Y-50939100D01*
X84095507Y-50939100D01*
X83890554Y-50979868D01*
X83890546Y-50979870D01*
X83697477Y-51059842D01*
X83523713Y-51175946D01*
X83375944Y-51323715D01*
X83281566Y-51464964D01*
X83227954Y-51509769D01*
X83158629Y-51518476D01*
X83095602Y-51488322D01*
X83058882Y-51428879D01*
X83054464Y-51396073D01*
X83054464Y-47118995D01*
X99799499Y-47118995D01*
X99826418Y-47254322D01*
X99826421Y-47254332D01*
X99879221Y-47381804D01*
X99879228Y-47381817D01*
X99955885Y-47496541D01*
X99955888Y-47496545D01*
X100053454Y-47594111D01*
X100053458Y-47594114D01*
X100168182Y-47670771D01*
X100168195Y-47670778D01*
X100295667Y-47723578D01*
X100295672Y-47723580D01*
X100295676Y-47723580D01*
X100295677Y-47723581D01*
X100431004Y-47750500D01*
X100431007Y-47750500D01*
X100568995Y-47750500D01*
X100660041Y-47732389D01*
X100704328Y-47723580D01*
X100831811Y-47670775D01*
X100946542Y-47594114D01*
X101044114Y-47496542D01*
X101120775Y-47381811D01*
X101173580Y-47254328D01*
X101188621Y-47178712D01*
X101221004Y-47116805D01*
X101281719Y-47082230D01*
X101334427Y-47081289D01*
X101376136Y-47089585D01*
X101431005Y-47100500D01*
X101431007Y-47100500D01*
X101568995Y-47100500D01*
X101660842Y-47082230D01*
X101704328Y-47073580D01*
X101831811Y-47020775D01*
X101946542Y-46944114D01*
X102044114Y-46846542D01*
X102120775Y-46731811D01*
X102173580Y-46604328D01*
X102193161Y-46505888D01*
X102200500Y-46468995D01*
X102200500Y-46331007D01*
X102200181Y-46329404D01*
X102200257Y-46328545D01*
X102199903Y-46324942D01*
X102200586Y-46324874D01*
X102206405Y-46259812D01*
X102249265Y-46204632D01*
X102315153Y-46181384D01*
X102345989Y-46183589D01*
X102431004Y-46200500D01*
X102431007Y-46200500D01*
X102568995Y-46200500D01*
X102665095Y-46181384D01*
X102704328Y-46173580D01*
X102831811Y-46120775D01*
X102946542Y-46044114D01*
X103044114Y-45946542D01*
X103095929Y-45868995D01*
X110199499Y-45868995D01*
X110226418Y-46004322D01*
X110226421Y-46004332D01*
X110279221Y-46131804D01*
X110279228Y-46131817D01*
X110355885Y-46246541D01*
X110355888Y-46246545D01*
X110453454Y-46344111D01*
X110453458Y-46344114D01*
X110568182Y-46420771D01*
X110568195Y-46420778D01*
X110684598Y-46468993D01*
X110695672Y-46473580D01*
X110695676Y-46473580D01*
X110695677Y-46473581D01*
X110831004Y-46500500D01*
X110831007Y-46500500D01*
X110968995Y-46500500D01*
X111060041Y-46482389D01*
X111104328Y-46473580D01*
X111211411Y-46429225D01*
X111231804Y-46420778D01*
X111231804Y-46420777D01*
X111231811Y-46420775D01*
X111346542Y-46344114D01*
X111444114Y-46246542D01*
X111520775Y-46131811D01*
X111573580Y-46004328D01*
X111600500Y-45868993D01*
X111600500Y-45731007D01*
X111600500Y-45731004D01*
X111573581Y-45595677D01*
X111573580Y-45595676D01*
X111573580Y-45595672D01*
X111565069Y-45575125D01*
X111520778Y-45468195D01*
X111520771Y-45468182D01*
X111444114Y-45353458D01*
X111444111Y-45353454D01*
X111346545Y-45255888D01*
X111346541Y-45255885D01*
X111231817Y-45179228D01*
X111231804Y-45179221D01*
X111104332Y-45126421D01*
X111104322Y-45126418D01*
X110968995Y-45099500D01*
X110968993Y-45099500D01*
X110831007Y-45099500D01*
X110831005Y-45099500D01*
X110695677Y-45126418D01*
X110695667Y-45126421D01*
X110568195Y-45179221D01*
X110568182Y-45179228D01*
X110453458Y-45255885D01*
X110453454Y-45255888D01*
X110355888Y-45353454D01*
X110355885Y-45353458D01*
X110279228Y-45468182D01*
X110279221Y-45468195D01*
X110226421Y-45595667D01*
X110226418Y-45595677D01*
X110199500Y-45731004D01*
X110199500Y-45731007D01*
X110199500Y-45868993D01*
X110199500Y-45868995D01*
X110199499Y-45868995D01*
X103095929Y-45868995D01*
X103120775Y-45831811D01*
X103173580Y-45704328D01*
X103195194Y-45595667D01*
X103200500Y-45568995D01*
X103200500Y-45431004D01*
X103173581Y-45295677D01*
X103173580Y-45295676D01*
X103173580Y-45295672D01*
X103168059Y-45282342D01*
X103120778Y-45168195D01*
X103120771Y-45168182D01*
X103044114Y-45053458D01*
X103044111Y-45053454D01*
X102946545Y-44955888D01*
X102946541Y-44955885D01*
X102831817Y-44879228D01*
X102831804Y-44879221D01*
X102704332Y-44826421D01*
X102704322Y-44826418D01*
X102568995Y-44799500D01*
X102568993Y-44799500D01*
X102431007Y-44799500D01*
X102431005Y-44799500D01*
X102295677Y-44826418D01*
X102295667Y-44826421D01*
X102168195Y-44879221D01*
X102168182Y-44879228D01*
X102053458Y-44955885D01*
X102053454Y-44955888D01*
X101955888Y-45053454D01*
X101955885Y-45053458D01*
X101879228Y-45168182D01*
X101879221Y-45168195D01*
X101826421Y-45295667D01*
X101826418Y-45295677D01*
X101799500Y-45431004D01*
X101799500Y-45569000D01*
X101799820Y-45570607D01*
X101799743Y-45571465D01*
X101800097Y-45575058D01*
X101799415Y-45575125D01*
X101793590Y-45640199D01*
X101750724Y-45695374D01*
X101684833Y-45718616D01*
X101654011Y-45716410D01*
X101568997Y-45699500D01*
X101568993Y-45699500D01*
X101431007Y-45699500D01*
X101431005Y-45699500D01*
X101295677Y-45726418D01*
X101295667Y-45726421D01*
X101168195Y-45779221D01*
X101168182Y-45779228D01*
X101053458Y-45855885D01*
X101053454Y-45855888D01*
X100955888Y-45953454D01*
X100955885Y-45953458D01*
X100879228Y-46068182D01*
X100879221Y-46068195D01*
X100826421Y-46195667D01*
X100826418Y-46195677D01*
X100811379Y-46271285D01*
X100778994Y-46333196D01*
X100718278Y-46367770D01*
X100665571Y-46368710D01*
X100568996Y-46349500D01*
X100568993Y-46349500D01*
X100431007Y-46349500D01*
X100431005Y-46349500D01*
X100295677Y-46376418D01*
X100295667Y-46376421D01*
X100168195Y-46429221D01*
X100168182Y-46429228D01*
X100053458Y-46505885D01*
X100053454Y-46505888D01*
X99955888Y-46603454D01*
X99955885Y-46603458D01*
X99879228Y-46718182D01*
X99879221Y-46718195D01*
X99826421Y-46845667D01*
X99826418Y-46845677D01*
X99799500Y-46981004D01*
X99799500Y-46981007D01*
X99799500Y-47118993D01*
X99799500Y-47118995D01*
X99799499Y-47118995D01*
X83054464Y-47118995D01*
X83054464Y-45568995D01*
X92799499Y-45568995D01*
X92826418Y-45704322D01*
X92826421Y-45704332D01*
X92879221Y-45831804D01*
X92879228Y-45831817D01*
X92955885Y-45946541D01*
X92955888Y-45946545D01*
X93053454Y-46044111D01*
X93053458Y-46044114D01*
X93168182Y-46120771D01*
X93168189Y-46120775D01*
X93269962Y-46162930D01*
X93324363Y-46206769D01*
X93337069Y-46230038D01*
X93379221Y-46331804D01*
X93379228Y-46331817D01*
X93455885Y-46446541D01*
X93455888Y-46446545D01*
X93553454Y-46544111D01*
X93553458Y-46544114D01*
X93668182Y-46620771D01*
X93668195Y-46620778D01*
X93795667Y-46673578D01*
X93795672Y-46673580D01*
X93795676Y-46673580D01*
X93795677Y-46673581D01*
X93931004Y-46700500D01*
X93931007Y-46700500D01*
X94068995Y-46700500D01*
X94160041Y-46682389D01*
X94204328Y-46673580D01*
X94331811Y-46620775D01*
X94446542Y-46544114D01*
X94544114Y-46446542D01*
X94620775Y-46331811D01*
X94668060Y-46217654D01*
X94711898Y-46163254D01*
X94778192Y-46141189D01*
X94830067Y-46150548D01*
X94885672Y-46173580D01*
X94885676Y-46173580D01*
X94885677Y-46173581D01*
X95021004Y-46200500D01*
X95021007Y-46200500D01*
X95158995Y-46200500D01*
X95255095Y-46181384D01*
X95294328Y-46173580D01*
X95421811Y-46120775D01*
X95536542Y-46044114D01*
X95634114Y-45946542D01*
X95710775Y-45831811D01*
X95763580Y-45704328D01*
X95785194Y-45595667D01*
X95790500Y-45568995D01*
X95790500Y-45431004D01*
X95763581Y-45295677D01*
X95763580Y-45295676D01*
X95763580Y-45295672D01*
X95758059Y-45282342D01*
X95710778Y-45168195D01*
X95710771Y-45168182D01*
X95634114Y-45053458D01*
X95634111Y-45053454D01*
X95536545Y-44955888D01*
X95536541Y-44955885D01*
X95421817Y-44879228D01*
X95421804Y-44879221D01*
X95294332Y-44826421D01*
X95294322Y-44826418D01*
X95158995Y-44799500D01*
X95158993Y-44799500D01*
X95021007Y-44799500D01*
X95021005Y-44799500D01*
X94885677Y-44826418D01*
X94885667Y-44826421D01*
X94758195Y-44879221D01*
X94758182Y-44879228D01*
X94643458Y-44955885D01*
X94643454Y-44955888D01*
X94545888Y-45053454D01*
X94545885Y-45053458D01*
X94469228Y-45168182D01*
X94469223Y-45168192D01*
X94421941Y-45282342D01*
X94378100Y-45336745D01*
X94311806Y-45358810D01*
X94259927Y-45349450D01*
X94230036Y-45337068D01*
X94175634Y-45293228D01*
X94162933Y-45269969D01*
X94120775Y-45168189D01*
X94120771Y-45168182D01*
X94044114Y-45053458D01*
X94044111Y-45053454D01*
X93946545Y-44955888D01*
X93946541Y-44955885D01*
X93831817Y-44879228D01*
X93831804Y-44879221D01*
X93704332Y-44826421D01*
X93704322Y-44826418D01*
X93568995Y-44799500D01*
X93568993Y-44799500D01*
X93431007Y-44799500D01*
X93431005Y-44799500D01*
X93295677Y-44826418D01*
X93295667Y-44826421D01*
X93168195Y-44879221D01*
X93168182Y-44879228D01*
X93053458Y-44955885D01*
X93053454Y-44955888D01*
X92955888Y-45053454D01*
X92955885Y-45053458D01*
X92879228Y-45168182D01*
X92879221Y-45168195D01*
X92826421Y-45295667D01*
X92826418Y-45295677D01*
X92799500Y-45431004D01*
X92799500Y-45431007D01*
X92799500Y-45568993D01*
X92799500Y-45568995D01*
X92799499Y-45568995D01*
X83054464Y-45568995D01*
X83054464Y-44068995D01*
X100799499Y-44068995D01*
X100826418Y-44204322D01*
X100826421Y-44204332D01*
X100879221Y-44331804D01*
X100879228Y-44331817D01*
X100955885Y-44446541D01*
X100955888Y-44446545D01*
X101053454Y-44544111D01*
X101053458Y-44544114D01*
X101168182Y-44620771D01*
X101168195Y-44620778D01*
X101295667Y-44673578D01*
X101295672Y-44673580D01*
X101295676Y-44673580D01*
X101295677Y-44673581D01*
X101431004Y-44700500D01*
X101431007Y-44700500D01*
X101568995Y-44700500D01*
X101660041Y-44682389D01*
X101704328Y-44673580D01*
X101831811Y-44620775D01*
X101946542Y-44544114D01*
X102044114Y-44446542D01*
X102120775Y-44331811D01*
X102173580Y-44204328D01*
X102200500Y-44068993D01*
X102200500Y-43931007D01*
X102200500Y-43931004D01*
X102173581Y-43795677D01*
X102173580Y-43795676D01*
X102173580Y-43795672D01*
X102163269Y-43770778D01*
X102120778Y-43668195D01*
X102120771Y-43668182D01*
X102044114Y-43553458D01*
X102044111Y-43553454D01*
X101946545Y-43455888D01*
X101946541Y-43455885D01*
X101831817Y-43379228D01*
X101831804Y-43379221D01*
X101704332Y-43326421D01*
X101704322Y-43326418D01*
X101568995Y-43299500D01*
X101568993Y-43299500D01*
X101431007Y-43299500D01*
X101431005Y-43299500D01*
X101295677Y-43326418D01*
X101295667Y-43326421D01*
X101168195Y-43379221D01*
X101168182Y-43379228D01*
X101053458Y-43455885D01*
X101053454Y-43455888D01*
X100955888Y-43553454D01*
X100955885Y-43553458D01*
X100879228Y-43668182D01*
X100879221Y-43668195D01*
X100826421Y-43795667D01*
X100826418Y-43795677D01*
X100799500Y-43931004D01*
X100799500Y-43931007D01*
X100799500Y-44068993D01*
X100799500Y-44068995D01*
X100799499Y-44068995D01*
X83054464Y-44068995D01*
X83054464Y-43218995D01*
X96799499Y-43218995D01*
X96826418Y-43354322D01*
X96826421Y-43354332D01*
X96879221Y-43481804D01*
X96879228Y-43481817D01*
X96955885Y-43596541D01*
X96955888Y-43596545D01*
X97053454Y-43694111D01*
X97053458Y-43694114D01*
X97168182Y-43770771D01*
X97168195Y-43770778D01*
X97263739Y-43810353D01*
X97295672Y-43823580D01*
X97295676Y-43823580D01*
X97295677Y-43823581D01*
X97431004Y-43850500D01*
X97431007Y-43850500D01*
X97568995Y-43850500D01*
X97660041Y-43832389D01*
X97704328Y-43823580D01*
X97831811Y-43770775D01*
X97946542Y-43694114D01*
X98044114Y-43596542D01*
X98120775Y-43481811D01*
X98173580Y-43354328D01*
X98195527Y-43243995D01*
X102299499Y-43243995D01*
X102326418Y-43379322D01*
X102326421Y-43379332D01*
X102379221Y-43506804D01*
X102379228Y-43506817D01*
X102455885Y-43621541D01*
X102455888Y-43621545D01*
X102553454Y-43719111D01*
X102553458Y-43719114D01*
X102668182Y-43795771D01*
X102668195Y-43795778D01*
X102795667Y-43848578D01*
X102795672Y-43848580D01*
X102795676Y-43848580D01*
X102795677Y-43848581D01*
X102931004Y-43875500D01*
X102931007Y-43875500D01*
X103068995Y-43875500D01*
X103160041Y-43857389D01*
X103204328Y-43848580D01*
X103331811Y-43795775D01*
X103446542Y-43719114D01*
X103544114Y-43621542D01*
X103620775Y-43506811D01*
X103673580Y-43379328D01*
X103700500Y-43243993D01*
X103700500Y-43106007D01*
X103700500Y-43106004D01*
X103673581Y-42970677D01*
X103673580Y-42970676D01*
X103673580Y-42970672D01*
X103663223Y-42945667D01*
X103620778Y-42843195D01*
X103620771Y-42843182D01*
X103544114Y-42728458D01*
X103544111Y-42728454D01*
X103446545Y-42630888D01*
X103446541Y-42630885D01*
X103353917Y-42568995D01*
X105476743Y-42568995D01*
X105503662Y-42704322D01*
X105503665Y-42704332D01*
X105556465Y-42831804D01*
X105556472Y-42831817D01*
X105633129Y-42946541D01*
X105633132Y-42946545D01*
X105730698Y-43044111D01*
X105730702Y-43044114D01*
X105845426Y-43120771D01*
X105845439Y-43120778D01*
X105972911Y-43173578D01*
X105972916Y-43173580D01*
X105972920Y-43173580D01*
X105972921Y-43173581D01*
X106108248Y-43200500D01*
X106108251Y-43200500D01*
X106246239Y-43200500D01*
X106337285Y-43182389D01*
X106381572Y-43173580D01*
X106509055Y-43120775D01*
X106623786Y-43044114D01*
X106721358Y-42946542D01*
X106798019Y-42831811D01*
X106850824Y-42704328D01*
X106870405Y-42605888D01*
X106877744Y-42568995D01*
X106877744Y-42431004D01*
X106850825Y-42295677D01*
X106850824Y-42295676D01*
X106850824Y-42295672D01*
X106830474Y-42246542D01*
X106798022Y-42168195D01*
X106798015Y-42168182D01*
X106721358Y-42053458D01*
X106721355Y-42053454D01*
X106623789Y-41955888D01*
X106623785Y-41955885D01*
X106509061Y-41879228D01*
X106509048Y-41879221D01*
X106381576Y-41826421D01*
X106381566Y-41826418D01*
X106246239Y-41799500D01*
X106246237Y-41799500D01*
X106108251Y-41799500D01*
X106108249Y-41799500D01*
X105972921Y-41826418D01*
X105972911Y-41826421D01*
X105845439Y-41879221D01*
X105845426Y-41879228D01*
X105730702Y-41955885D01*
X105730698Y-41955888D01*
X105633132Y-42053454D01*
X105633129Y-42053458D01*
X105556472Y-42168182D01*
X105556465Y-42168195D01*
X105503665Y-42295667D01*
X105503662Y-42295677D01*
X105476744Y-42431004D01*
X105476744Y-42431007D01*
X105476744Y-42568993D01*
X105476744Y-42568995D01*
X105476743Y-42568995D01*
X103353917Y-42568995D01*
X103331817Y-42554228D01*
X103331808Y-42554223D01*
X103296204Y-42539476D01*
X103296202Y-42539475D01*
X103204332Y-42501421D01*
X103204322Y-42501418D01*
X103068995Y-42474500D01*
X103068993Y-42474500D01*
X102931007Y-42474500D01*
X102931005Y-42474500D01*
X102795677Y-42501418D01*
X102795667Y-42501421D01*
X102668195Y-42554221D01*
X102668182Y-42554228D01*
X102553458Y-42630885D01*
X102553454Y-42630888D01*
X102455888Y-42728454D01*
X102455885Y-42728458D01*
X102379228Y-42843182D01*
X102379221Y-42843195D01*
X102326421Y-42970667D01*
X102326418Y-42970677D01*
X102299500Y-43106004D01*
X102299500Y-43106007D01*
X102299500Y-43243993D01*
X102299500Y-43243995D01*
X102299499Y-43243995D01*
X98195527Y-43243995D01*
X98200500Y-43218993D01*
X98200500Y-43081007D01*
X98200500Y-43081004D01*
X98173581Y-42945677D01*
X98173580Y-42945676D01*
X98173580Y-42945672D01*
X98131133Y-42843195D01*
X98120778Y-42818195D01*
X98120771Y-42818182D01*
X98044114Y-42703458D01*
X98044111Y-42703454D01*
X97946545Y-42605888D01*
X97946541Y-42605885D01*
X97831817Y-42529228D01*
X97831804Y-42529221D01*
X97704332Y-42476421D01*
X97704322Y-42476418D01*
X97568995Y-42449500D01*
X97568993Y-42449500D01*
X97431007Y-42449500D01*
X97431005Y-42449500D01*
X97295677Y-42476418D01*
X97295667Y-42476421D01*
X97168195Y-42529221D01*
X97168182Y-42529228D01*
X97053458Y-42605885D01*
X97053454Y-42605888D01*
X96955888Y-42703454D01*
X96955885Y-42703458D01*
X96879228Y-42818182D01*
X96879221Y-42818195D01*
X96826421Y-42945667D01*
X96826418Y-42945677D01*
X96799500Y-43081004D01*
X96799500Y-43081007D01*
X96799500Y-43218993D01*
X96799500Y-43218995D01*
X96799499Y-43218995D01*
X83054464Y-43218995D01*
X83054464Y-40268995D01*
X86219499Y-40268995D01*
X86246418Y-40404322D01*
X86246421Y-40404332D01*
X86299221Y-40531804D01*
X86299228Y-40531817D01*
X86375885Y-40646541D01*
X86375888Y-40646545D01*
X86473454Y-40744111D01*
X86473458Y-40744114D01*
X86588182Y-40820771D01*
X86588195Y-40820778D01*
X86702640Y-40868182D01*
X86715672Y-40873580D01*
X86715676Y-40873580D01*
X86715677Y-40873581D01*
X86851004Y-40900500D01*
X86942394Y-40900500D01*
X87009433Y-40920185D01*
X87055188Y-40972989D01*
X87065132Y-41042147D01*
X87056955Y-41071952D01*
X87026421Y-41145667D01*
X87026418Y-41145677D01*
X86999500Y-41281004D01*
X86999500Y-41281007D01*
X86999500Y-41418993D01*
X86999500Y-41418995D01*
X86999499Y-41418995D01*
X87026418Y-41554322D01*
X87026421Y-41554332D01*
X87079221Y-41681804D01*
X87079228Y-41681817D01*
X87155885Y-41796541D01*
X87155888Y-41796545D01*
X87253454Y-41894111D01*
X87253458Y-41894114D01*
X87368182Y-41970771D01*
X87368195Y-41970778D01*
X87495667Y-42023578D01*
X87495672Y-42023580D01*
X87495676Y-42023580D01*
X87495677Y-42023581D01*
X87631004Y-42050500D01*
X87631007Y-42050500D01*
X87768995Y-42050500D01*
X87860041Y-42032389D01*
X87904328Y-42023580D01*
X88031811Y-41970775D01*
X88146542Y-41894114D01*
X88171661Y-41868995D01*
X100799499Y-41868995D01*
X100826418Y-42004322D01*
X100826421Y-42004332D01*
X100879221Y-42131804D01*
X100879228Y-42131817D01*
X100955885Y-42246541D01*
X100955888Y-42246545D01*
X101053454Y-42344111D01*
X101053458Y-42344114D01*
X101168182Y-42420771D01*
X101168195Y-42420778D01*
X101295667Y-42473578D01*
X101295672Y-42473580D01*
X101295676Y-42473580D01*
X101295677Y-42473581D01*
X101431004Y-42500500D01*
X101431007Y-42500500D01*
X101568995Y-42500500D01*
X101690050Y-42476420D01*
X101704328Y-42473580D01*
X101831811Y-42420775D01*
X101946542Y-42344114D01*
X102044114Y-42246542D01*
X102120775Y-42131811D01*
X102173580Y-42004328D01*
X102198466Y-41879221D01*
X102200500Y-41868995D01*
X102200500Y-41731004D01*
X102173581Y-41595677D01*
X102173580Y-41595676D01*
X102173580Y-41595672D01*
X102173578Y-41595667D01*
X102120778Y-41468195D01*
X102120771Y-41468182D01*
X102044114Y-41353458D01*
X102044111Y-41353454D01*
X101959652Y-41268995D01*
X110099499Y-41268995D01*
X110126418Y-41404322D01*
X110126421Y-41404332D01*
X110179221Y-41531804D01*
X110179228Y-41531817D01*
X110255885Y-41646541D01*
X110255888Y-41646545D01*
X110353454Y-41744111D01*
X110353458Y-41744114D01*
X110468182Y-41820771D01*
X110468195Y-41820778D01*
X110584598Y-41868993D01*
X110595672Y-41873580D01*
X110595676Y-41873580D01*
X110595677Y-41873581D01*
X110731004Y-41900500D01*
X110731007Y-41900500D01*
X110868995Y-41900500D01*
X110960041Y-41882389D01*
X111004328Y-41873580D01*
X111131811Y-41820775D01*
X111246542Y-41744114D01*
X111344114Y-41646542D01*
X111420775Y-41531811D01*
X111473580Y-41404328D01*
X111483700Y-41353454D01*
X111500500Y-41268995D01*
X111500500Y-41131004D01*
X111473581Y-40995677D01*
X111473580Y-40995676D01*
X111473580Y-40995672D01*
X111473578Y-40995667D01*
X111420778Y-40868195D01*
X111420771Y-40868182D01*
X111344114Y-40753458D01*
X111344111Y-40753454D01*
X111246545Y-40655888D01*
X111246541Y-40655885D01*
X111131817Y-40579228D01*
X111131804Y-40579221D01*
X111004332Y-40526421D01*
X111004322Y-40526418D01*
X110868995Y-40499500D01*
X110868993Y-40499500D01*
X110731007Y-40499500D01*
X110731005Y-40499500D01*
X110595677Y-40526418D01*
X110595667Y-40526421D01*
X110468195Y-40579221D01*
X110468182Y-40579228D01*
X110353458Y-40655885D01*
X110353454Y-40655888D01*
X110255888Y-40753454D01*
X110255885Y-40753458D01*
X110179228Y-40868182D01*
X110179221Y-40868195D01*
X110126421Y-40995667D01*
X110126418Y-40995677D01*
X110099500Y-41131004D01*
X110099500Y-41131007D01*
X110099500Y-41268993D01*
X110099500Y-41268995D01*
X110099499Y-41268995D01*
X101959652Y-41268995D01*
X101946545Y-41255888D01*
X101946541Y-41255885D01*
X101904834Y-41228017D01*
X101831817Y-41179228D01*
X101831804Y-41179221D01*
X101704332Y-41126421D01*
X101704322Y-41126418D01*
X101568995Y-41099500D01*
X101568993Y-41099500D01*
X101431007Y-41099500D01*
X101431005Y-41099500D01*
X101295677Y-41126418D01*
X101295667Y-41126421D01*
X101168195Y-41179221D01*
X101168182Y-41179228D01*
X101053458Y-41255885D01*
X101053454Y-41255888D01*
X100955888Y-41353454D01*
X100955885Y-41353458D01*
X100879228Y-41468182D01*
X100879221Y-41468195D01*
X100826421Y-41595667D01*
X100826418Y-41595677D01*
X100799500Y-41731004D01*
X100799500Y-41731007D01*
X100799500Y-41868993D01*
X100799500Y-41868995D01*
X100799499Y-41868995D01*
X88171661Y-41868995D01*
X88244114Y-41796542D01*
X88320775Y-41681811D01*
X88321230Y-41680711D01*
X88322579Y-41677458D01*
X88322579Y-41677457D01*
X88373578Y-41554332D01*
X88373580Y-41554328D01*
X88400500Y-41418993D01*
X88400500Y-41281007D01*
X88400500Y-41281004D01*
X88373581Y-41145677D01*
X88373580Y-41145676D01*
X88373580Y-41145672D01*
X88352223Y-41094111D01*
X88320778Y-41018195D01*
X88320771Y-41018182D01*
X88244114Y-40903458D01*
X88244111Y-40903454D01*
X88146545Y-40805888D01*
X88146541Y-40805885D01*
X88031817Y-40729228D01*
X88031804Y-40729221D01*
X87904332Y-40676421D01*
X87904322Y-40676418D01*
X87768995Y-40649500D01*
X87768993Y-40649500D01*
X87677606Y-40649500D01*
X87610567Y-40629815D01*
X87564812Y-40577011D01*
X87554868Y-40507853D01*
X87563045Y-40478048D01*
X87593578Y-40404332D01*
X87593580Y-40404328D01*
X87602389Y-40360041D01*
X87620500Y-40268995D01*
X87620500Y-40131004D01*
X87620499Y-40131002D01*
X87618111Y-40118995D01*
X111349499Y-40118995D01*
X111376418Y-40254322D01*
X111376421Y-40254332D01*
X111429221Y-40381804D01*
X111429228Y-40381817D01*
X111505885Y-40496541D01*
X111505888Y-40496545D01*
X111603454Y-40594111D01*
X111603458Y-40594114D01*
X111718182Y-40670771D01*
X111718195Y-40670778D01*
X111845667Y-40723578D01*
X111845672Y-40723580D01*
X111845676Y-40723580D01*
X111845677Y-40723581D01*
X111981004Y-40750500D01*
X111981007Y-40750500D01*
X112118994Y-40750500D01*
X112134644Y-40747386D01*
X112209357Y-40732525D01*
X112278946Y-40738752D01*
X112334124Y-40781614D01*
X112348108Y-40806689D01*
X112379223Y-40881807D01*
X112379228Y-40881817D01*
X112455885Y-40996541D01*
X112455888Y-40996545D01*
X112553454Y-41094111D01*
X112553458Y-41094114D01*
X112668182Y-41170771D01*
X112668195Y-41170778D01*
X112795667Y-41223578D01*
X112795672Y-41223580D01*
X112795676Y-41223580D01*
X112795677Y-41223581D01*
X112931004Y-41250500D01*
X112931007Y-41250500D01*
X113068995Y-41250500D01*
X113160041Y-41232389D01*
X113204328Y-41223580D01*
X113311411Y-41179225D01*
X113331804Y-41170778D01*
X113331804Y-41170777D01*
X113331811Y-41170775D01*
X113446542Y-41094114D01*
X113544114Y-40996542D01*
X113620775Y-40881811D01*
X113673580Y-40754328D01*
X113689077Y-40676420D01*
X113700500Y-40618995D01*
X113700500Y-40481004D01*
X113673581Y-40345677D01*
X113673580Y-40345676D01*
X113673580Y-40345672D01*
X113673578Y-40345667D01*
X113620778Y-40218195D01*
X113620771Y-40218182D01*
X113544114Y-40103458D01*
X113544111Y-40103454D01*
X113446545Y-40005888D01*
X113446541Y-40005885D01*
X113331817Y-39929228D01*
X113331804Y-39929221D01*
X113204332Y-39876421D01*
X113204322Y-39876418D01*
X113068995Y-39849500D01*
X113068993Y-39849500D01*
X112931007Y-39849500D01*
X112931004Y-39849500D01*
X112840643Y-39867474D01*
X112771052Y-39861247D01*
X112715874Y-39818384D01*
X112701891Y-39793309D01*
X112670778Y-39718195D01*
X112670771Y-39718182D01*
X112594114Y-39603458D01*
X112594111Y-39603454D01*
X112496545Y-39505888D01*
X112496541Y-39505885D01*
X112401253Y-39442215D01*
X112356448Y-39388603D01*
X112347741Y-39319278D01*
X112377896Y-39256250D01*
X112422697Y-39224550D01*
X112431806Y-39220777D01*
X112431805Y-39220777D01*
X112431811Y-39220775D01*
X112546542Y-39144114D01*
X112621661Y-39068995D01*
X113249499Y-39068995D01*
X113276418Y-39204322D01*
X113276421Y-39204332D01*
X113329221Y-39331804D01*
X113329228Y-39331817D01*
X113405885Y-39446541D01*
X113405888Y-39446545D01*
X113503454Y-39544111D01*
X113503458Y-39544114D01*
X113618182Y-39620771D01*
X113618195Y-39620778D01*
X113745667Y-39673578D01*
X113745672Y-39673580D01*
X113745676Y-39673580D01*
X113745677Y-39673581D01*
X113881004Y-39700500D01*
X113881007Y-39700500D01*
X114018995Y-39700500D01*
X114110041Y-39682389D01*
X114154328Y-39673580D01*
X114281811Y-39620775D01*
X114396542Y-39544114D01*
X114494114Y-39446542D01*
X114570775Y-39331811D01*
X114571227Y-39330721D01*
X114615204Y-39224550D01*
X114623580Y-39204328D01*
X114650500Y-39068993D01*
X114650500Y-38931007D01*
X114650500Y-38931004D01*
X114623581Y-38795677D01*
X114623580Y-38795676D01*
X114623580Y-38795672D01*
X114571109Y-38668995D01*
X114570778Y-38668195D01*
X114570771Y-38668182D01*
X114494114Y-38553458D01*
X114494111Y-38553454D01*
X114396545Y-38455888D01*
X114396541Y-38455885D01*
X114281817Y-38379228D01*
X114281804Y-38379221D01*
X114154332Y-38326421D01*
X114154322Y-38326418D01*
X114018995Y-38299500D01*
X114018993Y-38299500D01*
X113881007Y-38299500D01*
X113881005Y-38299500D01*
X113745677Y-38326418D01*
X113745667Y-38326421D01*
X113618195Y-38379221D01*
X113618182Y-38379228D01*
X113503458Y-38455885D01*
X113503454Y-38455888D01*
X113405888Y-38553454D01*
X113405885Y-38553458D01*
X113329228Y-38668182D01*
X113329221Y-38668195D01*
X113276421Y-38795667D01*
X113276418Y-38795677D01*
X113249500Y-38931004D01*
X113249500Y-38931007D01*
X113249500Y-39068993D01*
X113249500Y-39068995D01*
X113249499Y-39068995D01*
X112621661Y-39068995D01*
X112644114Y-39046542D01*
X112720775Y-38931811D01*
X112773580Y-38804328D01*
X112800500Y-38668993D01*
X112800500Y-38531007D01*
X112800500Y-38531004D01*
X112773581Y-38395677D01*
X112773580Y-38395676D01*
X112773580Y-38395672D01*
X112766769Y-38379228D01*
X112720778Y-38268195D01*
X112720771Y-38268182D01*
X112644114Y-38153458D01*
X112644111Y-38153454D01*
X112546545Y-38055888D01*
X112546541Y-38055885D01*
X112431817Y-37979228D01*
X112431804Y-37979221D01*
X112304332Y-37926421D01*
X112304322Y-37926418D01*
X112168995Y-37899500D01*
X112168993Y-37899500D01*
X112031007Y-37899500D01*
X112031005Y-37899500D01*
X111895677Y-37926418D01*
X111895667Y-37926421D01*
X111768195Y-37979221D01*
X111768182Y-37979228D01*
X111653458Y-38055885D01*
X111653454Y-38055888D01*
X111555888Y-38153454D01*
X111555885Y-38153458D01*
X111479228Y-38268182D01*
X111479221Y-38268195D01*
X111426421Y-38395667D01*
X111426418Y-38395677D01*
X111399500Y-38531004D01*
X111399500Y-38531007D01*
X111399500Y-38668993D01*
X111399500Y-38668995D01*
X111399499Y-38668995D01*
X111426418Y-38804322D01*
X111426421Y-38804332D01*
X111479221Y-38931804D01*
X111479228Y-38931817D01*
X111555885Y-39046541D01*
X111555888Y-39046545D01*
X111653454Y-39144111D01*
X111653458Y-39144114D01*
X111748746Y-39207784D01*
X111793551Y-39261396D01*
X111802258Y-39330721D01*
X111772103Y-39393749D01*
X111727312Y-39425445D01*
X111718196Y-39429221D01*
X111718182Y-39429228D01*
X111603458Y-39505885D01*
X111603454Y-39505888D01*
X111505888Y-39603454D01*
X111505885Y-39603458D01*
X111429228Y-39718182D01*
X111429221Y-39718195D01*
X111376421Y-39845667D01*
X111376418Y-39845677D01*
X111349500Y-39981004D01*
X111349500Y-39981007D01*
X111349500Y-40118993D01*
X111349500Y-40118995D01*
X111349499Y-40118995D01*
X87618111Y-40118995D01*
X87594264Y-39999106D01*
X87593582Y-39995680D01*
X87593578Y-39995667D01*
X87540778Y-39868195D01*
X87540771Y-39868182D01*
X87464114Y-39753458D01*
X87464111Y-39753454D01*
X87366545Y-39655888D01*
X87366541Y-39655885D01*
X87251817Y-39579228D01*
X87251804Y-39579221D01*
X87124332Y-39526421D01*
X87124322Y-39526418D01*
X86988995Y-39499500D01*
X86988993Y-39499500D01*
X86851007Y-39499500D01*
X86851005Y-39499500D01*
X86715677Y-39526418D01*
X86715667Y-39526421D01*
X86588195Y-39579221D01*
X86588182Y-39579228D01*
X86473458Y-39655885D01*
X86473454Y-39655888D01*
X86375888Y-39753454D01*
X86375885Y-39753458D01*
X86299228Y-39868182D01*
X86299221Y-39868195D01*
X86246421Y-39995667D01*
X86246418Y-39995677D01*
X86219500Y-40131004D01*
X86219500Y-40131007D01*
X86219500Y-40268993D01*
X86219500Y-40268995D01*
X86219499Y-40268995D01*
X83054464Y-40268995D01*
X83054464Y-36278995D01*
X110359499Y-36278995D01*
X110386418Y-36414322D01*
X110386421Y-36414332D01*
X110439221Y-36541804D01*
X110439228Y-36541817D01*
X110515885Y-36656541D01*
X110515888Y-36656545D01*
X110613454Y-36754111D01*
X110613458Y-36754114D01*
X110728182Y-36830771D01*
X110728195Y-36830778D01*
X110855667Y-36883578D01*
X110855672Y-36883580D01*
X110855676Y-36883580D01*
X110855677Y-36883581D01*
X110991004Y-36910500D01*
X110991007Y-36910500D01*
X111128995Y-36910500D01*
X111220041Y-36892389D01*
X111264328Y-36883580D01*
X111391811Y-36830775D01*
X111506542Y-36754114D01*
X111604114Y-36656542D01*
X111680775Y-36541811D01*
X111733580Y-36414328D01*
X111760500Y-36278993D01*
X111760500Y-36141007D01*
X111760500Y-36141004D01*
X111733581Y-36005677D01*
X111733580Y-36005676D01*
X111733580Y-36005672D01*
X111733578Y-36005667D01*
X111680778Y-35878195D01*
X111680771Y-35878182D01*
X111604114Y-35763458D01*
X111604111Y-35763454D01*
X111506545Y-35665888D01*
X111506541Y-35665885D01*
X111391817Y-35589228D01*
X111391804Y-35589221D01*
X111264332Y-35536421D01*
X111264322Y-35536418D01*
X111128995Y-35509500D01*
X111128993Y-35509500D01*
X110991007Y-35509500D01*
X110991005Y-35509500D01*
X110855677Y-35536418D01*
X110855667Y-35536421D01*
X110728195Y-35589221D01*
X110728182Y-35589228D01*
X110613458Y-35665885D01*
X110613454Y-35665888D01*
X110515888Y-35763454D01*
X110515885Y-35763458D01*
X110439228Y-35878182D01*
X110439221Y-35878195D01*
X110386421Y-36005667D01*
X110386418Y-36005677D01*
X110359500Y-36141004D01*
X110359500Y-36141007D01*
X110359500Y-36278993D01*
X110359500Y-36278995D01*
X110359499Y-36278995D01*
X83054464Y-36278995D01*
X83054464Y-34618995D01*
X95544466Y-34618995D01*
X95571385Y-34754322D01*
X95571388Y-34754332D01*
X95624188Y-34881804D01*
X95624195Y-34881817D01*
X95700852Y-34996541D01*
X95700855Y-34996545D01*
X95798421Y-35094111D01*
X95798425Y-35094114D01*
X95913149Y-35170771D01*
X95913162Y-35170778D01*
X96040634Y-35223578D01*
X96040639Y-35223580D01*
X96040643Y-35223580D01*
X96040644Y-35223581D01*
X96175971Y-35250500D01*
X96175974Y-35250500D01*
X96313962Y-35250500D01*
X96405008Y-35232389D01*
X96449295Y-35223580D01*
X96576778Y-35170775D01*
X96691509Y-35094114D01*
X96789081Y-34996542D01*
X96865742Y-34881811D01*
X96918547Y-34754328D01*
X96945467Y-34618993D01*
X96945467Y-34481007D01*
X96945467Y-34481004D01*
X96918548Y-34345677D01*
X96918547Y-34345676D01*
X96918547Y-34345672D01*
X96918545Y-34345667D01*
X96865745Y-34218195D01*
X96865738Y-34218182D01*
X96789081Y-34103458D01*
X96789078Y-34103454D01*
X96691512Y-34005888D01*
X96691508Y-34005885D01*
X96576784Y-33929228D01*
X96576771Y-33929221D01*
X96449299Y-33876421D01*
X96449289Y-33876418D01*
X96313962Y-33849500D01*
X96313960Y-33849500D01*
X96175974Y-33849500D01*
X96175972Y-33849500D01*
X96040644Y-33876418D01*
X96040634Y-33876421D01*
X95913162Y-33929221D01*
X95913149Y-33929228D01*
X95798425Y-34005885D01*
X95798421Y-34005888D01*
X95700855Y-34103454D01*
X95700852Y-34103458D01*
X95624195Y-34218182D01*
X95624188Y-34218195D01*
X95571388Y-34345667D01*
X95571385Y-34345677D01*
X95544467Y-34481004D01*
X95544467Y-34481007D01*
X95544467Y-34618993D01*
X95544467Y-34618995D01*
X95544466Y-34618995D01*
X83054464Y-34618995D01*
X83054464Y-32084161D01*
X83074149Y-32017122D01*
X83126953Y-31971367D01*
X83196111Y-31961423D01*
X83259667Y-31990448D01*
X83297441Y-32049226D01*
X83300081Y-32059970D01*
X83319868Y-32159445D01*
X83319870Y-32159453D01*
X83399842Y-32352522D01*
X83515946Y-32526286D01*
X83663713Y-32674053D01*
X83663716Y-32674055D01*
X83837476Y-32790157D01*
X84030547Y-32870130D01*
X84235505Y-32910899D01*
X84235508Y-32910900D01*
X84235510Y-32910900D01*
X84444492Y-32910900D01*
X84444493Y-32910899D01*
X84649453Y-32870130D01*
X84842524Y-32790157D01*
X84842525Y-32790156D01*
X84842526Y-32790156D01*
X85008630Y-32679170D01*
X85008631Y-32679169D01*
X85013052Y-32676213D01*
X85016284Y-32674055D01*
X85164055Y-32526284D01*
X85280157Y-32352524D01*
X85360130Y-32159453D01*
X85400900Y-31954490D01*
X85400900Y-31758669D01*
X85719600Y-31758669D01*
X85719600Y-31941330D01*
X85748172Y-32121728D01*
X85804616Y-32295443D01*
X85887535Y-32458178D01*
X85900467Y-32475978D01*
X86473600Y-31902845D01*
X86473600Y-31903504D01*
X86501295Y-32006865D01*
X86554799Y-32099536D01*
X86630464Y-32175201D01*
X86723135Y-32228705D01*
X86826496Y-32256400D01*
X86827153Y-32256400D01*
X86254019Y-32829531D01*
X86271817Y-32842462D01*
X86434556Y-32925383D01*
X86608271Y-32981827D01*
X86788670Y-33010400D01*
X86971330Y-33010400D01*
X87151728Y-32981827D01*
X87325443Y-32925383D01*
X87488178Y-32842465D01*
X87505979Y-32829531D01*
X86932848Y-32256400D01*
X86933504Y-32256400D01*
X87036865Y-32228705D01*
X87129536Y-32175201D01*
X87205201Y-32099536D01*
X87258705Y-32006865D01*
X87286400Y-31903504D01*
X87286400Y-31902847D01*
X87859531Y-32475978D01*
X87872465Y-32458178D01*
X87955383Y-32295443D01*
X88011827Y-32121728D01*
X88040400Y-31941330D01*
X88040400Y-31758669D01*
X88011827Y-31578271D01*
X87955383Y-31404556D01*
X87872462Y-31241817D01*
X87859531Y-31224020D01*
X87859531Y-31224019D01*
X87286400Y-31797151D01*
X87286400Y-31796496D01*
X87258705Y-31693135D01*
X87205201Y-31600464D01*
X87129536Y-31524799D01*
X87036865Y-31471295D01*
X86933504Y-31443600D01*
X86932847Y-31443600D01*
X87266998Y-31109448D01*
X93643250Y-31109448D01*
X93643250Y-31290551D01*
X93671579Y-31469410D01*
X93727537Y-31641636D01*
X93727538Y-31641639D01*
X93758264Y-31701940D01*
X93809539Y-31802573D01*
X93809756Y-31802997D01*
X93916191Y-31949494D01*
X93916195Y-31949499D01*
X94044250Y-32077554D01*
X94044255Y-32077558D01*
X94077706Y-32101861D01*
X94190756Y-32183996D01*
X94278502Y-32228705D01*
X94352110Y-32266211D01*
X94352113Y-32266212D01*
X94438226Y-32294191D01*
X94524341Y-32322171D01*
X94607179Y-32335291D01*
X94703199Y-32350500D01*
X94703204Y-32350500D01*
X94884301Y-32350500D01*
X94971009Y-32336765D01*
X95063159Y-32322171D01*
X95235389Y-32266211D01*
X95396744Y-32183996D01*
X95543251Y-32077553D01*
X95671303Y-31949501D01*
X95777746Y-31802994D01*
X95859961Y-31641639D01*
X95915921Y-31469409D01*
X95935233Y-31347476D01*
X95944250Y-31290551D01*
X95944250Y-31109448D01*
X96643250Y-31109448D01*
X96643250Y-31290551D01*
X96671579Y-31469410D01*
X96727537Y-31641636D01*
X96727538Y-31641639D01*
X96758264Y-31701940D01*
X96809539Y-31802573D01*
X96809756Y-31802997D01*
X96916191Y-31949494D01*
X96916195Y-31949499D01*
X97044250Y-32077554D01*
X97044255Y-32077558D01*
X97077706Y-32101861D01*
X97190756Y-32183996D01*
X97278502Y-32228705D01*
X97352110Y-32266211D01*
X97352113Y-32266212D01*
X97438226Y-32294191D01*
X97524341Y-32322171D01*
X97607179Y-32335291D01*
X97703199Y-32350500D01*
X97703204Y-32350500D01*
X97884301Y-32350500D01*
X97971009Y-32336765D01*
X98063159Y-32322171D01*
X98235389Y-32266211D01*
X98396744Y-32183996D01*
X98543251Y-32077553D01*
X98671303Y-31949501D01*
X98777746Y-31802994D01*
X98859961Y-31641639D01*
X98915921Y-31469409D01*
X98935233Y-31347476D01*
X98944250Y-31290551D01*
X98944250Y-31109448D01*
X99643250Y-31109448D01*
X99643250Y-31290551D01*
X99671579Y-31469410D01*
X99727537Y-31641636D01*
X99727538Y-31641639D01*
X99758264Y-31701940D01*
X99809539Y-31802573D01*
X99809756Y-31802997D01*
X99916191Y-31949494D01*
X99916195Y-31949499D01*
X100044250Y-32077554D01*
X100044255Y-32077558D01*
X100077706Y-32101861D01*
X100190756Y-32183996D01*
X100278502Y-32228705D01*
X100352110Y-32266211D01*
X100352113Y-32266212D01*
X100438226Y-32294191D01*
X100524341Y-32322171D01*
X100607179Y-32335291D01*
X100703199Y-32350500D01*
X100703204Y-32350500D01*
X100884301Y-32350500D01*
X100971009Y-32336765D01*
X101063159Y-32322171D01*
X101235389Y-32266211D01*
X101396744Y-32183996D01*
X101543251Y-32077553D01*
X101671303Y-31949501D01*
X101777746Y-31802994D01*
X101859961Y-31641639D01*
X101915921Y-31469409D01*
X101935233Y-31347476D01*
X101944250Y-31290551D01*
X101944250Y-31109448D01*
X101923879Y-30980838D01*
X101915921Y-30930591D01*
X101869949Y-30789100D01*
X101859962Y-30758363D01*
X101859960Y-30758360D01*
X101824195Y-30688166D01*
X101824194Y-30688164D01*
X101796748Y-30634298D01*
X102643250Y-30634298D01*
X102643250Y-31765701D01*
X102646151Y-31802567D01*
X102646152Y-31802573D01*
X102692003Y-31960392D01*
X102692005Y-31960395D01*
X102775667Y-32101861D01*
X102775673Y-32101869D01*
X102891880Y-32218076D01*
X102891884Y-32218079D01*
X102891886Y-32218081D01*
X103033353Y-32301744D01*
X103033354Y-32301744D01*
X103033357Y-32301746D01*
X103191176Y-32347597D01*
X103191179Y-32347597D01*
X103191181Y-32347598D01*
X103228056Y-32350500D01*
X103228064Y-32350500D01*
X104359436Y-32350500D01*
X104359444Y-32350500D01*
X104396319Y-32347598D01*
X104396321Y-32347597D01*
X104396323Y-32347597D01*
X104554142Y-32301746D01*
X104554143Y-32301745D01*
X104554147Y-32301744D01*
X104695614Y-32218081D01*
X104811831Y-32101864D01*
X104895494Y-31960397D01*
X104895495Y-31960393D01*
X104895496Y-31960392D01*
X104941347Y-31802573D01*
X104941348Y-31802567D01*
X104944249Y-31765701D01*
X104944250Y-31765694D01*
X104944250Y-30634306D01*
X104941348Y-30597431D01*
X104941224Y-30597004D01*
X104895496Y-30439607D01*
X104895494Y-30439604D01*
X104895494Y-30439603D01*
X104811831Y-30298136D01*
X104811829Y-30298134D01*
X104811826Y-30298130D01*
X104695619Y-30181923D01*
X104695611Y-30181917D01*
X104554145Y-30098255D01*
X104554142Y-30098253D01*
X104396323Y-30052402D01*
X104396317Y-30052401D01*
X104359451Y-30049500D01*
X104359444Y-30049500D01*
X103228056Y-30049500D01*
X103228048Y-30049500D01*
X103191182Y-30052401D01*
X103191176Y-30052402D01*
X103033357Y-30098253D01*
X103033354Y-30098255D01*
X102891888Y-30181917D01*
X102891880Y-30181923D01*
X102775673Y-30298130D01*
X102775667Y-30298138D01*
X102692005Y-30439604D01*
X102692003Y-30439607D01*
X102646152Y-30597426D01*
X102646151Y-30597432D01*
X102643250Y-30634298D01*
X101796748Y-30634298D01*
X101777745Y-30597004D01*
X101671308Y-30450505D01*
X101671304Y-30450500D01*
X101543249Y-30322445D01*
X101543244Y-30322441D01*
X101396747Y-30216006D01*
X101396746Y-30216005D01*
X101396744Y-30216004D01*
X101329845Y-30181917D01*
X101235389Y-30133788D01*
X101235386Y-30133787D01*
X101063160Y-30077829D01*
X100884301Y-30049500D01*
X100884296Y-30049500D01*
X100703204Y-30049500D01*
X100703199Y-30049500D01*
X100524339Y-30077829D01*
X100352113Y-30133787D01*
X100352110Y-30133788D01*
X100190752Y-30216006D01*
X100044255Y-30322441D01*
X100044250Y-30322445D01*
X99916195Y-30450500D01*
X99916191Y-30450505D01*
X99809756Y-30597002D01*
X99727538Y-30758360D01*
X99727537Y-30758363D01*
X99671579Y-30930589D01*
X99643250Y-31109448D01*
X98944250Y-31109448D01*
X98923879Y-30980838D01*
X98915921Y-30930591D01*
X98869949Y-30789100D01*
X98859962Y-30758363D01*
X98859961Y-30758360D01*
X98824195Y-30688166D01*
X98777746Y-30597006D01*
X98764146Y-30578287D01*
X98671308Y-30450505D01*
X98671304Y-30450500D01*
X98543249Y-30322445D01*
X98543244Y-30322441D01*
X98396747Y-30216006D01*
X98396746Y-30216005D01*
X98396744Y-30216004D01*
X98329845Y-30181917D01*
X98235389Y-30133788D01*
X98235386Y-30133787D01*
X98063160Y-30077829D01*
X97884301Y-30049500D01*
X97884296Y-30049500D01*
X97703204Y-30049500D01*
X97703199Y-30049500D01*
X97524339Y-30077829D01*
X97352113Y-30133787D01*
X97352110Y-30133788D01*
X97190752Y-30216006D01*
X97044255Y-30322441D01*
X97044250Y-30322445D01*
X96916195Y-30450500D01*
X96916191Y-30450505D01*
X96809756Y-30597002D01*
X96727538Y-30758360D01*
X96727537Y-30758363D01*
X96671579Y-30930589D01*
X96643250Y-31109448D01*
X95944250Y-31109448D01*
X95923879Y-30980838D01*
X95915921Y-30930591D01*
X95869949Y-30789100D01*
X95859962Y-30758363D01*
X95859961Y-30758360D01*
X95824195Y-30688166D01*
X95777746Y-30597006D01*
X95764146Y-30578287D01*
X95671308Y-30450505D01*
X95671304Y-30450500D01*
X95543249Y-30322445D01*
X95543244Y-30322441D01*
X95396747Y-30216006D01*
X95396746Y-30216005D01*
X95396744Y-30216004D01*
X95329845Y-30181917D01*
X95235389Y-30133788D01*
X95235386Y-30133787D01*
X95063160Y-30077829D01*
X94884301Y-30049500D01*
X94884296Y-30049500D01*
X94703204Y-30049500D01*
X94703199Y-30049500D01*
X94524339Y-30077829D01*
X94352113Y-30133787D01*
X94352110Y-30133788D01*
X94190752Y-30216006D01*
X94044255Y-30322441D01*
X94044250Y-30322445D01*
X93916195Y-30450500D01*
X93916191Y-30450505D01*
X93809756Y-30597002D01*
X93727538Y-30758360D01*
X93727537Y-30758363D01*
X93671579Y-30930589D01*
X93643250Y-31109448D01*
X87266998Y-31109448D01*
X87505978Y-30870467D01*
X87488178Y-30857535D01*
X87325443Y-30774616D01*
X87151728Y-30718172D01*
X86971330Y-30689600D01*
X86788670Y-30689600D01*
X86608271Y-30718172D01*
X86434556Y-30774616D01*
X86271813Y-30857539D01*
X86271808Y-30857543D01*
X86254020Y-30870465D01*
X86254020Y-30870468D01*
X86827154Y-31443600D01*
X86826496Y-31443600D01*
X86723135Y-31471295D01*
X86630464Y-31524799D01*
X86554799Y-31600464D01*
X86501295Y-31693135D01*
X86473600Y-31796496D01*
X86473600Y-31797152D01*
X85900468Y-31224020D01*
X85900465Y-31224020D01*
X85887543Y-31241808D01*
X85887539Y-31241813D01*
X85804616Y-31404556D01*
X85748172Y-31578271D01*
X85719600Y-31758669D01*
X85400900Y-31758669D01*
X85400900Y-31745510D01*
X85400900Y-31745507D01*
X85400899Y-31745505D01*
X85390238Y-31691908D01*
X85360130Y-31540547D01*
X85280157Y-31347476D01*
X85164055Y-31173716D01*
X85164053Y-31173713D01*
X85016287Y-31025947D01*
X85016282Y-31025943D01*
X85008628Y-31020829D01*
X85008627Y-31020828D01*
X84842525Y-30909843D01*
X84649453Y-30829870D01*
X84649445Y-30829868D01*
X84444493Y-30789100D01*
X84444490Y-30789100D01*
X84235510Y-30789100D01*
X84235507Y-30789100D01*
X84030554Y-30829868D01*
X84030546Y-30829870D01*
X83837477Y-30909842D01*
X83663713Y-31025946D01*
X83515946Y-31173713D01*
X83399842Y-31347477D01*
X83319870Y-31540546D01*
X83319868Y-31540552D01*
X83300081Y-31640030D01*
X83267696Y-31701940D01*
X83206980Y-31736515D01*
X83137211Y-31732775D01*
X83080539Y-31691908D01*
X83054958Y-31626890D01*
X83054464Y-31615838D01*
X83054464Y-28109448D01*
X93643250Y-28109448D01*
X93643250Y-28290551D01*
X93671579Y-28469410D01*
X93727537Y-28641636D01*
X93727538Y-28641639D01*
X93809756Y-28802997D01*
X93916191Y-28949494D01*
X93916195Y-28949499D01*
X94044250Y-29077554D01*
X94044255Y-29077558D01*
X94069778Y-29096101D01*
X94190756Y-29183996D01*
X94296234Y-29237740D01*
X94352110Y-29266211D01*
X94352113Y-29266212D01*
X94438226Y-29294191D01*
X94524341Y-29322171D01*
X94607179Y-29335291D01*
X94703199Y-29350500D01*
X94703204Y-29350500D01*
X94884301Y-29350500D01*
X94971009Y-29336765D01*
X95063159Y-29322171D01*
X95235389Y-29266211D01*
X95396744Y-29183996D01*
X95453740Y-29142586D01*
X95517723Y-29096101D01*
X95543245Y-29077558D01*
X95543247Y-29077555D01*
X95543251Y-29077553D01*
X95671303Y-28949501D01*
X95777746Y-28802994D01*
X95859961Y-28641639D01*
X95915921Y-28469409D01*
X95934137Y-28354397D01*
X95944250Y-28290551D01*
X95944250Y-28109449D01*
X95944249Y-28109447D01*
X95943009Y-28101617D01*
X96543750Y-28101617D01*
X96543750Y-28298382D01*
X96574528Y-28492705D01*
X96635331Y-28679835D01*
X96724655Y-28855145D01*
X96750069Y-28890125D01*
X96750070Y-28890125D01*
X97302621Y-28337574D01*
X97318505Y-28396853D01*
X97385648Y-28513147D01*
X97480603Y-28608102D01*
X97596897Y-28675245D01*
X97656174Y-28691128D01*
X97103623Y-29243677D01*
X97103623Y-29243678D01*
X97138608Y-29269096D01*
X97313914Y-29358418D01*
X97501044Y-29419221D01*
X97695368Y-29450000D01*
X97892132Y-29450000D01*
X98086455Y-29419221D01*
X98273585Y-29358418D01*
X98448893Y-29269095D01*
X98483875Y-29243678D01*
X98483876Y-29243678D01*
X97931325Y-28691127D01*
X97990603Y-28675245D01*
X98106897Y-28608102D01*
X98201852Y-28513147D01*
X98268995Y-28396853D01*
X98284877Y-28337575D01*
X98837428Y-28890126D01*
X98837428Y-28890125D01*
X98862845Y-28855143D01*
X98952168Y-28679835D01*
X99012971Y-28492705D01*
X99043750Y-28298382D01*
X99043750Y-28109448D01*
X99643250Y-28109448D01*
X99643250Y-28290551D01*
X99671579Y-28469410D01*
X99727537Y-28641636D01*
X99727538Y-28641639D01*
X99809756Y-28802997D01*
X99916191Y-28949494D01*
X99916195Y-28949499D01*
X100044250Y-29077554D01*
X100044255Y-29077558D01*
X100069778Y-29096101D01*
X100190756Y-29183996D01*
X100296234Y-29237740D01*
X100352110Y-29266211D01*
X100352113Y-29266212D01*
X100438226Y-29294191D01*
X100524341Y-29322171D01*
X100607179Y-29335291D01*
X100703199Y-29350500D01*
X100703204Y-29350500D01*
X100884301Y-29350500D01*
X100971009Y-29336765D01*
X101063159Y-29322171D01*
X101235389Y-29266211D01*
X101396744Y-29183996D01*
X101543251Y-29077553D01*
X101671303Y-28949501D01*
X101777746Y-28802994D01*
X101859961Y-28641639D01*
X101915921Y-28469409D01*
X101934137Y-28354397D01*
X101944250Y-28290551D01*
X101944250Y-28109448D01*
X102643250Y-28109448D01*
X102643250Y-28290551D01*
X102671579Y-28469410D01*
X102727537Y-28641636D01*
X102727538Y-28641639D01*
X102809756Y-28802997D01*
X102916191Y-28949494D01*
X102916195Y-28949499D01*
X103044250Y-29077554D01*
X103044255Y-29077558D01*
X103069778Y-29096101D01*
X103190756Y-29183996D01*
X103296234Y-29237740D01*
X103352110Y-29266211D01*
X103352113Y-29266212D01*
X103438226Y-29294191D01*
X103524341Y-29322171D01*
X103607179Y-29335291D01*
X103703199Y-29350500D01*
X103703204Y-29350500D01*
X103884301Y-29350500D01*
X103971009Y-29336765D01*
X104063159Y-29322171D01*
X104235389Y-29266211D01*
X104396744Y-29183996D01*
X104543251Y-29077553D01*
X104671303Y-28949501D01*
X104692781Y-28919939D01*
X104718031Y-28885186D01*
X111183250Y-28885186D01*
X111183250Y-29154813D01*
X111213436Y-29422719D01*
X111213438Y-29422731D01*
X111273434Y-29685594D01*
X111273437Y-29685602D01*
X111362484Y-29940082D01*
X111479464Y-30182994D01*
X111479466Y-30182997D01*
X111622912Y-30411289D01*
X111645495Y-30439607D01*
X111771014Y-30597004D01*
X111791016Y-30622085D01*
X111981665Y-30812734D01*
X112192461Y-30980838D01*
X112420753Y-31124284D01*
X112663671Y-31241267D01*
X112804503Y-31290546D01*
X112918147Y-31330312D01*
X112918155Y-31330315D01*
X112918158Y-31330315D01*
X112918159Y-31330316D01*
X113181018Y-31390312D01*
X113448937Y-31420499D01*
X113448938Y-31420500D01*
X113448941Y-31420500D01*
X113718562Y-31420500D01*
X113718562Y-31420499D01*
X113986482Y-31390312D01*
X114249341Y-31330316D01*
X114503829Y-31241267D01*
X114746747Y-31124284D01*
X114975039Y-30980838D01*
X115185835Y-30812734D01*
X115376484Y-30622085D01*
X115544588Y-30411289D01*
X115688034Y-30182997D01*
X115805017Y-29940079D01*
X115894066Y-29685591D01*
X115954062Y-29422732D01*
X115984250Y-29154809D01*
X115984250Y-28885191D01*
X115954062Y-28617268D01*
X115894066Y-28354409D01*
X115805017Y-28099921D01*
X115688034Y-27857003D01*
X115544588Y-27628711D01*
X115376484Y-27417915D01*
X115185835Y-27227266D01*
X115171715Y-27216006D01*
X115064994Y-27130899D01*
X114975039Y-27059162D01*
X114746747Y-26915716D01*
X114746744Y-26915714D01*
X114503832Y-26798734D01*
X114249352Y-26709687D01*
X114249344Y-26709684D01*
X114052196Y-26664687D01*
X113986482Y-26649688D01*
X113986478Y-26649687D01*
X113986469Y-26649686D01*
X113718563Y-26619500D01*
X113718559Y-26619500D01*
X113448941Y-26619500D01*
X113448936Y-26619500D01*
X113181030Y-26649686D01*
X113181018Y-26649688D01*
X112918155Y-26709684D01*
X112918147Y-26709687D01*
X112663667Y-26798734D01*
X112420755Y-26915714D01*
X112192462Y-27059161D01*
X111981665Y-27227265D01*
X111791015Y-27417915D01*
X111622911Y-27628712D01*
X111479464Y-27857005D01*
X111362484Y-28099917D01*
X111273437Y-28354397D01*
X111273434Y-28354405D01*
X111213438Y-28617268D01*
X111213436Y-28617280D01*
X111183250Y-28885186D01*
X104718031Y-28885186D01*
X104773509Y-28808827D01*
X104776143Y-28805200D01*
X104777746Y-28802994D01*
X104859961Y-28641639D01*
X104915921Y-28469409D01*
X104934137Y-28354397D01*
X104944250Y-28290551D01*
X104944250Y-28109448D01*
X104927413Y-28003147D01*
X104915921Y-27930591D01*
X104859961Y-27758361D01*
X104859961Y-27758360D01*
X104825129Y-27690000D01*
X104777746Y-27597006D01*
X104739859Y-27544859D01*
X104671308Y-27450505D01*
X104671304Y-27450500D01*
X104543249Y-27322445D01*
X104543244Y-27322441D01*
X104483897Y-27279323D01*
X104396747Y-27216006D01*
X104396746Y-27216005D01*
X104396744Y-27216004D01*
X104336076Y-27185092D01*
X106033250Y-27185092D01*
X106033250Y-27334907D01*
X106062473Y-27481822D01*
X106062475Y-27481830D01*
X106119801Y-27620229D01*
X106119806Y-27620238D01*
X106203030Y-27744790D01*
X106203033Y-27744794D01*
X106308955Y-27850716D01*
X106308959Y-27850719D01*
X106433511Y-27933943D01*
X106433517Y-27933946D01*
X106433518Y-27933947D01*
X106571920Y-27991275D01*
X106718842Y-28020499D01*
X106718846Y-28020500D01*
X106718847Y-28020500D01*
X106868654Y-28020500D01*
X106868655Y-28020499D01*
X107015580Y-27991275D01*
X107153982Y-27933947D01*
X107278541Y-27850719D01*
X107384469Y-27744791D01*
X107467697Y-27620232D01*
X107525025Y-27481830D01*
X107554250Y-27334903D01*
X107554250Y-27185097D01*
X107525025Y-27038170D01*
X107467697Y-26899768D01*
X107467696Y-26899767D01*
X107467693Y-26899761D01*
X107384469Y-26775209D01*
X107384466Y-26775205D01*
X107278544Y-26669283D01*
X107278540Y-26669280D01*
X107153988Y-26586056D01*
X107153979Y-26586051D01*
X107015580Y-26528725D01*
X107015572Y-26528723D01*
X106868657Y-26499500D01*
X106868653Y-26499500D01*
X106718847Y-26499500D01*
X106718842Y-26499500D01*
X106571927Y-26528723D01*
X106571919Y-26528725D01*
X106433520Y-26586051D01*
X106433511Y-26586056D01*
X106308959Y-26669280D01*
X106308955Y-26669283D01*
X106203033Y-26775205D01*
X106203030Y-26775209D01*
X106119806Y-26899761D01*
X106119801Y-26899770D01*
X106062475Y-27038169D01*
X106062473Y-27038177D01*
X106033250Y-27185092D01*
X104336076Y-27185092D01*
X104235389Y-27133788D01*
X104235386Y-27133787D01*
X104063160Y-27077829D01*
X103884301Y-27049500D01*
X103884296Y-27049500D01*
X103703204Y-27049500D01*
X103703199Y-27049500D01*
X103524339Y-27077829D01*
X103352113Y-27133787D01*
X103352110Y-27133788D01*
X103190752Y-27216006D01*
X103044255Y-27322441D01*
X103044250Y-27322445D01*
X102916195Y-27450500D01*
X102916191Y-27450505D01*
X102809756Y-27597002D01*
X102727538Y-27758360D01*
X102727537Y-27758363D01*
X102671579Y-27930589D01*
X102643250Y-28109448D01*
X101944250Y-28109448D01*
X101927413Y-28003147D01*
X101915921Y-27930591D01*
X101859961Y-27758361D01*
X101859961Y-27758360D01*
X101825129Y-27690000D01*
X101777746Y-27597006D01*
X101739859Y-27544859D01*
X101671308Y-27450505D01*
X101671304Y-27450500D01*
X101543249Y-27322445D01*
X101543244Y-27322441D01*
X101396747Y-27216006D01*
X101396746Y-27216005D01*
X101396744Y-27216004D01*
X101336076Y-27185092D01*
X101235389Y-27133788D01*
X101235386Y-27133787D01*
X101063160Y-27077829D01*
X100884301Y-27049500D01*
X100884296Y-27049500D01*
X100703204Y-27049500D01*
X100703199Y-27049500D01*
X100524339Y-27077829D01*
X100352113Y-27133787D01*
X100352110Y-27133788D01*
X100190752Y-27216006D01*
X100044255Y-27322441D01*
X100044250Y-27322445D01*
X99916195Y-27450500D01*
X99916191Y-27450505D01*
X99809756Y-27597002D01*
X99727538Y-27758360D01*
X99727537Y-27758363D01*
X99671579Y-27930589D01*
X99643250Y-28109448D01*
X99043750Y-28109448D01*
X99043750Y-28101617D01*
X99012971Y-27907294D01*
X98952168Y-27720164D01*
X98862846Y-27544858D01*
X98837428Y-27509873D01*
X98837427Y-27509873D01*
X98284877Y-28062423D01*
X98268995Y-28003147D01*
X98201852Y-27886853D01*
X98106897Y-27791898D01*
X97990603Y-27724755D01*
X97931324Y-27708871D01*
X98483875Y-27156320D01*
X98483875Y-27156319D01*
X98448895Y-27130905D01*
X98273585Y-27041581D01*
X98086455Y-26980778D01*
X97892132Y-26950000D01*
X97695368Y-26950000D01*
X97501044Y-26980778D01*
X97313911Y-27041582D01*
X97138613Y-27130899D01*
X97138609Y-27130902D01*
X97103623Y-27156320D01*
X97103622Y-27156320D01*
X97656175Y-27708871D01*
X97596897Y-27724755D01*
X97480603Y-27791898D01*
X97385648Y-27886853D01*
X97318505Y-28003147D01*
X97302621Y-28062424D01*
X96750070Y-27509872D01*
X96750070Y-27509873D01*
X96724652Y-27544859D01*
X96724649Y-27544863D01*
X96635332Y-27720161D01*
X96574528Y-27907294D01*
X96543750Y-28101617D01*
X95943009Y-28101617D01*
X95930161Y-28020499D01*
X95915921Y-27930591D01*
X95859961Y-27758361D01*
X95859961Y-27758360D01*
X95825129Y-27690000D01*
X95777746Y-27597006D01*
X95739859Y-27544859D01*
X95671308Y-27450505D01*
X95671304Y-27450500D01*
X95543251Y-27322447D01*
X95517720Y-27303898D01*
X95517718Y-27303895D01*
X95396747Y-27216006D01*
X95396746Y-27216005D01*
X95396744Y-27216004D01*
X95336076Y-27185092D01*
X95235389Y-27133788D01*
X95235386Y-27133787D01*
X95063160Y-27077829D01*
X94884301Y-27049500D01*
X94884296Y-27049500D01*
X94703204Y-27049500D01*
X94703199Y-27049500D01*
X94524339Y-27077829D01*
X94352113Y-27133787D01*
X94352110Y-27133788D01*
X94190752Y-27216006D01*
X94044255Y-27322441D01*
X94044250Y-27322445D01*
X93916195Y-27450500D01*
X93916191Y-27450505D01*
X93809756Y-27597002D01*
X93727538Y-27758360D01*
X93727537Y-27758363D01*
X93671579Y-27930589D01*
X93643250Y-28109448D01*
X83054464Y-28109448D01*
X83054464Y-27185092D01*
X91033250Y-27185092D01*
X91033250Y-27334907D01*
X91062473Y-27481822D01*
X91062475Y-27481830D01*
X91119801Y-27620229D01*
X91119806Y-27620238D01*
X91203030Y-27744790D01*
X91203033Y-27744794D01*
X91308955Y-27850716D01*
X91308959Y-27850719D01*
X91433511Y-27933943D01*
X91433517Y-27933946D01*
X91433518Y-27933947D01*
X91571920Y-27991275D01*
X91718842Y-28020499D01*
X91718846Y-28020500D01*
X91718847Y-28020500D01*
X91868654Y-28020500D01*
X91868655Y-28020499D01*
X92015580Y-27991275D01*
X92153982Y-27933947D01*
X92278541Y-27850719D01*
X92384469Y-27744791D01*
X92467697Y-27620232D01*
X92525025Y-27481830D01*
X92554250Y-27334903D01*
X92554250Y-27185097D01*
X92525025Y-27038170D01*
X92467697Y-26899768D01*
X92467696Y-26899767D01*
X92467693Y-26899761D01*
X92384469Y-26775209D01*
X92384466Y-26775205D01*
X92278544Y-26669283D01*
X92278540Y-26669280D01*
X92153988Y-26586056D01*
X92153979Y-26586051D01*
X92015580Y-26528725D01*
X92015572Y-26528723D01*
X91868657Y-26499500D01*
X91868653Y-26499500D01*
X91718847Y-26499500D01*
X91718842Y-26499500D01*
X91571927Y-26528723D01*
X91571919Y-26528725D01*
X91433520Y-26586051D01*
X91433511Y-26586056D01*
X91308959Y-26669280D01*
X91308955Y-26669283D01*
X91203033Y-26775205D01*
X91203030Y-26775209D01*
X91119806Y-26899761D01*
X91119801Y-26899770D01*
X91062475Y-27038169D01*
X91062473Y-27038177D01*
X91033250Y-27185092D01*
X83054464Y-27185092D01*
X83054464Y-24451809D01*
X83074149Y-24384770D01*
X83126953Y-24339015D01*
X83178464Y-24327809D01*
X114673821Y-24327809D01*
X114700657Y-24330748D01*
G37*
%TD.AperFunction*%
%TD*%
%TA.AperFunction,Conductor*%
%TO.N,POST_HV-*%
G36*
X75393106Y-24305023D02*
G01*
X75408104Y-24309427D01*
X75466855Y-24347172D01*
X75468042Y-24348541D01*
X75495518Y-24403402D01*
X75497163Y-24410960D01*
X75500000Y-24437331D01*
X75500000Y-46408170D01*
X75494975Y-46443114D01*
X75490570Y-46458112D01*
X75452827Y-46516855D01*
X75451458Y-46518042D01*
X75396597Y-46545518D01*
X75389039Y-46547163D01*
X75362668Y-46550000D01*
X60383178Y-46550000D01*
X60348230Y-46544973D01*
X60341561Y-46543014D01*
X60282787Y-46505233D01*
X60253769Y-46441674D01*
X60263720Y-46372517D01*
X60307984Y-46320696D01*
X60312929Y-46317417D01*
X60343119Y-46302840D01*
X60479837Y-46258417D01*
X60655143Y-46169095D01*
X60657527Y-46167362D01*
X60658587Y-46166984D01*
X60659296Y-46166550D01*
X60659387Y-46166698D01*
X60684267Y-46157820D01*
X60690126Y-46143677D01*
X60219557Y-45673108D01*
X60186072Y-45611785D01*
X60191056Y-45542093D01*
X60232928Y-45486160D01*
X60245222Y-45478049D01*
X60276314Y-45460099D01*
X60360099Y-45376314D01*
X60378041Y-45345236D01*
X60428604Y-45297024D01*
X60497211Y-45283799D01*
X60562077Y-45309766D01*
X60573108Y-45319557D01*
X61043677Y-45790126D01*
X61043677Y-45790125D01*
X61043678Y-45790126D01*
X61043678Y-45790125D01*
X61057146Y-45784546D01*
X61063363Y-45763377D01*
X61067353Y-45757539D01*
X61069095Y-45755143D01*
X61158418Y-45579835D01*
X61219221Y-45392705D01*
X61250000Y-45198382D01*
X61250000Y-45001617D01*
X61219221Y-44807294D01*
X61158418Y-44620164D01*
X61069096Y-44444858D01*
X61063113Y-44436623D01*
X61043679Y-44409873D01*
X61043678Y-44409873D01*
X61043677Y-44409873D01*
X61043676Y-44409873D01*
X60573108Y-44880442D01*
X60511785Y-44913927D01*
X60442093Y-44908943D01*
X60386160Y-44867071D01*
X60378039Y-44854760D01*
X60373262Y-44846486D01*
X60360099Y-44823686D01*
X60276314Y-44739901D01*
X60276312Y-44739900D01*
X60276307Y-44739896D01*
X60245237Y-44721958D01*
X60197021Y-44671392D01*
X60183797Y-44602785D01*
X60209765Y-44537920D01*
X60219548Y-44526896D01*
X60690125Y-44056320D01*
X60690125Y-44056319D01*
X60690124Y-44056318D01*
X60655147Y-44030906D01*
X60479839Y-43941583D01*
X60479838Y-43941582D01*
X60479835Y-43941581D01*
X60292705Y-43880778D01*
X60098382Y-43850000D01*
X60098381Y-43850000D01*
X59901619Y-43850000D01*
X59901618Y-43850000D01*
X59817633Y-43863301D01*
X59707299Y-43880777D01*
X59707297Y-43880777D01*
X59707294Y-43880778D01*
X59584197Y-43920775D01*
X59520160Y-43941582D01*
X59520153Y-43941585D01*
X59344863Y-44030898D01*
X59344775Y-44030953D01*
X59344121Y-44031437D01*
X59342495Y-44032619D01*
X59341578Y-44032946D01*
X59340326Y-44033727D01*
X59340156Y-44033454D01*
X59315730Y-44042176D01*
X59309871Y-44056320D01*
X59780443Y-44526890D01*
X59813928Y-44588213D01*
X59808944Y-44657904D01*
X59767073Y-44713838D01*
X59754764Y-44721957D01*
X59723689Y-44739898D01*
X59723684Y-44739902D01*
X59639902Y-44823684D01*
X59639898Y-44823689D01*
X59621957Y-44854764D01*
X59571389Y-44902979D01*
X59502782Y-44916200D01*
X59437918Y-44890231D01*
X59426890Y-44880443D01*
X58956320Y-44409871D01*
X58942851Y-44415450D01*
X58936635Y-44436623D01*
X58932619Y-44442495D01*
X58931437Y-44444121D01*
X58930956Y-44444771D01*
X58930896Y-44444867D01*
X58841582Y-44620158D01*
X58841580Y-44620161D01*
X58801130Y-44744655D01*
X58785560Y-44776324D01*
X58779176Y-44785661D01*
X58725088Y-44829892D01*
X58655675Y-44837859D01*
X58592981Y-44807040D01*
X58590697Y-44804943D01*
X58556603Y-44751898D01*
X58526235Y-44658431D01*
X58526212Y-44658363D01*
X58526211Y-44658361D01*
X58526211Y-44658360D01*
X58463878Y-44536027D01*
X58443996Y-44497006D01*
X58406109Y-44444859D01*
X58337558Y-44350505D01*
X58337554Y-44350500D01*
X58209501Y-44222447D01*
X58192885Y-44210375D01*
X58192881Y-44210371D01*
X58183968Y-44203895D01*
X58070887Y-44121738D01*
X58070548Y-44121449D01*
X58062987Y-44115998D01*
X58062572Y-44115789D01*
X58011301Y-44089664D01*
X58011300Y-44089664D01*
X57901639Y-44033788D01*
X57901636Y-44033787D01*
X57901633Y-44033786D01*
X57901631Y-44033785D01*
X57901612Y-44033778D01*
X57729412Y-43977829D01*
X57729413Y-43977829D01*
X57595265Y-43956582D01*
X57550551Y-43949500D01*
X57550550Y-43949500D01*
X57369450Y-43949500D01*
X57369449Y-43949500D01*
X57333677Y-43955165D01*
X57190585Y-43977829D01*
X57018386Y-44033778D01*
X57018363Y-44033786D01*
X57018359Y-44033788D01*
X56857005Y-44116004D01*
X56857002Y-44116005D01*
X56857002Y-44116006D01*
X56849111Y-44121739D01*
X56710499Y-44222445D01*
X56710491Y-44222452D01*
X56582452Y-44350491D01*
X56582445Y-44350499D01*
X56476004Y-44497005D01*
X56393788Y-44658359D01*
X56393786Y-44658363D01*
X56393778Y-44658386D01*
X56337829Y-44830585D01*
X56315262Y-44973067D01*
X56304834Y-45006792D01*
X56301857Y-45013071D01*
X56255350Y-45065213D01*
X56188035Y-45083935D01*
X56121285Y-45063292D01*
X56077021Y-45011466D01*
X56074560Y-45006078D01*
X56064879Y-44973963D01*
X56053740Y-44903639D01*
X56053635Y-44902979D01*
X56049565Y-44877278D01*
X56042171Y-44830591D01*
X56039928Y-44823689D01*
X55987719Y-44663002D01*
X55986655Y-44659231D01*
X55923878Y-44536027D01*
X55923877Y-44536026D01*
X55903996Y-44497006D01*
X55866109Y-44444859D01*
X55797558Y-44350505D01*
X55797554Y-44350500D01*
X55797553Y-44350499D01*
X55797546Y-44350491D01*
X55669507Y-44222452D01*
X55669498Y-44222444D01*
X55669474Y-44222426D01*
X55530888Y-44121738D01*
X55530555Y-44121454D01*
X55522987Y-44115998D01*
X55522572Y-44115789D01*
X55471301Y-44089664D01*
X55471300Y-44089664D01*
X55361639Y-44033788D01*
X55361636Y-44033787D01*
X55361633Y-44033786D01*
X55361631Y-44033785D01*
X55361612Y-44033778D01*
X55189412Y-43977829D01*
X55189413Y-43977829D01*
X55055265Y-43956582D01*
X55010551Y-43949500D01*
X55010550Y-43949500D01*
X54829450Y-43949500D01*
X54829449Y-43949500D01*
X54793677Y-43955165D01*
X54650585Y-43977829D01*
X54478386Y-44033778D01*
X54478363Y-44033786D01*
X54478359Y-44033788D01*
X54317005Y-44116004D01*
X54317002Y-44116005D01*
X54317002Y-44116006D01*
X54309111Y-44121739D01*
X54170499Y-44222445D01*
X54170491Y-44222452D01*
X54042452Y-44350491D01*
X54042445Y-44350499D01*
X53936004Y-44497005D01*
X53853788Y-44658359D01*
X53853786Y-44658363D01*
X53853778Y-44658386D01*
X53797829Y-44830585D01*
X53779761Y-44944660D01*
X53769330Y-44978389D01*
X53766713Y-44983908D01*
X53720204Y-45036049D01*
X53652888Y-45054767D01*
X53586138Y-45034121D01*
X53541148Y-44980664D01*
X53541074Y-44980497D01*
X53540902Y-44980104D01*
X53530499Y-44930387D01*
X53530499Y-44318483D01*
X53530499Y-44318482D01*
X53530498Y-44318475D01*
X53515646Y-44224696D01*
X53458050Y-44111658D01*
X53458046Y-44111654D01*
X53458045Y-44111652D01*
X53368347Y-44021954D01*
X53368346Y-44021953D01*
X53368344Y-44021951D01*
X53281749Y-43977828D01*
X53281748Y-43977828D01*
X53255299Y-43964351D01*
X53161530Y-43949500D01*
X53161524Y-43949500D01*
X51598482Y-43949500D01*
X51598478Y-43949500D01*
X51533711Y-43959758D01*
X51517519Y-43962323D01*
X51504715Y-43964351D01*
X51504696Y-43964354D01*
X51391650Y-44021954D01*
X51301955Y-44111649D01*
X51301946Y-44111664D01*
X51244353Y-44224695D01*
X51244350Y-44224703D01*
X51229500Y-44318469D01*
X51229500Y-45881520D01*
X51235975Y-45922401D01*
X51240292Y-45949657D01*
X51244354Y-45975304D01*
X51299736Y-46083996D01*
X51301952Y-46088345D01*
X51301953Y-46088346D01*
X51301954Y-46088347D01*
X51391652Y-46178045D01*
X51391653Y-46178045D01*
X51391658Y-46178050D01*
X51391659Y-46178051D01*
X51391754Y-46178099D01*
X51504694Y-46235645D01*
X51504698Y-46235647D01*
X51598220Y-46250458D01*
X51598457Y-46250497D01*
X51598466Y-46250497D01*
X51598475Y-46250499D01*
X51598481Y-46250500D01*
X53161518Y-46250499D01*
X53255304Y-46235646D01*
X53368342Y-46178050D01*
X53458050Y-46088342D01*
X53515646Y-45975304D01*
X53515646Y-45975302D01*
X53515647Y-45975301D01*
X53515647Y-45975299D01*
X53515965Y-45974676D01*
X53516785Y-45970558D01*
X53516789Y-45970539D01*
X53517173Y-45965668D01*
X53530111Y-45883979D01*
X53530437Y-45882154D01*
X53530499Y-45881523D01*
X53530500Y-45881519D01*
X53530499Y-45274953D01*
X53535520Y-45240026D01*
X53537240Y-45234167D01*
X53575011Y-45175387D01*
X53638565Y-45146358D01*
X53707724Y-45156298D01*
X53760531Y-45202050D01*
X53760619Y-45202187D01*
X53760851Y-45202549D01*
X53778924Y-45250058D01*
X53797829Y-45369413D01*
X53853778Y-45541612D01*
X53853786Y-45541635D01*
X53853788Y-45541639D01*
X53936006Y-45702997D01*
X54042441Y-45849494D01*
X54042445Y-45849499D01*
X54042452Y-45849507D01*
X54170491Y-45977546D01*
X54170500Y-45977554D01*
X54170524Y-45977572D01*
X54278344Y-46055908D01*
X54278347Y-46055909D01*
X54317001Y-46083993D01*
X54317003Y-46083994D01*
X54317006Y-46083996D01*
X54422484Y-46137740D01*
X54478360Y-46166211D01*
X54478363Y-46166212D01*
X54514790Y-46178047D01*
X54514791Y-46178048D01*
X54514792Y-46178048D01*
X54650584Y-46222169D01*
X54650585Y-46222169D01*
X54650591Y-46222171D01*
X54733429Y-46235291D01*
X54829449Y-46250500D01*
X54829454Y-46250500D01*
X55010548Y-46250500D01*
X55010551Y-46250500D01*
X55097259Y-46236765D01*
X55189409Y-46222171D01*
X55352784Y-46169088D01*
X55361636Y-46166212D01*
X55361639Y-46166211D01*
X55378107Y-46157820D01*
X55522994Y-46083996D01*
X55669501Y-45977553D01*
X55797553Y-45849501D01*
X55903996Y-45702994D01*
X55986211Y-45541639D01*
X56042171Y-45369409D01*
X56054928Y-45288858D01*
X56057330Y-45273699D01*
X56063027Y-45237729D01*
X56064738Y-45226928D01*
X56075162Y-45193213D01*
X56078143Y-45186925D01*
X56124649Y-45134785D01*
X56191964Y-45116063D01*
X56258714Y-45136706D01*
X56302978Y-45188532D01*
X56305439Y-45193920D01*
X56315121Y-45226040D01*
X56337829Y-45369413D01*
X56393778Y-45541612D01*
X56393786Y-45541635D01*
X56393788Y-45541639D01*
X56476006Y-45702997D01*
X56582441Y-45849494D01*
X56582445Y-45849499D01*
X56582452Y-45849507D01*
X56710491Y-45977546D01*
X56710500Y-45977554D01*
X56710524Y-45977572D01*
X56818344Y-46055908D01*
X56818347Y-46055909D01*
X56857001Y-46083993D01*
X56857003Y-46083994D01*
X56857006Y-46083996D01*
X56962484Y-46137740D01*
X57018360Y-46166211D01*
X57018363Y-46166212D01*
X57054790Y-46178047D01*
X57054791Y-46178048D01*
X57054792Y-46178048D01*
X57190584Y-46222169D01*
X57190585Y-46222169D01*
X57190591Y-46222171D01*
X57273429Y-46235291D01*
X57369449Y-46250500D01*
X57369454Y-46250500D01*
X57550548Y-46250500D01*
X57550551Y-46250500D01*
X57637259Y-46236765D01*
X57729409Y-46222171D01*
X57892784Y-46169088D01*
X57901636Y-46166212D01*
X57901639Y-46166211D01*
X57918107Y-46157820D01*
X58062994Y-46083996D01*
X58209501Y-45977553D01*
X58337553Y-45849501D01*
X58443996Y-45702994D01*
X58526211Y-45541639D01*
X58552705Y-45460099D01*
X58554248Y-45455347D01*
X58569814Y-45423681D01*
X58576205Y-45414335D01*
X58630288Y-45370107D01*
X58699702Y-45362139D01*
X58762399Y-45392959D01*
X58764684Y-45395056D01*
X58798777Y-45448100D01*
X58841579Y-45579834D01*
X58930904Y-45755143D01*
X58930905Y-45755145D01*
X58952265Y-45784546D01*
X58956319Y-45790125D01*
X58956320Y-45790125D01*
X59426891Y-45319553D01*
X59488212Y-45286070D01*
X59557903Y-45291054D01*
X59613837Y-45332925D01*
X59621956Y-45345234D01*
X59639898Y-45376310D01*
X59639900Y-45376313D01*
X59639901Y-45376314D01*
X59723686Y-45460099D01*
X59754760Y-45478040D01*
X59802976Y-45528606D01*
X59816200Y-45597213D01*
X59790232Y-45662078D01*
X59780442Y-45673108D01*
X59309873Y-46143676D01*
X59309873Y-46143677D01*
X59309873Y-46143678D01*
X59344858Y-46169096D01*
X59449021Y-46222169D01*
X59520157Y-46258415D01*
X59520159Y-46258415D01*
X59520162Y-46258417D01*
X59656018Y-46302560D01*
X59687693Y-46318136D01*
X59691433Y-46320693D01*
X59693433Y-46322061D01*
X59737656Y-46376155D01*
X59745614Y-46445570D01*
X59714780Y-46508268D01*
X59656670Y-46543875D01*
X59650966Y-46545462D01*
X59617728Y-46550000D01*
X48841830Y-46550000D01*
X48806889Y-46544975D01*
X48791890Y-46540570D01*
X48733144Y-46502827D01*
X48731957Y-46501458D01*
X48704477Y-46446583D01*
X48702832Y-46439021D01*
X48700000Y-46412668D01*
X48700000Y-37389448D01*
X51229500Y-37389448D01*
X51229500Y-37570550D01*
X51257829Y-37749413D01*
X51313778Y-37921612D01*
X51313785Y-37921631D01*
X51313787Y-37921636D01*
X51313788Y-37921639D01*
X51369664Y-38031300D01*
X51385866Y-38063098D01*
X51396006Y-38082997D01*
X51472704Y-38188564D01*
X51502432Y-38229482D01*
X51502444Y-38229498D01*
X51502452Y-38229507D01*
X51630493Y-38357548D01*
X51630497Y-38357551D01*
X51630500Y-38357554D01*
X51630505Y-38357558D01*
X51630522Y-38357570D01*
X51758284Y-38450395D01*
X51758287Y-38450396D01*
X51767646Y-38457196D01*
X51777004Y-38463995D01*
X51777006Y-38463996D01*
X51882484Y-38517740D01*
X51938360Y-38546211D01*
X51938363Y-38546212D01*
X52024476Y-38574191D01*
X52071159Y-38589359D01*
X52110584Y-38602169D01*
X52110585Y-38602169D01*
X52110591Y-38602171D01*
X52193429Y-38615291D01*
X52289449Y-38630500D01*
X52289454Y-38630500D01*
X52470548Y-38630500D01*
X52470551Y-38630500D01*
X52557259Y-38616765D01*
X52649409Y-38602171D01*
X52821639Y-38546211D01*
X52982994Y-38463996D01*
X53129501Y-38357553D01*
X53257553Y-38229501D01*
X53363996Y-38082994D01*
X53446211Y-37921639D01*
X53502171Y-37749409D01*
X53516422Y-37659425D01*
X53524738Y-37606921D01*
X53535162Y-37573213D01*
X53538143Y-37566925D01*
X53584649Y-37514785D01*
X53651964Y-37496063D01*
X53718714Y-37516706D01*
X53762978Y-37568532D01*
X53765439Y-37573920D01*
X53775121Y-37606040D01*
X53797829Y-37749413D01*
X53853778Y-37921612D01*
X53853785Y-37921631D01*
X53853787Y-37921636D01*
X53853788Y-37921639D01*
X53909664Y-38031300D01*
X53925866Y-38063098D01*
X53936006Y-38082997D01*
X54012704Y-38188564D01*
X54042432Y-38229482D01*
X54042444Y-38229498D01*
X54042452Y-38229507D01*
X54170493Y-38357548D01*
X54170497Y-38357551D01*
X54170500Y-38357554D01*
X54170505Y-38357558D01*
X54170522Y-38357570D01*
X54298284Y-38450395D01*
X54298287Y-38450396D01*
X54307646Y-38457196D01*
X54317004Y-38463995D01*
X54317006Y-38463996D01*
X54422484Y-38517740D01*
X54478360Y-38546211D01*
X54478363Y-38546212D01*
X54564476Y-38574191D01*
X54611159Y-38589359D01*
X54650584Y-38602169D01*
X54650585Y-38602169D01*
X54650591Y-38602171D01*
X54733429Y-38615291D01*
X54829449Y-38630500D01*
X54829454Y-38630500D01*
X55010548Y-38630500D01*
X55010551Y-38630500D01*
X55097259Y-38616765D01*
X55189409Y-38602171D01*
X55361639Y-38546211D01*
X55522994Y-38463996D01*
X55669501Y-38357553D01*
X55797553Y-38229501D01*
X55903996Y-38082994D01*
X55986211Y-37921639D01*
X56042171Y-37749409D01*
X56056422Y-37659425D01*
X56064738Y-37606921D01*
X56075162Y-37573213D01*
X56078143Y-37566925D01*
X56124649Y-37514785D01*
X56191964Y-37496063D01*
X56258714Y-37516706D01*
X56302978Y-37568532D01*
X56305439Y-37573920D01*
X56315121Y-37606040D01*
X56337829Y-37749413D01*
X56393778Y-37921612D01*
X56393785Y-37921631D01*
X56393787Y-37921636D01*
X56393788Y-37921639D01*
X56449664Y-38031300D01*
X56465866Y-38063098D01*
X56476006Y-38082997D01*
X56552704Y-38188564D01*
X56582432Y-38229482D01*
X56582444Y-38229498D01*
X56582452Y-38229507D01*
X56710493Y-38357548D01*
X56710497Y-38357551D01*
X56710500Y-38357554D01*
X56710505Y-38357558D01*
X56710522Y-38357570D01*
X56838284Y-38450395D01*
X56838287Y-38450396D01*
X56847646Y-38457196D01*
X56857004Y-38463995D01*
X56857006Y-38463996D01*
X56962484Y-38517740D01*
X57018360Y-38546211D01*
X57018363Y-38546212D01*
X57104476Y-38574191D01*
X57151159Y-38589359D01*
X57190584Y-38602169D01*
X57190585Y-38602169D01*
X57190591Y-38602171D01*
X57273429Y-38615291D01*
X57369449Y-38630500D01*
X57369454Y-38630500D01*
X57550548Y-38630500D01*
X57550551Y-38630500D01*
X57637259Y-38616765D01*
X57729409Y-38602171D01*
X57901639Y-38546211D01*
X58062994Y-38463996D01*
X58209501Y-38357553D01*
X58337553Y-38229501D01*
X58443996Y-38082994D01*
X58526211Y-37921639D01*
X58582171Y-37749409D01*
X58596422Y-37659425D01*
X58604738Y-37606921D01*
X58615162Y-37573213D01*
X58618143Y-37566925D01*
X58664649Y-37514785D01*
X58731964Y-37496063D01*
X58798714Y-37516706D01*
X58842978Y-37568532D01*
X58845439Y-37573920D01*
X58855121Y-37606040D01*
X58877829Y-37749413D01*
X58933778Y-37921612D01*
X58933785Y-37921631D01*
X58933787Y-37921636D01*
X58933788Y-37921639D01*
X58989664Y-38031300D01*
X59005866Y-38063098D01*
X59016006Y-38082997D01*
X59092704Y-38188564D01*
X59122432Y-38229482D01*
X59122444Y-38229498D01*
X59122452Y-38229507D01*
X59250493Y-38357548D01*
X59250497Y-38357551D01*
X59250500Y-38357554D01*
X59250505Y-38357558D01*
X59250522Y-38357570D01*
X59378284Y-38450395D01*
X59378287Y-38450396D01*
X59387646Y-38457196D01*
X59397004Y-38463995D01*
X59397006Y-38463996D01*
X59502484Y-38517740D01*
X59558360Y-38546211D01*
X59558363Y-38546212D01*
X59644476Y-38574191D01*
X59691159Y-38589359D01*
X59730584Y-38602169D01*
X59730585Y-38602169D01*
X59730591Y-38602171D01*
X59813429Y-38615291D01*
X59909449Y-38630500D01*
X59909454Y-38630500D01*
X60090548Y-38630500D01*
X60090551Y-38630500D01*
X60177259Y-38616765D01*
X60269409Y-38602171D01*
X60441639Y-38546211D01*
X60602994Y-38463996D01*
X60749501Y-38357553D01*
X60877553Y-38229501D01*
X60983996Y-38082994D01*
X61066211Y-37921639D01*
X61122171Y-37749409D01*
X61128008Y-37712549D01*
X61136765Y-37657262D01*
X61136765Y-37657259D01*
X61150500Y-37570551D01*
X61150500Y-37389448D01*
X61125019Y-37228573D01*
X61122171Y-37210591D01*
X61067713Y-37042986D01*
X61066655Y-37039232D01*
X61037740Y-36982484D01*
X61037739Y-36982483D01*
X60983995Y-36877004D01*
X60970397Y-36858289D01*
X60970395Y-36858285D01*
X60877570Y-36730522D01*
X60877558Y-36730505D01*
X60877554Y-36730500D01*
X60877551Y-36730497D01*
X60877548Y-36730493D01*
X60749507Y-36602452D01*
X60749498Y-36602444D01*
X60749474Y-36602426D01*
X60610888Y-36501738D01*
X60610555Y-36501454D01*
X60602987Y-36495998D01*
X60602572Y-36495789D01*
X60551301Y-36469664D01*
X60551300Y-36469664D01*
X60441639Y-36413788D01*
X60441636Y-36413787D01*
X60441633Y-36413786D01*
X60441631Y-36413785D01*
X60441612Y-36413778D01*
X60269412Y-36357829D01*
X60269413Y-36357829D01*
X60135265Y-36336582D01*
X60090551Y-36329500D01*
X60090550Y-36329500D01*
X59909450Y-36329500D01*
X59909449Y-36329500D01*
X59873677Y-36335165D01*
X59730585Y-36357829D01*
X59558386Y-36413778D01*
X59558363Y-36413786D01*
X59558359Y-36413788D01*
X59397005Y-36496004D01*
X59397002Y-36496005D01*
X59397002Y-36496006D01*
X59348169Y-36531484D01*
X59250499Y-36602445D01*
X59250491Y-36602452D01*
X59122452Y-36730491D01*
X59122445Y-36730499D01*
X59016004Y-36877005D01*
X58933788Y-37038359D01*
X58933786Y-37038363D01*
X58933778Y-37038386D01*
X58877829Y-37210585D01*
X58855262Y-37353067D01*
X58844834Y-37386792D01*
X58841857Y-37393071D01*
X58795350Y-37445213D01*
X58728035Y-37463935D01*
X58661285Y-37443292D01*
X58617021Y-37391466D01*
X58614560Y-37386078D01*
X58604879Y-37353963D01*
X58585019Y-37228573D01*
X58582171Y-37210591D01*
X58527713Y-37042986D01*
X58526655Y-37039232D01*
X58497740Y-36982484D01*
X58497739Y-36982483D01*
X58443995Y-36877004D01*
X58430397Y-36858289D01*
X58430395Y-36858285D01*
X58337570Y-36730522D01*
X58337558Y-36730505D01*
X58337554Y-36730500D01*
X58337551Y-36730497D01*
X58337548Y-36730493D01*
X58209507Y-36602452D01*
X58209498Y-36602444D01*
X58209474Y-36602426D01*
X58070888Y-36501738D01*
X58070555Y-36501454D01*
X58062987Y-36495998D01*
X58062572Y-36495789D01*
X58011301Y-36469664D01*
X58011300Y-36469664D01*
X57901639Y-36413788D01*
X57901636Y-36413787D01*
X57901633Y-36413786D01*
X57901631Y-36413785D01*
X57901612Y-36413778D01*
X57729412Y-36357829D01*
X57729413Y-36357829D01*
X57595265Y-36336582D01*
X57550551Y-36329500D01*
X57550550Y-36329500D01*
X57369450Y-36329500D01*
X57369449Y-36329500D01*
X57333677Y-36335165D01*
X57190585Y-36357829D01*
X57018386Y-36413778D01*
X57018363Y-36413786D01*
X57018359Y-36413788D01*
X56857005Y-36496004D01*
X56857002Y-36496005D01*
X56857002Y-36496006D01*
X56808169Y-36531484D01*
X56710499Y-36602445D01*
X56710491Y-36602452D01*
X56582452Y-36730491D01*
X56582445Y-36730499D01*
X56476004Y-36877005D01*
X56393788Y-37038359D01*
X56393786Y-37038363D01*
X56393778Y-37038386D01*
X56337829Y-37210585D01*
X56315262Y-37353067D01*
X56304834Y-37386792D01*
X56301857Y-37393071D01*
X56255350Y-37445213D01*
X56188035Y-37463935D01*
X56121285Y-37443292D01*
X56077021Y-37391466D01*
X56074560Y-37386078D01*
X56064879Y-37353963D01*
X56045019Y-37228573D01*
X56042171Y-37210591D01*
X55987713Y-37042986D01*
X55986655Y-37039232D01*
X55957740Y-36982484D01*
X55957739Y-36982483D01*
X55903995Y-36877004D01*
X55890397Y-36858289D01*
X55890395Y-36858285D01*
X55797570Y-36730522D01*
X55797558Y-36730505D01*
X55797554Y-36730500D01*
X55797551Y-36730497D01*
X55797548Y-36730493D01*
X55669507Y-36602452D01*
X55669498Y-36602444D01*
X55669474Y-36602426D01*
X55530888Y-36501738D01*
X55530555Y-36501454D01*
X55522987Y-36495998D01*
X55522572Y-36495789D01*
X55471301Y-36469664D01*
X55471300Y-36469664D01*
X55361639Y-36413788D01*
X55361636Y-36413787D01*
X55361633Y-36413786D01*
X55361631Y-36413785D01*
X55361612Y-36413778D01*
X55189412Y-36357829D01*
X55189413Y-36357829D01*
X55055265Y-36336582D01*
X55010551Y-36329500D01*
X55010550Y-36329500D01*
X54829450Y-36329500D01*
X54829449Y-36329500D01*
X54793677Y-36335165D01*
X54650585Y-36357829D01*
X54478386Y-36413778D01*
X54478363Y-36413786D01*
X54478359Y-36413788D01*
X54317005Y-36496004D01*
X54317002Y-36496005D01*
X54317002Y-36496006D01*
X54268169Y-36531484D01*
X54170499Y-36602445D01*
X54170491Y-36602452D01*
X54042452Y-36730491D01*
X54042445Y-36730499D01*
X53936004Y-36877005D01*
X53853788Y-37038359D01*
X53853786Y-37038363D01*
X53853778Y-37038386D01*
X53797829Y-37210585D01*
X53775262Y-37353067D01*
X53764834Y-37386792D01*
X53761857Y-37393071D01*
X53715350Y-37445213D01*
X53648035Y-37463935D01*
X53581285Y-37443292D01*
X53537021Y-37391466D01*
X53534560Y-37386078D01*
X53524879Y-37353963D01*
X53505019Y-37228573D01*
X53502171Y-37210591D01*
X53447713Y-37042986D01*
X53446655Y-37039232D01*
X53417740Y-36982484D01*
X53417739Y-36982483D01*
X53363995Y-36877004D01*
X53350397Y-36858289D01*
X53350395Y-36858285D01*
X53257570Y-36730522D01*
X53257558Y-36730505D01*
X53257554Y-36730500D01*
X53257551Y-36730497D01*
X53257548Y-36730493D01*
X53129507Y-36602452D01*
X53129498Y-36602444D01*
X53129474Y-36602426D01*
X52990888Y-36501738D01*
X52990555Y-36501454D01*
X52982987Y-36495998D01*
X52982572Y-36495789D01*
X52931301Y-36469664D01*
X52931300Y-36469664D01*
X52821639Y-36413788D01*
X52821636Y-36413787D01*
X52821633Y-36413786D01*
X52821631Y-36413785D01*
X52821612Y-36413778D01*
X52649412Y-36357829D01*
X52649413Y-36357829D01*
X52515265Y-36336582D01*
X52470551Y-36329500D01*
X52470550Y-36329500D01*
X52289450Y-36329500D01*
X52289449Y-36329500D01*
X52253677Y-36335165D01*
X52110585Y-36357829D01*
X51938386Y-36413778D01*
X51938363Y-36413786D01*
X51938359Y-36413788D01*
X51777005Y-36496004D01*
X51777002Y-36496005D01*
X51777002Y-36496006D01*
X51728169Y-36531484D01*
X51630499Y-36602445D01*
X51630491Y-36602452D01*
X51502452Y-36730491D01*
X51502445Y-36730499D01*
X51396004Y-36877005D01*
X51313788Y-37038359D01*
X51313786Y-37038363D01*
X51313778Y-37038386D01*
X51257829Y-37210585D01*
X51229500Y-37389448D01*
X48700000Y-37389448D01*
X48700000Y-36651001D01*
X48705023Y-36616067D01*
X48713077Y-36588637D01*
X48737063Y-36543868D01*
X48968573Y-36267966D01*
X49228969Y-35896082D01*
X49455963Y-35502918D01*
X49647826Y-35091467D01*
X49803098Y-34664859D01*
X49920599Y-34226342D01*
X49999432Y-33779252D01*
X50039000Y-33326993D01*
X50039000Y-32873007D01*
X49999432Y-32420748D01*
X49987402Y-32352524D01*
X49971117Y-32260168D01*
X49926454Y-32006865D01*
X49925574Y-32001872D01*
X49920599Y-31973658D01*
X49915465Y-31954496D01*
X68039099Y-31954496D01*
X68072365Y-32121728D01*
X68079868Y-32159445D01*
X68079870Y-32159453D01*
X68159842Y-32352522D01*
X68230440Y-32458180D01*
X68275949Y-32526290D01*
X68423707Y-32674048D01*
X68423711Y-32674051D01*
X68423713Y-32674053D01*
X68423716Y-32674055D01*
X68423720Y-32674058D01*
X68423719Y-32674058D01*
X68423782Y-32674110D01*
X68423819Y-32674124D01*
X68597476Y-32790157D01*
X68790547Y-32870130D01*
X68983515Y-32908514D01*
X68987864Y-32909379D01*
X68990599Y-32910103D01*
X68995507Y-32910900D01*
X69204492Y-32910900D01*
X69208612Y-32910900D01*
X69216462Y-32908518D01*
X69409453Y-32870130D01*
X69596911Y-32792481D01*
X69601503Y-32790838D01*
X69602519Y-32790158D01*
X69602524Y-32790157D01*
X69602525Y-32790156D01*
X69602526Y-32790156D01*
X69768630Y-32679170D01*
X69768631Y-32679169D01*
X69770358Y-32678014D01*
X69773704Y-32675779D01*
X69773705Y-32675780D01*
X69773737Y-32675755D01*
X69776284Y-32674055D01*
X69924055Y-32526284D01*
X70040157Y-32352524D01*
X70120130Y-32159453D01*
X70160900Y-31954490D01*
X70160900Y-31758663D01*
X70479600Y-31758663D01*
X70479600Y-31941335D01*
X70504657Y-32099535D01*
X70508172Y-32121728D01*
X70520430Y-32159453D01*
X70564615Y-32295441D01*
X70564621Y-32295454D01*
X70647532Y-32458174D01*
X70647535Y-32458178D01*
X70660467Y-32475978D01*
X71098817Y-32037627D01*
X71160138Y-32004144D01*
X71229829Y-32009128D01*
X71285763Y-32050999D01*
X71293882Y-32063308D01*
X71307747Y-32087322D01*
X71314799Y-32099536D01*
X71390464Y-32175201D01*
X71390467Y-32175202D01*
X71390470Y-32175205D01*
X71426688Y-32196116D01*
X71474903Y-32246683D01*
X71488125Y-32315290D01*
X71462157Y-32380155D01*
X71452368Y-32391183D01*
X71014018Y-32829530D01*
X71014019Y-32829530D01*
X71014019Y-32829531D01*
X71031817Y-32842462D01*
X71194556Y-32925383D01*
X71368271Y-32981827D01*
X71548670Y-33010400D01*
X71731329Y-33010400D01*
X71731330Y-33010400D01*
X71911728Y-32981827D01*
X72085443Y-32925383D01*
X72248178Y-32842465D01*
X72265979Y-32829531D01*
X71827631Y-32391183D01*
X71794146Y-32329860D01*
X71799130Y-32260168D01*
X71841002Y-32204235D01*
X71853312Y-32196115D01*
X71889536Y-32175201D01*
X71965201Y-32099536D01*
X71986116Y-32063309D01*
X72036681Y-32015096D01*
X72105288Y-32001872D01*
X72170153Y-32027840D01*
X72181183Y-32037630D01*
X72619531Y-32475978D01*
X72632465Y-32458178D01*
X72715383Y-32295443D01*
X72771827Y-32121728D01*
X72798315Y-31954496D01*
X73119099Y-31954496D01*
X73152365Y-32121728D01*
X73159868Y-32159445D01*
X73159870Y-32159453D01*
X73239842Y-32352522D01*
X73310440Y-32458180D01*
X73355949Y-32526290D01*
X73503707Y-32674048D01*
X73503711Y-32674051D01*
X73503713Y-32674053D01*
X73503716Y-32674055D01*
X73503720Y-32674058D01*
X73503719Y-32674058D01*
X73503782Y-32674110D01*
X73503819Y-32674124D01*
X73677476Y-32790157D01*
X73870547Y-32870130D01*
X74063515Y-32908514D01*
X74067864Y-32909379D01*
X74070599Y-32910103D01*
X74075507Y-32910900D01*
X74284492Y-32910900D01*
X74288612Y-32910900D01*
X74296462Y-32908518D01*
X74489453Y-32870130D01*
X74682524Y-32790157D01*
X74856284Y-32674055D01*
X75004055Y-32526284D01*
X75120157Y-32352524D01*
X75200130Y-32159453D01*
X75240900Y-31954490D01*
X75240900Y-31745510D01*
X75240900Y-31745507D01*
X75240900Y-31745325D01*
X75240465Y-31743324D01*
X75230031Y-31690868D01*
X75200788Y-31543859D01*
X75200376Y-31541447D01*
X75200131Y-31540551D01*
X75200130Y-31540549D01*
X75200130Y-31540547D01*
X75120157Y-31347476D01*
X75004124Y-31173820D01*
X75004114Y-31173788D01*
X75004058Y-31173719D01*
X75004058Y-31173720D01*
X75004055Y-31173716D01*
X75004053Y-31173713D01*
X75004051Y-31173711D01*
X75004048Y-31173707D01*
X74856288Y-31025947D01*
X74769452Y-30967926D01*
X74769404Y-30967894D01*
X74682524Y-30909843D01*
X74682525Y-30909843D01*
X74682523Y-30909842D01*
X74587462Y-30870467D01*
X74556261Y-30857543D01*
X74489453Y-30829870D01*
X74489445Y-30829868D01*
X74489437Y-30829866D01*
X74489427Y-30829864D01*
X74284495Y-30789100D01*
X74284493Y-30789100D01*
X74284490Y-30789100D01*
X74075510Y-30789100D01*
X74075507Y-30789100D01*
X74075505Y-30789100D01*
X73870571Y-30829864D01*
X73870546Y-30829870D01*
X73677478Y-30909841D01*
X73503708Y-31025949D01*
X73355949Y-31173708D01*
X73239841Y-31347478D01*
X73159870Y-31540546D01*
X73159864Y-31540571D01*
X73119100Y-31745502D01*
X73119100Y-31745505D01*
X73119100Y-31954494D01*
X73119100Y-31954496D01*
X73119099Y-31954496D01*
X72798315Y-31954496D01*
X72800400Y-31941330D01*
X72800400Y-31758670D01*
X72771827Y-31578271D01*
X72715383Y-31404556D01*
X72633045Y-31242962D01*
X72629487Y-31228143D01*
X72619530Y-31224018D01*
X72181182Y-31662367D01*
X72119859Y-31695852D01*
X72050167Y-31690868D01*
X71994234Y-31648996D01*
X71986114Y-31636686D01*
X71965203Y-31600467D01*
X71965198Y-31600461D01*
X71889538Y-31524801D01*
X71889536Y-31524799D01*
X71853309Y-31503883D01*
X71805095Y-31453316D01*
X71791873Y-31384709D01*
X71817841Y-31319844D01*
X71827625Y-31308820D01*
X72265978Y-30870467D01*
X72265975Y-30870465D01*
X72248174Y-30857532D01*
X72085454Y-30774621D01*
X72085441Y-30774615D01*
X71991837Y-30744201D01*
X71911728Y-30718172D01*
X71911726Y-30718171D01*
X71911724Y-30718171D01*
X71731335Y-30689600D01*
X71731330Y-30689600D01*
X71548670Y-30689600D01*
X71548665Y-30689600D01*
X71368274Y-30718171D01*
X71368271Y-30718172D01*
X71194556Y-30774616D01*
X71113184Y-30816077D01*
X71031810Y-30857540D01*
X71031083Y-30858009D01*
X71029479Y-30859233D01*
X71014020Y-30870463D01*
X71014020Y-30870468D01*
X71452369Y-31308816D01*
X71485854Y-31370139D01*
X71480870Y-31439830D01*
X71438999Y-31495764D01*
X71426690Y-31503883D01*
X71390467Y-31524797D01*
X71390461Y-31524801D01*
X71314801Y-31600461D01*
X71314794Y-31600470D01*
X71293882Y-31636690D01*
X71243314Y-31684904D01*
X71174706Y-31698125D01*
X71109842Y-31672155D01*
X71098816Y-31662368D01*
X70660468Y-31224020D01*
X70660465Y-31224020D01*
X70660464Y-31224020D01*
X70649233Y-31239479D01*
X70648009Y-31241083D01*
X70647540Y-31241810D01*
X70613399Y-31308816D01*
X70564616Y-31404556D01*
X70564615Y-31404558D01*
X70564615Y-31404559D01*
X70508171Y-31578274D01*
X70479600Y-31758663D01*
X70160900Y-31758663D01*
X70160900Y-31745510D01*
X70160900Y-31745507D01*
X70160899Y-31745505D01*
X70120788Y-31543859D01*
X70120376Y-31541447D01*
X70120131Y-31540551D01*
X70120130Y-31540549D01*
X70120130Y-31540547D01*
X70040157Y-31347476D01*
X69924124Y-31173820D01*
X69924114Y-31173788D01*
X69924058Y-31173719D01*
X69924058Y-31173720D01*
X69924055Y-31173716D01*
X69924053Y-31173713D01*
X69924051Y-31173711D01*
X69924048Y-31173707D01*
X69776295Y-31025954D01*
X69776288Y-31025948D01*
X69776286Y-31025946D01*
X69776279Y-31025941D01*
X69773690Y-31024211D01*
X69773689Y-31024210D01*
X69602521Y-30909840D01*
X69409454Y-30829870D01*
X69409427Y-30829864D01*
X69204495Y-30789100D01*
X69204493Y-30789100D01*
X69204490Y-30789100D01*
X68995510Y-30789100D01*
X68995507Y-30789100D01*
X68995505Y-30789100D01*
X68790571Y-30829864D01*
X68790546Y-30829870D01*
X68597478Y-30909841D01*
X68423708Y-31025949D01*
X68275949Y-31173708D01*
X68159841Y-31347478D01*
X68079870Y-31540546D01*
X68079864Y-31540571D01*
X68039100Y-31745502D01*
X68039100Y-31745505D01*
X68039100Y-31954494D01*
X68039100Y-31954496D01*
X68039099Y-31954496D01*
X49915465Y-31954496D01*
X49803098Y-31535141D01*
X49689860Y-31224020D01*
X49689859Y-31224018D01*
X49647830Y-31108541D01*
X49647826Y-31108531D01*
X49530785Y-30857539D01*
X49530785Y-30857538D01*
X49455971Y-30697099D01*
X49455959Y-30697075D01*
X49228942Y-30303871D01*
X49228893Y-30303794D01*
X49228356Y-30303042D01*
X48968577Y-29932038D01*
X48968573Y-29932033D01*
X48740465Y-29660184D01*
X48721863Y-29630201D01*
X48710399Y-29604006D01*
X48700000Y-29554298D01*
X48700000Y-24446059D01*
X48705023Y-24411123D01*
X48709427Y-24396125D01*
X48747170Y-24337375D01*
X48748579Y-24336153D01*
X48803356Y-24308696D01*
X48810840Y-24307062D01*
X48837094Y-24304210D01*
X51737288Y-24300000D01*
X75358170Y-24300000D01*
X75393106Y-24305023D01*
G37*
%TD.AperFunction*%
%TD*%
%TA.AperFunction,Conductor*%
%TO.N,PRE_HV-*%
G36*
X75443039Y-47169685D02*
G01*
X75488794Y-47222489D01*
X75500000Y-47274000D01*
X75500000Y-63709586D01*
X75480315Y-63776625D01*
X75427511Y-63822380D01*
X75376144Y-63833586D01*
X64147331Y-63846641D01*
X64080269Y-63827034D01*
X64034453Y-63774284D01*
X64024429Y-63705137D01*
X64053380Y-63641547D01*
X64090892Y-63612156D01*
X64093854Y-63610646D01*
X64093858Y-63610646D01*
X64206896Y-63553050D01*
X64296604Y-63463342D01*
X64354200Y-63350304D01*
X64354200Y-63350302D01*
X64354201Y-63350301D01*
X64369053Y-63256524D01*
X64369054Y-63256519D01*
X64369053Y-61693482D01*
X64354200Y-61599696D01*
X64296604Y-61486658D01*
X64296600Y-61486654D01*
X64296599Y-61486652D01*
X64206901Y-61396954D01*
X64206898Y-61396952D01*
X64206896Y-61396950D01*
X64120304Y-61352829D01*
X64093855Y-61339352D01*
X64000078Y-61324500D01*
X63375682Y-61324500D01*
X63308643Y-61304815D01*
X63262888Y-61252011D01*
X63252944Y-61182853D01*
X63281969Y-61119297D01*
X63340747Y-61081523D01*
X63356284Y-61078027D01*
X63379568Y-61074338D01*
X63487963Y-61057171D01*
X63660193Y-61001211D01*
X63821548Y-60918996D01*
X63968055Y-60812553D01*
X64011613Y-60768995D01*
X70299499Y-60768995D01*
X70326418Y-60904322D01*
X70326421Y-60904332D01*
X70379221Y-61031804D01*
X70379228Y-61031817D01*
X70455885Y-61146541D01*
X70455888Y-61146545D01*
X70553454Y-61244111D01*
X70553458Y-61244114D01*
X70668182Y-61320771D01*
X70668195Y-61320778D01*
X70745574Y-61352829D01*
X70795672Y-61373580D01*
X70795676Y-61373580D01*
X70795677Y-61373581D01*
X70931004Y-61400500D01*
X70931007Y-61400500D01*
X71068995Y-61400500D01*
X71160041Y-61382389D01*
X71204328Y-61373580D01*
X71331811Y-61320775D01*
X71446542Y-61244114D01*
X71544114Y-61146542D01*
X71620775Y-61031811D01*
X71673580Y-60904328D01*
X71686475Y-60839500D01*
X71700500Y-60768995D01*
X71700500Y-60631004D01*
X71673581Y-60495677D01*
X71673580Y-60495676D01*
X71673580Y-60495672D01*
X71673578Y-60495667D01*
X71620778Y-60368195D01*
X71620771Y-60368182D01*
X71544114Y-60253458D01*
X71544111Y-60253454D01*
X71446545Y-60155888D01*
X71446541Y-60155885D01*
X71331817Y-60079228D01*
X71331804Y-60079221D01*
X71204332Y-60026421D01*
X71204322Y-60026418D01*
X71068995Y-59999500D01*
X71068993Y-59999500D01*
X70931007Y-59999500D01*
X70931005Y-59999500D01*
X70795677Y-60026418D01*
X70795667Y-60026421D01*
X70668195Y-60079221D01*
X70668182Y-60079228D01*
X70553458Y-60155885D01*
X70553454Y-60155888D01*
X70455888Y-60253454D01*
X70455885Y-60253458D01*
X70379228Y-60368182D01*
X70379221Y-60368195D01*
X70326421Y-60495667D01*
X70326418Y-60495677D01*
X70299500Y-60631004D01*
X70299500Y-60631007D01*
X70299500Y-60768993D01*
X70299500Y-60768995D01*
X70299499Y-60768995D01*
X64011613Y-60768995D01*
X64096107Y-60684501D01*
X64106661Y-60669973D01*
X64192353Y-60552030D01*
X64197034Y-60545585D01*
X64202550Y-60537994D01*
X64284765Y-60376639D01*
X64340725Y-60204409D01*
X64360553Y-60079221D01*
X64369054Y-60025551D01*
X64369054Y-59844448D01*
X64352573Y-59740397D01*
X64340725Y-59665591D01*
X64284765Y-59493361D01*
X64284765Y-59493360D01*
X64256294Y-59437484D01*
X64202550Y-59332006D01*
X64188950Y-59313287D01*
X64096112Y-59185505D01*
X64096108Y-59185500D01*
X63968053Y-59057445D01*
X63968048Y-59057441D01*
X63821551Y-58951006D01*
X63821550Y-58951005D01*
X63821548Y-58951004D01*
X63769854Y-58924664D01*
X63660193Y-58868788D01*
X63660190Y-58868787D01*
X63487964Y-58812829D01*
X63327875Y-58787473D01*
X63264740Y-58757544D01*
X63227809Y-58698232D01*
X63228807Y-58628370D01*
X63267417Y-58570137D01*
X63327875Y-58542527D01*
X63397979Y-58531422D01*
X63487963Y-58517171D01*
X63660193Y-58461211D01*
X63821548Y-58378996D01*
X63968055Y-58272553D01*
X64096107Y-58144501D01*
X64202550Y-57997994D01*
X64284765Y-57836639D01*
X64340725Y-57664409D01*
X64355319Y-57572259D01*
X64369054Y-57485551D01*
X64369054Y-57304448D01*
X64352573Y-57200397D01*
X64340725Y-57125591D01*
X64284765Y-56953361D01*
X64284765Y-56953360D01*
X64256294Y-56897484D01*
X64202550Y-56792006D01*
X64138591Y-56703973D01*
X64096112Y-56645505D01*
X64096108Y-56645500D01*
X63968053Y-56517445D01*
X63968048Y-56517441D01*
X63821551Y-56411006D01*
X63821550Y-56411005D01*
X63821548Y-56411004D01*
X63769854Y-56384664D01*
X63660193Y-56328788D01*
X63660190Y-56328787D01*
X63556941Y-56295240D01*
X63499265Y-56255803D01*
X63472067Y-56191444D01*
X63483982Y-56122598D01*
X63531226Y-56071122D01*
X63556941Y-56059378D01*
X63698389Y-56013418D01*
X63873697Y-55924095D01*
X63908679Y-55898678D01*
X63908680Y-55898678D01*
X63307149Y-55297147D01*
X63392252Y-55274344D01*
X63494868Y-55215099D01*
X63578653Y-55131314D01*
X63637898Y-55028698D01*
X63660701Y-54943595D01*
X64262232Y-55545126D01*
X64262232Y-55545125D01*
X64287649Y-55510143D01*
X64376972Y-55334835D01*
X64437775Y-55147705D01*
X64468554Y-54953382D01*
X64468554Y-54756617D01*
X64437775Y-54562294D01*
X64376972Y-54375164D01*
X64287650Y-54199858D01*
X64262232Y-54164873D01*
X64262231Y-54164873D01*
X63660701Y-54766404D01*
X63637898Y-54681302D01*
X63578653Y-54578686D01*
X63494868Y-54494901D01*
X63392252Y-54435656D01*
X63307148Y-54412852D01*
X63908679Y-53811320D01*
X63908679Y-53811319D01*
X63873699Y-53785905D01*
X63698389Y-53696581D01*
X63511259Y-53635778D01*
X63316936Y-53605000D01*
X63120172Y-53605000D01*
X62925848Y-53635778D01*
X62738715Y-53696582D01*
X62563417Y-53785899D01*
X62563413Y-53785902D01*
X62528427Y-53811320D01*
X62528426Y-53811320D01*
X63129959Y-54412852D01*
X63044856Y-54435656D01*
X62942240Y-54494901D01*
X62858455Y-54578686D01*
X62799210Y-54681302D01*
X62776406Y-54766405D01*
X62174874Y-54164872D01*
X62174874Y-54164873D01*
X62149456Y-54199859D01*
X62149453Y-54199863D01*
X62060136Y-54375161D01*
X61999332Y-54562294D01*
X61968554Y-54756617D01*
X61968554Y-54953382D01*
X61999332Y-55147705D01*
X62060135Y-55334835D01*
X62149459Y-55510145D01*
X62174873Y-55545125D01*
X62174874Y-55545125D01*
X62776406Y-54943593D01*
X62799210Y-55028698D01*
X62858455Y-55131314D01*
X62942240Y-55215099D01*
X63044856Y-55274344D01*
X63129959Y-55297147D01*
X62528427Y-55898677D01*
X62528427Y-55898678D01*
X62563412Y-55924096D01*
X62738718Y-56013418D01*
X62880166Y-56059378D01*
X62937842Y-56098815D01*
X62965040Y-56163174D01*
X62953125Y-56232020D01*
X62905881Y-56283496D01*
X62880166Y-56295240D01*
X62776917Y-56328787D01*
X62776914Y-56328788D01*
X62615556Y-56411006D01*
X62469059Y-56517441D01*
X62469054Y-56517445D01*
X62340999Y-56645500D01*
X62340995Y-56645505D01*
X62234560Y-56792002D01*
X62152342Y-56953360D01*
X62152341Y-56953363D01*
X62096383Y-57125589D01*
X62068054Y-57304448D01*
X62068054Y-57485551D01*
X62096383Y-57664410D01*
X62152341Y-57836636D01*
X62152342Y-57836639D01*
X62234560Y-57997997D01*
X62340995Y-58144494D01*
X62340999Y-58144499D01*
X62469054Y-58272554D01*
X62469059Y-58272558D01*
X62596841Y-58365396D01*
X62615560Y-58378996D01*
X62721038Y-58432740D01*
X62776914Y-58461211D01*
X62776917Y-58461212D01*
X62863030Y-58489191D01*
X62949145Y-58517171D01*
X63022193Y-58528740D01*
X63109232Y-58542527D01*
X63172367Y-58572456D01*
X63209298Y-58631768D01*
X63208300Y-58701631D01*
X63169690Y-58759863D01*
X63109232Y-58787473D01*
X62949143Y-58812829D01*
X62776917Y-58868787D01*
X62776914Y-58868788D01*
X62615556Y-58951006D01*
X62469059Y-59057441D01*
X62469054Y-59057445D01*
X62340999Y-59185500D01*
X62340995Y-59185505D01*
X62234560Y-59332002D01*
X62152342Y-59493360D01*
X62152341Y-59493363D01*
X62096383Y-59665589D01*
X62068054Y-59844448D01*
X62068054Y-60025551D01*
X62096383Y-60204410D01*
X62152341Y-60376636D01*
X62152342Y-60376639D01*
X62234560Y-60537997D01*
X62340995Y-60684494D01*
X62340999Y-60684499D01*
X62469054Y-60812554D01*
X62469059Y-60812558D01*
X62556418Y-60876027D01*
X62615560Y-60918996D01*
X62721038Y-60972740D01*
X62776914Y-61001211D01*
X62776917Y-61001212D01*
X62863030Y-61029191D01*
X62949145Y-61057171D01*
X63053270Y-61073662D01*
X63080824Y-61078027D01*
X63143959Y-61107956D01*
X63180890Y-61167268D01*
X63179892Y-61237130D01*
X63141282Y-61295363D01*
X63077319Y-61323477D01*
X63061426Y-61324500D01*
X62437036Y-61324500D01*
X62356073Y-61337323D01*
X62343250Y-61339354D01*
X62230212Y-61396950D01*
X62230211Y-61396951D01*
X62230206Y-61396954D01*
X62140508Y-61486652D01*
X62140505Y-61486657D01*
X62082906Y-61599698D01*
X62068054Y-61693475D01*
X62068054Y-63256517D01*
X62078846Y-63324657D01*
X62082908Y-63350304D01*
X62140504Y-63463342D01*
X62140506Y-63463344D01*
X62140508Y-63463347D01*
X62230206Y-63553045D01*
X62230208Y-63553046D01*
X62230212Y-63553050D01*
X62343250Y-63610646D01*
X62343251Y-63610646D01*
X62350442Y-63614310D01*
X62401238Y-63662285D01*
X62418033Y-63730106D01*
X62395495Y-63796241D01*
X62340780Y-63839692D01*
X62294291Y-63848795D01*
X55807366Y-63856337D01*
X55740304Y-63836730D01*
X55694488Y-63783980D01*
X55684464Y-63714833D01*
X55713415Y-63651243D01*
X55772149Y-63613401D01*
X55787824Y-63609864D01*
X55807903Y-63606683D01*
X55867963Y-63597171D01*
X56040193Y-63541211D01*
X56201548Y-63458996D01*
X56348055Y-63352553D01*
X56476107Y-63224501D01*
X56582550Y-63077994D01*
X56664765Y-62916639D01*
X56720725Y-62744409D01*
X56738478Y-62632322D01*
X56749054Y-62565551D01*
X56749054Y-62384448D01*
X56726211Y-62240231D01*
X56720725Y-62205591D01*
X56692745Y-62119476D01*
X56664766Y-62033363D01*
X56664765Y-62033360D01*
X56636294Y-61977484D01*
X56582550Y-61872006D01*
X56568950Y-61853287D01*
X56476112Y-61725505D01*
X56476108Y-61725500D01*
X56348053Y-61597445D01*
X56348048Y-61597441D01*
X56201551Y-61491006D01*
X56201550Y-61491005D01*
X56201548Y-61491004D01*
X56149854Y-61464664D01*
X56040193Y-61408788D01*
X56040190Y-61408787D01*
X55867964Y-61352829D01*
X55707875Y-61327473D01*
X55644740Y-61297544D01*
X55607809Y-61238232D01*
X55608807Y-61168370D01*
X55647417Y-61110137D01*
X55707875Y-61082527D01*
X55777979Y-61071422D01*
X55867963Y-61057171D01*
X56040193Y-61001211D01*
X56201548Y-60918996D01*
X56348055Y-60812553D01*
X56476107Y-60684501D01*
X56582550Y-60537994D01*
X56664765Y-60376639D01*
X56720725Y-60204409D01*
X56740553Y-60079221D01*
X56749054Y-60025551D01*
X56749054Y-59844448D01*
X56732573Y-59740397D01*
X56720725Y-59665591D01*
X56664765Y-59493361D01*
X56664765Y-59493360D01*
X56636294Y-59437484D01*
X56582550Y-59332006D01*
X56568950Y-59313287D01*
X56476112Y-59185505D01*
X56476108Y-59185500D01*
X56348053Y-59057445D01*
X56348048Y-59057441D01*
X56201551Y-58951006D01*
X56201550Y-58951005D01*
X56201548Y-58951004D01*
X56149854Y-58924664D01*
X56040193Y-58868788D01*
X56040190Y-58868787D01*
X55867964Y-58812829D01*
X55707875Y-58787473D01*
X55644740Y-58757544D01*
X55607809Y-58698232D01*
X55608807Y-58628370D01*
X55647417Y-58570137D01*
X55707875Y-58542527D01*
X55777979Y-58531422D01*
X55867963Y-58517171D01*
X56040193Y-58461211D01*
X56201548Y-58378996D01*
X56348055Y-58272553D01*
X56476107Y-58144501D01*
X56582550Y-57997994D01*
X56664765Y-57836639D01*
X56720725Y-57664409D01*
X56735319Y-57572259D01*
X56749054Y-57485551D01*
X56749054Y-57304448D01*
X56732573Y-57200397D01*
X56720725Y-57125591D01*
X56664765Y-56953361D01*
X56664765Y-56953360D01*
X56636294Y-56897484D01*
X56582550Y-56792006D01*
X56518591Y-56703973D01*
X56476112Y-56645505D01*
X56476108Y-56645500D01*
X56348053Y-56517445D01*
X56348048Y-56517441D01*
X56201551Y-56411006D01*
X56201550Y-56411005D01*
X56201548Y-56411004D01*
X56149854Y-56384664D01*
X56040193Y-56328788D01*
X56040190Y-56328787D01*
X55867964Y-56272829D01*
X55707875Y-56247473D01*
X55644740Y-56217544D01*
X55607809Y-56158232D01*
X55608807Y-56088370D01*
X55647417Y-56030137D01*
X55707875Y-56002527D01*
X55777979Y-55991422D01*
X55867963Y-55977171D01*
X56040193Y-55921211D01*
X56201548Y-55838996D01*
X56348055Y-55732553D01*
X56476107Y-55604501D01*
X56582550Y-55457994D01*
X56664765Y-55296639D01*
X56720725Y-55124409D01*
X56735884Y-55028698D01*
X56749054Y-54945551D01*
X56749054Y-54764449D01*
X56749053Y-54764447D01*
X56735884Y-54681302D01*
X56720725Y-54585591D01*
X56664765Y-54413361D01*
X56664765Y-54413360D01*
X56636294Y-54357484D01*
X56582550Y-54252006D01*
X56544663Y-54199859D01*
X56476112Y-54105505D01*
X56476108Y-54105500D01*
X56348055Y-53977447D01*
X56322524Y-53958898D01*
X56322522Y-53958895D01*
X56201551Y-53871006D01*
X56201550Y-53871005D01*
X56201548Y-53871004D01*
X56149854Y-53844664D01*
X56040193Y-53788788D01*
X56040190Y-53788787D01*
X55867964Y-53732829D01*
X55689105Y-53704500D01*
X55689100Y-53704500D01*
X55508008Y-53704500D01*
X55508003Y-53704500D01*
X55329143Y-53732829D01*
X55156917Y-53788787D01*
X55156914Y-53788788D01*
X54995556Y-53871006D01*
X54849059Y-53977441D01*
X54849054Y-53977445D01*
X54720999Y-54105500D01*
X54720995Y-54105505D01*
X54614560Y-54252002D01*
X54532342Y-54413360D01*
X54532341Y-54413363D01*
X54476383Y-54585589D01*
X54448054Y-54764448D01*
X54448054Y-54945551D01*
X54476383Y-55124410D01*
X54532341Y-55296636D01*
X54532342Y-55296639D01*
X54614560Y-55457997D01*
X54720995Y-55604494D01*
X54720999Y-55604499D01*
X54849054Y-55732554D01*
X54849059Y-55732558D01*
X54976841Y-55825396D01*
X54995560Y-55838996D01*
X55083131Y-55883616D01*
X55156914Y-55921211D01*
X55156917Y-55921212D01*
X55243030Y-55949191D01*
X55329145Y-55977171D01*
X55402193Y-55988740D01*
X55489232Y-56002527D01*
X55552367Y-56032456D01*
X55589298Y-56091768D01*
X55588300Y-56161631D01*
X55549690Y-56219863D01*
X55489232Y-56247473D01*
X55329143Y-56272829D01*
X55156917Y-56328787D01*
X55156914Y-56328788D01*
X54995556Y-56411006D01*
X54849059Y-56517441D01*
X54849054Y-56517445D01*
X54720999Y-56645500D01*
X54720995Y-56645505D01*
X54614560Y-56792002D01*
X54532342Y-56953360D01*
X54532341Y-56953363D01*
X54476383Y-57125589D01*
X54448054Y-57304448D01*
X54448054Y-57485551D01*
X54476383Y-57664410D01*
X54532341Y-57836636D01*
X54532342Y-57836639D01*
X54614560Y-57997997D01*
X54720995Y-58144494D01*
X54720999Y-58144499D01*
X54849054Y-58272554D01*
X54849059Y-58272558D01*
X54976841Y-58365396D01*
X54995560Y-58378996D01*
X55101038Y-58432740D01*
X55156914Y-58461211D01*
X55156917Y-58461212D01*
X55243030Y-58489191D01*
X55329145Y-58517171D01*
X55402193Y-58528740D01*
X55489232Y-58542527D01*
X55552367Y-58572456D01*
X55589298Y-58631768D01*
X55588300Y-58701631D01*
X55549690Y-58759863D01*
X55489232Y-58787473D01*
X55329143Y-58812829D01*
X55156917Y-58868787D01*
X55156914Y-58868788D01*
X54995556Y-58951006D01*
X54849059Y-59057441D01*
X54849054Y-59057445D01*
X54720999Y-59185500D01*
X54720995Y-59185505D01*
X54614560Y-59332002D01*
X54532342Y-59493360D01*
X54532341Y-59493363D01*
X54476383Y-59665589D01*
X54448054Y-59844448D01*
X54448054Y-60025551D01*
X54476383Y-60204410D01*
X54532341Y-60376636D01*
X54532342Y-60376639D01*
X54614560Y-60537997D01*
X54720995Y-60684494D01*
X54720999Y-60684499D01*
X54849054Y-60812554D01*
X54849059Y-60812558D01*
X54936418Y-60876027D01*
X54995560Y-60918996D01*
X55101038Y-60972740D01*
X55156914Y-61001211D01*
X55156917Y-61001212D01*
X55243030Y-61029191D01*
X55329145Y-61057171D01*
X55402193Y-61068740D01*
X55489232Y-61082527D01*
X55552367Y-61112456D01*
X55589298Y-61171768D01*
X55588300Y-61241631D01*
X55549690Y-61299863D01*
X55489232Y-61327473D01*
X55329143Y-61352829D01*
X55156917Y-61408787D01*
X55156914Y-61408788D01*
X54995556Y-61491006D01*
X54849059Y-61597441D01*
X54849054Y-61597445D01*
X54720999Y-61725500D01*
X54720995Y-61725505D01*
X54614560Y-61872002D01*
X54532342Y-62033360D01*
X54532341Y-62033363D01*
X54476383Y-62205589D01*
X54448054Y-62384448D01*
X54448054Y-62565551D01*
X54476383Y-62744410D01*
X54532341Y-62916636D01*
X54532342Y-62916639D01*
X54614560Y-63077997D01*
X54720995Y-63224494D01*
X54720999Y-63224499D01*
X54849054Y-63352554D01*
X54849059Y-63352558D01*
X54976841Y-63445396D01*
X54995560Y-63458996D01*
X55101038Y-63512740D01*
X55156914Y-63541211D01*
X55156917Y-63541212D01*
X55329144Y-63597171D01*
X55412323Y-63610345D01*
X55475458Y-63640274D01*
X55512390Y-63699585D01*
X55511392Y-63769448D01*
X55472783Y-63827681D01*
X55408819Y-63855795D01*
X55393070Y-63856818D01*
X48824144Y-63864455D01*
X48757082Y-63844848D01*
X48711266Y-63792098D01*
X48700000Y-63740455D01*
X48700000Y-52485970D01*
X48711618Y-52433565D01*
X48724286Y-52406400D01*
X48847826Y-52141467D01*
X48861285Y-52104490D01*
X48937349Y-51895505D01*
X67899100Y-51895505D01*
X67899100Y-52104494D01*
X67939868Y-52309445D01*
X67939870Y-52309453D01*
X68019842Y-52502522D01*
X68135946Y-52676286D01*
X68283713Y-52824053D01*
X68283716Y-52824055D01*
X68457476Y-52940157D01*
X68650547Y-53020130D01*
X68855505Y-53060899D01*
X68855508Y-53060900D01*
X68855510Y-53060900D01*
X69064492Y-53060900D01*
X69064493Y-53060899D01*
X69269453Y-53020130D01*
X69462524Y-52940157D01*
X69462525Y-52940156D01*
X69462526Y-52940156D01*
X69628630Y-52829170D01*
X69628631Y-52829169D01*
X69633052Y-52826213D01*
X69636284Y-52824055D01*
X69784055Y-52676284D01*
X69900157Y-52502524D01*
X69980130Y-52309453D01*
X70020900Y-52104490D01*
X70020900Y-51908669D01*
X70339600Y-51908669D01*
X70339600Y-52091330D01*
X70368172Y-52271728D01*
X70424616Y-52445443D01*
X70507535Y-52608178D01*
X70520467Y-52625978D01*
X71093600Y-52052845D01*
X71093600Y-52053504D01*
X71121295Y-52156865D01*
X71174799Y-52249536D01*
X71250464Y-52325201D01*
X71343135Y-52378705D01*
X71446496Y-52406400D01*
X71447153Y-52406400D01*
X70874019Y-52979531D01*
X70891817Y-52992462D01*
X71054556Y-53075383D01*
X71228271Y-53131827D01*
X71408670Y-53160400D01*
X71591330Y-53160400D01*
X71771728Y-53131827D01*
X71945443Y-53075383D01*
X72108178Y-52992465D01*
X72125979Y-52979531D01*
X71552848Y-52406400D01*
X71553504Y-52406400D01*
X71656865Y-52378705D01*
X71749536Y-52325201D01*
X71825201Y-52249536D01*
X71878705Y-52156865D01*
X71906400Y-52053504D01*
X71906400Y-52052847D01*
X72479531Y-52625978D01*
X72492465Y-52608178D01*
X72575383Y-52445443D01*
X72631827Y-52271728D01*
X72660400Y-52091330D01*
X72660400Y-51908670D01*
X72658315Y-51895505D01*
X72979100Y-51895505D01*
X72979100Y-52104494D01*
X73019868Y-52309445D01*
X73019870Y-52309453D01*
X73099842Y-52502522D01*
X73215946Y-52676286D01*
X73363713Y-52824053D01*
X73363716Y-52824055D01*
X73537476Y-52940157D01*
X73730547Y-53020130D01*
X73935505Y-53060899D01*
X73935508Y-53060900D01*
X73935510Y-53060900D01*
X74144492Y-53060900D01*
X74144493Y-53060899D01*
X74349453Y-53020130D01*
X74542524Y-52940157D01*
X74716284Y-52824055D01*
X74864055Y-52676284D01*
X74980157Y-52502524D01*
X75060130Y-52309453D01*
X75100900Y-52104490D01*
X75100900Y-51895510D01*
X75100900Y-51895507D01*
X75100899Y-51895505D01*
X75060131Y-51690554D01*
X75060130Y-51690547D01*
X74980157Y-51497476D01*
X74864055Y-51323716D01*
X74864053Y-51323713D01*
X74716286Y-51175946D01*
X74629404Y-51117894D01*
X74542524Y-51059843D01*
X74447462Y-51020467D01*
X74349453Y-50979870D01*
X74349445Y-50979868D01*
X74144493Y-50939100D01*
X74144490Y-50939100D01*
X73935510Y-50939100D01*
X73935507Y-50939100D01*
X73730554Y-50979868D01*
X73730546Y-50979870D01*
X73537477Y-51059842D01*
X73363713Y-51175946D01*
X73215946Y-51323713D01*
X73099842Y-51497477D01*
X73019870Y-51690546D01*
X73019868Y-51690554D01*
X72979100Y-51895505D01*
X72658315Y-51895505D01*
X72631827Y-51728271D01*
X72575383Y-51554556D01*
X72492462Y-51391817D01*
X72479531Y-51374020D01*
X72479531Y-51374019D01*
X71906400Y-51947151D01*
X71906400Y-51946496D01*
X71878705Y-51843135D01*
X71825201Y-51750464D01*
X71749536Y-51674799D01*
X71656865Y-51621295D01*
X71553504Y-51593600D01*
X71552847Y-51593600D01*
X72125978Y-51020467D01*
X72108178Y-51007535D01*
X71945443Y-50924616D01*
X71771728Y-50868172D01*
X71591330Y-50839600D01*
X71408670Y-50839600D01*
X71228271Y-50868172D01*
X71054556Y-50924616D01*
X70891813Y-51007539D01*
X70891808Y-51007543D01*
X70874020Y-51020465D01*
X70874020Y-51020468D01*
X71447154Y-51593600D01*
X71446496Y-51593600D01*
X71343135Y-51621295D01*
X71250464Y-51674799D01*
X71174799Y-51750464D01*
X71121295Y-51843135D01*
X71093600Y-51946496D01*
X71093600Y-51947152D01*
X70520468Y-51374020D01*
X70520465Y-51374020D01*
X70507543Y-51391808D01*
X70507539Y-51391813D01*
X70424616Y-51554556D01*
X70368172Y-51728271D01*
X70339600Y-51908669D01*
X70020900Y-51908669D01*
X70020900Y-51895510D01*
X70020900Y-51895507D01*
X70020899Y-51895505D01*
X69980131Y-51690554D01*
X69980130Y-51690547D01*
X69900157Y-51497476D01*
X69784055Y-51323716D01*
X69784053Y-51323713D01*
X69636287Y-51175947D01*
X69636282Y-51175943D01*
X69628628Y-51170829D01*
X69628627Y-51170828D01*
X69462525Y-51059843D01*
X69269453Y-50979870D01*
X69269445Y-50979868D01*
X69064493Y-50939100D01*
X69064490Y-50939100D01*
X68855510Y-50939100D01*
X68855507Y-50939100D01*
X68650554Y-50979868D01*
X68650546Y-50979870D01*
X68457477Y-51059842D01*
X68283713Y-51175946D01*
X68135946Y-51323713D01*
X68019842Y-51497477D01*
X67939870Y-51690546D01*
X67939868Y-51690554D01*
X67899100Y-51895505D01*
X48937349Y-51895505D01*
X48955000Y-51847008D01*
X48959874Y-51833614D01*
X49003098Y-51714859D01*
X49120599Y-51276342D01*
X49199432Y-50829252D01*
X49239000Y-50376993D01*
X49239000Y-49923007D01*
X49199432Y-49470748D01*
X49120599Y-49023658D01*
X49003098Y-48585141D01*
X48919637Y-48355833D01*
X48847828Y-48158537D01*
X48711618Y-47866433D01*
X48700000Y-47814028D01*
X48700000Y-47274000D01*
X48719685Y-47206961D01*
X48772489Y-47161206D01*
X48824000Y-47150000D01*
X75376000Y-47150000D01*
X75443039Y-47169685D01*
G37*
%TD.AperFunction*%
%TD*%
M02*
