%TF.GenerationSoftware,KiCad,Pcbnew,10.0.6*%
%TF.CreationDate,2026-09-01T18:20:09-07:00*%
%TF.ProjectId,Precharge_2027,50726563-6861-4726-9765-5f323032372e,rev?*%
%TF.SameCoordinates,Original*%
%TF.FileFunction,Soldermask,Bot*%
%TF.FilePolarity,Negative*%
%FSLAX46Y46*%
G04 Gerber Fmt 4.6, Leading zero omitted, Abs format (unit mm)*
G04 Created by KiCad (PCBNEW 10.0.6) date 2026-09-01 18:20:09*
%MOMM*%
%LPD*%
G01*
G04 APERTURE LIST*
G04 Aperture macros list*
%AMRoundRect*
0 Rectangle with rounded corners*
0 $1 Rounding radius*
0 $2 $3 $4 $5 $6 $7 $8 $9 X,Y pos of 4 corners*
0 Add a 4 corners polygon primitive as box body*
4,1,4,$2,$3,$4,$5,$6,$7,$8,$9,$2,$3,0*
0 Add four circle primitives for the rounded corners*
1,1,$1+$1,$2,$3*
1,1,$1+$1,$4,$5*
1,1,$1+$1,$6,$7*
1,1,$1+$1,$8,$9*
0 Add four rect primitives between the rounded corners*
20,1,$1+$1,$2,$3,$4,$5,0*
20,1,$1+$1,$4,$5,$6,$7,0*
20,1,$1+$1,$6,$7,$8,$9,0*
20,1,$1+$1,$8,$9,$2,$3,0*%
G04 Aperture macros list end*
%ADD10C,1.320800*%
%ADD11C,1.100000*%
%ADD12C,1.800000*%
%ADD13C,4.300000*%
%ADD14C,1.601000*%
%ADD15R,1.500000X1.500000*%
%ADD16C,1.500000*%
%ADD17R,1.700000X1.700000*%
%ADD18C,1.700000*%
%ADD19C,1.020000*%
%ADD20RoundRect,0.250001X0.499999X0.499999X-0.499999X0.499999X-0.499999X-0.499999X0.499999X-0.499999X0*%
G04 APERTURE END LIST*
D10*
%TO.C,U8*%
X86880000Y-31850000D03*
X84340000Y-31850000D03*
X81800000Y-31850000D03*
X74180000Y-31850000D03*
X71640000Y-31850000D03*
X69100000Y-31850000D03*
%TD*%
D11*
%TO.C,Molex4*%
X45210000Y-45450000D03*
X45210000Y-39450000D03*
D12*
X44270000Y-42450000D03*
X41270000Y-42450000D03*
%TD*%
D13*
%TO.C,H4*%
X113583750Y-59360000D03*
%TD*%
%TO.C,H2*%
X113583750Y-29020000D03*
%TD*%
D14*
%TO.C,F2*%
X44040000Y-50150000D03*
X38960000Y-50150000D03*
%TD*%
D15*
%TO.C,U2*%
X52380000Y-45100000D03*
D16*
X54920000Y-45100000D03*
X57460000Y-45100000D03*
X60000000Y-45100000D03*
X60000000Y-37480000D03*
X57460000Y-37480000D03*
X54920000Y-37480000D03*
X52380000Y-37480000D03*
%TD*%
D11*
%TO.C,Molex3*%
X27930000Y-37030000D03*
X27930000Y-43030000D03*
D12*
X28870000Y-40030000D03*
X31870000Y-40030000D03*
%TD*%
D17*
%TO.C,J3*%
X96725000Y-60500000D03*
D18*
X99265000Y-60500000D03*
%TD*%
D10*
%TO.C,U6*%
X86740000Y-52000000D03*
X84200000Y-52000000D03*
X81660000Y-52000000D03*
X74040000Y-52000000D03*
X71500000Y-52000000D03*
X68960000Y-52000000D03*
%TD*%
D13*
%TO.C,H1*%
X27294750Y-29080400D03*
%TD*%
D11*
%TO.C,Molex1*%
X27903750Y-47150000D03*
X27903750Y-53150000D03*
D12*
X28843750Y-50150000D03*
X31843750Y-50150000D03*
%TD*%
D14*
%TO.C,F1*%
X44840000Y-33100000D03*
X39760000Y-33100000D03*
%TD*%
D13*
%TO.C,H3*%
X27294750Y-59420400D03*
%TD*%
D19*
%TO.C,J1*%
X106793750Y-27260000D03*
X91793750Y-27260000D03*
D20*
X103793750Y-31200000D03*
D16*
X100793750Y-31200000D03*
X97793750Y-31200000D03*
X94793750Y-31200000D03*
X103793750Y-28200000D03*
X100793750Y-28200000D03*
X97793750Y-28200000D03*
X94793750Y-28200000D03*
%TD*%
D11*
%TO.C,Molex2*%
X45250000Y-61790000D03*
X45250000Y-55790000D03*
D12*
X44310000Y-58790000D03*
X41310000Y-58790000D03*
%TD*%
D17*
%TO.C,J2*%
X106473750Y-52500000D03*
D18*
X109013750Y-52500000D03*
X111553750Y-52500000D03*
X114093750Y-52500000D03*
%TD*%
D15*
%TO.C,U5*%
X63218554Y-62475000D03*
D16*
X63218554Y-59935000D03*
X63218554Y-57395000D03*
X63218554Y-54855000D03*
X55598554Y-54855000D03*
X55598554Y-57395000D03*
X55598554Y-59935000D03*
X55598554Y-62475000D03*
%TD*%
M02*
