%TF.GenerationSoftware,KiCad,Pcbnew,10.0.6*%
%TF.CreationDate,2026-09-01T18:20:09-07:00*%
%TF.ProjectId,Precharge_2027,50726563-6861-4726-9765-5f323032372e,rev?*%
%TF.SameCoordinates,Original*%
%TF.FileFunction,Copper,L3,Inr*%
%TF.FilePolarity,Positive*%
%FSLAX46Y46*%
G04 Gerber Fmt 4.6, Leading zero omitted, Abs format (unit mm)*
G04 Created by KiCad (PCBNEW 10.0.6) date 2026-09-01 18:20:09*
%MOMM*%
%LPD*%
G01*
G04 APERTURE LIST*
G04 Aperture macros list*
%AMRoundRect*
0 Rectangle with rounded corners*
0 $1 Rounding radius*
0 $2 $3 $4 $5 $6 $7 $8 $9 X,Y pos of 4 corners*
0 Add a 4 corners polygon primitive as box body*
4,1,4,$2,$3,$4,$5,$6,$7,$8,$9,$2,$3,0*
0 Add four circle primitives for the rounded corners*
1,1,$1+$1,$2,$3*
1,1,$1+$1,$4,$5*
1,1,$1+$1,$6,$7*
1,1,$1+$1,$8,$9*
0 Add four rect primitives between the rounded corners*
20,1,$1+$1,$2,$3,$4,$5,0*
20,1,$1+$1,$4,$5,$6,$7,0*
20,1,$1+$1,$6,$7,$8,$9,0*
20,1,$1+$1,$8,$9,$2,$3,0*%
G04 Aperture macros list end*
%TA.AperFunction,ComponentPad*%
%ADD10C,1.320800*%
%TD*%
%TA.AperFunction,ComponentPad*%
%ADD11C,1.100000*%
%TD*%
%TA.AperFunction,ComponentPad*%
%ADD12C,1.800000*%
%TD*%
%TA.AperFunction,ComponentPad*%
%ADD13C,1.397000*%
%TD*%
%TA.AperFunction,ComponentPad*%
%ADD14R,1.500000X1.500000*%
%TD*%
%TA.AperFunction,ComponentPad*%
%ADD15C,1.500000*%
%TD*%
%TA.AperFunction,ComponentPad*%
%ADD16R,1.700000X1.700000*%
%TD*%
%TA.AperFunction,ComponentPad*%
%ADD17C,1.700000*%
%TD*%
%TA.AperFunction,ComponentPad*%
%ADD18RoundRect,0.250001X0.499999X0.499999X-0.499999X0.499999X-0.499999X-0.499999X0.499999X-0.499999X0*%
%TD*%
%TA.AperFunction,ViaPad*%
%ADD19C,0.600000*%
%TD*%
G04 APERTURE END LIST*
D10*
%TO.N,GLV-*%
%TO.C,U8*%
X86880000Y-31850000D03*
%TO.N,GLV+*%
X84340000Y-31850000D03*
%TO.N,unconnected-(U8-CONTROL-Pad3)*%
X81800000Y-31850000D03*
%TO.N,POST_12V_HV*%
X74180000Y-31850000D03*
%TO.N,POST_HV-*%
X71640000Y-31850000D03*
%TO.N,unconnected-(U8-N{slash}C-Pad8)*%
X69100000Y-31850000D03*
%TD*%
D11*
%TO.N,*%
%TO.C,Molex4*%
X45210000Y-45450000D03*
X45210000Y-39450000D03*
D12*
%TO.N,POST_HV-*%
X44270000Y-42450000D03*
X41270000Y-42450000D03*
%TD*%
D13*
%TO.N,/HV+_preAIR*%
%TO.C,F2*%
X44040000Y-50150000D03*
%TO.N,Net-(Molex1-Pin_1)*%
X38960000Y-50150000D03*
%TD*%
D14*
%TO.N,Net-(U2-IOUT)*%
%TO.C,U2*%
X52380000Y-45100000D03*
D15*
%TO.N,Net-(U2-IREF)*%
X54920000Y-45100000D03*
%TO.N,Net-(U1-CAT)*%
X57460000Y-45100000D03*
%TO.N,POST_HV-*%
X60000000Y-45100000D03*
%TO.N,Net-(U2-RC)*%
X60000000Y-37480000D03*
%TO.N,Net-(U2-IOUT)*%
X57460000Y-37480000D03*
%TO.N,Net-(U2-COMPIN)*%
X54920000Y-37480000D03*
%TO.N,POST_12V_HV*%
X52380000Y-37480000D03*
%TD*%
D11*
%TO.N,*%
%TO.C,Molex3*%
X27930000Y-37030000D03*
X27930000Y-43030000D03*
D12*
%TO.N,Net-(Molex3-Pin_1)*%
X28870000Y-40030000D03*
X31870000Y-40030000D03*
%TD*%
D16*
%TO.N,USART2_TX*%
%TO.C,J3*%
X96725000Y-60500000D03*
D17*
%TO.N,GLV-*%
X99265000Y-60500000D03*
%TD*%
D10*
%TO.N,GLV-*%
%TO.C,U6*%
X86740000Y-52000000D03*
%TO.N,GLV+*%
X84200000Y-52000000D03*
%TO.N,unconnected-(U6-CONTROL-Pad3)*%
X81660000Y-52000000D03*
%TO.N,PRE_12V_HV*%
X74040000Y-52000000D03*
%TO.N,PRE_HV-*%
X71500000Y-52000000D03*
%TO.N,unconnected-(U6-N{slash}C-Pad8)*%
X68960000Y-52000000D03*
%TD*%
D11*
%TO.N,*%
%TO.C,Molex1*%
X27903750Y-47150000D03*
X27903750Y-53150000D03*
D12*
%TO.N,Net-(Molex1-Pin_1)*%
X28843750Y-50150000D03*
X31843750Y-50150000D03*
%TD*%
D13*
%TO.N,/HV+_postAIR*%
%TO.C,F1*%
X44840000Y-33100000D03*
%TO.N,Net-(Molex3-Pin_1)*%
X39760000Y-33100000D03*
%TD*%
D18*
%TO.N,SDCin*%
%TO.C,J1*%
X103793750Y-31200000D03*
D15*
%TO.N,Pre_en*%
X100793750Y-31200000D03*
%TO.N,AIR+_en*%
X97793750Y-31200000D03*
%TO.N,Precharge_Fault*%
X94793750Y-31200000D03*
%TO.N,CHG*%
X103793750Y-28200000D03*
%TO.N,Charge_on*%
X100793750Y-28200000D03*
%TO.N,GLV-*%
X97793750Y-28200000D03*
%TO.N,Net-(J1-Pin_8)*%
X94793750Y-28200000D03*
%TD*%
D11*
%TO.N,*%
%TO.C,Molex2*%
X45250000Y-61790000D03*
X45250000Y-55790000D03*
D12*
%TO.N,PRE_HV-*%
X44310000Y-58790000D03*
X41310000Y-58790000D03*
%TD*%
D16*
%TO.N,3.3 V*%
%TO.C,J2*%
X106473750Y-52500000D03*
D17*
%TO.N,SWCLK*%
X109013750Y-52500000D03*
%TO.N,SWDIO*%
X111553750Y-52500000D03*
%TO.N,GLV-*%
X114093750Y-52500000D03*
%TD*%
D14*
%TO.N,Net-(U5-IOUT)*%
%TO.C,U5*%
X63218554Y-62475000D03*
D15*
%TO.N,Net-(U5-IREF)*%
X63218554Y-59935000D03*
%TO.N,Net-(U4-CAT)*%
X63218554Y-57395000D03*
%TO.N,PRE_HV-*%
X63218554Y-54855000D03*
%TO.N,Net-(U5-RC)*%
X55598554Y-54855000D03*
%TO.N,Net-(U5-IOUT)*%
X55598554Y-57395000D03*
%TO.N,Net-(U5-COMPIN)*%
X55598554Y-59935000D03*
%TO.N,PRE_12V_HV*%
X55598554Y-62475000D03*
%TD*%
D19*
%TO.N,GLV-*%
X81547500Y-26052500D03*
X99500000Y-56500000D03*
X93770000Y-54460000D03*
X92280000Y-55240000D03*
X111000000Y-50500000D03*
X102000000Y-62500000D03*
X91550000Y-54450000D03*
X97900000Y-62700000D03*
X110800000Y-37850000D03*
X102480000Y-37500000D03*
X96000000Y-29500000D03*
X102400000Y-38110000D03*
X95000000Y-38500000D03*
X94500000Y-55250000D03*
X114500000Y-35000000D03*
X91500000Y-25500000D03*
X91540000Y-55240000D03*
X104500000Y-50000000D03*
X99238750Y-54765000D03*
X110000000Y-43790000D03*
X93020000Y-56100000D03*
X90500000Y-46500000D03*
X92290000Y-54450000D03*
X115600000Y-48600000D03*
X85650000Y-59050000D03*
X106320000Y-37440000D03*
X112000000Y-34000000D03*
X93020000Y-55250000D03*
X94500000Y-56100000D03*
X109000000Y-25500000D03*
X93760000Y-56100000D03*
X94510000Y-54460000D03*
X84200000Y-40400000D03*
X92280000Y-56090000D03*
X97800000Y-33500000D03*
X103500000Y-26000000D03*
X99300000Y-58400000D03*
X96500000Y-27000000D03*
X91540000Y-56090000D03*
X103500000Y-45000000D03*
X106130000Y-38020000D03*
X101028750Y-54785000D03*
X89500000Y-29000000D03*
X93030000Y-54460000D03*
X99000000Y-27000000D03*
X83200000Y-33100000D03*
X98200000Y-35900000D03*
X107000000Y-29000000D03*
X110550000Y-47100000D03*
X93760000Y-55250000D03*
X109000000Y-56500000D03*
%TO.N,GLV+*%
X86920000Y-40200000D03*
X95090000Y-45500000D03*
X93500000Y-45500000D03*
X94000000Y-46000000D03*
%TO.N,POST_HV-*%
X56700000Y-34000000D03*
X67500000Y-36000000D03*
X62500000Y-38000000D03*
X53800000Y-33400000D03*
X51500000Y-32000000D03*
X63900000Y-25000000D03*
X62500000Y-45000000D03*
X50000000Y-43600000D03*
%TO.N,CHG*%
X110800000Y-41200000D03*
X113000000Y-40550000D03*
%TO.N,3.3 V*%
X103000000Y-43175000D03*
X102500000Y-45500000D03*
X91389339Y-52500000D03*
%TO.N,Net-(U4-CAT)*%
X71000000Y-60700000D03*
%TO.N,PRE_HV-*%
X53502048Y-57685213D03*
X68200000Y-57602500D03*
X52500000Y-61000000D03*
X49000000Y-56500000D03*
X67500000Y-56000000D03*
X61000000Y-48000000D03*
X52000000Y-62000000D03*
%TO.N,Charge_on*%
X112050000Y-40050000D03*
X96244967Y-34550000D03*
%TO.N,SDCin*%
X113950000Y-39000000D03*
X111060000Y-36210000D03*
X112100000Y-38600000D03*
%TO.N,f_postAIR*%
X97500000Y-43150000D03*
X87700000Y-41350000D03*
%TO.N,Net-(U7-PA2)*%
X106177244Y-42500000D03*
X110900000Y-45800000D03*
%TO.N,AIR+_en_gate*%
X101500000Y-44000000D03*
X101500000Y-41800000D03*
%TO.N,SWDIO*%
X101500000Y-46400000D03*
%TO.N,SWCLK*%
X100500000Y-47050000D03*
%TD*%
%TA.AperFunction,Conductor*%
%TO.N,GLV+*%
G36*
X96443039Y-24369685D02*
G01*
X96488794Y-24422489D01*
X96500000Y-24474000D01*
X96500000Y-26184012D01*
X96480315Y-26251051D01*
X96427511Y-26296806D01*
X96400192Y-26305629D01*
X96295677Y-26326418D01*
X96295667Y-26326421D01*
X96168195Y-26379221D01*
X96168182Y-26379228D01*
X96053458Y-26455885D01*
X96053454Y-26455888D01*
X95955888Y-26553454D01*
X95955885Y-26553458D01*
X95879228Y-26668182D01*
X95879221Y-26668195D01*
X95826421Y-26795667D01*
X95826418Y-26795677D01*
X95799500Y-26931004D01*
X95799500Y-26931007D01*
X95799500Y-27068993D01*
X95799500Y-27068995D01*
X95799499Y-27068995D01*
X95826418Y-27204322D01*
X95826421Y-27204332D01*
X95871612Y-27313433D01*
X95879081Y-27382902D01*
X95847806Y-27445381D01*
X95787717Y-27481033D01*
X95717891Y-27478539D01*
X95669370Y-27448566D01*
X95543249Y-27322445D01*
X95543244Y-27322441D01*
X95396747Y-27216006D01*
X95396746Y-27216005D01*
X95396744Y-27216004D01*
X95336076Y-27185092D01*
X95235389Y-27133788D01*
X95235386Y-27133787D01*
X95063160Y-27077829D01*
X94884301Y-27049500D01*
X94884296Y-27049500D01*
X94703204Y-27049500D01*
X94703199Y-27049500D01*
X94524339Y-27077829D01*
X94352113Y-27133787D01*
X94352110Y-27133788D01*
X94190752Y-27216006D01*
X94044255Y-27322441D01*
X94044250Y-27322445D01*
X93916195Y-27450500D01*
X93916191Y-27450505D01*
X93809756Y-27597002D01*
X93727538Y-27758360D01*
X93727537Y-27758363D01*
X93671579Y-27930589D01*
X93643250Y-28109448D01*
X93643250Y-28290551D01*
X93671579Y-28469410D01*
X93727537Y-28641636D01*
X93727538Y-28641639D01*
X93771038Y-28727011D01*
X93806023Y-28795672D01*
X93809756Y-28802997D01*
X93916191Y-28949494D01*
X93916195Y-28949499D01*
X94044250Y-29077554D01*
X94044255Y-29077558D01*
X94168999Y-29168189D01*
X94190756Y-29183996D01*
X94296234Y-29237740D01*
X94352110Y-29266211D01*
X94352113Y-29266212D01*
X94438226Y-29294191D01*
X94524341Y-29322171D01*
X94607179Y-29335291D01*
X94703199Y-29350500D01*
X94703204Y-29350500D01*
X94884301Y-29350500D01*
X95063159Y-29322171D01*
X95138083Y-29297827D01*
X95207924Y-29295832D01*
X95267757Y-29331912D01*
X95298585Y-29394613D01*
X95299805Y-29427900D01*
X95299500Y-29430999D01*
X95299500Y-29431007D01*
X95299500Y-29568993D01*
X95299500Y-29568995D01*
X95299499Y-29568995D01*
X95326418Y-29704322D01*
X95326421Y-29704332D01*
X95379221Y-29831804D01*
X95379228Y-29831817D01*
X95455885Y-29946541D01*
X95455888Y-29946545D01*
X95513116Y-30003773D01*
X95546601Y-30065096D01*
X95541617Y-30134788D01*
X95499745Y-30190721D01*
X95434281Y-30215138D01*
X95369140Y-30201939D01*
X95235389Y-30133788D01*
X95235386Y-30133787D01*
X95063160Y-30077829D01*
X94884301Y-30049500D01*
X94884296Y-30049500D01*
X94703204Y-30049500D01*
X94703199Y-30049500D01*
X94524339Y-30077829D01*
X94352113Y-30133787D01*
X94352110Y-30133788D01*
X94190752Y-30216006D01*
X94044255Y-30322441D01*
X94044250Y-30322445D01*
X93916195Y-30450500D01*
X93916191Y-30450505D01*
X93809756Y-30597002D01*
X93727538Y-30758360D01*
X93727537Y-30758363D01*
X93671579Y-30930589D01*
X93643250Y-31109448D01*
X93643250Y-31290551D01*
X93671579Y-31469410D01*
X93727537Y-31641636D01*
X93727538Y-31641639D01*
X93809756Y-31802997D01*
X93916191Y-31949494D01*
X93916195Y-31949499D01*
X94044250Y-32077554D01*
X94044255Y-32077558D01*
X94156964Y-32159445D01*
X94190756Y-32183996D01*
X94278502Y-32228705D01*
X94352110Y-32266211D01*
X94352113Y-32266212D01*
X94434271Y-32292906D01*
X94524341Y-32322171D01*
X94607179Y-32335291D01*
X94703199Y-32350500D01*
X94703204Y-32350500D01*
X94884301Y-32350500D01*
X94971009Y-32336765D01*
X95063159Y-32322171D01*
X95235389Y-32266211D01*
X95396744Y-32183996D01*
X95543251Y-32077553D01*
X95671303Y-31949501D01*
X95777746Y-31802994D01*
X95859961Y-31641639D01*
X95915921Y-31469409D01*
X95935233Y-31347476D01*
X95944250Y-31290551D01*
X95944250Y-31109448D01*
X95927769Y-31005397D01*
X95915921Y-30930591D01*
X95869949Y-30789100D01*
X95859962Y-30758363D01*
X95859961Y-30758360D01*
X95824925Y-30689600D01*
X95777746Y-30597006D01*
X95764146Y-30578287D01*
X95671308Y-30450505D01*
X95671304Y-30450500D01*
X95551433Y-30330629D01*
X95517948Y-30269306D01*
X95522932Y-30199614D01*
X95564804Y-30143681D01*
X95630268Y-30119264D01*
X95686565Y-30128386D01*
X95795672Y-30173580D01*
X95795676Y-30173580D01*
X95795677Y-30173581D01*
X95931004Y-30200500D01*
X95931007Y-30200500D01*
X96068995Y-30200500D01*
X96160041Y-30182389D01*
X96204328Y-30173580D01*
X96297981Y-30134788D01*
X96328548Y-30122127D01*
X96398017Y-30114658D01*
X96460496Y-30145933D01*
X96496148Y-30206022D01*
X96500000Y-30236688D01*
X96500000Y-33735411D01*
X96480315Y-33802450D01*
X96427511Y-33848205D01*
X96358353Y-33858149D01*
X96351809Y-33857028D01*
X96313963Y-33849500D01*
X96313960Y-33849500D01*
X96175974Y-33849500D01*
X96175972Y-33849500D01*
X96040644Y-33876418D01*
X96040634Y-33876421D01*
X95913162Y-33929221D01*
X95913149Y-33929228D01*
X95798425Y-34005885D01*
X95798421Y-34005888D01*
X95700855Y-34103454D01*
X95700852Y-34103458D01*
X95624195Y-34218182D01*
X95624188Y-34218195D01*
X95571388Y-34345667D01*
X95571385Y-34345677D01*
X95544467Y-34481004D01*
X95544467Y-34481007D01*
X95544467Y-34618993D01*
X95544467Y-34618995D01*
X95544466Y-34618995D01*
X95571385Y-34754322D01*
X95571388Y-34754332D01*
X95624188Y-34881804D01*
X95624195Y-34881817D01*
X95700852Y-34996541D01*
X95700855Y-34996545D01*
X95798421Y-35094111D01*
X95798425Y-35094114D01*
X95913149Y-35170771D01*
X95913162Y-35170778D01*
X96040634Y-35223578D01*
X96040639Y-35223580D01*
X96040643Y-35223580D01*
X96040644Y-35223581D01*
X96175971Y-35250500D01*
X96175974Y-35250500D01*
X96313960Y-35250500D01*
X96351809Y-35242971D01*
X96421398Y-35249197D01*
X96476576Y-35292059D01*
X96499822Y-35357948D01*
X96500000Y-35364588D01*
X96500000Y-53376000D01*
X96480315Y-53443039D01*
X96427511Y-53488794D01*
X96376000Y-53500000D01*
X83624000Y-53500000D01*
X83556961Y-53480315D01*
X83511206Y-53427511D01*
X83500000Y-53376000D01*
X83500000Y-53148029D01*
X83519685Y-53080990D01*
X83572489Y-53035235D01*
X83641647Y-53025291D01*
X83680296Y-53037545D01*
X83754554Y-53075382D01*
X83928271Y-53131827D01*
X84108670Y-53160400D01*
X84291330Y-53160400D01*
X84471728Y-53131827D01*
X84645443Y-53075383D01*
X84808178Y-52992465D01*
X84825978Y-52979531D01*
X84252847Y-52406400D01*
X84253504Y-52406400D01*
X84356865Y-52378705D01*
X84449536Y-52325201D01*
X84525201Y-52249536D01*
X84578705Y-52156865D01*
X84606400Y-52053504D01*
X84606400Y-52052847D01*
X85179531Y-52625978D01*
X85192465Y-52608178D01*
X85275383Y-52445443D01*
X85331827Y-52271728D01*
X85360400Y-52091330D01*
X85360400Y-51908670D01*
X85358315Y-51895505D01*
X85679100Y-51895505D01*
X85679100Y-52104494D01*
X85719868Y-52309445D01*
X85719870Y-52309453D01*
X85799842Y-52502522D01*
X85915946Y-52676286D01*
X86063713Y-52824053D01*
X86063716Y-52824055D01*
X86237476Y-52940157D01*
X86430547Y-53020130D01*
X86635505Y-53060899D01*
X86635508Y-53060900D01*
X86635510Y-53060900D01*
X86844492Y-53060900D01*
X86844493Y-53060899D01*
X87049453Y-53020130D01*
X87242524Y-52940157D01*
X87416284Y-52824055D01*
X87564055Y-52676284D01*
X87635743Y-52568995D01*
X90688838Y-52568995D01*
X90715757Y-52704322D01*
X90715760Y-52704332D01*
X90768560Y-52831804D01*
X90768567Y-52831817D01*
X90845224Y-52946541D01*
X90845227Y-52946545D01*
X90942793Y-53044111D01*
X90942797Y-53044114D01*
X91057521Y-53120771D01*
X91057534Y-53120778D01*
X91185006Y-53173578D01*
X91185011Y-53173580D01*
X91185015Y-53173580D01*
X91185016Y-53173581D01*
X91320343Y-53200500D01*
X91320346Y-53200500D01*
X91458334Y-53200500D01*
X91549380Y-53182389D01*
X91593667Y-53173580D01*
X91721150Y-53120775D01*
X91835881Y-53044114D01*
X91933453Y-52946542D01*
X92010114Y-52831811D01*
X92013328Y-52824053D01*
X92062917Y-52704332D01*
X92062919Y-52704328D01*
X92089839Y-52568993D01*
X92089839Y-52431007D01*
X92089839Y-52431004D01*
X92062920Y-52295677D01*
X92062919Y-52295676D01*
X92062919Y-52295672D01*
X92053001Y-52271728D01*
X92010117Y-52168195D01*
X92010110Y-52168182D01*
X91933453Y-52053458D01*
X91933450Y-52053454D01*
X91835884Y-51955888D01*
X91835880Y-51955885D01*
X91721156Y-51879228D01*
X91721143Y-51879221D01*
X91593671Y-51826421D01*
X91593661Y-51826418D01*
X91458334Y-51799500D01*
X91458332Y-51799500D01*
X91320346Y-51799500D01*
X91320344Y-51799500D01*
X91185016Y-51826418D01*
X91185006Y-51826421D01*
X91057534Y-51879221D01*
X91057521Y-51879228D01*
X90942797Y-51955885D01*
X90942793Y-51955888D01*
X90845227Y-52053454D01*
X90845224Y-52053458D01*
X90768567Y-52168182D01*
X90768560Y-52168195D01*
X90715760Y-52295667D01*
X90715757Y-52295677D01*
X90688839Y-52431004D01*
X90688839Y-52431007D01*
X90688839Y-52568993D01*
X90688839Y-52568995D01*
X90688838Y-52568995D01*
X87635743Y-52568995D01*
X87680157Y-52502524D01*
X87703801Y-52445443D01*
X87731960Y-52377462D01*
X87731960Y-52377460D01*
X87760128Y-52309457D01*
X87760130Y-52309453D01*
X87800900Y-52104490D01*
X87800900Y-51895510D01*
X87800900Y-51895507D01*
X87800899Y-51895505D01*
X87760131Y-51690554D01*
X87760130Y-51690547D01*
X87680157Y-51497476D01*
X87564055Y-51323716D01*
X87564053Y-51323713D01*
X87416286Y-51175946D01*
X87329404Y-51117894D01*
X87242524Y-51059843D01*
X87147462Y-51020467D01*
X87049453Y-50979870D01*
X87049445Y-50979868D01*
X86844493Y-50939100D01*
X86844490Y-50939100D01*
X86635510Y-50939100D01*
X86635507Y-50939100D01*
X86430554Y-50979868D01*
X86430546Y-50979870D01*
X86237477Y-51059842D01*
X86063713Y-51175946D01*
X85915946Y-51323713D01*
X85799842Y-51497477D01*
X85719870Y-51690546D01*
X85719868Y-51690554D01*
X85679100Y-51895505D01*
X85358315Y-51895505D01*
X85331827Y-51728271D01*
X85275383Y-51554556D01*
X85192462Y-51391817D01*
X85179531Y-51374020D01*
X85179531Y-51374019D01*
X84606400Y-51947151D01*
X84606400Y-51946496D01*
X84578705Y-51843135D01*
X84525201Y-51750464D01*
X84449536Y-51674799D01*
X84356865Y-51621295D01*
X84253504Y-51593600D01*
X84252846Y-51593600D01*
X84825978Y-51020467D01*
X84808178Y-51007535D01*
X84645443Y-50924616D01*
X84471728Y-50868172D01*
X84291330Y-50839600D01*
X84108670Y-50839600D01*
X83928271Y-50868172D01*
X83754556Y-50924617D01*
X83680295Y-50962455D01*
X83611625Y-50975351D01*
X83546885Y-50949074D01*
X83506628Y-50891968D01*
X83500000Y-50851970D01*
X83500000Y-46568995D01*
X89799499Y-46568995D01*
X89826418Y-46704322D01*
X89826421Y-46704332D01*
X89879221Y-46831804D01*
X89879228Y-46831817D01*
X89955885Y-46946541D01*
X89955888Y-46946545D01*
X90053454Y-47044111D01*
X90053458Y-47044114D01*
X90168182Y-47120771D01*
X90168195Y-47120778D01*
X90295667Y-47173578D01*
X90295672Y-47173580D01*
X90295676Y-47173580D01*
X90295677Y-47173581D01*
X90431004Y-47200500D01*
X90431007Y-47200500D01*
X90568995Y-47200500D01*
X90660041Y-47182389D01*
X90704328Y-47173580D01*
X90831811Y-47120775D01*
X90946542Y-47044114D01*
X91044114Y-46946542D01*
X91120775Y-46831811D01*
X91173580Y-46704328D01*
X91182389Y-46660041D01*
X91200500Y-46568995D01*
X91200500Y-46431004D01*
X91173581Y-46295677D01*
X91173580Y-46295676D01*
X91173580Y-46295672D01*
X91173578Y-46295667D01*
X91120778Y-46168195D01*
X91120771Y-46168182D01*
X91044114Y-46053458D01*
X91044111Y-46053454D01*
X90946545Y-45955888D01*
X90946541Y-45955885D01*
X90831817Y-45879228D01*
X90831804Y-45879221D01*
X90704332Y-45826421D01*
X90704322Y-45826418D01*
X90568995Y-45799500D01*
X90568993Y-45799500D01*
X90431007Y-45799500D01*
X90431005Y-45799500D01*
X90295677Y-45826418D01*
X90295667Y-45826421D01*
X90168195Y-45879221D01*
X90168182Y-45879228D01*
X90053458Y-45955885D01*
X90053454Y-45955888D01*
X89955888Y-46053454D01*
X89955885Y-46053458D01*
X89879228Y-46168182D01*
X89879221Y-46168195D01*
X89826421Y-46295667D01*
X89826418Y-46295677D01*
X89799500Y-46431004D01*
X89799500Y-46431007D01*
X89799500Y-46568993D01*
X89799500Y-46568995D01*
X89799499Y-46568995D01*
X83500000Y-46568995D01*
X83500000Y-41418995D01*
X86999499Y-41418995D01*
X87026418Y-41554322D01*
X87026421Y-41554332D01*
X87079221Y-41681804D01*
X87079228Y-41681817D01*
X87155885Y-41796541D01*
X87155888Y-41796545D01*
X87253454Y-41894111D01*
X87253458Y-41894114D01*
X87368182Y-41970771D01*
X87368195Y-41970778D01*
X87495667Y-42023578D01*
X87495672Y-42023580D01*
X87495676Y-42023580D01*
X87495677Y-42023581D01*
X87631004Y-42050500D01*
X87631007Y-42050500D01*
X87768995Y-42050500D01*
X87860041Y-42032389D01*
X87904328Y-42023580D01*
X88031811Y-41970775D01*
X88146542Y-41894114D01*
X88244114Y-41796542D01*
X88320775Y-41681811D01*
X88373580Y-41554328D01*
X88400500Y-41418993D01*
X88400500Y-41281007D01*
X88400500Y-41281004D01*
X88373581Y-41145677D01*
X88373580Y-41145676D01*
X88373580Y-41145672D01*
X88343718Y-41073578D01*
X88320778Y-41018195D01*
X88320771Y-41018182D01*
X88244114Y-40903458D01*
X88244111Y-40903454D01*
X88146545Y-40805888D01*
X88146541Y-40805885D01*
X88031817Y-40729228D01*
X88031804Y-40729221D01*
X87904332Y-40676421D01*
X87904322Y-40676418D01*
X87768995Y-40649500D01*
X87768993Y-40649500D01*
X87631007Y-40649500D01*
X87631005Y-40649500D01*
X87495677Y-40676418D01*
X87495667Y-40676421D01*
X87368195Y-40729221D01*
X87368182Y-40729228D01*
X87253458Y-40805885D01*
X87253454Y-40805888D01*
X87155888Y-40903454D01*
X87155885Y-40903458D01*
X87079228Y-41018182D01*
X87079221Y-41018195D01*
X87026421Y-41145667D01*
X87026418Y-41145677D01*
X86999500Y-41281004D01*
X86999500Y-41281007D01*
X86999500Y-41418993D01*
X86999500Y-41418995D01*
X86999499Y-41418995D01*
X83500000Y-41418995D01*
X83500000Y-40990019D01*
X83519685Y-40922980D01*
X83572489Y-40877225D01*
X83641647Y-40867281D01*
X83705203Y-40896306D01*
X83711681Y-40902338D01*
X83753454Y-40944111D01*
X83753458Y-40944114D01*
X83868182Y-41020771D01*
X83868195Y-41020778D01*
X83995667Y-41073578D01*
X83995672Y-41073580D01*
X83995676Y-41073580D01*
X83995677Y-41073581D01*
X84131004Y-41100500D01*
X84131007Y-41100500D01*
X84268995Y-41100500D01*
X84360041Y-41082389D01*
X84404328Y-41073580D01*
X84531811Y-41020775D01*
X84646542Y-40944114D01*
X84744114Y-40846542D01*
X84820775Y-40731811D01*
X84873580Y-40604328D01*
X84900500Y-40468993D01*
X84900500Y-40331007D01*
X84900500Y-40331004D01*
X84873581Y-40195677D01*
X84873580Y-40195676D01*
X84873580Y-40195672D01*
X84873578Y-40195667D01*
X84820778Y-40068195D01*
X84820771Y-40068182D01*
X84744114Y-39953458D01*
X84744111Y-39953454D01*
X84646545Y-39855888D01*
X84646541Y-39855885D01*
X84531817Y-39779228D01*
X84531804Y-39779221D01*
X84404332Y-39726421D01*
X84404322Y-39726418D01*
X84268995Y-39699500D01*
X84268993Y-39699500D01*
X84131007Y-39699500D01*
X84131005Y-39699500D01*
X83995677Y-39726418D01*
X83995667Y-39726421D01*
X83868195Y-39779221D01*
X83868182Y-39779228D01*
X83753458Y-39855885D01*
X83753454Y-39855888D01*
X83711681Y-39897662D01*
X83650358Y-39931147D01*
X83580666Y-39926163D01*
X83524733Y-39884291D01*
X83500316Y-39818827D01*
X83500000Y-39809981D01*
X83500000Y-38568995D01*
X94299499Y-38568995D01*
X94326418Y-38704322D01*
X94326421Y-38704332D01*
X94379221Y-38831804D01*
X94379228Y-38831817D01*
X94455885Y-38946541D01*
X94455888Y-38946545D01*
X94553454Y-39044111D01*
X94553458Y-39044114D01*
X94668182Y-39120771D01*
X94668195Y-39120778D01*
X94795667Y-39173578D01*
X94795672Y-39173580D01*
X94795676Y-39173580D01*
X94795677Y-39173581D01*
X94931004Y-39200500D01*
X94931007Y-39200500D01*
X95068995Y-39200500D01*
X95160041Y-39182389D01*
X95204328Y-39173580D01*
X95331811Y-39120775D01*
X95446542Y-39044114D01*
X95544114Y-38946542D01*
X95620775Y-38831811D01*
X95673580Y-38704328D01*
X95700500Y-38568993D01*
X95700500Y-38431007D01*
X95700500Y-38431004D01*
X95673581Y-38295677D01*
X95673580Y-38295676D01*
X95673580Y-38295672D01*
X95673578Y-38295667D01*
X95620778Y-38168195D01*
X95620771Y-38168182D01*
X95544114Y-38053458D01*
X95544111Y-38053454D01*
X95446545Y-37955888D01*
X95446541Y-37955885D01*
X95331817Y-37879228D01*
X95331804Y-37879221D01*
X95204332Y-37826421D01*
X95204322Y-37826418D01*
X95068995Y-37799500D01*
X95068993Y-37799500D01*
X94931007Y-37799500D01*
X94931005Y-37799500D01*
X94795677Y-37826418D01*
X94795667Y-37826421D01*
X94668195Y-37879221D01*
X94668182Y-37879228D01*
X94553458Y-37955885D01*
X94553454Y-37955888D01*
X94455888Y-38053454D01*
X94455885Y-38053458D01*
X94379228Y-38168182D01*
X94379221Y-38168195D01*
X94326421Y-38295667D01*
X94326418Y-38295677D01*
X94299500Y-38431004D01*
X94299500Y-38431007D01*
X94299500Y-38568993D01*
X94299500Y-38568995D01*
X94299499Y-38568995D01*
X83500000Y-38568995D01*
X83500000Y-35450000D01*
X80874000Y-35450000D01*
X80806961Y-35430315D01*
X80761206Y-35377511D01*
X80750000Y-35326000D01*
X80750000Y-32596907D01*
X80769685Y-32529868D01*
X80822489Y-32484113D01*
X80891647Y-32474169D01*
X80955203Y-32503194D01*
X80971697Y-32521890D01*
X80972081Y-32521576D01*
X80975947Y-32526287D01*
X81123713Y-32674053D01*
X81123716Y-32674055D01*
X81297476Y-32790157D01*
X81490547Y-32870130D01*
X81695505Y-32910899D01*
X81695508Y-32910900D01*
X81695510Y-32910900D01*
X81904492Y-32910900D01*
X81904493Y-32910899D01*
X82109453Y-32870130D01*
X82302524Y-32790157D01*
X82336033Y-32767766D01*
X82402711Y-32746889D01*
X82470091Y-32765374D01*
X82516781Y-32817352D01*
X82527957Y-32886322D01*
X82526541Y-32895060D01*
X82499500Y-33031002D01*
X82499500Y-33031007D01*
X82499500Y-33168993D01*
X82499500Y-33168995D01*
X82499499Y-33168995D01*
X82526418Y-33304322D01*
X82526421Y-33304332D01*
X82579221Y-33431804D01*
X82579228Y-33431817D01*
X82655885Y-33546541D01*
X82655888Y-33546545D01*
X82753454Y-33644111D01*
X82753458Y-33644114D01*
X82868182Y-33720771D01*
X82868195Y-33720778D01*
X82995667Y-33773578D01*
X82995672Y-33773580D01*
X82995676Y-33773580D01*
X82995677Y-33773581D01*
X83131004Y-33800500D01*
X83131007Y-33800500D01*
X83268995Y-33800500D01*
X83360041Y-33782389D01*
X83404328Y-33773580D01*
X83531811Y-33720775D01*
X83646542Y-33644114D01*
X83744114Y-33546542D01*
X83820775Y-33431811D01*
X83873580Y-33304328D01*
X83900500Y-33168993D01*
X83900500Y-33097986D01*
X83920185Y-33030947D01*
X83972989Y-32985192D01*
X84042147Y-32975248D01*
X84062824Y-32980057D01*
X84068270Y-32981826D01*
X84248670Y-33010400D01*
X84431330Y-33010400D01*
X84611728Y-32981827D01*
X84785443Y-32925383D01*
X84948178Y-32842465D01*
X84965978Y-32829531D01*
X84392846Y-32256400D01*
X84393504Y-32256400D01*
X84496865Y-32228705D01*
X84589536Y-32175201D01*
X84665201Y-32099536D01*
X84718705Y-32006865D01*
X84746400Y-31903504D01*
X84746400Y-31902847D01*
X85319531Y-32475978D01*
X85332465Y-32458178D01*
X85415383Y-32295443D01*
X85471827Y-32121728D01*
X85500400Y-31941330D01*
X85500400Y-31758670D01*
X85498315Y-31745505D01*
X85819100Y-31745505D01*
X85819100Y-31954494D01*
X85859868Y-32159445D01*
X85859870Y-32159453D01*
X85939004Y-32350500D01*
X85939843Y-32352524D01*
X85971231Y-32399500D01*
X86055946Y-32526286D01*
X86203713Y-32674053D01*
X86203716Y-32674055D01*
X86377476Y-32790157D01*
X86570547Y-32870130D01*
X86775505Y-32910899D01*
X86775508Y-32910900D01*
X86775510Y-32910900D01*
X86984492Y-32910900D01*
X86984493Y-32910899D01*
X87189453Y-32870130D01*
X87382524Y-32790157D01*
X87556284Y-32674055D01*
X87704055Y-32526284D01*
X87820157Y-32352524D01*
X87900130Y-32159453D01*
X87940900Y-31954490D01*
X87940900Y-31745510D01*
X87940900Y-31745507D01*
X87940899Y-31745505D01*
X87930482Y-31693135D01*
X87900130Y-31540547D01*
X87820157Y-31347476D01*
X87704055Y-31173716D01*
X87704053Y-31173713D01*
X87556286Y-31025946D01*
X87469404Y-30967894D01*
X87382524Y-30909843D01*
X87287462Y-30870467D01*
X87189453Y-30829870D01*
X87189445Y-30829868D01*
X86984493Y-30789100D01*
X86984490Y-30789100D01*
X86775510Y-30789100D01*
X86775507Y-30789100D01*
X86570554Y-30829868D01*
X86570546Y-30829870D01*
X86377477Y-30909842D01*
X86203713Y-31025946D01*
X86055946Y-31173713D01*
X85939842Y-31347477D01*
X85859870Y-31540546D01*
X85859868Y-31540554D01*
X85819100Y-31745505D01*
X85498315Y-31745505D01*
X85471827Y-31578271D01*
X85415383Y-31404556D01*
X85332462Y-31241817D01*
X85319531Y-31224020D01*
X85319531Y-31224019D01*
X84746400Y-31797151D01*
X84746400Y-31796496D01*
X84718705Y-31693135D01*
X84665201Y-31600464D01*
X84589536Y-31524799D01*
X84496865Y-31471295D01*
X84393504Y-31443600D01*
X84392847Y-31443600D01*
X84965978Y-30870467D01*
X84948178Y-30857535D01*
X84785443Y-30774616D01*
X84611728Y-30718172D01*
X84431330Y-30689600D01*
X84248670Y-30689600D01*
X84068271Y-30718172D01*
X83894556Y-30774616D01*
X83731813Y-30857539D01*
X83731808Y-30857543D01*
X83714020Y-30870465D01*
X83714020Y-30870468D01*
X84287154Y-31443600D01*
X84286496Y-31443600D01*
X84183135Y-31471295D01*
X84090464Y-31524799D01*
X84014799Y-31600464D01*
X83961295Y-31693135D01*
X83933600Y-31796496D01*
X83933600Y-31797153D01*
X83360468Y-31224020D01*
X83360465Y-31224020D01*
X83347543Y-31241808D01*
X83347539Y-31241813D01*
X83264616Y-31404556D01*
X83208172Y-31578271D01*
X83179600Y-31758669D01*
X83179600Y-31941330D01*
X83208173Y-32121729D01*
X83208173Y-32121732D01*
X83245686Y-32237182D01*
X83247681Y-32307023D01*
X83211601Y-32366856D01*
X83148900Y-32397684D01*
X83137047Y-32398701D01*
X83137067Y-32398903D01*
X83131004Y-32399499D01*
X82995677Y-32426418D01*
X82995672Y-32426420D01*
X82926863Y-32454921D01*
X82857394Y-32462389D01*
X82794915Y-32431113D01*
X82759263Y-32371024D01*
X82761758Y-32301199D01*
X82764844Y-32292922D01*
X82820130Y-32159453D01*
X82860900Y-31954490D01*
X82860900Y-31745510D01*
X82860900Y-31745507D01*
X82860899Y-31745505D01*
X82850482Y-31693135D01*
X82820130Y-31540547D01*
X82740157Y-31347476D01*
X82624055Y-31173716D01*
X82624053Y-31173713D01*
X82476287Y-31025947D01*
X82476282Y-31025943D01*
X82468628Y-31020829D01*
X82468627Y-31020828D01*
X82302525Y-30909843D01*
X82109453Y-30829870D01*
X82109445Y-30829868D01*
X81904493Y-30789100D01*
X81904490Y-30789100D01*
X81695510Y-30789100D01*
X81695507Y-30789100D01*
X81490554Y-30829868D01*
X81490546Y-30829870D01*
X81297477Y-30909842D01*
X81123713Y-31025946D01*
X80975947Y-31173712D01*
X80972081Y-31178424D01*
X80970728Y-31177313D01*
X80923475Y-31216794D01*
X80854149Y-31225493D01*
X80791125Y-31195330D01*
X80754414Y-31135882D01*
X80750000Y-31103092D01*
X80750000Y-29068995D01*
X88799499Y-29068995D01*
X88826418Y-29204322D01*
X88826421Y-29204332D01*
X88879221Y-29331804D01*
X88879228Y-29331817D01*
X88955885Y-29446541D01*
X88955888Y-29446545D01*
X89053454Y-29544111D01*
X89053458Y-29544114D01*
X89168182Y-29620771D01*
X89168195Y-29620778D01*
X89295667Y-29673578D01*
X89295672Y-29673580D01*
X89295676Y-29673580D01*
X89295677Y-29673581D01*
X89431004Y-29700500D01*
X89431007Y-29700500D01*
X89568995Y-29700500D01*
X89660041Y-29682389D01*
X89704328Y-29673580D01*
X89831811Y-29620775D01*
X89946542Y-29544114D01*
X90044114Y-29446542D01*
X90120775Y-29331811D01*
X90173580Y-29204328D01*
X90182389Y-29160041D01*
X90200500Y-29068995D01*
X90200500Y-28931004D01*
X90173581Y-28795677D01*
X90173580Y-28795676D01*
X90173580Y-28795672D01*
X90145140Y-28727011D01*
X90120778Y-28668195D01*
X90120771Y-28668182D01*
X90044114Y-28553458D01*
X90044111Y-28553454D01*
X89946545Y-28455888D01*
X89946541Y-28455885D01*
X89831817Y-28379228D01*
X89831804Y-28379221D01*
X89704332Y-28326421D01*
X89704322Y-28326418D01*
X89568995Y-28299500D01*
X89568993Y-28299500D01*
X89431007Y-28299500D01*
X89431005Y-28299500D01*
X89295677Y-28326418D01*
X89295667Y-28326421D01*
X89168195Y-28379221D01*
X89168182Y-28379228D01*
X89053458Y-28455885D01*
X89053454Y-28455888D01*
X88955888Y-28553454D01*
X88955885Y-28553458D01*
X88879228Y-28668182D01*
X88879221Y-28668195D01*
X88826421Y-28795667D01*
X88826418Y-28795677D01*
X88799500Y-28931004D01*
X88799500Y-28931007D01*
X88799500Y-29068993D01*
X88799500Y-29068995D01*
X88799499Y-29068995D01*
X80750000Y-29068995D01*
X80750000Y-27185092D01*
X91033250Y-27185092D01*
X91033250Y-27334907D01*
X91062473Y-27481822D01*
X91062475Y-27481830D01*
X91119801Y-27620229D01*
X91119806Y-27620238D01*
X91203030Y-27744790D01*
X91203033Y-27744794D01*
X91308955Y-27850716D01*
X91308959Y-27850719D01*
X91433511Y-27933943D01*
X91433517Y-27933946D01*
X91433518Y-27933947D01*
X91571920Y-27991275D01*
X91718842Y-28020499D01*
X91718846Y-28020500D01*
X91718847Y-28020500D01*
X91868654Y-28020500D01*
X91868655Y-28020499D01*
X92015580Y-27991275D01*
X92153982Y-27933947D01*
X92278541Y-27850719D01*
X92384469Y-27744791D01*
X92467697Y-27620232D01*
X92525025Y-27481830D01*
X92554250Y-27334903D01*
X92554250Y-27185097D01*
X92525025Y-27038170D01*
X92467697Y-26899768D01*
X92467696Y-26899767D01*
X92467693Y-26899761D01*
X92384469Y-26775209D01*
X92384466Y-26775205D01*
X92278544Y-26669283D01*
X92278540Y-26669280D01*
X92153988Y-26586056D01*
X92153979Y-26586051D01*
X92015580Y-26528725D01*
X92015572Y-26528723D01*
X91868657Y-26499500D01*
X91868653Y-26499500D01*
X91718847Y-26499500D01*
X91718842Y-26499500D01*
X91571927Y-26528723D01*
X91571919Y-26528725D01*
X91433520Y-26586051D01*
X91433511Y-26586056D01*
X91308959Y-26669280D01*
X91308955Y-26669283D01*
X91203033Y-26775205D01*
X91203030Y-26775209D01*
X91119806Y-26899761D01*
X91119801Y-26899770D01*
X91062475Y-27038169D01*
X91062473Y-27038177D01*
X91033250Y-27185092D01*
X80750000Y-27185092D01*
X80750000Y-26528596D01*
X80769685Y-26461557D01*
X80822489Y-26415802D01*
X80891647Y-26405858D01*
X80955203Y-26434883D01*
X80977100Y-26459703D01*
X80993325Y-26483985D01*
X81003387Y-26499044D01*
X81100954Y-26596611D01*
X81100958Y-26596614D01*
X81215682Y-26673271D01*
X81215695Y-26673278D01*
X81343167Y-26726078D01*
X81343172Y-26726080D01*
X81343176Y-26726080D01*
X81343177Y-26726081D01*
X81478504Y-26753000D01*
X81478507Y-26753000D01*
X81616495Y-26753000D01*
X81707541Y-26734889D01*
X81751828Y-26726080D01*
X81879311Y-26673275D01*
X81994042Y-26596614D01*
X82091614Y-26499042D01*
X82168275Y-26384311D01*
X82170381Y-26379228D01*
X82203405Y-26299500D01*
X82221080Y-26256828D01*
X82248000Y-26121493D01*
X82248000Y-25983507D01*
X82248000Y-25983504D01*
X82221081Y-25848177D01*
X82221080Y-25848176D01*
X82221080Y-25848172D01*
X82214300Y-25831804D01*
X82168278Y-25720695D01*
X82168271Y-25720682D01*
X82091614Y-25605958D01*
X82091611Y-25605954D01*
X82054652Y-25568995D01*
X90799499Y-25568995D01*
X90826418Y-25704322D01*
X90826421Y-25704332D01*
X90879221Y-25831804D01*
X90879228Y-25831817D01*
X90955885Y-25946541D01*
X90955888Y-25946545D01*
X91053454Y-26044111D01*
X91053458Y-26044114D01*
X91168182Y-26120771D01*
X91168195Y-26120778D01*
X91295667Y-26173578D01*
X91295672Y-26173580D01*
X91295676Y-26173580D01*
X91295677Y-26173581D01*
X91431004Y-26200500D01*
X91431007Y-26200500D01*
X91568995Y-26200500D01*
X91660041Y-26182389D01*
X91704328Y-26173580D01*
X91831811Y-26120775D01*
X91946542Y-26044114D01*
X92044114Y-25946542D01*
X92120775Y-25831811D01*
X92173580Y-25704328D01*
X92200500Y-25568993D01*
X92200500Y-25431007D01*
X92200500Y-25431004D01*
X92173581Y-25295677D01*
X92173580Y-25295676D01*
X92173580Y-25295672D01*
X92173578Y-25295667D01*
X92120778Y-25168195D01*
X92120771Y-25168182D01*
X92044114Y-25053458D01*
X92044111Y-25053454D01*
X91946545Y-24955888D01*
X91946541Y-24955885D01*
X91831817Y-24879228D01*
X91831804Y-24879221D01*
X91704332Y-24826421D01*
X91704322Y-24826418D01*
X91568995Y-24799500D01*
X91568993Y-24799500D01*
X91431007Y-24799500D01*
X91431005Y-24799500D01*
X91295677Y-24826418D01*
X91295667Y-24826421D01*
X91168195Y-24879221D01*
X91168182Y-24879228D01*
X91053458Y-24955885D01*
X91053454Y-24955888D01*
X90955888Y-25053454D01*
X90955885Y-25053458D01*
X90879228Y-25168182D01*
X90879221Y-25168195D01*
X90826421Y-25295667D01*
X90826418Y-25295677D01*
X90799500Y-25431004D01*
X90799500Y-25431007D01*
X90799500Y-25568993D01*
X90799500Y-25568995D01*
X90799499Y-25568995D01*
X82054652Y-25568995D01*
X81994045Y-25508388D01*
X81994041Y-25508385D01*
X81879317Y-25431728D01*
X81879304Y-25431721D01*
X81751832Y-25378921D01*
X81751822Y-25378918D01*
X81616495Y-25352000D01*
X81616493Y-25352000D01*
X81478507Y-25352000D01*
X81478505Y-25352000D01*
X81343177Y-25378918D01*
X81343167Y-25378921D01*
X81215695Y-25431721D01*
X81215682Y-25431728D01*
X81100958Y-25508385D01*
X81100954Y-25508388D01*
X81003388Y-25605954D01*
X81003385Y-25605958D01*
X80977102Y-25645294D01*
X80923490Y-25690099D01*
X80854165Y-25698806D01*
X80791137Y-25668651D01*
X80754418Y-25609208D01*
X80750000Y-25576403D01*
X80750000Y-24474000D01*
X80769685Y-24406961D01*
X80822489Y-24361206D01*
X80874000Y-24350000D01*
X96376000Y-24350000D01*
X96443039Y-24369685D01*
G37*
%TD.AperFunction*%
%TD*%
M02*
