%TF.GenerationSoftware,KiCad,Pcbnew,10.0.6*%
%TF.CreationDate,2026-09-01T18:20:09-07:00*%
%TF.ProjectId,Precharge_2027,50726563-6861-4726-9765-5f323032372e,rev?*%
%TF.SameCoordinates,Original*%
%TF.FileFunction,Copper,L1,Top*%
%TF.FilePolarity,Positive*%
%FSLAX46Y46*%
G04 Gerber Fmt 4.6, Leading zero omitted, Abs format (unit mm)*
G04 Created by KiCad (PCBNEW 10.0.6) date 2026-09-01 18:20:09*
%MOMM*%
%LPD*%
G01*
G04 APERTURE LIST*
G04 Aperture macros list*
%AMRoundRect*
0 Rectangle with rounded corners*
0 $1 Rounding radius*
0 $2 $3 $4 $5 $6 $7 $8 $9 X,Y pos of 4 corners*
0 Add a 4 corners polygon primitive as box body*
4,1,4,$2,$3,$4,$5,$6,$7,$8,$9,$2,$3,0*
0 Add four circle primitives for the rounded corners*
1,1,$1+$1,$2,$3*
1,1,$1+$1,$4,$5*
1,1,$1+$1,$6,$7*
1,1,$1+$1,$8,$9*
0 Add four rect primitives between the rounded corners*
20,1,$1+$1,$2,$3,$4,$5,0*
20,1,$1+$1,$4,$5,$6,$7,0*
20,1,$1+$1,$6,$7,$8,$9,0*
20,1,$1+$1,$8,$9,$2,$3,0*%
G04 Aperture macros list end*
%TA.AperFunction,ComponentPad*%
%ADD10C,1.320800*%
%TD*%
%TA.AperFunction,SMDPad,CuDef*%
%ADD11R,0.806000X0.864000*%
%TD*%
%TA.AperFunction,SMDPad,CuDef*%
%ADD12R,1.133000X1.377000*%
%TD*%
%TA.AperFunction,SMDPad,CuDef*%
%ADD13R,1.485000X1.728000*%
%TD*%
%TA.AperFunction,SMDPad,CuDef*%
%ADD14R,0.900000X0.800000*%
%TD*%
%TA.AperFunction,SMDPad,CuDef*%
%ADD15R,0.980000X2.340000*%
%TD*%
%TA.AperFunction,SMDPad,CuDef*%
%ADD16R,3.600000X2.340000*%
%TD*%
%TA.AperFunction,SMDPad,CuDef*%
%ADD17R,0.810000X0.860000*%
%TD*%
%TA.AperFunction,SMDPad,CuDef*%
%ADD18R,0.800000X0.900000*%
%TD*%
%TA.AperFunction,ComponentPad*%
%ADD19C,1.100000*%
%TD*%
%TA.AperFunction,ComponentPad*%
%ADD20C,1.800000*%
%TD*%
%TA.AperFunction,SMDPad,CuDef*%
%ADD21R,0.700000X1.250000*%
%TD*%
%TA.AperFunction,SMDPad,CuDef*%
%ADD22R,2.000000X1.800000*%
%TD*%
%TA.AperFunction,SMDPad,CuDef*%
%ADD23R,0.950000X1.150000*%
%TD*%
%TA.AperFunction,SMDPad,CuDef*%
%ADD24R,1.410000X1.350000*%
%TD*%
%TA.AperFunction,SMDPad,CuDef*%
%ADD25R,0.860000X0.810000*%
%TD*%
%TA.AperFunction,SMDPad,CuDef*%
%ADD26R,1.210000X1.700000*%
%TD*%
%TA.AperFunction,SMDPad,CuDef*%
%ADD27R,0.650000X1.000000*%
%TD*%
%TA.AperFunction,ComponentPad*%
%ADD28C,1.397000*%
%TD*%
%TA.AperFunction,ComponentPad*%
%ADD29R,1.500000X1.500000*%
%TD*%
%TA.AperFunction,ComponentPad*%
%ADD30C,1.500000*%
%TD*%
%TA.AperFunction,ComponentPad*%
%ADD31R,1.700000X1.700000*%
%TD*%
%TA.AperFunction,ComponentPad*%
%ADD32C,1.700000*%
%TD*%
%TA.AperFunction,SMDPad,CuDef*%
%ADD33RoundRect,0.225000X0.225000X0.250000X-0.225000X0.250000X-0.225000X-0.250000X0.225000X-0.250000X0*%
%TD*%
%TA.AperFunction,SMDPad,CuDef*%
%ADD34R,0.864000X0.806000*%
%TD*%
%TA.AperFunction,SMDPad,CuDef*%
%ADD35R,1.730000X1.490000*%
%TD*%
%TA.AperFunction,SMDPad,CuDef*%
%ADD36RoundRect,0.225000X-0.225000X-0.250000X0.225000X-0.250000X0.225000X0.250000X-0.225000X0.250000X0*%
%TD*%
%TA.AperFunction,SMDPad,CuDef*%
%ADD37R,1.490000X1.730000*%
%TD*%
%TA.AperFunction,SMDPad,CuDef*%
%ADD38R,1.800000X2.000000*%
%TD*%
%TA.AperFunction,SMDPad,CuDef*%
%ADD39RoundRect,0.100000X0.637500X0.100000X-0.637500X0.100000X-0.637500X-0.100000X0.637500X-0.100000X0*%
%TD*%
%TA.AperFunction,ComponentPad*%
%ADD40RoundRect,0.250001X0.499999X0.499999X-0.499999X0.499999X-0.499999X-0.499999X0.499999X-0.499999X0*%
%TD*%
%TA.AperFunction,SMDPad,CuDef*%
%ADD41RoundRect,0.250001X0.624999X-0.462499X0.624999X0.462499X-0.624999X0.462499X-0.624999X-0.462499X0*%
%TD*%
%TA.AperFunction,SMDPad,CuDef*%
%ADD42R,1.700000X2.400000*%
%TD*%
%TA.AperFunction,SMDPad,CuDef*%
%ADD43R,1.800000X1.780000*%
%TD*%
%TA.AperFunction,ViaPad*%
%ADD44C,0.600000*%
%TD*%
%TA.AperFunction,Conductor*%
%ADD45C,0.500000*%
%TD*%
%TA.AperFunction,Conductor*%
%ADD46C,0.200000*%
%TD*%
%TA.AperFunction,Conductor*%
%ADD47C,0.250000*%
%TD*%
%TA.AperFunction,Conductor*%
%ADD48C,1.000000*%
%TD*%
G04 APERTURE END LIST*
D10*
%TO.P,U8,1,-VIN_1*%
%TO.N,GLV-*%
X86880000Y-31850000D03*
%TO.P,U8,2,+VIN_2*%
%TO.N,GLV+*%
X84340000Y-31850000D03*
%TO.P,U8,3,CONTROL_3*%
%TO.N,unconnected-(U8-CONTROL-Pad3)*%
X81800000Y-31850000D03*
%TO.P,U8,6,+VOUT_6*%
%TO.N,POST_12V_HV*%
X74180000Y-31850000D03*
%TO.P,U8,7,0V_7*%
%TO.N,POST_HV-*%
X71640000Y-31850000D03*
%TO.P,U8,8,N/C_8*%
%TO.N,unconnected-(U8-N{slash}C-Pad8)*%
X69100000Y-31850000D03*
%TD*%
D11*
%TO.P,R31,1,1_1*%
%TO.N,GLV-*%
X105300000Y-38980000D03*
%TO.P,R31,2,2_2*%
%TO.N,Net-(Q2-G)*%
X103800000Y-38980000D03*
%TD*%
D12*
%TO.P,R29,1,1_1*%
%TO.N,Net-(U7-PA3)*%
X107550000Y-40250000D03*
%TO.P,R29,2,2_2*%
%TO.N,CHG*%
X109550000Y-40250000D03*
%TD*%
D13*
%TO.P,C3,1,1_1*%
%TO.N,Net-(U5-IOUT)*%
X67701250Y-62452500D03*
%TO.P,C3,2,2_2*%
%TO.N,Net-(C3-Pad2)*%
X70881250Y-62452500D03*
%TD*%
D14*
%TO.P,C5,1,1_1*%
%TO.N,Net-(U2-COMPIN)*%
X49950000Y-40900000D03*
%TO.P,C5,2,2_2*%
%TO.N,POST_HV-*%
X49950000Y-42300000D03*
%TD*%
D15*
%TO.P,U3,1,IN_1*%
%TO.N,GLV+*%
X95300000Y-49540000D03*
%TO.P,U3,2,GND_2*%
%TO.N,GLV-*%
X93000000Y-49540000D03*
%TO.P,U3,3,OUT_3*%
%TO.N,3.3 V*%
X90700000Y-49540000D03*
D16*
%TO.P,U3,4,GND_4*%
%TO.N,GLV-*%
X93000000Y-55280000D03*
%TD*%
D17*
%TO.P,R20,1,1_1*%
%TO.N,PRE_12V_HV*%
X69750000Y-59500000D03*
%TO.P,R20,2,2_2*%
%TO.N,Net-(U4-CAT)*%
X71250000Y-59500000D03*
%TD*%
D14*
%TO.P,C7,1,1_1*%
%TO.N,Net-(U5-COMPIN)*%
X53603554Y-59672500D03*
%TO.P,C7,2,2_2*%
%TO.N,PRE_HV-*%
X53603554Y-61072500D03*
%TD*%
D18*
%TO.P,C9,1,1_1*%
%TO.N,3.3 V*%
X107300000Y-47500000D03*
%TO.P,C9,2,2_2*%
%TO.N,GLV-*%
X108700000Y-47500000D03*
%TD*%
D19*
%TO.P,Molex4,*%
%TO.N,*%
X45210000Y-45450000D03*
X45210000Y-39450000D03*
D20*
%TO.P,Molex4,1,Pin_1_1*%
%TO.N,POST_HV-*%
X44270000Y-42450000D03*
%TO.P,Molex4,2,Pin_2_2*%
X41270000Y-42450000D03*
%TD*%
D21*
%TO.P,Q3,1,G_1*%
%TO.N,Charge_on*%
X112050000Y-41312500D03*
%TO.P,Q3,2,S_2*%
%TO.N,SDCin*%
X113950000Y-41312500D03*
%TO.P,Q3,3,D_3*%
%TO.N,CHG*%
X113000000Y-39312500D03*
%TD*%
D17*
%TO.P,R17,1,1_1*%
%TO.N,Net-(C4-Pad2)*%
X63860000Y-39050000D03*
%TO.P,R17,2,2_2*%
%TO.N,POST_HV-*%
X62360000Y-39050000D03*
%TD*%
D22*
%TO.P,D1,1,K_1*%
%TO.N,PRE_HV-*%
X61000000Y-50000000D03*
%TO.P,D1,2,A_2*%
%TO.N,PRE_12V_HV*%
X65000000Y-50000000D03*
%TD*%
D23*
%TO.P,ZD6,1,K_1*%
%TO.N,GLV+*%
X95525000Y-43405000D03*
%TO.P,ZD6,2,A_2*%
%TO.N,Net-(Q5-G)*%
X92145000Y-43405000D03*
%TD*%
D17*
%TO.P,R11,1,1_1*%
%TO.N,Net-(R10-Pad2)*%
X50225909Y-55059302D03*
%TO.P,R11,2,2_2*%
%TO.N,PRE_HV-*%
X48725909Y-55059302D03*
%TD*%
D24*
%TO.P,C2,1,1_1*%
%TO.N,PRE_12V_HV*%
X71000000Y-56000000D03*
%TO.P,C2,2,2_2*%
%TO.N,PRE_HV-*%
X69000000Y-56000000D03*
%TD*%
D25*
%TO.P,R14,1,1_1*%
%TO.N,Net-(Q5-G)*%
X90500000Y-43250000D03*
%TO.P,R14,2,2_2*%
%TO.N,GLV-*%
X90500000Y-41750000D03*
%TD*%
D26*
%TO.P,R7,1,1_1*%
%TO.N,/HV+_preAIR*%
X49622500Y-47950000D03*
%TO.P,R7,2,2_2*%
%TO.N,Net-(R7-Pad2)*%
X52582500Y-47950000D03*
%TD*%
D11*
%TO.P,R33,1,1_1*%
%TO.N,Pre_en_gate*%
X105260000Y-40470000D03*
%TO.P,R33,2,2_2*%
%TO.N,Net-(Q2-G)*%
X103760000Y-40470000D03*
%TD*%
D25*
%TO.P,R24,1,1_1*%
%TO.N,3.3 V*%
X85450000Y-42850000D03*
%TO.P,R24,2,2_2*%
%TO.N,f_postAIR*%
X85450000Y-41350000D03*
%TD*%
D27*
%TO.P,D5,1,1_1*%
%TO.N,Charge_on*%
X96550000Y-35544804D03*
%TO.P,D5,2,2_2*%
%TO.N,Net-(J1-Pin_8)*%
X94650000Y-35544804D03*
%TO.P,D5,3,3_3*%
%TO.N,GLV-*%
X95600000Y-37544804D03*
%TD*%
D28*
%TO.P,F2,1*%
%TO.N,/HV+_preAIR*%
X44040000Y-50150000D03*
%TO.P,F2,2*%
%TO.N,Net-(Molex1-Pin_1)*%
X38960000Y-50150000D03*
%TD*%
D29*
%TO.P,U2,1,IOUT_1*%
%TO.N,Net-(U2-IOUT)*%
X52380000Y-45100000D03*
D30*
%TO.P,U2,2,IREF_2*%
%TO.N,Net-(U2-IREF)*%
X54920000Y-45100000D03*
%TO.P,U2,3,FOUT_3*%
%TO.N,Net-(U1-CAT)*%
X57460000Y-45100000D03*
%TO.P,U2,4,GND_4*%
%TO.N,POST_HV-*%
X60000000Y-45100000D03*
%TO.P,U2,5,RC_5*%
%TO.N,Net-(U2-RC)*%
X60000000Y-37480000D03*
%TO.P,U2,6,THRESH_6*%
%TO.N,Net-(U2-IOUT)*%
X57460000Y-37480000D03*
%TO.P,U2,7,COMPIN_7*%
%TO.N,Net-(U2-COMPIN)*%
X54920000Y-37480000D03*
%TO.P,U2,8,VS_8*%
%TO.N,POST_12V_HV*%
X52380000Y-37480000D03*
%TD*%
D18*
%TO.P,C10,1,1_1*%
%TO.N,GLV-*%
X108700000Y-49500000D03*
%TO.P,C10,2,2_2*%
%TO.N,3.3 V*%
X107300000Y-49500000D03*
%TD*%
D25*
%TO.P,R27,1,1_1*%
%TO.N,Net-(U7-PA5)*%
X98000000Y-40250000D03*
%TO.P,R27,2,2_2*%
%TO.N,Precharge_Fault*%
X98000000Y-38750000D03*
%TD*%
D19*
%TO.P,Molex3,*%
%TO.N,*%
X27930000Y-37030000D03*
X27930000Y-43030000D03*
D20*
%TO.P,Molex3,1,Pin_1_1*%
%TO.N,Net-(Molex3-Pin_1)*%
X28870000Y-40030000D03*
%TO.P,Molex3,2,Pin_2_2*%
X31870000Y-40030000D03*
%TD*%
D24*
%TO.P,C12,1,1_1*%
%TO.N,GLV-*%
X87500000Y-38000000D03*
%TO.P,C12,2,2_2*%
%TO.N,GLV+*%
X85500000Y-38000000D03*
%TD*%
D26*
%TO.P,R8,1,1_1*%
%TO.N,Net-(R7-Pad2)*%
X54922500Y-47950000D03*
%TO.P,R8,2,2_2*%
%TO.N,Net-(R8-Pad2)*%
X57882500Y-47950000D03*
%TD*%
%TO.P,R1,1,1_1*%
%TO.N,/HV+_postAIR*%
X49742304Y-26300000D03*
%TO.P,R1,2,2_2*%
%TO.N,Net-(R1-Pad2)*%
X52702304Y-26300000D03*
%TD*%
D25*
%TO.P,R12,1,1_1*%
%TO.N,POST_12V_HV*%
X71100000Y-38000000D03*
%TO.P,R12,2,2_2*%
%TO.N,Net-(U1-AN)*%
X71100000Y-39500000D03*
%TD*%
D12*
%TO.P,R30,1,1_1*%
%TO.N,GLV-*%
X109550000Y-36400000D03*
%TO.P,R30,2,2_2*%
%TO.N,Net-(U7-PA3)*%
X107550000Y-36400000D03*
%TD*%
D31*
%TO.P,J3,1,Pin_1_1*%
%TO.N,USART2_TX*%
X96725000Y-60500000D03*
D32*
%TO.P,J3,2,Pin_2_2*%
%TO.N,GLV-*%
X99265000Y-60500000D03*
%TD*%
D33*
%TO.P,C8,1*%
%TO.N,GLV-*%
X99213750Y-53535000D03*
%TO.P,C8,2*%
%TO.N,Net-(U7-PC15)*%
X97663750Y-53535000D03*
%TD*%
D17*
%TO.P,R6,1,1_1*%
%TO.N,Net-(R16-Pad1)*%
X50000000Y-33000000D03*
%TO.P,R6,2,2_2*%
%TO.N,POST_HV-*%
X51500000Y-33000000D03*
%TD*%
D34*
%TO.P,RT2,1,1_1*%
%TO.N,Net-(U2-RC)*%
X59998030Y-35489428D03*
%TO.P,RT2,2,2_2*%
%TO.N,POST_12V_HV*%
X59998030Y-33989428D03*
%TD*%
D26*
%TO.P,R10,1,1_1*%
%TO.N,Net-(R10-Pad1)*%
X52537500Y-51850000D03*
%TO.P,R10,2,2_2*%
%TO.N,Net-(R10-Pad2)*%
X49577500Y-51850000D03*
%TD*%
D25*
%TO.P,RL1,1,1_1*%
%TO.N,Net-(U5-IOUT)*%
X65321054Y-62445000D03*
%TO.P,RL1,2,2_2*%
%TO.N,Net-(C3-Pad2)*%
X65321054Y-60945000D03*
%TD*%
%TO.P,R21,1,1_1*%
%TO.N,Net-(R10-Pad2)*%
X50291250Y-58152500D03*
%TO.P,R21,2,2_2*%
%TO.N,Net-(U5-COMPIN)*%
X50291250Y-59652500D03*
%TD*%
D26*
%TO.P,R3,1,1_1*%
%TO.N,Net-(R2-Pad2)*%
X57800000Y-30650000D03*
%TO.P,R3,2,2_2*%
%TO.N,Net-(R3-Pad2)*%
X54840000Y-30650000D03*
%TD*%
D35*
%TO.P,C14,1,1_1*%
%TO.N,GLV-*%
X88000000Y-59590000D03*
%TO.P,C14,2,2_2*%
%TO.N,3.3 V*%
X88000000Y-56410000D03*
%TD*%
D14*
%TO.P,CT1,1,1_1*%
%TO.N,Net-(U5-RC)*%
X53500000Y-55100000D03*
%TO.P,CT1,2,2_2*%
%TO.N,PRE_HV-*%
X53500000Y-56500000D03*
%TD*%
D13*
%TO.P,C4,1,1_1*%
%TO.N,Net-(U2-IOUT)*%
X65110000Y-42650000D03*
%TO.P,C4,2,2_2*%
%TO.N,Net-(C4-Pad2)*%
X68290000Y-42650000D03*
%TD*%
D21*
%TO.P,Q5,1,G_1*%
%TO.N,Net-(Q5-G)*%
X93050000Y-41762500D03*
%TO.P,Q5,2,S_2*%
%TO.N,GLV+*%
X94950000Y-41762500D03*
%TO.P,Q5,3,D_3*%
%TO.N,Pre_GLV+*%
X94000000Y-39762500D03*
%TD*%
D25*
%TO.P,R25,1,1_1*%
%TO.N,3.3 V*%
X85700000Y-63050000D03*
%TO.P,R25,2,2_2*%
%TO.N,f_preAIR*%
X85700000Y-61550000D03*
%TD*%
D21*
%TO.P,Q2,1,G_1*%
%TO.N,Net-(Q2-G)*%
X103530000Y-37230000D03*
%TO.P,Q2,2,S_2*%
%TO.N,GLV-*%
X105430000Y-37230000D03*
%TO.P,Q2,3,D_3*%
%TO.N,Pre_en*%
X104480000Y-35230000D03*
%TD*%
D36*
%TO.P,C6,1*%
%TO.N,GLV-*%
X101043750Y-53555000D03*
%TO.P,C6,2*%
%TO.N,Net-(U7-PC14)*%
X102593750Y-53555000D03*
%TD*%
D25*
%TO.P,RS2,1,1_1*%
%TO.N,POST_HV-*%
X62350000Y-43800000D03*
%TO.P,RS2,2,2_2*%
%TO.N,Net-(U2-IREF)*%
X62350000Y-42300000D03*
%TD*%
D10*
%TO.P,U6,1,-VIN_1*%
%TO.N,GLV-*%
X86740000Y-52000000D03*
%TO.P,U6,2,+VIN_2*%
%TO.N,GLV+*%
X84200000Y-52000000D03*
%TO.P,U6,3,CONTROL_3*%
%TO.N,unconnected-(U6-CONTROL-Pad3)*%
X81660000Y-52000000D03*
%TO.P,U6,6,+VOUT_6*%
%TO.N,PRE_12V_HV*%
X74040000Y-52000000D03*
%TO.P,U6,7,0V_7*%
%TO.N,PRE_HV-*%
X71500000Y-52000000D03*
%TO.P,U6,8,N/C_8*%
%TO.N,unconnected-(U6-N{slash}C-Pad8)*%
X68960000Y-52000000D03*
%TD*%
D11*
%TO.P,R32,1,1_1*%
%TO.N,GLV-*%
X101510000Y-38960000D03*
%TO.P,R32,2,2_2*%
%TO.N,Net-(Q1-G)*%
X100010000Y-38960000D03*
%TD*%
D34*
%TO.P,R23,1,1_1*%
%TO.N,3.3 V*%
X96500000Y-40250000D03*
%TO.P,R23,2,2_2*%
%TO.N,Precharge_Fault*%
X96500000Y-38750000D03*
%TD*%
D37*
%TO.P,C15,1,1_1*%
%TO.N,GLV-*%
X91910000Y-47000000D03*
%TO.P,C15,2,2_2*%
%TO.N,GLV+*%
X95090000Y-47000000D03*
%TD*%
D25*
%TO.P,R16,1,1_1*%
%TO.N,Net-(R16-Pad1)*%
X49961575Y-37704758D03*
%TO.P,R16,2,2_2*%
%TO.N,Net-(U2-COMPIN)*%
X49961575Y-39204758D03*
%TD*%
D18*
%TO.P,C16,1,1_1*%
%TO.N,PRE_12V_HV*%
X53347500Y-63052500D03*
%TO.P,C16,2,2_2*%
%TO.N,PRE_HV-*%
X51947500Y-63052500D03*
%TD*%
D12*
%TO.P,R19,1,1_1*%
%TO.N,Net-(U7-PA2)*%
X112400000Y-45850000D03*
%TO.P,R19,2,2_2*%
%TO.N,SDCin*%
X114400000Y-45850000D03*
%TD*%
%TO.P,R18,1,1_1*%
%TO.N,GLV-*%
X114400000Y-48600000D03*
%TO.P,R18,2,2_2*%
%TO.N,Net-(U7-PA2)*%
X112400000Y-48600000D03*
%TD*%
D26*
%TO.P,R2,1,1_1*%
%TO.N,Net-(R1-Pad2)*%
X54879804Y-26300000D03*
%TO.P,R2,2,2_2*%
%TO.N,Net-(R2-Pad2)*%
X57839804Y-26300000D03*
%TD*%
%TO.P,R9,1,1_1*%
%TO.N,Net-(R8-Pad2)*%
X57880000Y-51850000D03*
%TO.P,R9,2,2_2*%
%TO.N,Net-(R10-Pad1)*%
X54920000Y-51850000D03*
%TD*%
D27*
%TO.P,D4,1,1_1*%
%TO.N,SDCin*%
X112050000Y-37137500D03*
%TO.P,D4,2,2_2*%
%TO.N,CHG*%
X113950000Y-37137500D03*
%TO.P,D4,3,3_3*%
%TO.N,GLV-*%
X113000000Y-35137500D03*
%TD*%
D38*
%TO.P,D2,1,K_1*%
%TO.N,POST_HV-*%
X63900000Y-27000000D03*
%TO.P,D2,2,A_2*%
%TO.N,POST_12V_HV*%
X63900000Y-31000000D03*
%TD*%
D19*
%TO.P,Molex1,*%
%TO.N,*%
X27903750Y-47150000D03*
X27903750Y-53150000D03*
D20*
%TO.P,Molex1,1,Pin_1_1*%
%TO.N,Net-(Molex1-Pin_1)*%
X28843750Y-50150000D03*
%TO.P,Molex1,2,Pin_2_2*%
X31843750Y-50150000D03*
%TD*%
D24*
%TO.P,C13,1,1_1*%
%TO.N,POST_12V_HV*%
X71000000Y-36000000D03*
%TO.P,C13,2,2_2*%
%TO.N,POST_HV-*%
X69000000Y-36000000D03*
%TD*%
D28*
%TO.P,F1,1*%
%TO.N,/HV+_postAIR*%
X44840000Y-33100000D03*
%TO.P,F1,2*%
%TO.N,Net-(Molex3-Pin_1)*%
X39760000Y-33100000D03*
%TD*%
D17*
%TO.P,RL2,1,1_1*%
%TO.N,Net-(U2-IOUT)*%
X62339804Y-40642500D03*
%TO.P,RL2,2,2_2*%
%TO.N,Net-(C4-Pad2)*%
X63839804Y-40642500D03*
%TD*%
D11*
%TO.P,R26,1,1_1*%
%TO.N,Net-(U7-PF2)*%
X108990000Y-45500000D03*
%TO.P,R26,2,2_2*%
%TO.N,3.3 V*%
X107490000Y-45500000D03*
%TD*%
D25*
%TO.P,RS1,1,1_1*%
%TO.N,PRE_HV-*%
X65281054Y-57602500D03*
%TO.P,RS1,2,2_2*%
%TO.N,Net-(U5-IREF)*%
X65281054Y-59102500D03*
%TD*%
D11*
%TO.P,R28,1,1_1*%
%TO.N,AIR+_en_gate*%
X101510000Y-40440000D03*
%TO.P,R28,2,2_2*%
%TO.N,Net-(Q1-G)*%
X100010000Y-40440000D03*
%TD*%
D17*
%TO.P,R5,1,1_1*%
%TO.N,SDCin*%
X113750000Y-43380000D03*
%TO.P,R5,2,2_2*%
%TO.N,Charge_on*%
X112250000Y-43380000D03*
%TD*%
D39*
%TO.P,U7,1,PB7_1*%
%TO.N,unconnected-(U7-PB7-Pad1)*%
X104862500Y-47700000D03*
%TO.P,U7,2,PC14_2*%
%TO.N,Net-(U7-PC14)*%
X104862500Y-47050000D03*
%TO.P,U7,3,PC15_3*%
%TO.N,Net-(U7-PC15)*%
X104862500Y-46400000D03*
%TO.P,U7,4,VDD_4*%
%TO.N,3.3 V*%
X104862500Y-45750000D03*
%TO.P,U7,5,VSS_5*%
%TO.N,GLV-*%
X104862500Y-45100000D03*
%TO.P,U7,6,PF2_6*%
%TO.N,Net-(U7-PF2)*%
X104862500Y-44450000D03*
%TO.P,U7,7,PA0_7*%
%TO.N,f_postAIR*%
X104862500Y-43800000D03*
%TO.P,U7,8,PA1_8*%
%TO.N,Pre_en_gate*%
X104862500Y-43150000D03*
%TO.P,U7,9,PA2_9*%
%TO.N,Net-(U7-PA2)*%
X104862500Y-42500000D03*
%TO.P,U7,10,PA3_10*%
%TO.N,Net-(U7-PA3)*%
X104862500Y-41850000D03*
%TO.P,U7,11,PA4_11*%
%TO.N,unconnected-(U7-PA4-Pad11)*%
X99137500Y-41850000D03*
%TO.P,U7,12,PA5_12*%
%TO.N,Net-(U7-PA5)*%
X99137500Y-42500000D03*
%TO.P,U7,13,PA6_13*%
%TO.N,f_postAIR*%
X99137500Y-43150000D03*
%TO.P,U7,14,PA7_14*%
%TO.N,f_preAIR*%
X99137500Y-43800000D03*
%TO.P,U7,15,PA8_15*%
%TO.N,USART2_TX*%
X99137500Y-44450000D03*
%TO.P,U7,16,PA9/PA11_16*%
%TO.N,AIR+_en_gate*%
X99137500Y-45100000D03*
%TO.P,U7,17,PA10/PA12_17*%
%TO.N,unconnected-(U7-PA10{slash}PA12-Pad17)*%
X99137500Y-45750000D03*
%TO.P,U7,18,PA13_18*%
%TO.N,SWDIO*%
X99137500Y-46400000D03*
%TO.P,U7,19,PA14_19*%
%TO.N,SWCLK*%
X99137500Y-47050000D03*
%TO.P,U7,20,PB6_20*%
%TO.N,unconnected-(U7-PB6-Pad20)*%
X99137500Y-47700000D03*
%TD*%
D17*
%TO.P,R13,1,1_1*%
%TO.N,PRE_12V_HV*%
X69750000Y-58000000D03*
%TO.P,R13,2,2_2*%
%TO.N,Net-(U4-AN)*%
X71250000Y-58000000D03*
%TD*%
D18*
%TO.P,C11,1,1_1*%
%TO.N,GLV-*%
X108870000Y-43750000D03*
%TO.P,C11,2,2_2*%
%TO.N,Net-(U7-PF2)*%
X107470000Y-43750000D03*
%TD*%
D25*
%TO.P,R22,1,1_1*%
%TO.N,Net-(C3-Pad2)*%
X67151054Y-59102500D03*
%TO.P,R22,2,2_2*%
%TO.N,PRE_HV-*%
X67151054Y-57602500D03*
%TD*%
D40*
%TO.P,J1,1,Pin_1_1*%
%TO.N,SDCin*%
X103793750Y-31200000D03*
D30*
%TO.P,J1,2,Pin_2_2*%
%TO.N,Pre_en*%
X100793750Y-31200000D03*
%TO.P,J1,3,Pin_3_3*%
%TO.N,AIR+_en*%
X97793750Y-31200000D03*
%TO.P,J1,4,Pin_4_4*%
%TO.N,Precharge_Fault*%
X94793750Y-31200000D03*
%TO.P,J1,5,Pin_5_5*%
%TO.N,CHG*%
X103793750Y-28200000D03*
%TO.P,J1,6,Pin_6_6*%
%TO.N,Charge_on*%
X100793750Y-28200000D03*
%TO.P,J1,7,Pin_7_7*%
%TO.N,GLV-*%
X97793750Y-28200000D03*
%TO.P,J1,8,Pin_8_8*%
%TO.N,Net-(J1-Pin_8)*%
X94793750Y-28200000D03*
%TD*%
D41*
%TO.P,F7,1*%
%TO.N,Pre_GLV+*%
X92500000Y-38487500D03*
%TO.P,F7,2*%
%TO.N,Net-(J1-Pin_8)*%
X92500000Y-35512500D03*
%TD*%
D14*
%TO.P,CT2,1,1_1*%
%TO.N,Net-(U2-RC)*%
X58084476Y-35400000D03*
%TO.P,CT2,2,2_2*%
%TO.N,POST_HV-*%
X58084476Y-34000000D03*
%TD*%
D18*
%TO.P,C17,1,1_1*%
%TO.N,POST_12V_HV*%
X52400000Y-34700000D03*
%TO.P,C17,2,2_2*%
%TO.N,POST_HV-*%
X53800000Y-34700000D03*
%TD*%
D42*
%TO.P,X1,1*%
%TO.N,Net-(U7-PC15)*%
X98298750Y-50605000D03*
%TO.P,X1,2*%
%TO.N,Net-(U7-PC14)*%
X101998750Y-50605000D03*
%TD*%
D43*
%TO.P,U4,1,AN_1*%
%TO.N,Net-(U4-AN)*%
X73300000Y-56970000D03*
%TO.P,U4,2,CAT_2*%
%TO.N,Net-(U4-CAT)*%
X73300000Y-59510000D03*
%TO.P,U4,3,NC_3*%
%TO.N,unconnected-(U4-NC-Pad3)*%
X73300000Y-62050000D03*
%TO.P,U4,4,VO_4*%
%TO.N,f_preAIR*%
X82600000Y-62050000D03*
%TO.P,U4,5,GND_5*%
%TO.N,GLV-*%
X82600000Y-59510000D03*
%TO.P,U4,6,VCC_6*%
%TO.N,3.3 V*%
X82600000Y-56970000D03*
%TD*%
%TO.P,U1,1,AN_1*%
%TO.N,Net-(U1-AN)*%
X73397500Y-37420000D03*
%TO.P,U1,2,CAT_2*%
%TO.N,Net-(U1-CAT)*%
X73397500Y-39960000D03*
%TO.P,U1,3,NC_3*%
%TO.N,unconnected-(U1-NC-Pad3)*%
X73397500Y-42500000D03*
%TO.P,U1,4,VO_4*%
%TO.N,f_postAIR*%
X82697500Y-42500000D03*
%TO.P,U1,5,GND_5*%
%TO.N,GLV-*%
X82697500Y-39960000D03*
%TO.P,U1,6,VCC_6*%
%TO.N,3.3 V*%
X82697500Y-37420000D03*
%TD*%
D19*
%TO.P,Molex2,*%
%TO.N,*%
X45250000Y-61790000D03*
X45250000Y-55790000D03*
D20*
%TO.P,Molex2,1,Pin_1_1*%
%TO.N,PRE_HV-*%
X44310000Y-58790000D03*
%TO.P,Molex2,2,Pin_2_2*%
X41310000Y-58790000D03*
%TD*%
D25*
%TO.P,RT1,1,1_1*%
%TO.N,Net-(U5-RC)*%
X51825000Y-56550000D03*
%TO.P,RT1,2,2_2*%
%TO.N,PRE_12V_HV*%
X51825000Y-55050000D03*
%TD*%
D26*
%TO.P,R4,1,1_1*%
%TO.N,Net-(R3-Pad2)*%
X52750000Y-30650000D03*
%TO.P,R4,2,2_2*%
%TO.N,Net-(R16-Pad1)*%
X49790000Y-30650000D03*
%TD*%
D31*
%TO.P,J2,1,Pin_1_1*%
%TO.N,3.3 V*%
X106473750Y-52500000D03*
D32*
%TO.P,J2,2,Pin_2_2*%
%TO.N,SWCLK*%
X109013750Y-52500000D03*
%TO.P,J2,3,Pin_3_3*%
%TO.N,SWDIO*%
X111553750Y-52500000D03*
%TO.P,J2,4,Pin_4_4*%
%TO.N,GLV-*%
X114093750Y-52500000D03*
%TD*%
D29*
%TO.P,U5,1,IOUT_1*%
%TO.N,Net-(U5-IOUT)*%
X63218554Y-62475000D03*
D30*
%TO.P,U5,2,IREF_2*%
%TO.N,Net-(U5-IREF)*%
X63218554Y-59935000D03*
%TO.P,U5,3,FOUT_3*%
%TO.N,Net-(U4-CAT)*%
X63218554Y-57395000D03*
%TO.P,U5,4,GND_4*%
%TO.N,PRE_HV-*%
X63218554Y-54855000D03*
%TO.P,U5,5,RC_5*%
%TO.N,Net-(U5-RC)*%
X55598554Y-54855000D03*
%TO.P,U5,6,THRESH_6*%
%TO.N,Net-(U5-IOUT)*%
X55598554Y-57395000D03*
%TO.P,U5,7,COMPIN_7*%
%TO.N,Net-(U5-COMPIN)*%
X55598554Y-59935000D03*
%TO.P,U5,8,VS_8*%
%TO.N,PRE_12V_HV*%
X55598554Y-62475000D03*
%TD*%
D21*
%TO.P,Q1,1,G_1*%
%TO.N,Net-(Q1-G)*%
X99750000Y-37200000D03*
%TO.P,Q1,2,S_2*%
%TO.N,GLV-*%
X101650000Y-37200000D03*
%TO.P,Q1,3,D_3*%
%TO.N,AIR+_en*%
X100700000Y-35200000D03*
%TD*%
D24*
%TO.P,C1,1,1_1*%
%TO.N,GLV-*%
X87500000Y-35950000D03*
%TO.P,C1,2,2_2*%
%TO.N,GLV+*%
X85500000Y-35950000D03*
%TD*%
D25*
%TO.P,R15,1,1_1*%
%TO.N,POST_12V_HV*%
X71100000Y-41472500D03*
%TO.P,R15,2,2_2*%
%TO.N,Net-(U1-CAT)*%
X71100000Y-42972500D03*
%TD*%
D44*
%TO.N,GLV-*%
X81547500Y-26052500D03*
X99500000Y-56500000D03*
X93770000Y-54460000D03*
X92280000Y-55240000D03*
X111000000Y-50500000D03*
X102000000Y-62500000D03*
X91550000Y-54450000D03*
X97900000Y-62700000D03*
X110800000Y-37850000D03*
X102480000Y-37500000D03*
X96000000Y-29500000D03*
X102400000Y-38110000D03*
X95000000Y-38500000D03*
X94500000Y-55250000D03*
X114500000Y-35000000D03*
X91500000Y-25500000D03*
X91540000Y-55240000D03*
X104500000Y-50000000D03*
X99238750Y-54765000D03*
X110000000Y-43790000D03*
X93020000Y-56100000D03*
X90500000Y-46500000D03*
X92290000Y-54450000D03*
X115600000Y-48600000D03*
X85650000Y-59050000D03*
X106320000Y-37440000D03*
X112000000Y-34000000D03*
X93020000Y-55250000D03*
X94500000Y-56100000D03*
X109000000Y-25500000D03*
X93760000Y-56100000D03*
X94510000Y-54460000D03*
X84200000Y-40400000D03*
X92280000Y-56090000D03*
X97800000Y-33500000D03*
X103500000Y-26000000D03*
X99300000Y-58400000D03*
X96500000Y-27000000D03*
X91540000Y-56090000D03*
X103500000Y-45000000D03*
X106130000Y-38020000D03*
X101028750Y-54785000D03*
X89500000Y-29000000D03*
X93030000Y-54460000D03*
X99000000Y-27000000D03*
X83200000Y-33100000D03*
X98200000Y-35900000D03*
X107000000Y-29000000D03*
X110550000Y-47100000D03*
X93760000Y-55250000D03*
X109000000Y-56500000D03*
%TO.N,GLV+*%
X86920000Y-40200000D03*
X95090000Y-45500000D03*
X93500000Y-45500000D03*
X94000000Y-46000000D03*
%TO.N,POST_HV-*%
X56700000Y-34000000D03*
X67500000Y-36000000D03*
X62500000Y-38000000D03*
X53800000Y-33400000D03*
X51500000Y-32000000D03*
X63900000Y-25000000D03*
X62500000Y-45000000D03*
X50000000Y-43600000D03*
%TO.N,CHG*%
X110800000Y-41200000D03*
X113000000Y-40550000D03*
%TO.N,3.3 V*%
X103000000Y-43175000D03*
X102500000Y-45500000D03*
X91389339Y-52500000D03*
%TO.N,Net-(U4-CAT)*%
X71000000Y-60700000D03*
%TO.N,PRE_HV-*%
X53502048Y-57685213D03*
X68200000Y-57602500D03*
X52500000Y-61000000D03*
X49000000Y-56500000D03*
X67500000Y-56000000D03*
X61000000Y-48000000D03*
X52000000Y-62000000D03*
%TO.N,Charge_on*%
X112050000Y-40050000D03*
X96244967Y-34550000D03*
%TO.N,SDCin*%
X113950000Y-39000000D03*
X111060000Y-36210000D03*
X112100000Y-38600000D03*
%TO.N,f_postAIR*%
X97500000Y-43150000D03*
X87700000Y-41350000D03*
%TO.N,Net-(U7-PA2)*%
X106177244Y-42500000D03*
X110900000Y-45800000D03*
%TO.N,AIR+_en_gate*%
X101500000Y-44000000D03*
X101500000Y-41800000D03*
%TO.N,SWDIO*%
X101500000Y-46400000D03*
%TO.N,SWCLK*%
X100500000Y-47050000D03*
%TD*%
%TO.N,GLV-*%
D45*
X83760000Y-39960000D02*
X82697500Y-39960000D01*
D46*
X105460000Y-37440000D02*
X105430000Y-37470000D01*
D47*
X109600000Y-36400000D02*
X109600000Y-36650000D01*
D46*
X109960000Y-43750000D02*
X110000000Y-43790000D01*
X95000000Y-38500000D02*
X95600000Y-37900000D01*
X103500000Y-45000000D02*
X103600000Y-45100000D01*
D45*
X87700000Y-32650000D02*
X86900000Y-31850000D01*
D48*
X91000000Y-47000000D02*
X90500000Y-46500000D01*
D46*
X103600000Y-45100000D02*
X104862500Y-45100000D01*
D45*
X87700000Y-37189828D02*
X87700000Y-32650000D01*
D46*
X113000000Y-35137500D02*
X114362500Y-35137500D01*
X101510000Y-37580000D02*
X101650000Y-37440000D01*
D45*
X106320000Y-37440000D02*
X105460000Y-37440000D01*
D48*
X91910000Y-47015000D02*
X91910000Y-47000000D01*
D46*
X101023750Y-53535000D02*
X101043750Y-53555000D01*
D45*
X87500000Y-37389828D02*
X87700000Y-37189828D01*
D48*
X93000000Y-48105000D02*
X91910000Y-47015000D01*
D46*
X106130000Y-38020000D02*
X106040000Y-38020000D01*
D48*
X92985000Y-49270000D02*
X92985000Y-55210000D01*
D45*
X102400000Y-38120000D02*
X101820000Y-37540000D01*
D47*
X86950000Y-38100000D02*
X87603000Y-38100000D01*
D46*
X99238750Y-53560000D02*
X99213750Y-53535000D01*
X95600000Y-37900000D02*
X95600000Y-37544804D01*
X101043750Y-53555000D02*
X101043750Y-54770000D01*
D45*
X85650000Y-59050000D02*
X82613750Y-59050000D01*
D46*
X101510000Y-38960000D02*
X101510000Y-37580000D01*
X101710000Y-37500000D02*
X101650000Y-37440000D01*
D45*
X102480000Y-37500000D02*
X101710000Y-37500000D01*
D46*
X108870000Y-43750000D02*
X109960000Y-43750000D01*
X99238750Y-54765000D02*
X99238750Y-53560000D01*
X114362500Y-35137500D02*
X114500000Y-35000000D01*
D45*
X106040000Y-38020000D02*
X105460000Y-37440000D01*
D48*
X91910000Y-47000000D02*
X91000000Y-47000000D01*
D46*
X101043750Y-54770000D02*
X101028750Y-54785000D01*
D45*
X84200000Y-40400000D02*
X83760000Y-39960000D01*
D47*
X109600000Y-36650000D02*
X110800000Y-37850000D01*
X114400000Y-48600000D02*
X115600000Y-48600000D01*
D48*
X93000000Y-49540000D02*
X93000000Y-48105000D01*
D47*
X108700000Y-47500000D02*
X108700000Y-49500000D01*
%TO.N,GLV+*%
D45*
X85700000Y-33190000D02*
X84360000Y-31850000D01*
D48*
X86920000Y-40200000D02*
X85500000Y-38780000D01*
X95500000Y-43550000D02*
X95500000Y-42312500D01*
X95090000Y-45500000D02*
X95090000Y-43840000D01*
X95090000Y-43840000D02*
X95525000Y-43405000D01*
X95090000Y-47000000D02*
X95000000Y-47000000D01*
X95090000Y-46500000D02*
X95090000Y-45500000D01*
X95090000Y-47000000D02*
X95090000Y-46500000D01*
X94745000Y-47000000D02*
X95090000Y-47000000D01*
X94500000Y-46500000D02*
X94000000Y-46000000D01*
D45*
X85700000Y-37800000D02*
X85700000Y-33190000D01*
D48*
X95500000Y-42312500D02*
X94950000Y-41762500D01*
D45*
X85500000Y-38000000D02*
X85700000Y-37800000D01*
D48*
X95090000Y-47000000D02*
X95090000Y-49330000D01*
X95000000Y-47000000D02*
X94500000Y-46500000D01*
X95090000Y-49330000D02*
X95300000Y-49540000D01*
X94000000Y-46000000D02*
X93500000Y-45500000D01*
X85500000Y-38780000D02*
X85500000Y-38000000D01*
%TO.N,POST_12V_HV*%
D47*
X53541116Y-32775000D02*
X63975000Y-32775000D01*
X70345000Y-38755000D02*
X71100000Y-38000000D01*
X71000000Y-36000000D02*
X71000000Y-37900000D01*
X64700000Y-33500000D02*
X64210572Y-33989428D01*
X63900000Y-32700000D02*
X63975000Y-32775000D01*
X71000000Y-35030000D02*
X71000000Y-36000000D01*
X64210572Y-33989428D02*
X59998030Y-33989428D01*
X52400000Y-33916116D02*
X53541116Y-32775000D01*
X52380000Y-37480000D02*
X52380000Y-34720000D01*
X65000000Y-33500000D02*
X72530000Y-33500000D01*
X71000000Y-37900000D02*
X71100000Y-38000000D01*
X71100000Y-41472500D02*
X70345000Y-40717500D01*
X65000000Y-33500000D02*
X64700000Y-33500000D01*
X70345000Y-40717500D02*
X70345000Y-38755000D01*
X74180000Y-31850000D02*
X71000000Y-35030000D01*
X63975000Y-32775000D02*
X64700000Y-33500000D01*
X52380000Y-34720000D02*
X52400000Y-34700000D01*
X52400000Y-34700000D02*
X52400000Y-33916116D01*
X63900000Y-31000000D02*
X63900000Y-32700000D01*
X72530000Y-33500000D02*
X74180000Y-31850000D01*
%TO.N,POST_HV-*%
X62350000Y-44850000D02*
X62500000Y-45000000D01*
X62360000Y-38140000D02*
X62500000Y-38000000D01*
X53800000Y-33400000D02*
X53800000Y-33900000D01*
X53810000Y-33910000D02*
X53810000Y-34690000D01*
X69000000Y-36000000D02*
X67500000Y-36000000D01*
X62350000Y-43800000D02*
X62350000Y-44850000D01*
X63900000Y-25000000D02*
X63900000Y-27000000D01*
X49950000Y-42300000D02*
X49950000Y-43550000D01*
X53810000Y-34690000D02*
X53800000Y-34700000D01*
X53800000Y-33900000D02*
X53810000Y-33910000D01*
X58084476Y-34000000D02*
X56700000Y-34000000D01*
X49950000Y-43550000D02*
X50000000Y-43600000D01*
X41270000Y-42450000D02*
X44270000Y-42450000D01*
X62360000Y-39050000D02*
X62360000Y-38140000D01*
X51500000Y-33000000D02*
X51500000Y-32000000D01*
%TO.N,Net-(Q2-G)*%
X103530000Y-37470000D02*
X103530000Y-38710000D01*
X103800000Y-38980000D02*
X103800000Y-40430000D01*
X103800000Y-40430000D02*
X103760000Y-40470000D01*
X103530000Y-38710000D02*
X103800000Y-38980000D01*
%TO.N,Net-(U7-PA3)*%
X107600000Y-39750000D02*
X107600000Y-36400000D01*
X107550000Y-39800000D02*
X107600000Y-39750000D01*
X107550000Y-40250000D02*
X107550000Y-39800000D01*
X105950000Y-41850000D02*
X107550000Y-40250000D01*
X104862500Y-41850000D02*
X105950000Y-41850000D01*
%TO.N,CHG*%
X110800000Y-41200000D02*
X110500000Y-41200000D01*
X113000000Y-40550000D02*
X113000000Y-39162500D01*
X113000000Y-38025000D02*
X113950000Y-37075000D01*
X104585500Y-28200000D02*
X113523000Y-37137500D01*
X113000000Y-39162500D02*
X113000000Y-38025000D01*
X113523000Y-37137500D02*
X113950000Y-37137500D01*
X103793750Y-28200000D02*
X104585500Y-28200000D01*
X110500000Y-41200000D02*
X109550000Y-40250000D01*
%TO.N,Net-(U5-IOUT)*%
X65321054Y-62445000D02*
X67693750Y-62445000D01*
X65321054Y-62445000D02*
X63248554Y-62445000D01*
X63248554Y-62445000D02*
X63218554Y-62475000D01*
X67693750Y-62445000D02*
X67701250Y-62452500D01*
%TO.N,Net-(C3-Pad2)*%
X70881250Y-61568750D02*
X70881250Y-62452500D01*
X67151054Y-59651054D02*
X68480000Y-60980000D01*
X65321054Y-60945000D02*
X67151054Y-59115000D01*
X67151054Y-59102500D02*
X67151054Y-59651054D01*
X70292500Y-60980000D02*
X70881250Y-61568750D01*
X68480000Y-60980000D02*
X70292500Y-60980000D01*
%TO.N,Net-(U2-COMPIN)*%
X53195242Y-39204758D02*
X54920000Y-37480000D01*
X49950000Y-39216333D02*
X49961575Y-39204758D01*
X49961575Y-39204758D02*
X53195242Y-39204758D01*
X49950000Y-40900000D02*
X49950000Y-39216333D01*
%TO.N,3.3 V*%
X97230000Y-39520000D02*
X98755000Y-39520000D01*
X102750000Y-45750000D02*
X104862500Y-45750000D01*
X99325000Y-41325000D02*
X99985103Y-41325000D01*
X102525000Y-42700000D02*
X103000000Y-43175000D01*
X98755000Y-40755000D02*
X99325000Y-41325000D01*
X98755000Y-39520000D02*
X98755000Y-40755000D01*
X105599999Y-45750000D02*
X107300000Y-47450001D01*
X107490000Y-47310000D02*
X107300000Y-47500000D01*
X107490000Y-45500000D02*
X107490000Y-47310000D01*
D45*
X90700000Y-49540000D02*
X91389339Y-50229339D01*
X91389339Y-50229339D02*
X91389339Y-52500000D01*
D47*
X99985103Y-41325000D02*
X100500000Y-41839897D01*
X96500000Y-40250000D02*
X97230000Y-39520000D01*
X102500000Y-45500000D02*
X102750000Y-45750000D01*
X107300000Y-48500000D02*
X107300000Y-49500000D01*
X104862500Y-45750000D02*
X105599999Y-45750000D01*
X107300000Y-47450001D02*
X107300000Y-47500000D01*
X101200000Y-42700000D02*
X102525000Y-42700000D01*
X100500000Y-42000000D02*
X101200000Y-42700000D01*
X100500000Y-41839897D02*
X100500000Y-42000000D01*
X107300000Y-51673750D02*
X106473750Y-52500000D01*
X107300000Y-47500000D02*
X107300000Y-48500000D01*
X107300000Y-49500000D02*
X107300000Y-51673750D01*
%TO.N,PRE_12V_HV*%
X59400000Y-54700000D02*
X60700000Y-53400000D01*
X71000000Y-56000000D02*
X71000000Y-55040000D01*
X59400000Y-58673554D02*
X59400000Y-54700000D01*
X53247500Y-63052500D02*
X55021054Y-63052500D01*
X53475000Y-53400000D02*
X60700000Y-53400000D01*
X69750000Y-57250000D02*
X71000000Y-56000000D01*
X71000000Y-55040000D02*
X74040000Y-52000000D01*
X55598554Y-62475000D02*
X59400000Y-58673554D01*
X69750000Y-59500000D02*
X69750000Y-58000000D01*
X51825000Y-55050000D02*
X53475000Y-53400000D01*
X60700000Y-53400000D02*
X72640000Y-53400000D01*
X65000000Y-50000000D02*
X72040000Y-50000000D01*
X72640000Y-53400000D02*
X74040000Y-52000000D01*
X55021054Y-63052500D02*
X55598554Y-62475000D01*
X69750000Y-58000000D02*
X69750000Y-57250000D01*
X72040000Y-50000000D02*
X74040000Y-52000000D01*
%TO.N,Net-(U4-CAT)*%
X71250000Y-60450000D02*
X71250000Y-59500000D01*
X63218554Y-57395000D02*
X63588554Y-57395000D01*
X71000000Y-60700000D02*
X71250000Y-60450000D01*
X71250000Y-59500000D02*
X73290000Y-59500000D01*
X73290000Y-59500000D02*
X73300000Y-59510000D01*
%TO.N,Net-(U5-COMPIN)*%
X50291250Y-59652500D02*
X53583554Y-59652500D01*
X53583554Y-59652500D02*
X53603554Y-59672500D01*
X55101054Y-59597500D02*
X55438554Y-59935000D01*
X55261054Y-59597500D02*
X55598554Y-59935000D01*
X53603554Y-59597500D02*
X55261054Y-59597500D01*
%TO.N,PRE_HV-*%
X41310000Y-58790000D02*
X44310000Y-58790000D01*
X69000000Y-56000000D02*
X67500000Y-56000000D01*
X51947500Y-62052500D02*
X51947500Y-63052500D01*
X52000000Y-62000000D02*
X51947500Y-62052500D01*
X65281054Y-57602500D02*
X67151054Y-57602500D01*
X48725909Y-55059302D02*
X48725909Y-56225909D01*
X53500000Y-57683165D02*
X53502048Y-57685213D01*
X48725909Y-56225909D02*
X49000000Y-56500000D01*
X53603554Y-61072500D02*
X52572500Y-61072500D01*
X61000000Y-50000000D02*
X61000000Y-48000000D01*
X67151054Y-57602500D02*
X68200000Y-57602500D01*
X53500000Y-56500000D02*
X53500000Y-57683165D01*
X52572500Y-61072500D02*
X52500000Y-61000000D01*
%TO.N,Charge_on*%
X112050000Y-41312500D02*
X112050000Y-40050000D01*
X112050000Y-43280000D02*
X112050000Y-41462500D01*
X96244967Y-35239771D02*
X96550000Y-35544804D01*
X96244967Y-34550000D02*
X96244967Y-35239771D01*
%TO.N,SDCin*%
D45*
X113750000Y-42450000D02*
X113950000Y-42250000D01*
X114400000Y-45340000D02*
X113825000Y-44765000D01*
X113950000Y-42250000D02*
X113950000Y-41312500D01*
X112100000Y-37125000D02*
X112050000Y-37075000D01*
X112050000Y-37137500D02*
X112050000Y-37050000D01*
X111122500Y-36210000D02*
X112050000Y-37137500D01*
X113950000Y-41250000D02*
X113950000Y-39000000D01*
X113750000Y-43380000D02*
X113750000Y-42450000D01*
X112100000Y-38600000D02*
X112100000Y-37125000D01*
X111060000Y-36210000D02*
X111122500Y-36210000D01*
X113825000Y-44765000D02*
X113825000Y-43380000D01*
%TO.N,Net-(C4-Pad2)*%
D47*
X63839804Y-40642500D02*
X63839804Y-39017500D01*
X66282500Y-40642500D02*
X68290000Y-42650000D01*
X63839804Y-40642500D02*
X66282500Y-40642500D01*
%TO.N,Net-(Q5-G)*%
D45*
X92145000Y-43405000D02*
X92145000Y-43217500D01*
X92145000Y-43405000D02*
X90655000Y-43405000D01*
X90655000Y-43405000D02*
X90500000Y-43250000D01*
X93050000Y-42312500D02*
X93050000Y-41762500D01*
X92145000Y-43217500D02*
X93050000Y-42312500D01*
%TO.N,Net-(R10-Pad2)*%
D47*
X49577500Y-51850000D02*
X49577500Y-53277500D01*
X50225909Y-53925909D02*
X50225909Y-55059302D01*
X50291250Y-58152500D02*
X50291250Y-55124643D01*
X49577500Y-53277500D02*
X50225909Y-53925909D01*
%TO.N,/HV+_preAIR*%
D48*
X49622500Y-47950000D02*
X46240000Y-47950000D01*
X46240000Y-47950000D02*
X44040000Y-50150000D01*
%TO.N,Net-(R7-Pad2)*%
X52657500Y-47950000D02*
X54922500Y-47950000D01*
%TO.N,Pre_en_gate*%
D47*
X103799000Y-42823999D02*
X104125001Y-43150000D01*
X104502000Y-41228000D02*
X104141774Y-41228000D01*
X105260000Y-40470000D02*
X104502000Y-41228000D01*
X103799000Y-41570774D02*
X103799000Y-42823999D01*
X104125001Y-43150000D02*
X104862500Y-43150000D01*
X104141774Y-41228000D02*
X103799000Y-41570774D01*
%TO.N,f_postAIR*%
X101993750Y-43150000D02*
X102643750Y-43800000D01*
X87700000Y-41350000D02*
X85450000Y-41350000D01*
X83650000Y-42500000D02*
X82697500Y-42500000D01*
X84800000Y-41350000D02*
X83650000Y-42500000D01*
X102643750Y-43800000D02*
X104862500Y-43800000D01*
X85450000Y-41350000D02*
X84800000Y-41350000D01*
X97500000Y-43150000D02*
X101993750Y-43150000D01*
%TO.N,Net-(J1-Pin_8)*%
D48*
X92500000Y-30493750D02*
X92500000Y-35512500D01*
D47*
X92532304Y-35544804D02*
X92500000Y-35512500D01*
D48*
X94793750Y-28200000D02*
X92500000Y-30493750D01*
D47*
X94650000Y-35544804D02*
X92532304Y-35544804D01*
%TO.N,Net-(Molex1-Pin_1)*%
D48*
X31843750Y-50150000D02*
X38960000Y-50150000D01*
X31843750Y-50150000D02*
X28843750Y-50150000D01*
%TO.N,Net-(U2-IOUT)*%
D47*
X62339804Y-40642500D02*
X64347304Y-42650000D01*
X60622500Y-40642500D02*
X62339804Y-40642500D01*
X57460000Y-37480000D02*
X57460000Y-37862696D01*
X57460000Y-37490000D02*
X52380000Y-42570000D01*
X64347304Y-42650000D02*
X65110000Y-42650000D01*
X57460000Y-37480000D02*
X57460000Y-37490000D01*
X52380000Y-42570000D02*
X52380000Y-45100000D01*
X57460000Y-37480000D02*
X60622500Y-40642500D01*
%TO.N,Net-(U2-IREF)*%
X54920000Y-45100000D02*
X57720000Y-42300000D01*
X57720000Y-42300000D02*
X62350000Y-42300000D01*
%TO.N,Net-(U1-CAT)*%
X71855000Y-42217500D02*
X71100000Y-42972500D01*
X58535000Y-46175000D02*
X67897500Y-46175000D01*
X73397500Y-39960000D02*
X71855000Y-41502500D01*
X71855000Y-41502500D02*
X71855000Y-42217500D01*
X57460000Y-45100000D02*
X58535000Y-46175000D01*
X67897500Y-46175000D02*
X71100000Y-42972500D01*
%TO.N,Net-(U2-RC)*%
X60000000Y-37480000D02*
X60000000Y-35491398D01*
X58112548Y-35450000D02*
X58084476Y-35421928D01*
X60060000Y-35450000D02*
X58112548Y-35450000D01*
X60000000Y-35491398D02*
X59998030Y-35489428D01*
%TO.N,Net-(U7-PA5)*%
X97760000Y-40490000D02*
X97760000Y-41859999D01*
X97760000Y-41859999D02*
X98400001Y-42500000D01*
X98000000Y-40250000D02*
X97760000Y-40490000D01*
X98400001Y-42500000D02*
X99137500Y-42500000D01*
%TO.N,Precharge_Fault*%
X96500000Y-38750000D02*
X96500000Y-37120000D01*
X95550000Y-36170000D02*
X95550000Y-34850000D01*
X96500000Y-37120000D02*
X95550000Y-36170000D01*
X94793750Y-34093750D02*
X94793750Y-31200000D01*
X96500000Y-38750000D02*
X98000000Y-38750000D01*
X95550000Y-34850000D02*
X94793750Y-34093750D01*
%TO.N,Net-(Molex3-Pin_1)*%
D48*
X31870000Y-40030000D02*
X32830000Y-40030000D01*
X32830000Y-40030000D02*
X39760000Y-33100000D01*
X31870000Y-40030000D02*
X28870000Y-40030000D01*
%TO.N,Net-(R8-Pad2)*%
X57880000Y-51850000D02*
X57880000Y-47952500D01*
X57880000Y-47952500D02*
X57882500Y-47950000D01*
%TO.N,/HV+_postAIR*%
X44840000Y-33100000D02*
X44840000Y-29310000D01*
X47850000Y-26300000D02*
X44840000Y-29310000D01*
X49742304Y-26300000D02*
X47850000Y-26300000D01*
%TO.N,Net-(R1-Pad2)*%
X54879804Y-26300000D02*
X52702304Y-26300000D01*
%TO.N,Net-(U1-AN)*%
D47*
X73397500Y-37420000D02*
X73180000Y-37420000D01*
X73180000Y-37420000D02*
X71100000Y-39500000D01*
%TO.N,USART2_TX*%
X97000000Y-45850001D02*
X97000000Y-52939698D01*
X96888750Y-53050948D02*
X96888750Y-60336250D01*
X97000000Y-52939698D02*
X96888750Y-53050948D01*
X96888750Y-60336250D02*
X96725000Y-60500000D01*
X99137500Y-44450000D02*
X98400001Y-44450000D01*
X98400001Y-44450000D02*
X97000000Y-45850001D01*
%TO.N,Net-(U7-PC15)*%
X98298750Y-52900000D02*
X97663750Y-53535000D01*
X98298750Y-50605000D02*
X102503750Y-46400000D01*
X102503750Y-46400000D02*
X104862500Y-46400000D01*
X98298750Y-50605000D02*
X98298750Y-52900000D01*
%TO.N,Net-(R16-Pad1)*%
X49797500Y-33852500D02*
X49790000Y-33845000D01*
X49790000Y-33845000D02*
X49790000Y-30650000D01*
X49797500Y-33902500D02*
X49797500Y-33852500D01*
X49797500Y-34047500D02*
X49961575Y-34211575D01*
X49790000Y-33895000D02*
X49797500Y-33902500D01*
X49797500Y-33902500D02*
X49797500Y-34047500D01*
X49961575Y-34211575D02*
X49961575Y-37704758D01*
%TO.N,Net-(R10-Pad1)*%
D48*
X52537500Y-51850000D02*
X54840000Y-51850000D01*
%TO.N,Net-(R2-Pad2)*%
X57800000Y-26339804D02*
X57839804Y-26300000D01*
X57800000Y-30650000D02*
X57800000Y-26339804D01*
%TO.N,Net-(R3-Pad2)*%
X52750000Y-30650000D02*
X54840000Y-30650000D01*
%TO.N,Net-(U5-RC)*%
D47*
X55353554Y-55100000D02*
X55598554Y-54855000D01*
X53450000Y-54975000D02*
X53500000Y-55025000D01*
X53500000Y-55100000D02*
X55353554Y-55100000D01*
X51825000Y-56550000D02*
X52050000Y-56550000D01*
X52050000Y-56550000D02*
X53500000Y-55100000D01*
%TO.N,Pre_GLV+*%
D48*
X94000000Y-39212500D02*
X94000000Y-39762500D01*
X93275000Y-38487500D02*
X94000000Y-39212500D01*
X92500000Y-38487500D02*
X93275000Y-38487500D01*
%TO.N,f_preAIR*%
D47*
X96438750Y-45561250D02*
X96438750Y-56555000D01*
X85570000Y-61580000D02*
X82600000Y-61580000D01*
X91443750Y-61550000D02*
X85600000Y-61550000D01*
X85600000Y-61550000D02*
X85570000Y-61580000D01*
X96438750Y-56555000D02*
X91443750Y-61550000D01*
X99137500Y-43800000D02*
X98200000Y-43800000D01*
X98200000Y-43800000D02*
X96438750Y-45561250D01*
%TO.N,Pre_en*%
D45*
X100793750Y-31200000D02*
X100793750Y-32193750D01*
X103830000Y-35230000D02*
X104480000Y-35230000D01*
X100793750Y-32193750D02*
X103830000Y-35230000D01*
%TO.N,Net-(U7-PC14)*%
D47*
X102593750Y-53555000D02*
X102593750Y-51200000D01*
X101998750Y-50605000D02*
X101998750Y-48007501D01*
X102956251Y-47050000D02*
X104862500Y-47050000D01*
X101998750Y-48007501D02*
X102956251Y-47050000D01*
X102593750Y-51200000D02*
X101998750Y-50605000D01*
%TO.N,Net-(Q1-G)*%
X99750000Y-37440000D02*
X99750000Y-38700000D01*
X99750000Y-38700000D02*
X100010000Y-38960000D01*
X100010000Y-40440000D02*
X100010000Y-38960000D01*
%TO.N,Net-(U7-PA2)*%
X110900000Y-45800000D02*
X112350000Y-45800000D01*
X112400000Y-45850000D02*
X112400000Y-48600000D01*
X104862500Y-42500000D02*
X106177244Y-42500000D01*
X112350000Y-45800000D02*
X112400000Y-45850000D01*
%TO.N,Net-(U7-PF2)*%
X106770000Y-44450000D02*
X104862500Y-44450000D01*
X107470000Y-43750000D02*
X106770000Y-44450000D01*
X107470000Y-43750000D02*
X107470000Y-43980000D01*
X107470000Y-43980000D02*
X108990000Y-45500000D01*
%TO.N,Net-(U5-IREF)*%
X64051054Y-59102500D02*
X63218554Y-59935000D01*
X65281054Y-59102500D02*
X64051054Y-59102500D01*
%TO.N,AIR+_en_gate*%
X101510000Y-40440000D02*
X101510000Y-41790000D01*
X100400000Y-45100000D02*
X99137500Y-45100000D01*
X101510000Y-41790000D02*
X101500000Y-41800000D01*
X101500000Y-44000000D02*
X100400000Y-45100000D01*
%TO.N,SWDIO*%
X99137500Y-46400000D02*
X101500000Y-46400000D01*
%TO.N,SWCLK*%
X100500000Y-47050000D02*
X99137500Y-47050000D01*
%TO.N,Net-(U4-AN)*%
X71250000Y-58000000D02*
X72000000Y-57250000D01*
X73020000Y-57250000D02*
X73300000Y-56970000D01*
X72000000Y-57250000D02*
X73020000Y-57250000D01*
%TO.N,AIR+_en*%
D45*
X100700000Y-34960000D02*
X100700000Y-34106250D01*
X100700000Y-34106250D02*
X97793750Y-31200000D01*
%TD*%
%TA.AperFunction,Conductor*%
%TO.N,3.3 V*%
G36*
X84337539Y-35419685D02*
G01*
X84383294Y-35472489D01*
X84394500Y-35524000D01*
X84394500Y-36656517D01*
X84404041Y-36716754D01*
X84409354Y-36750304D01*
X84466950Y-36863342D01*
X84466952Y-36863344D01*
X84466954Y-36863347D01*
X84490926Y-36887319D01*
X84524411Y-36948642D01*
X84519427Y-37018334D01*
X84490926Y-37062681D01*
X84466954Y-37086652D01*
X84466951Y-37086657D01*
X84409352Y-37199698D01*
X84394500Y-37293475D01*
X84394500Y-38706517D01*
X84400112Y-38741950D01*
X84409354Y-38800304D01*
X84466950Y-38913342D01*
X84556658Y-39003050D01*
X84593263Y-39021701D01*
X84644059Y-39069674D01*
X84651530Y-39084733D01*
X84660332Y-39105983D01*
X84701984Y-39206542D01*
X84701986Y-39206545D01*
X84701987Y-39206547D01*
X84704560Y-39210397D01*
X84776134Y-39317515D01*
X84800537Y-39354038D01*
X84800538Y-39354039D01*
X85779319Y-40332819D01*
X85812804Y-40394142D01*
X85807820Y-40463833D01*
X85765948Y-40519767D01*
X85700484Y-40544184D01*
X85691638Y-40544500D01*
X85024500Y-40544500D01*
X84957461Y-40524815D01*
X84911706Y-40472011D01*
X84900500Y-40420500D01*
X84900500Y-40331004D01*
X84873581Y-40195677D01*
X84873580Y-40195676D01*
X84873580Y-40195672D01*
X84870836Y-40189047D01*
X84820778Y-40068195D01*
X84820771Y-40068182D01*
X84744114Y-39953458D01*
X84744111Y-39953454D01*
X84646545Y-39855888D01*
X84646541Y-39855885D01*
X84531817Y-39779228D01*
X84531807Y-39779223D01*
X84498877Y-39765583D01*
X84458649Y-39738703D01*
X84174674Y-39454727D01*
X84174673Y-39454726D01*
X84174669Y-39454723D01*
X84068127Y-39383535D01*
X84068124Y-39383533D01*
X84068123Y-39383533D01*
X84063537Y-39381081D01*
X84013697Y-39332114D01*
X83997999Y-39271727D01*
X83997999Y-39038482D01*
X83994390Y-39015694D01*
X83983146Y-38944696D01*
X83925550Y-38831658D01*
X83925548Y-38831656D01*
X83921119Y-38822963D01*
X83924275Y-38821354D01*
X83906789Y-38772353D01*
X83922610Y-38704298D01*
X83949114Y-38674149D01*
X83948421Y-38673456D01*
X83954690Y-38667186D01*
X84040852Y-38552088D01*
X84040854Y-38552086D01*
X84091096Y-38417379D01*
X84091098Y-38417372D01*
X84097499Y-38357844D01*
X84097500Y-38357827D01*
X84097500Y-37670000D01*
X81297500Y-37670000D01*
X81297500Y-38357844D01*
X81303901Y-38417372D01*
X81303903Y-38417379D01*
X81354145Y-38552086D01*
X81354149Y-38552093D01*
X81440308Y-38667185D01*
X81446585Y-38673463D01*
X81445283Y-38674764D01*
X81480595Y-38721935D01*
X81485579Y-38791626D01*
X81471974Y-38821991D01*
X81473881Y-38822963D01*
X81469451Y-38831656D01*
X81469450Y-38831658D01*
X81449022Y-38871749D01*
X81411852Y-38944698D01*
X81397000Y-39038475D01*
X81397000Y-40881517D01*
X81406976Y-40944501D01*
X81411854Y-40975304D01*
X81469450Y-41088342D01*
X81469452Y-41088344D01*
X81469454Y-41088347D01*
X81523426Y-41142319D01*
X81556911Y-41203642D01*
X81551927Y-41273334D01*
X81523426Y-41317681D01*
X81469454Y-41371652D01*
X81469451Y-41371657D01*
X81411852Y-41484698D01*
X81397000Y-41578475D01*
X81397000Y-43421517D01*
X81407792Y-43489657D01*
X81411854Y-43515304D01*
X81469450Y-43628342D01*
X81469452Y-43628344D01*
X81469454Y-43628347D01*
X81559152Y-43718045D01*
X81559154Y-43718046D01*
X81559158Y-43718050D01*
X81672194Y-43775645D01*
X81672198Y-43775647D01*
X81765975Y-43790499D01*
X81765981Y-43790500D01*
X83629018Y-43790499D01*
X83722804Y-43775646D01*
X83835842Y-43718050D01*
X83925550Y-43628342D01*
X83983146Y-43515304D01*
X83983146Y-43515302D01*
X83983147Y-43515301D01*
X83997999Y-43421524D01*
X83998000Y-43421519D01*
X83998000Y-43302844D01*
X84520000Y-43302844D01*
X84526401Y-43362372D01*
X84526403Y-43362379D01*
X84576645Y-43497086D01*
X84576649Y-43497093D01*
X84662809Y-43612187D01*
X84662812Y-43612190D01*
X84777906Y-43698350D01*
X84777913Y-43698354D01*
X84912620Y-43748596D01*
X84912627Y-43748598D01*
X84972155Y-43754999D01*
X84972172Y-43755000D01*
X85200000Y-43755000D01*
X85200000Y-43100000D01*
X84520000Y-43100000D01*
X84520000Y-43302844D01*
X83998000Y-43302844D01*
X83997999Y-42946532D01*
X84017684Y-42879494D01*
X84034319Y-42858851D01*
X84080707Y-42812463D01*
X84080714Y-42812453D01*
X84318906Y-42574261D01*
X84380225Y-42540779D01*
X84449916Y-42545763D01*
X84494264Y-42574264D01*
X84520000Y-42600000D01*
X85326000Y-42600000D01*
X85393039Y-42619685D01*
X85438794Y-42672489D01*
X85450000Y-42724000D01*
X85450000Y-42850000D01*
X85576000Y-42850000D01*
X85643039Y-42869685D01*
X85688794Y-42922489D01*
X85700000Y-42974000D01*
X85700000Y-43755000D01*
X85927828Y-43755000D01*
X85927844Y-43754999D01*
X85987372Y-43748598D01*
X85987380Y-43748596D01*
X86032665Y-43731706D01*
X86102357Y-43726721D01*
X86163680Y-43760205D01*
X86197166Y-43821528D01*
X86200000Y-43847887D01*
X86200000Y-43850000D01*
X86200000Y-47600000D01*
X90275139Y-47600000D01*
X90342178Y-47619685D01*
X90362822Y-47636321D01*
X90384821Y-47658321D01*
X90418305Y-47719645D01*
X90413319Y-47789336D01*
X90371446Y-47845269D01*
X90305981Y-47869684D01*
X90297138Y-47870000D01*
X90162155Y-47870000D01*
X90102627Y-47876401D01*
X90102620Y-47876403D01*
X89967913Y-47926645D01*
X89967906Y-47926649D01*
X89852812Y-48012809D01*
X89852809Y-48012812D01*
X89766649Y-48127906D01*
X89766645Y-48127913D01*
X89716403Y-48262620D01*
X89716401Y-48262627D01*
X89710000Y-48322155D01*
X89710000Y-49290000D01*
X90576000Y-49290000D01*
X90643039Y-49309685D01*
X90688794Y-49362489D01*
X90700000Y-49414000D01*
X90700000Y-49540000D01*
X90826000Y-49540000D01*
X90893039Y-49559685D01*
X90938794Y-49612489D01*
X90950000Y-49664000D01*
X90950000Y-51210000D01*
X90963681Y-51223681D01*
X90997166Y-51285004D01*
X91000000Y-51311362D01*
X91000000Y-53692245D01*
X90980315Y-53759284D01*
X90963681Y-53779926D01*
X90871954Y-53871652D01*
X90871951Y-53871657D01*
X90814352Y-53984698D01*
X90799500Y-54078475D01*
X90799500Y-56481517D01*
X90810292Y-56549657D01*
X90814354Y-56575304D01*
X90871950Y-56688342D01*
X90961658Y-56778050D01*
X90961659Y-56778051D01*
X90963681Y-56780072D01*
X90997166Y-56841395D01*
X91000000Y-56867754D01*
X91000000Y-57376000D01*
X90980315Y-57443039D01*
X90927511Y-57488794D01*
X90876000Y-57500000D01*
X89448563Y-57500000D01*
X89381524Y-57480315D01*
X89335769Y-57427511D01*
X89325825Y-57358353D01*
X89332381Y-57332666D01*
X89358597Y-57262376D01*
X89358598Y-57262372D01*
X89364999Y-57202844D01*
X89365000Y-57202827D01*
X89365000Y-56660000D01*
X86635000Y-56660000D01*
X86635000Y-57202844D01*
X86641401Y-57262372D01*
X86641402Y-57262376D01*
X86667619Y-57332666D01*
X86672603Y-57402358D01*
X86639118Y-57463681D01*
X86577795Y-57497166D01*
X86551437Y-57500000D01*
X84550000Y-57500000D01*
X84550000Y-58275500D01*
X84530315Y-58342539D01*
X84477511Y-58388294D01*
X84426000Y-58399500D01*
X83968434Y-58399500D01*
X83901395Y-58379815D01*
X83855640Y-58327011D01*
X83845696Y-58257853D01*
X83869167Y-58201189D01*
X83943352Y-58102089D01*
X83943354Y-58102086D01*
X83993596Y-57967379D01*
X83993598Y-57967372D01*
X83999999Y-57907844D01*
X84000000Y-57907827D01*
X84000000Y-57220000D01*
X81200000Y-57220000D01*
X81200000Y-57907844D01*
X81206401Y-57967372D01*
X81206403Y-57967379D01*
X81256645Y-58102086D01*
X81256649Y-58102093D01*
X81342808Y-58217185D01*
X81349085Y-58223463D01*
X81347783Y-58224764D01*
X81383095Y-58271935D01*
X81388079Y-58341626D01*
X81374474Y-58371991D01*
X81376381Y-58372963D01*
X81371951Y-58381656D01*
X81371950Y-58381658D01*
X81368569Y-58388294D01*
X81314352Y-58494698D01*
X81299500Y-58588475D01*
X81299500Y-60431517D01*
X81310292Y-60499657D01*
X81314354Y-60525304D01*
X81371950Y-60638342D01*
X81371952Y-60638344D01*
X81371954Y-60638347D01*
X81425926Y-60692319D01*
X81459411Y-60753642D01*
X81454427Y-60823334D01*
X81425926Y-60867681D01*
X81371954Y-60921652D01*
X81371951Y-60921657D01*
X81371950Y-60921658D01*
X81352751Y-60959337D01*
X81314352Y-61034698D01*
X81299500Y-61128475D01*
X81299500Y-62971517D01*
X81310292Y-63039657D01*
X81314354Y-63065304D01*
X81371950Y-63178342D01*
X81371952Y-63178344D01*
X81371954Y-63178347D01*
X81461652Y-63268045D01*
X81461654Y-63268046D01*
X81461658Y-63268050D01*
X81574694Y-63325645D01*
X81574698Y-63325647D01*
X81668475Y-63340499D01*
X81668481Y-63340500D01*
X83531518Y-63340499D01*
X83625304Y-63325646D01*
X83738342Y-63268050D01*
X83828050Y-63178342D01*
X83885646Y-63065304D01*
X83885646Y-63065302D01*
X83885647Y-63065301D01*
X83900500Y-62971524D01*
X83900500Y-62229500D01*
X83920185Y-62162461D01*
X83972989Y-62116706D01*
X84024500Y-62105500D01*
X84801567Y-62105500D01*
X84868606Y-62125185D01*
X84914361Y-62177989D01*
X84924305Y-62247147D01*
X84900833Y-62303811D01*
X84826649Y-62402906D01*
X84826645Y-62402913D01*
X84776403Y-62537620D01*
X84776401Y-62537627D01*
X84770000Y-62597155D01*
X84770000Y-62800000D01*
X85576000Y-62800000D01*
X85643039Y-62819685D01*
X85688794Y-62872489D01*
X85700000Y-62924000D01*
X85700000Y-63176000D01*
X85680315Y-63243039D01*
X85627511Y-63288794D01*
X85576000Y-63300000D01*
X84770000Y-63300000D01*
X84770000Y-63502844D01*
X84776401Y-63562372D01*
X84776403Y-63562379D01*
X84811105Y-63655420D01*
X84816089Y-63725112D01*
X84782604Y-63786435D01*
X84721281Y-63819919D01*
X84695067Y-63822753D01*
X80846474Y-63827227D01*
X80779412Y-63807620D01*
X80733596Y-63754870D01*
X80722332Y-63703638D01*
X80697341Y-56032155D01*
X81200000Y-56032155D01*
X81200000Y-56720000D01*
X82350000Y-56720000D01*
X82850000Y-56720000D01*
X84000000Y-56720000D01*
X84000000Y-56032172D01*
X83999999Y-56032155D01*
X83993598Y-55972627D01*
X83993596Y-55972620D01*
X83943354Y-55837913D01*
X83943350Y-55837906D01*
X83857190Y-55722813D01*
X83844240Y-55713118D01*
X83844238Y-55713115D01*
X83742093Y-55636649D01*
X83742086Y-55636645D01*
X83689830Y-55617155D01*
X86635000Y-55617155D01*
X86635000Y-56160000D01*
X87750000Y-56160000D01*
X88250000Y-56160000D01*
X89365000Y-56160000D01*
X89365000Y-55617172D01*
X89364999Y-55617155D01*
X89358598Y-55557627D01*
X89358596Y-55557620D01*
X89308354Y-55422913D01*
X89308350Y-55422906D01*
X89222190Y-55307812D01*
X89222187Y-55307809D01*
X89107093Y-55221649D01*
X89107086Y-55221645D01*
X88972379Y-55171403D01*
X88972372Y-55171401D01*
X88912844Y-55165000D01*
X88250000Y-55165000D01*
X88250000Y-56160000D01*
X87750000Y-56160000D01*
X87750000Y-55165000D01*
X87087155Y-55165000D01*
X87027627Y-55171401D01*
X87027620Y-55171403D01*
X86892913Y-55221645D01*
X86892906Y-55221649D01*
X86777812Y-55307809D01*
X86777809Y-55307812D01*
X86691649Y-55422906D01*
X86691645Y-55422913D01*
X86641403Y-55557620D01*
X86641401Y-55557627D01*
X86635000Y-55617155D01*
X83689830Y-55617155D01*
X83607379Y-55586403D01*
X83607372Y-55586401D01*
X83547844Y-55580000D01*
X82850000Y-55580000D01*
X82850000Y-56720000D01*
X82350000Y-56720000D01*
X82350000Y-55580000D01*
X81652155Y-55580000D01*
X81592627Y-55586401D01*
X81592620Y-55586403D01*
X81457913Y-55636645D01*
X81457906Y-55636649D01*
X81342812Y-55722809D01*
X81342809Y-55722812D01*
X81256649Y-55837906D01*
X81256645Y-55837913D01*
X81206403Y-55972620D01*
X81206401Y-55972627D01*
X81200000Y-56032155D01*
X80697341Y-56032155D01*
X80686900Y-52827002D01*
X80706366Y-52759902D01*
X80759020Y-52713975D01*
X80828146Y-52703806D01*
X80891796Y-52732624D01*
X80898580Y-52738920D01*
X80983713Y-52824053D01*
X80983716Y-52824055D01*
X81157476Y-52940157D01*
X81350547Y-53020130D01*
X81555505Y-53060899D01*
X81555508Y-53060900D01*
X81555510Y-53060900D01*
X81764492Y-53060900D01*
X81764493Y-53060899D01*
X81969453Y-53020130D01*
X82162524Y-52940157D01*
X82336284Y-52824055D01*
X82484055Y-52676284D01*
X82600157Y-52502524D01*
X82680130Y-52309453D01*
X82720900Y-52104490D01*
X82720900Y-51895510D01*
X82720900Y-51895507D01*
X82720899Y-51895505D01*
X83139100Y-51895505D01*
X83139100Y-52104494D01*
X83179868Y-52309445D01*
X83179870Y-52309453D01*
X83259842Y-52502522D01*
X83375946Y-52676286D01*
X83523713Y-52824053D01*
X83523716Y-52824055D01*
X83697476Y-52940157D01*
X83890547Y-53020130D01*
X84095505Y-53060899D01*
X84095508Y-53060900D01*
X84095510Y-53060900D01*
X84304492Y-53060900D01*
X84304493Y-53060899D01*
X84509453Y-53020130D01*
X84702524Y-52940157D01*
X84876284Y-52824055D01*
X85024055Y-52676284D01*
X85140157Y-52502524D01*
X85220130Y-52309453D01*
X85260900Y-52104490D01*
X85260900Y-51895510D01*
X85260900Y-51895507D01*
X85260899Y-51895505D01*
X85679100Y-51895505D01*
X85679100Y-52104494D01*
X85719868Y-52309445D01*
X85719870Y-52309453D01*
X85799842Y-52502522D01*
X85915946Y-52676286D01*
X86063713Y-52824053D01*
X86063716Y-52824055D01*
X86237476Y-52940157D01*
X86430547Y-53020130D01*
X86635505Y-53060899D01*
X86635508Y-53060900D01*
X86635510Y-53060900D01*
X86844492Y-53060900D01*
X86844493Y-53060899D01*
X87049453Y-53020130D01*
X87242524Y-52940157D01*
X87416284Y-52824055D01*
X87564055Y-52676284D01*
X87680157Y-52502524D01*
X87760130Y-52309453D01*
X87800900Y-52104490D01*
X87800900Y-51895510D01*
X87800900Y-51895507D01*
X87800899Y-51895505D01*
X87760131Y-51690554D01*
X87760130Y-51690547D01*
X87680157Y-51497476D01*
X87564055Y-51323716D01*
X87564053Y-51323713D01*
X87416286Y-51175946D01*
X87318338Y-51110500D01*
X87242524Y-51059843D01*
X87189911Y-51038050D01*
X87049453Y-50979870D01*
X87049445Y-50979868D01*
X86844493Y-50939100D01*
X86844490Y-50939100D01*
X86635510Y-50939100D01*
X86635507Y-50939100D01*
X86430554Y-50979868D01*
X86430546Y-50979870D01*
X86237477Y-51059842D01*
X86063713Y-51175946D01*
X85915946Y-51323713D01*
X85799842Y-51497477D01*
X85719870Y-51690546D01*
X85719868Y-51690554D01*
X85679100Y-51895505D01*
X85260899Y-51895505D01*
X85220131Y-51690554D01*
X85220130Y-51690547D01*
X85140157Y-51497476D01*
X85024055Y-51323716D01*
X85024053Y-51323713D01*
X84876286Y-51175946D01*
X84778338Y-51110500D01*
X84702524Y-51059843D01*
X84649911Y-51038050D01*
X84509453Y-50979870D01*
X84509445Y-50979868D01*
X84304493Y-50939100D01*
X84304490Y-50939100D01*
X84095510Y-50939100D01*
X84095507Y-50939100D01*
X83890554Y-50979868D01*
X83890546Y-50979870D01*
X83697477Y-51059842D01*
X83523713Y-51175946D01*
X83375946Y-51323713D01*
X83259842Y-51497477D01*
X83179870Y-51690546D01*
X83179868Y-51690554D01*
X83139100Y-51895505D01*
X82720899Y-51895505D01*
X82680131Y-51690554D01*
X82680130Y-51690547D01*
X82600157Y-51497476D01*
X82484055Y-51323716D01*
X82484053Y-51323713D01*
X82336286Y-51175946D01*
X82238338Y-51110500D01*
X82162524Y-51059843D01*
X82109911Y-51038050D01*
X81969453Y-50979870D01*
X81969445Y-50979868D01*
X81764493Y-50939100D01*
X81764490Y-50939100D01*
X81555510Y-50939100D01*
X81555507Y-50939100D01*
X81350554Y-50979868D01*
X81350546Y-50979870D01*
X81157477Y-51059842D01*
X80983715Y-51175945D01*
X80893212Y-51266448D01*
X80831888Y-51299932D01*
X80762197Y-51294948D01*
X80706263Y-51253076D01*
X80681847Y-51187611D01*
X80681532Y-51179189D01*
X80680159Y-50757844D01*
X89710000Y-50757844D01*
X89716401Y-50817372D01*
X89716403Y-50817379D01*
X89766645Y-50952086D01*
X89766649Y-50952093D01*
X89852809Y-51067187D01*
X89852812Y-51067190D01*
X89967906Y-51153350D01*
X89967913Y-51153354D01*
X90102620Y-51203596D01*
X90102627Y-51203598D01*
X90162155Y-51209999D01*
X90162172Y-51210000D01*
X90450000Y-51210000D01*
X90450000Y-49790000D01*
X89710000Y-49790000D01*
X89710000Y-50757844D01*
X80680159Y-50757844D01*
X80648661Y-41088347D01*
X80633655Y-36482155D01*
X81297500Y-36482155D01*
X81297500Y-37170000D01*
X82447500Y-37170000D01*
X82947500Y-37170000D01*
X84097500Y-37170000D01*
X84097500Y-36482172D01*
X84097499Y-36482155D01*
X84091098Y-36422627D01*
X84091096Y-36422620D01*
X84040854Y-36287913D01*
X84040850Y-36287906D01*
X83954690Y-36172812D01*
X83954687Y-36172809D01*
X83839593Y-36086649D01*
X83839586Y-36086645D01*
X83704879Y-36036403D01*
X83704872Y-36036401D01*
X83645344Y-36030000D01*
X82947500Y-36030000D01*
X82947500Y-37170000D01*
X82447500Y-37170000D01*
X82447500Y-36030000D01*
X81749655Y-36030000D01*
X81690127Y-36036401D01*
X81690120Y-36036403D01*
X81555413Y-36086645D01*
X81555406Y-36086649D01*
X81440312Y-36172809D01*
X81440309Y-36172812D01*
X81354149Y-36287906D01*
X81354145Y-36287913D01*
X81303903Y-36422620D01*
X81303901Y-36422627D01*
X81297500Y-36482155D01*
X80633655Y-36482155D01*
X80633646Y-36479255D01*
X80630535Y-35524404D01*
X80650001Y-35457301D01*
X80702655Y-35411374D01*
X80754534Y-35400000D01*
X84270500Y-35400000D01*
X84337539Y-35419685D01*
G37*
%TD.AperFunction*%
%TD*%
%TA.AperFunction,Conductor*%
%TO.N,GLV-*%
G36*
X114773742Y-24351479D02*
G01*
X114800605Y-24354420D01*
X114827394Y-24358842D01*
X114843961Y-24362514D01*
X114873661Y-24369098D01*
X114884197Y-24371677D01*
X114894682Y-24374486D01*
X114905080Y-24377516D01*
X115260047Y-24489431D01*
X115270296Y-24492910D01*
X115280529Y-24496635D01*
X115290626Y-24500561D01*
X115634464Y-24642979D01*
X115644408Y-24647355D01*
X115654227Y-24651934D01*
X115663959Y-24656733D01*
X115994080Y-24828579D01*
X116003579Y-24833789D01*
X116012992Y-24839224D01*
X116022278Y-24844859D01*
X116300800Y-25022296D01*
X116336163Y-25044824D01*
X116345160Y-25050836D01*
X116354089Y-25057088D01*
X116362806Y-25063480D01*
X116658061Y-25290037D01*
X116666516Y-25296822D01*
X116674850Y-25303815D01*
X116683018Y-25310978D01*
X116957373Y-25562376D01*
X116965222Y-25569889D01*
X116972917Y-25577584D01*
X116980430Y-25585433D01*
X117231828Y-25859788D01*
X117238991Y-25867956D01*
X117245984Y-25876290D01*
X117252783Y-25884762D01*
X117479312Y-26179981D01*
X117485715Y-26188713D01*
X117491963Y-26197635D01*
X117497992Y-26206659D01*
X117697942Y-26520520D01*
X117703576Y-26529805D01*
X117709013Y-26539222D01*
X117714235Y-26548740D01*
X117766783Y-26649686D01*
X117886066Y-26878833D01*
X117890871Y-26888578D01*
X117895456Y-26898411D01*
X117899823Y-26908333D01*
X117902876Y-26915702D01*
X117902884Y-26915723D01*
X118042239Y-27252167D01*
X118046174Y-27262286D01*
X118049887Y-27272487D01*
X118053382Y-27282781D01*
X118165280Y-27637695D01*
X118168320Y-27648128D01*
X118171131Y-27658620D01*
X118173713Y-27669170D01*
X118254254Y-28032497D01*
X118256372Y-28043145D01*
X118258259Y-28053851D01*
X118259909Y-28064574D01*
X118308473Y-28433508D01*
X118309656Y-28444303D01*
X118310604Y-28455139D01*
X118311314Y-28465985D01*
X118327891Y-28845866D01*
X118328068Y-28851258D01*
X118328188Y-28856726D01*
X118328248Y-28862189D01*
X118328248Y-28938458D01*
X118328290Y-28941040D01*
X118342773Y-59141313D01*
X118342716Y-59146783D01*
X118342598Y-59152273D01*
X118342418Y-59157782D01*
X118325837Y-59537592D01*
X118325127Y-59548430D01*
X118324180Y-59559256D01*
X118322997Y-59570059D01*
X118274424Y-59939011D01*
X118272773Y-59949735D01*
X118270889Y-59960423D01*
X118268768Y-59971091D01*
X118188227Y-60334394D01*
X118185647Y-60344937D01*
X118182834Y-60355437D01*
X118179792Y-60365875D01*
X118067887Y-60720799D01*
X118064389Y-60731102D01*
X118060682Y-60741285D01*
X118056750Y-60751396D01*
X117914335Y-61095216D01*
X117909960Y-61105159D01*
X117905380Y-61114981D01*
X117900575Y-61124724D01*
X117728747Y-61454808D01*
X117723517Y-61464341D01*
X117718071Y-61473773D01*
X117712439Y-61483054D01*
X117512508Y-61796882D01*
X117506476Y-61805911D01*
X117500236Y-61814823D01*
X117493809Y-61823587D01*
X117267278Y-62118809D01*
X117260468Y-62127294D01*
X117253485Y-62135615D01*
X117246332Y-62143771D01*
X116994932Y-62418127D01*
X116987420Y-62425975D01*
X116979725Y-62433670D01*
X116971877Y-62441182D01*
X116697521Y-62692582D01*
X116689365Y-62699735D01*
X116681044Y-62706718D01*
X116672559Y-62713528D01*
X116377337Y-62940059D01*
X116368573Y-62946486D01*
X116359661Y-62952726D01*
X116350632Y-62958758D01*
X116036804Y-63158689D01*
X116027523Y-63164321D01*
X116018091Y-63169767D01*
X116008558Y-63174997D01*
X115678474Y-63346825D01*
X115668731Y-63351630D01*
X115658909Y-63356210D01*
X115648966Y-63360585D01*
X115305146Y-63503000D01*
X115295035Y-63506932D01*
X115284852Y-63510639D01*
X115274549Y-63514137D01*
X114919625Y-63626042D01*
X114909187Y-63629084D01*
X114898687Y-63631897D01*
X114888144Y-63634477D01*
X114524841Y-63715018D01*
X114514173Y-63717139D01*
X114503485Y-63719023D01*
X114492761Y-63720674D01*
X114123810Y-63769247D01*
X114113007Y-63770430D01*
X114102181Y-63771377D01*
X114091342Y-63772087D01*
X113711439Y-63788671D01*
X113706054Y-63788848D01*
X113700597Y-63788968D01*
X113695123Y-63789028D01*
X113621472Y-63789028D01*
X113615417Y-63789129D01*
X86898398Y-63820191D01*
X86849813Y-63815462D01*
X86829354Y-63811417D01*
X86739552Y-63774342D01*
X86670774Y-63705722D01*
X86633493Y-63616015D01*
X86631134Y-63604229D01*
X86627719Y-63528735D01*
X86630500Y-63502873D01*
X86630499Y-62597128D01*
X86624091Y-62537517D01*
X86622962Y-62534490D01*
X86610471Y-62487314D01*
X86607241Y-62467376D01*
X86610711Y-62370288D01*
X86651073Y-62281913D01*
X86722181Y-62215712D01*
X86808835Y-62182511D01*
X86825777Y-62179455D01*
X86869978Y-62175500D01*
X91505357Y-62175500D01*
X91565779Y-62163481D01*
X91626202Y-62151463D01*
X91673793Y-62131750D01*
X91740036Y-62104312D01*
X91802636Y-62062483D01*
X91842483Y-62035858D01*
X91929608Y-61948733D01*
X91929610Y-61948729D01*
X95820846Y-58057492D01*
X95858574Y-58026531D01*
X95872624Y-58017144D01*
X95962382Y-57979968D01*
X96059537Y-57979971D01*
X96149296Y-58017153D01*
X96217993Y-58085854D01*
X96255166Y-58175596D01*
X96258463Y-58192167D01*
X96263250Y-58240756D01*
X96263250Y-58875972D01*
X96258465Y-58924555D01*
X96254395Y-58945014D01*
X96217213Y-59034772D01*
X96148513Y-59103470D01*
X96058769Y-59140644D01*
X96044168Y-59143548D01*
X96038315Y-59144713D01*
X95989729Y-59149500D01*
X95821385Y-59149500D01*
X95811666Y-59151162D01*
X95767519Y-59155908D01*
X95767515Y-59155909D01*
X95632670Y-59206203D01*
X95632669Y-59206203D01*
X95632668Y-59206204D01*
X95517458Y-59292449D01*
X95517457Y-59292451D01*
X95517454Y-59292453D01*
X95517446Y-59292462D01*
X95431204Y-59407668D01*
X95380908Y-59542516D01*
X95380907Y-59542522D01*
X95374500Y-59602116D01*
X95374500Y-61397995D01*
X95374711Y-61399824D01*
X95380908Y-61457480D01*
X95380909Y-61457484D01*
X95427077Y-61581267D01*
X95429175Y-61586890D01*
X95429176Y-61586895D01*
X95431202Y-61592328D01*
X95431203Y-61592330D01*
X95431204Y-61592331D01*
X95517454Y-61707546D01*
X95632669Y-61793796D01*
X95767517Y-61844091D01*
X95827127Y-61850500D01*
X97622872Y-61850499D01*
X97682483Y-61844091D01*
X97817331Y-61793796D01*
X97932546Y-61707546D01*
X98018796Y-61592331D01*
X98069091Y-61457483D01*
X98073559Y-61415922D01*
X98080048Y-61394124D01*
X98125398Y-61308203D01*
X98200177Y-61246177D01*
X98293000Y-61217489D01*
X98389735Y-61226507D01*
X98475656Y-61271857D01*
X98537682Y-61346636D01*
X98566370Y-61439459D01*
X98557352Y-61536194D01*
X98546754Y-61571795D01*
X98542228Y-61576322D01*
X98526176Y-61631904D01*
X98557448Y-61654624D01*
X98746774Y-61751091D01*
X98746776Y-61751092D01*
X98746807Y-61751103D01*
X98861588Y-61788396D01*
X98948876Y-61816758D01*
X98948882Y-61816759D01*
X98948886Y-61816760D01*
X99024881Y-61828796D01*
X99158743Y-61849999D01*
X99158756Y-61850000D01*
X99158761Y-61850000D01*
X99371244Y-61850000D01*
X99371245Y-61850000D01*
X99371246Y-61849999D01*
X99371256Y-61849999D01*
X99538008Y-61823587D01*
X99581112Y-61816760D01*
X99581114Y-61816759D01*
X99581123Y-61816758D01*
X99770059Y-61755369D01*
X99783209Y-61751097D01*
X99783209Y-61751096D01*
X99783215Y-61751095D01*
X99783224Y-61751091D01*
X99972551Y-61654624D01*
X100026716Y-61615270D01*
X99850905Y-61439459D01*
X99617845Y-61206398D01*
X99563869Y-61125617D01*
X99544915Y-61030329D01*
X99563869Y-60935041D01*
X99617840Y-60854265D01*
X99619265Y-60852840D01*
X99700041Y-60798869D01*
X99795329Y-60779915D01*
X99890617Y-60798869D01*
X99971398Y-60852845D01*
X100380269Y-61261715D01*
X100380270Y-61261716D01*
X100419624Y-61207551D01*
X100516091Y-61018224D01*
X100516095Y-61018215D01*
X100581758Y-60816123D01*
X100586300Y-60787451D01*
X100593612Y-60741285D01*
X100614999Y-60606256D01*
X100615000Y-60606244D01*
X100615000Y-60393755D01*
X100614999Y-60393743D01*
X100581758Y-60183876D01*
X100530339Y-60025622D01*
X100516103Y-59981807D01*
X100516092Y-59981776D01*
X100516090Y-59981772D01*
X100516087Y-59981765D01*
X100419627Y-59792453D01*
X100419625Y-59792451D01*
X100419624Y-59792448D01*
X100380270Y-59738282D01*
X100380269Y-59738282D01*
X99971397Y-60147153D01*
X99890616Y-60201129D01*
X99795328Y-60220083D01*
X99700040Y-60201129D01*
X99619261Y-60147155D01*
X99617841Y-60145735D01*
X99563868Y-60064957D01*
X99544914Y-59969669D01*
X99563868Y-59874381D01*
X99617839Y-59793606D01*
X100026717Y-59384729D01*
X100004039Y-59368253D01*
X99974097Y-59346499D01*
X99972703Y-59345470D01*
X99972543Y-59345370D01*
X99783221Y-59248906D01*
X99783222Y-59248906D01*
X99783191Y-59248895D01*
X99710156Y-59225165D01*
X111183250Y-59225165D01*
X111183250Y-59494833D01*
X111213435Y-59762723D01*
X111220220Y-59792449D01*
X111273441Y-60025622D01*
X111273781Y-60026582D01*
X111362477Y-60280068D01*
X111362480Y-60280074D01*
X111417226Y-60393754D01*
X111474438Y-60512557D01*
X111477095Y-60518073D01*
X111478856Y-60521946D01*
X111479854Y-60523931D01*
X111483165Y-60528885D01*
X111622911Y-60751288D01*
X111622913Y-60751291D01*
X111651762Y-60787466D01*
X111674615Y-60816123D01*
X111791016Y-60962085D01*
X111981665Y-61152734D01*
X112118324Y-61261716D01*
X112192461Y-61320838D01*
X112409928Y-61457483D01*
X112417918Y-61462503D01*
X112420456Y-61464146D01*
X112421492Y-61464640D01*
X112459729Y-61483054D01*
X112662195Y-61580556D01*
X112663666Y-61581276D01*
X112665116Y-61581772D01*
X112695284Y-61592329D01*
X112918159Y-61670316D01*
X113181018Y-61730312D01*
X113448928Y-61760499D01*
X113448936Y-61760499D01*
X113448938Y-61760500D01*
X113718559Y-61760500D01*
X113718560Y-61760500D01*
X113718562Y-61760499D01*
X113718571Y-61760499D01*
X113921530Y-61737630D01*
X113986482Y-61730312D01*
X113986485Y-61730311D01*
X113986487Y-61730311D01*
X114019013Y-61722886D01*
X114249341Y-61670316D01*
X114503829Y-61581267D01*
X114746747Y-61464284D01*
X114975039Y-61320838D01*
X115185835Y-61152734D01*
X115376484Y-60962085D01*
X115544588Y-60751289D01*
X115688034Y-60522997D01*
X115805017Y-60280079D01*
X115894066Y-60025591D01*
X115954062Y-59762732D01*
X115971695Y-59606240D01*
X115972158Y-59602128D01*
X115972158Y-59602127D01*
X115976787Y-59561043D01*
X115984249Y-59494821D01*
X115984250Y-59494808D01*
X115984250Y-59225191D01*
X115984249Y-59225178D01*
X115954062Y-58957268D01*
X115941105Y-58900500D01*
X115894066Y-58694409D01*
X115820776Y-58484959D01*
X115805020Y-58439929D01*
X115805015Y-58439915D01*
X115725836Y-58275500D01*
X115688316Y-58197588D01*
X115687893Y-58196703D01*
X115686253Y-58194168D01*
X115674583Y-58175596D01*
X115558665Y-57991114D01*
X115544590Y-57968714D01*
X115544589Y-57968712D01*
X115496077Y-57907880D01*
X115496070Y-57907872D01*
X115376484Y-57757915D01*
X115293022Y-57674453D01*
X115185848Y-57567278D01*
X115185829Y-57567261D01*
X115105635Y-57503308D01*
X115105628Y-57503303D01*
X114975039Y-57399162D01*
X114975040Y-57399162D01*
X114975038Y-57399161D01*
X114746755Y-57255720D01*
X114746749Y-57255717D01*
X114746747Y-57255716D01*
X114610794Y-57190244D01*
X114534949Y-57153719D01*
X114503835Y-57138735D01*
X114503815Y-57138726D01*
X114315712Y-57072908D01*
X114249346Y-57049685D01*
X114207820Y-57040206D01*
X114140719Y-57024891D01*
X114140718Y-57024890D01*
X113986482Y-56989686D01*
X113718583Y-56959500D01*
X113718571Y-56959500D01*
X113718559Y-56959500D01*
X113448941Y-56959500D01*
X113448928Y-56959500D01*
X113448915Y-56959500D01*
X113181016Y-56989686D01*
X112981166Y-57035301D01*
X112981167Y-57035302D01*
X112981163Y-57035303D01*
X112945512Y-57043440D01*
X112899839Y-57048586D01*
X112877556Y-57063476D01*
X112864509Y-57068456D01*
X112663689Y-57138724D01*
X112663664Y-57138735D01*
X112425673Y-57253346D01*
X112422640Y-57254725D01*
X112420748Y-57255717D01*
X112192457Y-57399163D01*
X111981686Y-57567248D01*
X111981664Y-57567266D01*
X111791016Y-57757914D01*
X111790998Y-57757936D01*
X111622913Y-57968707D01*
X111479467Y-58196998D01*
X111478475Y-58198890D01*
X111477096Y-58201923D01*
X111362485Y-58439914D01*
X111362476Y-58439934D01*
X111273438Y-58694395D01*
X111273436Y-58694401D01*
X111273435Y-58694406D01*
X111249978Y-58797175D01*
X111213436Y-58957272D01*
X111213435Y-58957277D01*
X111183250Y-59225165D01*
X99710156Y-59225165D01*
X99581130Y-59183243D01*
X99581126Y-59183242D01*
X99581123Y-59183241D01*
X99581120Y-59183240D01*
X99581114Y-59183239D01*
X99371263Y-59150000D01*
X99371256Y-59150000D01*
X99158743Y-59150000D01*
X99158735Y-59150000D01*
X98948884Y-59183239D01*
X98948868Y-59183243D01*
X98746807Y-59248895D01*
X98746776Y-59248906D01*
X98746773Y-59248908D01*
X98557446Y-59345376D01*
X98557439Y-59345380D01*
X98528343Y-59366519D01*
X98528343Y-59366520D01*
X98525958Y-59368253D01*
X98541658Y-59423105D01*
X98546654Y-59428101D01*
X98557419Y-59464304D01*
X98566409Y-59561043D01*
X98537695Y-59653857D01*
X98475648Y-59728619D01*
X98389714Y-59773945D01*
X98292975Y-59782935D01*
X98200161Y-59754221D01*
X98125399Y-59692174D01*
X98080073Y-59606240D01*
X98073601Y-59584475D01*
X98069091Y-59542517D01*
X98018796Y-59407669D01*
X97932546Y-59292454D01*
X97817331Y-59206204D01*
X97817329Y-59206203D01*
X97817328Y-59206202D01*
X97817327Y-59206201D01*
X97699207Y-59162145D01*
X97655366Y-59140687D01*
X97636592Y-59129090D01*
X97565484Y-59062887D01*
X97525126Y-58974516D01*
X97520920Y-58956718D01*
X97514250Y-58899471D01*
X97514250Y-54784026D01*
X97519034Y-54735453D01*
X97523103Y-54714995D01*
X97560281Y-54625234D01*
X97628979Y-54556534D01*
X97718736Y-54519353D01*
X97718739Y-54519352D01*
X97718746Y-54519352D01*
X97739204Y-54515283D01*
X97787777Y-54510499D01*
X97937092Y-54510499D01*
X97937094Y-54510499D01*
X98036458Y-54500349D01*
X98197447Y-54447003D01*
X98287637Y-54391372D01*
X98331487Y-54369945D01*
X98353136Y-54361886D01*
X98449028Y-54346406D01*
X98451822Y-54346508D01*
X98538086Y-54365303D01*
X98543016Y-54367345D01*
X98551519Y-54370868D01*
X98586934Y-54388978D01*
X98680265Y-54446546D01*
X98841146Y-54499855D01*
X98940437Y-54509999D01*
X98940438Y-54509999D01*
X98963750Y-54509998D01*
X98963750Y-53885741D01*
X99463750Y-53885741D01*
X99463750Y-54509998D01*
X99463751Y-54509999D01*
X99487043Y-54509999D01*
X99487054Y-54509999D01*
X99487070Y-54509998D01*
X99586359Y-54499855D01*
X99586362Y-54499854D01*
X99747230Y-54446548D01*
X99891479Y-54357574D01*
X99942680Y-54306374D01*
X99977635Y-54283017D01*
X99980418Y-54281159D01*
X100070178Y-54243981D01*
X100167333Y-54243984D01*
X100257088Y-54281163D01*
X100274429Y-54292750D01*
X100312161Y-54323715D01*
X100366020Y-54377574D01*
X100416929Y-54408975D01*
X100478583Y-54447004D01*
X100510266Y-54466546D01*
X100671146Y-54519855D01*
X100770437Y-54529999D01*
X100770438Y-54529999D01*
X100793750Y-54529998D01*
X100793750Y-53907140D01*
X100691610Y-53805000D01*
X100691609Y-53805000D01*
X99986416Y-53805000D01*
X99937838Y-53800215D01*
X99884066Y-53789519D01*
X99866028Y-53785000D01*
X99865036Y-53785000D01*
X99565304Y-53785000D01*
X99463750Y-53885741D01*
X98963750Y-53885741D01*
X98963750Y-53808527D01*
X98968533Y-53759957D01*
X98973040Y-53737295D01*
X98981277Y-53717405D01*
X98984964Y-53696194D01*
X99010213Y-53647543D01*
X99010216Y-53647536D01*
X99022778Y-53628735D01*
X99054454Y-53590296D01*
X99054730Y-53590023D01*
X99077681Y-53567254D01*
X99088321Y-53560206D01*
X99146547Y-53499081D01*
X99149475Y-53497019D01*
X99151479Y-53494047D01*
X99163074Y-53482545D01*
X99275798Y-53370721D01*
X99312809Y-53340471D01*
X99326278Y-53331471D01*
X99416032Y-53294292D01*
X99422621Y-53292981D01*
X99438707Y-53289783D01*
X99487277Y-53285000D01*
X100271084Y-53285000D01*
X100319658Y-53289784D01*
X100373429Y-53300479D01*
X100391476Y-53305000D01*
X100392464Y-53305000D01*
X100770223Y-53305000D01*
X100818795Y-53309783D01*
X100824536Y-53310924D01*
X100841457Y-53314290D01*
X100931216Y-53351468D01*
X100931222Y-53351472D01*
X100944404Y-53360280D01*
X100982142Y-53391252D01*
X101008723Y-53417835D01*
X101008727Y-53417838D01*
X101180912Y-53590023D01*
X101180911Y-53590023D01*
X101207497Y-53616607D01*
X101238469Y-53654345D01*
X101247277Y-53667527D01*
X101284457Y-53757285D01*
X101288965Y-53779947D01*
X101293750Y-53828527D01*
X101293750Y-54529998D01*
X101293751Y-54529999D01*
X101317043Y-54529999D01*
X101317054Y-54529999D01*
X101317070Y-54529998D01*
X101416359Y-54519855D01*
X101416362Y-54519854D01*
X101577229Y-54466548D01*
X101666683Y-54411371D01*
X101710535Y-54389944D01*
X101732190Y-54381883D01*
X101828082Y-54366406D01*
X101830870Y-54366507D01*
X101917118Y-54385296D01*
X101930547Y-54390858D01*
X101965972Y-54408973D01*
X102060053Y-54467003D01*
X102221042Y-54520349D01*
X102320405Y-54530500D01*
X102867094Y-54530499D01*
X102966458Y-54520349D01*
X103127447Y-54467003D01*
X103271794Y-54377968D01*
X103391718Y-54258044D01*
X103480753Y-54113697D01*
X103534099Y-53952708D01*
X103544250Y-53853345D01*
X103544249Y-53256656D01*
X103534099Y-53157292D01*
X103480753Y-52996303D01*
X103414990Y-52889685D01*
X103393560Y-52845827D01*
X103385859Y-52825138D01*
X103370384Y-52729223D01*
X103392790Y-52634692D01*
X103395207Y-52629408D01*
X103400000Y-52618932D01*
X103400000Y-48600001D01*
X103400000Y-48600000D01*
X103399999Y-48600000D01*
X102916508Y-48600000D01*
X102867885Y-48595206D01*
X102863857Y-48594404D01*
X102774104Y-48557208D01*
X102705418Y-48488496D01*
X102668255Y-48398730D01*
X102668274Y-48301575D01*
X102705470Y-48211822D01*
X102774182Y-48143136D01*
X102863938Y-48105975D01*
X102869369Y-48104895D01*
X102869971Y-48104776D01*
X102918508Y-48100000D01*
X103550964Y-48100000D01*
X103599536Y-48104783D01*
X103605277Y-48105924D01*
X103622198Y-48109290D01*
X103711957Y-48146468D01*
X103722889Y-48153772D01*
X103782093Y-48209223D01*
X103796723Y-48228289D01*
X103796747Y-48228313D01*
X103797697Y-48229033D01*
X103919018Y-48322126D01*
X103919022Y-48322130D01*
X103919023Y-48322130D01*
X103922158Y-48324536D01*
X104068237Y-48385044D01*
X104086036Y-48387387D01*
X104185639Y-48400500D01*
X105539360Y-48400499D01*
X105656762Y-48385044D01*
X105802841Y-48324536D01*
X105928282Y-48228282D01*
X106003907Y-48129723D01*
X106037264Y-48094107D01*
X106051756Y-48081398D01*
X106135889Y-48032821D01*
X106232212Y-48020137D01*
X106326057Y-48045279D01*
X106403137Y-48104421D01*
X106403146Y-48104431D01*
X106408298Y-48110306D01*
X106454383Y-48187453D01*
X106456199Y-48192322D01*
X106456201Y-48192327D01*
X106456202Y-48192330D01*
X106464509Y-48203855D01*
X106466870Y-48206580D01*
X106500907Y-48252047D01*
X106513800Y-48278995D01*
X106563592Y-48334431D01*
X106613164Y-48417988D01*
X106626988Y-48514154D01*
X106602976Y-48608250D01*
X106601788Y-48610734D01*
X106553228Y-48679370D01*
X106524258Y-48708339D01*
X106504226Y-48743519D01*
X106456204Y-48807667D01*
X106405908Y-48942516D01*
X106405907Y-48942522D01*
X106399500Y-49002116D01*
X106399500Y-49997995D01*
X106399711Y-49999824D01*
X106399960Y-50002145D01*
X106405908Y-50057480D01*
X106405909Y-50057484D01*
X106442437Y-50155421D01*
X106456204Y-50192331D01*
X106542454Y-50307546D01*
X106542457Y-50307548D01*
X106543401Y-50308442D01*
X106547897Y-50311621D01*
X106555102Y-50317014D01*
X106591104Y-50349940D01*
X106606543Y-50367128D01*
X106656119Y-50450680D01*
X106656120Y-50450684D01*
X106660316Y-50462578D01*
X106674500Y-50545417D01*
X106674500Y-50875972D01*
X106669714Y-50924557D01*
X106665644Y-50945015D01*
X106628462Y-51034773D01*
X106559761Y-51103470D01*
X106470017Y-51140644D01*
X106449560Y-51144714D01*
X106400973Y-51149500D01*
X105570135Y-51149500D01*
X105560416Y-51151162D01*
X105516269Y-51155908D01*
X105516265Y-51155909D01*
X105381420Y-51206203D01*
X105381419Y-51206203D01*
X105381418Y-51206204D01*
X105266208Y-51292449D01*
X105266207Y-51292451D01*
X105266204Y-51292453D01*
X105266196Y-51292462D01*
X105179954Y-51407668D01*
X105129658Y-51542516D01*
X105129657Y-51542522D01*
X105123250Y-51602116D01*
X105123250Y-53397995D01*
X105123461Y-53399824D01*
X105129658Y-53457480D01*
X105129659Y-53457484D01*
X105179953Y-53592329D01*
X105179954Y-53592331D01*
X105266204Y-53707546D01*
X105381419Y-53793796D01*
X105516267Y-53844091D01*
X105575877Y-53850500D01*
X107371622Y-53850499D01*
X107431233Y-53844091D01*
X107566081Y-53793796D01*
X107681296Y-53707546D01*
X107730241Y-53642164D01*
X107738505Y-53631718D01*
X107781365Y-53580428D01*
X107781366Y-53580429D01*
X107789344Y-53570881D01*
X107864985Y-53509921D01*
X107958204Y-53482545D01*
X108054799Y-53492925D01*
X108062222Y-53495249D01*
X108129088Y-53527827D01*
X108160081Y-53549180D01*
X108165134Y-53552754D01*
X108305934Y-53655051D01*
X108495338Y-53751557D01*
X108697507Y-53817246D01*
X108697510Y-53817246D01*
X108697512Y-53817247D01*
X108771336Y-53828939D01*
X108771341Y-53828939D01*
X108771351Y-53828941D01*
X108907362Y-53850484D01*
X108907458Y-53850500D01*
X109120037Y-53850500D01*
X109120042Y-53850500D01*
X109120168Y-53850479D01*
X109219226Y-53834789D01*
X109219228Y-53834789D01*
X109329987Y-53817247D01*
X109329987Y-53817246D01*
X109329993Y-53817246D01*
X109532162Y-53751557D01*
X109721566Y-53655051D01*
X109893542Y-53530104D01*
X110043854Y-53379792D01*
X110067890Y-53346707D01*
X110100309Y-53310224D01*
X110115628Y-53296063D01*
X110198460Y-53245302D01*
X110294419Y-53230102D01*
X110388769Y-53252725D01*
X110389601Y-53253108D01*
X110461550Y-53303223D01*
X110471338Y-53313011D01*
X110496713Y-53342722D01*
X110503070Y-53351472D01*
X110523646Y-53379792D01*
X110673958Y-53530104D01*
X110845934Y-53655051D01*
X111035338Y-53751557D01*
X111237507Y-53817246D01*
X111237510Y-53817246D01*
X111237512Y-53817247D01*
X111311336Y-53828939D01*
X111311341Y-53828939D01*
X111311351Y-53828941D01*
X111447362Y-53850484D01*
X111447458Y-53850500D01*
X111660037Y-53850500D01*
X111660042Y-53850500D01*
X111660168Y-53850479D01*
X111759226Y-53834789D01*
X111759228Y-53834789D01*
X111869987Y-53817247D01*
X111869987Y-53817246D01*
X111869993Y-53817246D01*
X112072162Y-53751557D01*
X112261566Y-53655051D01*
X112433542Y-53530104D01*
X112583854Y-53379792D01*
X112585206Y-53377930D01*
X112585842Y-53377055D01*
X112585866Y-53377072D01*
X112585993Y-53376845D01*
X112588057Y-53374008D01*
X112608197Y-53346284D01*
X112640612Y-53309804D01*
X112655937Y-53295637D01*
X112738769Y-53244875D01*
X112834727Y-53229674D01*
X112929194Y-53252350D01*
X112943551Y-53258968D01*
X112968353Y-53260920D01*
X112978478Y-53261717D01*
X112978479Y-53261717D01*
X113387353Y-52852842D01*
X113468130Y-52798868D01*
X113563418Y-52779914D01*
X113658706Y-52798868D01*
X113739488Y-52852844D01*
X113740905Y-52854261D01*
X113794879Y-52935040D01*
X113813833Y-53030328D01*
X113794879Y-53125616D01*
X113740903Y-53206397D01*
X113332031Y-53615269D01*
X113332032Y-53615269D01*
X113332032Y-53615270D01*
X113386198Y-53654624D01*
X113386204Y-53654627D01*
X113386207Y-53654629D01*
X113575515Y-53751087D01*
X113575522Y-53751090D01*
X113575526Y-53751092D01*
X113575557Y-53751103D01*
X113664332Y-53779947D01*
X113777626Y-53816758D01*
X113777632Y-53816759D01*
X113777636Y-53816760D01*
X113851930Y-53828527D01*
X113987493Y-53849999D01*
X113987506Y-53850000D01*
X113987511Y-53850000D01*
X114199994Y-53850000D01*
X114199995Y-53850000D01*
X114199996Y-53849999D01*
X114200006Y-53849999D01*
X114355269Y-53825406D01*
X114409862Y-53816760D01*
X114409864Y-53816759D01*
X114409873Y-53816758D01*
X114610543Y-53751557D01*
X114611959Y-53751097D01*
X114611959Y-53751096D01*
X114611965Y-53751095D01*
X114611974Y-53751091D01*
X114801301Y-53654624D01*
X114855466Y-53615270D01*
X114658031Y-53417835D01*
X114446595Y-53206398D01*
X114392619Y-53125617D01*
X114373665Y-53030329D01*
X114392619Y-52935041D01*
X114446590Y-52854265D01*
X114448015Y-52852840D01*
X114528791Y-52798869D01*
X114624079Y-52779915D01*
X114719367Y-52798869D01*
X114800148Y-52852845D01*
X115209019Y-53261715D01*
X115209020Y-53261716D01*
X115248374Y-53207551D01*
X115344841Y-53018224D01*
X115344845Y-53018215D01*
X115410508Y-52816123D01*
X115443749Y-52606256D01*
X115443750Y-52606244D01*
X115443750Y-52393755D01*
X115443749Y-52393743D01*
X115421751Y-52254861D01*
X115410510Y-52183886D01*
X115410509Y-52183882D01*
X115410508Y-52183876D01*
X115361835Y-52034075D01*
X115344853Y-51981807D01*
X115344842Y-51981776D01*
X115344840Y-51981772D01*
X115344837Y-51981765D01*
X115248379Y-51792457D01*
X115248377Y-51792454D01*
X115248374Y-51792448D01*
X115209020Y-51738282D01*
X115209019Y-51738282D01*
X114800147Y-52147153D01*
X114719366Y-52201129D01*
X114624078Y-52220083D01*
X114528790Y-52201129D01*
X114448011Y-52147155D01*
X114446591Y-52145735D01*
X114392618Y-52064957D01*
X114373664Y-51969669D01*
X114392618Y-51874381D01*
X114446589Y-51793606D01*
X114855467Y-51384729D01*
X114801301Y-51345375D01*
X114801295Y-51345371D01*
X114801293Y-51345369D01*
X114611971Y-51248906D01*
X114611972Y-51248906D01*
X114611941Y-51248895D01*
X114409880Y-51183243D01*
X114409876Y-51183242D01*
X114409873Y-51183241D01*
X114409870Y-51183240D01*
X114409864Y-51183239D01*
X114200013Y-51150000D01*
X114200006Y-51150000D01*
X113987493Y-51150000D01*
X113987485Y-51150000D01*
X113777634Y-51183239D01*
X113777618Y-51183243D01*
X113575557Y-51248895D01*
X113575526Y-51248906D01*
X113575523Y-51248908D01*
X113386197Y-51345375D01*
X113386176Y-51345389D01*
X113332030Y-51384727D01*
X113332030Y-51384728D01*
X113740903Y-51793600D01*
X113794880Y-51874382D01*
X113813834Y-51969670D01*
X113794880Y-52064958D01*
X113740966Y-52145677D01*
X113739553Y-52147091D01*
X113658791Y-52201096D01*
X113563509Y-52220084D01*
X113468214Y-52201164D01*
X113387414Y-52147216D01*
X113387351Y-52147154D01*
X112978477Y-51738280D01*
X112951787Y-51740380D01*
X112951782Y-51740382D01*
X112913000Y-51754690D01*
X112912603Y-51753615D01*
X112824026Y-51771223D01*
X112728752Y-51752262D01*
X112727661Y-51751810D01*
X112646899Y-51697843D01*
X112636464Y-51687407D01*
X112611097Y-51657705D01*
X112583855Y-51620209D01*
X112433543Y-51469897D01*
X112433542Y-51469896D01*
X112261566Y-51344949D01*
X112072162Y-51248443D01*
X112072161Y-51248442D01*
X112072156Y-51248440D01*
X111869993Y-51182754D01*
X111869990Y-51182753D01*
X111869988Y-51182752D01*
X111869979Y-51182750D01*
X111660055Y-51149500D01*
X111660046Y-51149500D01*
X111660037Y-51149500D01*
X111447463Y-51149500D01*
X111447453Y-51149500D01*
X111447443Y-51149500D01*
X111237519Y-51182750D01*
X111237505Y-51182754D01*
X111035346Y-51248439D01*
X111035342Y-51248440D01*
X111035342Y-51248441D01*
X111033097Y-51249585D01*
X110845930Y-51344951D01*
X110673954Y-51469898D01*
X110523645Y-51620207D01*
X110499608Y-51653292D01*
X110467184Y-51689780D01*
X110451870Y-51703936D01*
X110369031Y-51754699D01*
X110273072Y-51769897D01*
X110178603Y-51747216D01*
X110177707Y-51746803D01*
X110105951Y-51696777D01*
X110096157Y-51686983D01*
X110070785Y-51657276D01*
X110046432Y-51623757D01*
X110043854Y-51620208D01*
X110025762Y-51602116D01*
X109893548Y-51469901D01*
X109893546Y-51469899D01*
X109893542Y-51469896D01*
X109721566Y-51344949D01*
X109532162Y-51248443D01*
X109532161Y-51248442D01*
X109532156Y-51248440D01*
X109329993Y-51182754D01*
X109329990Y-51182753D01*
X109329988Y-51182752D01*
X109329979Y-51182750D01*
X109120055Y-51149500D01*
X109120046Y-51149500D01*
X109120037Y-51149500D01*
X108907463Y-51149500D01*
X108907453Y-51149500D01*
X108907443Y-51149500D01*
X108697519Y-51182750D01*
X108697513Y-51182752D01*
X108697510Y-51182752D01*
X108697509Y-51182753D01*
X108633502Y-51203550D01*
X108503530Y-51245780D01*
X108495763Y-51246699D01*
X108486979Y-51250531D01*
X108472092Y-51254252D01*
X108455748Y-51268344D01*
X108446114Y-51273523D01*
X108316707Y-51339459D01*
X108289844Y-51351209D01*
X108263512Y-51360923D01*
X108167553Y-51376120D01*
X108073083Y-51353438D01*
X107994484Y-51296331D01*
X107943722Y-51213494D01*
X107940885Y-51205802D01*
X107925500Y-51119634D01*
X107925500Y-50716611D01*
X107930284Y-50668038D01*
X107934353Y-50647580D01*
X107971531Y-50557819D01*
X108040229Y-50489119D01*
X108129986Y-50451938D01*
X108129990Y-50451937D01*
X108129994Y-50451937D01*
X108141844Y-50449580D01*
X108217033Y-50446222D01*
X108250076Y-50449774D01*
X108251841Y-50449979D01*
X108252170Y-50450000D01*
X108252175Y-50450000D01*
X108449998Y-50450000D01*
X108449999Y-50450000D01*
X108450000Y-50449999D01*
X108450000Y-49750001D01*
X108950000Y-49750001D01*
X108950000Y-50449999D01*
X108950001Y-50450000D01*
X108950002Y-50450000D01*
X109147825Y-50450000D01*
X109147831Y-50450000D01*
X109149216Y-50449901D01*
X109152127Y-50449537D01*
X109207371Y-50443598D01*
X109207378Y-50443596D01*
X109342087Y-50393353D01*
X109457187Y-50307189D01*
X109457189Y-50307187D01*
X109543353Y-50192087D01*
X109593596Y-50057378D01*
X109593598Y-50057371D01*
X109599537Y-50002127D01*
X109599901Y-49999216D01*
X109600000Y-49997830D01*
X109600000Y-49750002D01*
X109600000Y-49750001D01*
X109599999Y-49750000D01*
X109599998Y-49750000D01*
X108950002Y-49750000D01*
X108950001Y-49750000D01*
X108950000Y-49750001D01*
X108450000Y-49750001D01*
X108450000Y-47852140D01*
X108950000Y-47852140D01*
X108950000Y-49249999D01*
X108950001Y-49250000D01*
X109599998Y-49250000D01*
X109599999Y-49250000D01*
X109600000Y-49249999D01*
X109600000Y-49002175D01*
X109600000Y-49002169D01*
X109599980Y-49001855D01*
X109599785Y-49000184D01*
X109593598Y-48942628D01*
X109593596Y-48942621D01*
X109543353Y-48807912D01*
X109498637Y-48748179D01*
X109485935Y-48721630D01*
X109435584Y-48665581D01*
X109386006Y-48582028D01*
X109372175Y-48485862D01*
X109396195Y-48391731D01*
X109397378Y-48389257D01*
X109445931Y-48320639D01*
X109475502Y-48291067D01*
X109495357Y-48256201D01*
X109543353Y-48192087D01*
X109593596Y-48057378D01*
X109593598Y-48057371D01*
X109599537Y-48002127D01*
X109599901Y-47999216D01*
X109600000Y-47997830D01*
X109600000Y-47750002D01*
X109600000Y-47750001D01*
X109599999Y-47750000D01*
X109599998Y-47750000D01*
X109052141Y-47750000D01*
X109052140Y-47750000D01*
X108950000Y-47852140D01*
X108450000Y-47852140D01*
X108450000Y-47773527D01*
X108454783Y-47724957D01*
X108459290Y-47702295D01*
X108496467Y-47612535D01*
X108505283Y-47599339D01*
X108536237Y-47561621D01*
X108761621Y-47336237D01*
X108799342Y-47305282D01*
X108812529Y-47296471D01*
X108902287Y-47259292D01*
X108902290Y-47259291D01*
X108908871Y-47257981D01*
X108924957Y-47254783D01*
X108973527Y-47250000D01*
X109599998Y-47250000D01*
X109599999Y-47250000D01*
X109600000Y-47249999D01*
X109600000Y-47002175D01*
X109600000Y-47002169D01*
X109599980Y-47001855D01*
X109599785Y-47000184D01*
X109593598Y-46942628D01*
X109593596Y-46942621D01*
X109543352Y-46807909D01*
X109524584Y-46782839D01*
X109499306Y-46741087D01*
X109490305Y-46722274D01*
X109466277Y-46628137D01*
X109480103Y-46531971D01*
X109529669Y-46448427D01*
X109531515Y-46446372D01*
X109597418Y-46394225D01*
X109606587Y-46389219D01*
X109631997Y-46377616D01*
X109635331Y-46375796D01*
X109750546Y-46289546D01*
X109796460Y-46228211D01*
X109829396Y-46192195D01*
X109844731Y-46178420D01*
X109928285Y-46128847D01*
X110024451Y-46115021D01*
X110118588Y-46139048D01*
X110191843Y-46192371D01*
X110202964Y-46204104D01*
X110229279Y-46237059D01*
X110264348Y-46289543D01*
X110269625Y-46297440D01*
X110278211Y-46310289D01*
X110389711Y-46421789D01*
X110389714Y-46421791D01*
X110520819Y-46509393D01*
X110520820Y-46509393D01*
X110520821Y-46509394D01*
X110520824Y-46509395D01*
X110522874Y-46510765D01*
X110532110Y-46514070D01*
X110658361Y-46566364D01*
X110665169Y-46569472D01*
X110687524Y-46573918D01*
X110750132Y-46586372D01*
X110821158Y-46600500D01*
X110978842Y-46600500D01*
X111066831Y-46582996D01*
X111115411Y-46578212D01*
X111137480Y-46578212D01*
X111232768Y-46597166D01*
X111313550Y-46651142D01*
X111318774Y-46656366D01*
X111364353Y-46718978D01*
X111366172Y-46722532D01*
X111377814Y-46748955D01*
X111383132Y-46763211D01*
X111389704Y-46780831D01*
X111422716Y-46824930D01*
X111475954Y-46896046D01*
X111591169Y-46982296D01*
X111591174Y-46982297D01*
X111594560Y-46984147D01*
X111633381Y-47003146D01*
X111649751Y-47013258D01*
X111720859Y-47079461D01*
X111761219Y-47167836D01*
X111764687Y-47264929D01*
X111730735Y-47355958D01*
X111664532Y-47427066D01*
X111657228Y-47432137D01*
X111644339Y-47440749D01*
X111593032Y-47467008D01*
X111591174Y-47467700D01*
X111591168Y-47467704D01*
X111475962Y-47553946D01*
X111475946Y-47553962D01*
X111389704Y-47669168D01*
X111339408Y-47804016D01*
X111339407Y-47804022D01*
X111333000Y-47863616D01*
X111333000Y-49336495D01*
X111333211Y-49338324D01*
X111339407Y-49395973D01*
X111339409Y-49395985D01*
X111339411Y-49395990D01*
X111389613Y-49530588D01*
X111389614Y-49530592D01*
X111389701Y-49530827D01*
X111389704Y-49530831D01*
X111475954Y-49646046D01*
X111591169Y-49732296D01*
X111726017Y-49782591D01*
X111785627Y-49789000D01*
X113014372Y-49788999D01*
X113073983Y-49782591D01*
X113208831Y-49732296D01*
X113231562Y-49715278D01*
X113273320Y-49689995D01*
X113293234Y-49680468D01*
X113387372Y-49656444D01*
X113483527Y-49670269D01*
X113496068Y-49674693D01*
X113562452Y-49710175D01*
X113591408Y-49731851D01*
X113726121Y-49782096D01*
X113726128Y-49782098D01*
X113783684Y-49788285D01*
X113785355Y-49788480D01*
X113785670Y-49788500D01*
X113785675Y-49788500D01*
X114149998Y-49788500D01*
X114149999Y-49788500D01*
X114150000Y-49788499D01*
X114150000Y-48950741D01*
X114650000Y-48950741D01*
X114650000Y-49788499D01*
X114650001Y-49788500D01*
X114650002Y-49788500D01*
X115014325Y-49788500D01*
X115014331Y-49788500D01*
X115015716Y-49788401D01*
X115018627Y-49788037D01*
X115073871Y-49782098D01*
X115073878Y-49782096D01*
X115208587Y-49731853D01*
X115323687Y-49645689D01*
X115323689Y-49645687D01*
X115409853Y-49530587D01*
X115460096Y-49395878D01*
X115460098Y-49395871D01*
X115466037Y-49340627D01*
X115466401Y-49337716D01*
X115466500Y-49336330D01*
X115466500Y-48850002D01*
X115466500Y-48850001D01*
X115466499Y-48850000D01*
X115466498Y-48850000D01*
X114751554Y-48850000D01*
X114678425Y-48922542D01*
X114678401Y-48922567D01*
X114650000Y-48950741D01*
X114150000Y-48950741D01*
X114150000Y-48873527D01*
X114154783Y-48824957D01*
X114158173Y-48807912D01*
X114159290Y-48802293D01*
X114167354Y-48782822D01*
X114170888Y-48762042D01*
X114196463Y-48712543D01*
X114196466Y-48712536D01*
X114209028Y-48693735D01*
X114240704Y-48655296D01*
X114263931Y-48632255D01*
X114273563Y-48625874D01*
X114319308Y-48577499D01*
X114322607Y-48575158D01*
X114324867Y-48571806D01*
X114361517Y-48535449D01*
X114462043Y-48435726D01*
X114499059Y-48405471D01*
X114512528Y-48396471D01*
X114602282Y-48359292D01*
X114608871Y-48357981D01*
X114624957Y-48354783D01*
X114673527Y-48350000D01*
X115466498Y-48350000D01*
X115466499Y-48350000D01*
X115466500Y-48349999D01*
X115466500Y-47863675D01*
X115466500Y-47863669D01*
X115466480Y-47863355D01*
X115466285Y-47861684D01*
X115460098Y-47804128D01*
X115460096Y-47804121D01*
X115409853Y-47669412D01*
X115357399Y-47599342D01*
X115323692Y-47554315D01*
X115323690Y-47554314D01*
X115323688Y-47554311D01*
X115323679Y-47554303D01*
X115208584Y-47468144D01*
X115205878Y-47467135D01*
X115162040Y-47445678D01*
X115147669Y-47436801D01*
X115076561Y-47370599D01*
X115036200Y-47282225D01*
X115032731Y-47185132D01*
X115066682Y-47094102D01*
X115132880Y-47022997D01*
X115141236Y-47016972D01*
X115199847Y-46985646D01*
X115208831Y-46982296D01*
X115324046Y-46896046D01*
X115410296Y-46780831D01*
X115460591Y-46645983D01*
X115467000Y-46586373D01*
X115466999Y-45113628D01*
X115460591Y-45054017D01*
X115410296Y-44919169D01*
X115324046Y-44803954D01*
X115208831Y-44717704D01*
X115074564Y-44667625D01*
X115074514Y-44667598D01*
X115074512Y-44667606D01*
X115073982Y-44667408D01*
X115014380Y-44661000D01*
X115014376Y-44661000D01*
X115014373Y-44661000D01*
X114910035Y-44661000D01*
X114861455Y-44656215D01*
X114838793Y-44651707D01*
X114749034Y-44614526D01*
X114729827Y-44601692D01*
X114692096Y-44570728D01*
X114665771Y-44544403D01*
X114634807Y-44506672D01*
X114621973Y-44487465D01*
X114584792Y-44397706D01*
X114584790Y-44397696D01*
X114580283Y-44375034D01*
X114575500Y-44326464D01*
X114575500Y-44183072D01*
X114580284Y-44134497D01*
X114590239Y-44084447D01*
X114601153Y-44046009D01*
X114613636Y-44012544D01*
X114649091Y-43917483D01*
X114655500Y-43857873D01*
X114655499Y-42902128D01*
X114649091Y-42842517D01*
X114629265Y-42789363D01*
X114616773Y-42742180D01*
X114612709Y-42717094D01*
X114612973Y-42709685D01*
X114610793Y-42702591D01*
X114615195Y-42624339D01*
X114619218Y-42605847D01*
X114632478Y-42563502D01*
X114651174Y-42518368D01*
X114671658Y-42468914D01*
X114671657Y-42468914D01*
X114671659Y-42468912D01*
X114692857Y-42362339D01*
X114697027Y-42348409D01*
X114698281Y-42338379D01*
X114701148Y-42320657D01*
X114701572Y-42318524D01*
X114703541Y-42305246D01*
X114711582Y-42264824D01*
X114739421Y-42190188D01*
X114749892Y-42171800D01*
X114760137Y-42137575D01*
X114762848Y-42132456D01*
X114765377Y-42121969D01*
X114794091Y-42044983D01*
X114800500Y-41985373D01*
X114800499Y-40639628D01*
X114794091Y-40580017D01*
X114767946Y-40509919D01*
X114763276Y-40481100D01*
X114737917Y-40428084D01*
X114737918Y-40428084D01*
X114725635Y-40402407D01*
X114703200Y-40325960D01*
X114702434Y-40319863D01*
X114700500Y-40288884D01*
X114700500Y-39353993D01*
X114705284Y-39305419D01*
X114716920Y-39246917D01*
X114717634Y-39244067D01*
X114720433Y-39230000D01*
X114750500Y-39078842D01*
X114750500Y-38921158D01*
X114728489Y-38810500D01*
X114719738Y-38766507D01*
X114719737Y-38766505D01*
X114719737Y-38766503D01*
X114659394Y-38620821D01*
X114652164Y-38610001D01*
X114571791Y-38489714D01*
X114571789Y-38489711D01*
X114534151Y-38452073D01*
X114533602Y-38451124D01*
X114504472Y-38415627D01*
X114492884Y-38398284D01*
X114455707Y-38308526D01*
X114455710Y-38211371D01*
X114464992Y-38188961D01*
X114465113Y-38187098D01*
X114469232Y-38178726D01*
X114492888Y-38121618D01*
X114498649Y-38112996D01*
X114504733Y-38106576D01*
X114508007Y-38099924D01*
X114526132Y-38084000D01*
X114556462Y-38052001D01*
X114632546Y-37995046D01*
X114718796Y-37879831D01*
X114769091Y-37744983D01*
X114775500Y-37685373D01*
X114775499Y-36589628D01*
X114769091Y-36530017D01*
X114718796Y-36395169D01*
X114632546Y-36279954D01*
X114517331Y-36193704D01*
X114494831Y-36185312D01*
X114424751Y-36159173D01*
X114424749Y-36159173D01*
X114382481Y-36143408D01*
X114382475Y-36143407D01*
X114322880Y-36137000D01*
X114322876Y-36137000D01*
X114055498Y-36137000D01*
X114006917Y-36132215D01*
X113987121Y-36128277D01*
X113897362Y-36091096D01*
X113828664Y-36022396D01*
X113791486Y-35932636D01*
X113790657Y-35839857D01*
X113793247Y-35825500D01*
X113793715Y-35822905D01*
X113805457Y-35780106D01*
X113818596Y-35744878D01*
X113818598Y-35744871D01*
X113824537Y-35689627D01*
X113824901Y-35686716D01*
X113825000Y-35685330D01*
X113825000Y-35387502D01*
X113825000Y-35387501D01*
X113824999Y-35387500D01*
X113824998Y-35387500D01*
X113273527Y-35387500D01*
X113224947Y-35382715D01*
X113202285Y-35378207D01*
X113180897Y-35369347D01*
X113158143Y-35365084D01*
X113112524Y-35341025D01*
X113093729Y-35328466D01*
X113055298Y-35296797D01*
X113032258Y-35273572D01*
X113022683Y-35259118D01*
X112864427Y-35104346D01*
X112863487Y-35102972D01*
X112862103Y-35102044D01*
X112861754Y-35101692D01*
X112835727Y-35075456D01*
X112805461Y-35038425D01*
X112796469Y-35024967D01*
X112759291Y-34935207D01*
X112759290Y-34935204D01*
X112754783Y-34912542D01*
X112750000Y-34863972D01*
X112750000Y-34137502D01*
X112750000Y-34137501D01*
X113250000Y-34137501D01*
X113250000Y-34785946D01*
X113350741Y-34887500D01*
X113824998Y-34887500D01*
X113824999Y-34887500D01*
X113825000Y-34887499D01*
X113825000Y-34589675D01*
X113825000Y-34589669D01*
X113824980Y-34589355D01*
X113824785Y-34587684D01*
X113818598Y-34530128D01*
X113818596Y-34530121D01*
X113768353Y-34395412D01*
X113704260Y-34309795D01*
X113682192Y-34280315D01*
X113682190Y-34280313D01*
X113682189Y-34280312D01*
X113682187Y-34280310D01*
X113682185Y-34280308D01*
X113682183Y-34280306D01*
X113567088Y-34194147D01*
X113567087Y-34194146D01*
X113432378Y-34143903D01*
X113432379Y-34143903D01*
X113432373Y-34143901D01*
X113432371Y-34143901D01*
X113372836Y-34137500D01*
X113372832Y-34137500D01*
X113250001Y-34137500D01*
X113250000Y-34137501D01*
X112750000Y-34137501D01*
X112749999Y-34137500D01*
X112749998Y-34137500D01*
X112627162Y-34137500D01*
X112567627Y-34143901D01*
X112567625Y-34143901D01*
X112495450Y-34170821D01*
X112432912Y-34194146D01*
X112432911Y-34194146D01*
X112432910Y-34194147D01*
X112317815Y-34280306D01*
X112317808Y-34280313D01*
X112231647Y-34395409D01*
X112231641Y-34395419D01*
X112221818Y-34421758D01*
X112200364Y-34465594D01*
X112190239Y-34481986D01*
X112124038Y-34553095D01*
X112035664Y-34593457D01*
X111938571Y-34596928D01*
X111847541Y-34562979D01*
X111834376Y-34554847D01*
X111789168Y-34519077D01*
X106324365Y-29054275D01*
X106155255Y-28885165D01*
X111183250Y-28885165D01*
X111183250Y-29154833D01*
X111213435Y-29422721D01*
X111213436Y-29422727D01*
X111213437Y-29422731D01*
X111229998Y-29495288D01*
X111273434Y-29685591D01*
X111273435Y-29685593D01*
X111273438Y-29685602D01*
X111296658Y-29751962D01*
X111362475Y-29940060D01*
X111362478Y-29940068D01*
X111362479Y-29940070D01*
X111362485Y-29940084D01*
X111398663Y-30015207D01*
X111398664Y-30015209D01*
X111477102Y-30178091D01*
X111478857Y-30181949D01*
X111479851Y-30183926D01*
X111483170Y-30188894D01*
X111509846Y-30231347D01*
X111612805Y-30395204D01*
X111612804Y-30395204D01*
X111622909Y-30411286D01*
X111622911Y-30411288D01*
X111791011Y-30622079D01*
X111791028Y-30622098D01*
X111981664Y-30812733D01*
X112041498Y-30860449D01*
X112066211Y-30880157D01*
X112192461Y-30980838D01*
X112384630Y-31101587D01*
X112417918Y-31122503D01*
X112420456Y-31124146D01*
X112421492Y-31124640D01*
X112662197Y-31240557D01*
X112663737Y-31241311D01*
X112665166Y-31241809D01*
X112665273Y-31241827D01*
X112918159Y-31330316D01*
X113145828Y-31382280D01*
X113181018Y-31390312D01*
X113181025Y-31390312D01*
X113181026Y-31390313D01*
X113215123Y-31394154D01*
X113448928Y-31420499D01*
X113448936Y-31420499D01*
X113448938Y-31420500D01*
X113718559Y-31420500D01*
X113718560Y-31420500D01*
X113718562Y-31420499D01*
X113718571Y-31420499D01*
X113921530Y-31397630D01*
X113986482Y-31390312D01*
X113986485Y-31390311D01*
X113986487Y-31390311D01*
X114026054Y-31381280D01*
X114249341Y-31330316D01*
X114503829Y-31241267D01*
X114746747Y-31124284D01*
X114975039Y-30980838D01*
X115185835Y-30812734D01*
X115376484Y-30622085D01*
X115544588Y-30411289D01*
X115688034Y-30182997D01*
X115805017Y-29940079D01*
X115894066Y-29685591D01*
X115954062Y-29422732D01*
X115971325Y-29269520D01*
X115984249Y-29154821D01*
X115984250Y-29154808D01*
X115984250Y-28885191D01*
X115984249Y-28885178D01*
X115954062Y-28617268D01*
X115945358Y-28579134D01*
X115941271Y-28561227D01*
X115941269Y-28561221D01*
X115939519Y-28553553D01*
X115894066Y-28354409D01*
X115805611Y-28101619D01*
X115805020Y-28099929D01*
X115805014Y-28099915D01*
X115800597Y-28090744D01*
X115795600Y-28080367D01*
X115795598Y-28080363D01*
X115775098Y-28037795D01*
X115688334Y-27857627D01*
X115687894Y-27856704D01*
X115686253Y-27854168D01*
X115635148Y-27772835D01*
X115544588Y-27628711D01*
X115537828Y-27620235D01*
X115537823Y-27620225D01*
X115537822Y-27620227D01*
X115376484Y-27417915D01*
X115293469Y-27334900D01*
X115185848Y-27227278D01*
X115185839Y-27227270D01*
X115185835Y-27227266D01*
X115065001Y-27130904D01*
X114975038Y-27059161D01*
X114746755Y-26915720D01*
X114746749Y-26915717D01*
X114746747Y-26915716D01*
X114610794Y-26850244D01*
X114503834Y-26798735D01*
X114503820Y-26798729D01*
X114315711Y-26732908D01*
X114308132Y-26730256D01*
X114308118Y-26730250D01*
X114249346Y-26709685D01*
X114207820Y-26700206D01*
X114140719Y-26684891D01*
X114140718Y-26684890D01*
X113986482Y-26649686D01*
X113718583Y-26619500D01*
X113718571Y-26619500D01*
X113718559Y-26619500D01*
X113448941Y-26619500D01*
X113448928Y-26619500D01*
X113448915Y-26619500D01*
X113181016Y-26649686D01*
X112981166Y-26695301D01*
X112981167Y-26695302D01*
X112981163Y-26695303D01*
X112945512Y-26703440D01*
X112899839Y-26708586D01*
X112877556Y-26723476D01*
X112864509Y-26728456D01*
X112663689Y-26798724D01*
X112663664Y-26798735D01*
X112425673Y-26913346D01*
X112422640Y-26914725D01*
X112420748Y-26915717D01*
X112192457Y-27059163D01*
X111981686Y-27227248D01*
X111981664Y-27227266D01*
X111791016Y-27417914D01*
X111790998Y-27417936D01*
X111622913Y-27628707D01*
X111479467Y-27856998D01*
X111478475Y-27858890D01*
X111477096Y-27861923D01*
X111362485Y-28099914D01*
X111362476Y-28099934D01*
X111273436Y-28354399D01*
X111273428Y-28354427D01*
X111259052Y-28417411D01*
X111259053Y-28417412D01*
X111213436Y-28617266D01*
X111183250Y-28885165D01*
X106155255Y-28885165D01*
X105071359Y-27801269D01*
X105071358Y-27801267D01*
X105042922Y-27772831D01*
X105039089Y-27767094D01*
X104944529Y-27674970D01*
X104915610Y-27641266D01*
X104904840Y-27626176D01*
X104863274Y-27544595D01*
X104747578Y-27385354D01*
X104608396Y-27246172D01*
X104582380Y-27227270D01*
X104524337Y-27185099D01*
X104524334Y-27185097D01*
X106033250Y-27185097D01*
X106033250Y-27334903D01*
X106052063Y-27429483D01*
X106062476Y-27481834D01*
X106119796Y-27620219D01*
X106119799Y-27620225D01*
X106119800Y-27620227D01*
X106119803Y-27620232D01*
X106125469Y-27628712D01*
X106166422Y-27690004D01*
X106166421Y-27690004D01*
X106203023Y-27744782D01*
X106203028Y-27744787D01*
X106203031Y-27744791D01*
X106308959Y-27850719D01*
X106433518Y-27933947D01*
X106433519Y-27933947D01*
X106435569Y-27935317D01*
X106444790Y-27938616D01*
X106502719Y-27962611D01*
X106571920Y-27991275D01*
X106718847Y-28020500D01*
X106718850Y-28020500D01*
X106868650Y-28020500D01*
X106868653Y-28020500D01*
X107015580Y-27991275D01*
X107153982Y-27933947D01*
X107278541Y-27850719D01*
X107384469Y-27744791D01*
X107467697Y-27620232D01*
X107467703Y-27620219D01*
X107525024Y-27481832D01*
X107525025Y-27481830D01*
X107554250Y-27334903D01*
X107554250Y-27185097D01*
X107525025Y-27038170D01*
X107474305Y-26915720D01*
X107474303Y-26915716D01*
X107469175Y-26903335D01*
X107467699Y-26899772D01*
X107467696Y-26899767D01*
X107463372Y-26893296D01*
X107384469Y-26775209D01*
X107278541Y-26669281D01*
X107278537Y-26669278D01*
X107154005Y-26586068D01*
X107153994Y-26586061D01*
X107153982Y-26586053D01*
X107153977Y-26586050D01*
X107153967Y-26586046D01*
X107123912Y-26573597D01*
X107023735Y-26532102D01*
X107017143Y-26529093D01*
X106998027Y-26524580D01*
X106991529Y-26523941D01*
X106974330Y-26520520D01*
X106868653Y-26499500D01*
X106868651Y-26499500D01*
X106718845Y-26499500D01*
X106576250Y-26527863D01*
X106572445Y-26528549D01*
X106571905Y-26528729D01*
X106433529Y-26586046D01*
X106433523Y-26586049D01*
X106433492Y-26586068D01*
X106308965Y-26669275D01*
X106203025Y-26775215D01*
X106119818Y-26899742D01*
X106119799Y-26899773D01*
X106119796Y-26899779D01*
X106062479Y-27038155D01*
X106062299Y-27038695D01*
X106061613Y-27042500D01*
X106038974Y-27156318D01*
X106033250Y-27185097D01*
X104524334Y-27185097D01*
X104449171Y-27130486D01*
X104449168Y-27130484D01*
X104449162Y-27130480D01*
X104449160Y-27130479D01*
X104449157Y-27130477D01*
X104449155Y-27130476D01*
X104449149Y-27130472D01*
X104449089Y-27130438D01*
X104448367Y-27130074D01*
X104308914Y-27059020D01*
X104298189Y-27051228D01*
X104249358Y-27031001D01*
X104236265Y-27028928D01*
X104166678Y-27006318D01*
X104166677Y-27006317D01*
X104104304Y-26986051D01*
X104095233Y-26982334D01*
X104076774Y-26977976D01*
X104067214Y-26977224D01*
X103892192Y-26949503D01*
X103892185Y-26949502D01*
X103892178Y-26949501D01*
X103892169Y-26949500D01*
X103892168Y-26949500D01*
X103695331Y-26949500D01*
X103695330Y-26949500D01*
X103695321Y-26949501D01*
X103695315Y-26949501D01*
X103695306Y-26949503D01*
X103500929Y-26980289D01*
X103313743Y-27041109D01*
X103313731Y-27041113D01*
X103313729Y-27041113D01*
X103313726Y-27041115D01*
X103222490Y-27087602D01*
X103222488Y-27087603D01*
X103222486Y-27087603D01*
X103155794Y-27121583D01*
X103143191Y-27126803D01*
X103130426Y-27135368D01*
X103129782Y-27135765D01*
X103122491Y-27141993D01*
X102979107Y-27246169D01*
X102839919Y-27385357D01*
X102735743Y-27528741D01*
X102729515Y-27536032D01*
X102729118Y-27536676D01*
X102719277Y-27551344D01*
X102715331Y-27562052D01*
X102634864Y-27719976D01*
X102634863Y-27719980D01*
X102634859Y-27719993D01*
X102574039Y-27907179D01*
X102543251Y-28101565D01*
X102543251Y-28101567D01*
X102543250Y-28101593D01*
X102543250Y-28298406D01*
X102543251Y-28298431D01*
X102543251Y-28298433D01*
X102574037Y-28492809D01*
X102574039Y-28492816D01*
X102574040Y-28492822D01*
X102596266Y-28561227D01*
X102634835Y-28679933D01*
X102634862Y-28680016D01*
X102634863Y-28680017D01*
X102634866Y-28680025D01*
X102694337Y-28796745D01*
X102715336Y-28837958D01*
X102720510Y-28850451D01*
X102720517Y-28850461D01*
X102723091Y-28853893D01*
X102725331Y-28856927D01*
X102771111Y-28919936D01*
X102771113Y-28919940D01*
X102839913Y-29014636D01*
X102839919Y-29014642D01*
X102839922Y-29014646D01*
X102979104Y-29153828D01*
X102979107Y-29153830D01*
X102979109Y-29153832D01*
X102981232Y-29155573D01*
X102983172Y-29156783D01*
X103137755Y-29269096D01*
X103138345Y-29269524D01*
X103313725Y-29358884D01*
X103500924Y-29419709D01*
X103695333Y-29450500D01*
X103695337Y-29450500D01*
X103892163Y-29450500D01*
X103892167Y-29450500D01*
X104086576Y-29419709D01*
X104273775Y-29358884D01*
X104449155Y-29269524D01*
X104449165Y-29269516D01*
X104457500Y-29264410D01*
X104458848Y-29266610D01*
X104462094Y-29265111D01*
X104485450Y-29249065D01*
X104505497Y-29239823D01*
X104529255Y-29234118D01*
X104531481Y-29233092D01*
X104533938Y-29232994D01*
X104599965Y-29217141D01*
X104695924Y-29232338D01*
X104695928Y-29232339D01*
X104702645Y-29234817D01*
X104770608Y-29272875D01*
X104774077Y-29275610D01*
X104795995Y-29295086D01*
X110269997Y-34769088D01*
X110300960Y-34806817D01*
X110310345Y-34820862D01*
X110347527Y-34910620D01*
X110347529Y-35007775D01*
X110310351Y-35097536D01*
X110241653Y-35166236D01*
X110151904Y-35203416D01*
X110135334Y-35206713D01*
X110086742Y-35211500D01*
X109800001Y-35211500D01*
X109800000Y-35211501D01*
X109800000Y-37588499D01*
X109800001Y-37588500D01*
X109800002Y-37588500D01*
X110164325Y-37588500D01*
X110164331Y-37588500D01*
X110165716Y-37588401D01*
X110168627Y-37588037D01*
X110223871Y-37582098D01*
X110223878Y-37582096D01*
X110358587Y-37531853D01*
X110473687Y-37445689D01*
X110473689Y-37445687D01*
X110559853Y-37330588D01*
X110584816Y-37263656D01*
X110606274Y-37219817D01*
X110616400Y-37203424D01*
X110682602Y-37132316D01*
X110770976Y-37091955D01*
X110868069Y-37088486D01*
X110959096Y-37122435D01*
X110972250Y-37130560D01*
X111017467Y-37166335D01*
X111134228Y-37283096D01*
X111165197Y-37320834D01*
X111178032Y-37340044D01*
X111215206Y-37429788D01*
X111219713Y-37452441D01*
X111221006Y-37459461D01*
X111224500Y-37480097D01*
X111224500Y-37685365D01*
X111224500Y-37685368D01*
X111224501Y-37685372D01*
X111224866Y-37688767D01*
X111230908Y-37744980D01*
X111230909Y-37744984D01*
X111281202Y-37879827D01*
X111281203Y-37879829D01*
X111281204Y-37879831D01*
X111281207Y-37879835D01*
X111295388Y-37898778D01*
X111296150Y-37903277D01*
X111310419Y-37926841D01*
X111312423Y-37931030D01*
X111324349Y-37955956D01*
X111346790Y-38032368D01*
X111347556Y-38038462D01*
X111349500Y-38069516D01*
X111349500Y-38246005D01*
X111344714Y-38294588D01*
X111332373Y-38356623D01*
X111331333Y-38361112D01*
X111299500Y-38521148D01*
X111299500Y-38678850D01*
X111330260Y-38833490D01*
X111330282Y-38833544D01*
X111390587Y-38979134D01*
X111390607Y-38979182D01*
X111404535Y-39000026D01*
X111475959Y-39106919D01*
X111478211Y-39110289D01*
X111478213Y-39110291D01*
X111485971Y-39119744D01*
X111485574Y-39120069D01*
X111505479Y-39144324D01*
X111517065Y-39161664D01*
X111554244Y-39251424D01*
X111554243Y-39348579D01*
X111517069Y-39438329D01*
X111505483Y-39455670D01*
X111474514Y-39493406D01*
X111454295Y-39513627D01*
X111454294Y-39513626D01*
X111428209Y-39539711D01*
X111428207Y-39539715D01*
X111340606Y-39670817D01*
X111340587Y-39670864D01*
X111280282Y-39816454D01*
X111280260Y-39816508D01*
X111249500Y-39971148D01*
X111249500Y-40043683D01*
X111248142Y-40050509D01*
X111248122Y-40165761D01*
X111229151Y-40261046D01*
X111175161Y-40341818D01*
X111094370Y-40395781D01*
X110999096Y-40414718D01*
X110979839Y-40414716D01*
X110931286Y-40409931D01*
X110878848Y-40399500D01*
X110866673Y-40398301D01*
X110866785Y-40397161D01*
X110841941Y-40394714D01*
X110821483Y-40390644D01*
X110731725Y-40353462D01*
X110663028Y-40284761D01*
X110625852Y-40195003D01*
X110621783Y-40174545D01*
X110616999Y-40125972D01*
X110616999Y-39513632D01*
X110616998Y-39513627D01*
X110610591Y-39454017D01*
X110560296Y-39319169D01*
X110474046Y-39203954D01*
X110358831Y-39117704D01*
X110338956Y-39110291D01*
X110278616Y-39087785D01*
X110278616Y-39087784D01*
X110223982Y-39067408D01*
X110212059Y-39066126D01*
X110164373Y-39061000D01*
X110164369Y-39061000D01*
X108929885Y-39061000D01*
X108920166Y-39062662D01*
X108876019Y-39067408D01*
X108876015Y-39067409D01*
X108741167Y-39117703D01*
X108718854Y-39134408D01*
X108677087Y-39159696D01*
X108657181Y-39169219D01*
X108563043Y-39193243D01*
X108466882Y-39179416D01*
X108454342Y-39174992D01*
X108387961Y-39139510D01*
X108351974Y-39112570D01*
X108341529Y-39104305D01*
X108321762Y-39087785D01*
X108318622Y-39085161D01*
X108257679Y-39009546D01*
X108255364Y-39005122D01*
X108229516Y-38925094D01*
X108228032Y-38914767D01*
X108225500Y-38879349D01*
X108225500Y-37777365D01*
X108230283Y-37728795D01*
X108234790Y-37706133D01*
X108271963Y-37616378D01*
X108274740Y-37612222D01*
X108332584Y-37551202D01*
X108337725Y-37547353D01*
X108343285Y-37543933D01*
X108358828Y-37532296D01*
X108358831Y-37532296D01*
X108381562Y-37515278D01*
X108423320Y-37489995D01*
X108443234Y-37480468D01*
X108537372Y-37456444D01*
X108633526Y-37470268D01*
X108645316Y-37474428D01*
X108646068Y-37474693D01*
X108712451Y-37510175D01*
X108740912Y-37531480D01*
X108741408Y-37531851D01*
X108876121Y-37582096D01*
X108876128Y-37582098D01*
X108933684Y-37588285D01*
X108935355Y-37588480D01*
X108935670Y-37588500D01*
X108935675Y-37588500D01*
X109299998Y-37588500D01*
X109299999Y-37588500D01*
X109300000Y-37588499D01*
X109300000Y-35211501D01*
X109299999Y-35211500D01*
X109299998Y-35211500D01*
X108935662Y-35211500D01*
X108876127Y-35217901D01*
X108876124Y-35217902D01*
X108741404Y-35268149D01*
X108719262Y-35284725D01*
X108677516Y-35310001D01*
X108657611Y-35319525D01*
X108563475Y-35343555D01*
X108467308Y-35329731D01*
X108467305Y-35329730D01*
X108454764Y-35325306D01*
X108388380Y-35289823D01*
X108358837Y-35267707D01*
X108358347Y-35267451D01*
X108354727Y-35266173D01*
X108223980Y-35217407D01*
X108179842Y-35212663D01*
X108164373Y-35211000D01*
X108164369Y-35211000D01*
X106929885Y-35211000D01*
X106920166Y-35212662D01*
X106876019Y-35217408D01*
X106876015Y-35217409D01*
X106741170Y-35267703D01*
X106741169Y-35267703D01*
X106741168Y-35267704D01*
X106625958Y-35353949D01*
X106625957Y-35353951D01*
X106625954Y-35353953D01*
X106625946Y-35353962D01*
X106539704Y-35469168D01*
X106489408Y-35604016D01*
X106489407Y-35604022D01*
X106483000Y-35663616D01*
X106483000Y-35984714D01*
X106478215Y-36033296D01*
X106474455Y-36052197D01*
X106437273Y-36141956D01*
X106368573Y-36210653D01*
X106278813Y-36247831D01*
X106181658Y-36247830D01*
X106181657Y-36247830D01*
X106178279Y-36247158D01*
X106103660Y-36219328D01*
X106100383Y-36217462D01*
X106098321Y-36216288D01*
X106072312Y-36199244D01*
X106022089Y-36161647D01*
X105887378Y-36111403D01*
X105887372Y-36111401D01*
X105887369Y-36111400D01*
X105827836Y-36105000D01*
X105827832Y-36105000D01*
X105759138Y-36105000D01*
X105680000Y-36343122D01*
X105680000Y-36359393D01*
X105680000Y-38352333D01*
X105675215Y-38400913D01*
X105670707Y-38423575D01*
X105660466Y-38448295D01*
X105654770Y-38474445D01*
X105633526Y-38513334D01*
X105620692Y-38532541D01*
X105589730Y-38570269D01*
X105550000Y-38609999D01*
X105550000Y-38610001D01*
X105550000Y-38628446D01*
X105650741Y-38730000D01*
X106202998Y-38730000D01*
X106202999Y-38730000D01*
X106203000Y-38729999D01*
X106203000Y-38500175D01*
X106203000Y-38500169D01*
X106202980Y-38499855D01*
X106202785Y-38498184D01*
X106196598Y-38440628D01*
X106196596Y-38440621D01*
X106176055Y-38385546D01*
X106163565Y-38338369D01*
X106159869Y-38315556D01*
X106163334Y-38218489D01*
X106165532Y-38209187D01*
X106193745Y-38139334D01*
X106194677Y-38137764D01*
X106209453Y-38115654D01*
X106223353Y-38097088D01*
X106273596Y-37962378D01*
X106273598Y-37962371D01*
X106279537Y-37907127D01*
X106279901Y-37904216D01*
X106280000Y-37902830D01*
X106280000Y-37709034D01*
X106284783Y-37660464D01*
X106288542Y-37641563D01*
X106325719Y-37551803D01*
X106394415Y-37483102D01*
X106484174Y-37445919D01*
X106581329Y-37445916D01*
X106581355Y-37445921D01*
X106584732Y-37446593D01*
X106659351Y-37474428D01*
X106664686Y-37477466D01*
X106690693Y-37494510D01*
X106726911Y-37521623D01*
X106733655Y-37527466D01*
X106733679Y-37527482D01*
X106740283Y-37532067D01*
X106745319Y-37533844D01*
X106789542Y-37550337D01*
X106833384Y-37571796D01*
X106850059Y-37582097D01*
X106852162Y-37583396D01*
X106923268Y-37649600D01*
X106963623Y-37737963D01*
X106967138Y-37752838D01*
X106967824Y-37755738D01*
X106974500Y-37813010D01*
X106974500Y-38833264D01*
X106971189Y-38849908D01*
X106972225Y-38866848D01*
X106969715Y-38881845D01*
X106965408Y-38903496D01*
X106956023Y-38926150D01*
X106955546Y-38928552D01*
X106954185Y-38930587D01*
X106928227Y-38993255D01*
X106859527Y-39061953D01*
X106859521Y-39061957D01*
X106844335Y-39072103D01*
X106793026Y-39098361D01*
X106746533Y-39115702D01*
X106741171Y-39117702D01*
X106635866Y-39196534D01*
X106625954Y-39203954D01*
X106625950Y-39203958D01*
X106625940Y-39203969D01*
X106620626Y-39211068D01*
X106587690Y-39247080D01*
X106572176Y-39261015D01*
X106488621Y-39310589D01*
X106392454Y-39324414D01*
X106298318Y-39300385D01*
X106298309Y-39300381D01*
X106288959Y-39295907D01*
X106220368Y-39247368D01*
X106203000Y-39230000D01*
X106202999Y-39230000D01*
X105573527Y-39230000D01*
X105524947Y-39225215D01*
X105502285Y-39220707D01*
X105480897Y-39211847D01*
X105458143Y-39207584D01*
X105412524Y-39183525D01*
X105393729Y-39170966D01*
X105355298Y-39139297D01*
X105332258Y-39116072D01*
X105322683Y-39101618D01*
X105164427Y-38946846D01*
X105163487Y-38945472D01*
X105162103Y-38944544D01*
X105161754Y-38944192D01*
X105135727Y-38917956D01*
X105105461Y-38880925D01*
X105096469Y-38867467D01*
X105059291Y-38777707D01*
X105059290Y-38777704D01*
X105054783Y-38755042D01*
X105050000Y-38706472D01*
X105050000Y-38050666D01*
X105050302Y-38047595D01*
X105050041Y-38046144D01*
X105050778Y-38042757D01*
X105054783Y-38002096D01*
X105059290Y-37979434D01*
X105070438Y-37952516D01*
X105070722Y-37951216D01*
X105071354Y-37950305D01*
X105096467Y-37889674D01*
X105096473Y-37889665D01*
X105109307Y-37870458D01*
X105140266Y-37832732D01*
X105180000Y-37792999D01*
X105180000Y-36330027D01*
X105184783Y-36281455D01*
X105189504Y-36257719D01*
X105197590Y-36238197D01*
X105201143Y-36217361D01*
X105219104Y-36170388D01*
X105273796Y-36097331D01*
X105324091Y-35962483D01*
X105330500Y-35902873D01*
X105330499Y-34557128D01*
X105324091Y-34497517D01*
X105273796Y-34362669D01*
X105187546Y-34247454D01*
X105072331Y-34161204D01*
X104969815Y-34122968D01*
X104969815Y-34122967D01*
X104969813Y-34122967D01*
X104937481Y-34110908D01*
X104877873Y-34104500D01*
X104877869Y-34104500D01*
X104076385Y-34104500D01*
X104066669Y-34106162D01*
X104035477Y-34109515D01*
X104022518Y-34110908D01*
X104022511Y-34110911D01*
X104013150Y-34114402D01*
X103965970Y-34126890D01*
X103943168Y-34130584D01*
X103846420Y-34127194D01*
X103846024Y-34127101D01*
X103760937Y-34089226D01*
X103745403Y-34078440D01*
X103711348Y-34049980D01*
X101885182Y-32223814D01*
X101875230Y-32208920D01*
X101861909Y-32196953D01*
X101854217Y-32186083D01*
X101842572Y-32168655D01*
X101841954Y-32167730D01*
X101832568Y-32145070D01*
X101831206Y-32143032D01*
X101830727Y-32140627D01*
X101804775Y-32077973D01*
X101804773Y-31980821D01*
X101806171Y-31973793D01*
X101833147Y-31900682D01*
X101835305Y-31896828D01*
X101851099Y-31872160D01*
X101863274Y-31855405D01*
X101952634Y-31680025D01*
X102013459Y-31492826D01*
X102044250Y-31298417D01*
X102044250Y-31101583D01*
X102013459Y-30907174D01*
X101978542Y-30799712D01*
X101978392Y-30799251D01*
X101955654Y-30729267D01*
X101953528Y-30721731D01*
X101952634Y-30719976D01*
X101952634Y-30719975D01*
X101916972Y-30649983D01*
X102543250Y-30649983D01*
X102543250Y-31750015D01*
X102552462Y-31840178D01*
X102552806Y-31846947D01*
X102553750Y-31852795D01*
X102553751Y-31852797D01*
X102553751Y-31852798D01*
X102608936Y-32019334D01*
X102636320Y-32063730D01*
X102683750Y-32140627D01*
X102691893Y-32153828D01*
X102701039Y-32168655D01*
X102825095Y-32292711D01*
X102974416Y-32384814D01*
X103140953Y-32439999D01*
X103243742Y-32450500D01*
X103243751Y-32450500D01*
X104343749Y-32450500D01*
X104343758Y-32450500D01*
X104446547Y-32439999D01*
X104613084Y-32384814D01*
X104762405Y-32292711D01*
X104886461Y-32168655D01*
X104978564Y-32019334D01*
X105033749Y-31852797D01*
X105044250Y-31750008D01*
X105044250Y-30649992D01*
X105033749Y-30547203D01*
X104978564Y-30380666D01*
X104886461Y-30231345D01*
X104762405Y-30107289D01*
X104762402Y-30107287D01*
X104762400Y-30107285D01*
X104754683Y-30102525D01*
X104687149Y-30039728D01*
X104507775Y-29980290D01*
X104507774Y-29980289D01*
X104487485Y-29973566D01*
X104446546Y-29960000D01*
X104425993Y-29957900D01*
X104425989Y-29957900D01*
X104343762Y-29949500D01*
X104343759Y-29949500D01*
X103243734Y-29949500D01*
X103223319Y-29951585D01*
X103170321Y-29957000D01*
X103170318Y-29957000D01*
X103153575Y-29958711D01*
X103146806Y-29959055D01*
X103140953Y-29960000D01*
X103086706Y-29977976D01*
X102974415Y-30015186D01*
X102974413Y-30015186D01*
X102974413Y-30015187D01*
X102825099Y-30107285D01*
X102701035Y-30231349D01*
X102608937Y-30380663D01*
X102608936Y-30380665D01*
X102598788Y-30411289D01*
X102553750Y-30547203D01*
X102552806Y-30553051D01*
X102552462Y-30559820D01*
X102543250Y-30649983D01*
X101916972Y-30649983D01*
X101863274Y-30544595D01*
X101857520Y-30536676D01*
X101747577Y-30385353D01*
X101608402Y-30246177D01*
X101608394Y-30246170D01*
X101587992Y-30231347D01*
X101587988Y-30231345D01*
X101547480Y-30201914D01*
X101529570Y-30188901D01*
X101449170Y-30130486D01*
X101449167Y-30130484D01*
X101449160Y-30130479D01*
X101449157Y-30130477D01*
X101449155Y-30130476D01*
X101449144Y-30130470D01*
X101449089Y-30130438D01*
X101448367Y-30130074D01*
X101308914Y-30059020D01*
X101298189Y-30051228D01*
X101249358Y-30031001D01*
X101236265Y-30028928D01*
X101166678Y-30006318D01*
X101166677Y-30006317D01*
X101104304Y-29986051D01*
X101095233Y-29982334D01*
X101076774Y-29977976D01*
X101067214Y-29977224D01*
X100892192Y-29949503D01*
X100892185Y-29949502D01*
X100892178Y-29949501D01*
X100892169Y-29949500D01*
X100892168Y-29949500D01*
X100695331Y-29949500D01*
X100695330Y-29949500D01*
X100695321Y-29949501D01*
X100695315Y-29949501D01*
X100695306Y-29949503D01*
X100500929Y-29980289D01*
X100313743Y-30041109D01*
X100313731Y-30041113D01*
X100313729Y-30041113D01*
X100313726Y-30041115D01*
X100222490Y-30087602D01*
X100222488Y-30087603D01*
X100222486Y-30087603D01*
X100155794Y-30121583D01*
X100143191Y-30126803D01*
X100130426Y-30135368D01*
X100129782Y-30135765D01*
X100122491Y-30141993D01*
X99979107Y-30246169D01*
X99839919Y-30385357D01*
X99735743Y-30528741D01*
X99729515Y-30536032D01*
X99729118Y-30536676D01*
X99720554Y-30549439D01*
X99715332Y-30562048D01*
X99684746Y-30622078D01*
X99684745Y-30622079D01*
X99634867Y-30719970D01*
X99634862Y-30719981D01*
X99574039Y-30907179D01*
X99543251Y-31101565D01*
X99543251Y-31101567D01*
X99543250Y-31101593D01*
X99543250Y-31262464D01*
X99538456Y-31311087D01*
X99538055Y-31313101D01*
X99500859Y-31402854D01*
X99432147Y-31471540D01*
X99342381Y-31508703D01*
X99245226Y-31508684D01*
X99155473Y-31471488D01*
X99086787Y-31402776D01*
X99049625Y-31313015D01*
X99049026Y-31310001D01*
X99044250Y-31261464D01*
X99044250Y-31101583D01*
X99044249Y-31101578D01*
X99043007Y-31093736D01*
X99043006Y-31093730D01*
X99013459Y-30907174D01*
X98952634Y-30719975D01*
X98863274Y-30544595D01*
X98857520Y-30536676D01*
X98747577Y-30385353D01*
X98608402Y-30246177D01*
X98608394Y-30246170D01*
X98587992Y-30231347D01*
X98587988Y-30231345D01*
X98547480Y-30201914D01*
X98529570Y-30188901D01*
X98449170Y-30130486D01*
X98449167Y-30130484D01*
X98449160Y-30130479D01*
X98449157Y-30130477D01*
X98449155Y-30130476D01*
X98449144Y-30130470D01*
X98449089Y-30130438D01*
X98448367Y-30130074D01*
X98308914Y-30059020D01*
X98298189Y-30051228D01*
X98249358Y-30031001D01*
X98236265Y-30028928D01*
X98166678Y-30006318D01*
X98166677Y-30006317D01*
X98104304Y-29986051D01*
X98095233Y-29982334D01*
X98076774Y-29977976D01*
X98067214Y-29977224D01*
X97892192Y-29949503D01*
X97892185Y-29949502D01*
X97892178Y-29949501D01*
X97892169Y-29949500D01*
X97892168Y-29949500D01*
X97695331Y-29949500D01*
X97695330Y-29949500D01*
X97695321Y-29949501D01*
X97695315Y-29949501D01*
X97695306Y-29949503D01*
X97500929Y-29980289D01*
X97313743Y-30041109D01*
X97313731Y-30041113D01*
X97313729Y-30041113D01*
X97313726Y-30041115D01*
X97222490Y-30087602D01*
X97222488Y-30087603D01*
X97222486Y-30087603D01*
X97155794Y-30121583D01*
X97143191Y-30126803D01*
X97130426Y-30135368D01*
X97129782Y-30135765D01*
X97122491Y-30141993D01*
X96979107Y-30246169D01*
X96839919Y-30385357D01*
X96735743Y-30528741D01*
X96729515Y-30536032D01*
X96729118Y-30536676D01*
X96720554Y-30549439D01*
X96715332Y-30562048D01*
X96684746Y-30622078D01*
X96684745Y-30622079D01*
X96634867Y-30719970D01*
X96634862Y-30719981D01*
X96574039Y-30907179D01*
X96543251Y-31101565D01*
X96543251Y-31101567D01*
X96543250Y-31101593D01*
X96543250Y-31298406D01*
X96543251Y-31298431D01*
X96543251Y-31298433D01*
X96572492Y-31483050D01*
X96574040Y-31492825D01*
X96614490Y-31617314D01*
X96634866Y-31680025D01*
X96674936Y-31758667D01*
X96715334Y-31837954D01*
X96720511Y-31850453D01*
X96723067Y-31853861D01*
X96725307Y-31856894D01*
X96782137Y-31935113D01*
X96782138Y-31935114D01*
X96834269Y-32006865D01*
X96839922Y-32014646D01*
X96979104Y-32153828D01*
X96999509Y-32168653D01*
X97089585Y-32234098D01*
X97138345Y-32269524D01*
X97313725Y-32358884D01*
X97500924Y-32419709D01*
X97695333Y-32450500D01*
X97695337Y-32450500D01*
X97855215Y-32450500D01*
X97903787Y-32455283D01*
X97909528Y-32456424D01*
X97926449Y-32459790D01*
X98016208Y-32496968D01*
X98016215Y-32496973D01*
X98035422Y-32509807D01*
X98073153Y-32540771D01*
X99768307Y-34235924D01*
X99799271Y-34273655D01*
X99812105Y-34292862D01*
X99849286Y-34382619D01*
X99852082Y-34396674D01*
X99855440Y-34471874D01*
X99849500Y-34527119D01*
X99849500Y-35800972D01*
X99844715Y-35849555D01*
X99840645Y-35870014D01*
X99803463Y-35959772D01*
X99734763Y-36028470D01*
X99645019Y-36065644D01*
X99630418Y-36068548D01*
X99624565Y-36069713D01*
X99575979Y-36074500D01*
X99346385Y-36074500D01*
X99336666Y-36076162D01*
X99292519Y-36080908D01*
X99292515Y-36080909D01*
X99157670Y-36131203D01*
X99157669Y-36131203D01*
X99157668Y-36131204D01*
X99042458Y-36217449D01*
X99042457Y-36217451D01*
X99042454Y-36217453D01*
X99042446Y-36217462D01*
X98956204Y-36332668D01*
X98905908Y-36467516D01*
X98905907Y-36467522D01*
X98899500Y-36527116D01*
X98899500Y-36774341D01*
X98894715Y-36822922D01*
X98890702Y-36843095D01*
X98853521Y-36932854D01*
X98784821Y-37001552D01*
X98695061Y-37038730D01*
X98604243Y-37039904D01*
X98588199Y-37037142D01*
X98547175Y-37026416D01*
X97478371Y-36647162D01*
X97434194Y-36626411D01*
X97416273Y-36615734D01*
X97344113Y-36550679D01*
X97302341Y-36462963D01*
X97297317Y-36365941D01*
X97298562Y-36357392D01*
X97311662Y-36306261D01*
X97318795Y-36287135D01*
X97318796Y-36287135D01*
X97369091Y-36152287D01*
X97375500Y-36092677D01*
X97375499Y-34996932D01*
X97369091Y-34937321D01*
X97318796Y-34802473D01*
X97318795Y-34802471D01*
X97232548Y-34687260D01*
X97232546Y-34687259D01*
X97232546Y-34687258D01*
X97204030Y-34665911D01*
X97204031Y-34665911D01*
X97204029Y-34665909D01*
X97159255Y-34632392D01*
X97123228Y-34599443D01*
X97105481Y-34579684D01*
X97058217Y-34502400D01*
X97052201Y-34486701D01*
X97040501Y-34446191D01*
X97014705Y-34316507D01*
X97014704Y-34316505D01*
X97014704Y-34316503D01*
X97014701Y-34316498D01*
X97014437Y-34315166D01*
X97011336Y-34308372D01*
X96954361Y-34170821D01*
X96954360Y-34170819D01*
X96954359Y-34170817D01*
X96932099Y-34137504D01*
X96932096Y-34137499D01*
X96866760Y-34039716D01*
X96866758Y-34039714D01*
X96866756Y-34039711D01*
X96755256Y-33928211D01*
X96755252Y-33928208D01*
X96755245Y-33928203D01*
X96624149Y-33840607D01*
X96624147Y-33840606D01*
X96624140Y-33840603D01*
X96588026Y-33825644D01*
X96478511Y-33780282D01*
X96478478Y-33780268D01*
X96478464Y-33780263D01*
X96478459Y-33780261D01*
X96478458Y-33780260D01*
X96478457Y-33780260D01*
X96323817Y-33749500D01*
X96323813Y-33749500D01*
X96323809Y-33749500D01*
X96273527Y-33749500D01*
X96224942Y-33744714D01*
X96204484Y-33740644D01*
X96114726Y-33703462D01*
X96046029Y-33634761D01*
X96008853Y-33545003D01*
X96004784Y-33524545D01*
X96000000Y-33475972D01*
X96000000Y-32900000D01*
X95573146Y-32628365D01*
X95534730Y-32598247D01*
X95520482Y-32584621D01*
X95464717Y-32505064D01*
X95443642Y-32410222D01*
X95460465Y-32314535D01*
X95511174Y-32234102D01*
X95523711Y-32220767D01*
X95558754Y-32189894D01*
X95608396Y-32153828D01*
X95747578Y-32014646D01*
X95863274Y-31855405D01*
X95952634Y-31680025D01*
X96013459Y-31492826D01*
X96044250Y-31298417D01*
X96044250Y-31101583D01*
X96013459Y-30907174D01*
X95952634Y-30719975D01*
X95863274Y-30544595D01*
X95857520Y-30536676D01*
X95747577Y-30385353D01*
X95608402Y-30246177D01*
X95608394Y-30246170D01*
X95587992Y-30231347D01*
X95587988Y-30231345D01*
X95547480Y-30201914D01*
X95529570Y-30188901D01*
X95449170Y-30130486D01*
X95449167Y-30130484D01*
X95449160Y-30130479D01*
X95449157Y-30130477D01*
X95449155Y-30130476D01*
X95449144Y-30130470D01*
X95449089Y-30130438D01*
X95448367Y-30130074D01*
X95308914Y-30059020D01*
X95298189Y-30051228D01*
X95249358Y-30031001D01*
X95236265Y-30028928D01*
X95166678Y-30006318D01*
X95166677Y-30006317D01*
X95104304Y-29986051D01*
X95095233Y-29982334D01*
X95076775Y-29977976D01*
X95067216Y-29977224D01*
X95025264Y-29970579D01*
X94978035Y-29958255D01*
X94959958Y-29951586D01*
X94877120Y-29900823D01*
X94820014Y-29822223D01*
X94797334Y-29727752D01*
X94812517Y-29631836D01*
X94814029Y-29627738D01*
X94852093Y-29559752D01*
X94854848Y-29556258D01*
X94874285Y-29534383D01*
X94896055Y-29512613D01*
X94933770Y-29481662D01*
X94961371Y-29463219D01*
X95032085Y-29430614D01*
X95036355Y-29429410D01*
X95065002Y-29423125D01*
X95086576Y-29419709D01*
X95273775Y-29358884D01*
X95449155Y-29269524D01*
X95608396Y-29153828D01*
X95747578Y-29014646D01*
X95863274Y-28855405D01*
X95952634Y-28680025D01*
X96013459Y-28492826D01*
X96044250Y-28298417D01*
X96044250Y-28101627D01*
X96543750Y-28101627D01*
X96543750Y-28298372D01*
X96543751Y-28298388D01*
X96565152Y-28433508D01*
X96574527Y-28492705D01*
X96635323Y-28679815D01*
X96635327Y-28679827D01*
X96635332Y-28679839D01*
X96724655Y-28855146D01*
X96724657Y-28855149D01*
X96746482Y-28885187D01*
X96750069Y-28890124D01*
X97080280Y-28559912D01*
X97161058Y-28505939D01*
X97256346Y-28486985D01*
X97351634Y-28505939D01*
X97432415Y-28559915D01*
X97432416Y-28559915D01*
X97433832Y-28561331D01*
X97487808Y-28642113D01*
X97506762Y-28737401D01*
X97487808Y-28832689D01*
X97433832Y-28913470D01*
X97103624Y-29243678D01*
X97103624Y-29243679D01*
X97138600Y-29269091D01*
X97138608Y-29269096D01*
X97313909Y-29358416D01*
X97313915Y-29358418D01*
X97313918Y-29358420D01*
X97313921Y-29358421D01*
X97501046Y-29419222D01*
X97695361Y-29449998D01*
X97695377Y-29450000D01*
X97892121Y-29450000D01*
X97892123Y-29450000D01*
X97892138Y-29449998D01*
X98086453Y-29419222D01*
X98273578Y-29358421D01*
X98273586Y-29358418D01*
X98448887Y-29269099D01*
X98448890Y-29269097D01*
X98483874Y-29243678D01*
X98394024Y-29153828D01*
X98153667Y-28913470D01*
X98099691Y-28832689D01*
X98080737Y-28737401D01*
X98099691Y-28642113D01*
X98153664Y-28561334D01*
X98155084Y-28559914D01*
X98235863Y-28505941D01*
X98331151Y-28486987D01*
X98426439Y-28505941D01*
X98507220Y-28559917D01*
X98837427Y-28890123D01*
X98837428Y-28890124D01*
X98862847Y-28855140D01*
X98862849Y-28855137D01*
X98952168Y-28679836D01*
X98952171Y-28679828D01*
X99012972Y-28492703D01*
X99043748Y-28298388D01*
X99043750Y-28298372D01*
X99043750Y-28101619D01*
X99043749Y-28101609D01*
X99043746Y-28101593D01*
X99543250Y-28101593D01*
X99543250Y-28298406D01*
X99543251Y-28298431D01*
X99543251Y-28298433D01*
X99574037Y-28492809D01*
X99574039Y-28492816D01*
X99574040Y-28492822D01*
X99596266Y-28561227D01*
X99634835Y-28679933D01*
X99634862Y-28680016D01*
X99634863Y-28680017D01*
X99634866Y-28680025D01*
X99694337Y-28796745D01*
X99715336Y-28837958D01*
X99720510Y-28850451D01*
X99720517Y-28850461D01*
X99723091Y-28853893D01*
X99725331Y-28856927D01*
X99771111Y-28919936D01*
X99771113Y-28919940D01*
X99839913Y-29014636D01*
X99839919Y-29014642D01*
X99839922Y-29014646D01*
X99979104Y-29153828D01*
X99979107Y-29153830D01*
X99979109Y-29153832D01*
X99980100Y-29154645D01*
X99983164Y-29156778D01*
X100137755Y-29269096D01*
X100138345Y-29269524D01*
X100313725Y-29358884D01*
X100500924Y-29419709D01*
X100695333Y-29450500D01*
X100695337Y-29450500D01*
X100892163Y-29450500D01*
X100892167Y-29450500D01*
X101086576Y-29419709D01*
X101273775Y-29358884D01*
X101449155Y-29269524D01*
X101608396Y-29153828D01*
X101747578Y-29014646D01*
X101863274Y-28855405D01*
X101952634Y-28680025D01*
X102013459Y-28492826D01*
X102044250Y-28298417D01*
X102044250Y-28101583D01*
X102013459Y-27907174D01*
X101952634Y-27719975D01*
X101901806Y-27620219D01*
X101863275Y-27544596D01*
X101821084Y-27486527D01*
X101817674Y-27481833D01*
X101817672Y-27481830D01*
X101750532Y-27389419D01*
X101748398Y-27386354D01*
X101747582Y-27385359D01*
X101747580Y-27385357D01*
X101747578Y-27385354D01*
X101608396Y-27246172D01*
X101582380Y-27227270D01*
X101570318Y-27218506D01*
X101449171Y-27130486D01*
X101449168Y-27130484D01*
X101449162Y-27130480D01*
X101449160Y-27130479D01*
X101449157Y-27130477D01*
X101449155Y-27130476D01*
X101449149Y-27130472D01*
X101449089Y-27130438D01*
X101448367Y-27130074D01*
X101308914Y-27059020D01*
X101298189Y-27051228D01*
X101249358Y-27031001D01*
X101236265Y-27028928D01*
X101166678Y-27006318D01*
X101166677Y-27006317D01*
X101104304Y-26986051D01*
X101095233Y-26982334D01*
X101076774Y-26977976D01*
X101067214Y-26977224D01*
X100892192Y-26949503D01*
X100892185Y-26949502D01*
X100892178Y-26949501D01*
X100892169Y-26949500D01*
X100892168Y-26949500D01*
X100695331Y-26949500D01*
X100695330Y-26949500D01*
X100695321Y-26949501D01*
X100695315Y-26949501D01*
X100695306Y-26949503D01*
X100500929Y-26980289D01*
X100313743Y-27041109D01*
X100313731Y-27041113D01*
X100313729Y-27041113D01*
X100313726Y-27041115D01*
X100222490Y-27087602D01*
X100222488Y-27087603D01*
X100222486Y-27087603D01*
X100155794Y-27121583D01*
X100143191Y-27126803D01*
X100130426Y-27135368D01*
X100129782Y-27135765D01*
X100122491Y-27141993D01*
X99979107Y-27246169D01*
X99839919Y-27385357D01*
X99735743Y-27528741D01*
X99729515Y-27536032D01*
X99729118Y-27536676D01*
X99720555Y-27549438D01*
X99715331Y-27562052D01*
X99634864Y-27719976D01*
X99634863Y-27719980D01*
X99634859Y-27719993D01*
X99574039Y-27907179D01*
X99543251Y-28101565D01*
X99543251Y-28101567D01*
X99543250Y-28101593D01*
X99043746Y-28101593D01*
X99012972Y-27907298D01*
X99012972Y-27907296D01*
X98960168Y-27744782D01*
X98952175Y-27720183D01*
X98952171Y-27720171D01*
X98952166Y-27720159D01*
X98862846Y-27544858D01*
X98862845Y-27544857D01*
X98862841Y-27544850D01*
X98837429Y-27509874D01*
X98837428Y-27509874D01*
X98507220Y-27840082D01*
X98426439Y-27894058D01*
X98331151Y-27913012D01*
X98235863Y-27894058D01*
X98155081Y-27840082D01*
X98153666Y-27838667D01*
X98099690Y-27757885D01*
X98080736Y-27662597D01*
X98099690Y-27567309D01*
X98153663Y-27486530D01*
X98483875Y-27156319D01*
X98455038Y-27135368D01*
X98448900Y-27130908D01*
X98448890Y-27130902D01*
X98273589Y-27041583D01*
X98273577Y-27041577D01*
X98273565Y-27041573D01*
X98138578Y-26997713D01*
X98086453Y-26980777D01*
X98086451Y-26980776D01*
X98086449Y-26980776D01*
X97892143Y-26950001D01*
X97892133Y-26950000D01*
X97892123Y-26950000D01*
X97695377Y-26950000D01*
X97695361Y-26950001D01*
X97539909Y-26974621D01*
X97501045Y-26980777D01*
X97313920Y-27041578D01*
X97313913Y-27041581D01*
X97138605Y-27130903D01*
X97103624Y-27156318D01*
X97103624Y-27156319D01*
X97433835Y-27486530D01*
X97487809Y-27567309D01*
X97506763Y-27662597D01*
X97487809Y-27757885D01*
X97433833Y-27838667D01*
X97432417Y-27840083D01*
X97351635Y-27894059D01*
X97256347Y-27913013D01*
X97161059Y-27894059D01*
X97080280Y-27840085D01*
X96750069Y-27509874D01*
X96750068Y-27509874D01*
X96731539Y-27535378D01*
X96731538Y-27535380D01*
X96724654Y-27544854D01*
X96635331Y-27720163D01*
X96635328Y-27720170D01*
X96574527Y-27907295D01*
X96570306Y-27933946D01*
X96543751Y-28101611D01*
X96543750Y-28101627D01*
X96044250Y-28101627D01*
X96044250Y-28101583D01*
X96013459Y-27907174D01*
X95952634Y-27719975D01*
X95863274Y-27544595D01*
X95779637Y-27429480D01*
X95779628Y-27429460D01*
X95750533Y-27389420D01*
X95748155Y-27386004D01*
X95747783Y-27385560D01*
X95747580Y-27385357D01*
X95747578Y-27385354D01*
X95608396Y-27246172D01*
X95582380Y-27227270D01*
X95570318Y-27218506D01*
X95449171Y-27130486D01*
X95449168Y-27130484D01*
X95449162Y-27130480D01*
X95449160Y-27130479D01*
X95449157Y-27130477D01*
X95449155Y-27130476D01*
X95449149Y-27130472D01*
X95449089Y-27130438D01*
X95448367Y-27130074D01*
X95308914Y-27059020D01*
X95298189Y-27051228D01*
X95249358Y-27031001D01*
X95236265Y-27028928D01*
X95166678Y-27006318D01*
X95166677Y-27006317D01*
X95104304Y-26986051D01*
X95095233Y-26982334D01*
X95076774Y-26977976D01*
X95067214Y-26977224D01*
X94892192Y-26949503D01*
X94892185Y-26949502D01*
X94892178Y-26949501D01*
X94892169Y-26949500D01*
X94892168Y-26949500D01*
X94695331Y-26949500D01*
X94695330Y-26949500D01*
X94695321Y-26949501D01*
X94695315Y-26949501D01*
X94695306Y-26949503D01*
X94500929Y-26980289D01*
X94313743Y-27041109D01*
X94313731Y-27041113D01*
X94313729Y-27041113D01*
X94313726Y-27041115D01*
X94222490Y-27087602D01*
X94222488Y-27087603D01*
X94222486Y-27087603D01*
X94155794Y-27121583D01*
X94143191Y-27126803D01*
X94130426Y-27135368D01*
X94129782Y-27135765D01*
X94122491Y-27141993D01*
X93979107Y-27246169D01*
X93839919Y-27385357D01*
X93735743Y-27528741D01*
X93729515Y-27536032D01*
X93729118Y-27536676D01*
X93722981Y-27545822D01*
X93720965Y-27550993D01*
X93634865Y-27719976D01*
X93634863Y-27719982D01*
X93574040Y-27907176D01*
X93568472Y-27942328D01*
X93561232Y-27960910D01*
X93559838Y-27966254D01*
X93548349Y-27997397D01*
X93510279Y-28065375D01*
X93507552Y-28068834D01*
X93492628Y-28085627D01*
X93491762Y-28086986D01*
X93490862Y-28087614D01*
X93488082Y-28090744D01*
X91935149Y-29643679D01*
X91935142Y-29643683D01*
X91722863Y-29855964D01*
X91722861Y-29855966D01*
X91722860Y-29855969D01*
X91613370Y-30019831D01*
X91613370Y-30019832D01*
X91613366Y-30019838D01*
X91604554Y-30041113D01*
X91537949Y-30201914D01*
X91537947Y-30201919D01*
X91537946Y-30201920D01*
X91499500Y-30395199D01*
X91499500Y-34238553D01*
X91494715Y-34287133D01*
X91490207Y-34309795D01*
X91453028Y-34399552D01*
X91444063Y-34412969D01*
X91409999Y-34453272D01*
X91410181Y-34453454D01*
X91408018Y-34455616D01*
X91407931Y-34455720D01*
X91407646Y-34455988D01*
X91282285Y-34581349D01*
X91205925Y-34705148D01*
X91190186Y-34730665D01*
X91174318Y-34778552D01*
X91135000Y-34897203D01*
X91134056Y-34903051D01*
X91133712Y-34909820D01*
X91124500Y-34999983D01*
X91124500Y-36025015D01*
X91133712Y-36115178D01*
X91134056Y-36121947D01*
X91135000Y-36127795D01*
X91135001Y-36127798D01*
X91190186Y-36294334D01*
X91230315Y-36359393D01*
X91282237Y-36443572D01*
X91282287Y-36443652D01*
X91282289Y-36443655D01*
X91406345Y-36567711D01*
X91555666Y-36659814D01*
X91722203Y-36714999D01*
X91824992Y-36725500D01*
X91825001Y-36725500D01*
X93174999Y-36725500D01*
X93175008Y-36725500D01*
X93277797Y-36714999D01*
X93444334Y-36659814D01*
X93593655Y-36567711D01*
X93678349Y-36483015D01*
X93716067Y-36452060D01*
X93734428Y-36439791D01*
X93824182Y-36402614D01*
X93921337Y-36402613D01*
X93921342Y-36402614D01*
X93927470Y-36403833D01*
X94002118Y-36431679D01*
X94007454Y-36434718D01*
X94033447Y-36451753D01*
X94048422Y-36462963D01*
X94082669Y-36488600D01*
X94217517Y-36538895D01*
X94277127Y-36545304D01*
X94544505Y-36545303D01*
X94593074Y-36550085D01*
X94612869Y-36554023D01*
X94702627Y-36591199D01*
X94771328Y-36659895D01*
X94808511Y-36749654D01*
X94809341Y-36842445D01*
X94806285Y-36859385D01*
X94794542Y-36902195D01*
X94781405Y-36937416D01*
X94781400Y-36937434D01*
X94777601Y-36972774D01*
X94775000Y-36996971D01*
X94775000Y-36996976D01*
X94775000Y-37294803D01*
X94836869Y-37356673D01*
X94842044Y-37364418D01*
X94867835Y-37394405D01*
X94875948Y-37406547D01*
X94885334Y-37429207D01*
X94890845Y-37437455D01*
X94892779Y-37447182D01*
X94913128Y-37496307D01*
X94913127Y-37593462D01*
X94879276Y-37678106D01*
X94872596Y-37688654D01*
X94866478Y-37696297D01*
X94864782Y-37700992D01*
X94854323Y-37717508D01*
X94847473Y-37722331D01*
X94775000Y-37794805D01*
X94775000Y-37949645D01*
X94774629Y-37950673D01*
X94770213Y-37995501D01*
X94766916Y-38012072D01*
X94729732Y-38101830D01*
X94661030Y-38170526D01*
X94571269Y-38207701D01*
X94474114Y-38207696D01*
X94429128Y-38189060D01*
X94424094Y-38188299D01*
X94417091Y-38184074D01*
X94384362Y-38170516D01*
X94370317Y-38161131D01*
X94346039Y-38141206D01*
X94340906Y-38138110D01*
X94338823Y-38135285D01*
X94332588Y-38130168D01*
X94052141Y-37849721D01*
X94052141Y-37849720D01*
X93912784Y-37710362D01*
X93905761Y-37705670D01*
X93905755Y-37705664D01*
X93905755Y-37705665D01*
X93808050Y-37640380D01*
X93770321Y-37609417D01*
X93733100Y-37572197D01*
X93730468Y-37569103D01*
X93717712Y-37556347D01*
X93717711Y-37556345D01*
X93593655Y-37432289D01*
X93585940Y-37427530D01*
X93518395Y-37364727D01*
X93361065Y-37312593D01*
X93333472Y-37303449D01*
X93277796Y-37285000D01*
X93257243Y-37282900D01*
X93257239Y-37282900D01*
X93175012Y-37274500D01*
X93175009Y-37274500D01*
X91824984Y-37274500D01*
X91804569Y-37276585D01*
X91751571Y-37282000D01*
X91751568Y-37282000D01*
X91734825Y-37283711D01*
X91728056Y-37284055D01*
X91722203Y-37285000D01*
X91638933Y-37312593D01*
X91555665Y-37340186D01*
X91555663Y-37340186D01*
X91555663Y-37340187D01*
X91406349Y-37432285D01*
X91282285Y-37556349D01*
X91200609Y-37688767D01*
X91190186Y-37705665D01*
X91174554Y-37752838D01*
X91135000Y-37872203D01*
X91134056Y-37878051D01*
X91133712Y-37884820D01*
X91124500Y-37974983D01*
X91124500Y-39000026D01*
X91129141Y-39045437D01*
X91129142Y-39045449D01*
X91131442Y-39067965D01*
X91133711Y-39090169D01*
X91134056Y-39096944D01*
X91135000Y-39102795D01*
X91190187Y-39269337D01*
X91190188Y-39269338D01*
X91281713Y-39417724D01*
X91281714Y-39417724D01*
X91281750Y-39417782D01*
X91282289Y-39418655D01*
X91406345Y-39542711D01*
X91555666Y-39634814D01*
X91722203Y-39689999D01*
X91824992Y-39700500D01*
X92738691Y-39700500D01*
X92755857Y-39703914D01*
X92787263Y-39705282D01*
X92808916Y-39709589D01*
X92831578Y-39718976D01*
X92833979Y-39719454D01*
X92836013Y-39720813D01*
X92898674Y-39746767D01*
X92967374Y-39815465D01*
X92967385Y-39815481D01*
X92972699Y-39823435D01*
X93009867Y-39913166D01*
X93013316Y-39930499D01*
X93013317Y-39930516D01*
X93013319Y-39930516D01*
X93037947Y-40054331D01*
X93037948Y-40054334D01*
X93037949Y-40054337D01*
X93068809Y-40128841D01*
X93080520Y-40157112D01*
X93082576Y-40167452D01*
X93128516Y-40278336D01*
X93147477Y-40373623D01*
X93142691Y-40422228D01*
X93140644Y-40432517D01*
X93103461Y-40522276D01*
X93034759Y-40590972D01*
X92945019Y-40628144D01*
X92930418Y-40631048D01*
X92924565Y-40632213D01*
X92875979Y-40637000D01*
X92646385Y-40637000D01*
X92637424Y-40638532D01*
X92637196Y-40638605D01*
X92637068Y-40638593D01*
X92636666Y-40638662D01*
X92592519Y-40643408D01*
X92592515Y-40643409D01*
X92457670Y-40693703D01*
X92457669Y-40693703D01*
X92457668Y-40693704D01*
X92342458Y-40779949D01*
X92342457Y-40779951D01*
X92342454Y-40779953D01*
X92342446Y-40779962D01*
X92256204Y-40895168D01*
X92205908Y-41030016D01*
X92205907Y-41030022D01*
X92199500Y-41089616D01*
X92199500Y-41973963D01*
X92194715Y-42022543D01*
X92190207Y-42045205D01*
X92153028Y-42134962D01*
X92140195Y-42154168D01*
X92109227Y-42191902D01*
X92061898Y-42239230D01*
X92024169Y-42270193D01*
X92004962Y-42283027D01*
X91915203Y-42320208D01*
X91892546Y-42324715D01*
X91843966Y-42329500D01*
X91703527Y-42329500D01*
X91654942Y-42324714D01*
X91634484Y-42320644D01*
X91544726Y-42283462D01*
X91476029Y-42214761D01*
X91438853Y-42125003D01*
X91434784Y-42104545D01*
X91430000Y-42055972D01*
X91430000Y-42000002D01*
X91430000Y-42000001D01*
X91429999Y-42000000D01*
X91429998Y-42000000D01*
X89570002Y-42000000D01*
X89570001Y-42000000D01*
X89570000Y-42000001D01*
X89570000Y-42000002D01*
X89570000Y-42202836D01*
X89573844Y-42238586D01*
X89576401Y-42262371D01*
X89576403Y-42262378D01*
X89604750Y-42338379D01*
X89623739Y-42389291D01*
X89636233Y-42436483D01*
X89640664Y-42463831D01*
X89639083Y-42552240D01*
X89636216Y-42566651D01*
X89625303Y-42605082D01*
X89575908Y-42737516D01*
X89575907Y-42737517D01*
X89569500Y-42797116D01*
X89569500Y-43702995D01*
X89569711Y-43704824D01*
X89575907Y-43762473D01*
X89575909Y-43762484D01*
X89602507Y-43833795D01*
X89602507Y-43833800D01*
X89624453Y-43892637D01*
X89626204Y-43897331D01*
X89712454Y-44012546D01*
X89827669Y-44098796D01*
X89962517Y-44149091D01*
X90022127Y-44155500D01*
X90555816Y-44155499D01*
X90555864Y-44155500D01*
X90561016Y-44155500D01*
X90581082Y-44155500D01*
X90581083Y-44155500D01*
X90728917Y-44155500D01*
X91027008Y-44155500D01*
X91075580Y-44160283D01*
X91081321Y-44161424D01*
X91098242Y-44164790D01*
X91188001Y-44201968D01*
X91188003Y-44201969D01*
X91198487Y-44208974D01*
X91259486Y-44266790D01*
X91292206Y-44310499D01*
X91312454Y-44337546D01*
X91427669Y-44423796D01*
X91562517Y-44474091D01*
X91622127Y-44480500D01*
X92487543Y-44480499D01*
X92536113Y-44485282D01*
X92555014Y-44489041D01*
X92644774Y-44526218D01*
X92713475Y-44594914D01*
X92750658Y-44684673D01*
X92750661Y-44781828D01*
X92750657Y-44781850D01*
X92749336Y-44788489D01*
X92712160Y-44878233D01*
X92613367Y-45026088D01*
X92613365Y-45026091D01*
X92537948Y-45208163D01*
X92537947Y-45208166D01*
X92498394Y-45407015D01*
X92492458Y-45430715D01*
X92485094Y-45454992D01*
X92439297Y-45540675D01*
X92364196Y-45602311D01*
X92364182Y-45602318D01*
X92361192Y-45603916D01*
X92280375Y-45630615D01*
X92269000Y-45632303D01*
X92232450Y-45635000D01*
X92160001Y-45635000D01*
X92160000Y-45635001D01*
X92160000Y-46749999D01*
X92160001Y-46750000D01*
X93207413Y-46750000D01*
X93255958Y-46754778D01*
X93259607Y-46755503D01*
X93261986Y-46755976D01*
X93351749Y-46793143D01*
X93420457Y-46861833D01*
X93457649Y-46951588D01*
X93457662Y-47048743D01*
X93420495Y-47138507D01*
X93351805Y-47207215D01*
X93262075Y-47244402D01*
X93258048Y-47245204D01*
X93209413Y-47250000D01*
X90772947Y-47250000D01*
X90679134Y-47231651D01*
X90651500Y-47220411D01*
X90615475Y-47194433D01*
X90484598Y-47134662D01*
X90417559Y-47114977D01*
X90417555Y-47114976D01*
X90378453Y-47109354D01*
X90378451Y-47109353D01*
X90311801Y-47099771D01*
X90275139Y-47094500D01*
X90275136Y-47094500D01*
X86954500Y-47094500D01*
X86859212Y-47075546D01*
X86778430Y-47021570D01*
X86724454Y-46940788D01*
X86705500Y-46845500D01*
X86705500Y-46087162D01*
X90665000Y-46087162D01*
X90665000Y-46087167D01*
X90665000Y-46749999D01*
X90665001Y-46750000D01*
X91659998Y-46750000D01*
X91659999Y-46750000D01*
X91660000Y-46749999D01*
X91660000Y-45635001D01*
X91659999Y-45635000D01*
X91659998Y-45635000D01*
X91117162Y-45635000D01*
X91057627Y-45641401D01*
X91057625Y-45641401D01*
X90967815Y-45674898D01*
X90922912Y-45691646D01*
X90922911Y-45691646D01*
X90922910Y-45691647D01*
X90807815Y-45777806D01*
X90807811Y-45777811D01*
X90807806Y-45777815D01*
X90721647Y-45892910D01*
X90671401Y-46027625D01*
X90671401Y-46027627D01*
X90665000Y-46087162D01*
X86705500Y-46087162D01*
X86705500Y-43847896D01*
X86705500Y-43847887D01*
X86702603Y-43793849D01*
X86699769Y-43767490D01*
X86691112Y-43714069D01*
X86640829Y-43579261D01*
X86623846Y-43548160D01*
X86607344Y-43517939D01*
X86521117Y-43402757D01*
X86480281Y-43372189D01*
X86415357Y-43299912D01*
X86383034Y-43208292D01*
X86380499Y-43172853D01*
X86380499Y-42397134D01*
X86380499Y-42397128D01*
X86374091Y-42337517D01*
X86374089Y-42337511D01*
X86372961Y-42334488D01*
X86372848Y-42333791D01*
X86372700Y-42333345D01*
X86372772Y-42333320D01*
X86371596Y-42326061D01*
X86371245Y-42324448D01*
X86371331Y-42324429D01*
X86370642Y-42320171D01*
X86360470Y-42287306D01*
X86357242Y-42267382D01*
X86358117Y-42242872D01*
X86357423Y-42238586D01*
X86358421Y-42234360D01*
X86360710Y-42170293D01*
X86401069Y-42081918D01*
X86472176Y-42015715D01*
X86558835Y-41982511D01*
X86575777Y-41979455D01*
X86619978Y-41975500D01*
X87095204Y-41975500D01*
X87143779Y-41980284D01*
X87178701Y-41987230D01*
X87268457Y-42024406D01*
X87320814Y-42059390D01*
X87320816Y-42059391D01*
X87320819Y-42059393D01*
X87458349Y-42116360D01*
X87465165Y-42119471D01*
X87466506Y-42119737D01*
X87466507Y-42119738D01*
X87543044Y-42134962D01*
X87617148Y-42149702D01*
X87617147Y-42149704D01*
X87617174Y-42149707D01*
X87621158Y-42150500D01*
X87778842Y-42150500D01*
X87933497Y-42119737D01*
X88079179Y-42059394D01*
X88210289Y-41971789D01*
X88321789Y-41860289D01*
X88409394Y-41729179D01*
X88469737Y-41583497D01*
X88500500Y-41428842D01*
X88500500Y-41297162D01*
X89570000Y-41297162D01*
X89570000Y-41297167D01*
X89570000Y-41499999D01*
X89570001Y-41500000D01*
X90249998Y-41500000D01*
X90249999Y-41500000D01*
X90250000Y-41499999D01*
X90250000Y-40845001D01*
X90750000Y-40845001D01*
X90750000Y-41499999D01*
X90750001Y-41500000D01*
X91429998Y-41500000D01*
X91429999Y-41500000D01*
X91430000Y-41499999D01*
X91430000Y-41297175D01*
X91430000Y-41297169D01*
X91429980Y-41296855D01*
X91429785Y-41295184D01*
X91423598Y-41237628D01*
X91423596Y-41237621D01*
X91373353Y-41102912D01*
X91338887Y-41056872D01*
X91287192Y-40987815D01*
X91287190Y-40987813D01*
X91287189Y-40987812D01*
X91287187Y-40987810D01*
X91287185Y-40987808D01*
X91287183Y-40987806D01*
X91172088Y-40901647D01*
X91172087Y-40901646D01*
X91037378Y-40851403D01*
X91037379Y-40851403D01*
X91037373Y-40851401D01*
X91037371Y-40851401D01*
X90977836Y-40845000D01*
X90977832Y-40845000D01*
X90750001Y-40845000D01*
X90750000Y-40845001D01*
X90250000Y-40845001D01*
X90249999Y-40845000D01*
X90249998Y-40845000D01*
X90022162Y-40845000D01*
X89962627Y-40851401D01*
X89962625Y-40851401D01*
X89872815Y-40884898D01*
X89827912Y-40901646D01*
X89827911Y-40901646D01*
X89827910Y-40901647D01*
X89712815Y-40987806D01*
X89712811Y-40987811D01*
X89712806Y-40987815D01*
X89636599Y-41089616D01*
X89626646Y-41102912D01*
X89609898Y-41147815D01*
X89576401Y-41237625D01*
X89576401Y-41237627D01*
X89570000Y-41297162D01*
X88500500Y-41297162D01*
X88500500Y-41271158D01*
X88485268Y-41194584D01*
X88469738Y-41116507D01*
X88469472Y-41115169D01*
X88466369Y-41108372D01*
X88409394Y-40970821D01*
X88395396Y-40949872D01*
X88321791Y-40839714D01*
X88321789Y-40839711D01*
X88288773Y-40806695D01*
X88210294Y-40728215D01*
X88210292Y-40728214D01*
X88210289Y-40728211D01*
X88195456Y-40718300D01*
X88195450Y-40718295D01*
X88079177Y-40640604D01*
X88068386Y-40634836D01*
X88068485Y-40634650D01*
X88038121Y-40618421D01*
X88019769Y-40606159D01*
X87951069Y-40537461D01*
X87913889Y-40447705D01*
X87912019Y-40438302D01*
X87912023Y-40341154D01*
X87920500Y-40298543D01*
X87920500Y-40101462D01*
X87920500Y-40101460D01*
X87882051Y-39908164D01*
X87806631Y-39726086D01*
X87710835Y-39582716D01*
X87687833Y-39539682D01*
X87680455Y-39521869D01*
X87661504Y-39426584D01*
X87680460Y-39331296D01*
X87734438Y-39250516D01*
X87815216Y-39196543D01*
X87821490Y-39193944D01*
X87916756Y-39175000D01*
X88252831Y-39175000D01*
X88254216Y-39174901D01*
X88257127Y-39174537D01*
X88312371Y-39168598D01*
X88312378Y-39168596D01*
X88447087Y-39118353D01*
X88562187Y-39032189D01*
X88562189Y-39032187D01*
X88648353Y-38917087D01*
X88698596Y-38782378D01*
X88698598Y-38782371D01*
X88704537Y-38727127D01*
X88704901Y-38724216D01*
X88705000Y-38722830D01*
X88705000Y-38250002D01*
X88705000Y-38250001D01*
X88704999Y-38250000D01*
X88704998Y-38250000D01*
X87773527Y-38250000D01*
X87724947Y-38245215D01*
X87702285Y-38240707D01*
X87681169Y-38231960D01*
X87658692Y-38227804D01*
X87612524Y-38203525D01*
X87593729Y-38190966D01*
X87555298Y-38159297D01*
X87532258Y-38136072D01*
X87523153Y-38122327D01*
X87393198Y-37995836D01*
X87391939Y-37994007D01*
X87390100Y-37992767D01*
X87335725Y-37937954D01*
X87305461Y-37900925D01*
X87296469Y-37887467D01*
X87259291Y-37797707D01*
X87259290Y-37797704D01*
X87254783Y-37775042D01*
X87250000Y-37726472D01*
X87250000Y-36200001D01*
X87750000Y-36200001D01*
X87750000Y-37648446D01*
X87850741Y-37750000D01*
X88704998Y-37750000D01*
X88704999Y-37750000D01*
X88705000Y-37749999D01*
X88705000Y-37277175D01*
X88705000Y-37277169D01*
X88704980Y-37276855D01*
X88704785Y-37275184D01*
X88698598Y-37217628D01*
X88698596Y-37217621D01*
X88667273Y-37133641D01*
X88662963Y-37121066D01*
X88645405Y-37065001D01*
X88645406Y-37065001D01*
X88640360Y-37048890D01*
X88629972Y-36952298D01*
X88630823Y-36942783D01*
X88648784Y-36869684D01*
X88674223Y-36808261D01*
X88677552Y-36788800D01*
X88698596Y-36732378D01*
X88698598Y-36732371D01*
X88704537Y-36677127D01*
X88704901Y-36674216D01*
X88705000Y-36672830D01*
X88705000Y-36200002D01*
X88705000Y-36200001D01*
X88704999Y-36200000D01*
X88704998Y-36200000D01*
X87750002Y-36200000D01*
X87750001Y-36200000D01*
X87750000Y-36200001D01*
X87250000Y-36200001D01*
X87250000Y-34775002D01*
X87250000Y-34775001D01*
X87750000Y-34775001D01*
X87750000Y-35699999D01*
X87750001Y-35700000D01*
X88704998Y-35700000D01*
X88704999Y-35700000D01*
X88705000Y-35699999D01*
X88705000Y-35227175D01*
X88705000Y-35227169D01*
X88704980Y-35226855D01*
X88704785Y-35225184D01*
X88698598Y-35167628D01*
X88698596Y-35167621D01*
X88648353Y-35032912D01*
X88611579Y-34983788D01*
X88562192Y-34917815D01*
X88562190Y-34917813D01*
X88562189Y-34917812D01*
X88562187Y-34917810D01*
X88562185Y-34917808D01*
X88562183Y-34917806D01*
X88447088Y-34831647D01*
X88447087Y-34831646D01*
X88325856Y-34786430D01*
X88312373Y-34781401D01*
X88312371Y-34781401D01*
X88252836Y-34775000D01*
X88252832Y-34775000D01*
X87750001Y-34775000D01*
X87750000Y-34775001D01*
X87250000Y-34775001D01*
X87249999Y-34775000D01*
X87249998Y-34775000D01*
X86747179Y-34775000D01*
X86747173Y-34775000D01*
X86747167Y-34775000D01*
X86740521Y-34775357D01*
X86740487Y-34774734D01*
X86701679Y-34775076D01*
X86687578Y-34773814D01*
X86680903Y-34773217D01*
X86587685Y-34745840D01*
X86512040Y-34684874D01*
X86465486Y-34599610D01*
X86461875Y-34588077D01*
X86450500Y-34513676D01*
X86450500Y-33272906D01*
X86455284Y-33224333D01*
X86459353Y-33203875D01*
X86496531Y-33114114D01*
X86565229Y-33045414D01*
X86654986Y-33008234D01*
X86664572Y-33006327D01*
X86752106Y-33004607D01*
X86787809Y-33010262D01*
X86788639Y-33010397D01*
X86788674Y-33010400D01*
X86971321Y-33010400D01*
X86971323Y-33010400D01*
X86971335Y-33010398D01*
X87151712Y-32981829D01*
X87151711Y-32981829D01*
X87151725Y-32981827D01*
X87325434Y-32925386D01*
X87325443Y-32925382D01*
X87488176Y-32842466D01*
X87488187Y-32842459D01*
X87505977Y-32829532D01*
X87505978Y-32829531D01*
X87166658Y-32490211D01*
X87112685Y-32409433D01*
X87093731Y-32314145D01*
X87112685Y-32218857D01*
X87166658Y-32138078D01*
X87168079Y-32136657D01*
X87248858Y-32082684D01*
X87344146Y-32063730D01*
X87439434Y-32082684D01*
X87520212Y-32136657D01*
X87859532Y-32475977D01*
X87867576Y-32464905D01*
X87872442Y-32458211D01*
X87872447Y-32458202D01*
X87872459Y-32458187D01*
X87872466Y-32458176D01*
X87955382Y-32295443D01*
X87955386Y-32295434D01*
X88011827Y-32121725D01*
X88040398Y-31941335D01*
X88040400Y-31941320D01*
X88040400Y-31758679D01*
X88040398Y-31758664D01*
X88011827Y-31578274D01*
X87973188Y-31459354D01*
X87955388Y-31404570D01*
X87955384Y-31404560D01*
X87955384Y-31404559D01*
X87955380Y-31404551D01*
X87908783Y-31313101D01*
X87872465Y-31241822D01*
X87872458Y-31241810D01*
X87872455Y-31241806D01*
X87872453Y-31241802D01*
X87872452Y-31241801D01*
X87859533Y-31224021D01*
X87859532Y-31224021D01*
X87859531Y-31224021D01*
X87520213Y-31563337D01*
X87439432Y-31617313D01*
X87344143Y-31636267D01*
X87248855Y-31617313D01*
X87168074Y-31563337D01*
X87166660Y-31561923D01*
X87112684Y-31481141D01*
X87093730Y-31385853D01*
X87112684Y-31290565D01*
X87166656Y-31209787D01*
X87505977Y-30870467D01*
X87505974Y-30870465D01*
X87488184Y-30857538D01*
X87488167Y-30857528D01*
X87488166Y-30857527D01*
X87325440Y-30774615D01*
X87325441Y-30774615D01*
X87325410Y-30774604D01*
X87151731Y-30718174D01*
X87151725Y-30718172D01*
X87151720Y-30718171D01*
X87151712Y-30718169D01*
X86971340Y-30689601D01*
X86971324Y-30689600D01*
X86971321Y-30689600D01*
X86788679Y-30689600D01*
X86788665Y-30689600D01*
X86788659Y-30689601D01*
X86608286Y-30718169D01*
X86608275Y-30718171D01*
X86608274Y-30718172D01*
X86608271Y-30718172D01*
X86608267Y-30718174D01*
X86434570Y-30774610D01*
X86434565Y-30774612D01*
X86271812Y-30857539D01*
X86271808Y-30857542D01*
X86254021Y-30870465D01*
X86254021Y-30870466D01*
X86593341Y-31209786D01*
X86647315Y-31290565D01*
X86666269Y-31385853D01*
X86647315Y-31481141D01*
X86593339Y-31561923D01*
X86591924Y-31563338D01*
X86511142Y-31617314D01*
X86415854Y-31636268D01*
X86320566Y-31617314D01*
X86239785Y-31563338D01*
X85900467Y-31224021D01*
X85900466Y-31224021D01*
X85900465Y-31224021D01*
X85900464Y-31224022D01*
X85887539Y-31241812D01*
X85887518Y-31241846D01*
X85887113Y-31242648D01*
X85843555Y-31328138D01*
X85843277Y-31328683D01*
X85828391Y-31351936D01*
X85828578Y-31352050D01*
X85823934Y-31359706D01*
X85820393Y-31364431D01*
X85816967Y-31369784D01*
X85811234Y-31377057D01*
X85811044Y-31376907D01*
X85794774Y-31398623D01*
X85794013Y-31399455D01*
X85715715Y-31456975D01*
X85621365Y-31480153D01*
X85525327Y-31465461D01*
X85456108Y-31426931D01*
X85450922Y-31422842D01*
X85387831Y-31348960D01*
X85383231Y-31340354D01*
X85333030Y-31241829D01*
X85332891Y-31241556D01*
X85247960Y-31124658D01*
X85225490Y-31093730D01*
X85225486Y-31093726D01*
X85225485Y-31093724D01*
X85096276Y-30964515D01*
X85096272Y-30964512D01*
X85096269Y-30964509D01*
X85096266Y-30964506D01*
X84949975Y-30858220D01*
X84948525Y-30857150D01*
X84948498Y-30857133D01*
X84947811Y-30856786D01*
X84785631Y-30774152D01*
X84785630Y-30774151D01*
X84785625Y-30774149D01*
X84688990Y-30742751D01*
X84629575Y-30723446D01*
X84620502Y-30719728D01*
X84602043Y-30715370D01*
X84592483Y-30714618D01*
X84431390Y-30689103D01*
X84431383Y-30689102D01*
X84431376Y-30689101D01*
X84431367Y-30689100D01*
X84431366Y-30689100D01*
X84248633Y-30689100D01*
X84248632Y-30689100D01*
X84248623Y-30689101D01*
X84248617Y-30689101D01*
X84248608Y-30689103D01*
X84068162Y-30717682D01*
X83902560Y-30771489D01*
X83886010Y-30776240D01*
X83871123Y-30779961D01*
X83854779Y-30794053D01*
X83845146Y-30799232D01*
X83732355Y-30856702D01*
X83731655Y-30857054D01*
X83731550Y-30857112D01*
X83583728Y-30964510D01*
X83454510Y-31093728D01*
X83347112Y-31241550D01*
X83347041Y-31241680D01*
X83346727Y-31242302D01*
X83302991Y-31328138D01*
X83276678Y-31369244D01*
X83264751Y-31384374D01*
X83190875Y-31447473D01*
X83098476Y-31477497D01*
X83001621Y-31469877D01*
X82915089Y-31425799D01*
X82915066Y-31425780D01*
X82911665Y-31423099D01*
X82858728Y-31365835D01*
X82856274Y-31362163D01*
X82841474Y-31336905D01*
X82803544Y-31262464D01*
X82792891Y-31241556D01*
X82780151Y-31224021D01*
X82685490Y-31093730D01*
X82685486Y-31093726D01*
X82685485Y-31093724D01*
X82556276Y-30964515D01*
X82556272Y-30964512D01*
X82556269Y-30964509D01*
X82556266Y-30964506D01*
X82409975Y-30858220D01*
X82408525Y-30857150D01*
X82408498Y-30857133D01*
X82407811Y-30856786D01*
X82245631Y-30774152D01*
X82245630Y-30774151D01*
X82245625Y-30774149D01*
X82148990Y-30742751D01*
X82089575Y-30723446D01*
X82080502Y-30719728D01*
X82062043Y-30715370D01*
X82052483Y-30714618D01*
X81891390Y-30689103D01*
X81891383Y-30689102D01*
X81891376Y-30689101D01*
X81891367Y-30689100D01*
X81891366Y-30689100D01*
X81708633Y-30689100D01*
X81708632Y-30689100D01*
X81708623Y-30689101D01*
X81708617Y-30689101D01*
X81708608Y-30689103D01*
X81528160Y-30717683D01*
X81354378Y-30774148D01*
X81354367Y-30774152D01*
X81216684Y-30844305D01*
X81207877Y-30848577D01*
X81155576Y-30872685D01*
X81061105Y-30895361D01*
X80965146Y-30880157D01*
X80882311Y-30829390D01*
X80825208Y-30750787D01*
X80825197Y-30750763D01*
X80823374Y-30746807D01*
X80802244Y-30671860D01*
X80801726Y-30667483D01*
X80800000Y-30638219D01*
X80800000Y-27185097D01*
X91033250Y-27185097D01*
X91033250Y-27334903D01*
X91052063Y-27429483D01*
X91062476Y-27481834D01*
X91119796Y-27620219D01*
X91119799Y-27620225D01*
X91119800Y-27620227D01*
X91119803Y-27620232D01*
X91125469Y-27628712D01*
X91166422Y-27690004D01*
X91166421Y-27690004D01*
X91203023Y-27744782D01*
X91203028Y-27744787D01*
X91203031Y-27744791D01*
X91308959Y-27850719D01*
X91433518Y-27933947D01*
X91433519Y-27933947D01*
X91435569Y-27935317D01*
X91444790Y-27938616D01*
X91502719Y-27962611D01*
X91571920Y-27991275D01*
X91718847Y-28020500D01*
X91718850Y-28020500D01*
X91868650Y-28020500D01*
X91868653Y-28020500D01*
X92015580Y-27991275D01*
X92153982Y-27933947D01*
X92278541Y-27850719D01*
X92384469Y-27744791D01*
X92467697Y-27620232D01*
X92467703Y-27620219D01*
X92525024Y-27481832D01*
X92525025Y-27481830D01*
X92554250Y-27334903D01*
X92554250Y-27185097D01*
X92525025Y-27038170D01*
X92474305Y-26915720D01*
X92474303Y-26915716D01*
X92469175Y-26903335D01*
X92467699Y-26899772D01*
X92467696Y-26899767D01*
X92463372Y-26893296D01*
X92384469Y-26775209D01*
X92278541Y-26669281D01*
X92278537Y-26669278D01*
X92154005Y-26586068D01*
X92153994Y-26586061D01*
X92153982Y-26586053D01*
X92153977Y-26586050D01*
X92153967Y-26586046D01*
X92123912Y-26573597D01*
X92023735Y-26532102D01*
X92017143Y-26529093D01*
X91998027Y-26524580D01*
X91991529Y-26523941D01*
X91974330Y-26520520D01*
X91868653Y-26499500D01*
X91868651Y-26499500D01*
X91718845Y-26499500D01*
X91576250Y-26527863D01*
X91572445Y-26528549D01*
X91571905Y-26528729D01*
X91433529Y-26586046D01*
X91433523Y-26586049D01*
X91433492Y-26586068D01*
X91308965Y-26669275D01*
X91203025Y-26775215D01*
X91119818Y-26899742D01*
X91119799Y-26899773D01*
X91119796Y-26899779D01*
X91062479Y-27038155D01*
X91062299Y-27038695D01*
X91062229Y-27039084D01*
X91062232Y-27039278D01*
X91061925Y-27040932D01*
X91033250Y-27185097D01*
X80800000Y-27185097D01*
X80800000Y-24623527D01*
X80804784Y-24574954D01*
X80808853Y-24554496D01*
X80846031Y-24464735D01*
X80914729Y-24396035D01*
X81004486Y-24358854D01*
X81004489Y-24358853D01*
X81004496Y-24358853D01*
X81024954Y-24354784D01*
X81073527Y-24350000D01*
X114746643Y-24350000D01*
X114773742Y-24351479D01*
G37*
%TD.AperFunction*%
%TA.AperFunction,Conductor*%
G36*
X93138332Y-49601460D02*
G01*
X93207032Y-49670157D01*
X93244214Y-49759915D01*
X93244217Y-49759928D01*
X93245217Y-49764956D01*
X93250000Y-49813527D01*
X93250000Y-51209999D01*
X93250001Y-51210000D01*
X93250002Y-51210000D01*
X93537825Y-51210000D01*
X93537831Y-51210000D01*
X93539216Y-51209901D01*
X93542127Y-51209537D01*
X93597371Y-51203598D01*
X93597378Y-51203596D01*
X93732087Y-51153353D01*
X93847187Y-51067189D01*
X93847189Y-51067187D01*
X93919414Y-50970706D01*
X93927659Y-50960287D01*
X93945502Y-50938935D01*
X93945503Y-50938936D01*
X93959251Y-50922484D01*
X94034896Y-50861523D01*
X94128115Y-50834150D01*
X94224713Y-50844533D01*
X94309977Y-50891086D01*
X94316109Y-50896210D01*
X94358916Y-50943862D01*
X94359524Y-50943407D01*
X94359929Y-50943949D01*
X94360002Y-50943898D01*
X94361908Y-50946591D01*
X94361917Y-50946603D01*
X94361923Y-50946612D01*
X94366203Y-50952329D01*
X94366204Y-50952331D01*
X94452454Y-51067546D01*
X94567669Y-51153796D01*
X94702517Y-51204091D01*
X94762127Y-51210500D01*
X95539728Y-51210499D01*
X95588299Y-51215282D01*
X95608759Y-51219352D01*
X95698515Y-51256530D01*
X95767215Y-51325228D01*
X95804395Y-51414984D01*
X95808465Y-51435443D01*
X95813250Y-51484026D01*
X95813250Y-56168242D01*
X95808465Y-56216822D01*
X95803957Y-56239484D01*
X95766779Y-56329239D01*
X95761729Y-56336797D01*
X95693032Y-56405496D01*
X95690636Y-56407097D01*
X95600877Y-56444278D01*
X95503722Y-56444279D01*
X95413962Y-56407101D01*
X95345262Y-56338403D01*
X95308081Y-56248644D01*
X95308080Y-56248638D01*
X95304784Y-56232067D01*
X95300000Y-56183492D01*
X95300000Y-55530002D01*
X95300000Y-55530001D01*
X95299999Y-55530000D01*
X95299998Y-55530000D01*
X93250002Y-55530000D01*
X93250001Y-55530000D01*
X93250000Y-55530001D01*
X93250000Y-56949999D01*
X93250001Y-56950000D01*
X94533493Y-56950000D01*
X94582071Y-56954785D01*
X94598641Y-56958081D01*
X94688400Y-56995260D01*
X94757099Y-57063959D01*
X94794279Y-57153719D01*
X94794278Y-57250874D01*
X94757099Y-57340633D01*
X94757096Y-57340637D01*
X94747711Y-57354682D01*
X94716748Y-57392411D01*
X91274931Y-60834228D01*
X91237200Y-60865192D01*
X91217993Y-60878026D01*
X91128236Y-60915207D01*
X91105575Y-60919715D01*
X91056993Y-60924500D01*
X89561931Y-60924500D01*
X89513352Y-60919715D01*
X89493555Y-60915777D01*
X89403796Y-60878597D01*
X89335097Y-60809898D01*
X89297918Y-60720138D01*
X89297090Y-60627355D01*
X89300148Y-60610401D01*
X89311887Y-60567612D01*
X89358596Y-60442378D01*
X89358598Y-60442371D01*
X89364537Y-60387127D01*
X89364901Y-60384216D01*
X89365000Y-60382830D01*
X89365000Y-59840002D01*
X89365000Y-59840001D01*
X89364999Y-59840000D01*
X89364998Y-59840000D01*
X86635002Y-59840000D01*
X86635001Y-59840000D01*
X86635000Y-59840001D01*
X86635000Y-60382829D01*
X86635923Y-60391411D01*
X86636356Y-60440219D01*
X86634638Y-60459410D01*
X86607263Y-60552629D01*
X86546299Y-60628275D01*
X86461027Y-60674834D01*
X86364428Y-60685216D01*
X86364420Y-60685215D01*
X86351813Y-60684086D01*
X86287016Y-60669383D01*
X86275307Y-60665016D01*
X86264391Y-60660945D01*
X86254758Y-60657352D01*
X86237482Y-60650908D01*
X86225559Y-60649626D01*
X86177873Y-60644500D01*
X86177869Y-60644500D01*
X85216385Y-60644500D01*
X85206666Y-60646162D01*
X85162519Y-60650908D01*
X85162515Y-60650909D01*
X85027670Y-60701203D01*
X85027669Y-60701203D01*
X85027668Y-60701204D01*
X84912458Y-60787449D01*
X84912457Y-60787451D01*
X84912450Y-60787458D01*
X84912443Y-60787466D01*
X84876794Y-60835088D01*
X84858658Y-60851378D01*
X84843856Y-60871105D01*
X84826671Y-60886542D01*
X84805578Y-60899057D01*
X84804517Y-60900011D01*
X84803171Y-60900485D01*
X84743120Y-60936118D01*
X84731227Y-60940314D01*
X84648382Y-60954500D01*
X84209985Y-60954500D01*
X84161406Y-60949715D01*
X84141609Y-60945777D01*
X84051850Y-60908597D01*
X83983151Y-60839898D01*
X83945972Y-60750138D01*
X83945144Y-60657355D01*
X83948202Y-60640401D01*
X83959941Y-60597612D01*
X83993596Y-60507378D01*
X83993598Y-60507371D01*
X83999537Y-60452127D01*
X83999901Y-60449216D01*
X84000000Y-60447830D01*
X84000000Y-59154000D01*
X84018954Y-59058712D01*
X84072930Y-58977930D01*
X84153712Y-58923954D01*
X84249000Y-58905000D01*
X84425998Y-58905000D01*
X84426000Y-58905000D01*
X84533456Y-58893447D01*
X84533461Y-58893446D01*
X84533462Y-58893446D01*
X84584960Y-58882243D01*
X84584963Y-58882242D01*
X84584964Y-58882241D01*
X84584967Y-58882241D01*
X84687504Y-58848113D01*
X84766784Y-58797162D01*
X86635000Y-58797162D01*
X86635000Y-58797167D01*
X86635000Y-59339999D01*
X86635001Y-59340000D01*
X87749998Y-59340000D01*
X87749999Y-59340000D01*
X87750000Y-59339999D01*
X87750000Y-58345001D01*
X88250000Y-58345001D01*
X88250000Y-59339999D01*
X88250001Y-59340000D01*
X89364998Y-59340000D01*
X89364999Y-59340000D01*
X89365000Y-59339999D01*
X89365000Y-58797175D01*
X89365000Y-58797169D01*
X89364980Y-58796855D01*
X89364785Y-58795184D01*
X89358598Y-58737628D01*
X89358596Y-58737621D01*
X89308353Y-58602912D01*
X89273887Y-58556872D01*
X89222192Y-58487815D01*
X89222190Y-58487813D01*
X89222189Y-58487812D01*
X89222187Y-58487810D01*
X89222185Y-58487808D01*
X89222183Y-58487806D01*
X89178904Y-58455408D01*
X89178903Y-58455407D01*
X89107087Y-58401646D01*
X88972378Y-58351403D01*
X88972371Y-58351401D01*
X88912832Y-58345000D01*
X88897033Y-58345000D01*
X88250002Y-58345000D01*
X88250001Y-58345000D01*
X88250000Y-58345001D01*
X87750000Y-58345001D01*
X87749999Y-58345000D01*
X87749998Y-58345000D01*
X87097791Y-58345000D01*
X87087167Y-58345000D01*
X87027628Y-58351401D01*
X87027621Y-58351403D01*
X86892912Y-58401646D01*
X86813529Y-58461072D01*
X86813527Y-58461073D01*
X86777812Y-58487809D01*
X86777811Y-58487811D01*
X86777806Y-58487815D01*
X86691647Y-58602910D01*
X86641401Y-58737625D01*
X86641401Y-58737627D01*
X86635000Y-58797162D01*
X84766784Y-58797162D01*
X84808543Y-58770325D01*
X84861347Y-58724570D01*
X84955567Y-58615836D01*
X85015338Y-58484959D01*
X85028559Y-58439934D01*
X85035022Y-58417924D01*
X85035023Y-58417920D01*
X85035024Y-58417916D01*
X85055500Y-58275500D01*
X85055500Y-58254500D01*
X85074454Y-58159212D01*
X85128430Y-58078430D01*
X85209212Y-58024454D01*
X85304500Y-58005500D01*
X86551432Y-58005500D01*
X86551437Y-58005500D01*
X86605477Y-58002603D01*
X86631835Y-57999769D01*
X86685247Y-57991114D01*
X86820056Y-57940832D01*
X86881379Y-57907347D01*
X86996560Y-57821124D01*
X87033997Y-57771113D01*
X87045852Y-57755278D01*
X87118129Y-57690355D01*
X87209750Y-57658033D01*
X87245186Y-57655499D01*
X88751959Y-57655499D01*
X88847247Y-57674453D01*
X88928029Y-57728429D01*
X88951288Y-57755271D01*
X88953736Y-57758541D01*
X88953738Y-57758543D01*
X88999493Y-57811347D01*
X89108227Y-57905567D01*
X89239104Y-57965338D01*
X89306143Y-57985023D01*
X89306147Y-57985024D01*
X89448563Y-58005500D01*
X90875998Y-58005500D01*
X90876000Y-58005500D01*
X90983456Y-57993947D01*
X90983461Y-57993946D01*
X90983462Y-57993946D01*
X91034960Y-57982743D01*
X91034963Y-57982742D01*
X91034964Y-57982741D01*
X91034967Y-57982741D01*
X91137504Y-57948613D01*
X91258543Y-57870825D01*
X91311347Y-57825070D01*
X91405567Y-57716336D01*
X91465338Y-57585459D01*
X91485023Y-57518420D01*
X91485024Y-57518416D01*
X91505500Y-57376000D01*
X91505500Y-57199000D01*
X91524454Y-57103712D01*
X91578430Y-57022930D01*
X91659212Y-56968954D01*
X91754500Y-56950000D01*
X92749998Y-56950000D01*
X92749999Y-56950000D01*
X92750000Y-56949999D01*
X92750000Y-53610001D01*
X93250000Y-53610001D01*
X93250000Y-55029999D01*
X93250001Y-55030000D01*
X95299998Y-55030000D01*
X95299999Y-55030000D01*
X95300000Y-55029999D01*
X95300000Y-54062175D01*
X95300000Y-54062169D01*
X95299980Y-54061855D01*
X95299785Y-54060184D01*
X95293598Y-54002628D01*
X95293596Y-54002621D01*
X95243353Y-53867912D01*
X95196257Y-53805000D01*
X95157192Y-53752815D01*
X95157190Y-53752813D01*
X95157189Y-53752812D01*
X95157187Y-53752810D01*
X95157185Y-53752808D01*
X95157183Y-53752806D01*
X95042088Y-53666647D01*
X95042087Y-53666646D01*
X94907378Y-53616403D01*
X94907379Y-53616403D01*
X94907373Y-53616401D01*
X94907371Y-53616401D01*
X94847836Y-53610000D01*
X94847832Y-53610000D01*
X93250001Y-53610000D01*
X93250000Y-53610001D01*
X92750000Y-53610001D01*
X92749999Y-53610000D01*
X92749998Y-53610000D01*
X92014339Y-53610000D01*
X91965750Y-53605213D01*
X91949179Y-53601916D01*
X91859421Y-53564732D01*
X91790725Y-53496030D01*
X91753550Y-53406269D01*
X91753555Y-53309114D01*
X91790734Y-53219363D01*
X91793177Y-53215707D01*
X91861868Y-53147018D01*
X91899628Y-53121789D01*
X92011128Y-53010289D01*
X92098733Y-52879179D01*
X92159076Y-52733497D01*
X92189839Y-52578842D01*
X92189839Y-52421158D01*
X92159076Y-52266503D01*
X92159074Y-52266500D01*
X92157446Y-52258311D01*
X92156613Y-52254861D01*
X92144623Y-52194579D01*
X92139839Y-52146005D01*
X92139839Y-51477077D01*
X92144623Y-51428504D01*
X92148692Y-51408046D01*
X92185870Y-51318285D01*
X92254568Y-51249585D01*
X92344325Y-51212404D01*
X92344327Y-51212404D01*
X92344329Y-51212404D01*
X92353780Y-51210524D01*
X92412646Y-51210523D01*
X92412646Y-51210000D01*
X92749998Y-51210000D01*
X92749999Y-51210000D01*
X92750000Y-51209999D01*
X92750000Y-49813527D01*
X92754783Y-49764956D01*
X92755783Y-49759928D01*
X92792961Y-49670167D01*
X92861658Y-49601467D01*
X92951416Y-49564285D01*
X93048571Y-49564282D01*
X93138332Y-49601460D01*
G37*
%TD.AperFunction*%
%TA.AperFunction,Conductor*%
G36*
X83138387Y-32230124D02*
G01*
X83224952Y-32274233D01*
X83224959Y-32274239D01*
X83228381Y-32276937D01*
X83281231Y-32334104D01*
X83283680Y-32337768D01*
X83298519Y-32363081D01*
X83309592Y-32384813D01*
X83309593Y-32384815D01*
X83309594Y-32384815D01*
X83347111Y-32458448D01*
X83347113Y-32458451D01*
X83454506Y-32606266D01*
X83454509Y-32606269D01*
X83454512Y-32606272D01*
X83454515Y-32606276D01*
X83583724Y-32735485D01*
X83583727Y-32735487D01*
X83583934Y-32735694D01*
X83584365Y-32736055D01*
X83587777Y-32738430D01*
X83725615Y-32838574D01*
X83725621Y-32838581D01*
X83725623Y-32838580D01*
X83731556Y-32842891D01*
X83731558Y-32842892D01*
X83731561Y-32842894D01*
X83807250Y-32881459D01*
X83894369Y-32925848D01*
X84068155Y-32982315D01*
X84248635Y-33010900D01*
X84248639Y-33010900D01*
X84331866Y-33010900D01*
X84380438Y-33015683D01*
X84386179Y-33016824D01*
X84403100Y-33020190D01*
X84492859Y-33057368D01*
X84492866Y-33057373D01*
X84512073Y-33070207D01*
X84549804Y-33101171D01*
X84859228Y-33410595D01*
X84890192Y-33448326D01*
X84903026Y-33467533D01*
X84940207Y-33557292D01*
X84944715Y-33579954D01*
X84949500Y-33628534D01*
X84949500Y-34504550D01*
X84944715Y-34553131D01*
X84940408Y-34574782D01*
X84903227Y-34664541D01*
X84834527Y-34733239D01*
X84834516Y-34733246D01*
X84831223Y-34735446D01*
X84754465Y-34769670D01*
X84744358Y-34772249D01*
X84709421Y-34778552D01*
X84687523Y-34780907D01*
X84687518Y-34780908D01*
X84687516Y-34780908D01*
X84618052Y-34806817D01*
X84552670Y-34831203D01*
X84552669Y-34831203D01*
X84552668Y-34831204D01*
X84518842Y-34856526D01*
X84431201Y-34898457D01*
X84334188Y-34903656D01*
X84270500Y-34894500D01*
X84270497Y-34894500D01*
X81049000Y-34894500D01*
X80953712Y-34875546D01*
X80872930Y-34821570D01*
X80818954Y-34740788D01*
X80800000Y-34645500D01*
X80800000Y-33071625D01*
X80804783Y-33023055D01*
X80808542Y-33004154D01*
X80845719Y-32914394D01*
X80914415Y-32845693D01*
X81004174Y-32808510D01*
X81101329Y-32808507D01*
X81104004Y-32809039D01*
X81105627Y-32809362D01*
X81178701Y-32836327D01*
X81249094Y-32875753D01*
X81267250Y-32881459D01*
X81354369Y-32925848D01*
X81528155Y-32982315D01*
X81708635Y-33010900D01*
X81708639Y-33010900D01*
X81891361Y-33010900D01*
X81891365Y-33010900D01*
X82071845Y-32982315D01*
X82245631Y-32925848D01*
X82408444Y-32842891D01*
X82556276Y-32735485D01*
X82685485Y-32606276D01*
X82792891Y-32458444D01*
X82837008Y-32371856D01*
X82863320Y-32330752D01*
X82875254Y-32315614D01*
X82949131Y-32252520D01*
X83041532Y-32222499D01*
X83138387Y-32230124D01*
G37*
%TD.AperFunction*%
%TD*%
M02*
