%TF.GenerationSoftware,KiCad,Pcbnew,10.0.6*%
%TF.CreationDate,2026-09-01T18:20:09-07:00*%
%TF.ProjectId,Precharge_2027,50726563-6861-4726-9765-5f323032372e,rev?*%
%TF.SameCoordinates,Original*%
%TF.FileFunction,Copper,L4,Bot*%
%TF.FilePolarity,Positive*%
%FSLAX46Y46*%
G04 Gerber Fmt 4.6, Leading zero omitted, Abs format (unit mm)*
G04 Created by KiCad (PCBNEW 10.0.6) date 2026-09-01 18:20:09*
%MOMM*%
%LPD*%
G01*
G04 APERTURE LIST*
G04 Aperture macros list*
%AMRoundRect*
0 Rectangle with rounded corners*
0 $1 Rounding radius*
0 $2 $3 $4 $5 $6 $7 $8 $9 X,Y pos of 4 corners*
0 Add a 4 corners polygon primitive as box body*
4,1,4,$2,$3,$4,$5,$6,$7,$8,$9,$2,$3,0*
0 Add four circle primitives for the rounded corners*
1,1,$1+$1,$2,$3*
1,1,$1+$1,$4,$5*
1,1,$1+$1,$6,$7*
1,1,$1+$1,$8,$9*
0 Add four rect primitives between the rounded corners*
20,1,$1+$1,$2,$3,$4,$5,0*
20,1,$1+$1,$4,$5,$6,$7,0*
20,1,$1+$1,$6,$7,$8,$9,0*
20,1,$1+$1,$8,$9,$2,$3,0*%
G04 Aperture macros list end*
%TA.AperFunction,ComponentPad*%
%ADD10C,1.320800*%
%TD*%
%TA.AperFunction,ComponentPad*%
%ADD11C,1.100000*%
%TD*%
%TA.AperFunction,ComponentPad*%
%ADD12C,1.800000*%
%TD*%
%TA.AperFunction,ComponentPad*%
%ADD13C,1.397000*%
%TD*%
%TA.AperFunction,ComponentPad*%
%ADD14R,1.500000X1.500000*%
%TD*%
%TA.AperFunction,ComponentPad*%
%ADD15C,1.500000*%
%TD*%
%TA.AperFunction,ComponentPad*%
%ADD16R,1.700000X1.700000*%
%TD*%
%TA.AperFunction,ComponentPad*%
%ADD17C,1.700000*%
%TD*%
%TA.AperFunction,ComponentPad*%
%ADD18RoundRect,0.250001X0.499999X0.499999X-0.499999X0.499999X-0.499999X-0.499999X0.499999X-0.499999X0*%
%TD*%
%TA.AperFunction,ViaPad*%
%ADD19C,0.600000*%
%TD*%
%TA.AperFunction,Conductor*%
%ADD20C,0.250000*%
%TD*%
%TA.AperFunction,Conductor*%
%ADD21C,0.500000*%
%TD*%
G04 APERTURE END LIST*
D10*
%TO.P,U8,1,-VIN_1*%
%TO.N,GLV-*%
X86880000Y-31850000D03*
%TO.P,U8,2,+VIN_2*%
%TO.N,GLV+*%
X84340000Y-31850000D03*
%TO.P,U8,3,CONTROL_3*%
%TO.N,unconnected-(U8-CONTROL-Pad3)*%
X81800000Y-31850000D03*
%TO.P,U8,6,+VOUT_6*%
%TO.N,POST_12V_HV*%
X74180000Y-31850000D03*
%TO.P,U8,7,0V_7*%
%TO.N,POST_HV-*%
X71640000Y-31850000D03*
%TO.P,U8,8,N/C_8*%
%TO.N,unconnected-(U8-N{slash}C-Pad8)*%
X69100000Y-31850000D03*
%TD*%
D11*
%TO.P,Molex4,*%
%TO.N,*%
X45210000Y-45450000D03*
X45210000Y-39450000D03*
D12*
%TO.P,Molex4,1,Pin_1_1*%
%TO.N,POST_HV-*%
X44270000Y-42450000D03*
%TO.P,Molex4,2,Pin_2_2*%
X41270000Y-42450000D03*
%TD*%
D13*
%TO.P,F2,1*%
%TO.N,/HV+_preAIR*%
X44040000Y-50150000D03*
%TO.P,F2,2*%
%TO.N,Net-(Molex1-Pin_1)*%
X38960000Y-50150000D03*
%TD*%
D14*
%TO.P,U2,1,IOUT_1*%
%TO.N,Net-(U2-IOUT)*%
X52380000Y-45100000D03*
D15*
%TO.P,U2,2,IREF_2*%
%TO.N,Net-(U2-IREF)*%
X54920000Y-45100000D03*
%TO.P,U2,3,FOUT_3*%
%TO.N,Net-(U1-CAT)*%
X57460000Y-45100000D03*
%TO.P,U2,4,GND_4*%
%TO.N,POST_HV-*%
X60000000Y-45100000D03*
%TO.P,U2,5,RC_5*%
%TO.N,Net-(U2-RC)*%
X60000000Y-37480000D03*
%TO.P,U2,6,THRESH_6*%
%TO.N,Net-(U2-IOUT)*%
X57460000Y-37480000D03*
%TO.P,U2,7,COMPIN_7*%
%TO.N,Net-(U2-COMPIN)*%
X54920000Y-37480000D03*
%TO.P,U2,8,VS_8*%
%TO.N,POST_12V_HV*%
X52380000Y-37480000D03*
%TD*%
D11*
%TO.P,Molex3,*%
%TO.N,*%
X27930000Y-37030000D03*
X27930000Y-43030000D03*
D12*
%TO.P,Molex3,1,Pin_1_1*%
%TO.N,Net-(Molex3-Pin_1)*%
X28870000Y-40030000D03*
%TO.P,Molex3,2,Pin_2_2*%
X31870000Y-40030000D03*
%TD*%
D16*
%TO.P,J3,1,Pin_1_1*%
%TO.N,USART2_TX*%
X96725000Y-60500000D03*
D17*
%TO.P,J3,2,Pin_2_2*%
%TO.N,GLV-*%
X99265000Y-60500000D03*
%TD*%
D10*
%TO.P,U6,1,-VIN_1*%
%TO.N,GLV-*%
X86740000Y-52000000D03*
%TO.P,U6,2,+VIN_2*%
%TO.N,GLV+*%
X84200000Y-52000000D03*
%TO.P,U6,3,CONTROL_3*%
%TO.N,unconnected-(U6-CONTROL-Pad3)*%
X81660000Y-52000000D03*
%TO.P,U6,6,+VOUT_6*%
%TO.N,PRE_12V_HV*%
X74040000Y-52000000D03*
%TO.P,U6,7,0V_7*%
%TO.N,PRE_HV-*%
X71500000Y-52000000D03*
%TO.P,U6,8,N/C_8*%
%TO.N,unconnected-(U6-N{slash}C-Pad8)*%
X68960000Y-52000000D03*
%TD*%
D11*
%TO.P,Molex1,*%
%TO.N,*%
X27903750Y-47150000D03*
X27903750Y-53150000D03*
D12*
%TO.P,Molex1,1,Pin_1_1*%
%TO.N,Net-(Molex1-Pin_1)*%
X28843750Y-50150000D03*
%TO.P,Molex1,2,Pin_2_2*%
X31843750Y-50150000D03*
%TD*%
D13*
%TO.P,F1,1*%
%TO.N,/HV+_postAIR*%
X44840000Y-33100000D03*
%TO.P,F1,2*%
%TO.N,Net-(Molex3-Pin_1)*%
X39760000Y-33100000D03*
%TD*%
D18*
%TO.P,J1,1,Pin_1_1*%
%TO.N,SDCin*%
X103793750Y-31200000D03*
D15*
%TO.P,J1,2,Pin_2_2*%
%TO.N,Pre_en*%
X100793750Y-31200000D03*
%TO.P,J1,3,Pin_3_3*%
%TO.N,AIR+_en*%
X97793750Y-31200000D03*
%TO.P,J1,4,Pin_4_4*%
%TO.N,Precharge_Fault*%
X94793750Y-31200000D03*
%TO.P,J1,5,Pin_5_5*%
%TO.N,CHG*%
X103793750Y-28200000D03*
%TO.P,J1,6,Pin_6_6*%
%TO.N,Charge_on*%
X100793750Y-28200000D03*
%TO.P,J1,7,Pin_7_7*%
%TO.N,GLV-*%
X97793750Y-28200000D03*
%TO.P,J1,8,Pin_8_8*%
%TO.N,Net-(J1-Pin_8)*%
X94793750Y-28200000D03*
%TD*%
D11*
%TO.P,Molex2,*%
%TO.N,*%
X45250000Y-61790000D03*
X45250000Y-55790000D03*
D12*
%TO.P,Molex2,1,Pin_1_1*%
%TO.N,PRE_HV-*%
X44310000Y-58790000D03*
%TO.P,Molex2,2,Pin_2_2*%
X41310000Y-58790000D03*
%TD*%
D16*
%TO.P,J2,1,Pin_1_1*%
%TO.N,3.3 V*%
X106473750Y-52500000D03*
D17*
%TO.P,J2,2,Pin_2_2*%
%TO.N,SWCLK*%
X109013750Y-52500000D03*
%TO.P,J2,3,Pin_3_3*%
%TO.N,SWDIO*%
X111553750Y-52500000D03*
%TO.P,J2,4,Pin_4_4*%
%TO.N,GLV-*%
X114093750Y-52500000D03*
%TD*%
D14*
%TO.P,U5,1,IOUT_1*%
%TO.N,Net-(U5-IOUT)*%
X63218554Y-62475000D03*
D15*
%TO.P,U5,2,IREF_2*%
%TO.N,Net-(U5-IREF)*%
X63218554Y-59935000D03*
%TO.P,U5,3,FOUT_3*%
%TO.N,Net-(U4-CAT)*%
X63218554Y-57395000D03*
%TO.P,U5,4,GND_4*%
%TO.N,PRE_HV-*%
X63218554Y-54855000D03*
%TO.P,U5,5,RC_5*%
%TO.N,Net-(U5-RC)*%
X55598554Y-54855000D03*
%TO.P,U5,6,THRESH_6*%
%TO.N,Net-(U5-IOUT)*%
X55598554Y-57395000D03*
%TO.P,U5,7,COMPIN_7*%
%TO.N,Net-(U5-COMPIN)*%
X55598554Y-59935000D03*
%TO.P,U5,8,VS_8*%
%TO.N,PRE_12V_HV*%
X55598554Y-62475000D03*
%TD*%
D19*
%TO.N,GLV-*%
X81547500Y-26052500D03*
X99500000Y-56500000D03*
X93770000Y-54460000D03*
X92280000Y-55240000D03*
X111000000Y-50500000D03*
X102000000Y-62500000D03*
X91550000Y-54450000D03*
X97900000Y-62700000D03*
X110800000Y-37850000D03*
X102480000Y-37500000D03*
X96000000Y-29500000D03*
X102400000Y-38110000D03*
X95000000Y-38500000D03*
X94500000Y-55250000D03*
X114500000Y-35000000D03*
X91500000Y-25500000D03*
X91540000Y-55240000D03*
X104500000Y-50000000D03*
X99238750Y-54765000D03*
X110000000Y-43790000D03*
X93020000Y-56100000D03*
X90500000Y-46500000D03*
X92290000Y-54450000D03*
X115600000Y-48600000D03*
X85650000Y-59050000D03*
X106320000Y-37440000D03*
X112000000Y-34000000D03*
X93020000Y-55250000D03*
X94500000Y-56100000D03*
X109000000Y-25500000D03*
X93760000Y-56100000D03*
X94510000Y-54460000D03*
X84200000Y-40400000D03*
X92280000Y-56090000D03*
X97800000Y-33500000D03*
X103500000Y-26000000D03*
X99300000Y-58400000D03*
X96500000Y-27000000D03*
X91540000Y-56090000D03*
X103500000Y-45000000D03*
X106130000Y-38020000D03*
X101028750Y-54785000D03*
X89500000Y-29000000D03*
X93030000Y-54460000D03*
X99000000Y-27000000D03*
X83200000Y-33100000D03*
X98200000Y-35900000D03*
X107000000Y-29000000D03*
X110550000Y-47100000D03*
X93760000Y-55250000D03*
X109000000Y-56500000D03*
%TO.N,GLV+*%
X86920000Y-40200000D03*
X95090000Y-45500000D03*
X93500000Y-45500000D03*
X94000000Y-46000000D03*
%TO.N,POST_HV-*%
X56700000Y-34000000D03*
X67500000Y-36000000D03*
X62500000Y-38000000D03*
X53800000Y-33400000D03*
X51500000Y-32000000D03*
X63900000Y-25000000D03*
X62500000Y-45000000D03*
X50000000Y-43600000D03*
%TO.N,CHG*%
X110800000Y-41200000D03*
X113000000Y-40550000D03*
%TO.N,3.3 V*%
X103000000Y-43175000D03*
X102500000Y-45500000D03*
X91389339Y-52500000D03*
%TO.N,Net-(U4-CAT)*%
X71000000Y-60700000D03*
%TO.N,PRE_HV-*%
X53502048Y-57685213D03*
X68200000Y-57602500D03*
X52500000Y-61000000D03*
X49000000Y-56500000D03*
X67500000Y-56000000D03*
X61000000Y-48000000D03*
X52000000Y-62000000D03*
%TO.N,Charge_on*%
X112050000Y-40050000D03*
X96244967Y-34550000D03*
%TO.N,SDCin*%
X113950000Y-39000000D03*
X111060000Y-36210000D03*
X112100000Y-38600000D03*
%TO.N,f_postAIR*%
X97500000Y-43150000D03*
X87700000Y-41350000D03*
%TO.N,Net-(U7-PA2)*%
X106177244Y-42500000D03*
X110900000Y-45800000D03*
%TO.N,AIR+_en_gate*%
X101500000Y-44000000D03*
X101500000Y-41800000D03*
%TO.N,SWDIO*%
X101500000Y-46400000D03*
%TO.N,SWCLK*%
X100500000Y-47050000D03*
%TD*%
%TO.N,CHG*%
D20*
X112350000Y-41200000D02*
X113000000Y-40550000D01*
X110800000Y-41200000D02*
X112350000Y-41200000D01*
%TO.N,Net-(U5-IOUT)*%
X55598554Y-57395000D02*
X58138554Y-57395000D01*
X58138554Y-57395000D02*
X63218554Y-62475000D01*
%TO.N,3.3 V*%
D21*
X91389339Y-52500000D02*
X106473750Y-52500000D01*
D20*
X103000000Y-43175000D02*
X102500000Y-43675000D01*
X102500000Y-43675000D02*
X102500000Y-45500000D01*
%TO.N,Net-(U4-CAT)*%
X66523554Y-60700000D02*
X63218554Y-57395000D01*
X71000000Y-60700000D02*
X66523554Y-60700000D01*
%TO.N,Charge_on*%
X96243750Y-30650000D02*
X97243750Y-29650000D01*
X109950000Y-38300000D02*
X111700000Y-40050000D01*
X102300000Y-29706250D02*
X102300000Y-32143471D01*
X108456529Y-38300000D02*
X109950000Y-38300000D01*
X96243750Y-32400000D02*
X96243750Y-30650000D01*
X111700000Y-40050000D02*
X112050000Y-40050000D01*
X99343750Y-29650000D02*
X100793750Y-28200000D01*
X96244967Y-32401217D02*
X96243750Y-32400000D01*
X100793750Y-28200000D02*
X102300000Y-29706250D01*
X96244967Y-34550000D02*
X96244967Y-32401217D01*
X102300000Y-32143471D02*
X108456529Y-38300000D01*
X97243750Y-29650000D02*
X99343750Y-29650000D01*
%TO.N,SDCin*%
D21*
X112500000Y-39000000D02*
X112100000Y-38600000D01*
X106160000Y-31200000D02*
X111060000Y-36100000D01*
X111060000Y-36100000D02*
X111060000Y-36210000D01*
X103793750Y-31200000D02*
X106160000Y-31200000D01*
X113950000Y-39000000D02*
X112500000Y-39000000D01*
%TO.N,f_postAIR*%
D20*
X89500000Y-43150000D02*
X97500000Y-43150000D01*
X87700000Y-41350000D02*
X89500000Y-43150000D01*
%TO.N,Net-(U7-PA2)*%
X108143750Y-44500000D02*
X109600000Y-44500000D01*
X109600000Y-44500000D02*
X110900000Y-45800000D01*
X106143750Y-42500000D02*
X108143750Y-44500000D01*
%TO.N,AIR+_en_gate*%
X101500000Y-41820000D02*
X101500000Y-41800000D01*
X101500000Y-44000000D02*
X101500000Y-41820000D01*
%TO.N,SWDIO*%
X102593750Y-46400000D02*
X104593750Y-48400000D01*
X104593750Y-48400000D02*
X107453750Y-48400000D01*
X101500000Y-46400000D02*
X102593750Y-46400000D01*
X107453750Y-48400000D02*
X111553750Y-52500000D01*
%TO.N,SWCLK*%
X100500000Y-47050000D02*
X102343750Y-47050000D01*
X107050000Y-49050000D02*
X109013750Y-51013750D01*
X102343750Y-47050000D02*
X104343750Y-49050000D01*
X104343750Y-49050000D02*
X107050000Y-49050000D01*
X109013750Y-51013750D02*
X109013750Y-52500000D01*
%TD*%
%TA.AperFunction,Conductor*%
%TO.N,GLV-*%
G36*
X97318505Y-28396853D02*
G01*
X97385648Y-28513147D01*
X97480603Y-28608102D01*
X97596897Y-28675245D01*
X97656175Y-28691128D01*
X97395734Y-28951569D01*
X97314953Y-29005545D01*
X97219665Y-29024499D01*
X97216835Y-29024499D01*
X97121547Y-29005545D01*
X97040765Y-28951569D01*
X96986789Y-28870787D01*
X96967835Y-28775499D01*
X96986789Y-28680211D01*
X97040765Y-28599429D01*
X97040766Y-28599429D01*
X97302621Y-28337573D01*
X97318505Y-28396853D01*
G37*
%TD.AperFunction*%
%TA.AperFunction,Conductor*%
G36*
X114814123Y-24355900D02*
G01*
X114878947Y-24370270D01*
X114899927Y-24375892D01*
X115265206Y-24491058D01*
X115285618Y-24498487D01*
X115639482Y-24645058D01*
X115659142Y-24654226D01*
X115998887Y-24831081D01*
X116017693Y-24841938D01*
X116300800Y-25022296D01*
X116340723Y-25047729D01*
X116358517Y-25060189D01*
X116662366Y-25293340D01*
X116679006Y-25307302D01*
X116961389Y-25566056D01*
X116976751Y-25581418D01*
X117235505Y-25863801D01*
X117249467Y-25880441D01*
X117482618Y-26184290D01*
X117495078Y-26202084D01*
X117700866Y-26525110D01*
X117711728Y-26543924D01*
X117888575Y-26883652D01*
X117897753Y-26903335D01*
X117902882Y-26915717D01*
X118044319Y-27257187D01*
X118051749Y-27277601D01*
X118166915Y-27642880D01*
X118172537Y-27663863D01*
X118255429Y-28037795D01*
X118259200Y-28059187D01*
X118309184Y-28438905D01*
X118311077Y-28460546D01*
X118328011Y-28848601D01*
X118328248Y-28859457D01*
X118328248Y-28935846D01*
X118328288Y-28936467D01*
X118342775Y-59144059D01*
X118342538Y-59155038D01*
X118325600Y-59543027D01*
X118323707Y-59564667D01*
X118273716Y-59944395D01*
X118269944Y-59965787D01*
X118187050Y-60339706D01*
X118181428Y-60360689D01*
X118066257Y-60725971D01*
X118058827Y-60746384D01*
X117912261Y-61100226D01*
X117903081Y-61119912D01*
X117726230Y-61459644D01*
X117715368Y-61478458D01*
X117509582Y-61801477D01*
X117497123Y-61819271D01*
X117263970Y-62123122D01*
X117250007Y-62139762D01*
X116991253Y-62422143D01*
X116975893Y-62437503D01*
X116693512Y-62696257D01*
X116676872Y-62710220D01*
X116373021Y-62943373D01*
X116355227Y-62955832D01*
X116032208Y-63161618D01*
X116013394Y-63172480D01*
X115673662Y-63349331D01*
X115653976Y-63358511D01*
X115300134Y-63505077D01*
X115279721Y-63512507D01*
X114914439Y-63627678D01*
X114893456Y-63633300D01*
X114519537Y-63716194D01*
X114498145Y-63719966D01*
X114118418Y-63769957D01*
X114096778Y-63771850D01*
X113708712Y-63788791D01*
X113697852Y-63789028D01*
X113622284Y-63789028D01*
X113620816Y-63789123D01*
X81049289Y-63826991D01*
X80953979Y-63808148D01*
X80873135Y-63754265D01*
X80819065Y-63673547D01*
X80800000Y-63578280D01*
X80800000Y-59602123D01*
X95374500Y-59602123D01*
X95374500Y-61397865D01*
X95374501Y-61397869D01*
X95380908Y-61457480D01*
X95380909Y-61457484D01*
X95429177Y-61586896D01*
X95431204Y-61592331D01*
X95517454Y-61707546D01*
X95632669Y-61793796D01*
X95767517Y-61844091D01*
X95827127Y-61850500D01*
X97622872Y-61850499D01*
X97682483Y-61844091D01*
X97817331Y-61793796D01*
X97932546Y-61707546D01*
X98018796Y-61592331D01*
X98069091Y-61457483D01*
X98075500Y-61397873D01*
X98075499Y-61397568D01*
X98081578Y-61376523D01*
X98092453Y-61355505D01*
X98102578Y-61323150D01*
X98124018Y-61294503D01*
X98126227Y-61290235D01*
X98128900Y-61287980D01*
X98145073Y-61266372D01*
X98782037Y-60629407D01*
X98799075Y-60692993D01*
X98864901Y-60807007D01*
X98957993Y-60900099D01*
X99072007Y-60965925D01*
X99135589Y-60982962D01*
X98542228Y-61576322D01*
X98526176Y-61631904D01*
X98557448Y-61654624D01*
X98746774Y-61751091D01*
X98746784Y-61751095D01*
X98948876Y-61816758D01*
X99158743Y-61849999D01*
X99158756Y-61850000D01*
X99371244Y-61850000D01*
X99371256Y-61849999D01*
X99581123Y-61816758D01*
X99783215Y-61751095D01*
X99783224Y-61751091D01*
X99972551Y-61654624D01*
X100026716Y-61615270D01*
X99394408Y-60982962D01*
X99457993Y-60965925D01*
X99572007Y-60900099D01*
X99665099Y-60807007D01*
X99730925Y-60692993D01*
X99747962Y-60629408D01*
X100380270Y-61261716D01*
X100419624Y-61207551D01*
X100516091Y-61018224D01*
X100516095Y-61018215D01*
X100581758Y-60816123D01*
X100614999Y-60606256D01*
X100615000Y-60606244D01*
X100615000Y-60393755D01*
X100614999Y-60393743D01*
X100581758Y-60183876D01*
X100516095Y-59981784D01*
X100516091Y-59981774D01*
X100419624Y-59792448D01*
X100380270Y-59738282D01*
X100380269Y-59738282D01*
X99747962Y-60370589D01*
X99730925Y-60307007D01*
X99665099Y-60192993D01*
X99572007Y-60099901D01*
X99457993Y-60034075D01*
X99394408Y-60017037D01*
X100026717Y-59384729D01*
X99972553Y-59345377D01*
X99972545Y-59345371D01*
X99783225Y-59248908D01*
X99783215Y-59248904D01*
X99710193Y-59225178D01*
X111183250Y-59225178D01*
X111183250Y-59494821D01*
X111213437Y-59762731D01*
X111220220Y-59792448D01*
X111273434Y-60025591D01*
X111273435Y-60025593D01*
X111362479Y-60280070D01*
X111362483Y-60280079D01*
X111479466Y-60522997D01*
X111479467Y-60522998D01*
X111479470Y-60523005D01*
X111622911Y-60751288D01*
X111674615Y-60816123D01*
X111791016Y-60962085D01*
X111981665Y-61152734D01*
X112118324Y-61261716D01*
X112192461Y-61320838D01*
X112420744Y-61464279D01*
X112420747Y-61464280D01*
X112420753Y-61464284D01*
X112663671Y-61581267D01*
X112663676Y-61581268D01*
X112663679Y-61581270D01*
X112695284Y-61592329D01*
X112918159Y-61670316D01*
X113181018Y-61730312D01*
X113448928Y-61760499D01*
X113448941Y-61760500D01*
X113718559Y-61760500D01*
X113718571Y-61760499D01*
X113921530Y-61737630D01*
X113986482Y-61730312D01*
X114249341Y-61670316D01*
X114503829Y-61581267D01*
X114746747Y-61464284D01*
X114975039Y-61320838D01*
X115185835Y-61152734D01*
X115376484Y-60962085D01*
X115544588Y-60751289D01*
X115688034Y-60522997D01*
X115805017Y-60280079D01*
X115894066Y-60025591D01*
X115954062Y-59762732D01*
X115972158Y-59602127D01*
X115984249Y-59494821D01*
X115984250Y-59494808D01*
X115984250Y-59225191D01*
X115984249Y-59225178D01*
X115954062Y-58957268D01*
X115894066Y-58694409D01*
X115805017Y-58439921D01*
X115688034Y-58197003D01*
X115688030Y-58196997D01*
X115688029Y-58196994D01*
X115544588Y-57968711D01*
X115376486Y-57757918D01*
X115376484Y-57757915D01*
X115185835Y-57567266D01*
X114975039Y-57399162D01*
X114975040Y-57399162D01*
X114975038Y-57399161D01*
X114746755Y-57255720D01*
X114746749Y-57255717D01*
X114746747Y-57255716D01*
X114610794Y-57190244D01*
X114503834Y-57138735D01*
X114503820Y-57138729D01*
X114315711Y-57072908D01*
X114249341Y-57049684D01*
X114140719Y-57024891D01*
X113986481Y-56989687D01*
X113718571Y-56959500D01*
X113718559Y-56959500D01*
X113448941Y-56959500D01*
X113448928Y-56959500D01*
X113181018Y-56989687D01*
X112981163Y-57035303D01*
X112918159Y-57049684D01*
X112918156Y-57049684D01*
X112918156Y-57049685D01*
X112663679Y-57138729D01*
X112663665Y-57138735D01*
X112420751Y-57255717D01*
X112420744Y-57255720D01*
X112192461Y-57399161D01*
X111981668Y-57567263D01*
X111981660Y-57567270D01*
X111791020Y-57757910D01*
X111791013Y-57757918D01*
X111622911Y-57968711D01*
X111479470Y-58196994D01*
X111479467Y-58197001D01*
X111362485Y-58439915D01*
X111362479Y-58439929D01*
X111273435Y-58694406D01*
X111213437Y-58957268D01*
X111183250Y-59225178D01*
X99710193Y-59225178D01*
X99581123Y-59183241D01*
X99371256Y-59150000D01*
X99158743Y-59150000D01*
X98948876Y-59183241D01*
X98746784Y-59248904D01*
X98746774Y-59248908D01*
X98557454Y-59345372D01*
X98557441Y-59345380D01*
X98525958Y-59368253D01*
X98541658Y-59423105D01*
X99135590Y-60017037D01*
X99072007Y-60034075D01*
X98957993Y-60099901D01*
X98864901Y-60192993D01*
X98799075Y-60307007D01*
X98782037Y-60370590D01*
X98145072Y-59733625D01*
X98091096Y-59652844D01*
X98081754Y-59626072D01*
X98075499Y-59604218D01*
X98075499Y-59602128D01*
X98069091Y-59542517D01*
X98018796Y-59407669D01*
X97932546Y-59292454D01*
X97817331Y-59206204D01*
X97737117Y-59176286D01*
X97682481Y-59155908D01*
X97622873Y-59149500D01*
X95827134Y-59149500D01*
X95827130Y-59149500D01*
X95827128Y-59149501D01*
X95814314Y-59150878D01*
X95767519Y-59155908D01*
X95767515Y-59155909D01*
X95632670Y-59206203D01*
X95517455Y-59292453D01*
X95517453Y-59292455D01*
X95431204Y-59407669D01*
X95380908Y-59542518D01*
X95374500Y-59602123D01*
X80800000Y-59602123D01*
X80800000Y-53271047D01*
X80818954Y-53175759D01*
X80872930Y-53094977D01*
X80953712Y-53041001D01*
X81049000Y-53022047D01*
X81144288Y-53041001D01*
X81162030Y-53049180D01*
X81214369Y-53075848D01*
X81388155Y-53132315D01*
X81568635Y-53160900D01*
X81568639Y-53160900D01*
X81751361Y-53160900D01*
X81751365Y-53160900D01*
X81931845Y-53132315D01*
X82105631Y-53075848D01*
X82268444Y-52992891D01*
X82416276Y-52885485D01*
X82545485Y-52756276D01*
X82652891Y-52608444D01*
X82708140Y-52500009D01*
X82768287Y-52423714D01*
X82853054Y-52376242D01*
X82949536Y-52364823D01*
X83043043Y-52391194D01*
X83119341Y-52451342D01*
X83151858Y-52500008D01*
X83185394Y-52565826D01*
X83207111Y-52608448D01*
X83314509Y-52756269D01*
X83314511Y-52756271D01*
X83314515Y-52756276D01*
X83443724Y-52885485D01*
X83443727Y-52885487D01*
X83443730Y-52885490D01*
X83463838Y-52900099D01*
X83591556Y-52992891D01*
X83754369Y-53075848D01*
X83928155Y-53132315D01*
X84108635Y-53160900D01*
X84108639Y-53160900D01*
X84291361Y-53160900D01*
X84291365Y-53160900D01*
X84471845Y-53132315D01*
X84645631Y-53075848D01*
X84808444Y-52992891D01*
X84956276Y-52885485D01*
X85085485Y-52756276D01*
X85192891Y-52608444D01*
X85253392Y-52489702D01*
X85259195Y-52480429D01*
X85285141Y-52452880D01*
X85308567Y-52423165D01*
X85318219Y-52417759D01*
X85325806Y-52409704D01*
X85360320Y-52394180D01*
X85393334Y-52375692D01*
X85404320Y-52374391D01*
X85414412Y-52369853D01*
X85452239Y-52368720D01*
X85489815Y-52364273D01*
X85500463Y-52367276D01*
X85511524Y-52366945D01*
X85546901Y-52380372D01*
X85583323Y-52390644D01*
X85592012Y-52397494D01*
X85602356Y-52401420D01*
X85629904Y-52427366D01*
X85659620Y-52450792D01*
X85667841Y-52463096D01*
X85673081Y-52468031D01*
X85677079Y-52476921D01*
X85692141Y-52499462D01*
X85747531Y-52608172D01*
X85747536Y-52608181D01*
X85760467Y-52625977D01*
X86333600Y-52052844D01*
X86333600Y-52053504D01*
X86361295Y-52156865D01*
X86414799Y-52249536D01*
X86490464Y-52325201D01*
X86583135Y-52378705D01*
X86686496Y-52406400D01*
X86687153Y-52406400D01*
X86114021Y-52979531D01*
X86114021Y-52979532D01*
X86131810Y-52992458D01*
X86131822Y-52992465D01*
X86294556Y-53075382D01*
X86294565Y-53075386D01*
X86468274Y-53131827D01*
X86648664Y-53160398D01*
X86648679Y-53160400D01*
X86831321Y-53160400D01*
X86831335Y-53160398D01*
X87011725Y-53131827D01*
X87185434Y-53075386D01*
X87185443Y-53075382D01*
X87348176Y-52992466D01*
X87348187Y-52992459D01*
X87365977Y-52979532D01*
X86792845Y-52406400D01*
X86793504Y-52406400D01*
X86896865Y-52378705D01*
X86989536Y-52325201D01*
X87065201Y-52249536D01*
X87118705Y-52156865D01*
X87146400Y-52053504D01*
X87146400Y-52052845D01*
X87719532Y-52625977D01*
X87732459Y-52608187D01*
X87732466Y-52608176D01*
X87815382Y-52445443D01*
X87815388Y-52445431D01*
X87823276Y-52421153D01*
X90588839Y-52421153D01*
X90588839Y-52578846D01*
X90619600Y-52733492D01*
X90619602Y-52733497D01*
X90679942Y-52879173D01*
X90679945Y-52879180D01*
X90755925Y-52992891D01*
X90767550Y-53010289D01*
X90879050Y-53121789D01*
X90879053Y-53121791D01*
X91010158Y-53209393D01*
X91010159Y-53209393D01*
X91010160Y-53209394D01*
X91155842Y-53269737D01*
X91155844Y-53269737D01*
X91155846Y-53269738D01*
X91306487Y-53299702D01*
X91310497Y-53300500D01*
X91468181Y-53300500D01*
X91622836Y-53269737D01*
X91622906Y-53269707D01*
X91623524Y-53269453D01*
X91624246Y-53269309D01*
X91634547Y-53266185D01*
X91634854Y-53267199D01*
X91718809Y-53250500D01*
X104883741Y-53250500D01*
X104979029Y-53269454D01*
X105059811Y-53323430D01*
X105113787Y-53404212D01*
X105123652Y-53442891D01*
X105126076Y-53442319D01*
X105129659Y-53457484D01*
X105154600Y-53524353D01*
X105179954Y-53592331D01*
X105266204Y-53707546D01*
X105381419Y-53793796D01*
X105516267Y-53844091D01*
X105575877Y-53850500D01*
X107371622Y-53850499D01*
X107431233Y-53844091D01*
X107566081Y-53793796D01*
X107681296Y-53707546D01*
X107767546Y-53592331D01*
X107767546Y-53592329D01*
X107778219Y-53578073D01*
X107781366Y-53580429D01*
X107822539Y-53531159D01*
X107908625Y-53486123D01*
X108005393Y-53477458D01*
X108098110Y-53506485D01*
X108125376Y-53525270D01*
X108126043Y-53524353D01*
X108133956Y-53530102D01*
X108133958Y-53530104D01*
X108305934Y-53655051D01*
X108495338Y-53751557D01*
X108697507Y-53817246D01*
X108771351Y-53828941D01*
X108907453Y-53850499D01*
X108907460Y-53850499D01*
X108907463Y-53850500D01*
X108907466Y-53850500D01*
X109120034Y-53850500D01*
X109120037Y-53850500D01*
X109120040Y-53850499D01*
X109120046Y-53850499D01*
X109219226Y-53834789D01*
X109329993Y-53817246D01*
X109532162Y-53751557D01*
X109721566Y-53655051D01*
X109893542Y-53530104D01*
X110043854Y-53379792D01*
X110082305Y-53326867D01*
X110153647Y-53260920D01*
X110244797Y-53227293D01*
X110341877Y-53231107D01*
X110430108Y-53271781D01*
X110485194Y-53326867D01*
X110523646Y-53379792D01*
X110673958Y-53530104D01*
X110845934Y-53655051D01*
X111035338Y-53751557D01*
X111237507Y-53817246D01*
X111311351Y-53828941D01*
X111447453Y-53850499D01*
X111447460Y-53850499D01*
X111447463Y-53850500D01*
X111447466Y-53850500D01*
X111660034Y-53850500D01*
X111660037Y-53850500D01*
X111660040Y-53850499D01*
X111660046Y-53850499D01*
X111759226Y-53834789D01*
X111869993Y-53817246D01*
X112072162Y-53751557D01*
X112261566Y-53655051D01*
X112433542Y-53530104D01*
X112583854Y-53379792D01*
X112585839Y-53377058D01*
X112588057Y-53374008D01*
X112611886Y-53341208D01*
X112622613Y-53326443D01*
X112693955Y-53260494D01*
X112785105Y-53226866D01*
X112882185Y-53230679D01*
X112943551Y-53258968D01*
X112978479Y-53261717D01*
X113610787Y-52629408D01*
X113627825Y-52692993D01*
X113693651Y-52807007D01*
X113786743Y-52900099D01*
X113900757Y-52965925D01*
X113964339Y-52982962D01*
X113332032Y-53615269D01*
X113332032Y-53615270D01*
X113386198Y-53654624D01*
X113575524Y-53751091D01*
X113575534Y-53751095D01*
X113777626Y-53816758D01*
X113987493Y-53849999D01*
X113987506Y-53850000D01*
X114199994Y-53850000D01*
X114200006Y-53849999D01*
X114409873Y-53816758D01*
X114611965Y-53751095D01*
X114611974Y-53751091D01*
X114801301Y-53654624D01*
X114855466Y-53615270D01*
X114223158Y-52982962D01*
X114286743Y-52965925D01*
X114400757Y-52900099D01*
X114493849Y-52807007D01*
X114559675Y-52692993D01*
X114576712Y-52629408D01*
X115209020Y-53261716D01*
X115248374Y-53207551D01*
X115344841Y-53018224D01*
X115344845Y-53018215D01*
X115410508Y-52816123D01*
X115443749Y-52606256D01*
X115443750Y-52606244D01*
X115443750Y-52393755D01*
X115443749Y-52393743D01*
X115410508Y-52183876D01*
X115344845Y-51981784D01*
X115344841Y-51981774D01*
X115248374Y-51792448D01*
X115209020Y-51738282D01*
X115209019Y-51738282D01*
X114576712Y-52370589D01*
X114559675Y-52307007D01*
X114493849Y-52192993D01*
X114400757Y-52099901D01*
X114286743Y-52034075D01*
X114223158Y-52017037D01*
X114855467Y-51384729D01*
X114801301Y-51345375D01*
X114801295Y-51345371D01*
X114611975Y-51248908D01*
X114611965Y-51248904D01*
X114409873Y-51183241D01*
X114200006Y-51150000D01*
X113987493Y-51150000D01*
X113777626Y-51183241D01*
X113575534Y-51248904D01*
X113575524Y-51248908D01*
X113386204Y-51345372D01*
X113386191Y-51345380D01*
X113332031Y-51384728D01*
X113964341Y-52017037D01*
X113900757Y-52034075D01*
X113786743Y-52099901D01*
X113693651Y-52192993D01*
X113627825Y-52307007D01*
X113610787Y-52370590D01*
X112978478Y-51738281D01*
X112951783Y-51740382D01*
X112917586Y-51752998D01*
X112882183Y-51769319D01*
X112872292Y-51769707D01*
X112863007Y-51773133D01*
X112824057Y-51771601D01*
X112785103Y-51773132D01*
X112775816Y-51769705D01*
X112765926Y-51769317D01*
X112730526Y-51752997D01*
X112693953Y-51739504D01*
X112686684Y-51732784D01*
X112677696Y-51728641D01*
X112622614Y-51673557D01*
X112583854Y-51620208D01*
X112433542Y-51469896D01*
X112261566Y-51344949D01*
X112072162Y-51248443D01*
X112072159Y-51248442D01*
X112072157Y-51248441D01*
X111869990Y-51182753D01*
X111660046Y-51149500D01*
X111660037Y-51149500D01*
X111447463Y-51149500D01*
X111447460Y-51149500D01*
X111447451Y-51149501D01*
X111262322Y-51178823D01*
X111165242Y-51175009D01*
X111077012Y-51134334D01*
X111047300Y-51108959D01*
X107939609Y-48001269D01*
X107939608Y-48001267D01*
X107852483Y-47914142D01*
X107801259Y-47879915D01*
X107800566Y-47879452D01*
X107750038Y-47845689D01*
X107750036Y-47845688D01*
X107669542Y-47812347D01*
X107669541Y-47812346D01*
X107651304Y-47804792D01*
X107636202Y-47798537D01*
X107636199Y-47798536D01*
X107636196Y-47798535D01*
X107575782Y-47786518D01*
X107515362Y-47774500D01*
X107515357Y-47774500D01*
X107515356Y-47774500D01*
X104955980Y-47774500D01*
X104860692Y-47755546D01*
X104779910Y-47701570D01*
X103252241Y-46173901D01*
X103198265Y-46093119D01*
X103179311Y-45997831D01*
X103198265Y-45902543D01*
X103208714Y-45880450D01*
X103209385Y-45879192D01*
X103209394Y-45879179D01*
X103269737Y-45733497D01*
X103300500Y-45578842D01*
X103300500Y-45421158D01*
X103274354Y-45289714D01*
X103269738Y-45266507D01*
X103269737Y-45266505D01*
X103269737Y-45266503D01*
X103209394Y-45120821D01*
X103167463Y-45058066D01*
X103130284Y-44968306D01*
X103125500Y-44919731D01*
X103125500Y-44155847D01*
X103144454Y-44060559D01*
X103198430Y-43979777D01*
X103279210Y-43925801D01*
X103379179Y-43884394D01*
X103510289Y-43796789D01*
X103621789Y-43685289D01*
X103709394Y-43554179D01*
X103769737Y-43408497D01*
X103800500Y-43253842D01*
X103800500Y-43096158D01*
X103795526Y-43071153D01*
X103769738Y-42941507D01*
X103769737Y-42941505D01*
X103769737Y-42941503D01*
X103709394Y-42795821D01*
X103667750Y-42733497D01*
X103621791Y-42664714D01*
X103621789Y-42664711D01*
X103510289Y-42553211D01*
X103486447Y-42537280D01*
X103379180Y-42465606D01*
X103379173Y-42465603D01*
X103271859Y-42421153D01*
X105376744Y-42421153D01*
X105376744Y-42578846D01*
X105407505Y-42733492D01*
X105407507Y-42733497D01*
X105467847Y-42879173D01*
X105467850Y-42879180D01*
X105509496Y-42941507D01*
X105555455Y-43010289D01*
X105666955Y-43121789D01*
X105666958Y-43121791D01*
X105798063Y-43209393D01*
X105798064Y-43209393D01*
X105798065Y-43209394D01*
X105943745Y-43269736D01*
X105943747Y-43269737D01*
X105975957Y-43276144D01*
X106065715Y-43313322D01*
X106103449Y-43344289D01*
X107657889Y-44898729D01*
X107657892Y-44898733D01*
X107745017Y-44985858D01*
X107796236Y-45020081D01*
X107796239Y-45020084D01*
X107796240Y-45020084D01*
X107847464Y-45054312D01*
X107882765Y-45068934D01*
X107922348Y-45085330D01*
X107922351Y-45085330D01*
X107922352Y-45085331D01*
X107961298Y-45101463D01*
X108021721Y-45113481D01*
X108051517Y-45119408D01*
X108082142Y-45125500D01*
X108082143Y-45125500D01*
X108082144Y-45125500D01*
X109237770Y-45125500D01*
X109333058Y-45144454D01*
X109413840Y-45198430D01*
X110047393Y-45831983D01*
X110101369Y-45912765D01*
X110115538Y-45959473D01*
X110130262Y-46033495D01*
X110130263Y-46033497D01*
X110190603Y-46179173D01*
X110190606Y-46179180D01*
X110271670Y-46300500D01*
X110278211Y-46310289D01*
X110389711Y-46421789D01*
X110389714Y-46421791D01*
X110520819Y-46509393D01*
X110520820Y-46509393D01*
X110520821Y-46509394D01*
X110666503Y-46569737D01*
X110666505Y-46569737D01*
X110666507Y-46569738D01*
X110817148Y-46599702D01*
X110821158Y-46600500D01*
X110978842Y-46600500D01*
X111133497Y-46569737D01*
X111279179Y-46509394D01*
X111410289Y-46421789D01*
X111521789Y-46310289D01*
X111609394Y-46179179D01*
X111669737Y-46033497D01*
X111700500Y-45878842D01*
X111700500Y-45721158D01*
X111682419Y-45630261D01*
X111669738Y-45566507D01*
X111669737Y-45566505D01*
X111669737Y-45566503D01*
X111609394Y-45420821D01*
X111521789Y-45289711D01*
X111410289Y-45178211D01*
X111410285Y-45178208D01*
X111279180Y-45090606D01*
X111279173Y-45090603D01*
X111133497Y-45030263D01*
X111133495Y-45030262D01*
X111059473Y-45015538D01*
X110969714Y-44978358D01*
X110931983Y-44947393D01*
X110085859Y-44101269D01*
X110085858Y-44101267D01*
X109998733Y-44014142D01*
X109934595Y-43971286D01*
X109927012Y-43966219D01*
X109896288Y-43945689D01*
X109893990Y-43944737D01*
X109815792Y-43912347D01*
X109815791Y-43912346D01*
X109782452Y-43898537D01*
X109711348Y-43884394D01*
X109711346Y-43884393D01*
X109711345Y-43884393D01*
X109661607Y-43874500D01*
X109661606Y-43874500D01*
X108505980Y-43874500D01*
X108410692Y-43855546D01*
X108329910Y-43801570D01*
X107038166Y-42509826D01*
X106984190Y-42429044D01*
X106970022Y-42382341D01*
X106946981Y-42266503D01*
X106886638Y-42120821D01*
X106885912Y-42119735D01*
X106799035Y-41989714D01*
X106799033Y-41989711D01*
X106687533Y-41878211D01*
X106687529Y-41878208D01*
X106556424Y-41790606D01*
X106556417Y-41790603D01*
X106410741Y-41730263D01*
X106410736Y-41730261D01*
X106256090Y-41699500D01*
X106256086Y-41699500D01*
X106098402Y-41699500D01*
X106098397Y-41699500D01*
X105943751Y-41730261D01*
X105943746Y-41730263D01*
X105798070Y-41790603D01*
X105798063Y-41790606D01*
X105666958Y-41878208D01*
X105555452Y-41989714D01*
X105467850Y-42120819D01*
X105467847Y-42120826D01*
X105407507Y-42266502D01*
X105407505Y-42266507D01*
X105376744Y-42421153D01*
X103271859Y-42421153D01*
X103233497Y-42405263D01*
X103233492Y-42405261D01*
X103078846Y-42374500D01*
X103078842Y-42374500D01*
X102921158Y-42374500D01*
X102921153Y-42374500D01*
X102766507Y-42405261D01*
X102766502Y-42405263D01*
X102620826Y-42465603D01*
X102620817Y-42465607D01*
X102569192Y-42500102D01*
X102479432Y-42537280D01*
X102382277Y-42537279D01*
X102292518Y-42500098D01*
X102223820Y-42431398D01*
X102186642Y-42341638D01*
X102186643Y-42244483D01*
X102205807Y-42190934D01*
X102204713Y-42190481D01*
X102259009Y-42059396D01*
X102269737Y-42033497D01*
X102300500Y-41878842D01*
X102300500Y-41721158D01*
X102273324Y-41584535D01*
X102269738Y-41566507D01*
X102269737Y-41566505D01*
X102269737Y-41566503D01*
X102209394Y-41420821D01*
X102197222Y-41402605D01*
X102121791Y-41289714D01*
X102121789Y-41289711D01*
X102010289Y-41178211D01*
X102000678Y-41171789D01*
X101879180Y-41090606D01*
X101879173Y-41090603D01*
X101733497Y-41030263D01*
X101733492Y-41030261D01*
X101578846Y-40999500D01*
X101578842Y-40999500D01*
X101421158Y-40999500D01*
X101421153Y-40999500D01*
X101266507Y-41030261D01*
X101266502Y-41030263D01*
X101120826Y-41090603D01*
X101120819Y-41090606D01*
X100989714Y-41178208D01*
X100878208Y-41289714D01*
X100790606Y-41420819D01*
X100790603Y-41420826D01*
X100730263Y-41566502D01*
X100730261Y-41566507D01*
X100699500Y-41721153D01*
X100699500Y-41878846D01*
X100730261Y-42033492D01*
X100730263Y-42033497D01*
X100790603Y-42179173D01*
X100790608Y-42179182D01*
X100832535Y-42241930D01*
X100869715Y-42331690D01*
X100874500Y-42380268D01*
X100874500Y-43419731D01*
X100855546Y-43515019D01*
X100832537Y-43558066D01*
X100790608Y-43620818D01*
X100790602Y-43620829D01*
X100730263Y-43766502D01*
X100730261Y-43766507D01*
X100699500Y-43921153D01*
X100699500Y-44078846D01*
X100730261Y-44233492D01*
X100730263Y-44233497D01*
X100790603Y-44379173D01*
X100790606Y-44379180D01*
X100878208Y-44510285D01*
X100878211Y-44510289D01*
X100989711Y-44621789D01*
X100989714Y-44621791D01*
X101120819Y-44709393D01*
X101120820Y-44709393D01*
X101120821Y-44709394D01*
X101266503Y-44769737D01*
X101266505Y-44769737D01*
X101266507Y-44769738D01*
X101371418Y-44790606D01*
X101421158Y-44800500D01*
X101550633Y-44800500D01*
X101645921Y-44819454D01*
X101726703Y-44873430D01*
X101780679Y-44954212D01*
X101799633Y-45049500D01*
X101780679Y-45144786D01*
X101758460Y-45198430D01*
X101740878Y-45240877D01*
X101730263Y-45266503D01*
X101703891Y-45399080D01*
X101666713Y-45488837D01*
X101598014Y-45557536D01*
X101508255Y-45594715D01*
X101459677Y-45599500D01*
X101421153Y-45599500D01*
X101266507Y-45630261D01*
X101266502Y-45630263D01*
X101120826Y-45690603D01*
X101120819Y-45690606D01*
X100989714Y-45778208D01*
X100878208Y-45889714D01*
X100790606Y-46020819D01*
X100790603Y-46020826D01*
X100759554Y-46095787D01*
X100705578Y-46176569D01*
X100624797Y-46230546D01*
X100529509Y-46249500D01*
X100421153Y-46249500D01*
X100266507Y-46280261D01*
X100266502Y-46280263D01*
X100120826Y-46340603D01*
X100120819Y-46340606D01*
X99989714Y-46428208D01*
X99878208Y-46539714D01*
X99790606Y-46670819D01*
X99790603Y-46670826D01*
X99730263Y-46816502D01*
X99730261Y-46816507D01*
X99699500Y-46971153D01*
X99699500Y-47128846D01*
X99730261Y-47283492D01*
X99730263Y-47283497D01*
X99790603Y-47429173D01*
X99790606Y-47429180D01*
X99878208Y-47560285D01*
X99878211Y-47560289D01*
X99989711Y-47671789D01*
X99989714Y-47671791D01*
X100120819Y-47759393D01*
X100120820Y-47759393D01*
X100120821Y-47759394D01*
X100266503Y-47819737D01*
X100266505Y-47819737D01*
X100266507Y-47819738D01*
X100417148Y-47849702D01*
X100421158Y-47850500D01*
X100578842Y-47850500D01*
X100733497Y-47819737D01*
X100879179Y-47759394D01*
X100895588Y-47748430D01*
X100941933Y-47717464D01*
X101031692Y-47680284D01*
X101080269Y-47675500D01*
X101981520Y-47675500D01*
X102076808Y-47694454D01*
X102157590Y-47748430D01*
X103857889Y-49448729D01*
X103857892Y-49448733D01*
X103945017Y-49535858D01*
X103996236Y-49570081D01*
X103996239Y-49570084D01*
X103996240Y-49570084D01*
X104047464Y-49604312D01*
X104127957Y-49637652D01*
X104161298Y-49651463D01*
X104221721Y-49663481D01*
X104251517Y-49669408D01*
X104282142Y-49675500D01*
X104282143Y-49675500D01*
X104282144Y-49675500D01*
X106687770Y-49675500D01*
X106783058Y-49694454D01*
X106863840Y-49748430D01*
X108189224Y-51073814D01*
X108243200Y-51154596D01*
X108262154Y-51249884D01*
X108243200Y-51345172D01*
X108189224Y-51425954D01*
X108159514Y-51451328D01*
X108126045Y-51475645D01*
X108124383Y-51473358D01*
X108055564Y-51511834D01*
X107959074Y-51523184D01*
X107865585Y-51496746D01*
X107789331Y-51436543D01*
X107778910Y-51421409D01*
X107778219Y-51421927D01*
X107767546Y-51407670D01*
X107767546Y-51407669D01*
X107681296Y-51292454D01*
X107566081Y-51206204D01*
X107482443Y-51175009D01*
X107431231Y-51155908D01*
X107371623Y-51149500D01*
X105575884Y-51149500D01*
X105575880Y-51149500D01*
X105575878Y-51149501D01*
X105563064Y-51150878D01*
X105516269Y-51155908D01*
X105516265Y-51155909D01*
X105381420Y-51206203D01*
X105266205Y-51292453D01*
X105266203Y-51292455D01*
X105179954Y-51407669D01*
X105129657Y-51542521D01*
X105126077Y-51557674D01*
X105121960Y-51556701D01*
X105102899Y-51618699D01*
X105040984Y-51693570D01*
X104955130Y-51739047D01*
X104883742Y-51749500D01*
X91718809Y-51749500D01*
X91634854Y-51732800D01*
X91634547Y-51733815D01*
X91624246Y-51730690D01*
X91623524Y-51730547D01*
X91622843Y-51730265D01*
X91622834Y-51730262D01*
X91468185Y-51699500D01*
X91468181Y-51699500D01*
X91310497Y-51699500D01*
X91310492Y-51699500D01*
X91155846Y-51730261D01*
X91155841Y-51730263D01*
X91010165Y-51790603D01*
X91010158Y-51790606D01*
X90879053Y-51878208D01*
X90767547Y-51989714D01*
X90679945Y-52120819D01*
X90679942Y-52120826D01*
X90619602Y-52266502D01*
X90619600Y-52266507D01*
X90588839Y-52421153D01*
X87823276Y-52421153D01*
X87852250Y-52331981D01*
X87852250Y-52331980D01*
X87871827Y-52271724D01*
X87900398Y-52091335D01*
X87900400Y-52091320D01*
X87900400Y-51908679D01*
X87900398Y-51908664D01*
X87871827Y-51728274D01*
X87815386Y-51554565D01*
X87815382Y-51554556D01*
X87732465Y-51391822D01*
X87732458Y-51391810D01*
X87719532Y-51374021D01*
X87719531Y-51374021D01*
X87146400Y-51947152D01*
X87146400Y-51946496D01*
X87118705Y-51843135D01*
X87065201Y-51750464D01*
X86989536Y-51674799D01*
X86896865Y-51621295D01*
X86793504Y-51593600D01*
X86792845Y-51593600D01*
X87365977Y-51020467D01*
X87348181Y-51007536D01*
X87348172Y-51007531D01*
X87185439Y-50924615D01*
X87185434Y-50924613D01*
X87011725Y-50868172D01*
X86831335Y-50839601D01*
X86831321Y-50839600D01*
X86648679Y-50839600D01*
X86648664Y-50839601D01*
X86468274Y-50868172D01*
X86294565Y-50924613D01*
X86294556Y-50924617D01*
X86131821Y-51007535D01*
X86131810Y-51007541D01*
X86114021Y-51020466D01*
X86687155Y-51593600D01*
X86686496Y-51593600D01*
X86583135Y-51621295D01*
X86490464Y-51674799D01*
X86414799Y-51750464D01*
X86361295Y-51843135D01*
X86333600Y-51946496D01*
X86333600Y-51947155D01*
X85760466Y-51374021D01*
X85747541Y-51391810D01*
X85747540Y-51391812D01*
X85692140Y-51500540D01*
X85680676Y-51515081D01*
X85673082Y-51531967D01*
X85650877Y-51552880D01*
X85631991Y-51576837D01*
X85615835Y-51585884D01*
X85602357Y-51598579D01*
X85573838Y-51609402D01*
X85547223Y-51624308D01*
X85528833Y-51626484D01*
X85511524Y-51633054D01*
X85481034Y-51632140D01*
X85450741Y-51635726D01*
X85432921Y-51630700D01*
X85414413Y-51630146D01*
X85386593Y-51617634D01*
X85357234Y-51609354D01*
X85342692Y-51597890D01*
X85325807Y-51590296D01*
X85310416Y-51572445D01*
X85280937Y-51549205D01*
X85259195Y-51519571D01*
X85253392Y-51510297D01*
X85192891Y-51391556D01*
X85085485Y-51243724D01*
X84956276Y-51114515D01*
X84956272Y-51114512D01*
X84956269Y-51114509D01*
X84808450Y-51007113D01*
X84808448Y-51007112D01*
X84808444Y-51007109D01*
X84645631Y-50924152D01*
X84645628Y-50924151D01*
X84645626Y-50924150D01*
X84548990Y-50892751D01*
X84471845Y-50867685D01*
X84471843Y-50867684D01*
X84471841Y-50867684D01*
X84291376Y-50839101D01*
X84291367Y-50839100D01*
X84291365Y-50839100D01*
X84108635Y-50839100D01*
X84108632Y-50839100D01*
X84108623Y-50839101D01*
X83928158Y-50867684D01*
X83754373Y-50924150D01*
X83754369Y-50924151D01*
X83754369Y-50924152D01*
X83591556Y-51007109D01*
X83591554Y-51007110D01*
X83591549Y-51007113D01*
X83443730Y-51114509D01*
X83314509Y-51243730D01*
X83207113Y-51391549D01*
X83207110Y-51391554D01*
X83207109Y-51391556D01*
X83151859Y-51499990D01*
X83091712Y-51576285D01*
X83006945Y-51623757D01*
X82910463Y-51635176D01*
X82816956Y-51608805D01*
X82740659Y-51548656D01*
X82708141Y-51499991D01*
X82652891Y-51391556D01*
X82640151Y-51374021D01*
X82545490Y-51243730D01*
X82545486Y-51243726D01*
X82545485Y-51243724D01*
X82416276Y-51114515D01*
X82416272Y-51114512D01*
X82416269Y-51114509D01*
X82268450Y-51007113D01*
X82268448Y-51007112D01*
X82268444Y-51007109D01*
X82105631Y-50924152D01*
X82105628Y-50924151D01*
X82105626Y-50924150D01*
X82008990Y-50892751D01*
X81931845Y-50867685D01*
X81931843Y-50867684D01*
X81931841Y-50867684D01*
X81751376Y-50839101D01*
X81751367Y-50839100D01*
X81751365Y-50839100D01*
X81568635Y-50839100D01*
X81568632Y-50839100D01*
X81568623Y-50839101D01*
X81388158Y-50867684D01*
X81214373Y-50924150D01*
X81214362Y-50924154D01*
X81162042Y-50950813D01*
X81068535Y-50977185D01*
X80972053Y-50965765D01*
X80887286Y-50918292D01*
X80827139Y-50841994D01*
X80800767Y-50748487D01*
X80800000Y-50728952D01*
X80800000Y-45421153D01*
X92699500Y-45421153D01*
X92699500Y-45578846D01*
X92730261Y-45733492D01*
X92730263Y-45733497D01*
X92790603Y-45879173D01*
X92790606Y-45879180D01*
X92878208Y-46010285D01*
X92878211Y-46010289D01*
X92989711Y-46121789D01*
X92989714Y-46121791D01*
X93120819Y-46209393D01*
X93145589Y-46219653D01*
X93226370Y-46273630D01*
X93280344Y-46354407D01*
X93290602Y-46379172D01*
X93290606Y-46379180D01*
X93319077Y-46421789D01*
X93378211Y-46510289D01*
X93489711Y-46621789D01*
X93489714Y-46621791D01*
X93620819Y-46709393D01*
X93620820Y-46709393D01*
X93620821Y-46709394D01*
X93766503Y-46769737D01*
X93766505Y-46769737D01*
X93766507Y-46769738D01*
X93917148Y-46799702D01*
X93921158Y-46800500D01*
X94078842Y-46800500D01*
X94233497Y-46769737D01*
X94379179Y-46709394D01*
X94510289Y-46621789D01*
X94621789Y-46510289D01*
X94698766Y-46395085D01*
X94767464Y-46326385D01*
X94857224Y-46289206D01*
X94954374Y-46289205D01*
X95011158Y-46300500D01*
X95168842Y-46300500D01*
X95323497Y-46269737D01*
X95469179Y-46209394D01*
X95600289Y-46121789D01*
X95711789Y-46010289D01*
X95799394Y-45879179D01*
X95859737Y-45733497D01*
X95890500Y-45578842D01*
X95890500Y-45421158D01*
X95864354Y-45289714D01*
X95859738Y-45266507D01*
X95859737Y-45266505D01*
X95859737Y-45266503D01*
X95799394Y-45120821D01*
X95794490Y-45113482D01*
X95711791Y-44989714D01*
X95711789Y-44989711D01*
X95600289Y-44878211D01*
X95593134Y-44873430D01*
X95469180Y-44790606D01*
X95469173Y-44790603D01*
X95323497Y-44730263D01*
X95323492Y-44730261D01*
X95168846Y-44699500D01*
X95168842Y-44699500D01*
X95011158Y-44699500D01*
X95011153Y-44699500D01*
X94856507Y-44730261D01*
X94856502Y-44730263D01*
X94710826Y-44790603D01*
X94710819Y-44790606D01*
X94579714Y-44878208D01*
X94579711Y-44878210D01*
X94579711Y-44878211D01*
X94471066Y-44986855D01*
X94390288Y-45040829D01*
X94295000Y-45059783D01*
X94199712Y-45040829D01*
X94118933Y-44986855D01*
X94010289Y-44878211D01*
X94003134Y-44873430D01*
X93879180Y-44790606D01*
X93879173Y-44790603D01*
X93733497Y-44730263D01*
X93733492Y-44730261D01*
X93578846Y-44699500D01*
X93578842Y-44699500D01*
X93421158Y-44699500D01*
X93421153Y-44699500D01*
X93266507Y-44730261D01*
X93266502Y-44730263D01*
X93120826Y-44790603D01*
X93120819Y-44790606D01*
X92989714Y-44878208D01*
X92878208Y-44989714D01*
X92790606Y-45120819D01*
X92790603Y-45120826D01*
X92730263Y-45266502D01*
X92730261Y-45266507D01*
X92699500Y-45421153D01*
X80800000Y-45421153D01*
X80800000Y-40121153D01*
X86119500Y-40121153D01*
X86119500Y-40278846D01*
X86150261Y-40433492D01*
X86150263Y-40433497D01*
X86210603Y-40579173D01*
X86210606Y-40579180D01*
X86243792Y-40628846D01*
X86298211Y-40710289D01*
X86409711Y-40821789D01*
X86409714Y-40821791D01*
X86540819Y-40909393D01*
X86540820Y-40909393D01*
X86540821Y-40909394D01*
X86686501Y-40969736D01*
X86686503Y-40969737D01*
X86704852Y-40973386D01*
X86794610Y-41010565D01*
X86863309Y-41079264D01*
X86900489Y-41169023D01*
X86900491Y-41258964D01*
X86900699Y-41258985D01*
X86900491Y-41261088D01*
X86900492Y-41266169D01*
X86899500Y-41271155D01*
X86899500Y-41428846D01*
X86930261Y-41583492D01*
X86930263Y-41583497D01*
X86990603Y-41729173D01*
X86990606Y-41729180D01*
X87058162Y-41830284D01*
X87078211Y-41860289D01*
X87189711Y-41971789D01*
X87189714Y-41971791D01*
X87320819Y-42059393D01*
X87320820Y-42059393D01*
X87320821Y-42059394D01*
X87466499Y-42119735D01*
X87466500Y-42119736D01*
X87466501Y-42119736D01*
X87466503Y-42119737D01*
X87540524Y-42134460D01*
X87630280Y-42171638D01*
X87668014Y-42202604D01*
X89101266Y-43635857D01*
X89101270Y-43635860D01*
X89101269Y-43635860D01*
X89203708Y-43704307D01*
X89203710Y-43704309D01*
X89203712Y-43704310D01*
X89203714Y-43704311D01*
X89317548Y-43751463D01*
X89438393Y-43775500D01*
X89438394Y-43775500D01*
X96919731Y-43775500D01*
X97015019Y-43794454D01*
X97058067Y-43817464D01*
X97120814Y-43859390D01*
X97120818Y-43859392D01*
X97120821Y-43859394D01*
X97266503Y-43919737D01*
X97266505Y-43919737D01*
X97266507Y-43919738D01*
X97417148Y-43949702D01*
X97421158Y-43950500D01*
X97578842Y-43950500D01*
X97733497Y-43919737D01*
X97879179Y-43859394D01*
X98010289Y-43771789D01*
X98121789Y-43660289D01*
X98209394Y-43529179D01*
X98269737Y-43383497D01*
X98300500Y-43228842D01*
X98300500Y-43071158D01*
X98269737Y-42916503D01*
X98209394Y-42770821D01*
X98138495Y-42664714D01*
X98121791Y-42639714D01*
X98121789Y-42639711D01*
X98010289Y-42528211D01*
X98010285Y-42528208D01*
X97879180Y-42440606D01*
X97879173Y-42440603D01*
X97733497Y-42380263D01*
X97733492Y-42380261D01*
X97578846Y-42349500D01*
X97578842Y-42349500D01*
X97421158Y-42349500D01*
X97421153Y-42349500D01*
X97266507Y-42380261D01*
X97266502Y-42380263D01*
X97120826Y-42440603D01*
X97120814Y-42440609D01*
X97058067Y-42482536D01*
X96968308Y-42519716D01*
X96919731Y-42524500D01*
X89862231Y-42524500D01*
X89766943Y-42505546D01*
X89686161Y-42451570D01*
X88552605Y-41318015D01*
X88498629Y-41237233D01*
X88484461Y-41190529D01*
X88469737Y-41116503D01*
X88409394Y-40970821D01*
X88406511Y-40966507D01*
X88321791Y-40839714D01*
X88321789Y-40839711D01*
X88210289Y-40728211D01*
X88183461Y-40710285D01*
X88079180Y-40640606D01*
X88079173Y-40640603D01*
X87933497Y-40580263D01*
X87933498Y-40580263D01*
X87915143Y-40576612D01*
X87825384Y-40539430D01*
X87756686Y-40470730D01*
X87719509Y-40380970D01*
X87719509Y-40291035D01*
X87719301Y-40291015D01*
X87719509Y-40288893D01*
X87719509Y-40283819D01*
X87720500Y-40278842D01*
X87720500Y-40121158D01*
X87704299Y-40039711D01*
X87689738Y-39966507D01*
X87689737Y-39966505D01*
X87689737Y-39966503D01*
X87629394Y-39820821D01*
X87616616Y-39801698D01*
X87541791Y-39689714D01*
X87541789Y-39689711D01*
X87430289Y-39578211D01*
X87430285Y-39578208D01*
X87299180Y-39490606D01*
X87299173Y-39490603D01*
X87153497Y-39430263D01*
X87153492Y-39430261D01*
X86998846Y-39399500D01*
X86998842Y-39399500D01*
X86841158Y-39399500D01*
X86841153Y-39399500D01*
X86686507Y-39430261D01*
X86686502Y-39430263D01*
X86540826Y-39490603D01*
X86540819Y-39490606D01*
X86409714Y-39578208D01*
X86298208Y-39689714D01*
X86210606Y-39820819D01*
X86210603Y-39820826D01*
X86150263Y-39966502D01*
X86150261Y-39966507D01*
X86119500Y-40121153D01*
X80800000Y-40121153D01*
X80800000Y-33047098D01*
X80818954Y-32951810D01*
X80872930Y-32871028D01*
X80953712Y-32817052D01*
X81049000Y-32798098D01*
X81144288Y-32817052D01*
X81182721Y-32838578D01*
X81183212Y-32837778D01*
X81191546Y-32842885D01*
X81191551Y-32842887D01*
X81191556Y-32842891D01*
X81354369Y-32925848D01*
X81528155Y-32982315D01*
X81708635Y-33010900D01*
X81708639Y-33010900D01*
X81891361Y-33010900D01*
X81891365Y-33010900D01*
X82071845Y-32982315D01*
X82245631Y-32925848D01*
X82408444Y-32842891D01*
X82556276Y-32735485D01*
X82685485Y-32606276D01*
X82792891Y-32458444D01*
X82848140Y-32350009D01*
X82908287Y-32273714D01*
X82993054Y-32226242D01*
X83089536Y-32214823D01*
X83183043Y-32241194D01*
X83259341Y-32301342D01*
X83291858Y-32350008D01*
X83309593Y-32384814D01*
X83347111Y-32458448D01*
X83454509Y-32606269D01*
X83454511Y-32606271D01*
X83454515Y-32606276D01*
X83583724Y-32735485D01*
X83583727Y-32735487D01*
X83583730Y-32735490D01*
X83725620Y-32838578D01*
X83731556Y-32842891D01*
X83894369Y-32925848D01*
X84068155Y-32982315D01*
X84248635Y-33010900D01*
X84248639Y-33010900D01*
X84431361Y-33010900D01*
X84431365Y-33010900D01*
X84611845Y-32982315D01*
X84785631Y-32925848D01*
X84948444Y-32842891D01*
X85096276Y-32735485D01*
X85225485Y-32606276D01*
X85332891Y-32458444D01*
X85393392Y-32339702D01*
X85399195Y-32330429D01*
X85425141Y-32302880D01*
X85448567Y-32273165D01*
X85458219Y-32267759D01*
X85465806Y-32259704D01*
X85500320Y-32244180D01*
X85533334Y-32225692D01*
X85544320Y-32224391D01*
X85554412Y-32219853D01*
X85592239Y-32218720D01*
X85629815Y-32214273D01*
X85640463Y-32217276D01*
X85651524Y-32216945D01*
X85686901Y-32230372D01*
X85723323Y-32240644D01*
X85732012Y-32247494D01*
X85742356Y-32251420D01*
X85769904Y-32277366D01*
X85799620Y-32300792D01*
X85807841Y-32313096D01*
X85813081Y-32318031D01*
X85817079Y-32326921D01*
X85832141Y-32349462D01*
X85887531Y-32458172D01*
X85887536Y-32458181D01*
X85900467Y-32475977D01*
X86473600Y-31902844D01*
X86473600Y-31903504D01*
X86501295Y-32006865D01*
X86554799Y-32099536D01*
X86630464Y-32175201D01*
X86723135Y-32228705D01*
X86826496Y-32256400D01*
X86827153Y-32256400D01*
X86254021Y-32829531D01*
X86254021Y-32829532D01*
X86271810Y-32842458D01*
X86271822Y-32842465D01*
X86434556Y-32925382D01*
X86434565Y-32925386D01*
X86608274Y-32981827D01*
X86788664Y-33010398D01*
X86788679Y-33010400D01*
X86971321Y-33010400D01*
X86971335Y-33010398D01*
X87151725Y-32981827D01*
X87325434Y-32925386D01*
X87325443Y-32925382D01*
X87488176Y-32842466D01*
X87488187Y-32842459D01*
X87505977Y-32829532D01*
X86932845Y-32256400D01*
X86933504Y-32256400D01*
X87036865Y-32228705D01*
X87129536Y-32175201D01*
X87205201Y-32099536D01*
X87258705Y-32006865D01*
X87286400Y-31903504D01*
X87286400Y-31902845D01*
X87859532Y-32475977D01*
X87872459Y-32458187D01*
X87872466Y-32458176D01*
X87955382Y-32295443D01*
X87955386Y-32295434D01*
X88011827Y-32121725D01*
X88040398Y-31941335D01*
X88040400Y-31941320D01*
X88040400Y-31758679D01*
X88040398Y-31758664D01*
X88011827Y-31578274D01*
X87955386Y-31404565D01*
X87955382Y-31404556D01*
X87872465Y-31241822D01*
X87872463Y-31241819D01*
X87869811Y-31238169D01*
X87869807Y-31238163D01*
X87859531Y-31224021D01*
X87286400Y-31797152D01*
X87286400Y-31796496D01*
X87258705Y-31693135D01*
X87205201Y-31600464D01*
X87129536Y-31524799D01*
X87036865Y-31471295D01*
X86933504Y-31443600D01*
X86932845Y-31443600D01*
X87274857Y-31101587D01*
X93543250Y-31101587D01*
X93543250Y-31298412D01*
X93543251Y-31298428D01*
X93572493Y-31483054D01*
X93574041Y-31492826D01*
X93634866Y-31680025D01*
X93724226Y-31855405D01*
X93724229Y-31855409D01*
X93724229Y-31855410D01*
X93807088Y-31969454D01*
X93839922Y-32014646D01*
X93979104Y-32153828D01*
X93999512Y-32168655D01*
X94135915Y-32267759D01*
X94138345Y-32269524D01*
X94313725Y-32358884D01*
X94500924Y-32419709D01*
X94695333Y-32450500D01*
X94695337Y-32450500D01*
X94892163Y-32450500D01*
X94892167Y-32450500D01*
X95086576Y-32419709D01*
X95273775Y-32358884D01*
X95273791Y-32358875D01*
X95275164Y-32358308D01*
X95276157Y-32358110D01*
X95283080Y-32355861D01*
X95283346Y-32356679D01*
X95370451Y-32339348D01*
X95465740Y-32358296D01*
X95546525Y-32412267D01*
X95600507Y-32493045D01*
X95619467Y-32588332D01*
X95619467Y-33969731D01*
X95600513Y-34065019D01*
X95577504Y-34108066D01*
X95535575Y-34170818D01*
X95535569Y-34170829D01*
X95475230Y-34316502D01*
X95475228Y-34316507D01*
X95444467Y-34471153D01*
X95444467Y-34628846D01*
X95475228Y-34783492D01*
X95475230Y-34783497D01*
X95535570Y-34929173D01*
X95535573Y-34929180D01*
X95623175Y-35060285D01*
X95623178Y-35060289D01*
X95734678Y-35171789D01*
X95734681Y-35171791D01*
X95865786Y-35259393D01*
X95865787Y-35259393D01*
X95865788Y-35259394D01*
X96011470Y-35319737D01*
X96011472Y-35319737D01*
X96011474Y-35319738D01*
X96162115Y-35349702D01*
X96166125Y-35350500D01*
X96323809Y-35350500D01*
X96478464Y-35319737D01*
X96624146Y-35259394D01*
X96755256Y-35171789D01*
X96866756Y-35060289D01*
X96954361Y-34929179D01*
X97014704Y-34783497D01*
X97045467Y-34628842D01*
X97045467Y-34471158D01*
X97014704Y-34316503D01*
X96954361Y-34170821D01*
X96912430Y-34108066D01*
X96875251Y-34018306D01*
X96870467Y-33969731D01*
X96870467Y-32539363D01*
X96889421Y-32444075D01*
X96943397Y-32363293D01*
X97024179Y-32309317D01*
X97119467Y-32290363D01*
X97214755Y-32309317D01*
X97232497Y-32317496D01*
X97313725Y-32358884D01*
X97500924Y-32419709D01*
X97695333Y-32450500D01*
X97695337Y-32450500D01*
X97892163Y-32450500D01*
X97892167Y-32450500D01*
X98086576Y-32419709D01*
X98273775Y-32358884D01*
X98449155Y-32269524D01*
X98608396Y-32153828D01*
X98747578Y-32014646D01*
X98863274Y-31855405D01*
X98952634Y-31680025D01*
X99013459Y-31492826D01*
X99044250Y-31298417D01*
X99044250Y-31101583D01*
X99013459Y-30907174D01*
X98952634Y-30719975D01*
X98936903Y-30689100D01*
X98910633Y-30637542D01*
X98884261Y-30544035D01*
X98895681Y-30447553D01*
X98943154Y-30362786D01*
X99019452Y-30302639D01*
X99112959Y-30276267D01*
X99132494Y-30275500D01*
X99405354Y-30275500D01*
X99405357Y-30275500D01*
X99409258Y-30274723D01*
X99413235Y-30274723D01*
X99417529Y-30274301D01*
X99417570Y-30274723D01*
X99506410Y-30274721D01*
X99596171Y-30311898D01*
X99664872Y-30380595D01*
X99702054Y-30470353D01*
X99702057Y-30567508D01*
X99679701Y-30631980D01*
X99634867Y-30719971D01*
X99634863Y-30719982D01*
X99574040Y-30907177D01*
X99543251Y-31101571D01*
X99543250Y-31101587D01*
X99543250Y-31298412D01*
X99543251Y-31298428D01*
X99572493Y-31483054D01*
X99574041Y-31492826D01*
X99634866Y-31680025D01*
X99724226Y-31855405D01*
X99724229Y-31855409D01*
X99724229Y-31855410D01*
X99807088Y-31969454D01*
X99839922Y-32014646D01*
X99979104Y-32153828D01*
X99999512Y-32168655D01*
X100135915Y-32267759D01*
X100138345Y-32269524D01*
X100313725Y-32358884D01*
X100500924Y-32419709D01*
X100695333Y-32450500D01*
X100695337Y-32450500D01*
X100892163Y-32450500D01*
X100892167Y-32450500D01*
X101086576Y-32419709D01*
X101273775Y-32358884D01*
X101395781Y-32296719D01*
X101489285Y-32270348D01*
X101585767Y-32281767D01*
X101670534Y-32329239D01*
X101730682Y-32405536D01*
X101738868Y-32423292D01*
X101745688Y-32439757D01*
X101779913Y-32490977D01*
X101779914Y-32490979D01*
X101812244Y-32539363D01*
X101814142Y-32542204D01*
X101901267Y-32629329D01*
X101901270Y-32629331D01*
X107970668Y-38698729D01*
X107970671Y-38698733D01*
X108057796Y-38785858D01*
X108057799Y-38785860D01*
X108107261Y-38818909D01*
X108107264Y-38818912D01*
X108107265Y-38818912D01*
X108160244Y-38854312D01*
X108226926Y-38881932D01*
X108274077Y-38901463D01*
X108334500Y-38913481D01*
X108364296Y-38919408D01*
X108394921Y-38925500D01*
X108394922Y-38925500D01*
X108394923Y-38925500D01*
X109587770Y-38925500D01*
X109683058Y-38944454D01*
X109763840Y-38998430D01*
X110761883Y-39996473D01*
X110815859Y-40077255D01*
X110834813Y-40172543D01*
X110815859Y-40267831D01*
X110761883Y-40348613D01*
X110681101Y-40402589D01*
X110634393Y-40416758D01*
X110566504Y-40430262D01*
X110566502Y-40430263D01*
X110420826Y-40490603D01*
X110420819Y-40490606D01*
X110289714Y-40578208D01*
X110178208Y-40689714D01*
X110090606Y-40820819D01*
X110090603Y-40820826D01*
X110030263Y-40966502D01*
X110030261Y-40966507D01*
X109999500Y-41121153D01*
X109999500Y-41278846D01*
X110030261Y-41433492D01*
X110030263Y-41433497D01*
X110090603Y-41579173D01*
X110090606Y-41579180D01*
X110171002Y-41699500D01*
X110178211Y-41710289D01*
X110289711Y-41821789D01*
X110289714Y-41821791D01*
X110420819Y-41909393D01*
X110420820Y-41909393D01*
X110420821Y-41909394D01*
X110566503Y-41969737D01*
X110566505Y-41969737D01*
X110566507Y-41969738D01*
X110666918Y-41989711D01*
X110721158Y-42000500D01*
X110878842Y-42000500D01*
X111033497Y-41969737D01*
X111179179Y-41909394D01*
X111179185Y-41909390D01*
X111241933Y-41867464D01*
X111331692Y-41830284D01*
X111380269Y-41825500D01*
X112411607Y-41825500D01*
X112472029Y-41813481D01*
X112532452Y-41801463D01*
X112565782Y-41787656D01*
X112565791Y-41787654D01*
X112565791Y-41787653D01*
X112622712Y-41764076D01*
X112646286Y-41754312D01*
X112712169Y-41710289D01*
X112748733Y-41685858D01*
X112835858Y-41598733D01*
X112835858Y-41598731D01*
X112850045Y-41584545D01*
X112850049Y-41584540D01*
X113031986Y-41402602D01*
X113112765Y-41348629D01*
X113159469Y-41334461D01*
X113233497Y-41319737D01*
X113379179Y-41259394D01*
X113510289Y-41171789D01*
X113621789Y-41060289D01*
X113709394Y-40929179D01*
X113769737Y-40783497D01*
X113800500Y-40628842D01*
X113800500Y-40471158D01*
X113769737Y-40316503D01*
X113709394Y-40170821D01*
X113709393Y-40170820D01*
X113707284Y-40166873D01*
X113705984Y-40162588D01*
X113704713Y-40159519D01*
X113705015Y-40159393D01*
X113679083Y-40073901D01*
X113688608Y-39977214D01*
X113734409Y-39891532D01*
X113809512Y-39829899D01*
X113902484Y-39801698D01*
X113926885Y-39800500D01*
X114028842Y-39800500D01*
X114183497Y-39769737D01*
X114329179Y-39709394D01*
X114460289Y-39621789D01*
X114571789Y-39510289D01*
X114659394Y-39379179D01*
X114719737Y-39233497D01*
X114750500Y-39078842D01*
X114750500Y-38921158D01*
X114723671Y-38786281D01*
X114719738Y-38766507D01*
X114719737Y-38766505D01*
X114719737Y-38766503D01*
X114659394Y-38620821D01*
X114571789Y-38489711D01*
X114460289Y-38378211D01*
X114442767Y-38366503D01*
X114329180Y-38290606D01*
X114329173Y-38290603D01*
X114183497Y-38230263D01*
X114183492Y-38230261D01*
X114028846Y-38199500D01*
X114028842Y-38199500D01*
X113871158Y-38199500D01*
X113871153Y-38199500D01*
X113716504Y-38230262D01*
X113716495Y-38230265D01*
X113715815Y-38230547D01*
X113715092Y-38230690D01*
X113704792Y-38233815D01*
X113704484Y-38232800D01*
X113620530Y-38249500D01*
X112961650Y-38249500D01*
X112866362Y-38230546D01*
X112785580Y-38176570D01*
X112754614Y-38138837D01*
X112721791Y-38089714D01*
X112721789Y-38089711D01*
X112610289Y-37978211D01*
X112610285Y-37978208D01*
X112479180Y-37890606D01*
X112479173Y-37890603D01*
X112333497Y-37830263D01*
X112333492Y-37830261D01*
X112178846Y-37799500D01*
X112178842Y-37799500D01*
X112021158Y-37799500D01*
X112021153Y-37799500D01*
X111866507Y-37830261D01*
X111866502Y-37830263D01*
X111720826Y-37890603D01*
X111720819Y-37890606D01*
X111589714Y-37978208D01*
X111478208Y-38089714D01*
X111390606Y-38220819D01*
X111390605Y-38220822D01*
X111347171Y-38325683D01*
X111293195Y-38406464D01*
X111212414Y-38460441D01*
X111117126Y-38479395D01*
X111021837Y-38460441D01*
X110941056Y-38406465D01*
X110941055Y-38406465D01*
X110435860Y-37901270D01*
X110435858Y-37901267D01*
X110348733Y-37814142D01*
X110297509Y-37779915D01*
X110296816Y-37779452D01*
X110246288Y-37745689D01*
X110246286Y-37745688D01*
X110165792Y-37712347D01*
X110165791Y-37712346D01*
X110147554Y-37704792D01*
X110132452Y-37698537D01*
X110132449Y-37698536D01*
X110132446Y-37698535D01*
X110072032Y-37686518D01*
X110011612Y-37674500D01*
X110011607Y-37674500D01*
X110011606Y-37674500D01*
X108818759Y-37674500D01*
X108723471Y-37655546D01*
X108642689Y-37601570D01*
X103916689Y-32875570D01*
X103862713Y-32794788D01*
X103843759Y-32699500D01*
X103862713Y-32604212D01*
X103916689Y-32523430D01*
X103997471Y-32469454D01*
X104092759Y-32450500D01*
X104343749Y-32450500D01*
X104343758Y-32450500D01*
X104446547Y-32439999D01*
X104613084Y-32384814D01*
X104762405Y-32292711D01*
X104886461Y-32168655D01*
X104948065Y-32068779D01*
X105014220Y-31997630D01*
X105102569Y-31957212D01*
X105159992Y-31950500D01*
X105745992Y-31950500D01*
X105841280Y-31969454D01*
X105922062Y-32023430D01*
X110223974Y-36325341D01*
X110277950Y-36406123D01*
X110285820Y-36432058D01*
X110286711Y-36431788D01*
X110290263Y-36443497D01*
X110350603Y-36589173D01*
X110350606Y-36589180D01*
X110438208Y-36720285D01*
X110438211Y-36720289D01*
X110549711Y-36831789D01*
X110549714Y-36831791D01*
X110680819Y-36919393D01*
X110680820Y-36919393D01*
X110680821Y-36919394D01*
X110826503Y-36979737D01*
X110826505Y-36979737D01*
X110826507Y-36979738D01*
X110977148Y-37009702D01*
X110981158Y-37010500D01*
X111138842Y-37010500D01*
X111293497Y-36979737D01*
X111439179Y-36919394D01*
X111570289Y-36831789D01*
X111681789Y-36720289D01*
X111769394Y-36589179D01*
X111829737Y-36443497D01*
X111860500Y-36288842D01*
X111860500Y-36131158D01*
X111829737Y-35976503D01*
X111769394Y-35830821D01*
X111760506Y-35817519D01*
X111737496Y-35774471D01*
X111725084Y-35744505D01*
X111642951Y-35621584D01*
X111642949Y-35621582D01*
X111538416Y-35517048D01*
X111538416Y-35517049D01*
X106638416Y-30617048D01*
X106546816Y-30555844D01*
X106515495Y-30534916D01*
X106378913Y-30478342D01*
X106378911Y-30478341D01*
X106233920Y-30449500D01*
X106233918Y-30449500D01*
X105159992Y-30449500D01*
X105064704Y-30430546D01*
X104983922Y-30376570D01*
X104948064Y-30331219D01*
X104913217Y-30274724D01*
X104886461Y-30231345D01*
X104762405Y-30107289D01*
X104613084Y-30015186D01*
X104613085Y-30015186D01*
X104497632Y-29976929D01*
X104446547Y-29960001D01*
X104425989Y-29957900D01*
X104343762Y-29949500D01*
X104343758Y-29949500D01*
X103243742Y-29949500D01*
X103243734Y-29949500D01*
X103243729Y-29949501D01*
X103199803Y-29953988D01*
X103103082Y-29944815D01*
X103017233Y-29899327D01*
X102955328Y-29824448D01*
X102926789Y-29731580D01*
X102925500Y-29706277D01*
X102925500Y-29644645D01*
X102925500Y-29644644D01*
X102918615Y-29610034D01*
X102918615Y-29512882D01*
X102955794Y-29423122D01*
X103024493Y-29354423D01*
X103114252Y-29317243D01*
X103211407Y-29317242D01*
X103275869Y-29339595D01*
X103313725Y-29358884D01*
X103500924Y-29419709D01*
X103695333Y-29450500D01*
X103695337Y-29450500D01*
X103892163Y-29450500D01*
X103892167Y-29450500D01*
X104086576Y-29419709D01*
X104273775Y-29358884D01*
X104449155Y-29269524D01*
X104608396Y-29153828D01*
X104747578Y-29014646D01*
X104841643Y-28885178D01*
X111183250Y-28885178D01*
X111183250Y-29154821D01*
X111213437Y-29422731D01*
X111242910Y-29551858D01*
X111273434Y-29685591D01*
X111288249Y-29727929D01*
X111362479Y-29940070D01*
X111362485Y-29940084D01*
X111411138Y-30041113D01*
X111479466Y-30182997D01*
X111479467Y-30182998D01*
X111479470Y-30183005D01*
X111622911Y-30411288D01*
X111653384Y-30449500D01*
X111791016Y-30622085D01*
X111981665Y-30812734D01*
X112041497Y-30860448D01*
X112192461Y-30980838D01*
X112420744Y-31124279D01*
X112420747Y-31124280D01*
X112420753Y-31124284D01*
X112663671Y-31241267D01*
X112663676Y-31241268D01*
X112663679Y-31241270D01*
X112665257Y-31241822D01*
X112918159Y-31330316D01*
X113181018Y-31390312D01*
X113448928Y-31420499D01*
X113448941Y-31420500D01*
X113718559Y-31420500D01*
X113718571Y-31420499D01*
X113921530Y-31397630D01*
X113986482Y-31390312D01*
X114249341Y-31330316D01*
X114503829Y-31241267D01*
X114746747Y-31124284D01*
X114975039Y-30980838D01*
X115185835Y-30812734D01*
X115376484Y-30622085D01*
X115544588Y-30411289D01*
X115688034Y-30182997D01*
X115805017Y-29940079D01*
X115894066Y-29685591D01*
X115954062Y-29422732D01*
X115973051Y-29254204D01*
X115984249Y-29154821D01*
X115984250Y-29154808D01*
X115984250Y-28885191D01*
X115984249Y-28885178D01*
X115954062Y-28617268D01*
X115936030Y-28538265D01*
X115894066Y-28354409D01*
X115805614Y-28101627D01*
X115805020Y-28099929D01*
X115805014Y-28099915D01*
X115688034Y-27857003D01*
X115688030Y-27856997D01*
X115688029Y-27856994D01*
X115544588Y-27628711D01*
X115537822Y-27620227D01*
X115376484Y-27417915D01*
X115185835Y-27227266D01*
X115065001Y-27130904D01*
X114975038Y-27059161D01*
X114746755Y-26915720D01*
X114746749Y-26915717D01*
X114746747Y-26915716D01*
X114610794Y-26850244D01*
X114503834Y-26798735D01*
X114503820Y-26798729D01*
X114315711Y-26732908D01*
X114249341Y-26709684D01*
X114140719Y-26684891D01*
X113986481Y-26649687D01*
X113718571Y-26619500D01*
X113718559Y-26619500D01*
X113448941Y-26619500D01*
X113448928Y-26619500D01*
X113181018Y-26649687D01*
X112981163Y-26695303D01*
X112918159Y-26709684D01*
X112918156Y-26709684D01*
X112918156Y-26709685D01*
X112663679Y-26798729D01*
X112663665Y-26798735D01*
X112420751Y-26915717D01*
X112420744Y-26915720D01*
X112192461Y-27059161D01*
X111981668Y-27227263D01*
X111981660Y-27227270D01*
X111791020Y-27417910D01*
X111791013Y-27417918D01*
X111622911Y-27628711D01*
X111479470Y-27856994D01*
X111479467Y-27857001D01*
X111362485Y-28099915D01*
X111362479Y-28099929D01*
X111273435Y-28354406D01*
X111273434Y-28354409D01*
X111259053Y-28417413D01*
X111213437Y-28617268D01*
X111183250Y-28885178D01*
X104841643Y-28885178D01*
X104863274Y-28855405D01*
X104952634Y-28680025D01*
X105013459Y-28492826D01*
X105044250Y-28298417D01*
X105044250Y-28101583D01*
X105013459Y-27907174D01*
X104952634Y-27719975D01*
X104863274Y-27544595D01*
X104817674Y-27481833D01*
X104747580Y-27385357D01*
X104747578Y-27385354D01*
X104608396Y-27246172D01*
X104582380Y-27227270D01*
X104524334Y-27185097D01*
X106033250Y-27185097D01*
X106033250Y-27334903D01*
X106062475Y-27481830D01*
X106062476Y-27481833D01*
X106119800Y-27620227D01*
X106119803Y-27620232D01*
X106166420Y-27690000D01*
X106203031Y-27744791D01*
X106308959Y-27850719D01*
X106433518Y-27933947D01*
X106433520Y-27933947D01*
X106433522Y-27933949D01*
X106502719Y-27962611D01*
X106571920Y-27991275D01*
X106718847Y-28020500D01*
X106718850Y-28020500D01*
X106868650Y-28020500D01*
X106868653Y-28020500D01*
X107015580Y-27991275D01*
X107153982Y-27933947D01*
X107278541Y-27850719D01*
X107384469Y-27744791D01*
X107467697Y-27620232D01*
X107525025Y-27481830D01*
X107554250Y-27334903D01*
X107554250Y-27185097D01*
X107525025Y-27038170D01*
X107474305Y-26915720D01*
X107467699Y-26899772D01*
X107467696Y-26899767D01*
X107463372Y-26893296D01*
X107384469Y-26775209D01*
X107278541Y-26669281D01*
X107153982Y-26586053D01*
X107153977Y-26586050D01*
X107015583Y-26528726D01*
X107015581Y-26528725D01*
X107015580Y-26528725D01*
X106868653Y-26499500D01*
X106718847Y-26499500D01*
X106571920Y-26528725D01*
X106571919Y-26528725D01*
X106571916Y-26528726D01*
X106433522Y-26586050D01*
X106433517Y-26586053D01*
X106308962Y-26669278D01*
X106203028Y-26775212D01*
X106119803Y-26899767D01*
X106119800Y-26899772D01*
X106062476Y-27038166D01*
X106062475Y-27038169D01*
X106062475Y-27038170D01*
X106033250Y-27185097D01*
X104524334Y-27185097D01*
X104449160Y-27130479D01*
X104449157Y-27130477D01*
X104449155Y-27130476D01*
X104273775Y-27041116D01*
X104273774Y-27041115D01*
X104273773Y-27041115D01*
X104273767Y-27041113D01*
X104166678Y-27006318D01*
X104086576Y-26980291D01*
X104086574Y-26980290D01*
X104086572Y-26980290D01*
X103892178Y-26949501D01*
X103892169Y-26949500D01*
X103892167Y-26949500D01*
X103695333Y-26949500D01*
X103695330Y-26949500D01*
X103695321Y-26949501D01*
X103500927Y-26980290D01*
X103313732Y-27041113D01*
X103313726Y-27041115D01*
X103222490Y-27087602D01*
X103138345Y-27130476D01*
X103138342Y-27130477D01*
X103138340Y-27130479D01*
X103138339Y-27130479D01*
X102979107Y-27246169D01*
X102839919Y-27385357D01*
X102724229Y-27544589D01*
X102724229Y-27544590D01*
X102724227Y-27544592D01*
X102724226Y-27544595D01*
X102724093Y-27544856D01*
X102634865Y-27719976D01*
X102634863Y-27719982D01*
X102574040Y-27907177D01*
X102543251Y-28101571D01*
X102543250Y-28101587D01*
X102543250Y-28298417D01*
X102567614Y-28452248D01*
X102563799Y-28549328D01*
X102523124Y-28637558D01*
X102451780Y-28703507D01*
X102360630Y-28737134D01*
X102263550Y-28733319D01*
X102175320Y-28692644D01*
X102145609Y-28667269D01*
X102097387Y-28619047D01*
X102043411Y-28538265D01*
X102024457Y-28442977D01*
X102027522Y-28404033D01*
X102044250Y-28298417D01*
X102044250Y-28101583D01*
X102013459Y-27907174D01*
X101952634Y-27719975D01*
X101863274Y-27544595D01*
X101817674Y-27481833D01*
X101747580Y-27385357D01*
X101747578Y-27385354D01*
X101608396Y-27246172D01*
X101582380Y-27227270D01*
X101449160Y-27130479D01*
X101449157Y-27130477D01*
X101449155Y-27130476D01*
X101273775Y-27041116D01*
X101273774Y-27041115D01*
X101273773Y-27041115D01*
X101273767Y-27041113D01*
X101166678Y-27006318D01*
X101086576Y-26980291D01*
X101086574Y-26980290D01*
X101086572Y-26980290D01*
X100892178Y-26949501D01*
X100892169Y-26949500D01*
X100892167Y-26949500D01*
X100695333Y-26949500D01*
X100695330Y-26949500D01*
X100695321Y-26949501D01*
X100500927Y-26980290D01*
X100313732Y-27041113D01*
X100313726Y-27041115D01*
X100222490Y-27087602D01*
X100138345Y-27130476D01*
X100138342Y-27130477D01*
X100138340Y-27130479D01*
X100138339Y-27130479D01*
X99979107Y-27246169D01*
X99839919Y-27385357D01*
X99724229Y-27544589D01*
X99724229Y-27544590D01*
X99724227Y-27544592D01*
X99724226Y-27544595D01*
X99724093Y-27544856D01*
X99634865Y-27719976D01*
X99634863Y-27719982D01*
X99574040Y-27907177D01*
X99543251Y-28101571D01*
X99543250Y-28101587D01*
X99543250Y-28298412D01*
X99543251Y-28298428D01*
X99559976Y-28404025D01*
X99556162Y-28501105D01*
X99515487Y-28589336D01*
X99490110Y-28619048D01*
X99441286Y-28667871D01*
X99360504Y-28721847D01*
X99265215Y-28740800D01*
X99169927Y-28721845D01*
X99089147Y-28667868D01*
X99035171Y-28587086D01*
X99016218Y-28491797D01*
X99019284Y-28452847D01*
X99043748Y-28298385D01*
X99043750Y-28298372D01*
X99043750Y-28101627D01*
X99043748Y-28101611D01*
X99012972Y-27907296D01*
X98952171Y-27720171D01*
X98952170Y-27720168D01*
X98862846Y-27544858D01*
X98862841Y-27544850D01*
X98837429Y-27509874D01*
X98837428Y-27509874D01*
X98284878Y-28062425D01*
X98268995Y-28003147D01*
X98201852Y-27886853D01*
X98106897Y-27791898D01*
X97990603Y-27724755D01*
X97931323Y-27708871D01*
X98483875Y-27156319D01*
X98448897Y-27130906D01*
X98273581Y-27041579D01*
X98273578Y-27041578D01*
X98086453Y-26980777D01*
X97892138Y-26950001D01*
X97892123Y-26950000D01*
X97695377Y-26950000D01*
X97695361Y-26950001D01*
X97501046Y-26980777D01*
X97313921Y-27041578D01*
X97313913Y-27041581D01*
X97138607Y-27130903D01*
X97138606Y-27130904D01*
X97103624Y-27156319D01*
X97656176Y-27708871D01*
X97596897Y-27724755D01*
X97480603Y-27791898D01*
X97385648Y-27886853D01*
X97318505Y-28003147D01*
X97302621Y-28062426D01*
X96750069Y-27509874D01*
X96724654Y-27544856D01*
X96724653Y-27544857D01*
X96635331Y-27720163D01*
X96635328Y-27720171D01*
X96574527Y-27907296D01*
X96543751Y-28101611D01*
X96543750Y-28101627D01*
X96543750Y-28298372D01*
X96543751Y-28298388D01*
X96574527Y-28492703D01*
X96635328Y-28679828D01*
X96635329Y-28679831D01*
X96724656Y-28855147D01*
X96780330Y-28931775D01*
X96821005Y-29020006D01*
X96824819Y-29117086D01*
X96791192Y-29208236D01*
X96754954Y-29254204D01*
X95848310Y-30160847D01*
X95767529Y-30214823D01*
X95672241Y-30233777D01*
X95576953Y-30214823D01*
X95525881Y-30186221D01*
X95449160Y-30130479D01*
X95449157Y-30130477D01*
X95449155Y-30130476D01*
X95273775Y-30041116D01*
X95273774Y-30041115D01*
X95273773Y-30041115D01*
X95273767Y-30041113D01*
X95166678Y-30006318D01*
X95086576Y-29980291D01*
X95086574Y-29980290D01*
X95086572Y-29980290D01*
X94892178Y-29949501D01*
X94892169Y-29949500D01*
X94892167Y-29949500D01*
X94695333Y-29949500D01*
X94695330Y-29949500D01*
X94695321Y-29949501D01*
X94500927Y-29980290D01*
X94313732Y-30041113D01*
X94313726Y-30041115D01*
X94222490Y-30087602D01*
X94138345Y-30130476D01*
X94138342Y-30130477D01*
X94138340Y-30130479D01*
X94138339Y-30130479D01*
X93979107Y-30246169D01*
X93839919Y-30385357D01*
X93724229Y-30544589D01*
X93724229Y-30544590D01*
X93724227Y-30544592D01*
X93724226Y-30544595D01*
X93687311Y-30617045D01*
X93634865Y-30719976D01*
X93634863Y-30719982D01*
X93574040Y-30907177D01*
X93543251Y-31101571D01*
X93543250Y-31101587D01*
X87274857Y-31101587D01*
X87505977Y-30870467D01*
X87488181Y-30857536D01*
X87488172Y-30857531D01*
X87325439Y-30774615D01*
X87325434Y-30774613D01*
X87151725Y-30718172D01*
X86971335Y-30689601D01*
X86971321Y-30689600D01*
X86788679Y-30689600D01*
X86788664Y-30689601D01*
X86608274Y-30718172D01*
X86434565Y-30774613D01*
X86434556Y-30774617D01*
X86271821Y-30857535D01*
X86271810Y-30857541D01*
X86254021Y-30870466D01*
X86827155Y-31443600D01*
X86826496Y-31443600D01*
X86723135Y-31471295D01*
X86630464Y-31524799D01*
X86554799Y-31600464D01*
X86501295Y-31693135D01*
X86473600Y-31796496D01*
X86473600Y-31797155D01*
X85900466Y-31224021D01*
X85887541Y-31241810D01*
X85887540Y-31241812D01*
X85832140Y-31350540D01*
X85820676Y-31365081D01*
X85813082Y-31381967D01*
X85790877Y-31402880D01*
X85771991Y-31426837D01*
X85755835Y-31435884D01*
X85742357Y-31448579D01*
X85713838Y-31459402D01*
X85687223Y-31474308D01*
X85668833Y-31476484D01*
X85651524Y-31483054D01*
X85621034Y-31482140D01*
X85590741Y-31485726D01*
X85572921Y-31480700D01*
X85554413Y-31480146D01*
X85526593Y-31467634D01*
X85497234Y-31459354D01*
X85482692Y-31447890D01*
X85465807Y-31440296D01*
X85450416Y-31422445D01*
X85420937Y-31399205D01*
X85399195Y-31369571D01*
X85393392Y-31360297D01*
X85332891Y-31241556D01*
X85225485Y-31093724D01*
X85096276Y-30964515D01*
X85096272Y-30964512D01*
X85096269Y-30964509D01*
X84948450Y-30857113D01*
X84948448Y-30857112D01*
X84948444Y-30857109D01*
X84785631Y-30774152D01*
X84785628Y-30774151D01*
X84785626Y-30774150D01*
X84618914Y-30719982D01*
X84611845Y-30717685D01*
X84611843Y-30717684D01*
X84611841Y-30717684D01*
X84431376Y-30689101D01*
X84431367Y-30689100D01*
X84431365Y-30689100D01*
X84248635Y-30689100D01*
X84248632Y-30689100D01*
X84248623Y-30689101D01*
X84068158Y-30717684D01*
X83894373Y-30774150D01*
X83894369Y-30774151D01*
X83894369Y-30774152D01*
X83731556Y-30857109D01*
X83731554Y-30857110D01*
X83731549Y-30857113D01*
X83583730Y-30964509D01*
X83454509Y-31093730D01*
X83347113Y-31241549D01*
X83347110Y-31241554D01*
X83347109Y-31241556D01*
X83291859Y-31349990D01*
X83231712Y-31426285D01*
X83146945Y-31473757D01*
X83050463Y-31485176D01*
X82956956Y-31458805D01*
X82880659Y-31398656D01*
X82848141Y-31349991D01*
X82792891Y-31241556D01*
X82780151Y-31224021D01*
X82685490Y-31093730D01*
X82685486Y-31093726D01*
X82685485Y-31093724D01*
X82556276Y-30964515D01*
X82556272Y-30964512D01*
X82556269Y-30964509D01*
X82408450Y-30857113D01*
X82408448Y-30857112D01*
X82408444Y-30857109D01*
X82245631Y-30774152D01*
X82245628Y-30774151D01*
X82245626Y-30774150D01*
X82078914Y-30719982D01*
X82071845Y-30717685D01*
X82071843Y-30717684D01*
X82071841Y-30717684D01*
X81891376Y-30689101D01*
X81891367Y-30689100D01*
X81891365Y-30689100D01*
X81708635Y-30689100D01*
X81708632Y-30689100D01*
X81708623Y-30689101D01*
X81528158Y-30717684D01*
X81354373Y-30774150D01*
X81191546Y-30857114D01*
X81183212Y-30862222D01*
X81182125Y-30860448D01*
X81107118Y-30895024D01*
X81010037Y-30898834D01*
X80918889Y-30865203D01*
X80847548Y-30799251D01*
X80806877Y-30711019D01*
X80800000Y-30652901D01*
X80800000Y-28101587D01*
X93543250Y-28101587D01*
X93543250Y-28298412D01*
X93543251Y-28298428D01*
X93574040Y-28492822D01*
X93574041Y-28492826D01*
X93584413Y-28524747D01*
X93633312Y-28675245D01*
X93634866Y-28680025D01*
X93724226Y-28855405D01*
X93724229Y-28855409D01*
X93724229Y-28855410D01*
X93833310Y-29005545D01*
X93839922Y-29014646D01*
X93979104Y-29153828D01*
X94138345Y-29269524D01*
X94313725Y-29358884D01*
X94500924Y-29419709D01*
X94695333Y-29450500D01*
X94695337Y-29450500D01*
X94892163Y-29450500D01*
X94892167Y-29450500D01*
X95086576Y-29419709D01*
X95273775Y-29358884D01*
X95449155Y-29269524D01*
X95608396Y-29153828D01*
X95747578Y-29014646D01*
X95863274Y-28855405D01*
X95952634Y-28680025D01*
X96013459Y-28492826D01*
X96044250Y-28298417D01*
X96044250Y-28101583D01*
X96013459Y-27907174D01*
X95952634Y-27719975D01*
X95863274Y-27544595D01*
X95756459Y-27397578D01*
X95756459Y-27397576D01*
X95747581Y-27385358D01*
X95747580Y-27385357D01*
X95747578Y-27385354D01*
X95608396Y-27246172D01*
X95582380Y-27227270D01*
X95449160Y-27130479D01*
X95449157Y-27130477D01*
X95449155Y-27130476D01*
X95273775Y-27041116D01*
X95273774Y-27041115D01*
X95273773Y-27041115D01*
X95273767Y-27041113D01*
X95166678Y-27006318D01*
X95086576Y-26980291D01*
X95086574Y-26980290D01*
X95086572Y-26980290D01*
X94892178Y-26949501D01*
X94892169Y-26949500D01*
X94892167Y-26949500D01*
X94695333Y-26949500D01*
X94695330Y-26949500D01*
X94695321Y-26949501D01*
X94500927Y-26980290D01*
X94313732Y-27041113D01*
X94313726Y-27041115D01*
X94222490Y-27087602D01*
X94138345Y-27130476D01*
X94138342Y-27130477D01*
X94138340Y-27130479D01*
X94138339Y-27130479D01*
X93979107Y-27246169D01*
X93839919Y-27385357D01*
X93724229Y-27544589D01*
X93724229Y-27544590D01*
X93724227Y-27544592D01*
X93724226Y-27544595D01*
X93724093Y-27544856D01*
X93634865Y-27719976D01*
X93634863Y-27719982D01*
X93574040Y-27907177D01*
X93543251Y-28101571D01*
X93543250Y-28101587D01*
X80800000Y-28101587D01*
X80800000Y-27185097D01*
X91033250Y-27185097D01*
X91033250Y-27334903D01*
X91062475Y-27481830D01*
X91062476Y-27481833D01*
X91119800Y-27620227D01*
X91119803Y-27620232D01*
X91166420Y-27690000D01*
X91203031Y-27744791D01*
X91308959Y-27850719D01*
X91433518Y-27933947D01*
X91433520Y-27933947D01*
X91433522Y-27933949D01*
X91502719Y-27962611D01*
X91571920Y-27991275D01*
X91718847Y-28020500D01*
X91718850Y-28020500D01*
X91868650Y-28020500D01*
X91868653Y-28020500D01*
X92015580Y-27991275D01*
X92153982Y-27933947D01*
X92278541Y-27850719D01*
X92384469Y-27744791D01*
X92467697Y-27620232D01*
X92525025Y-27481830D01*
X92554250Y-27334903D01*
X92554250Y-27185097D01*
X92525025Y-27038170D01*
X92474305Y-26915720D01*
X92467699Y-26899772D01*
X92467696Y-26899767D01*
X92463372Y-26893296D01*
X92384469Y-26775209D01*
X92278541Y-26669281D01*
X92153982Y-26586053D01*
X92153977Y-26586050D01*
X92015583Y-26528726D01*
X92015581Y-26528725D01*
X92015580Y-26528725D01*
X91868653Y-26499500D01*
X91718847Y-26499500D01*
X91571920Y-26528725D01*
X91571919Y-26528725D01*
X91571916Y-26528726D01*
X91433522Y-26586050D01*
X91433517Y-26586053D01*
X91308962Y-26669278D01*
X91203028Y-26775212D01*
X91119803Y-26899767D01*
X91119800Y-26899772D01*
X91062476Y-27038166D01*
X91062475Y-27038169D01*
X91062475Y-27038170D01*
X91033250Y-27185097D01*
X80800000Y-27185097D01*
X80800000Y-24599000D01*
X80818954Y-24503712D01*
X80872930Y-24422930D01*
X80953712Y-24368954D01*
X81049000Y-24350000D01*
X114760236Y-24350000D01*
X114814123Y-24355900D01*
G37*
%TD.AperFunction*%
%TD*%
%TA.AperFunction,Conductor*%
%TO.N,POST_HV-*%
G36*
X75392931Y-24270670D02*
G01*
X75407941Y-24275053D01*
X75466772Y-24312743D01*
X75466790Y-24312764D01*
X75467947Y-24314096D01*
X75495478Y-24368959D01*
X75497146Y-24376598D01*
X75500000Y-24403051D01*
X75500000Y-46358170D01*
X75494975Y-46393114D01*
X75490570Y-46408112D01*
X75452827Y-46466855D01*
X75451458Y-46468042D01*
X75396597Y-46495518D01*
X75389039Y-46497163D01*
X75362668Y-46500000D01*
X60537060Y-46500000D01*
X60502117Y-46494975D01*
X60495447Y-46493016D01*
X60436671Y-46455237D01*
X60407651Y-46391679D01*
X60417599Y-46322522D01*
X60461868Y-46270694D01*
X60475821Y-46261444D01*
X60475820Y-46261443D01*
X60476304Y-46261123D01*
X60488518Y-46253993D01*
X60655143Y-46169095D01*
X60657527Y-46167362D01*
X60658587Y-46166984D01*
X60659296Y-46166550D01*
X60659387Y-46166698D01*
X60684267Y-46157820D01*
X60690126Y-46143677D01*
X60219557Y-45673108D01*
X60186072Y-45611785D01*
X60191056Y-45542093D01*
X60232928Y-45486160D01*
X60245222Y-45478049D01*
X60276314Y-45460099D01*
X60360099Y-45376314D01*
X60378041Y-45345236D01*
X60428604Y-45297024D01*
X60497211Y-45283799D01*
X60562077Y-45309766D01*
X60573108Y-45319557D01*
X61043677Y-45790126D01*
X61043677Y-45790125D01*
X61043678Y-45790126D01*
X61043678Y-45790125D01*
X61057146Y-45784546D01*
X61063363Y-45763377D01*
X61067353Y-45757539D01*
X61069095Y-45755143D01*
X61158418Y-45579835D01*
X61219221Y-45392705D01*
X61250000Y-45198382D01*
X61250000Y-45001617D01*
X61219221Y-44807294D01*
X61158418Y-44620164D01*
X61069096Y-44444858D01*
X61063113Y-44436623D01*
X61043679Y-44409873D01*
X61043678Y-44409873D01*
X61043677Y-44409873D01*
X61043676Y-44409873D01*
X60573108Y-44880442D01*
X60511785Y-44913927D01*
X60442093Y-44908943D01*
X60386160Y-44867071D01*
X60378039Y-44854760D01*
X60373262Y-44846486D01*
X60360099Y-44823686D01*
X60276314Y-44739901D01*
X60276312Y-44739900D01*
X60276307Y-44739896D01*
X60245237Y-44721958D01*
X60197021Y-44671392D01*
X60183797Y-44602785D01*
X60209765Y-44537920D01*
X60219548Y-44526896D01*
X60690125Y-44056320D01*
X60690125Y-44056319D01*
X60690124Y-44056318D01*
X60655147Y-44030906D01*
X60479839Y-43941583D01*
X60479838Y-43941582D01*
X60479835Y-43941581D01*
X60292705Y-43880778D01*
X60098382Y-43850000D01*
X60098381Y-43850000D01*
X59901619Y-43850000D01*
X59901618Y-43850000D01*
X59826712Y-43861864D01*
X59707299Y-43880777D01*
X59707297Y-43880777D01*
X59707294Y-43880778D01*
X59584197Y-43920775D01*
X59520160Y-43941582D01*
X59520153Y-43941585D01*
X59344863Y-44030898D01*
X59344775Y-44030953D01*
X59344121Y-44031437D01*
X59342495Y-44032619D01*
X59341578Y-44032946D01*
X59340326Y-44033727D01*
X59340156Y-44033454D01*
X59315730Y-44042176D01*
X59309871Y-44056320D01*
X59780443Y-44526890D01*
X59813928Y-44588213D01*
X59808944Y-44657904D01*
X59767073Y-44713838D01*
X59754764Y-44721957D01*
X59723689Y-44739898D01*
X59723684Y-44739902D01*
X59639902Y-44823684D01*
X59639898Y-44823689D01*
X59621957Y-44854764D01*
X59571389Y-44902979D01*
X59502782Y-44916200D01*
X59437918Y-44890231D01*
X59426890Y-44880443D01*
X58956320Y-44409871D01*
X58942851Y-44415450D01*
X58936635Y-44436623D01*
X58932619Y-44442495D01*
X58931437Y-44444121D01*
X58930956Y-44444771D01*
X58930896Y-44444867D01*
X58841582Y-44620158D01*
X58841580Y-44620161D01*
X58801130Y-44744655D01*
X58785560Y-44776324D01*
X58779176Y-44785661D01*
X58725088Y-44829892D01*
X58655675Y-44837859D01*
X58592981Y-44807040D01*
X58590697Y-44804943D01*
X58556603Y-44751898D01*
X58526235Y-44658431D01*
X58526212Y-44658363D01*
X58526211Y-44658361D01*
X58526211Y-44658360D01*
X58463878Y-44536027D01*
X58443996Y-44497006D01*
X58406109Y-44444859D01*
X58337558Y-44350505D01*
X58337554Y-44350500D01*
X58209501Y-44222447D01*
X58192885Y-44210375D01*
X58192881Y-44210371D01*
X58183968Y-44203895D01*
X58070887Y-44121738D01*
X58070548Y-44121449D01*
X58062987Y-44115998D01*
X58062572Y-44115789D01*
X58011301Y-44089664D01*
X58011300Y-44089664D01*
X57901639Y-44033788D01*
X57901636Y-44033787D01*
X57901633Y-44033786D01*
X57901631Y-44033785D01*
X57901612Y-44033778D01*
X57729412Y-43977829D01*
X57729413Y-43977829D01*
X57571556Y-43952827D01*
X57550551Y-43949500D01*
X57550550Y-43949500D01*
X57369450Y-43949500D01*
X57369449Y-43949500D01*
X57333677Y-43955165D01*
X57190585Y-43977829D01*
X57018386Y-44033778D01*
X57018363Y-44033786D01*
X57018359Y-44033788D01*
X56857005Y-44116004D01*
X56857002Y-44116005D01*
X56857002Y-44116006D01*
X56849111Y-44121739D01*
X56710499Y-44222445D01*
X56710491Y-44222452D01*
X56582452Y-44350491D01*
X56582445Y-44350499D01*
X56476004Y-44497005D01*
X56393788Y-44658359D01*
X56393786Y-44658363D01*
X56393778Y-44658386D01*
X56337829Y-44830585D01*
X56315262Y-44973067D01*
X56304834Y-45006792D01*
X56301857Y-45013071D01*
X56255350Y-45065213D01*
X56188035Y-45083935D01*
X56121285Y-45063292D01*
X56077021Y-45011466D01*
X56074560Y-45006078D01*
X56064879Y-44973963D01*
X56053740Y-44903639D01*
X56053635Y-44902979D01*
X56049565Y-44877278D01*
X56042171Y-44830591D01*
X56039928Y-44823689D01*
X55987719Y-44663002D01*
X55986655Y-44659231D01*
X55923878Y-44536027D01*
X55923877Y-44536026D01*
X55903996Y-44497006D01*
X55866109Y-44444859D01*
X55797558Y-44350505D01*
X55797554Y-44350500D01*
X55797553Y-44350499D01*
X55797546Y-44350491D01*
X55669507Y-44222452D01*
X55669498Y-44222444D01*
X55669474Y-44222426D01*
X55530888Y-44121738D01*
X55530555Y-44121454D01*
X55522987Y-44115998D01*
X55522572Y-44115789D01*
X55471301Y-44089664D01*
X55471300Y-44089664D01*
X55361639Y-44033788D01*
X55361636Y-44033787D01*
X55361633Y-44033786D01*
X55361631Y-44033785D01*
X55361612Y-44033778D01*
X55189412Y-43977829D01*
X55189413Y-43977829D01*
X55031556Y-43952827D01*
X55010551Y-43949500D01*
X55010550Y-43949500D01*
X54829450Y-43949500D01*
X54829449Y-43949500D01*
X54793677Y-43955165D01*
X54650585Y-43977829D01*
X54478386Y-44033778D01*
X54478363Y-44033786D01*
X54478359Y-44033788D01*
X54317005Y-44116004D01*
X54317002Y-44116005D01*
X54317002Y-44116006D01*
X54309111Y-44121739D01*
X54170499Y-44222445D01*
X54170491Y-44222452D01*
X54042452Y-44350491D01*
X54042445Y-44350499D01*
X53936004Y-44497005D01*
X53853788Y-44658359D01*
X53853786Y-44658363D01*
X53853778Y-44658386D01*
X53797829Y-44830585D01*
X53779761Y-44944660D01*
X53769330Y-44978389D01*
X53766713Y-44983908D01*
X53720204Y-45036049D01*
X53652888Y-45054767D01*
X53586138Y-45034121D01*
X53541148Y-44980664D01*
X53541074Y-44980497D01*
X53540902Y-44980104D01*
X53530499Y-44930387D01*
X53530499Y-44318483D01*
X53530499Y-44318482D01*
X53530498Y-44318475D01*
X53515646Y-44224696D01*
X53458050Y-44111658D01*
X53458046Y-44111654D01*
X53458045Y-44111652D01*
X53368347Y-44021954D01*
X53368346Y-44021953D01*
X53368344Y-44021951D01*
X53281749Y-43977828D01*
X53281748Y-43977828D01*
X53255299Y-43964351D01*
X53161530Y-43949500D01*
X53161524Y-43949500D01*
X51598482Y-43949500D01*
X51598478Y-43949500D01*
X51533711Y-43959758D01*
X51517519Y-43962323D01*
X51504715Y-43964351D01*
X51504696Y-43964354D01*
X51391650Y-44021954D01*
X51301955Y-44111649D01*
X51301946Y-44111664D01*
X51244353Y-44224695D01*
X51244350Y-44224703D01*
X51229500Y-44318469D01*
X51229500Y-45881520D01*
X51235975Y-45922401D01*
X51240292Y-45949657D01*
X51244354Y-45975304D01*
X51299736Y-46083996D01*
X51301952Y-46088345D01*
X51301953Y-46088346D01*
X51301954Y-46088347D01*
X51391652Y-46178045D01*
X51391653Y-46178045D01*
X51391658Y-46178050D01*
X51391659Y-46178051D01*
X51391754Y-46178099D01*
X51504694Y-46235645D01*
X51504698Y-46235647D01*
X51598220Y-46250458D01*
X51598457Y-46250497D01*
X51598466Y-46250497D01*
X51598475Y-46250499D01*
X51598481Y-46250500D01*
X53161518Y-46250499D01*
X53255304Y-46235646D01*
X53368342Y-46178050D01*
X53458050Y-46088342D01*
X53515646Y-45975304D01*
X53515646Y-45975302D01*
X53515647Y-45975301D01*
X53515647Y-45975299D01*
X53515965Y-45974676D01*
X53516785Y-45970558D01*
X53516789Y-45970539D01*
X53517173Y-45965668D01*
X53530111Y-45883979D01*
X53530437Y-45882154D01*
X53530499Y-45881523D01*
X53530500Y-45881519D01*
X53530499Y-45274953D01*
X53535520Y-45240026D01*
X53537240Y-45234167D01*
X53575011Y-45175387D01*
X53638565Y-45146358D01*
X53707724Y-45156298D01*
X53760531Y-45202050D01*
X53760619Y-45202187D01*
X53760851Y-45202549D01*
X53778924Y-45250058D01*
X53797829Y-45369413D01*
X53853778Y-45541612D01*
X53853786Y-45541635D01*
X53853788Y-45541639D01*
X53936006Y-45702997D01*
X54042441Y-45849494D01*
X54042445Y-45849499D01*
X54042452Y-45849507D01*
X54170491Y-45977546D01*
X54170500Y-45977554D01*
X54170524Y-45977572D01*
X54278344Y-46055908D01*
X54278347Y-46055909D01*
X54317001Y-46083993D01*
X54317003Y-46083994D01*
X54317006Y-46083996D01*
X54422484Y-46137740D01*
X54478360Y-46166211D01*
X54478363Y-46166212D01*
X54514790Y-46178047D01*
X54514791Y-46178048D01*
X54514792Y-46178048D01*
X54650584Y-46222169D01*
X54650585Y-46222169D01*
X54650591Y-46222171D01*
X54733429Y-46235291D01*
X54829449Y-46250500D01*
X54829454Y-46250500D01*
X55010548Y-46250500D01*
X55010551Y-46250500D01*
X55097259Y-46236765D01*
X55189409Y-46222171D01*
X55352769Y-46169093D01*
X55361636Y-46166212D01*
X55361639Y-46166211D01*
X55378107Y-46157820D01*
X55522994Y-46083996D01*
X55669501Y-45977553D01*
X55797553Y-45849501D01*
X55903996Y-45702994D01*
X55986211Y-45541639D01*
X56042171Y-45369409D01*
X56054928Y-45288858D01*
X56057330Y-45273699D01*
X56063027Y-45237729D01*
X56064738Y-45226928D01*
X56075162Y-45193213D01*
X56078143Y-45186925D01*
X56124649Y-45134785D01*
X56191964Y-45116063D01*
X56258714Y-45136706D01*
X56302978Y-45188532D01*
X56305439Y-45193920D01*
X56315121Y-45226040D01*
X56337829Y-45369413D01*
X56393778Y-45541612D01*
X56393786Y-45541635D01*
X56393788Y-45541639D01*
X56476006Y-45702997D01*
X56582441Y-45849494D01*
X56582445Y-45849499D01*
X56582452Y-45849507D01*
X56710491Y-45977546D01*
X56710500Y-45977554D01*
X56710524Y-45977572D01*
X56818344Y-46055908D01*
X56818347Y-46055909D01*
X56857001Y-46083993D01*
X56857003Y-46083994D01*
X56857006Y-46083996D01*
X56962484Y-46137740D01*
X57018360Y-46166211D01*
X57018363Y-46166212D01*
X57054790Y-46178047D01*
X57054791Y-46178048D01*
X57054792Y-46178048D01*
X57190584Y-46222169D01*
X57190585Y-46222169D01*
X57190591Y-46222171D01*
X57273429Y-46235291D01*
X57369449Y-46250500D01*
X57369454Y-46250500D01*
X57550548Y-46250500D01*
X57550551Y-46250500D01*
X57637259Y-46236765D01*
X57729409Y-46222171D01*
X57892769Y-46169093D01*
X57901636Y-46166212D01*
X57901639Y-46166211D01*
X57918107Y-46157820D01*
X58062994Y-46083996D01*
X58209501Y-45977553D01*
X58337553Y-45849501D01*
X58443996Y-45702994D01*
X58526211Y-45541639D01*
X58552705Y-45460099D01*
X58554248Y-45455347D01*
X58569814Y-45423681D01*
X58576205Y-45414335D01*
X58630288Y-45370107D01*
X58699702Y-45362139D01*
X58762399Y-45392959D01*
X58764684Y-45395056D01*
X58798777Y-45448100D01*
X58841579Y-45579834D01*
X58930904Y-45755143D01*
X58930905Y-45755145D01*
X58952265Y-45784546D01*
X58956319Y-45790125D01*
X58956320Y-45790125D01*
X59426891Y-45319553D01*
X59488212Y-45286070D01*
X59557903Y-45291054D01*
X59613837Y-45332925D01*
X59621956Y-45345234D01*
X59639898Y-45376310D01*
X59639900Y-45376313D01*
X59639901Y-45376314D01*
X59723686Y-45460099D01*
X59754760Y-45478040D01*
X59802976Y-45528606D01*
X59816200Y-45597213D01*
X59790232Y-45662078D01*
X59780442Y-45673108D01*
X59309873Y-46143676D01*
X59309873Y-46143677D01*
X59309873Y-46143678D01*
X59344858Y-46169096D01*
X59510839Y-46253668D01*
X59524526Y-46261789D01*
X59539536Y-46272052D01*
X59583766Y-46326140D01*
X59591732Y-46395554D01*
X59560906Y-46458255D01*
X59502800Y-46493871D01*
X59499561Y-46494772D01*
X59497092Y-46495459D01*
X59463843Y-46500000D01*
X49641830Y-46500000D01*
X49606889Y-46494975D01*
X49591890Y-46490570D01*
X49533144Y-46452827D01*
X49531957Y-46451458D01*
X49504477Y-46396583D01*
X49502832Y-46389021D01*
X49500000Y-46362668D01*
X49500000Y-44000000D01*
X44830822Y-44000000D01*
X44795890Y-43994978D01*
X44789221Y-43993020D01*
X44730442Y-43955247D01*
X44701416Y-43891692D01*
X44711357Y-43822534D01*
X44755628Y-43770697D01*
X44760573Y-43767418D01*
X44790768Y-43752839D01*
X44807408Y-43747433D01*
X45003760Y-43647386D01*
X45034918Y-43624747D01*
X45061656Y-43615207D01*
X45067514Y-43601065D01*
X44562761Y-43096314D01*
X44529276Y-43034991D01*
X44534260Y-42965300D01*
X44576131Y-42909366D01*
X44588432Y-42901251D01*
X44607715Y-42890119D01*
X44710119Y-42787715D01*
X44721246Y-42768441D01*
X44771812Y-42720227D01*
X44840419Y-42707003D01*
X44905284Y-42732971D01*
X44916314Y-42742761D01*
X45421065Y-43247514D01*
X45421065Y-43247513D01*
X45421066Y-43247514D01*
X45421066Y-43247513D01*
X45434534Y-43241934D01*
X45440751Y-43220764D01*
X45444749Y-43214916D01*
X45467386Y-43183760D01*
X45567432Y-42987410D01*
X45635526Y-42777835D01*
X45670000Y-42560181D01*
X45670000Y-42339818D01*
X45635526Y-42122164D01*
X45567432Y-41912589D01*
X45567432Y-41912588D01*
X45511942Y-41803684D01*
X45467388Y-41716243D01*
X45421066Y-41652485D01*
X45421064Y-41652485D01*
X44916313Y-42157237D01*
X44854990Y-42190722D01*
X44785298Y-42185738D01*
X44729365Y-42143866D01*
X44721245Y-42131556D01*
X44710119Y-42112285D01*
X44607715Y-42009881D01*
X44588438Y-41998751D01*
X44540223Y-41948183D01*
X44527002Y-41879576D01*
X44552971Y-41814712D01*
X44562749Y-41803694D01*
X45067513Y-41298932D01*
X45003756Y-41252611D01*
X44984066Y-41242578D01*
X44955223Y-41222246D01*
X44947451Y-41214906D01*
X44912229Y-41154567D01*
X44915219Y-41084761D01*
X44955475Y-41027653D01*
X45008848Y-41003051D01*
X45012723Y-41002295D01*
X45036467Y-41000000D01*
X49500000Y-41000000D01*
X49500000Y-37389448D01*
X51229500Y-37389448D01*
X51229500Y-37570550D01*
X51257829Y-37749413D01*
X51313778Y-37921612D01*
X51313785Y-37921631D01*
X51313787Y-37921636D01*
X51313788Y-37921639D01*
X51369664Y-38031300D01*
X51385866Y-38063098D01*
X51396006Y-38082997D01*
X51472704Y-38188564D01*
X51502432Y-38229482D01*
X51502444Y-38229498D01*
X51502452Y-38229507D01*
X51630493Y-38357548D01*
X51630497Y-38357551D01*
X51630500Y-38357554D01*
X51630505Y-38357558D01*
X51630522Y-38357570D01*
X51758284Y-38450395D01*
X51758287Y-38450396D01*
X51767646Y-38457196D01*
X51777004Y-38463995D01*
X51777006Y-38463996D01*
X51882484Y-38517740D01*
X51938360Y-38546211D01*
X51938363Y-38546212D01*
X52024476Y-38574191D01*
X52071159Y-38589359D01*
X52110584Y-38602169D01*
X52110585Y-38602169D01*
X52110591Y-38602171D01*
X52193429Y-38615291D01*
X52289449Y-38630500D01*
X52289454Y-38630500D01*
X52470548Y-38630500D01*
X52470551Y-38630500D01*
X52557259Y-38616765D01*
X52649409Y-38602171D01*
X52821639Y-38546211D01*
X52982994Y-38463996D01*
X53129501Y-38357553D01*
X53257553Y-38229501D01*
X53363996Y-38082994D01*
X53446211Y-37921639D01*
X53502171Y-37749409D01*
X53516422Y-37659425D01*
X53524738Y-37606921D01*
X53535162Y-37573213D01*
X53538143Y-37566925D01*
X53584649Y-37514785D01*
X53651964Y-37496063D01*
X53718714Y-37516706D01*
X53762978Y-37568532D01*
X53765439Y-37573920D01*
X53775121Y-37606040D01*
X53797829Y-37749413D01*
X53853778Y-37921612D01*
X53853785Y-37921631D01*
X53853787Y-37921636D01*
X53853788Y-37921639D01*
X53909664Y-38031300D01*
X53925866Y-38063098D01*
X53936006Y-38082997D01*
X54012704Y-38188564D01*
X54042432Y-38229482D01*
X54042444Y-38229498D01*
X54042452Y-38229507D01*
X54170493Y-38357548D01*
X54170497Y-38357551D01*
X54170500Y-38357554D01*
X54170505Y-38357558D01*
X54170522Y-38357570D01*
X54298284Y-38450395D01*
X54298287Y-38450396D01*
X54307646Y-38457196D01*
X54317004Y-38463995D01*
X54317006Y-38463996D01*
X54422484Y-38517740D01*
X54478360Y-38546211D01*
X54478363Y-38546212D01*
X54564476Y-38574191D01*
X54611159Y-38589359D01*
X54650584Y-38602169D01*
X54650585Y-38602169D01*
X54650591Y-38602171D01*
X54733429Y-38615291D01*
X54829449Y-38630500D01*
X54829454Y-38630500D01*
X55010548Y-38630500D01*
X55010551Y-38630500D01*
X55097259Y-38616765D01*
X55189409Y-38602171D01*
X55361639Y-38546211D01*
X55522994Y-38463996D01*
X55669501Y-38357553D01*
X55797553Y-38229501D01*
X55903996Y-38082994D01*
X55986211Y-37921639D01*
X56042171Y-37749409D01*
X56056422Y-37659425D01*
X56064738Y-37606921D01*
X56075162Y-37573213D01*
X56078143Y-37566925D01*
X56124649Y-37514785D01*
X56191964Y-37496063D01*
X56258714Y-37516706D01*
X56302978Y-37568532D01*
X56305439Y-37573920D01*
X56315121Y-37606040D01*
X56337829Y-37749413D01*
X56393778Y-37921612D01*
X56393785Y-37921631D01*
X56393787Y-37921636D01*
X56393788Y-37921639D01*
X56449664Y-38031300D01*
X56465866Y-38063098D01*
X56476006Y-38082997D01*
X56552704Y-38188564D01*
X56582432Y-38229482D01*
X56582444Y-38229498D01*
X56582452Y-38229507D01*
X56710493Y-38357548D01*
X56710497Y-38357551D01*
X56710500Y-38357554D01*
X56710505Y-38357558D01*
X56710522Y-38357570D01*
X56838284Y-38450395D01*
X56838287Y-38450396D01*
X56847646Y-38457196D01*
X56857004Y-38463995D01*
X56857006Y-38463996D01*
X56962484Y-38517740D01*
X57018360Y-38546211D01*
X57018363Y-38546212D01*
X57104476Y-38574191D01*
X57151159Y-38589359D01*
X57190584Y-38602169D01*
X57190585Y-38602169D01*
X57190591Y-38602171D01*
X57273429Y-38615291D01*
X57369449Y-38630500D01*
X57369454Y-38630500D01*
X57550548Y-38630500D01*
X57550551Y-38630500D01*
X57637259Y-38616765D01*
X57729409Y-38602171D01*
X57901639Y-38546211D01*
X58062994Y-38463996D01*
X58209501Y-38357553D01*
X58337553Y-38229501D01*
X58443996Y-38082994D01*
X58526211Y-37921639D01*
X58582171Y-37749409D01*
X58596422Y-37659425D01*
X58604738Y-37606921D01*
X58615162Y-37573213D01*
X58618143Y-37566925D01*
X58664649Y-37514785D01*
X58731964Y-37496063D01*
X58798714Y-37516706D01*
X58842978Y-37568532D01*
X58845439Y-37573920D01*
X58855121Y-37606040D01*
X58877829Y-37749413D01*
X58933778Y-37921612D01*
X58933785Y-37921631D01*
X58933787Y-37921636D01*
X58933788Y-37921639D01*
X58989664Y-38031300D01*
X59005866Y-38063098D01*
X59016006Y-38082997D01*
X59092704Y-38188564D01*
X59122432Y-38229482D01*
X59122444Y-38229498D01*
X59122452Y-38229507D01*
X59250493Y-38357548D01*
X59250497Y-38357551D01*
X59250500Y-38357554D01*
X59250505Y-38357558D01*
X59250522Y-38357570D01*
X59378284Y-38450395D01*
X59378287Y-38450396D01*
X59387646Y-38457196D01*
X59397004Y-38463995D01*
X59397006Y-38463996D01*
X59502484Y-38517740D01*
X59558360Y-38546211D01*
X59558363Y-38546212D01*
X59644476Y-38574191D01*
X59691159Y-38589359D01*
X59730584Y-38602169D01*
X59730585Y-38602169D01*
X59730591Y-38602171D01*
X59813429Y-38615291D01*
X59909449Y-38630500D01*
X59909454Y-38630500D01*
X60090548Y-38630500D01*
X60090551Y-38630500D01*
X60177259Y-38616765D01*
X60269409Y-38602171D01*
X60441639Y-38546211D01*
X60602994Y-38463996D01*
X60749501Y-38357553D01*
X60877553Y-38229501D01*
X60983996Y-38082994D01*
X61066211Y-37921639D01*
X61122171Y-37749409D01*
X61128008Y-37712549D01*
X61136765Y-37657262D01*
X61136765Y-37657259D01*
X61150500Y-37570551D01*
X61150500Y-37389448D01*
X61125019Y-37228573D01*
X61122171Y-37210591D01*
X61067713Y-37042986D01*
X61066655Y-37039232D01*
X61037740Y-36982484D01*
X61037739Y-36982483D01*
X60983995Y-36877004D01*
X60970397Y-36858289D01*
X60970395Y-36858285D01*
X60877570Y-36730522D01*
X60877558Y-36730505D01*
X60877554Y-36730500D01*
X60877551Y-36730497D01*
X60877548Y-36730493D01*
X60749507Y-36602452D01*
X60749498Y-36602444D01*
X60749474Y-36602426D01*
X60610888Y-36501738D01*
X60610555Y-36501454D01*
X60602987Y-36495998D01*
X60602572Y-36495789D01*
X60551301Y-36469664D01*
X60551300Y-36469664D01*
X60441639Y-36413788D01*
X60441636Y-36413787D01*
X60441633Y-36413786D01*
X60441631Y-36413785D01*
X60441612Y-36413778D01*
X60269412Y-36357829D01*
X60269413Y-36357829D01*
X60135265Y-36336582D01*
X60090551Y-36329500D01*
X60090550Y-36329500D01*
X59909450Y-36329500D01*
X59909449Y-36329500D01*
X59873677Y-36335165D01*
X59730585Y-36357829D01*
X59558386Y-36413778D01*
X59558363Y-36413786D01*
X59558359Y-36413788D01*
X59397005Y-36496004D01*
X59397002Y-36496005D01*
X59397002Y-36496006D01*
X59348169Y-36531484D01*
X59250499Y-36602445D01*
X59250491Y-36602452D01*
X59122452Y-36730491D01*
X59122445Y-36730499D01*
X59016004Y-36877005D01*
X58933788Y-37038359D01*
X58933786Y-37038363D01*
X58933778Y-37038386D01*
X58877829Y-37210585D01*
X58855262Y-37353067D01*
X58844834Y-37386792D01*
X58841857Y-37393071D01*
X58795350Y-37445213D01*
X58728035Y-37463935D01*
X58661285Y-37443292D01*
X58617021Y-37391466D01*
X58614560Y-37386078D01*
X58604879Y-37353963D01*
X58585019Y-37228573D01*
X58582171Y-37210591D01*
X58527713Y-37042986D01*
X58526655Y-37039232D01*
X58497740Y-36982484D01*
X58497739Y-36982483D01*
X58443995Y-36877004D01*
X58430397Y-36858289D01*
X58430395Y-36858285D01*
X58337570Y-36730522D01*
X58337558Y-36730505D01*
X58337554Y-36730500D01*
X58337551Y-36730497D01*
X58337548Y-36730493D01*
X58209507Y-36602452D01*
X58209498Y-36602444D01*
X58209474Y-36602426D01*
X58070888Y-36501738D01*
X58070555Y-36501454D01*
X58062987Y-36495998D01*
X58062572Y-36495789D01*
X58011301Y-36469664D01*
X58011300Y-36469664D01*
X57901639Y-36413788D01*
X57901636Y-36413787D01*
X57901633Y-36413786D01*
X57901631Y-36413785D01*
X57901612Y-36413778D01*
X57729412Y-36357829D01*
X57729413Y-36357829D01*
X57595265Y-36336582D01*
X57550551Y-36329500D01*
X57550550Y-36329500D01*
X57369450Y-36329500D01*
X57369449Y-36329500D01*
X57333677Y-36335165D01*
X57190585Y-36357829D01*
X57018386Y-36413778D01*
X57018363Y-36413786D01*
X57018359Y-36413788D01*
X56857005Y-36496004D01*
X56857002Y-36496005D01*
X56857002Y-36496006D01*
X56808169Y-36531484D01*
X56710499Y-36602445D01*
X56710491Y-36602452D01*
X56582452Y-36730491D01*
X56582445Y-36730499D01*
X56476004Y-36877005D01*
X56393788Y-37038359D01*
X56393786Y-37038363D01*
X56393778Y-37038386D01*
X56337829Y-37210585D01*
X56315262Y-37353067D01*
X56304834Y-37386792D01*
X56301857Y-37393071D01*
X56255350Y-37445213D01*
X56188035Y-37463935D01*
X56121285Y-37443292D01*
X56077021Y-37391466D01*
X56074560Y-37386078D01*
X56064879Y-37353963D01*
X56045019Y-37228573D01*
X56042171Y-37210591D01*
X55987713Y-37042986D01*
X55986655Y-37039232D01*
X55957740Y-36982484D01*
X55957739Y-36982483D01*
X55903995Y-36877004D01*
X55890397Y-36858289D01*
X55890395Y-36858285D01*
X55797570Y-36730522D01*
X55797558Y-36730505D01*
X55797554Y-36730500D01*
X55797551Y-36730497D01*
X55797548Y-36730493D01*
X55669507Y-36602452D01*
X55669498Y-36602444D01*
X55669474Y-36602426D01*
X55530888Y-36501738D01*
X55530555Y-36501454D01*
X55522987Y-36495998D01*
X55522572Y-36495789D01*
X55471301Y-36469664D01*
X55471300Y-36469664D01*
X55361639Y-36413788D01*
X55361636Y-36413787D01*
X55361633Y-36413786D01*
X55361631Y-36413785D01*
X55361612Y-36413778D01*
X55189412Y-36357829D01*
X55189413Y-36357829D01*
X55055265Y-36336582D01*
X55010551Y-36329500D01*
X55010550Y-36329500D01*
X54829450Y-36329500D01*
X54829449Y-36329500D01*
X54793677Y-36335165D01*
X54650585Y-36357829D01*
X54478386Y-36413778D01*
X54478363Y-36413786D01*
X54478359Y-36413788D01*
X54317005Y-36496004D01*
X54317002Y-36496005D01*
X54317002Y-36496006D01*
X54268169Y-36531484D01*
X54170499Y-36602445D01*
X54170491Y-36602452D01*
X54042452Y-36730491D01*
X54042445Y-36730499D01*
X53936004Y-36877005D01*
X53853788Y-37038359D01*
X53853786Y-37038363D01*
X53853778Y-37038386D01*
X53797829Y-37210585D01*
X53775262Y-37353067D01*
X53764834Y-37386792D01*
X53761857Y-37393071D01*
X53715350Y-37445213D01*
X53648035Y-37463935D01*
X53581285Y-37443292D01*
X53537021Y-37391466D01*
X53534560Y-37386078D01*
X53524879Y-37353963D01*
X53505019Y-37228573D01*
X53502171Y-37210591D01*
X53447713Y-37042986D01*
X53446655Y-37039232D01*
X53417740Y-36982484D01*
X53417739Y-36982483D01*
X53363995Y-36877004D01*
X53350397Y-36858289D01*
X53350395Y-36858285D01*
X53257570Y-36730522D01*
X53257558Y-36730505D01*
X53257554Y-36730500D01*
X53257551Y-36730497D01*
X53257548Y-36730493D01*
X53129507Y-36602452D01*
X53129498Y-36602444D01*
X53129474Y-36602426D01*
X52990888Y-36501738D01*
X52990555Y-36501454D01*
X52982987Y-36495998D01*
X52982572Y-36495789D01*
X52931301Y-36469664D01*
X52931300Y-36469664D01*
X52821639Y-36413788D01*
X52821636Y-36413787D01*
X52821633Y-36413786D01*
X52821631Y-36413785D01*
X52821612Y-36413778D01*
X52649412Y-36357829D01*
X52649413Y-36357829D01*
X52515265Y-36336582D01*
X52470551Y-36329500D01*
X52470550Y-36329500D01*
X52289450Y-36329500D01*
X52289449Y-36329500D01*
X52253677Y-36335165D01*
X52110585Y-36357829D01*
X51938386Y-36413778D01*
X51938363Y-36413786D01*
X51938359Y-36413788D01*
X51777005Y-36496004D01*
X51777002Y-36496005D01*
X51777002Y-36496006D01*
X51728169Y-36531484D01*
X51630499Y-36602445D01*
X51630491Y-36602452D01*
X51502452Y-36730491D01*
X51502445Y-36730499D01*
X51396004Y-36877005D01*
X51313788Y-37038359D01*
X51313786Y-37038363D01*
X51313778Y-37038386D01*
X51257829Y-37210585D01*
X51229500Y-37389448D01*
X49500000Y-37389448D01*
X49500000Y-35449552D01*
X49502939Y-35422714D01*
X49508679Y-35396822D01*
X49517358Y-35371255D01*
X49647818Y-35091485D01*
X49647818Y-35091484D01*
X49647824Y-35091472D01*
X49647828Y-35091462D01*
X49671603Y-35026138D01*
X49803098Y-34664859D01*
X49920599Y-34226342D01*
X49999432Y-33779252D01*
X50039000Y-33326993D01*
X50039000Y-32873007D01*
X49999432Y-32420748D01*
X49987402Y-32352524D01*
X49956136Y-32175201D01*
X49920599Y-31973658D01*
X49915465Y-31954496D01*
X68039099Y-31954496D01*
X68072365Y-32121728D01*
X68079868Y-32159445D01*
X68079870Y-32159453D01*
X68159842Y-32352522D01*
X68230440Y-32458180D01*
X68275949Y-32526290D01*
X68423707Y-32674048D01*
X68423711Y-32674051D01*
X68423713Y-32674053D01*
X68423716Y-32674055D01*
X68423720Y-32674058D01*
X68423719Y-32674058D01*
X68423782Y-32674110D01*
X68423819Y-32674124D01*
X68597476Y-32790157D01*
X68790547Y-32870130D01*
X68983515Y-32908514D01*
X68987864Y-32909379D01*
X68990599Y-32910103D01*
X68995507Y-32910900D01*
X69204492Y-32910900D01*
X69208612Y-32910900D01*
X69216462Y-32908518D01*
X69409453Y-32870130D01*
X69596911Y-32792481D01*
X69601503Y-32790838D01*
X69602519Y-32790158D01*
X69602524Y-32790157D01*
X69602525Y-32790156D01*
X69602526Y-32790156D01*
X69768630Y-32679170D01*
X69768631Y-32679169D01*
X69770358Y-32678014D01*
X69773704Y-32675779D01*
X69773705Y-32675780D01*
X69773737Y-32675755D01*
X69776284Y-32674055D01*
X69924055Y-32526284D01*
X70040157Y-32352524D01*
X70120130Y-32159453D01*
X70160900Y-31954490D01*
X70160900Y-31758663D01*
X70479600Y-31758663D01*
X70479600Y-31941335D01*
X70504657Y-32099535D01*
X70508172Y-32121728D01*
X70520430Y-32159453D01*
X70564615Y-32295441D01*
X70564621Y-32295454D01*
X70647532Y-32458174D01*
X70647535Y-32458178D01*
X70660467Y-32475978D01*
X71098817Y-32037627D01*
X71160138Y-32004144D01*
X71229829Y-32009128D01*
X71285763Y-32050999D01*
X71293882Y-32063308D01*
X71307747Y-32087322D01*
X71314799Y-32099536D01*
X71390464Y-32175201D01*
X71390467Y-32175202D01*
X71390470Y-32175205D01*
X71426688Y-32196116D01*
X71474903Y-32246683D01*
X71488125Y-32315290D01*
X71462157Y-32380155D01*
X71452368Y-32391183D01*
X71014018Y-32829530D01*
X71014019Y-32829530D01*
X71014019Y-32829531D01*
X71031817Y-32842462D01*
X71194556Y-32925383D01*
X71368271Y-32981827D01*
X71548670Y-33010400D01*
X71731329Y-33010400D01*
X71731330Y-33010400D01*
X71911728Y-32981827D01*
X72085443Y-32925383D01*
X72248178Y-32842465D01*
X72265979Y-32829531D01*
X71827631Y-32391183D01*
X71794146Y-32329860D01*
X71799130Y-32260168D01*
X71841002Y-32204235D01*
X71853312Y-32196115D01*
X71889536Y-32175201D01*
X71965201Y-32099536D01*
X71986116Y-32063309D01*
X72036681Y-32015096D01*
X72105288Y-32001872D01*
X72170153Y-32027840D01*
X72181183Y-32037630D01*
X72619531Y-32475978D01*
X72632465Y-32458178D01*
X72715383Y-32295443D01*
X72771827Y-32121728D01*
X72798315Y-31954496D01*
X73119099Y-31954496D01*
X73152365Y-32121728D01*
X73159868Y-32159445D01*
X73159870Y-32159453D01*
X73239842Y-32352522D01*
X73310440Y-32458180D01*
X73355949Y-32526290D01*
X73503707Y-32674048D01*
X73503711Y-32674051D01*
X73503713Y-32674053D01*
X73503716Y-32674055D01*
X73503720Y-32674058D01*
X73503719Y-32674058D01*
X73503782Y-32674110D01*
X73503819Y-32674124D01*
X73677476Y-32790157D01*
X73870547Y-32870130D01*
X74063515Y-32908514D01*
X74067864Y-32909379D01*
X74070599Y-32910103D01*
X74075507Y-32910900D01*
X74284492Y-32910900D01*
X74288612Y-32910900D01*
X74296462Y-32908518D01*
X74489453Y-32870130D01*
X74682524Y-32790157D01*
X74856284Y-32674055D01*
X75004055Y-32526284D01*
X75120157Y-32352524D01*
X75200130Y-32159453D01*
X75240900Y-31954490D01*
X75240900Y-31745510D01*
X75240900Y-31745507D01*
X75240900Y-31745325D01*
X75240465Y-31743324D01*
X75230031Y-31690868D01*
X75200788Y-31543859D01*
X75200376Y-31541447D01*
X75200131Y-31540551D01*
X75200130Y-31540549D01*
X75200130Y-31540547D01*
X75120157Y-31347476D01*
X75004124Y-31173820D01*
X75004114Y-31173788D01*
X75004058Y-31173719D01*
X75004058Y-31173720D01*
X75004055Y-31173716D01*
X75004053Y-31173713D01*
X75004051Y-31173711D01*
X75004048Y-31173707D01*
X74856288Y-31025947D01*
X74769452Y-30967926D01*
X74769404Y-30967894D01*
X74682524Y-30909843D01*
X74682525Y-30909843D01*
X74682523Y-30909842D01*
X74587462Y-30870467D01*
X74556261Y-30857543D01*
X74489453Y-30829870D01*
X74489445Y-30829868D01*
X74489437Y-30829866D01*
X74489427Y-30829864D01*
X74284495Y-30789100D01*
X74284493Y-30789100D01*
X74284490Y-30789100D01*
X74075510Y-30789100D01*
X74075507Y-30789100D01*
X74075505Y-30789100D01*
X73870571Y-30829864D01*
X73870546Y-30829870D01*
X73677478Y-30909841D01*
X73503708Y-31025949D01*
X73355949Y-31173708D01*
X73239841Y-31347478D01*
X73159870Y-31540546D01*
X73159864Y-31540571D01*
X73119100Y-31745502D01*
X73119100Y-31745505D01*
X73119100Y-31954494D01*
X73119100Y-31954496D01*
X73119099Y-31954496D01*
X72798315Y-31954496D01*
X72800400Y-31941330D01*
X72800400Y-31758670D01*
X72771827Y-31578271D01*
X72715383Y-31404556D01*
X72633045Y-31242962D01*
X72629487Y-31228143D01*
X72619530Y-31224018D01*
X72181182Y-31662367D01*
X72119859Y-31695852D01*
X72050167Y-31690868D01*
X71994234Y-31648996D01*
X71986114Y-31636686D01*
X71965203Y-31600467D01*
X71965198Y-31600461D01*
X71889538Y-31524801D01*
X71889536Y-31524799D01*
X71853309Y-31503883D01*
X71805095Y-31453316D01*
X71791873Y-31384709D01*
X71817841Y-31319844D01*
X71827625Y-31308820D01*
X72265978Y-30870467D01*
X72265975Y-30870465D01*
X72248174Y-30857532D01*
X72085454Y-30774621D01*
X72085441Y-30774615D01*
X71991837Y-30744201D01*
X71911728Y-30718172D01*
X71911726Y-30718171D01*
X71911724Y-30718171D01*
X71731335Y-30689600D01*
X71731330Y-30689600D01*
X71548670Y-30689600D01*
X71548665Y-30689600D01*
X71368274Y-30718171D01*
X71368271Y-30718172D01*
X71194556Y-30774616D01*
X71138507Y-30803175D01*
X71031810Y-30857540D01*
X71031083Y-30858009D01*
X71029479Y-30859233D01*
X71014020Y-30870463D01*
X71014020Y-30870468D01*
X71452369Y-31308816D01*
X71485854Y-31370139D01*
X71480870Y-31439830D01*
X71438999Y-31495764D01*
X71426690Y-31503883D01*
X71390467Y-31524797D01*
X71390461Y-31524801D01*
X71314801Y-31600461D01*
X71314794Y-31600470D01*
X71293882Y-31636690D01*
X71243314Y-31684904D01*
X71174706Y-31698125D01*
X71109842Y-31672155D01*
X71098816Y-31662368D01*
X70660468Y-31224020D01*
X70660465Y-31224020D01*
X70660464Y-31224020D01*
X70649233Y-31239479D01*
X70648009Y-31241083D01*
X70647540Y-31241810D01*
X70613399Y-31308816D01*
X70564616Y-31404556D01*
X70564615Y-31404558D01*
X70564615Y-31404559D01*
X70508171Y-31578274D01*
X70479600Y-31758663D01*
X70160900Y-31758663D01*
X70160900Y-31745510D01*
X70160900Y-31745507D01*
X70160899Y-31745505D01*
X70120788Y-31543859D01*
X70120376Y-31541447D01*
X70120131Y-31540551D01*
X70120130Y-31540549D01*
X70120130Y-31540547D01*
X70040157Y-31347476D01*
X69924124Y-31173820D01*
X69924114Y-31173788D01*
X69924058Y-31173719D01*
X69924058Y-31173720D01*
X69924055Y-31173716D01*
X69924053Y-31173713D01*
X69924051Y-31173711D01*
X69924048Y-31173707D01*
X69776295Y-31025954D01*
X69776288Y-31025948D01*
X69776286Y-31025946D01*
X69776279Y-31025941D01*
X69773690Y-31024211D01*
X69773689Y-31024210D01*
X69602521Y-30909840D01*
X69409454Y-30829870D01*
X69409427Y-30829864D01*
X69204495Y-30789100D01*
X69204493Y-30789100D01*
X69204490Y-30789100D01*
X68995510Y-30789100D01*
X68995507Y-30789100D01*
X68995505Y-30789100D01*
X68790571Y-30829864D01*
X68790546Y-30829870D01*
X68597478Y-30909841D01*
X68423708Y-31025949D01*
X68275949Y-31173708D01*
X68159841Y-31347478D01*
X68079870Y-31540546D01*
X68079864Y-31540571D01*
X68039100Y-31745502D01*
X68039100Y-31745505D01*
X68039100Y-31954494D01*
X68039100Y-31954496D01*
X68039099Y-31954496D01*
X49915465Y-31954496D01*
X49803098Y-31535141D01*
X49689860Y-31224020D01*
X49647828Y-31108537D01*
X49536815Y-30870468D01*
X49517358Y-30828742D01*
X49508679Y-30803175D01*
X49502939Y-30777283D01*
X49500000Y-30750445D01*
X49500000Y-24444897D01*
X49505023Y-24409961D01*
X49509427Y-24394963D01*
X49547180Y-24336205D01*
X49548585Y-24334987D01*
X49603353Y-24307536D01*
X49610831Y-24305903D01*
X49637095Y-24303049D01*
X75357998Y-24265698D01*
X75392931Y-24270670D01*
G37*
%TD.AperFunction*%
%TA.AperFunction,Conductor*%
G36*
X40754698Y-42714259D02*
G01*
X40810632Y-42756130D01*
X40818750Y-42768437D01*
X40824177Y-42777836D01*
X40829881Y-42787715D01*
X40932285Y-42890119D01*
X40951556Y-42901245D01*
X40999771Y-42951812D01*
X41012995Y-43020419D01*
X40987027Y-43085283D01*
X40977237Y-43096313D01*
X40472485Y-43601064D01*
X40472484Y-43601065D01*
X40472485Y-43601066D01*
X40536243Y-43647388D01*
X40536245Y-43647389D01*
X40536248Y-43647391D01*
X40608196Y-43684050D01*
X40652318Y-43706531D01*
X40676240Y-43729124D01*
X40732591Y-43747433D01*
X40732590Y-43747433D01*
X40748370Y-43752560D01*
X40780036Y-43768128D01*
X40785777Y-43772053D01*
X40830005Y-43826140D01*
X40837971Y-43895554D01*
X40807145Y-43958256D01*
X40749039Y-43993871D01*
X40746661Y-43994532D01*
X40743329Y-43995459D01*
X40710082Y-44000000D01*
X40141830Y-44000000D01*
X40106889Y-43994975D01*
X40091890Y-43990570D01*
X40033144Y-43952827D01*
X40031957Y-43951458D01*
X40004477Y-43896583D01*
X40002832Y-43889021D01*
X40000000Y-43862668D01*
X40000000Y-43390125D01*
X40005023Y-43355191D01*
X40009299Y-43340628D01*
X40047073Y-43281849D01*
X40106691Y-43253456D01*
X40114341Y-43252104D01*
X40623686Y-42742758D01*
X40685007Y-42709275D01*
X40754698Y-42714259D01*
G37*
%TD.AperFunction*%
%TA.AperFunction,Conductor*%
G36*
X42838701Y-42629444D02*
G01*
X42882982Y-42681287D01*
X42885443Y-42686676D01*
X42895121Y-42718789D01*
X42904472Y-42777835D01*
X42972565Y-42987407D01*
X42972566Y-42987410D01*
X43072610Y-43183754D01*
X43072611Y-43183756D01*
X43114878Y-43241934D01*
X43118932Y-43247513D01*
X43623686Y-42742758D01*
X43685007Y-42709275D01*
X43754698Y-42714259D01*
X43810632Y-42756130D01*
X43818750Y-42768437D01*
X43824177Y-42777836D01*
X43829881Y-42787715D01*
X43932285Y-42890119D01*
X43951556Y-42901245D01*
X43999771Y-42951812D01*
X44012995Y-43020419D01*
X43987027Y-43085283D01*
X43977237Y-43096313D01*
X43472485Y-43601064D01*
X43472485Y-43601065D01*
X43472485Y-43601066D01*
X43536243Y-43647388D01*
X43536245Y-43647389D01*
X43536248Y-43647391D01*
X43608196Y-43684050D01*
X43652318Y-43706531D01*
X43676240Y-43729124D01*
X43732591Y-43747433D01*
X43732590Y-43747433D01*
X43748370Y-43752560D01*
X43780036Y-43768128D01*
X43785777Y-43772053D01*
X43830005Y-43826140D01*
X43837971Y-43895554D01*
X43807145Y-43958256D01*
X43749039Y-43993871D01*
X43746661Y-43994532D01*
X43743329Y-43995459D01*
X43710082Y-44000000D01*
X41830822Y-44000000D01*
X41795890Y-43994978D01*
X41789221Y-43993020D01*
X41730442Y-43955247D01*
X41701416Y-43891692D01*
X41711357Y-43822534D01*
X41755628Y-43770697D01*
X41760573Y-43767418D01*
X41790768Y-43752839D01*
X41807408Y-43747433D01*
X42003760Y-43647386D01*
X42034918Y-43624747D01*
X42061656Y-43615207D01*
X42067514Y-43601065D01*
X41562761Y-43096314D01*
X41529276Y-43034991D01*
X41534260Y-42965300D01*
X41576131Y-42909366D01*
X41588432Y-42901251D01*
X41607715Y-42890119D01*
X41710119Y-42787715D01*
X41721245Y-42768443D01*
X41771810Y-42720228D01*
X41840417Y-42707004D01*
X41905282Y-42732971D01*
X41916313Y-42742762D01*
X42421065Y-43247514D01*
X42421065Y-43247513D01*
X42421066Y-43247514D01*
X42421066Y-43247513D01*
X42434534Y-43241934D01*
X42440751Y-43220764D01*
X42444749Y-43214916D01*
X42467386Y-43183760D01*
X42567432Y-42987410D01*
X42635526Y-42777835D01*
X42644738Y-42719677D01*
X42655160Y-42685968D01*
X42658136Y-42679689D01*
X42704636Y-42627540D01*
X42771948Y-42608810D01*
X42838701Y-42629444D01*
G37*
%TD.AperFunction*%
%TA.AperFunction,Conductor*%
G36*
X43532630Y-41005023D02*
G01*
X43542884Y-41008034D01*
X43601662Y-41045810D01*
X43630686Y-41109366D01*
X43620742Y-41178524D01*
X43584368Y-41224664D01*
X43581259Y-41227097D01*
X43561132Y-41239930D01*
X43536232Y-41252616D01*
X43536229Y-41252618D01*
X43472485Y-41298931D01*
X43472485Y-41298932D01*
X43977238Y-41803685D01*
X44010723Y-41865008D01*
X44005739Y-41934700D01*
X43963867Y-41990633D01*
X43951561Y-41998751D01*
X43932288Y-42009878D01*
X43932282Y-42009883D01*
X43829883Y-42112282D01*
X43829878Y-42112288D01*
X43818751Y-42131561D01*
X43768182Y-42179775D01*
X43699574Y-42192995D01*
X43634711Y-42167025D01*
X43623685Y-42157238D01*
X43118932Y-41652485D01*
X43118931Y-41652485D01*
X43072617Y-41716230D01*
X43072615Y-41716234D01*
X42972566Y-41912588D01*
X42972565Y-41912591D01*
X42904473Y-42122162D01*
X42895262Y-42180319D01*
X42884834Y-42214044D01*
X42881857Y-42220323D01*
X42835350Y-42272465D01*
X42768035Y-42291187D01*
X42701285Y-42270544D01*
X42657021Y-42218718D01*
X42654560Y-42213330D01*
X42644878Y-42181209D01*
X42641081Y-42157238D01*
X42638964Y-42143866D01*
X42635526Y-42122162D01*
X42567433Y-41912591D01*
X42567432Y-41912588D01*
X42511942Y-41803684D01*
X42467388Y-41716243D01*
X42421066Y-41652485D01*
X42421064Y-41652485D01*
X41916313Y-42157237D01*
X41854990Y-42190722D01*
X41785298Y-42185738D01*
X41729365Y-42143866D01*
X41721245Y-42131556D01*
X41710119Y-42112285D01*
X41607715Y-42009881D01*
X41588438Y-41998751D01*
X41540223Y-41948183D01*
X41527002Y-41879576D01*
X41552971Y-41814712D01*
X41562749Y-41803694D01*
X42067513Y-41298932D01*
X42003756Y-41252611D01*
X41984066Y-41242578D01*
X41955223Y-41222246D01*
X41947451Y-41214906D01*
X41912229Y-41154567D01*
X41915219Y-41084761D01*
X41955475Y-41027653D01*
X42008848Y-41003051D01*
X42012723Y-41002295D01*
X42036467Y-41000000D01*
X43497694Y-41000000D01*
X43532630Y-41005023D01*
G37*
%TD.AperFunction*%
%TA.AperFunction,Conductor*%
G36*
X40532630Y-41005023D02*
G01*
X40542884Y-41008034D01*
X40601662Y-41045810D01*
X40630686Y-41109366D01*
X40620742Y-41178524D01*
X40584368Y-41224664D01*
X40581259Y-41227097D01*
X40561132Y-41239930D01*
X40536232Y-41252616D01*
X40536229Y-41252618D01*
X40472485Y-41298931D01*
X40472485Y-41298932D01*
X40977238Y-41803685D01*
X41010723Y-41865008D01*
X41005739Y-41934700D01*
X40963867Y-41990633D01*
X40951561Y-41998751D01*
X40932288Y-42009878D01*
X40932282Y-42009883D01*
X40829883Y-42112282D01*
X40829878Y-42112288D01*
X40818751Y-42131561D01*
X40768182Y-42179775D01*
X40699574Y-42192995D01*
X40634711Y-42167025D01*
X40623685Y-42157238D01*
X40113522Y-41647075D01*
X40101425Y-41644533D01*
X40039866Y-41611486D01*
X40006882Y-41554272D01*
X40003958Y-41542983D01*
X40000000Y-41511903D01*
X40000000Y-41141829D01*
X40005023Y-41106893D01*
X40009427Y-41091895D01*
X40047172Y-41033144D01*
X40048541Y-41031957D01*
X40103420Y-41004477D01*
X40110979Y-41002833D01*
X40137332Y-41000000D01*
X40497694Y-41000000D01*
X40532630Y-41005023D01*
G37*
%TD.AperFunction*%
%TD*%
%TA.AperFunction,Conductor*%
%TO.N,PRE_HV-*%
G36*
X75443039Y-47519685D02*
G01*
X75488794Y-47572489D01*
X75500000Y-47624000D01*
X75500000Y-63709586D01*
X75480315Y-63776625D01*
X75427511Y-63822380D01*
X75376144Y-63833586D01*
X64147331Y-63846641D01*
X64080269Y-63827034D01*
X64034453Y-63774284D01*
X64024429Y-63705137D01*
X64053380Y-63641547D01*
X64090892Y-63612156D01*
X64093854Y-63610646D01*
X64093858Y-63610646D01*
X64206896Y-63553050D01*
X64296604Y-63463342D01*
X64354200Y-63350304D01*
X64354200Y-63350302D01*
X64354201Y-63350301D01*
X64369053Y-63256524D01*
X64369054Y-63256519D01*
X64369053Y-61693482D01*
X64354200Y-61599696D01*
X64296604Y-61486658D01*
X64296600Y-61486654D01*
X64296599Y-61486652D01*
X64206901Y-61396954D01*
X64206898Y-61396952D01*
X64206896Y-61396950D01*
X64120304Y-61352829D01*
X64093855Y-61339352D01*
X64000078Y-61324500D01*
X64000073Y-61324500D01*
X63375685Y-61324500D01*
X63308646Y-61304815D01*
X63262891Y-61252011D01*
X63252947Y-61182853D01*
X63281972Y-61119297D01*
X63340750Y-61081523D01*
X63356287Y-61078027D01*
X63413962Y-61068891D01*
X63487963Y-61057171D01*
X63660193Y-61001211D01*
X63821548Y-60918996D01*
X63968055Y-60812553D01*
X64096107Y-60684501D01*
X64202550Y-60537994D01*
X64284765Y-60376639D01*
X64340725Y-60204409D01*
X64360553Y-60079221D01*
X64369054Y-60025551D01*
X64369054Y-59844448D01*
X64352573Y-59740397D01*
X64340725Y-59665591D01*
X64305282Y-59556509D01*
X64303288Y-59486669D01*
X64339368Y-59426836D01*
X64402069Y-59396008D01*
X64471484Y-59403973D01*
X64510895Y-59430511D01*
X66200889Y-61120505D01*
X66200890Y-61120506D01*
X66200892Y-61120507D01*
X66320715Y-61189687D01*
X66320716Y-61189687D01*
X66320719Y-61189689D01*
X66454371Y-61225501D01*
X66454373Y-61225501D01*
X66600333Y-61225501D01*
X66600349Y-61225500D01*
X70487985Y-61225500D01*
X70555024Y-61245185D01*
X70556876Y-61246398D01*
X70668182Y-61320771D01*
X70668195Y-61320778D01*
X70745574Y-61352829D01*
X70795672Y-61373580D01*
X70795676Y-61373580D01*
X70795677Y-61373581D01*
X70931004Y-61400500D01*
X70931007Y-61400500D01*
X71068995Y-61400500D01*
X71160041Y-61382389D01*
X71204328Y-61373580D01*
X71331811Y-61320775D01*
X71446542Y-61244114D01*
X71544114Y-61146542D01*
X71620775Y-61031811D01*
X71673580Y-60904328D01*
X71686475Y-60839500D01*
X71700500Y-60768995D01*
X71700500Y-60631004D01*
X71673581Y-60495677D01*
X71673580Y-60495676D01*
X71673580Y-60495672D01*
X71661301Y-60466027D01*
X71620778Y-60368195D01*
X71620771Y-60368182D01*
X71544114Y-60253458D01*
X71544111Y-60253454D01*
X71446545Y-60155888D01*
X71446541Y-60155885D01*
X71331817Y-60079228D01*
X71331804Y-60079221D01*
X71204332Y-60026421D01*
X71204322Y-60026418D01*
X71068995Y-59999500D01*
X71068993Y-59999500D01*
X70931007Y-59999500D01*
X70931005Y-59999500D01*
X70795677Y-60026418D01*
X70795667Y-60026421D01*
X70668195Y-60079221D01*
X70668182Y-60079228D01*
X70556876Y-60153602D01*
X70490199Y-60174480D01*
X70487985Y-60174500D01*
X66792586Y-60174500D01*
X66725547Y-60154815D01*
X66704905Y-60138181D01*
X64367580Y-57800856D01*
X64334095Y-57739533D01*
X64337332Y-57674851D01*
X64340725Y-57664409D01*
X64366765Y-57500000D01*
X64369054Y-57485551D01*
X64369054Y-57304448D01*
X64352573Y-57200397D01*
X64340725Y-57125591D01*
X64284765Y-56953361D01*
X64284765Y-56953360D01*
X64232005Y-56849815D01*
X64202550Y-56792006D01*
X64138591Y-56703973D01*
X64096112Y-56645505D01*
X64096108Y-56645500D01*
X63968053Y-56517445D01*
X63968048Y-56517441D01*
X63821551Y-56411006D01*
X63821550Y-56411005D01*
X63821548Y-56411004D01*
X63769854Y-56384664D01*
X63660193Y-56328788D01*
X63660190Y-56328787D01*
X63556941Y-56295240D01*
X63499265Y-56255803D01*
X63472067Y-56191444D01*
X63483982Y-56122598D01*
X63531226Y-56071122D01*
X63556941Y-56059378D01*
X63698389Y-56013418D01*
X63873697Y-55924095D01*
X63908679Y-55898678D01*
X63908680Y-55898678D01*
X63307149Y-55297147D01*
X63392252Y-55274344D01*
X63494868Y-55215099D01*
X63578653Y-55131314D01*
X63637898Y-55028698D01*
X63660701Y-54943595D01*
X64262232Y-55545126D01*
X64262232Y-55545125D01*
X64287649Y-55510143D01*
X64376972Y-55334835D01*
X64437775Y-55147705D01*
X64468554Y-54953382D01*
X64468554Y-54756617D01*
X64437775Y-54562294D01*
X64376972Y-54375164D01*
X64287650Y-54199858D01*
X64262232Y-54164873D01*
X64262231Y-54164873D01*
X63660701Y-54766404D01*
X63637898Y-54681302D01*
X63578653Y-54578686D01*
X63494868Y-54494901D01*
X63392252Y-54435656D01*
X63307148Y-54412852D01*
X63908679Y-53811320D01*
X63908679Y-53811319D01*
X63873699Y-53785905D01*
X63698389Y-53696581D01*
X63511259Y-53635778D01*
X63316936Y-53605000D01*
X63120172Y-53605000D01*
X62925848Y-53635778D01*
X62738715Y-53696582D01*
X62563417Y-53785899D01*
X62563413Y-53785902D01*
X62528427Y-53811320D01*
X62528426Y-53811320D01*
X63129959Y-54412852D01*
X63044856Y-54435656D01*
X62942240Y-54494901D01*
X62858455Y-54578686D01*
X62799210Y-54681302D01*
X62776406Y-54766405D01*
X62174874Y-54164872D01*
X62174874Y-54164873D01*
X62149456Y-54199859D01*
X62149453Y-54199863D01*
X62060136Y-54375161D01*
X61999332Y-54562294D01*
X61968554Y-54756617D01*
X61968554Y-54953382D01*
X61999332Y-55147705D01*
X62060135Y-55334835D01*
X62149459Y-55510145D01*
X62174873Y-55545125D01*
X62174874Y-55545125D01*
X62776406Y-54943593D01*
X62799210Y-55028698D01*
X62858455Y-55131314D01*
X62942240Y-55215099D01*
X63044856Y-55274344D01*
X63129959Y-55297147D01*
X62528427Y-55898677D01*
X62528427Y-55898678D01*
X62563412Y-55924096D01*
X62738718Y-56013418D01*
X62880166Y-56059378D01*
X62937842Y-56098815D01*
X62965040Y-56163174D01*
X62953125Y-56232020D01*
X62905881Y-56283496D01*
X62880166Y-56295240D01*
X62776917Y-56328787D01*
X62776914Y-56328788D01*
X62615556Y-56411006D01*
X62469059Y-56517441D01*
X62469054Y-56517445D01*
X62340999Y-56645500D01*
X62340995Y-56645505D01*
X62234560Y-56792002D01*
X62152342Y-56953360D01*
X62152341Y-56953363D01*
X62096383Y-57125589D01*
X62068054Y-57304448D01*
X62068054Y-57485551D01*
X62096383Y-57664410D01*
X62152341Y-57836636D01*
X62152342Y-57836639D01*
X62200450Y-57931054D01*
X62229569Y-57988203D01*
X62234560Y-57997997D01*
X62340995Y-58144494D01*
X62340999Y-58144499D01*
X62469054Y-58272554D01*
X62469059Y-58272558D01*
X62575486Y-58349881D01*
X62615560Y-58378996D01*
X62721038Y-58432740D01*
X62776914Y-58461211D01*
X62776917Y-58461212D01*
X62863030Y-58489191D01*
X62949145Y-58517171D01*
X63022193Y-58528740D01*
X63109232Y-58542527D01*
X63172367Y-58572456D01*
X63209298Y-58631768D01*
X63208300Y-58701631D01*
X63169690Y-58759863D01*
X63109232Y-58787473D01*
X62949143Y-58812829D01*
X62776917Y-58868787D01*
X62776914Y-58868788D01*
X62615556Y-58951006D01*
X62469059Y-59057441D01*
X62469054Y-59057445D01*
X62340999Y-59185500D01*
X62340995Y-59185505D01*
X62234560Y-59332002D01*
X62152342Y-59493360D01*
X62152341Y-59493363D01*
X62096383Y-59665589D01*
X62068054Y-59844448D01*
X62068054Y-60025551D01*
X62096383Y-60204412D01*
X62131824Y-60313491D01*
X62133819Y-60383332D01*
X62097738Y-60443165D01*
X62035037Y-60473992D01*
X61965622Y-60466027D01*
X61926212Y-60439489D01*
X58566129Y-57079406D01*
X58566127Y-57079403D01*
X58461220Y-56974496D01*
X58461215Y-56974492D01*
X58341394Y-56905313D01*
X58313146Y-56897743D01*
X58313145Y-56897743D01*
X58207737Y-56869499D01*
X58069371Y-56869499D01*
X58061775Y-56869499D01*
X58061759Y-56869500D01*
X56698023Y-56869500D01*
X56630984Y-56849815D01*
X56587539Y-56801797D01*
X56582548Y-56792002D01*
X56476112Y-56645505D01*
X56476108Y-56645500D01*
X56348053Y-56517445D01*
X56348048Y-56517441D01*
X56201551Y-56411006D01*
X56201550Y-56411005D01*
X56201548Y-56411004D01*
X56149854Y-56384664D01*
X56040193Y-56328788D01*
X56040190Y-56328787D01*
X55867964Y-56272829D01*
X55707875Y-56247473D01*
X55644740Y-56217544D01*
X55607809Y-56158232D01*
X55608807Y-56088370D01*
X55647417Y-56030137D01*
X55707875Y-56002527D01*
X55777979Y-55991422D01*
X55867963Y-55977171D01*
X56040193Y-55921211D01*
X56201548Y-55838996D01*
X56348055Y-55732553D01*
X56476107Y-55604501D01*
X56582550Y-55457994D01*
X56664765Y-55296639D01*
X56720725Y-55124409D01*
X56735884Y-55028698D01*
X56749054Y-54945551D01*
X56749054Y-54764449D01*
X56749053Y-54764447D01*
X56735884Y-54681302D01*
X56720725Y-54585591D01*
X56664765Y-54413361D01*
X56664765Y-54413360D01*
X56636294Y-54357484D01*
X56582550Y-54252006D01*
X56544663Y-54199859D01*
X56476112Y-54105505D01*
X56476108Y-54105500D01*
X56348055Y-53977447D01*
X56322524Y-53958898D01*
X56322522Y-53958895D01*
X56201551Y-53871006D01*
X56201550Y-53871005D01*
X56201548Y-53871004D01*
X56149854Y-53844664D01*
X56040193Y-53788788D01*
X56040190Y-53788787D01*
X55867964Y-53732829D01*
X55689105Y-53704500D01*
X55689100Y-53704500D01*
X55508008Y-53704500D01*
X55508003Y-53704500D01*
X55329143Y-53732829D01*
X55156917Y-53788787D01*
X55156914Y-53788788D01*
X54995556Y-53871006D01*
X54849059Y-53977441D01*
X54849054Y-53977445D01*
X54720999Y-54105500D01*
X54720995Y-54105505D01*
X54614560Y-54252002D01*
X54532342Y-54413360D01*
X54532341Y-54413363D01*
X54476383Y-54585589D01*
X54448054Y-54764448D01*
X54448054Y-54945551D01*
X54476383Y-55124410D01*
X54532341Y-55296636D01*
X54532342Y-55296639D01*
X54614560Y-55457997D01*
X54720995Y-55604494D01*
X54720999Y-55604499D01*
X54849054Y-55732554D01*
X54849059Y-55732558D01*
X54976841Y-55825396D01*
X54995560Y-55838996D01*
X55083131Y-55883616D01*
X55156914Y-55921211D01*
X55156917Y-55921212D01*
X55243030Y-55949191D01*
X55329145Y-55977171D01*
X55402193Y-55988740D01*
X55489232Y-56002527D01*
X55552367Y-56032456D01*
X55589298Y-56091768D01*
X55588300Y-56161631D01*
X55549690Y-56219863D01*
X55489232Y-56247473D01*
X55329143Y-56272829D01*
X55156917Y-56328787D01*
X55156914Y-56328788D01*
X54995556Y-56411006D01*
X54849059Y-56517441D01*
X54849054Y-56517445D01*
X54720999Y-56645500D01*
X54720995Y-56645505D01*
X54614560Y-56792002D01*
X54532342Y-56953360D01*
X54532341Y-56953363D01*
X54476383Y-57125589D01*
X54448054Y-57304448D01*
X54448054Y-57485551D01*
X54476383Y-57664410D01*
X54532341Y-57836636D01*
X54532342Y-57836639D01*
X54580450Y-57931054D01*
X54609569Y-57988203D01*
X54614560Y-57997997D01*
X54720995Y-58144494D01*
X54720999Y-58144499D01*
X54849054Y-58272554D01*
X54849059Y-58272558D01*
X54955486Y-58349881D01*
X54995560Y-58378996D01*
X55101038Y-58432740D01*
X55156914Y-58461211D01*
X55156917Y-58461212D01*
X55243030Y-58489191D01*
X55329145Y-58517171D01*
X55402193Y-58528740D01*
X55489232Y-58542527D01*
X55552367Y-58572456D01*
X55589298Y-58631768D01*
X55588300Y-58701631D01*
X55549690Y-58759863D01*
X55489232Y-58787473D01*
X55329143Y-58812829D01*
X55156917Y-58868787D01*
X55156914Y-58868788D01*
X54995556Y-58951006D01*
X54849059Y-59057441D01*
X54849054Y-59057445D01*
X54720999Y-59185500D01*
X54720995Y-59185505D01*
X54614560Y-59332002D01*
X54532342Y-59493360D01*
X54532341Y-59493363D01*
X54476383Y-59665589D01*
X54448054Y-59844448D01*
X54448054Y-60025551D01*
X54476383Y-60204410D01*
X54532341Y-60376636D01*
X54532342Y-60376639D01*
X54614560Y-60537997D01*
X54720995Y-60684494D01*
X54720999Y-60684499D01*
X54849054Y-60812554D01*
X54849059Y-60812558D01*
X54936418Y-60876027D01*
X54995560Y-60918996D01*
X55101038Y-60972740D01*
X55156914Y-61001211D01*
X55156917Y-61001212D01*
X55220064Y-61021729D01*
X55329145Y-61057171D01*
X55402193Y-61068740D01*
X55489232Y-61082527D01*
X55552367Y-61112456D01*
X55589298Y-61171768D01*
X55588300Y-61241631D01*
X55549690Y-61299863D01*
X55489232Y-61327473D01*
X55329143Y-61352829D01*
X55156917Y-61408787D01*
X55156914Y-61408788D01*
X54995556Y-61491006D01*
X54849059Y-61597441D01*
X54849054Y-61597445D01*
X54720999Y-61725500D01*
X54720995Y-61725505D01*
X54614560Y-61872002D01*
X54532342Y-62033360D01*
X54532341Y-62033363D01*
X54476383Y-62205589D01*
X54448054Y-62384448D01*
X54448054Y-62565551D01*
X54476383Y-62744410D01*
X54532341Y-62916636D01*
X54532342Y-62916639D01*
X54614560Y-63077997D01*
X54720995Y-63224494D01*
X54720999Y-63224499D01*
X54849054Y-63352554D01*
X54849059Y-63352558D01*
X54976841Y-63445396D01*
X54995560Y-63458996D01*
X55101038Y-63512740D01*
X55156914Y-63541211D01*
X55156917Y-63541212D01*
X55193346Y-63553048D01*
X55329145Y-63597171D01*
X55412323Y-63610345D01*
X55475457Y-63640274D01*
X55512389Y-63699585D01*
X55511391Y-63769448D01*
X55472782Y-63827681D01*
X55408818Y-63855795D01*
X55393069Y-63856818D01*
X48324144Y-63865036D01*
X48257082Y-63845429D01*
X48211266Y-63792679D01*
X48200000Y-63741036D01*
X48200000Y-60449956D01*
X40125192Y-60527598D01*
X40057967Y-60508559D01*
X40011706Y-60456198D01*
X40000000Y-60403604D01*
X40000000Y-59709147D01*
X40019685Y-59642108D01*
X40072489Y-59596353D01*
X40133731Y-59585529D01*
X40158933Y-59587512D01*
X40786202Y-58960243D01*
X40797470Y-59002297D01*
X40869881Y-59127715D01*
X40972285Y-59230119D01*
X41097703Y-59302530D01*
X41139754Y-59313797D01*
X40512485Y-59941065D01*
X40512485Y-59941066D01*
X40576243Y-59987388D01*
X40772589Y-60087432D01*
X40982164Y-60155526D01*
X41199819Y-60190000D01*
X41420181Y-60190000D01*
X41637835Y-60155526D01*
X41847410Y-60087432D01*
X42043760Y-59987386D01*
X42107513Y-59941066D01*
X42107514Y-59941066D01*
X41480244Y-59313797D01*
X41522297Y-59302530D01*
X41647715Y-59230119D01*
X41750119Y-59127715D01*
X41822530Y-59002297D01*
X41833797Y-58960244D01*
X42461066Y-59587514D01*
X42461066Y-59587513D01*
X42507386Y-59523760D01*
X42607432Y-59327410D01*
X42675526Y-59117835D01*
X42687527Y-59042069D01*
X42717456Y-58978935D01*
X42776767Y-58942003D01*
X42846630Y-58943001D01*
X42904863Y-58981611D01*
X42932473Y-59042069D01*
X42944473Y-59117835D01*
X43012567Y-59327410D01*
X43112611Y-59523756D01*
X43158932Y-59587513D01*
X43786202Y-58960243D01*
X43797470Y-59002297D01*
X43869881Y-59127715D01*
X43972285Y-59230119D01*
X44097703Y-59302530D01*
X44139754Y-59313797D01*
X43512485Y-59941065D01*
X43512485Y-59941066D01*
X43576243Y-59987388D01*
X43772589Y-60087432D01*
X43982164Y-60155526D01*
X44199819Y-60190000D01*
X44420181Y-60190000D01*
X44637835Y-60155526D01*
X44847410Y-60087432D01*
X45043760Y-59987386D01*
X45107513Y-59941066D01*
X45107514Y-59941066D01*
X44480244Y-59313797D01*
X44522297Y-59302530D01*
X44647715Y-59230119D01*
X44750119Y-59127715D01*
X44822530Y-59002297D01*
X44833797Y-58960244D01*
X45461066Y-59587514D01*
X45461066Y-59587513D01*
X45507386Y-59523760D01*
X45607432Y-59327410D01*
X45675526Y-59117835D01*
X45710000Y-58900181D01*
X45710000Y-58679818D01*
X45675526Y-58462164D01*
X45607432Y-58252589D01*
X45507388Y-58056243D01*
X45461066Y-57992485D01*
X45461065Y-57992485D01*
X44833797Y-58619754D01*
X44822530Y-58577703D01*
X44750119Y-58452285D01*
X44647715Y-58349881D01*
X44522297Y-58277470D01*
X44480243Y-58266201D01*
X45107513Y-57638932D01*
X45107104Y-57633730D01*
X45121468Y-57565353D01*
X45170519Y-57515595D01*
X45230722Y-57500000D01*
X48200000Y-57500000D01*
X48200000Y-53312180D01*
X48219685Y-53245141D01*
X48222403Y-53241088D01*
X48428969Y-52946082D01*
X48655963Y-52552918D01*
X48847826Y-52141467D01*
X48861285Y-52104490D01*
X48937349Y-51895505D01*
X67899100Y-51895505D01*
X67899100Y-52104494D01*
X67939868Y-52309445D01*
X67939870Y-52309453D01*
X68019842Y-52502522D01*
X68135946Y-52676286D01*
X68283713Y-52824053D01*
X68283716Y-52824055D01*
X68457476Y-52940157D01*
X68650547Y-53020130D01*
X68855505Y-53060899D01*
X68855508Y-53060900D01*
X68855510Y-53060900D01*
X69064492Y-53060900D01*
X69064493Y-53060899D01*
X69269453Y-53020130D01*
X69462524Y-52940157D01*
X69462525Y-52940156D01*
X69462526Y-52940156D01*
X69628630Y-52829170D01*
X69628631Y-52829169D01*
X69633052Y-52826213D01*
X69636284Y-52824055D01*
X69784055Y-52676284D01*
X69900157Y-52502524D01*
X69980130Y-52309453D01*
X70020900Y-52104490D01*
X70020900Y-51908669D01*
X70339600Y-51908669D01*
X70339600Y-52091330D01*
X70368172Y-52271728D01*
X70424616Y-52445443D01*
X70507535Y-52608178D01*
X70520467Y-52625978D01*
X71093600Y-52052845D01*
X71093600Y-52053504D01*
X71121295Y-52156865D01*
X71174799Y-52249536D01*
X71250464Y-52325201D01*
X71343135Y-52378705D01*
X71446496Y-52406400D01*
X71447153Y-52406400D01*
X70874019Y-52979531D01*
X70891817Y-52992462D01*
X71054556Y-53075383D01*
X71228271Y-53131827D01*
X71408670Y-53160400D01*
X71591330Y-53160400D01*
X71771728Y-53131827D01*
X71945443Y-53075383D01*
X72108178Y-52992465D01*
X72125979Y-52979531D01*
X71552848Y-52406400D01*
X71553504Y-52406400D01*
X71656865Y-52378705D01*
X71749536Y-52325201D01*
X71825201Y-52249536D01*
X71878705Y-52156865D01*
X71906400Y-52053504D01*
X71906400Y-52052847D01*
X72479531Y-52625978D01*
X72492465Y-52608178D01*
X72575383Y-52445443D01*
X72631827Y-52271728D01*
X72660400Y-52091330D01*
X72660400Y-51908670D01*
X72658315Y-51895505D01*
X72979100Y-51895505D01*
X72979100Y-52104494D01*
X73019868Y-52309445D01*
X73019870Y-52309453D01*
X73099842Y-52502522D01*
X73215946Y-52676286D01*
X73363713Y-52824053D01*
X73363716Y-52824055D01*
X73537476Y-52940157D01*
X73730547Y-53020130D01*
X73935505Y-53060899D01*
X73935508Y-53060900D01*
X73935510Y-53060900D01*
X74144492Y-53060900D01*
X74144493Y-53060899D01*
X74349453Y-53020130D01*
X74542524Y-52940157D01*
X74716284Y-52824055D01*
X74864055Y-52676284D01*
X74980157Y-52502524D01*
X75060130Y-52309453D01*
X75100900Y-52104490D01*
X75100900Y-51895510D01*
X75100900Y-51895507D01*
X75100899Y-51895505D01*
X75060131Y-51690554D01*
X75060130Y-51690547D01*
X74980157Y-51497476D01*
X74864055Y-51323716D01*
X74864053Y-51323713D01*
X74716286Y-51175946D01*
X74587581Y-51089949D01*
X74542524Y-51059843D01*
X74447462Y-51020467D01*
X74349453Y-50979870D01*
X74349445Y-50979868D01*
X74144493Y-50939100D01*
X74144490Y-50939100D01*
X73935510Y-50939100D01*
X73935507Y-50939100D01*
X73730554Y-50979868D01*
X73730546Y-50979870D01*
X73537477Y-51059842D01*
X73363713Y-51175946D01*
X73215946Y-51323713D01*
X73099842Y-51497477D01*
X73019870Y-51690546D01*
X73019868Y-51690554D01*
X72979100Y-51895505D01*
X72658315Y-51895505D01*
X72631827Y-51728271D01*
X72575383Y-51554556D01*
X72492462Y-51391817D01*
X72479531Y-51374020D01*
X72479531Y-51374019D01*
X71906400Y-51947151D01*
X71906400Y-51946496D01*
X71878705Y-51843135D01*
X71825201Y-51750464D01*
X71749536Y-51674799D01*
X71656865Y-51621295D01*
X71553504Y-51593600D01*
X71552847Y-51593600D01*
X72125978Y-51020467D01*
X72108178Y-51007535D01*
X71945443Y-50924616D01*
X71771728Y-50868172D01*
X71591330Y-50839600D01*
X71408670Y-50839600D01*
X71228271Y-50868172D01*
X71054556Y-50924616D01*
X70891813Y-51007539D01*
X70891808Y-51007543D01*
X70874020Y-51020465D01*
X70874020Y-51020468D01*
X71447154Y-51593600D01*
X71446496Y-51593600D01*
X71343135Y-51621295D01*
X71250464Y-51674799D01*
X71174799Y-51750464D01*
X71121295Y-51843135D01*
X71093600Y-51946496D01*
X71093600Y-51947152D01*
X70520468Y-51374020D01*
X70520465Y-51374020D01*
X70507543Y-51391808D01*
X70507539Y-51391813D01*
X70424616Y-51554556D01*
X70368172Y-51728271D01*
X70339600Y-51908669D01*
X70020900Y-51908669D01*
X70020900Y-51895510D01*
X70020900Y-51895507D01*
X70020899Y-51895505D01*
X69980131Y-51690554D01*
X69980130Y-51690547D01*
X69900157Y-51497476D01*
X69784055Y-51323716D01*
X69784053Y-51323713D01*
X69636287Y-51175947D01*
X69636282Y-51175943D01*
X69628628Y-51170829D01*
X69628627Y-51170828D01*
X69462525Y-51059843D01*
X69269453Y-50979870D01*
X69269445Y-50979868D01*
X69064493Y-50939100D01*
X69064490Y-50939100D01*
X68855510Y-50939100D01*
X68855507Y-50939100D01*
X68650554Y-50979868D01*
X68650546Y-50979870D01*
X68457477Y-51059842D01*
X68283713Y-51175946D01*
X68135946Y-51323713D01*
X68019842Y-51497477D01*
X67939870Y-51690546D01*
X67939868Y-51690554D01*
X67899100Y-51895505D01*
X48937349Y-51895505D01*
X48955000Y-51847008D01*
X48959874Y-51833614D01*
X49003098Y-51714859D01*
X49120599Y-51276342D01*
X49199432Y-50829252D01*
X49239000Y-50376993D01*
X49239000Y-49923007D01*
X49199432Y-49470748D01*
X49120599Y-49023658D01*
X49003098Y-48585141D01*
X48919637Y-48355833D01*
X48847828Y-48158537D01*
X48655967Y-47747091D01*
X48655964Y-47747085D01*
X48655963Y-47747082D01*
X48620696Y-47685998D01*
X48604224Y-47618101D01*
X48627076Y-47552074D01*
X48681997Y-47508883D01*
X48728084Y-47500000D01*
X75376000Y-47500000D01*
X75443039Y-47519685D01*
G37*
%TD.AperFunction*%
%TA.AperFunction,Conductor*%
G36*
X43456316Y-57519685D02*
G01*
X43502071Y-57572489D01*
X43512895Y-57633730D01*
X43512485Y-57638932D01*
X44139755Y-58266202D01*
X44097703Y-58277470D01*
X43972285Y-58349881D01*
X43869881Y-58452285D01*
X43797470Y-58577703D01*
X43786202Y-58619755D01*
X43158932Y-57992485D01*
X43158931Y-57992485D01*
X43112616Y-58056233D01*
X43012567Y-58252589D01*
X42944473Y-58462164D01*
X42932473Y-58537930D01*
X42902544Y-58601065D01*
X42843232Y-58637996D01*
X42773370Y-58636998D01*
X42715137Y-58598388D01*
X42687527Y-58537930D01*
X42675526Y-58462164D01*
X42607432Y-58252589D01*
X42507388Y-58056243D01*
X42461066Y-57992485D01*
X42461065Y-57992485D01*
X41833797Y-58619754D01*
X41822530Y-58577703D01*
X41750119Y-58452285D01*
X41647715Y-58349881D01*
X41522297Y-58277470D01*
X41480243Y-58266201D01*
X42107513Y-57638932D01*
X42107104Y-57633730D01*
X42121468Y-57565353D01*
X42170519Y-57515595D01*
X42230722Y-57500000D01*
X43389277Y-57500000D01*
X43456316Y-57519685D01*
G37*
%TD.AperFunction*%
%TA.AperFunction,Conductor*%
G36*
X40456316Y-57519685D02*
G01*
X40502071Y-57572489D01*
X40512895Y-57633730D01*
X40512485Y-57638932D01*
X41139755Y-58266202D01*
X41097703Y-58277470D01*
X40972285Y-58349881D01*
X40869881Y-58452285D01*
X40797470Y-58577703D01*
X40786202Y-58619755D01*
X40158932Y-57992485D01*
X40133730Y-57994469D01*
X40065352Y-57980105D01*
X40015595Y-57931054D01*
X40000000Y-57870851D01*
X40000000Y-57624000D01*
X40019685Y-57556961D01*
X40072489Y-57511206D01*
X40124000Y-57500000D01*
X40389277Y-57500000D01*
X40456316Y-57519685D01*
G37*
%TD.AperFunction*%
%TD*%
M02*
