%TF.GenerationSoftware,KiCad,Pcbnew,10.0.6*%
%TF.CreationDate,2026-09-01T18:20:09-07:00*%
%TF.ProjectId,Precharge_2027,50726563-6861-4726-9765-5f323032372e,rev?*%
%TF.SameCoordinates,Original*%
%TF.FileFunction,Soldermask,Top*%
%TF.FilePolarity,Negative*%
%FSLAX46Y46*%
G04 Gerber Fmt 4.6, Leading zero omitted, Abs format (unit mm)*
G04 Created by KiCad (PCBNEW 10.0.6) date 2026-09-01 18:20:09*
%MOMM*%
%LPD*%
G01*
G04 APERTURE LIST*
G04 Aperture macros list*
%AMRoundRect*
0 Rectangle with rounded corners*
0 $1 Rounding radius*
0 $2 $3 $4 $5 $6 $7 $8 $9 X,Y pos of 4 corners*
0 Add a 4 corners polygon primitive as box body*
4,1,4,$2,$3,$4,$5,$6,$7,$8,$9,$2,$3,0*
0 Add four circle primitives for the rounded corners*
1,1,$1+$1,$2,$3*
1,1,$1+$1,$4,$5*
1,1,$1+$1,$6,$7*
1,1,$1+$1,$8,$9*
0 Add four rect primitives between the rounded corners*
20,1,$1+$1,$2,$3,$4,$5,0*
20,1,$1+$1,$4,$5,$6,$7,0*
20,1,$1+$1,$6,$7,$8,$9,0*
20,1,$1+$1,$8,$9,$2,$3,0*%
G04 Aperture macros list end*
%ADD10C,1.320800*%
%ADD11R,0.806000X0.864000*%
%ADD12R,1.133000X1.377000*%
%ADD13R,1.485000X1.728000*%
%ADD14R,0.900000X0.800000*%
%ADD15R,0.980000X2.340000*%
%ADD16R,3.600000X2.340000*%
%ADD17R,0.810000X0.860000*%
%ADD18R,0.800000X0.900000*%
%ADD19C,1.100000*%
%ADD20C,1.800000*%
%ADD21R,0.700000X1.250000*%
%ADD22R,2.000000X1.800000*%
%ADD23R,0.950000X1.150000*%
%ADD24C,4.300000*%
%ADD25R,1.410000X1.350000*%
%ADD26R,0.860000X0.810000*%
%ADD27R,1.210000X1.700000*%
%ADD28R,0.650000X1.000000*%
%ADD29C,1.601000*%
%ADD30R,1.500000X1.500000*%
%ADD31C,1.500000*%
%ADD32R,1.700000X1.700000*%
%ADD33C,1.700000*%
%ADD34RoundRect,0.225000X0.225000X0.250000X-0.225000X0.250000X-0.225000X-0.250000X0.225000X-0.250000X0*%
%ADD35R,0.864000X0.806000*%
%ADD36R,1.730000X1.490000*%
%ADD37RoundRect,0.225000X-0.225000X-0.250000X0.225000X-0.250000X0.225000X0.250000X-0.225000X0.250000X0*%
%ADD38R,1.490000X1.730000*%
%ADD39R,1.800000X2.000000*%
%ADD40RoundRect,0.100000X0.637500X0.100000X-0.637500X0.100000X-0.637500X-0.100000X0.637500X-0.100000X0*%
%ADD41C,1.020000*%
%ADD42RoundRect,0.250001X0.499999X0.499999X-0.499999X0.499999X-0.499999X-0.499999X0.499999X-0.499999X0*%
%ADD43RoundRect,0.250001X0.624999X-0.462499X0.624999X0.462499X-0.624999X0.462499X-0.624999X-0.462499X0*%
%ADD44RoundRect,0.102000X-0.850000X-1.200000X0.850000X-1.200000X0.850000X1.200000X-0.850000X1.200000X0*%
%ADD45R,1.800000X1.780000*%
G04 APERTURE END LIST*
D10*
%TO.C,U8*%
X86880000Y-31850000D03*
X84340000Y-31850000D03*
X81800000Y-31850000D03*
X74180000Y-31850000D03*
X71640000Y-31850000D03*
X69100000Y-31850000D03*
%TD*%
D11*
%TO.C,R31*%
X105300000Y-38980000D03*
X103800000Y-38980000D03*
%TD*%
D12*
%TO.C,R29*%
X107550000Y-40250000D03*
X109550000Y-40250000D03*
%TD*%
D13*
%TO.C,C3*%
X67701250Y-62452500D03*
X70881250Y-62452500D03*
%TD*%
D14*
%TO.C,C5*%
X49950000Y-40900000D03*
X49950000Y-42300000D03*
%TD*%
D15*
%TO.C,U3*%
X95300000Y-49540000D03*
X93000000Y-49540000D03*
X90700000Y-49540000D03*
D16*
X93000000Y-55280000D03*
%TD*%
D17*
%TO.C,R20*%
X69750000Y-59500000D03*
X71250000Y-59500000D03*
%TD*%
D14*
%TO.C,C7*%
X53603554Y-59672500D03*
X53603554Y-61072500D03*
%TD*%
D18*
%TO.C,C9*%
X107300000Y-47500000D03*
X108700000Y-47500000D03*
%TD*%
D19*
%TO.C,Molex4*%
X45210000Y-45450000D03*
X45210000Y-39450000D03*
D20*
X44270000Y-42450000D03*
X41270000Y-42450000D03*
%TD*%
D21*
%TO.C,Q3*%
X112050000Y-41312500D03*
X113950000Y-41312500D03*
X113000000Y-39312500D03*
%TD*%
D17*
%TO.C,R17*%
X63860000Y-39050000D03*
X62360000Y-39050000D03*
%TD*%
D22*
%TO.C,D1*%
X61000000Y-50000000D03*
X65000000Y-50000000D03*
%TD*%
D23*
%TO.C,ZD6*%
X95525000Y-43405000D03*
X92145000Y-43405000D03*
%TD*%
D17*
%TO.C,R11*%
X50225909Y-55059302D03*
X48725909Y-55059302D03*
%TD*%
D24*
%TO.C,H4*%
X113583750Y-59360000D03*
%TD*%
D25*
%TO.C,C2*%
X71000000Y-56000000D03*
X69000000Y-56000000D03*
%TD*%
D26*
%TO.C,R14*%
X90500000Y-43250000D03*
X90500000Y-41750000D03*
%TD*%
D27*
%TO.C,R7*%
X49622500Y-47950000D03*
X52582500Y-47950000D03*
%TD*%
D24*
%TO.C,H2*%
X113583750Y-29020000D03*
%TD*%
D11*
%TO.C,R33*%
X105260000Y-40470000D03*
X103760000Y-40470000D03*
%TD*%
D26*
%TO.C,R24*%
X85450000Y-42850000D03*
X85450000Y-41350000D03*
%TD*%
D28*
%TO.C,D5*%
X96550000Y-35544804D03*
X94650000Y-35544804D03*
X95600000Y-37544804D03*
%TD*%
D29*
%TO.C,F2*%
X44040000Y-50150000D03*
X38960000Y-50150000D03*
%TD*%
D30*
%TO.C,U2*%
X52380000Y-45100000D03*
D31*
X54920000Y-45100000D03*
X57460000Y-45100000D03*
X60000000Y-45100000D03*
X60000000Y-37480000D03*
X57460000Y-37480000D03*
X54920000Y-37480000D03*
X52380000Y-37480000D03*
%TD*%
D18*
%TO.C,C10*%
X108700000Y-49500000D03*
X107300000Y-49500000D03*
%TD*%
D26*
%TO.C,R27*%
X98000000Y-40250000D03*
X98000000Y-38750000D03*
%TD*%
D19*
%TO.C,Molex3*%
X27930000Y-37030000D03*
X27930000Y-43030000D03*
D20*
X28870000Y-40030000D03*
X31870000Y-40030000D03*
%TD*%
D25*
%TO.C,C12*%
X87500000Y-38000000D03*
X85500000Y-38000000D03*
%TD*%
D27*
%TO.C,R8*%
X54922500Y-47950000D03*
X57882500Y-47950000D03*
%TD*%
%TO.C,R1*%
X49742304Y-26300000D03*
X52702304Y-26300000D03*
%TD*%
D26*
%TO.C,R12*%
X71100000Y-38000000D03*
X71100000Y-39500000D03*
%TD*%
D12*
%TO.C,R30*%
X109550000Y-36400000D03*
X107550000Y-36400000D03*
%TD*%
D32*
%TO.C,J3*%
X96725000Y-60500000D03*
D33*
X99265000Y-60500000D03*
%TD*%
D34*
%TO.C,C8*%
X99213750Y-53535000D03*
X97663750Y-53535000D03*
%TD*%
D17*
%TO.C,R6*%
X50000000Y-33000000D03*
X51500000Y-33000000D03*
%TD*%
D35*
%TO.C,RT2*%
X59998030Y-35489428D03*
X59998030Y-33989428D03*
%TD*%
D27*
%TO.C,R10*%
X52537500Y-51850000D03*
X49577500Y-51850000D03*
%TD*%
D26*
%TO.C,RL1*%
X65321054Y-62445000D03*
X65321054Y-60945000D03*
%TD*%
%TO.C,R21*%
X50291250Y-58152500D03*
X50291250Y-59652500D03*
%TD*%
D27*
%TO.C,R3*%
X57800000Y-30650000D03*
X54840000Y-30650000D03*
%TD*%
D36*
%TO.C,C14*%
X88000000Y-59590000D03*
X88000000Y-56410000D03*
%TD*%
D14*
%TO.C,CT1*%
X53500000Y-55100000D03*
X53500000Y-56500000D03*
%TD*%
D13*
%TO.C,C4*%
X65110000Y-42650000D03*
X68290000Y-42650000D03*
%TD*%
D21*
%TO.C,Q5*%
X93050000Y-41762500D03*
X94950000Y-41762500D03*
X94000000Y-39762500D03*
%TD*%
D26*
%TO.C,R25*%
X85700000Y-63050000D03*
X85700000Y-61550000D03*
%TD*%
D21*
%TO.C,Q2*%
X103530000Y-37230000D03*
X105430000Y-37230000D03*
X104480000Y-35230000D03*
%TD*%
D37*
%TO.C,C6*%
X101043750Y-53555000D03*
X102593750Y-53555000D03*
%TD*%
D26*
%TO.C,RS2*%
X62350000Y-43800000D03*
X62350000Y-42300000D03*
%TD*%
D10*
%TO.C,U6*%
X86740000Y-52000000D03*
X84200000Y-52000000D03*
X81660000Y-52000000D03*
X74040000Y-52000000D03*
X71500000Y-52000000D03*
X68960000Y-52000000D03*
%TD*%
D11*
%TO.C,R32*%
X101510000Y-38960000D03*
X100010000Y-38960000D03*
%TD*%
D35*
%TO.C,R23*%
X96500000Y-40250000D03*
X96500000Y-38750000D03*
%TD*%
D24*
%TO.C,H1*%
X27294750Y-29080400D03*
%TD*%
D38*
%TO.C,C15*%
X91910000Y-47000000D03*
X95090000Y-47000000D03*
%TD*%
D26*
%TO.C,R16*%
X49961575Y-37704758D03*
X49961575Y-39204758D03*
%TD*%
D18*
%TO.C,C16*%
X53347500Y-63052500D03*
X51947500Y-63052500D03*
%TD*%
D12*
%TO.C,R19*%
X112400000Y-45850000D03*
X114400000Y-45850000D03*
%TD*%
%TO.C,R18*%
X114400000Y-48600000D03*
X112400000Y-48600000D03*
%TD*%
D27*
%TO.C,R2*%
X54879804Y-26300000D03*
X57839804Y-26300000D03*
%TD*%
%TO.C,R9*%
X57880000Y-51850000D03*
X54920000Y-51850000D03*
%TD*%
D28*
%TO.C,D4*%
X112050000Y-37137500D03*
X113950000Y-37137500D03*
X113000000Y-35137500D03*
%TD*%
D39*
%TO.C,D2*%
X63900000Y-27000000D03*
X63900000Y-31000000D03*
%TD*%
D19*
%TO.C,Molex1*%
X27903750Y-47150000D03*
X27903750Y-53150000D03*
D20*
X28843750Y-50150000D03*
X31843750Y-50150000D03*
%TD*%
D25*
%TO.C,C13*%
X71000000Y-36000000D03*
X69000000Y-36000000D03*
%TD*%
D29*
%TO.C,F1*%
X44840000Y-33100000D03*
X39760000Y-33100000D03*
%TD*%
D17*
%TO.C,RL2*%
X62339804Y-40642500D03*
X63839804Y-40642500D03*
%TD*%
D24*
%TO.C,H3*%
X27294750Y-59420400D03*
%TD*%
D11*
%TO.C,R26*%
X108990000Y-45500000D03*
X107490000Y-45500000D03*
%TD*%
D26*
%TO.C,RS1*%
X65281054Y-57602500D03*
X65281054Y-59102500D03*
%TD*%
D11*
%TO.C,R28*%
X101510000Y-40440000D03*
X100010000Y-40440000D03*
%TD*%
D17*
%TO.C,R5*%
X113750000Y-43380000D03*
X112250000Y-43380000D03*
%TD*%
D40*
%TO.C,U7*%
X104862500Y-47700000D03*
X104862500Y-47050000D03*
X104862500Y-46400000D03*
X104862500Y-45750000D03*
X104862500Y-45100000D03*
X104862500Y-44450000D03*
X104862500Y-43800000D03*
X104862500Y-43150000D03*
X104862500Y-42500000D03*
X104862500Y-41850000D03*
X99137500Y-41850000D03*
X99137500Y-42500000D03*
X99137500Y-43150000D03*
X99137500Y-43800000D03*
X99137500Y-44450000D03*
X99137500Y-45100000D03*
X99137500Y-45750000D03*
X99137500Y-46400000D03*
X99137500Y-47050000D03*
X99137500Y-47700000D03*
%TD*%
D17*
%TO.C,R13*%
X69750000Y-58000000D03*
X71250000Y-58000000D03*
%TD*%
D18*
%TO.C,C11*%
X108870000Y-43750000D03*
X107470000Y-43750000D03*
%TD*%
D26*
%TO.C,R22*%
X67151054Y-59102500D03*
X67151054Y-57602500D03*
%TD*%
D41*
%TO.C,J1*%
X106793750Y-27260000D03*
X91793750Y-27260000D03*
D42*
X103793750Y-31200000D03*
D31*
X100793750Y-31200000D03*
X97793750Y-31200000D03*
X94793750Y-31200000D03*
X103793750Y-28200000D03*
X100793750Y-28200000D03*
X97793750Y-28200000D03*
X94793750Y-28200000D03*
%TD*%
D43*
%TO.C,F7*%
X92500000Y-38487500D03*
X92500000Y-35512500D03*
%TD*%
D14*
%TO.C,CT2*%
X58084476Y-35400000D03*
X58084476Y-34000000D03*
%TD*%
D18*
%TO.C,C17*%
X52400000Y-34700000D03*
X53800000Y-34700000D03*
%TD*%
D44*
%TO.C,X1*%
X98298750Y-50605000D03*
X101998750Y-50605000D03*
%TD*%
D45*
%TO.C,U4*%
X73300000Y-56970000D03*
X73300000Y-59510000D03*
X73300000Y-62050000D03*
X82600000Y-62050000D03*
X82600000Y-59510000D03*
X82600000Y-56970000D03*
%TD*%
%TO.C,U1*%
X73397500Y-37420000D03*
X73397500Y-39960000D03*
X73397500Y-42500000D03*
X82697500Y-42500000D03*
X82697500Y-39960000D03*
X82697500Y-37420000D03*
%TD*%
D19*
%TO.C,Molex2*%
X45250000Y-61790000D03*
X45250000Y-55790000D03*
D20*
X44310000Y-58790000D03*
X41310000Y-58790000D03*
%TD*%
D26*
%TO.C,RT1*%
X51825000Y-56550000D03*
X51825000Y-55050000D03*
%TD*%
D27*
%TO.C,R4*%
X52750000Y-30650000D03*
X49790000Y-30650000D03*
%TD*%
D32*
%TO.C,J2*%
X106473750Y-52500000D03*
D33*
X109013750Y-52500000D03*
X111553750Y-52500000D03*
X114093750Y-52500000D03*
%TD*%
D30*
%TO.C,U5*%
X63218554Y-62475000D03*
D31*
X63218554Y-59935000D03*
X63218554Y-57395000D03*
X63218554Y-54855000D03*
X55598554Y-54855000D03*
X55598554Y-57395000D03*
X55598554Y-59935000D03*
X55598554Y-62475000D03*
%TD*%
D21*
%TO.C,Q1*%
X99750000Y-37200000D03*
X101650000Y-37200000D03*
X100700000Y-35200000D03*
%TD*%
D25*
%TO.C,C1*%
X87500000Y-35950000D03*
X85500000Y-35950000D03*
%TD*%
D26*
%TO.C,R15*%
X71100000Y-41472500D03*
X71100000Y-42972500D03*
%TD*%
M02*
