#VRML V2.0 utf8

Shape {
  appearance Appearance {
    material Material {
      diffuseColor 0.1961 0.1961 0.1961
      specularColor 0.0980 0.0980 0.0980
      ambientIntensity 0.2
      transparency 0.0000
      shininess 0.5
    }
  }
  geometry IndexedFaceSet {
    ccw TRUE
    solid FALSE
    coord DEF co Coordinate {
      point [
        -0.033528 0.125324 0.123450,
        0.059850 0.125324 0.123450,
        0.059850 0.064755 0.123450,
        -0.033528 0.064755 0.123450,
        -0.033528 0.044565 0.123450,
        -0.051193 -0.053860 0.123450,
        -0.033528 0.145514 0.123450,
        -0.051193 2.500000 0.123450,
        0.077517 0.145514 0.123450,
        0.332413 -0.031147 0.123450,
        0.309699 0.048232 0.123450,
        0.297022 0.098528 0.123450,
        0.263355 0.134018 0.123450,
        0.212487 0.150252 0.123450,
        0.203781 0.150561 0.123450,
        0.155744 0.140448 0.123450,
        0.135583 0.127983 0.123450,
        0.077517 -0.051337 0.123450,
        0.117896 0.109393 0.123450,
        0.124091 0.117109 0.123450,
        0.059850 0.044565 0.123450,
        0.059850 -0.031147 0.123450,
        -0.033528 -0.031147 0.123450,
        -0.033528 -0.051337 0.123450,
        0.425790 -0.051337 0.123450,
        0.217602 -0.053860 0.123450,
        0.332413 -0.051337 0.123450,
        0.248131 -0.048379 0.123450,
        0.267289 -0.037911 0.123450,
        0.248525 0.119579 0.123450,
        0.279017 0.092087 0.123450,
        0.204885 0.130372 0.123450,
        0.291716 0.054826 0.123450,
        0.292033 0.046892 0.123450,
        0.281837 0.006325 0.123450,
        0.254696 -0.022117 0.123450,
        0.216061 -0.035548 0.123450,
        0.278499 -0.028601 0.123450,
        0.284738 -0.021959 0.123450,
        0.303702 0.010806 0.123450,
        0.155650 -0.046162 0.123450,
        0.117896 -0.015097 0.123450,
        0.133354 -0.003386 0.123450,
        0.133354 0.097563 0.123450,
        0.164763 -0.027854 0.123450,
        0.165263 0.122266 0.123450,
        0.203663 -0.036194 0.123450,
        0.183840 0.128267 0.123450,
        0.196743 0.130060 0.123450,
        0.178693 -0.053860 0.123450,
        0.193678 -0.056023 0.123450,
        -0.051193 -2.500000 0.123450,
        0.203545 -0.056384 0.123450,
        0.408124 -0.031147 0.123450,
        0.408124 0.145514 0.123450,
        0.425790 0.145514 0.123450,
        1.098267 2.500000 0.123450,
        1.098267 -0.053860 0.123450,
        1.098267 -2.500000 0.123450,
        -1.098267 -2.500000 0.123450,
        -1.098267 -0.053860 0.123450,
        0.178048 -0.053767 0.123450,
        -0.274898 -0.051337 0.123450,
        -0.255615 -0.051337 0.123450,
        -0.423167 -0.051337 0.123450,
        -0.394065 0.011757 0.123450,
        -0.304828 0.011757 0.123450,
        -0.171070 0.138416 0.123450,
        -0.206546 0.114548 0.123450,
        -0.348993 0.145514 0.123450,
        -0.190756 -0.037562 0.123450,
        -0.151125 -0.050248 0.123450,
        -0.129863 -0.051337 0.123450,
        -0.140141 0.144310 0.123450,
        -1.098267 2.500000 0.123450,
        -0.351517 0.145514 0.123450,
        -0.442370 -0.051337 0.123450,
        -0.226680 0.075574 0.123450,
        -0.230378 0.044604 0.123450,
        -0.219274 -0.004910 0.123450,
        -0.068859 -0.051337 0.123450,
        -0.068859 0.145514 0.123450,
        -0.108608 0.145514 0.123450,
      ]
    }
    coordIndex [
      0, 1, 2, -1,
      3, 4, 5, -1,
      2, 3, 0, -1,
      0, 3, 5, -1,
      0, 5, 6, -1,
      6, 5, 7, -1,
      6, 7, 8, -1,
      7, 9, 10, -1,
      10, 11, 7, -1,
      7, 11, 12, -1,
      7, 12, 13, -1,
      13, 14, 7, -1,
      7, 14, 15, -1,
      7, 15, 16, -1,
      17, 8, 18, -1,
      18, 8, 7, -1,
      18, 7, 19, -1,
      19, 7, 16, -1,
      20, 21, 4, -1,
      4, 21, 22, -1,
      4, 22, 5, -1,
      5, 22, 23, -1,
      5, 23, 17, -1,
      24, 25, 26, -1,
      26, 25, 27, -1,
      26, 27, 28, -1,
      29, 30, 31, -1,
      31, 30, 32, -1,
      31, 32, 33, -1,
      33, 34, 31, -1,
      31, 34, 35, -1,
      31, 35, 36, -1,
      28, 37, 26, -1,
      26, 37, 38, -1,
      26, 38, 9, -1,
      9, 38, 39, -1,
      9, 39, 10, -1,
      40, 17, 41, -1,
      41, 17, 18, -1,
      41, 18, 42, -1,
      42, 18, 43, -1,
      42, 43, 44, -1,
      44, 43, 45, -1,
      44, 45, 46, -1,
      46, 45, 47, -1,
      46, 47, 36, -1,
      36, 47, 48, -1,
      36, 48, 31, -1,
      49, 50, 51, -1,
      51, 50, 52, -1,
      51, 52, 25, -1,
      53, 9, 54, -1,
      54, 9, 7, -1,
      54, 7, 55, -1,
      55, 7, 56, -1,
      55, 56, 24, -1,
      24, 56, 57, -1,
      24, 57, 25, -1,
      25, 57, 58, -1,
      25, 58, 51, -1,
      59, 60, 51, -1,
      51, 60, 5, -1,
      51, 5, 49, -1,
      49, 5, 17, -1,
      49, 17, 61, -1,
      61, 17, 40, -1,
      62, 63, 5, -1,
      64, 65, 66, -1,
      67, 68, 69, -1,
      70, 71, 63, -1,
      63, 71, 72, -1,
      63, 72, 5, -1,
      73, 67, 7, -1,
      7, 67, 69, -1,
      7, 69, 74, -1,
      74, 69, 75, -1,
      74, 75, 60, -1,
      60, 75, 76, -1,
      60, 76, 5, -1,
      5, 76, 64, -1,
      5, 64, 62, -1,
      62, 64, 66, -1,
      68, 77, 69, -1,
      69, 77, 78, -1,
      69, 78, 63, -1,
      63, 78, 79, -1,
      63, 79, 70, -1,
      72, 80, 5, -1,
      5, 80, 81, -1,
      5, 81, 7, -1,
      7, 81, 82, -1,
      7, 82, 73, -1,
    ]
  }
}

Shape {
  appearance Appearance {
    material Material {
      diffuseColor 0.7529 0.7529 0.7529
      specularColor 0.3765 0.3765 0.3765
      ambientIntensity 0.2
      transparency 0.0000
      shininess 0.5
    }
  }
  geometry IndexedFaceSet {
    ccw TRUE
    solid FALSE
    coord DEF co Coordinate {
      point [
        2.429134 0.984252 -0.039370,
        2.429134 0.118110 -0.039370,
        1.170881 0.984252 -0.039370,
        1.675051 0.118110 -0.039370,
        1.675051 -0.118110 -0.039370,
        2.429134 -0.118110 -0.039370,
        2.429134 -0.984252 -0.039370,
        1.170881 -0.984252 -0.039370,
        1.052771 -0.866142 -0.039370,
        1.052771 0.866142 -0.039370,
        2.486386 0.984252 -0.027982,
        2.486386 0.118110 -0.027982,
        2.534922 0.984252 0.004448,
        2.534922 0.118110 0.004448,
        2.567352 0.984252 0.052984,
        2.567352 0.118110 0.052984,
        2.578740 0.984252 0.110236,
        2.578740 0.118110 0.110236,
        2.578740 0.984252 0.427107,
        2.578740 0.118110 0.427107,
        2.567352 0.984252 0.484359,
        2.567352 0.118110 0.484359,
        2.534922 0.984252 0.532895,
        2.534922 0.118110 0.532895,
        2.486386 0.984252 0.565326,
        2.486386 0.118110 0.565326,
        2.429134 0.984252 0.576714,
        2.429134 0.118110 0.576714,
        2.381890 0.984252 0.576714,
        2.381890 0.118110 0.576714,
        2.381890 0.984252 0.497974,
        2.421260 0.984252 0.497974,
        2.381890 0.118110 0.497974,
        2.421260 0.118110 0.497974,
        2.452965 0.118110 0.491308,
        2.452965 0.984252 0.491308,
        2.479303 0.118110 0.472441,
        2.479303 0.984252 0.472441,
        2.500000 0.118110 0.118110,
        2.500000 0.984252 0.118110,
        2.494006 0.118110 0.087978,
        2.494006 0.984252 0.087978,
        2.476937 0.118110 0.062433,
        2.476937 0.984252 0.062433,
        2.451393 0.118110 0.045364,
        2.451393 0.984252 0.045364,
        2.421260 0.118110 0.039370,
        2.421260 0.984252 0.039370,
        2.421260 -0.984252 0.039370,
        2.421260 -0.118110 0.039370,
        1.170881 -0.984252 0.039370,
        1.675051 -0.118110 0.039370,
        1.675051 0.118110 0.039370,
        1.170881 0.984252 0.039370,
        1.052771 0.866142 0.039370,
        1.052771 -0.866142 0.039370,
        -2.479303 -0.984252 0.472441,
        -2.479303 -0.118110 0.472441,
        -2.452965 -0.984252 0.491308,
        -2.452965 -0.118110 0.491308,
        -2.421260 -0.984252 0.497974,
        -2.421260 -0.118110 0.497974,
        -2.578740 -0.984252 0.110236,
        -2.578740 -0.118110 0.110236,
        -2.567352 -0.118110 0.052984,
        -2.567352 -0.984252 0.052984,
        -2.534922 -0.118110 0.004448,
        -2.534922 -0.984252 0.004448,
        -2.486386 -0.118110 -0.027982,
        -2.486386 -0.984252 -0.027982,
        -2.429134 -0.118110 -0.039370,
        -2.429134 -0.984252 -0.039370,
        -2.421260 -0.984252 0.039370,
        -2.421260 -0.118110 0.039370,
        -2.451393 -0.984252 0.045364,
        -2.451393 -0.118110 0.045364,
        -2.476937 -0.984252 0.062433,
        -2.476937 -0.118110 0.062433,
        -2.494006 -0.984252 0.087978,
        -2.494006 -0.118110 0.087978,
        -2.500000 -0.984252 0.118110,
        -2.500000 -0.118110 0.118110,
        -2.381890 -0.984252 0.497974,
        -2.381890 -0.118110 0.497974,
        -2.429134 -0.984252 0.576714,
        -2.381890 -0.984252 0.576714,
        -2.429134 -0.118110 0.576714,
        -2.381890 -0.118110 0.576714,
        -2.486386 -0.118110 0.565326,
        -2.486386 -0.984252 0.565326,
        -2.534922 -0.118110 0.532895,
        -2.534922 -0.984252 0.532895,
        -2.567352 -0.118110 0.484359,
        -2.567352 -0.984252 0.484359,
        -2.578740 -0.118110 0.427107,
        -2.578740 -0.984252 0.427107,
      ]
    }
    coordIndex [
      0, 1, 2, -1,
      2, 1, 3, -1,
      4, 5, 6, -1,
      6, 7, 4, -1,
      4, 7, 8, -1,
      4, 8, 3, -1,
      3, 8, 9, -1,
      3, 9, 2, -1,
      1, 0, 10, -1,
      1, 10, 11, -1,
      11, 10, 12, -1,
      11, 12, 13, -1,
      13, 12, 14, -1,
      13, 14, 15, -1,
      15, 14, 16, -1,
      15, 16, 17, -1,
      16, 18, 17, -1,
      17, 18, 19, -1,
      19, 18, 20, -1,
      19, 20, 21, -1,
      21, 20, 22, -1,
      21, 22, 23, -1,
      23, 22, 24, -1,
      23, 24, 25, -1,
      25, 24, 26, -1,
      25, 26, 27, -1,
      26, 28, 27, -1,
      27, 28, 29, -1,
      30, 31, 32, -1,
      32, 31, 33, -1,
      33, 31, 34, -1,
      34, 31, 35, -1,
      34, 35, 36, -1,
      36, 35, 37, -1,
      38, 39, 40, -1,
      40, 39, 41, -1,
      40, 41, 42, -1,
      42, 41, 43, -1,
      42, 43, 44, -1,
      44, 43, 45, -1,
      44, 45, 46, -1,
      46, 45, 47, -1,
      48, 49, 50, -1,
      50, 49, 51, -1,
      52, 46, 47, -1,
      47, 53, 52, -1,
      52, 53, 54, -1,
      52, 54, 51, -1,
      51, 54, 55, -1,
      51, 55, 50, -1,
      56, 57, 58, -1,
      58, 57, 59, -1,
      58, 59, 60, -1,
      60, 59, 61, -1,
      62, 63, 64, -1,
      62, 64, 65, -1,
      65, 64, 66, -1,
      65, 66, 67, -1,
      67, 66, 68, -1,
      67, 68, 69, -1,
      69, 68, 70, -1,
      69, 70, 71, -1,
      72, 73, 74, -1,
      74, 73, 75, -1,
      74, 75, 76, -1,
      76, 75, 77, -1,
      76, 77, 78, -1,
      78, 77, 79, -1,
      78, 79, 80, -1,
      80, 79, 81, -1,
      82, 60, 83, -1,
      83, 60, 61, -1,
      84, 85, 86, -1,
      86, 85, 87, -1,
      84, 86, 88, -1,
      84, 88, 89, -1,
      89, 88, 90, -1,
      89, 90, 91, -1,
      91, 90, 92, -1,
      91, 92, 93, -1,
      93, 92, 94, -1,
      93, 94, 95, -1,
      62, 95, 63, -1,
      63, 95, 94, -1,
    ]
  }
}

Shape {
  appearance Appearance {
    material Material {
      diffuseColor 0.1961 0.1961 0.1961
      specularColor 0.0980 0.0980 0.0980
      ambientIntensity 0.2
      transparency 0.0000
      shininess 0.5
    }
  }
  geometry IndexedFaceSet {
    ccw TRUE
    solid FALSE
    coord DEF co Coordinate {
      point [
        -0.051193 2.500000 0.123450,
        -0.051193 -2.500000 0.123450,
        1.098267 2.500000 0.123450,
        1.098267 -0.053860 0.123450,
        1.098267 -2.500000 0.123450,
        -1.098267 -2.500000 0.123450,
        -1.098267 -0.053860 0.123450,
        -1.098267 2.500000 0.123450,
        2.381890 0.984252 0.576714,
        2.381890 0.118110 0.576714,
        2.381890 0.984252 0.497974,
        2.381890 0.118110 0.497974,
        2.479303 0.118110 0.472441,
        2.479303 0.984252 0.472441,
        2.500000 0.118110 0.118110,
        2.500000 0.984252 0.118110,
        -2.479303 -0.984252 0.472441,
        -2.479303 -0.118110 0.472441,
        -2.500000 -0.984252 0.118110,
        -2.500000 -0.118110 0.118110,
        -2.381890 -0.984252 0.497974,
        -2.381890 -0.118110 0.497974,
        -2.381890 -0.984252 0.576714,
        -2.381890 -0.118110 0.576714,
        -2.500000 -1.181102 0.118110,
        -2.500000 -1.181102 0.000000,
        -2.500000 -2.106299 0.000000,
        -2.500000 0.984252 0.118110,
        -2.500000 0.984252 0.472441,
        -2.500000 1.181102 0.118110,
        -2.500000 1.421290 0.472441,
        -2.500000 1.421290 0.629921,
        -2.500000 2.106299 0.000000,
        -2.500000 1.181102 0.000000,
        -2.500000 -1.421290 0.472441,
        -2.500000 -0.984252 0.472441,
        -2.500000 -1.421290 0.629921,
        -2.500000 -2.106299 3.307087,
        -2.500000 2.106299 3.307087,
        -2.381890 1.421290 0.472441,
        -2.479303 0.984252 0.472441,
        -2.479303 0.118110 0.472441,
        -2.381890 -1.421290 0.472441,
        -2.500000 -0.118110 0.472441,
        -2.500000 0.118110 0.472441,
        -2.381890 0.984252 0.576714,
        -2.381890 1.421290 0.629921,
        -2.381890 0.984252 0.497974,
        -2.381890 0.118110 0.497974,
        -2.381890 0.118110 0.576714,
        -2.381890 -1.421290 0.629921,
        2.500000 1.181102 0.118110,
        2.500000 1.181102 0.000000,
        2.500000 2.106299 0.000000,
        2.500000 -0.984252 0.118110,
        2.500000 -0.984252 0.472441,
        2.500000 -1.181102 0.118110,
        2.500000 -1.421290 0.472441,
        2.500000 -1.421290 0.629921,
        2.500000 -2.106299 0.000000,
        2.500000 -1.181102 0.000000,
        2.500000 1.421290 0.472441,
        2.500000 0.984252 0.472441,
        2.500000 1.421290 0.629921,
        2.500000 2.106299 3.307087,
        2.500000 -2.106299 3.307087,
        -2.106299 2.500000 0.000000,
        -1.261477 2.500000 0.000000,
        -1.261477 1.181102 0.000000,
        -2.447254 2.303150 0.000000,
        -2.303150 2.447254 0.000000,
        2.106299 2.500000 0.000000,
        2.303150 2.447254 0.000000,
        2.447254 2.303150 0.000000,
        1.261477 1.181102 0.000000,
        1.261477 2.500000 0.000000,
        -2.106299 -2.500000 0.000000,
        -2.303150 -2.447254 0.000000,
        -2.447254 -2.303150 0.000000,
        -1.261477 -1.181102 0.000000,
        -1.261477 -2.500000 0.000000,
        -1.150592 -1.552285 3.188976,
        -1.150592 -1.552285 3.307087,
        -0.797116 -1.760130 3.188976,
        -0.797116 -1.760130 3.307087,
        -0.407740 -1.888704 3.188976,
        -0.407740 -1.888704 3.307087,
        0.000000 -1.932214 3.188976,
        0.000000 -1.932214 3.307087,
        0.407740 -1.888704 3.188976,
        0.407740 -1.888704 3.307087,
        0.797116 -1.760130 3.188976,
        0.797116 -1.760130 3.307087,
        1.150592 -1.552285 3.188976,
        1.150592 -1.552285 3.307087,
        1.552285 -1.150592 3.188976,
        1.552285 -1.150592 3.307087,
        1.760130 -0.797116 3.188976,
        1.760130 -0.797116 3.307087,
        1.888704 -0.407740 3.188976,
        1.888704 -0.407740 3.307087,
        1.932214 0.000000 3.188976,
        1.932214 0.000000 3.307087,
        1.888704 0.407740 3.188976,
        1.888704 0.407740 3.307087,
        1.760130 0.797116 3.188976,
        1.760130 0.797116 3.307087,
        1.552285 1.150592 3.188976,
        1.552285 1.150592 3.307087,
        1.150592 1.552285 3.188976,
        1.150592 1.552285 3.307087,
        0.797116 1.760130 3.188976,
        0.797116 1.760130 3.307087,
        0.407740 1.888704 3.188976,
        0.407740 1.888704 3.307087,
        -0.000000 1.932214 3.188976,
        -0.000000 1.932214 3.307087,
        -0.407740 1.888704 3.188976,
        -0.407740 1.888704 3.307087,
        -0.797116 1.760130 3.188976,
        -0.797116 1.760130 3.307087,
        -1.150592 1.552285 3.188976,
        -1.150592 1.552285 3.307087,
        -2.106299 2.500000 3.307087,
        2.106299 2.500000 3.307087,
        -2.106299 -2.500000 3.307087,
        1.261477 -2.500000 0.000000,
        2.106299 -2.500000 0.000000,
        2.106299 -2.500000 3.307087,
        -1.258185 -1.629786 3.307087,
        1.258185 1.629786 3.307087,
        1.389209 1.650172 3.307087,
        1.515263 1.609025 3.307087,
        -1.389209 -1.650172 3.307087,
        -1.515263 -1.609025 3.307087,
        -1.650172 -1.389209 3.307087,
        -1.629786 -1.258185 3.307087,
        -1.515263 1.609025 3.307087,
        -1.389209 1.650172 3.307087,
        -1.258185 1.629786 3.307087,
        2.303150 2.447254 3.307087,
        1.609025 1.515263 3.307087,
        2.447254 2.303150 3.307087,
        2.303150 -2.447254 3.307087,
        2.447254 -2.303150 3.307087,
        -1.552285 -1.150592 3.307087,
        -1.760130 -0.797116 3.307087,
        -1.888704 -0.407740 3.307087,
        -1.932214 0.000000 3.307087,
        -1.888704 0.407740 3.307087,
        -2.303150 2.447254 3.307087,
        -2.447254 2.303150 3.307087,
        -1.609025 1.515263 3.307087,
        -1.650172 1.389209 3.307087,
        -1.629786 1.258185 3.307087,
        -1.760130 0.797116 3.307087,
        -1.552285 1.150592 3.307087,
        1.650172 1.389209 3.307087,
        1.629786 1.258185 3.307087,
        -2.303150 -2.447254 3.307087,
        -2.447254 -2.303150 3.307087,
        -1.609025 -1.515263 3.307087,
        1.609025 -1.515263 3.307087,
        1.650172 -1.389209 3.307087,
        1.629786 -1.258185 3.307087,
        1.515263 -1.609025 3.307087,
        1.389209 -1.650172 3.307087,
        1.258185 -1.629786 3.307087,
        2.447254 -2.303150 0.000000,
        2.303150 -2.447254 0.000000,
        1.261477 -1.181102 0.000000,
        -1.552285 1.150592 3.188976,
        -1.760130 0.797116 3.188976,
        -1.888704 0.407740 3.188976,
        -1.932214 0.000000 3.188976,
        -1.888704 -0.407740 3.188976,
        -1.760130 -0.797116 3.188976,
        -1.552285 -1.150592 3.188976,
        -1.650172 1.389209 3.188976,
        -1.629786 1.258185 3.188976,
        1.389209 1.650172 3.188976,
        1.258185 1.629786 3.188976,
        1.650172 -1.389209 3.188976,
        1.629786 -1.258185 3.188976,
        -1.515263 -1.609025 3.188976,
        -1.389209 -1.650172 3.188976,
        -1.258185 -1.629786 3.188976,
        1.609025 1.515263 3.188976,
        1.515263 1.609025 3.188976,
        -1.258185 1.629786 3.188976,
        -1.389209 1.650172 3.188976,
        -1.173694 1.173694 3.188976,
        -1.515263 1.609025 3.188976,
        -1.609025 1.515263 3.188976,
        1.629786 1.258185 3.188976,
        1.173694 1.173694 3.188976,
        1.650172 1.389209 3.188976,
        -1.437476 0.829927 3.188976,
        -1.603296 0.429602 3.188976,
        -1.659854 0.000000 3.188976,
        -1.603296 -0.429602 3.188976,
        -1.437476 -0.829927 3.188976,
        -1.173694 -1.173694 3.188976,
        0.829927 1.437476 3.188976,
        0.429602 1.603296 3.188976,
        0.000000 1.659854 3.188976,
        -0.429602 1.603296 3.188976,
        -0.829927 1.437476 3.188976,
        1.258185 -1.629786 3.188976,
        1.389209 -1.650172 3.188976,
        1.173694 -1.173694 3.188976,
        1.515263 -1.609025 3.188976,
        1.437476 0.829927 3.188976,
        1.603296 0.429602 3.188976,
        1.659854 0.000000 3.188976,
        1.603296 -0.429602 3.188976,
        1.437476 -0.829927 3.188976,
        1.609025 -1.515263 3.188976,
        -1.650172 -1.389209 3.188976,
        -1.609025 -1.515263 3.188976,
        -1.629786 -1.258185 3.188976,
        -0.829927 -1.437476 3.188976,
        -0.429602 -1.603296 3.188976,
        -0.000000 -1.659854 3.188976,
        0.429602 -1.603296 3.188976,
        0.829927 -1.437476 3.188976,
        1.659854 0.000000 3.307087,
        1.603296 0.429602 3.307087,
        1.437476 0.829927 3.307087,
        1.173694 1.173694 3.307087,
        0.829927 1.437476 3.307087,
        0.429602 1.603296 3.307087,
        0.000000 1.659854 3.307087,
        -0.429602 1.603296 3.307087,
        -0.829927 1.437476 3.307087,
        -1.173694 1.173694 3.307087,
        -1.437476 0.829927 3.307087,
        -1.603296 0.429602 3.307087,
        -1.659854 0.000000 3.307087,
        -1.603296 -0.429602 3.307087,
        -1.437476 -0.829927 3.307087,
        -1.173694 -1.173694 3.307087,
        -0.829927 -1.437476 3.307087,
        -0.429602 -1.603296 3.307087,
        -0.000000 -1.659854 3.307087,
        0.429602 -1.603296 3.307087,
        0.829927 -1.437476 3.307087,
        1.173694 -1.173694 3.307087,
        1.437476 -0.829927 3.307087,
        1.603296 -0.429602 3.307087,
        0.000000 0.000000 3.307087,
        -1.105327 1.181102 0.118110,
        -1.105327 -1.181102 0.118110,
        1.105327 -1.181102 0.118110,
        1.105327 1.181102 0.118110,
        2.500000 -0.118110 0.118110,
        -2.500000 0.118110 0.118110,
        2.381890 -1.421290 0.472441,
        2.479303 -0.984252 0.472441,
        2.479303 -0.118110 0.472441,
        2.381890 1.421290 0.472441,
        2.500000 0.118110 0.472441,
        2.500000 -0.118110 0.472441,
        2.381890 -1.421290 0.629921,
        2.381890 1.421290 0.629921,
        2.381890 -0.118110 0.576714,
        2.381890 -0.118110 0.497974,
        2.381890 -0.984252 0.497974,
        2.381890 -0.984252 0.576714,
      ]
    }
    coordIndex [
      24, 25, 26, -1,
      27, 28, 29, -1,
      29, 28, 30, -1,
      31, 32, 30, -1,
      30, 32, 33, -1,
      30, 33, 29, -1,
      34, 35, 18, -1,
      18, 24, 34, -1,
      34, 24, 26, -1,
      34, 26, 36, -1,
      36, 26, 37, -1,
      36, 37, 31, -1,
      31, 37, 38, -1,
      31, 38, 32, -1,
      39, 30, 28, -1,
      28, 40, 39, -1,
      39, 40, 41, -1,
      39, 41, 42, -1,
      35, 34, 16, -1,
      16, 34, 42, -1,
      16, 42, 17, -1,
      17, 42, 41, -1,
      17, 41, 43, -1,
      43, 41, 44, -1,
      45, 46, 47, -1,
      47, 46, 39, -1,
      47, 39, 48, -1,
      39, 42, 48, -1,
      48, 42, 21, -1,
      48, 21, 49, -1,
      49, 21, 23, -1,
      45, 49, 46, -1,
      46, 49, 23, -1,
      46, 23, 50, -1,
      50, 23, 22, -1,
      50, 22, 42, -1,
      42, 22, 20, -1,
      42, 20, 21, -1,
      51, 52, 53, -1,
      54, 55, 56, -1,
      56, 55, 57, -1,
      58, 59, 57, -1,
      57, 59, 60, -1,
      57, 60, 56, -1,
      61, 62, 15, -1,
      15, 51, 61, -1,
      61, 51, 53, -1,
      61, 53, 63, -1,
      63, 53, 64, -1,
      63, 64, 58, -1,
      58, 64, 65, -1,
      58, 65, 59, -1,
      66, 67, 68, -1,
      69, 70, 32, -1,
      32, 70, 66, -1,
      32, 66, 33, -1,
      33, 66, 68, -1,
      71, 72, 73, -1,
      74, 75, 52, -1,
      52, 75, 71, -1,
      52, 71, 53, -1,
      53, 71, 73, -1,
      76, 77, 78, -1,
      79, 80, 25, -1,
      25, 80, 76, -1,
      25, 76, 26, -1,
      26, 76, 78, -1,
      81, 82, 83, -1,
      83, 82, 84, -1,
      83, 84, 85, -1,
      85, 84, 86, -1,
      85, 86, 87, -1,
      87, 86, 88, -1,
      87, 88, 89, -1,
      89, 88, 90, -1,
      89, 90, 91, -1,
      91, 90, 92, -1,
      91, 92, 93, -1,
      93, 92, 94, -1,
      95, 96, 97, -1,
      97, 96, 98, -1,
      97, 98, 99, -1,
      99, 98, 100, -1,
      99, 100, 101, -1,
      101, 100, 102, -1,
      101, 102, 103, -1,
      103, 102, 104, -1,
      103, 104, 105, -1,
      105, 104, 106, -1,
      105, 106, 107, -1,
      107, 106, 108, -1,
      109, 110, 111, -1,
      111, 110, 112, -1,
      111, 112, 113, -1,
      113, 112, 114, -1,
      113, 114, 115, -1,
      115, 114, 116, -1,
      115, 116, 117, -1,
      117, 116, 118, -1,
      117, 118, 119, -1,
      119, 118, 120, -1,
      119, 120, 121, -1,
      121, 120, 122, -1,
      67, 66, 7, -1,
      7, 66, 123, -1,
      71, 75, 124, -1,
      124, 75, 2, -1,
      124, 2, 123, -1,
      123, 2, 0, -1,
      123, 0, 7, -1,
      125, 76, 80, -1,
      126, 127, 4, -1,
      4, 127, 128, -1,
      4, 128, 1, -1,
      1, 128, 125, -1,
      1, 125, 5, -1,
      5, 125, 80, -1,
      82, 129, 84, -1,
      84, 129, 86, -1,
      110, 130, 112, -1,
      112, 130, 114, -1,
      131, 132, 124, -1,
      125, 133, 134, -1,
      37, 135, 136, -1,
      137, 138, 123, -1,
      123, 138, 139, -1,
      124, 132, 140, -1,
      140, 132, 141, -1,
      140, 141, 142, -1,
      143, 144, 65, -1,
      145, 146, 136, -1,
      136, 146, 147, -1,
      136, 147, 37, -1,
      37, 147, 148, -1,
      37, 148, 38, -1,
      38, 148, 149, -1,
      123, 150, 137, -1,
      137, 150, 151, -1,
      137, 151, 152, -1,
      152, 151, 38, -1,
      152, 38, 153, -1,
      153, 38, 149, -1,
      153, 149, 154, -1,
      154, 149, 155, -1,
      154, 155, 156, -1,
      130, 131, 114, -1,
      114, 131, 124, -1,
      114, 124, 116, -1,
      116, 124, 123, -1,
      116, 123, 118, -1,
      118, 123, 139, -1,
      118, 139, 120, -1,
      120, 139, 122, -1,
      142, 141, 64, -1,
      64, 141, 157, -1,
      64, 157, 158, -1,
      159, 125, 160, -1,
      160, 125, 134, -1,
      160, 134, 37, -1,
      37, 134, 161, -1,
      37, 161, 135, -1,
      100, 65, 102, -1,
      102, 65, 64, -1,
      102, 64, 104, -1,
      104, 64, 158, -1,
      104, 158, 106, -1,
      106, 158, 108, -1,
      128, 143, 162, -1,
      162, 143, 65, -1,
      162, 65, 163, -1,
      163, 65, 100, -1,
      163, 100, 164, -1,
      164, 100, 98, -1,
      164, 98, 96, -1,
      162, 165, 128, -1,
      128, 165, 166, -1,
      128, 166, 167, -1,
      129, 133, 86, -1,
      86, 133, 125, -1,
      86, 125, 88, -1,
      88, 125, 128, -1,
      88, 128, 90, -1,
      90, 128, 167, -1,
      90, 167, 92, -1,
      92, 167, 94, -1,
      59, 168, 169, -1,
      170, 60, 126, -1,
      126, 60, 59, -1,
      126, 59, 127, -1,
      127, 59, 169, -1,
      171, 156, 172, -1,
      172, 156, 155, -1,
      172, 155, 173, -1,
      173, 155, 149, -1,
      173, 149, 174, -1,
      174, 149, 148, -1,
      174, 148, 175, -1,
      175, 148, 147, -1,
      175, 147, 176, -1,
      176, 147, 146, -1,
      176, 146, 177, -1,
      177, 146, 145, -1,
      178, 179, 171, -1,
      180, 181, 109, -1,
      182, 183, 95, -1,
      184, 185, 186, -1,
      187, 188, 180, -1,
      189, 190, 191, -1,
      191, 190, 192, -1,
      191, 192, 193, -1,
      107, 194, 195, -1,
      195, 194, 196, -1,
      195, 196, 187, -1,
      193, 178, 191, -1,
      191, 178, 171, -1,
      191, 171, 197, -1,
      197, 171, 172, -1,
      197, 172, 198, -1,
      198, 172, 173, -1,
      198, 173, 199, -1,
      199, 173, 174, -1,
      199, 174, 200, -1,
      200, 174, 175, -1,
      200, 175, 201, -1,
      201, 175, 176, -1,
      201, 176, 202, -1,
      202, 176, 177, -1,
      187, 180, 195, -1,
      195, 180, 109, -1,
      195, 109, 203, -1,
      203, 109, 111, -1,
      203, 111, 204, -1,
      204, 111, 113, -1,
      204, 113, 205, -1,
      205, 113, 115, -1,
      205, 115, 206, -1,
      206, 115, 117, -1,
      206, 117, 207, -1,
      207, 117, 119, -1,
      207, 119, 191, -1,
      191, 119, 121, -1,
      191, 121, 189, -1,
      208, 209, 210, -1,
      210, 209, 211, -1,
      107, 195, 105, -1,
      105, 195, 212, -1,
      105, 212, 103, -1,
      103, 212, 213, -1,
      103, 213, 101, -1,
      101, 213, 214, -1,
      101, 214, 99, -1,
      99, 214, 215, -1,
      99, 215, 97, -1,
      97, 215, 216, -1,
      97, 216, 95, -1,
      95, 216, 210, -1,
      95, 210, 182, -1,
      182, 210, 211, -1,
      182, 211, 217, -1,
      218, 219, 220, -1,
      220, 219, 184, -1,
      220, 184, 177, -1,
      177, 184, 186, -1,
      177, 186, 202, -1,
      202, 186, 81, -1,
      202, 81, 221, -1,
      221, 81, 83, -1,
      221, 83, 222, -1,
      222, 83, 85, -1,
      222, 85, 223, -1,
      223, 85, 87, -1,
      223, 87, 224, -1,
      224, 87, 89, -1,
      224, 89, 225, -1,
      225, 89, 91, -1,
      225, 91, 210, -1,
      210, 91, 93, -1,
      210, 93, 208, -1,
      226, 213, 227, -1,
      227, 213, 212, -1,
      227, 212, 228, -1,
      228, 212, 195, -1,
      228, 195, 229, -1,
      229, 195, 203, -1,
      229, 203, 230, -1,
      230, 203, 204, -1,
      230, 204, 231, -1,
      231, 204, 205, -1,
      231, 205, 232, -1,
      232, 205, 206, -1,
      232, 206, 233, -1,
      233, 206, 207, -1,
      233, 207, 234, -1,
      234, 207, 191, -1,
      234, 191, 235, -1,
      235, 191, 197, -1,
      235, 197, 236, -1,
      236, 197, 198, -1,
      236, 198, 237, -1,
      237, 198, 199, -1,
      237, 199, 238, -1,
      238, 199, 200, -1,
      238, 200, 239, -1,
      239, 200, 201, -1,
      239, 201, 240, -1,
      240, 201, 202, -1,
      240, 202, 241, -1,
      241, 202, 221, -1,
      241, 221, 242, -1,
      242, 221, 222, -1,
      242, 222, 243, -1,
      243, 222, 223, -1,
      243, 223, 244, -1,
      244, 223, 224, -1,
      244, 224, 245, -1,
      245, 224, 225, -1,
      245, 225, 246, -1,
      246, 225, 210, -1,
      246, 210, 247, -1,
      247, 210, 216, -1,
      247, 216, 248, -1,
      248, 216, 215, -1,
      248, 215, 249, -1,
      249, 215, 214, -1,
      249, 214, 226, -1,
      226, 214, 213, -1,
      248, 249, 250, -1,
      250, 249, 226, -1,
      250, 226, 227, -1,
      245, 246, 250, -1,
      250, 246, 247, -1,
      250, 247, 248, -1,
      242, 243, 250, -1,
      250, 243, 244, -1,
      250, 244, 245, -1,
      239, 240, 250, -1,
      250, 240, 241, -1,
      250, 241, 242, -1,
      236, 237, 250, -1,
      250, 237, 238, -1,
      250, 238, 239, -1,
      233, 234, 250, -1,
      250, 234, 235, -1,
      250, 235, 236, -1,
      230, 231, 250, -1,
      250, 231, 232, -1,
      250, 232, 233, -1,
      227, 228, 250, -1,
      250, 228, 229, -1,
      250, 229, 230, -1,
      121, 122, 189, -1,
      189, 122, 139, -1,
      189, 139, 190, -1,
      190, 139, 138, -1,
      190, 138, 192, -1,
      192, 138, 137, -1,
      192, 137, 193, -1,
      193, 137, 152, -1,
      193, 152, 178, -1,
      178, 152, 153, -1,
      178, 153, 179, -1,
      179, 153, 154, -1,
      179, 154, 171, -1,
      171, 154, 156, -1,
      107, 108, 194, -1,
      194, 108, 158, -1,
      194, 158, 196, -1,
      196, 158, 157, -1,
      196, 157, 187, -1,
      187, 157, 141, -1,
      187, 141, 188, -1,
      188, 141, 132, -1,
      188, 132, 180, -1,
      180, 132, 131, -1,
      180, 131, 181, -1,
      181, 131, 130, -1,
      181, 130, 109, -1,
      109, 130, 110, -1,
      93, 94, 208, -1,
      208, 94, 167, -1,
      208, 167, 209, -1,
      209, 167, 166, -1,
      209, 166, 211, -1,
      211, 166, 165, -1,
      211, 165, 217, -1,
      217, 165, 162, -1,
      217, 162, 182, -1,
      182, 162, 163, -1,
      182, 163, 183, -1,
      183, 163, 164, -1,
      183, 164, 95, -1,
      95, 164, 96, -1,
      177, 145, 220, -1,
      220, 145, 136, -1,
      220, 136, 218, -1,
      218, 136, 135, -1,
      218, 135, 219, -1,
      219, 135, 161, -1,
      219, 161, 184, -1,
      184, 161, 134, -1,
      184, 134, 185, -1,
      185, 134, 133, -1,
      185, 133, 186, -1,
      186, 133, 129, -1,
      186, 129, 81, -1,
      81, 129, 82, -1,
      251, 68, 67, -1,
      80, 79, 5, -1,
      5, 79, 252, -1,
      5, 252, 6, -1,
      6, 252, 251, -1,
      6, 251, 7, -1,
      7, 251, 67, -1,
      253, 170, 126, -1,
      126, 4, 253, -1,
      253, 4, 3, -1,
      253, 3, 254, -1,
      254, 3, 2, -1,
      254, 2, 74, -1,
      74, 2, 75, -1,
      54, 56, 253, -1,
      51, 15, 254, -1,
      254, 15, 14, -1,
      254, 14, 253, -1,
      253, 14, 255, -1,
      253, 255, 54, -1,
      60, 170, 56, -1,
      56, 170, 253, -1,
      51, 254, 52, -1,
      52, 254, 74, -1,
      33, 68, 29, -1,
      29, 68, 251, -1,
      24, 252, 25, -1,
      25, 252, 79, -1,
      27, 29, 251, -1,
      24, 18, 252, -1,
      252, 18, 19, -1,
      252, 19, 251, -1,
      251, 19, 256, -1,
      251, 256, 27, -1,
      39, 46, 30, -1,
      30, 46, 31, -1,
      46, 50, 31, -1,
      31, 50, 36, -1,
      50, 42, 36, -1,
      36, 42, 34, -1,
      257, 57, 55, -1,
      55, 258, 257, -1,
      257, 258, 259, -1,
      257, 259, 260, -1,
      62, 61, 13, -1,
      13, 61, 260, -1,
      13, 260, 12, -1,
      12, 260, 259, -1,
      12, 259, 261, -1,
      261, 259, 262, -1,
      257, 263, 57, -1,
      57, 263, 58, -1,
      263, 264, 58, -1,
      58, 264, 63, -1,
      264, 260, 63, -1,
      63, 260, 61, -1,
      265, 264, 263, -1,
      266, 267, 257, -1,
      257, 267, 263, -1,
      263, 267, 268, -1,
      263, 268, 265, -1,
      257, 260, 266, -1,
      266, 260, 11, -1,
      266, 11, 265, -1,
      265, 11, 9, -1,
      265, 9, 264, -1,
      264, 9, 8, -1,
      264, 8, 260, -1,
      260, 8, 10, -1,
      260, 10, 11, -1,
    ]
  }
}

Shape {
  appearance Appearance {
    material Material {
      diffuseColor 0.7529 0.7529 0.7529
      specularColor 0.3765 0.3765 0.3765
      ambientIntensity 0.2
      transparency 0.0000
      shininess 0.5
    }
  }
  geometry IndexedFaceSet {
    ccw TRUE
    solid FALSE
    coord DEF co Coordinate {
      point [
        2.429134 0.984252 -0.039370,
        2.429134 0.118110 -0.039370,
        1.170881 0.984252 -0.039370,
        1.675051 0.118110 -0.039370,
        1.675051 -0.118110 -0.039370,
        2.429134 -0.118110 -0.039370,
        2.429134 -0.984252 -0.039370,
        1.170881 -0.984252 -0.039370,
        1.052771 -0.866142 -0.039370,
        1.052771 0.866142 -0.039370,
        2.486386 0.984252 -0.027982,
        2.486386 0.118110 -0.027982,
        2.534922 0.984252 0.004448,
        2.534922 0.118110 0.004448,
        2.567352 0.984252 0.052984,
        2.567352 0.118110 0.052984,
        2.578740 0.984252 0.110236,
        2.578740 0.118110 0.110236,
        2.578740 0.984252 0.427107,
        2.578740 0.118110 0.427107,
        2.567352 0.984252 0.484359,
        2.567352 0.118110 0.484359,
        2.534922 0.984252 0.532895,
        2.534922 0.118110 0.532895,
        2.486386 0.984252 0.565326,
        2.486386 0.118110 0.565326,
        2.429134 0.984252 0.576714,
        2.429134 0.118110 0.576714,
        2.381890 0.984252 0.576714,
        2.381890 0.118110 0.576714,
        2.381890 0.984252 0.497974,
        2.421260 0.984252 0.497974,
        2.381890 0.118110 0.497974,
        2.421260 0.118110 0.497974,
        2.452965 0.118110 0.491308,
        2.452965 0.984252 0.491308,
        2.479303 0.118110 0.472441,
        2.479303 0.984252 0.472441,
        2.500000 0.118110 0.118110,
        2.500000 0.984252 0.118110,
        2.494006 0.118110 0.087978,
        2.494006 0.984252 0.087978,
        2.476937 0.118110 0.062433,
        2.476937 0.984252 0.062433,
        2.451393 0.118110 0.045364,
        2.451393 0.984252 0.045364,
        2.421260 0.118110 0.039370,
        2.421260 0.984252 0.039370,
        2.421260 -0.984252 0.039370,
        2.421260 -0.118110 0.039370,
        1.170881 -0.984252 0.039370,
        1.675051 -0.118110 0.039370,
        1.675051 0.118110 0.039370,
        1.170881 0.984252 0.039370,
        1.052771 0.866142 0.039370,
        1.052771 -0.866142 0.039370,
        -2.479303 -0.984252 0.472441,
        -2.479303 -0.118110 0.472441,
        -2.452965 -0.984252 0.491308,
        -2.452965 -0.118110 0.491308,
        -2.421260 -0.984252 0.497974,
        -2.421260 -0.118110 0.497974,
        -2.578740 -0.984252 0.110236,
        -2.578740 -0.118110 0.110236,
        -2.567352 -0.118110 0.052984,
        -2.567352 -0.984252 0.052984,
        -2.534922 -0.118110 0.004448,
        -2.534922 -0.984252 0.004448,
        -2.486386 -0.118110 -0.027982,
        -2.486386 -0.984252 -0.027982,
        -2.429134 -0.118110 -0.039370,
        -2.429134 -0.984252 -0.039370,
        -2.421260 -0.984252 0.039370,
        -2.421260 -0.118110 0.039370,
        -2.451393 -0.984252 0.045364,
        -2.451393 -0.118110 0.045364,
        -2.476937 -0.984252 0.062433,
        -2.476937 -0.118110 0.062433,
        -2.494006 -0.984252 0.087978,
        -2.494006 -0.118110 0.087978,
        -2.500000 -0.984252 0.118110,
        -2.500000 -0.118110 0.118110,
        -2.381890 -0.984252 0.497974,
        -2.381890 -0.118110 0.497974,
        -2.429134 -0.984252 0.576714,
        -2.381890 -0.984252 0.576714,
        -2.429134 -0.118110 0.576714,
        -2.381890 -0.118110 0.576714,
        -2.486386 -0.118110 0.565326,
        -2.486386 -0.984252 0.565326,
        -2.534922 -0.118110 0.532895,
        -2.534922 -0.984252 0.532895,
        -2.567352 -0.118110 0.484359,
        -2.567352 -0.984252 0.484359,
        -2.578740 -0.118110 0.427107,
        -2.578740 -0.984252 0.427107,
        -2.500000 0.984252 0.118110,
        -2.500000 0.984252 0.472441,
        -2.500000 -0.984252 0.472441,
        -2.479303 0.984252 0.472441,
        -2.479303 0.118110 0.472441,
        -2.500000 -0.118110 0.472441,
        -2.500000 0.118110 0.472441,
        -2.381890 0.984252 0.576714,
        -2.381890 0.984252 0.497974,
        -2.381890 0.118110 0.497974,
        -2.381890 0.118110 0.576714,
        2.500000 -0.984252 0.118110,
        2.500000 -0.984252 0.472441,
        2.500000 0.984252 0.472441,
        2.500000 -0.118110 0.118110,
        -2.500000 0.118110 0.118110,
        2.479303 -0.984252 0.472441,
        2.479303 -0.118110 0.472441,
        2.500000 0.118110 0.472441,
        2.500000 -0.118110 0.472441,
        2.381890 -0.118110 0.576714,
        2.381890 -0.118110 0.497974,
        2.381890 -0.984252 0.497974,
        2.381890 -0.984252 0.576714,
        2.429134 -0.984252 0.576714,
        2.421260 -0.984252 0.497974,
        2.486386 -0.984252 0.565326,
        2.534922 -0.984252 0.532895,
        2.452965 -0.984252 0.491308,
        2.451393 -0.984252 0.045364,
        2.486386 -0.984252 -0.027982,
        2.476937 -0.984252 0.062433,
        2.534922 -0.984252 0.004448,
        2.494006 -0.984252 0.087978,
        2.567352 -0.984252 0.052984,
        2.578740 -0.984252 0.110236,
        2.578740 -0.984252 0.427107,
        2.567352 -0.984252 0.484359,
        2.486386 -0.118110 -0.027982,
        2.534922 -0.118110 0.004448,
        2.567352 -0.118110 0.052984,
        2.578740 -0.118110 0.110236,
        2.578740 -0.118110 0.427107,
        2.567352 -0.118110 0.484359,
        2.534922 -0.118110 0.532895,
        2.486386 -0.118110 0.565326,
        2.429134 -0.118110 0.576714,
        2.421260 -0.118110 0.497974,
        2.452965 -0.118110 0.491308,
        2.494006 -0.118110 0.087978,
        2.476937 -0.118110 0.062433,
        2.451393 -0.118110 0.045364,
        -2.452965 0.118110 0.491308,
        -2.452965 0.984252 0.491308,
        -2.421260 0.118110 0.497974,
        -2.421260 0.984252 0.497974,
        -1.170881 -0.984252 -0.039370,
        -1.170881 -0.984252 0.039370,
        -2.429134 0.984252 0.576714,
        -2.486386 0.984252 0.565326,
        -2.534922 0.984252 0.532895,
        -1.170881 0.984252 0.039370,
        -1.170881 0.984252 -0.039370,
        -2.421260 0.984252 0.039370,
        -2.429134 0.984252 -0.039370,
        -2.451393 0.984252 0.045364,
        -2.486386 0.984252 -0.027982,
        -2.476937 0.984252 0.062433,
        -2.534922 0.984252 0.004448,
        -2.494006 0.984252 0.087978,
        -2.567352 0.984252 0.052984,
        -2.578740 0.984252 0.110236,
        -2.578740 0.984252 0.427107,
        -2.567352 0.984252 0.484359,
        -2.578740 0.118110 0.110236,
        -2.567352 0.118110 0.052984,
        -2.534922 0.118110 0.004448,
        -2.486386 0.118110 -0.027982,
        -2.429134 0.118110 -0.039370,
        -1.675051 -0.118110 -0.039370,
        -1.675051 0.118110 -0.039370,
        -1.052771 0.866142 -0.039370,
        -1.052771 -0.866142 -0.039370,
        -1.052771 0.866142 0.039370,
        -1.052771 -0.866142 0.039370,
        -2.421260 0.118110 0.039370,
        -1.675051 0.118110 0.039370,
        -1.675051 -0.118110 0.039370,
        -2.451393 0.118110 0.045364,
        -2.476937 0.118110 0.062433,
        -2.494006 0.118110 0.087978,
        -2.429134 0.118110 0.576714,
        -2.486386 0.118110 0.565326,
        -2.534922 0.118110 0.532895,
        -2.567352 0.118110 0.484359,
        -2.578740 0.118110 0.427107,
      ]
    }
    coordIndex [
      119, 118, 120, -1,
      120, 118, 121, -1,
      120, 121, 122, -1,
      108, 123, 112, -1,
      112, 123, 122, -1,
      112, 122, 124, -1,
      124, 122, 121, -1,
      50, 7, 48, -1,
      48, 7, 6, -1,
      48, 6, 125, -1,
      125, 6, 126, -1,
      125, 126, 127, -1,
      127, 126, 128, -1,
      127, 128, 129, -1,
      129, 128, 130, -1,
      129, 130, 107, -1,
      107, 130, 131, -1,
      107, 131, 108, -1,
      108, 131, 132, -1,
      108, 132, 123, -1,
      123, 132, 133, -1,
      24, 22, 109, -1,
      30, 28, 31, -1,
      31, 28, 26, -1,
      31, 26, 35, -1,
      35, 26, 24, -1,
      35, 24, 37, -1,
      37, 24, 109, -1,
      2, 53, 0, -1,
      0, 53, 47, -1,
      0, 47, 10, -1,
      10, 47, 45, -1,
      10, 45, 12, -1,
      12, 45, 43, -1,
      12, 43, 14, -1,
      14, 43, 41, -1,
      14, 41, 16, -1,
      16, 41, 39, -1,
      16, 39, 18, -1,
      18, 39, 109, -1,
      18, 109, 20, -1,
      20, 109, 22, -1,
      55, 54, 8, -1,
      8, 54, 9, -1,
      6, 5, 134, -1,
      6, 134, 126, -1,
      126, 134, 135, -1,
      126, 135, 128, -1,
      128, 135, 136, -1,
      128, 136, 130, -1,
      130, 136, 137, -1,
      130, 137, 131, -1,
      138, 132, 137, -1,
      137, 132, 131, -1,
      132, 138, 139, -1,
      132, 139, 133, -1,
      133, 139, 140, -1,
      133, 140, 123, -1,
      123, 140, 141, -1,
      123, 141, 122, -1,
      122, 141, 142, -1,
      122, 142, 120, -1,
      116, 119, 142, -1,
      142, 119, 120, -1,
      143, 121, 117, -1,
      117, 121, 118, -1,
      121, 143, 124, -1,
      124, 143, 144, -1,
      124, 144, 112, -1,
      112, 144, 113, -1,
      107, 110, 129, -1,
      129, 110, 145, -1,
      129, 145, 127, -1,
      127, 145, 146, -1,
      127, 146, 125, -1,
      125, 146, 147, -1,
      125, 147, 48, -1,
      48, 147, 49, -1,
      100, 99, 148, -1,
      148, 99, 149, -1,
      148, 149, 150, -1,
      150, 149, 151, -1,
      89, 91, 98, -1,
      82, 85, 60, -1,
      60, 85, 84, -1,
      60, 84, 58, -1,
      58, 84, 89, -1,
      58, 89, 56, -1,
      56, 89, 98, -1,
      152, 153, 71, -1,
      71, 153, 72, -1,
      71, 72, 69, -1,
      69, 72, 74, -1,
      69, 74, 67, -1,
      67, 74, 76, -1,
      67, 76, 65, -1,
      65, 76, 78, -1,
      65, 78, 62, -1,
      62, 78, 80, -1,
      62, 80, 95, -1,
      95, 80, 98, -1,
      95, 98, 93, -1,
      93, 98, 91, -1,
      103, 104, 154, -1,
      154, 104, 151, -1,
      154, 151, 155, -1,
      97, 156, 99, -1,
      99, 156, 155, -1,
      99, 155, 149, -1,
      149, 155, 151, -1,
      157, 158, 159, -1,
      159, 158, 160, -1,
      159, 160, 161, -1,
      161, 160, 162, -1,
      161, 162, 163, -1,
      163, 162, 164, -1,
      163, 164, 165, -1,
      165, 164, 166, -1,
      165, 166, 96, -1,
      96, 166, 167, -1,
      96, 167, 97, -1,
      97, 167, 168, -1,
      97, 168, 156, -1,
      156, 168, 169, -1,
      170, 167, 166, -1,
      170, 166, 171, -1,
      171, 166, 164, -1,
      171, 164, 172, -1,
      172, 164, 162, -1,
      172, 162, 173, -1,
      173, 162, 160, -1,
      173, 160, 174, -1,
      175, 176, 177, -1,
      174, 160, 176, -1,
      176, 160, 158, -1,
      176, 158, 177, -1,
      71, 70, 152, -1,
      152, 70, 175, -1,
      152, 175, 178, -1,
      178, 175, 177, -1,
      179, 180, 177, -1,
      177, 180, 178, -1,
      159, 181, 157, -1,
      157, 181, 182, -1,
      183, 73, 72, -1,
      72, 153, 183, -1,
      183, 153, 180, -1,
      183, 180, 182, -1,
      182, 180, 179, -1,
      182, 179, 157, -1,
      181, 159, 184, -1,
      184, 159, 161, -1,
      184, 161, 185, -1,
      185, 161, 163, -1,
      185, 163, 186, -1,
      186, 163, 165, -1,
      186, 165, 111, -1,
      111, 165, 96, -1,
      150, 151, 105, -1,
      105, 151, 104, -1,
      106, 103, 187, -1,
      187, 103, 154, -1,
      187, 154, 155, -1,
      187, 155, 188, -1,
      188, 155, 156, -1,
      188, 156, 189, -1,
      189, 156, 169, -1,
      189, 169, 190, -1,
      190, 169, 168, -1,
      190, 168, 191, -1,
      191, 168, 170, -1,
      170, 168, 167, -1,
      157, 179, 158, -1,
      158, 179, 177, -1,
      180, 153, 178, -1,
      178, 153, 152, -1,
      8, 7, 55, -1,
      55, 7, 50, -1,
      2, 9, 53, -1,
      53, 9, 54, -1,
      182, 176, 183, -1,
      183, 176, 175, -1,
      102, 111, 101, -1,
      101, 111, 81, -1,
      188, 189, 102, -1,
      105, 106, 150, -1,
      150, 106, 187, -1,
      150, 187, 148, -1,
      148, 187, 188, -1,
      148, 188, 100, -1,
      100, 188, 102, -1,
      176, 182, 174, -1,
      174, 182, 181, -1,
      174, 181, 173, -1,
      173, 181, 184, -1,
      173, 184, 172, -1,
      172, 184, 185, -1,
      172, 185, 171, -1,
      171, 185, 186, -1,
      171, 186, 170, -1,
      170, 186, 111, -1,
      170, 111, 191, -1,
      191, 111, 102, -1,
      191, 102, 190, -1,
      190, 102, 189, -1,
      87, 83, 86, -1,
      86, 83, 61, -1,
      86, 61, 88, -1,
      101, 90, 57, -1,
      57, 90, 88, -1,
      57, 88, 59, -1,
      59, 88, 61, -1,
      183, 175, 73, -1,
      73, 175, 70, -1,
      73, 70, 75, -1,
      75, 70, 68, -1,
      75, 68, 77, -1,
      77, 68, 66, -1,
      77, 66, 79, -1,
      79, 66, 64, -1,
      79, 64, 81, -1,
      81, 64, 63, -1,
      81, 63, 101, -1,
      101, 63, 94, -1,
      101, 94, 90, -1,
      90, 94, 92, -1,
      38, 114, 110, -1,
      110, 114, 115, -1,
      3, 52, 4, -1,
      4, 52, 51, -1,
      29, 32, 27, -1,
      27, 32, 33, -1,
      27, 33, 25, -1,
      114, 23, 36, -1,
      36, 23, 25, -1,
      36, 25, 34, -1,
      34, 25, 33, -1,
      52, 3, 46, -1,
      46, 3, 1, -1,
      46, 1, 44, -1,
      44, 1, 11, -1,
      44, 11, 42, -1,
      42, 11, 13, -1,
      42, 13, 40, -1,
      40, 13, 15, -1,
      40, 15, 38, -1,
      38, 15, 17, -1,
      38, 17, 114, -1,
      114, 17, 19, -1,
      114, 19, 23, -1,
      23, 19, 21, -1,
      141, 140, 115, -1,
      117, 116, 143, -1,
      143, 116, 142, -1,
      143, 142, 144, -1,
      144, 142, 141, -1,
      144, 141, 113, -1,
      113, 141, 115, -1,
      4, 51, 5, -1,
      5, 51, 49, -1,
      5, 49, 134, -1,
      134, 49, 147, -1,
      134, 147, 135, -1,
      135, 147, 146, -1,
      135, 146, 136, -1,
      136, 146, 145, -1,
      136, 145, 137, -1,
      137, 145, 110, -1,
      137, 110, 138, -1,
      138, 110, 115, -1,
      138, 115, 139, -1,
      139, 115, 140, -1,
    ]
  }
}

Shape {
  appearance Appearance {
    material Material {
      diffuseColor 0.1961 0.1961 0.1961
      specularColor 0.0980 0.0980 0.0980
      ambientIntensity 0.2
      transparency 0.0000
      shininess 0.5
    }
  }
  geometry IndexedFaceSet {
    ccw TRUE
    solid FALSE
    coord DEF co Coordinate {
      point [
        -2.500000 -2.106299 0.000000,
        -2.500000 2.106299 0.000000,
        -2.500000 -2.106299 3.307087,
        -2.500000 2.106299 3.307087,
        2.500000 2.106299 0.000000,
        2.500000 -2.106299 0.000000,
        2.500000 2.106299 3.307087,
        2.500000 -2.106299 3.307087,
        -2.106299 2.500000 0.000000,
        -2.447254 2.303150 0.000000,
        -2.303150 2.447254 0.000000,
        2.106299 2.500000 0.000000,
        2.303150 2.447254 0.000000,
        2.447254 2.303150 0.000000,
        -2.106299 -2.500000 0.000000,
        -2.303150 -2.447254 0.000000,
        -2.447254 -2.303150 0.000000,
        -2.106299 2.500000 3.307087,
        2.106299 2.500000 3.307087,
        -2.106299 -2.500000 3.307087,
        2.106299 -2.500000 0.000000,
        2.106299 -2.500000 3.307087,
        2.303150 2.447254 3.307087,
        2.447254 2.303150 3.307087,
        2.303150 -2.447254 3.307087,
        2.447254 -2.303150 3.307087,
        -2.303150 2.447254 3.307087,
        -2.447254 2.303150 3.307087,
        -2.303150 -2.447254 3.307087,
        -2.447254 -2.303150 3.307087,
        2.447254 -2.303150 0.000000,
        2.303150 -2.447254 0.000000,
      ]
    }
    coordIndex [
      21, 20, 31, -1,
      21, 31, 24, -1,
      24, 31, 30, -1,
      24, 30, 25, -1,
      25, 30, 5, -1,
      25, 5, 7, -1,
      6, 4, 13, -1,
      6, 13, 23, -1,
      23, 13, 12, -1,
      23, 12, 22, -1,
      22, 12, 11, -1,
      22, 11, 18, -1,
      17, 8, 10, -1,
      17, 10, 26, -1,
      26, 10, 9, -1,
      26, 9, 27, -1,
      27, 9, 1, -1,
      27, 1, 3, -1,
      2, 0, 16, -1,
      2, 16, 29, -1,
      29, 16, 15, -1,
      29, 15, 28, -1,
      28, 15, 14, -1,
      28, 14, 19, -1,
    ]
  }
}

Shape {
  appearance Appearance {
    material Material {
      diffuseColor 0.7529 0.7529 0.7529
      specularColor 0.3765 0.3765 0.3765
      ambientIntensity 0.2
      transparency 0.0000
      shininess 0.5
    }
  }
  geometry IndexedFaceSet {
    ccw TRUE
    solid FALSE
    coord DEF co Coordinate {
      point [
        -0.033528 0.125324 0.123450,
        0.059850 0.125324 0.123450,
        0.059850 0.064755 0.123450,
        -0.033528 0.064755 0.123450,
        -0.033528 0.044565 0.123450,
        -0.033528 0.145514 0.123450,
        0.077517 0.145514 0.123450,
        0.332413 -0.031147 0.123450,
        0.309699 0.048232 0.123450,
        0.297022 0.098528 0.123450,
        0.263355 0.134018 0.123450,
        0.212487 0.150252 0.123450,
        0.203781 0.150561 0.123450,
        0.155744 0.140448 0.123450,
        0.135583 0.127983 0.123450,
        0.077517 -0.051337 0.123450,
        0.117896 0.109393 0.123450,
        0.124091 0.117109 0.123450,
        0.059850 0.044565 0.123450,
        0.059850 -0.031147 0.123450,
        -0.033528 -0.031147 0.123450,
        -0.033528 -0.051337 0.123450,
        0.425790 -0.051337 0.123450,
        0.217602 -0.053860 0.123450,
        0.332413 -0.051337 0.123450,
        0.248131 -0.048379 0.123450,
        0.267289 -0.037911 0.123450,
        0.248525 0.119579 0.123450,
        0.279017 0.092087 0.123450,
        0.204885 0.130372 0.123450,
        0.291716 0.054826 0.123450,
        0.292033 0.046892 0.123450,
        0.281837 0.006325 0.123450,
        0.254696 -0.022117 0.123450,
        0.216061 -0.035548 0.123450,
        0.278499 -0.028601 0.123450,
        0.284738 -0.021959 0.123450,
        0.303702 0.010806 0.123450,
        0.155650 -0.046162 0.123450,
        0.117896 -0.015097 0.123450,
        0.133354 -0.003386 0.123450,
        0.133354 0.097563 0.123450,
        0.164763 -0.027854 0.123450,
        0.165263 0.122266 0.123450,
        0.203663 -0.036194 0.123450,
        0.183840 0.128267 0.123450,
        0.196743 0.130060 0.123450,
        0.178693 -0.053860 0.123450,
        0.193678 -0.056023 0.123450,
        0.203545 -0.056384 0.123450,
        0.408124 -0.031147 0.123450,
        0.408124 0.145514 0.123450,
        0.425790 0.145514 0.123450,
        0.178048 -0.053767 0.123450,
        -0.274898 -0.051337 0.123450,
        -0.255615 -0.051337 0.123450,
        -0.423167 -0.051337 0.123450,
        -0.394065 0.011757 0.123450,
        -0.304828 0.011757 0.123450,
        -0.171070 0.138416 0.123450,
        -0.206546 0.114548 0.123450,
        -0.348993 0.145514 0.123450,
        -0.190756 -0.037562 0.123450,
        -0.151125 -0.050248 0.123450,
        -0.129863 -0.051337 0.123450,
        -0.140141 0.144310 0.123450,
        -0.351517 0.145514 0.123450,
        -0.442370 -0.051337 0.123450,
        -0.226680 0.075574 0.123450,
        -0.230378 0.044604 0.123450,
        -0.219274 -0.004910 0.123450,
        -0.068859 -0.051337 0.123450,
        -0.068859 0.145514 0.123450,
        -0.108608 0.145514 0.123450,
        -0.348993 0.145514 0.162820,
        -0.351517 0.145514 0.162820,
        -0.442370 -0.051337 0.162820,
        -0.423167 -0.051337 0.162820,
        -0.394065 0.011757 0.162820,
        -0.304828 0.011757 0.162820,
        -0.274898 -0.051337 0.162820,
        -0.255615 -0.051337 0.162820,
        -0.384759 0.031946 0.162820,
        -0.314410 0.031946 0.162820,
        -0.350057 0.107145 0.162820,
        -0.384759 0.031946 0.123450,
        -0.350057 0.107145 0.123450,
        -0.314410 0.031946 0.123450,
        -0.129863 -0.051337 0.162820,
        -0.068859 -0.051337 0.162820,
        -0.068859 0.145514 0.162820,
        -0.108608 0.145514 0.162820,
        -0.171070 0.138416 0.162820,
        -0.140141 0.144310 0.162820,
        -0.230378 0.044604 0.162820,
        -0.226680 0.075574 0.162820,
        -0.206546 0.114548 0.162820,
        -0.151125 -0.050248 0.162820,
        -0.190756 -0.037562 0.162820,
        -0.219274 -0.004910 0.162820,
        -0.209595 0.020135 0.162820,
        -0.193518 -0.008681 0.162820,
        -0.165392 -0.026139 0.162820,
        -0.137437 -0.030350 0.162820,
        -0.109121 -0.031147 0.162820,
        -0.086526 -0.031147 0.162820,
        -0.086526 0.125324 0.162820,
        -0.100367 0.125324 0.162820,
        -0.130804 0.124397 0.162820,
        -0.160857 0.119804 0.162820,
        -0.182629 0.109311 0.162820,
        -0.204093 0.083956 0.162820,
        -0.212712 0.044644 0.162820,
        -0.086526 0.125324 0.123450,
        -0.086526 -0.031147 0.123450,
        -0.100367 0.125324 0.123450,
        -0.130804 0.124397 0.123450,
        -0.160857 0.119804 0.123450,
        -0.182629 0.109311 0.123450,
        -0.204093 0.083956 0.123450,
        -0.212712 0.044644 0.123450,
        -0.209595 0.020135 0.123450,
        -0.193518 -0.008681 0.123450,
        -0.165392 -0.026139 0.123450,
        -0.137437 -0.030350 0.123450,
        -0.109121 -0.031147 0.123450,
        0.077517 -0.051337 0.162820,
        0.077517 0.145514 0.162820,
        -0.033528 0.145514 0.162820,
        -0.033528 0.125324 0.162820,
        0.059850 0.125324 0.162820,
        0.059850 0.064755 0.162820,
        -0.033528 0.064755 0.162820,
        -0.033528 0.044565 0.162820,
        0.059850 0.044565 0.162820,
        0.059850 -0.031147 0.162820,
        -0.033528 -0.031147 0.162820,
        -0.033528 -0.051337 0.162820,
        0.117896 0.109393 0.162820,
        0.124091 0.117109 0.162820,
        0.135583 0.127983 0.162820,
        0.155744 0.140448 0.162820,
        0.203781 0.150561 0.162820,
        0.133354 0.097563 0.162820,
        0.204885 0.130372 0.162820,
        0.196743 0.130060 0.162820,
        0.183840 0.128267 0.162820,
        0.165263 0.122266 0.162820,
        0.292033 0.046892 0.162820,
        0.291716 0.054826 0.162820,
        0.279017 0.092087 0.162820,
        0.248525 0.119579 0.162820,
        0.203663 -0.036194 0.162820,
        0.216061 -0.035548 0.162820,
        0.254696 -0.022117 0.162820,
        0.281837 0.006325 0.162820,
        0.133354 -0.003386 0.162820,
        0.164763 -0.027854 0.162820,
        0.117896 -0.015097 0.162820,
        0.203545 -0.056384 0.162820,
        0.193678 -0.056023 0.162820,
        0.178048 -0.053767 0.162820,
        0.155650 -0.046162 0.162820,
        0.248131 -0.048379 0.162820,
        0.267289 -0.037911 0.162820,
        0.278499 -0.028601 0.162820,
        0.284738 -0.021959 0.162820,
        0.309699 0.048232 0.162820,
        0.303702 0.010806 0.162820,
        0.212487 0.150252 0.162820,
        0.263355 0.134018 0.162820,
        0.297022 0.098528 0.162820,
        0.425790 -0.051337 0.162820,
        0.425790 0.145514 0.162820,
        0.408124 0.145514 0.162820,
        0.408124 -0.031147 0.162820,
        0.332413 -0.031147 0.162820,
        0.332413 -0.051337 0.162820,
      ]
    }
    coordIndex [
      74, 75, 61, -1,
      61, 75, 66, -1,
      75, 76, 66, -1,
      66, 76, 67, -1,
      76, 77, 67, -1,
      67, 77, 56, -1,
      77, 78, 56, -1,
      56, 78, 57, -1,
      78, 79, 57, -1,
      57, 79, 58, -1,
      79, 80, 58, -1,
      58, 80, 54, -1,
      80, 81, 54, -1,
      54, 81, 55, -1,
      81, 74, 55, -1,
      55, 74, 61, -1,
      82, 76, 75, -1,
      74, 83, 75, -1,
      75, 83, 84, -1,
      75, 84, 82, -1,
      81, 80, 79, -1,
      77, 76, 78, -1,
      78, 76, 82, -1,
      78, 82, 79, -1,
      79, 82, 83, -1,
      79, 83, 81, -1,
      81, 83, 74, -1,
      82, 84, 85, -1,
      85, 84, 86, -1,
      83, 82, 87, -1,
      87, 82, 85, -1,
      84, 83, 86, -1,
      86, 83, 87, -1,
      88, 89, 64, -1,
      64, 89, 71, -1,
      89, 90, 71, -1,
      71, 90, 72, -1,
      90, 91, 72, -1,
      72, 91, 73, -1,
      92, 59, 65, -1,
      92, 65, 93, -1,
      93, 65, 73, -1,
      93, 73, 91, -1,
      94, 69, 68, -1,
      94, 68, 95, -1,
      95, 68, 60, -1,
      95, 60, 96, -1,
      96, 60, 59, -1,
      96, 59, 92, -1,
      88, 64, 63, -1,
      88, 63, 97, -1,
      97, 63, 62, -1,
      97, 62, 98, -1,
      98, 62, 70, -1,
      98, 70, 99, -1,
      99, 70, 69, -1,
      99, 69, 94, -1,
      100, 101, 98, -1,
      98, 101, 102, -1,
      98, 102, 97, -1,
      97, 102, 103, -1,
      97, 103, 88, -1,
      88, 103, 104, -1,
      88, 104, 89, -1,
      89, 104, 105, -1,
      89, 105, 90, -1,
      90, 105, 106, -1,
      90, 106, 91, -1,
      91, 106, 107, -1,
      91, 107, 93, -1,
      93, 107, 108, -1,
      93, 108, 92, -1,
      92, 108, 109, -1,
      92, 109, 96, -1,
      96, 109, 110, -1,
      96, 110, 95, -1,
      95, 110, 111, -1,
      95, 111, 94, -1,
      94, 111, 112, -1,
      94, 112, 99, -1,
      99, 112, 100, -1,
      99, 100, 98, -1,
      106, 105, 113, -1,
      113, 105, 114, -1,
      107, 106, 115, -1,
      115, 106, 113, -1,
      107, 115, 116, -1,
      107, 116, 108, -1,
      108, 116, 117, -1,
      108, 117, 109, -1,
      109, 117, 118, -1,
      109, 118, 110, -1,
      110, 118, 119, -1,
      110, 119, 111, -1,
      111, 119, 120, -1,
      111, 120, 112, -1,
      112, 120, 121, -1,
      112, 121, 100, -1,
      100, 121, 122, -1,
      100, 122, 101, -1,
      101, 122, 123, -1,
      101, 123, 102, -1,
      102, 123, 124, -1,
      102, 124, 103, -1,
      103, 124, 125, -1,
      103, 125, 104, -1,
      105, 104, 114, -1,
      114, 104, 125, -1,
      126, 127, 15, -1,
      15, 127, 6, -1,
      127, 128, 6, -1,
      6, 128, 5, -1,
      128, 129, 5, -1,
      5, 129, 0, -1,
      129, 130, 0, -1,
      0, 130, 1, -1,
      130, 131, 1, -1,
      1, 131, 2, -1,
      131, 132, 2, -1,
      2, 132, 3, -1,
      132, 133, 3, -1,
      3, 133, 4, -1,
      133, 134, 4, -1,
      4, 134, 18, -1,
      134, 135, 18, -1,
      18, 135, 19, -1,
      135, 136, 19, -1,
      19, 136, 20, -1,
      136, 137, 20, -1,
      20, 137, 21, -1,
      137, 126, 21, -1,
      21, 126, 15, -1,
      126, 137, 136, -1,
      136, 135, 126, -1,
      126, 135, 134, -1,
      126, 134, 127, -1,
      129, 128, 130, -1,
      130, 128, 127, -1,
      130, 127, 131, -1,
      131, 127, 134, -1,
      131, 134, 132, -1,
      132, 134, 133, -1,
      138, 16, 17, -1,
      138, 17, 139, -1,
      139, 17, 14, -1,
      139, 14, 140, -1,
      140, 14, 13, -1,
      140, 13, 141, -1,
      141, 13, 12, -1,
      141, 12, 142, -1,
      138, 143, 16, -1,
      16, 143, 41, -1,
      144, 29, 46, -1,
      144, 46, 145, -1,
      145, 46, 45, -1,
      145, 45, 146, -1,
      146, 45, 43, -1,
      146, 43, 147, -1,
      147, 43, 41, -1,
      147, 41, 143, -1,
      148, 31, 30, -1,
      148, 30, 149, -1,
      149, 30, 28, -1,
      149, 28, 150, -1,
      150, 28, 27, -1,
      150, 27, 151, -1,
      151, 27, 29, -1,
      151, 29, 144, -1,
      152, 44, 34, -1,
      152, 34, 153, -1,
      153, 34, 33, -1,
      153, 33, 154, -1,
      154, 33, 32, -1,
      154, 32, 155, -1,
      155, 32, 31, -1,
      155, 31, 148, -1,
      156, 40, 42, -1,
      156, 42, 157, -1,
      157, 42, 44, -1,
      157, 44, 152, -1,
      156, 158, 40, -1,
      40, 158, 39, -1,
      159, 49, 48, -1,
      159, 48, 160, -1,
      160, 48, 47, -1,
      160, 47, 161, -1,
      47, 53, 161, -1,
      161, 53, 38, -1,
      161, 38, 162, -1,
      162, 38, 39, -1,
      162, 39, 158, -1,
      49, 159, 23, -1,
      23, 159, 163, -1,
      23, 163, 25, -1,
      25, 163, 164, -1,
      25, 164, 26, -1,
      26, 164, 165, -1,
      26, 165, 35, -1,
      35, 165, 166, -1,
      35, 166, 36, -1,
      167, 8, 37, -1,
      167, 37, 168, -1,
      168, 37, 36, -1,
      168, 36, 166, -1,
      142, 12, 11, -1,
      142, 11, 169, -1,
      169, 11, 10, -1,
      169, 10, 170, -1,
      170, 10, 9, -1,
      170, 9, 171, -1,
      171, 9, 8, -1,
      171, 8, 167, -1,
      158, 156, 162, -1,
      162, 156, 157, -1,
      167, 168, 155, -1,
      155, 168, 154, -1,
      154, 168, 166, -1,
      154, 166, 165, -1,
      143, 138, 139, -1,
      143, 139, 147, -1,
      147, 139, 140, -1,
      147, 140, 141, -1,
      165, 164, 154, -1,
      154, 164, 163, -1,
      154, 163, 153, -1,
      153, 163, 159, -1,
      153, 159, 152, -1,
      152, 159, 160, -1,
      152, 160, 157, -1,
      157, 160, 161, -1,
      157, 161, 162, -1,
      155, 148, 167, -1,
      167, 148, 149, -1,
      167, 149, 171, -1,
      171, 149, 150, -1,
      171, 150, 170, -1,
      170, 150, 151, -1,
      170, 151, 169, -1,
      169, 151, 144, -1,
      169, 144, 142, -1,
      142, 144, 145, -1,
      142, 145, 141, -1,
      141, 145, 146, -1,
      141, 146, 147, -1,
      172, 173, 22, -1,
      22, 173, 52, -1,
      173, 174, 52, -1,
      52, 174, 51, -1,
      174, 175, 51, -1,
      51, 175, 50, -1,
      175, 176, 50, -1,
      50, 176, 7, -1,
      176, 177, 7, -1,
      7, 177, 24, -1,
      177, 172, 24, -1,
      24, 172, 22, -1,
      174, 173, 175, -1,
      175, 173, 172, -1,
      175, 172, 176, -1,
      176, 172, 177, -1,
    ]
  }
}

Shape {
  appearance Appearance {
    material Material {
      diffuseColor 0.1961 0.1961 0.1961
      specularColor 0.0980 0.0980 0.0980
      ambientIntensity 0.2
      transparency 0.0000
      shininess 0.5
    }
  }
  geometry IndexedFaceSet {
    ccw TRUE
    solid FALSE
    coord DEF co Coordinate {
      point [
        -0.384759 0.031946 0.123450,
        -0.350057 0.107145 0.123450,
        -0.314410 0.031946 0.123450,
        -0.086526 0.125324 0.123450,
        -0.086526 -0.031147 0.123450,
        -0.100367 0.125324 0.123450,
        -0.130804 0.124397 0.123450,
        -0.160857 0.119804 0.123450,
        -0.182629 0.109311 0.123450,
        -0.204093 0.083956 0.123450,
        -0.212712 0.044644 0.123450,
        -0.209595 0.020135 0.123450,
        -0.193518 -0.008681 0.123450,
        -0.165392 -0.026139 0.123450,
        -0.137437 -0.030350 0.123450,
        -0.109121 -0.031147 0.123450,
      ]
    }
    coordIndex [
      1, 2, 0, -1,
      3, 4, 5, -1,
      5, 4, 15, -1,
      5, 15, 6, -1,
      6, 15, 14, -1,
      6, 14, 7, -1,
      13, 12, 14, -1,
      14, 12, 11, -1,
      14, 11, 10, -1,
      10, 9, 14, -1,
      14, 9, 8, -1,
      14, 8, 7, -1,
    ]
  }
}
