#VRML V2.0 utf8
# 3D model generated by easyeda2kicad.py (https://github.com/uPesy/easyeda2kicad.py)

Shape{
    appearance Appearance {
        material  Material 	{
            diffuseColor 0.5882352941176471 0.5725490196078431 0.5254901960784314
            specularColor 0.043137254901960784 0.0392156862745098 0.0392156862745098
            ambientIntensity 0.8167
            transparency 0.0
            shininess 0.5
        }
    }
    geometry IndexedFaceSet {
        ccw TRUE
        solid FALSE
        coord DEF co Coordinate {
            point [
                0.1378 -0.1032 0.5118, 0.2559 -0.1032 0.5118, 0.4331 0.2512 0.5118, -0.4331 -0.4181 0.5118, -0.1378 -0.2213 0.5118, -0.2559 -0.2213 0.5118, -0.4331 -0.5756 0.5118, 0.4331 -0.5756 0.5118, -0.1378 -0.1032 0.5118, 0.4331 -0.4181 0.5118, 0.1378 -0.2213 0.5118, 0.2559 -0.2213 0.5118, 0.4331 -0.0244 0.5118, 0.6299 -0.0244 0.5118, 0.6299 -0.4181 0.5118, -0.2559 -0.1032 0.5118, -0.4331 0.2512 0.5118, -0.4331 -0.0244 0.5118, -0.6299 -0.0244 0.5118, -0.6299 -0.4181 0.5118, -0.7874 -0.1425 0.2165, -0.7874 -0.1425 0.0197, -0.748 -0.1425 0.2165, -0.748 -0.1425 0.0197, -0.1575 0.2466 0.0197, -0.1575 0.4087 0.0197, 0.1575 0.4087 0.0197, 0.1575 0.2466 0.0197, -0.5512 -0.7331 0.0197, -0.5512 -0.1425 0.0197, -0.7874 0.4087 0.0197, -0.2362 0.4087 0.0197, -0.2362 0.2466 0.0197, 0.5512 -0.7331 0.0197, 0.5512 -0.1425 0.0197, 0.6693 -0.1425 0.0197, 0.2362 0.2466 0.0197, -0.6693 -0.1425 0.0197, 0.2362 0.4087 0.0197, 0.7874 0.4087 0.0197, 0.748 -0.1425 0.0197, 0.7874 -0.1425 0.0197, -0.7874 0.4087 1.1024, -0.7874 0.1331 1.1024, -0.7874 -0.7331 0.2165, -0.7874 0.1331 1.6929, -0.7874 -0.7331 1.6929, 0.5512 -0.7331 0.2165, 0.7874 -0.7331 0.2165, 0.7874 -0.7331 1.6929, -0.5512 -0.7331 0.2165, 0.5512 -0.1425 0.2165, 0.6693 -0.1425 0.2165, 0.7874 -0.1425 0.2165, 0.748 -0.1425 0.2165, 0.748 -0.7327 0.2165, 0.6693 -0.7327 0.2165, 0.7874 0.4087 1.1024, 0.2362 0.4087 0.2102, 0.1575 0.4087 0.2102, -0.1575 0.4087 0.2102, -0.2362 0.4087 0.2102, -0.5906 0.4087 1.1024, -0.5906 0.4087 1.6929, 0.5906 0.4087 1.6929, 0.5906 0.4087 1.1024, -0.4331 -0.5756 1.6929, -0.4331 -0.4181 1.6929, -0.6299 -0.4181 1.6929, 0.4331 -0.4181 1.6929, 0.4331 -0.5756 1.6929, -0.6299 -0.0244 1.6929, -0.5906 0.1331 1.6929, -0.4331 -0.0244 1.6929, -0.4331 0.2512 1.6929, 0.4331 0.2512 1.6929, 0.5906 0.1331 1.6929, 0.4331 -0.0244 1.6929, 0.7874 0.1331 1.6929, 0.6299 -0.0244 1.6929, 0.6299 -0.4181 1.6929, 0.7874 0.1331 1.1024, -0.5906 0.1331 1.1024, 0.5906 0.1331 1.1024
            ]
        }
        coordIndex [
            0,1,2,-1,3,4,5,-1,3,6,4,-1,4,6,7,-1,4,7,8,-1,8,7,9,-1,8,9,10,-1,10,9,11,-1,2,1,12,-1,12,1,11,-1,12,11,13,-1,13,11,9,-1,13,9,14,-1,10,0,8,-1,8,0,2,-1,8,2,15,-1,15,2,16,-1,15,16,5,-1,5,16,17,-1,5,17,3,-1,3,17,18,-1,3,18,19,-1,20,21,22,-1,22,21,23,-1,24,25,26,-1,27,28,29,-1,30,31,32,-1,33,28,34,-1,34,28,27,-1,34,27,35,-1,35,27,36,-1,26,27,24,-1,24,27,29,-1,24,29,32,-1,32,29,37,-1,32,37,30,-1,30,37,23,-1,30,23,21,-1,36,38,35,-1,35,38,39,-1,35,39,40,-1,40,39,41,-1,30,21,42,-1,42,21,20,-1,42,20,43,-1,43,20,44,-1,43,44,45,-1,45,44,46,-1,47,48,49,-1,46,44,50,-1,28,33,50,-1,50,33,47,-1,50,47,46,-1,46,47,49,-1,51,34,52,-1,52,34,35,-1,41,53,40,-1,40,53,54,-1,54,53,55,-1,55,53,48,-1,55,48,56,-1,56,48,47,-1,56,47,52,-1,52,47,51,-1,39,38,57,-1,57,38,58,-1,26,25,59,-1,59,25,60,-1,31,30,61,-1,61,30,42,-1,61,42,60,-1,60,42,62,-1,63,64,62,-1,62,64,65,-1,62,65,60,-1,60,65,57,-1,60,57,59,-1,59,57,58,-1,66,67,68,-1,69,70,49,-1,49,70,46,-1,70,66,46,-1,46,66,68,-1,46,68,45,-1,45,68,71,-1,45,71,72,-1,72,71,73,-1,72,73,63,-1,63,73,74,-1,63,74,64,-1,64,74,75,-1,64,75,76,-1,76,75,77,-1,76,77,78,-1,78,77,79,-1,78,79,49,-1,49,79,80,-1,49,80,69,-1,75,2,77,-1,77,2,12,-1,7,70,9,-1,9,70,69,-1,17,16,73,-1,73,16,74,-1,78,49,81,-1,81,49,48,-1,81,48,57,-1,57,48,53,-1,57,53,39,-1,39,53,41,-1,62,82,63,-1,63,82,72,-1,82,43,72,-1,72,43,45,-1,82,62,43,-1,43,62,42,-1,81,83,78,-1,78,83,76,-1,83,65,76,-1,76,65,64,-1,65,83,57,-1,57,83,81,-1,7,6,70,-1,70,6,66,-1,67,66,3,-1,3,66,6,-1,16,2,74,-1,74,2,75,-1,71,18,73,-1,73,18,17,-1,68,19,71,-1,71,19,18,-1,67,3,68,-1,68,3,19,-1,79,77,13,-1,13,77,12,-1,80,79,14,-1,14,79,13,-1,69,80,9,-1,9,80,14,-1,
        ]
    }
}
Shape{
    appearance Appearance {
        material  Material 	{
            diffuseColor 0.6666666666666666 0.6666666666666666 0.6666666666666666
            specularColor 0.4666666666666667 0.4666666666666667 0.4666666666666667
            ambientIntensity 0.6667
            transparency 0.0
            shininess 0.5
        }
    }
    geometry IndexedFaceSet {
        ccw TRUE
        solid FALSE
        coord DEF co Coordinate {
            point [
                0.2362 0.2466 0.0197, 0.2362 0.2466 0.0, 0.2362 0.4087 0.0197, 0.2362 0.6843 0.0, 0.2362 0.6843 0.0787, 0.2362 0.4845 0.0787, 0.2362 0.4087 0.2102, 0.1575 0.2466 0.0, 0.1575 0.2466 0.0197, 0.1575 0.4087 0.0197, 0.1575 0.4087 0.2102, 0.1575 0.4845 0.0787, 0.1575 0.6843 0.0, 0.1575 0.6843 0.0787, -0.1575 0.2466 0.0197, -0.1575 0.2466 0.0, -0.1575 0.4087 0.0197, -0.1575 0.6843 0.0, -0.1575 0.6843 0.0787, -0.1575 0.4845 0.0787, -0.1575 0.4087 0.2102, -0.2362 0.2466 0.0, -0.2362 0.2466 0.0197, -0.2362 0.4087 0.0197, -0.2362 0.4087 0.2102, -0.2362 0.4845 0.0787, -0.2362 0.6843 0.0, -0.2362 0.6843 0.0787
            ]
        }
        coordIndex [
            0,1,2,-1,2,1,3,-1,3,4,2,-1,2,4,5,-1,2,5,6,-1,7,8,9,-1,9,10,11,-1,7,9,12,-1,12,9,11,-1,12,11,13,-1,4,3,13,-1,13,3,12,-1,5,4,11,-1,11,4,13,-1,6,5,10,-1,10,5,11,-1,7,1,8,-1,8,1,0,-1,3,1,12,-1,12,1,7,-1,14,15,16,-1,16,15,17,-1,17,18,16,-1,16,18,19,-1,16,19,20,-1,21,22,23,-1,23,24,25,-1,21,23,26,-1,26,23,25,-1,26,25,27,-1,18,17,27,-1,27,17,26,-1,19,18,25,-1,25,18,27,-1,20,19,24,-1,24,19,25,-1,21,15,22,-1,22,15,14,-1,17,15,26,-1,26,15,21,-1,
        ]
    }
}
Shape{
    appearance Appearance {
        material  Material 	{
            diffuseColor 0.5882352941176471 0.5725490196078431 0.5254901960784314
            specularColor 0.043137254901960784 0.0392156862745098 0.0392156862745098
            ambientIntensity 0.8167
            transparency 0.0
            shininess 0.5
        }
    }
    geometry IndexedFaceSet {
        ccw TRUE
        solid FALSE
        coord DEF co Coordinate {
            point [
                0.5512 -0.1425 0.2165, 0.5512 -0.7331 0.2165, 0.5512 -0.1425 0.0197, 0.5512 -0.7331 0.0197
            ]
        }
        coordIndex [
            0,1,2,-1,2,1,3,-1,
        ]
    }
}
Shape{
    appearance Appearance {
        material  Material 	{
            diffuseColor 0.6666666666666666 0.6666666666666666 0.6666666666666666
            specularColor 0.4666666666666667 0.4666666666666667 0.4666666666666667
            ambientIntensity 0.6667
            transparency 0.0
            shininess 0.5
        }
    }
    geometry IndexedFaceSet {
        ccw TRUE
        solid FALSE
        coord DEF co Coordinate {
            point [
                0.748 -0.1425 0.0, 0.6693 -0.1425 0.0, 0.748 -0.1425 0.0197, 0.6693 -0.1425 0.0197, 0.6693 -0.7327 0.0, 0.6693 -0.7327 0.2165, 0.6693 -0.1425 0.2165, 0.748 -0.7327 0.0, 0.748 -0.7327 0.2165, 0.748 -0.1425 0.2165
            ]
        }
        coordIndex [
            0,1,2,-1,2,1,3,-1,1,4,3,-1,3,4,5,-1,3,5,6,-1,7,8,4,-1,4,8,5,-1,9,8,2,-1,2,8,7,-1,2,7,0,-1,1,0,4,-1,4,0,7,-1,
        ]
    }
}
Shape{
    appearance Appearance {
        material  Material 	{
            diffuseColor 0.5882352941176471 0.5725490196078431 0.5254901960784314
            specularColor 0.043137254901960784 0.0392156862745098 0.0392156862745098
            ambientIntensity 0.8167
            transparency 0.0
            shininess 0.5
        }
    }
    geometry IndexedFaceSet {
        ccw TRUE
        solid FALSE
        coord DEF co Coordinate {
            point [
                -0.5512 -0.7331 0.2165, -0.5512 -0.1425 0.2165, -0.5512 -0.7331 0.0197, -0.5512 -0.1425 0.0197, -0.6693 -0.1425 0.0197, -0.6693 -0.1425 0.2165, -0.7874 -0.7331 0.2165, -0.7874 -0.1425 0.2165, -0.748 -0.1425 0.2165, -0.6693 -0.7327 0.2165, -0.748 -0.7327 0.2165
            ]
        }
        coordIndex [
            0,1,2,-1,2,1,3,-1,3,1,4,-1,4,1,5,-1,6,7,8,-1,9,5,1,-1,1,0,9,-1,9,0,6,-1,9,6,10,-1,10,6,8,-1,
        ]
    }
}
Shape{
    appearance Appearance {
        material  Material 	{
            diffuseColor 0.6666666666666666 0.6666666666666666 0.6666666666666666
            specularColor 0.4666666666666667 0.4666666666666667 0.4666666666666667
            ambientIntensity 0.6667
            transparency 0.0
            shininess 0.5
        }
    }
    geometry IndexedFaceSet {
        ccw TRUE
        solid FALSE
        coord DEF co Coordinate {
            point [
                -0.748 -0.1425 0.0, -0.748 -0.7327 0.0, -0.748 -0.1425 0.0197, -0.748 -0.7327 0.2165, -0.748 -0.1425 0.2165, -0.6693 -0.1425 0.0197, -0.6693 -0.1425 0.0, -0.6693 -0.1425 0.2165, -0.6693 -0.7327 0.2165, -0.6693 -0.7327 0.0, -0.2559 -0.2213 1.3092, -0.2559 -0.2213 0.5118, -0.1378 -0.2213 1.3092, -0.1378 -0.2213 0.5118, -0.2559 -0.1032 1.3092, -0.2559 -0.1032 0.5118, -0.1378 -0.1032 1.3092, -0.1378 -0.1032 0.5118, -0.1772 -0.1425 1.4173, -0.2165 -0.1425 1.4173, -0.1772 -0.1819 1.4173, -0.2165 -0.1819 1.4173, 0.1378 -0.2213 1.3092, 0.1378 -0.2213 0.5118, 0.2559 -0.2213 1.3092, 0.2559 -0.2213 0.5118, 0.1378 -0.1032 1.3092, 0.1378 -0.1032 0.5118, 0.2559 -0.1032 1.3092, 0.2559 -0.1032 0.5118, 0.2165 -0.1425 1.4173, 0.1772 -0.1425 1.4173, 0.2165 -0.1819 1.4173, 0.1772 -0.1819 1.4173
            ]
        }
        coordIndex [
            0,1,2,-1,2,1,3,-1,2,3,4,-1,5,6,2,-1,2,6,0,-1,7,8,5,-1,5,8,9,-1,5,9,6,-1,8,3,9,-1,9,3,1,-1,6,9,0,-1,0,9,1,-1,10,11,12,-1,12,11,13,-1,14,15,10,-1,10,15,11,-1,16,17,14,-1,14,17,15,-1,12,13,16,-1,16,13,17,-1,18,19,20,-1,20,19,21,-1,19,14,21,-1,21,14,10,-1,18,16,19,-1,19,16,14,-1,12,20,10,-1,10,20,21,-1,20,12,18,-1,18,12,16,-1,22,23,24,-1,24,23,25,-1,26,27,22,-1,22,27,23,-1,28,29,26,-1,26,29,27,-1,24,25,28,-1,28,25,29,-1,30,31,32,-1,32,31,33,-1,31,26,33,-1,33,26,22,-1,30,28,31,-1,31,28,26,-1,24,32,22,-1,22,32,33,-1,32,24,30,-1,30,24,28,-1,
        ]
    }
}