#VRML V2.0 utf8
# 3D model generated by easyeda2kicad.py (https://github.com/uPesy/easyeda2kicad.py)

Shape{
    appearance Appearance {
        material  Material 	{
            diffuseColor 0.7686274509803922 0.7686274509803922 0.7686274509803922
            specularColor 0.615686274509804 0.615686274509804 0.615686274509804
            ambientIntensity 0.7686
            transparency 0.0
            shininess 0.5
        }
    }
    geometry IndexedFaceSet {
        ccw TRUE
        solid FALSE
        coord DEF co Coordinate {
            point [
                0.5315 -1.2782 0.5709, 0.5315 -1.2782 0.374, 0.5315 -0.9632 0.5709, 0.5315 -0.9632 0.374, 0.2559 -1.2782 0.5709, 0.2559 -0.9632 0.5709, 0.2559 -1.2782 0.374, 0.2559 -0.9632 0.374
            ]
        }
        coordIndex [
            0,1,2,-1,2,1,3,-1,4,0,5,-1,5,0,2,-1,6,4,7,-1,7,4,5,-1,1,6,3,-1,3,6,7,-1,4,6,0,-1,0,6,1,-1,7,5,3,-1,3,5,2,-1,
        ]
    }
}
Shape{
    appearance Appearance {
        material  Material 	{
            diffuseColor 0.25098039215686274 0.25098039215686274 0.25098039215686274
            specularColor 0.07450980392156863 0.07450980392156863 0.07450980392156863
            ambientIntensity 0.251
            transparency 0.0
            shininess 0.5
        }
    }
    geometry IndexedFaceSet {
        ccw TRUE
        solid FALSE
        coord DEF co Coordinate {
            point [
                1.6732 -0.9435 0.9055, 1.6732 -0.4915 0.9055, 1.0681 -0.4915 0.9055, 0.3208 0.285 0.9055, 0.3208 1.3411 0.9055, 0.0769 1.3411 0.9055, 1.6732 0.285 0.9055, 1.6732 1.3411 0.9055, 1.0681 1.3411 0.9055, 1.1632 0.2718 0.9055, 1.1652 0.272 0.9055, 1.0681 0.272 0.9055, 0.4913 0.0115 0.9055, 0.4924 0.013 0.9055, 0.389 0.013 0.9055, -0.2667 0.2445 0.9055, -0.3734 0.2445 0.9055, -0.3734 0.013 0.9055, -0.2667 0.2807 0.9055, -0.2667 0.272 0.9055, -0.2563 0.272 0.9055, -0.2563 0.013 0.9055, -0.3734 -0.0343 0.9055, -0.4147 0.013 0.9055, -0.4147 0.2445 0.9055, -0.7036 0.013 0.9055, -0.5214 0.2445 0.9055, -0.7036 0.272 0.9055, -0.5214 0.272 0.9055, -0.7036 0.285 0.9055, -0.5214 0.2807 0.9055, -0.2563 0.285 0.9055, 0.0769 0.272 0.9055, -0.0167 0.272 0.9055, -0.0051 0.2664 0.9055, 0.0622 0.1223 0.9055, 0.0584 0.0847 0.9055, 0.0769 0.013 0.9055, 0.0209 0.2445 0.9055, 0.0382 0.2176 0.9055, 0.055 0.1749 0.9055, -0.0337 0.2803 0.9055, 0.0769 0.285 0.9055, -0.0559 0.285 0.9055, -0.1686 0.272 0.9055, -0.1672 0.2729 0.9055, -0.0727 0.2885 0.9055, -0.091 0.2893 0.9055, -0.2563 1.3411 0.9055, -0.1294 0.285 0.9055, -0.1364 0.2842 0.9055, -0.2369 0.1829 0.9055, -0.2206 0.2207 0.9055, -0.1943 0.2548 0.9055, -0.2125 0.013 0.9055, -0.2208 0.026 0.9055, -0.2388 0.0706 0.9055, -0.2459 0.1223 0.9055, -0.2454 0.1321 0.9055, -0.4147 -0.0343 0.9055, -0.7036 -0.4915 0.9055, -0.2563 -0.4915 0.9055, -0.2097 0.0087 0.9055, 0.0097 -0.007 0.9055, -0.015 -0.0232 0.9055, 0.0769 -0.4915 0.9055, 0.0452 0.0418 0.9055, 0.0274 0.013 0.9055, 0.0226 0.0053 0.9055, -0.1263 -0.0367 0.9055, -0.163 -0.0259 0.9055, -0.1867 -0.0125 0.9055, -0.0463 -0.0345 0.9055, -0.091 -0.0395 0.9055, -0.1012 -0.0393 0.9055, 0.1019 0.1971 0.9055, 0.111 0.2238 0.9055, 0.0985 0.1636 0.9055, 0.0939 -0.0087 0.9055, 0.0998 0.013 0.9055, 0.1019 0.0207 0.9055, 0.1453 0.2046 0.9055, 0.1404 0.1874 0.9055, 0.1968 0.2393 0.9055, 0.1381 0.1636 0.9055, 0.2001 0.2393 0.9055, 0.1159 0.0466 0.9055, 0.1359 0.0687 0.9055, 0.1639 0.0879 0.9055, 0.2052 0.112 0.9055, 0.2287 0.1269 0.9055, 0.1261 0.2462 0.9055, 0.1342 0.2538 0.9055, 0.1503 0.2642 0.9055, 0.25 0.1447 0.9055, 0.253 0.1495 0.9055, 0.2591 0.1635 0.9055, 0.262 0.1843 0.9055, 0.262 0.1845 0.9055, 0.259 0.2017 0.9055, 0.2425 0.2266 0.9055, 0.2322 0.2328 0.9055, 0.2183 0.2373 0.9055, 0.18 0.2368 0.9055, 0.169 0.2324 0.9055, 0.1517 0.2168 0.9055, 0.1597 0.2259 0.9055, 0.2543 0.2129 0.9055, 0.2471 0.2225 0.9055, 0.1347 0.0018 0.9055, 0.3033 0.0018 0.9055, 0.3208 0.013 0.9055, 0.3033 -0.0343 0.9055, 0.3013 0.1591 0.9055, 0.2949 0.1416 0.9055, 0.2823 0.2432 0.9055, 0.3208 0.272 0.9055, 0.2688 0.2558 0.9055, 0.2522 0.2654 0.9055, 0.2833 0.1242 0.9055, 0.2582 0.1013 0.9055, 0.219 0.0793 0.9055, 0.2923 0.2279 0.9055, 0.2996 0.208 0.9055, 0.3033 0.1826 0.9055, 0.1863 0.0604 0.9055, 0.163 0.045 0.9055, 0.1468 0.0288 0.9055, 0.1389 0.0158 0.9055, 0.138 0.013 0.9055, 0.2052 0.2755 0.9055, 0.1738 0.272 0.9055, 0.1719 0.2718 0.9055, 0.2294 0.272 0.9055, 0.2252 0.2733 0.9055, 0.3509 0.0015 0.9055, 0.3458 0.013 0.9055, 0.3428 0.0198 0.9055, 0.3381 0.0431 0.9055, 0.3726 0.2686 0.9055, 0.5326 0.2686 0.9055, 0.5664 0.272 0.9055, 0.3777 0.0431 0.9055, 0.3829 0.0999 0.9055, 0.3502 0.1017 0.9055, 0.5106 0.1456 0.9055, 0.5269 0.1312 0.9055, 0.5326 0.2307 0.9055, 0.3791 0.0354 0.9055, 0.46 0.1266 0.9055, 0.4414 0.1292 0.9055, 0.4256 0.1277 0.9055, 0.5508 0.0509 0.9055, 0.5458 0.0276 0.9055, 0.5664 0.013 0.9055, 0.4095 0.1223 0.9055, 0.396 0.1136 0.9055, 0.4018 0.2307 0.9055, 0.3898 0.1464 0.9055, 0.4024 0.1544 0.9055, 0.5085 0.0604 0.9055, 0.5068 0.0755 0.9055, 0.5014 0.0933 0.9055, 0.4946 0.1049 0.9055, 0.3843 0.0202 0.9055, 0.4989 0.0229 0.9055, 0.505 0.0392 0.9055, 0.4911 0.1558 0.9055, 0.4855 0.1144 0.9055, 0.4743 0.1215 0.9055, 0.5385 0.1145 0.9055, 0.5469 0.093 0.9055, 0.5516 0.0655 0.9055, 0.4228 0.1622 0.9055, 0.4483 0.1653 0.9055, 0.4591 0.1641 0.9055, 0.4522 -0.0093 0.9055, 0.4448 -0.0102 0.9055, 0.4259 -0.0087 0.9055, 0.4115 -0.0046 0.9055, 0.391 0.01 0.9055, 0.3994 0.002 0.9055, 0.4698 -0.0043 0.9055, 0.4817 0.0025 0.9055, 0.5186 -0.0137 0.9055, 0.5007 -0.0264 0.9055, 0.5664 -0.4915 0.9055, 0.3948 -0.0328 0.9055, 0.3752 -0.0236 0.9055, 0.3208 -0.4915 0.9055, 0.361 -0.012 0.9055, 0.539 0.013 0.9055, 0.5361 0.0069 0.9055, 0.5206 -0.0119 0.9055, 0.0916 -0.0343 0.9055, 0.4777 -0.035 0.9055, 0.438 -0.0395 0.9055, 0.4257 -0.0389 0.9055, 0.5914 0.1971 0.9055, 0.6006 0.2238 0.9055, 0.5881 0.1636 0.9055, 0.5835 -0.0087 0.9055, 0.5894 0.013 0.9055, 0.5915 0.0207 0.9055, 0.6349 0.2046 0.9055, 0.63 0.1874 0.9055, 0.6864 0.2393 0.9055, 0.6277 0.1636 0.9055, 0.6896 0.2393 0.9055, 0.6054 0.0466 0.9055, 0.6254 0.0687 0.9055, 0.6535 0.0879 0.9055, 0.6948 0.112 0.9055, 0.7182 0.1269 0.9055, 0.6156 0.2462 0.9055, 0.6237 0.2538 0.9055, 0.6399 0.2642 0.9055, 0.7395 0.1447 0.9055, 0.7425 0.1495 0.9055, 0.7487 0.1635 0.9055, 0.7516 0.1843 0.9055, 0.7516 0.1845 0.9055, 0.7485 0.2017 0.9055, 0.7321 0.2266 0.9055, 0.7217 0.2328 0.9055, 0.7078 0.2373 0.9055, 0.6696 0.2368 0.9055, 0.6586 0.2324 0.9055, 0.6413 0.2168 0.9055, 0.6493 0.2259 0.9055, 0.7439 0.2129 0.9055, 0.7366 0.2225 0.9055, 0.6242 0.0018 0.9055, 0.7929 0.0018 0.9055, 0.8121 0.013 0.9055, 0.7929 -0.0343 0.9055, 0.7909 0.1591 0.9055, 0.7844 0.1416 0.9055, 0.719 0.272 0.9055, 0.7418 0.2654 0.9055, 0.8121 0.272 0.9055, 0.7584 0.2558 0.9055, 0.7719 0.2432 0.9055, 0.7729 0.1242 0.9055, 0.7478 0.1013 0.9055, 0.7086 0.0793 0.9055, 0.7818 0.2279 0.9055, 0.7891 0.208 0.9055, 0.7929 0.1826 0.9055, 0.6759 0.0604 0.9055, 0.6525 0.045 0.9055, 0.6364 0.0288 0.9055, 0.6284 0.0158 0.9055, 0.6276 0.013 0.9055, 0.6614 0.2718 0.9055, 0.6634 0.272 0.9055, 0.5664 0.285 0.9055, 0.6948 0.2755 0.9055, 0.8121 0.285 0.9055, 0.7147 0.2733 0.9055, 1.0681 0.013 0.9055, 1.0899 0.1636 0.9055, 1.1367 0.2046 0.9055, 1.1318 0.1874 0.9055, 1.1881 0.2393 0.9055, 1.1295 0.1636 0.9055, 1.1914 0.2393 0.9055, 1.1072 0.0466 0.9055, 1.0932 0.0207 0.9055, 1.0912 0.013 0.9055, 1.0853 -0.0087 0.9055, 1.0932 0.1971 0.9055, 1.1024 0.2238 0.9055, 1.1174 0.2462 0.9055, 1.1272 0.0687 0.9055, 1.1553 0.0879 0.9055, 1.1966 0.112 0.9055, 1.22 0.1269 0.9055, 1.1255 0.2538 0.9055, 1.1417 0.2642 0.9055, 1.2413 0.1447 0.9055, 1.2443 0.1495 0.9055, 1.2505 0.1635 0.9055, 1.2534 0.1843 0.9055, 1.2534 0.1845 0.9055, 1.2503 0.2017 0.9055, 1.2339 0.2266 0.9055, 1.2235 0.2328 0.9055, 1.2096 0.2373 0.9055, 1.1714 0.2368 0.9055, 1.1604 0.2324 0.9055, 1.1431 0.2168 0.9055, 1.1511 0.2259 0.9055, 1.2457 0.2129 0.9055, 1.2384 0.2225 0.9055, 1.083 -0.0343 0.9055, 1.2947 -0.0343 0.9055, 1.2947 0.0018 0.9055, 1.6732 0.013 0.9055, 1.2602 0.2558 0.9055, 1.2737 0.2432 0.9055, 1.6732 0.272 0.9055, 1.2836 0.2279 0.9055, 1.2862 0.1416 0.9055, 1.2747 0.1242 0.9055, 1.2496 0.1013 0.9055, 1.2103 0.0793 0.9055, 1.2909 0.208 0.9055, 1.2947 0.1826 0.9055, 1.2927 0.1591 0.9055, 1.1776 0.0604 0.9055, 1.1543 0.045 0.9055, 1.1382 0.0288 0.9055, 1.126 0.0018 0.9055, 1.1294 0.013 0.9055, 1.1302 0.0158 0.9055, 1.0681 0.285 0.9055, 1.1966 0.2755 0.9055, 1.2165 0.2733 0.9055, 1.2208 0.272 0.9055, 1.2436 0.2654 0.9055, 0.8121 1.3411 0.9055, 0.5664 1.3411 0.9055, -0.7036 1.3411 0.9055, 0.8311 0.0604 0.9055, 0.8311 0.0931 0.9055, 1.0532 0.0604 0.9055, 1.0532 0.0931 0.9055, 0.5812 -0.0343 0.9055, 0.8121 -0.4915 0.9055, -0.8858 1.3411 0.9055, -0.8858 0.285 0.9055, -0.8858 0.272 0.9055, -0.8858 0.013 0.9055, -0.8858 -0.4915 0.9055, 1.0681 -0.9435 0.9055, 0.8121 -0.9435 0.9055, 0.5664 -0.9435 0.9055, 0.3208 -0.9435 0.9055, 0.0769 -0.9435 0.9055, -0.2563 -0.9435 0.9055, -0.7036 -0.9435 0.9055, -0.8858 -0.9435 0.9055, -0.6457 -0.9611 0.5709, -0.8858 -0.9632 0.5906, -0.6457 -0.9404 0.374, -0.8858 -0.9011 0.0, -0.3701 -0.9404 0.374, 1.6732 -0.9011 0.0, 1.1575 -0.9404 0.374, -0.3701 -0.9611 0.5709, 1.1575 -0.9611 0.5709, 1.6732 -0.9632 0.5906, 1.4331 -0.9611 0.5709, 1.4331 -0.9404 0.374, 1.6929 -0.8813 0.0, 1.6929 1.4186 0.0, 1.6929 -0.9435 0.5916, 1.6929 1.3411 0.8858, 1.6929 -0.9435 0.8858, -0.5905 1.4384 0.0, -0.8858 1.4384 0.0, -0.5905 1.4211 0.1969, -0.8858 1.3607 0.8875, 1.378 1.4211 0.1969, 1.6732 1.3607 0.8875, 1.378 1.4384 0.0, 1.6732 1.4384 0.0, -0.9055 -0.9435 0.8858, -0.9055 1.3411 0.8858, -0.9055 -0.9435 0.5916, -0.9055 1.4186 0.0, -0.9055 -0.8813 0.0, 1.6732 -0.9632 0.8858, -0.8858 -0.9632 0.8858, -0.5905 1.3596 0.0, -0.3937 1.3596 0.0, -0.3937 1.2415 0.0, 1.1811 1.2415 0.0, 1.1811 1.3596 0.0, 1.378 1.2415 0.0, 1.378 1.3596 0.0, 1.6808 1.4369 0.0, 1.6831 1.4357 0.0, 1.6852 1.4343 0.0, 1.6872 1.4326 0.0, 1.6923 1.4237 0.0, 1.6903 1.4285 0.0, -0.8978 1.4343 0.0, -0.8997 1.4326 0.0, -0.9048 1.4237 0.0, -0.9029 1.4285 0.0, -0.8957 1.4357 0.0, -0.8933 1.4369 0.0, -0.8909 1.4377 0.0, 1.6872 -0.8953 0.0, 1.6852 -0.897 0.0, 1.2795 -0.3463 0.0, 1.3203 -0.315 0.0, 1.3516 -0.2742 0.0, 1.3713 -0.2267 0.0, 1.378 -0.1758 0.0, 1.6758 1.4382 0.0, 1.6783 1.4377 0.0, -0.5905 -0.1758 0.0, -0.5838 -0.2267 0.0, -0.4921 -0.3463 0.0, -0.8978 -0.897 0.0, -0.8997 -0.8953 0.0, 1.6903 -0.8912 0.0, -0.5905 1.2415 0.0, -0.8909 -0.9005 0.0, -0.8933 -0.8996 0.0, -0.8957 -0.8985 0.0, -0.8884 1.4382 0.0, -0.5642 -0.2742 0.0, -0.5329 -0.315 0.0, -0.9048 -0.8865 0.0, -0.9029 -0.8912 0.0, 1.1811 -0.3727 0.0, -0.3937 -0.3727 0.0, -0.4446 -0.3659 0.0, 1.6923 -0.8865 0.0, 1.6831 -0.8985 0.0, 1.6808 -0.8996 0.0, 1.6783 -0.9005 0.0, -0.8884 -0.901 0.0, 1.2321 -0.3659 0.0, 1.6758 -0.901 0.0, -0.9029 1.3509 0.8867, -0.8997 1.355 0.887, -0.9048 1.3462 0.8863, -0.9048 1.3462 0.8863, -0.8909 1.3601 0.8875, -0.8957 1.3581 0.8873, -0.8997 1.355 0.887, -0.8909 1.3601 0.8875, -0.8858 1.3455 0.905, -0.8858 1.3459 0.9049, 1.6732 1.3459 0.9049, -0.8858 1.3497 0.9035, 1.6732 1.3497 0.9035, -0.8858 1.3504 0.9031, 1.6732 1.3504 0.9031, -0.8858 1.3534 0.9012, 1.6732 1.3534 0.9012, -0.8858 1.3543 0.9003, 1.6732 1.3543 0.9003, -0.8858 1.3566 0.898, 1.6732 1.3566 0.898, -0.8858 1.3575 0.8966, 1.6732 1.3575 0.8966, -0.8858 1.3589 0.8942, 1.6732 1.3589 0.8942, -0.8858 1.3596 0.8922, 1.6732 1.3596 0.8922, -0.8858 1.3603 0.8901, 1.6732 1.3603 0.8901, 1.6732 1.3455 0.905, 1.6783 1.3601 0.8875, 1.6783 1.3601 0.8875, 1.6831 1.3581 0.8873, 1.6871 1.355 0.887, 1.6872 1.355 0.887, 1.6903 1.3509 0.8867, 1.6923 1.3462 0.8863, 1.6923 1.3462 0.8863, -0.9029 -0.9534 0.5911, -0.9048 -0.9486 0.5913, -0.8884 -0.963 0.5906, -0.8909 -0.9625 0.5906, -0.8933 -0.9617 0.5906, -0.8957 -0.9606 0.5907, -0.8978 -0.9591 0.5908, -0.8997 -0.9574 0.5909, -0.8941 1.3433 0.9035, -0.8901 1.3423 0.905, -0.8896 1.3433 0.905, -0.8902 1.3411 0.905, -0.9044 1.3461 0.8901, -0.9025 1.3507 0.8901, -0.8994 1.3547 0.8901, -0.8954 1.3578 0.8901, -0.8908 1.3597 0.8901, -0.8869 1.3454 0.905, -0.888 1.3449 0.905, -0.8932 1.3454 0.9035, -0.8889 1.3442 0.905, -0.8919 1.3472 0.9035, -0.8901 1.3485 0.9035, -0.888 1.3494 0.9035, -0.8981 1.3411 0.9012, -0.8956 1.3411 0.9028, -0.8944 1.3411 0.9035, -0.8909 1.3411 0.9048, -0.8977 1.3443 0.9012, -0.8965 1.3473 0.9012, -0.8945 1.3498 0.9012, -0.892 1.3518 0.9012, -0.889 1.353 0.9012, -0.9028 1.3411 0.8956, -0.9013 1.3411 0.898, -0.9007 1.3451 0.898, -0.8996 1.3411 0.8997, -0.8992 1.3488 0.898, -0.8967 1.352 0.898, -0.8935 1.3545 0.898, -0.8898 1.356 0.898, -0.9047 1.3411 0.8909, -0.9036 1.3411 0.8942, -0.903 1.3457 0.8942, -0.9012 1.35 0.8942, -0.8984 1.3537 0.8942, -0.8947 1.3565 0.8942, -0.8904 1.3583 0.8942, -0.905 1.3411 0.8901, 1.6755 1.3494 0.9035, 1.6744 1.3454 0.905, 1.6755 1.3449 0.905, 1.6782 1.3597 0.8901, 1.6829 1.3578 0.8901, 1.6868 1.3547 0.8901, 1.6899 1.3507 0.8901, 1.6918 1.3461 0.8901, 1.6925 1.3411 0.8901, 1.6777 1.3411 0.905, 1.6775 1.3423 0.905, 1.6783 1.3411 0.9048, 1.6771 1.3433 0.905, 1.6775 1.3485 0.9035, 1.6764 1.3442 0.905, 1.6793 1.3472 0.9035, 1.6807 1.3454 0.9035, 1.6815 1.3433 0.9035, 1.6764 1.353 0.9012, 1.6794 1.3518 0.9012, 1.682 1.3498 0.9012, 1.6839 1.3473 0.9012, 1.6852 1.3443 0.9012, 1.6772 1.356 0.898, 1.6818 1.3411 0.9035, 1.683 1.3411 0.9028, 1.6856 1.3411 0.9012, 1.6871 1.3411 0.8997, 1.6882 1.3451 0.898, 1.6866 1.3488 0.898, 1.6842 1.352 0.898, 1.681 1.3545 0.898, 1.6779 1.3583 0.8942, 1.6821 1.3565 0.8942, 1.6858 1.3537 0.8942, 1.6887 1.35 0.8942, 1.6904 1.3457 0.8942, 1.6887 1.3411 0.898, 1.6902 1.3411 0.8956, 1.691 1.3411 0.8942, 1.6922 1.3411 0.8909, 1.6758 -0.963 0.5906, 1.6783 -0.9625 0.5906, 1.6808 -0.9617 0.5906, 1.6831 -0.9606 0.5907, 1.6852 -0.9591 0.5908, 1.6872 -0.9574 0.5909, 1.6903 -0.9534 0.5911, 1.6923 -0.9486 0.5913, -0.8909 -0.9625 0.8858, -0.8957 -0.9606 0.8858, -0.8997 -0.9574 0.8858, -0.9029 -0.9534 0.8858, -0.9048 -0.9486 0.8858, -0.8909 -0.9435 0.9048, -0.8957 -0.9435 0.9029, -0.8997 -0.9435 0.8997, -0.9029 -0.9435 0.8957, -0.9048 -0.9435 0.8909, 1.6783 -0.9435 0.9048, 1.6831 -0.9435 0.9029, 1.6872 -0.9435 0.8997, 1.6903 -0.9435 0.8957, 1.6923 -0.9435 0.8909, 1.6923 -0.9486 0.8858, 1.6903 -0.9534 0.8858, 1.6872 -0.9574 0.8858, 1.6831 -0.9606 0.8858, 1.6783 -0.9625 0.8858, -0.8858 -0.9625 0.8909, -0.8907 -0.9619 0.8909, -0.8907 -0.952 0.9029, -0.8884 -0.9479 0.9048, -0.8894 -0.9471 0.9048, -0.8907 -0.9448 0.9048, -0.8871 -0.9484 0.9048, -0.8884 -0.953 0.9029, -0.8894 -0.957 0.8997, -0.8858 -0.9486 0.9048, -0.8928 -0.9505 0.9029, -0.8902 -0.9461 0.9048, -0.8943 -0.9484 0.9029, -0.8953 -0.9461 0.9029, -0.8858 -0.9534 0.9029, -0.8858 -0.9574 0.8997, -0.8858 -0.9606 0.8957, -0.8928 -0.9556 0.8997, -0.8957 -0.9534 0.8997, -0.8979 -0.9505 0.8997, -0.8993 -0.9471 0.8997, -0.8902 -0.96 0.8957, -0.8943 -0.9583 0.8957, -0.8979 -0.9556 0.8957, -0.9006 -0.952 0.8957, -0.9023 -0.9479 0.8957, -0.8953 -0.96 0.8909, -0.8993 -0.957 0.8909, -0.9023 -0.953 0.8909, -0.9042 -0.9484 0.8909, 1.6916 -0.9484 0.8909, 1.6818 -0.9484 0.9029, 1.6777 -0.9461 0.9048, 1.6769 -0.9471 0.9048, 1.6732 -0.9486 0.9048, 1.6746 -0.9484 0.9048, 1.6782 -0.9448 0.9048, 1.6828 -0.9461 0.9029, 1.6867 -0.9471 0.8997, 1.6802 -0.9505 0.9029, 1.6758 -0.9479 0.9048, 1.6782 -0.952 0.9029, 1.6758 -0.953 0.9029, 1.6732 -0.9534 0.9029, 1.6853 -0.9505 0.8997, 1.6831 -0.9534 0.8997, 1.6802 -0.9556 0.8997, 1.6769 -0.957 0.8997, 1.6732 -0.9574 0.8997, 1.6897 -0.9479 0.8957, 1.688 -0.952 0.8957, 1.6853 -0.9556 0.8957, 1.6818 -0.9583 0.8957, 1.6777 -0.96 0.8957, 1.6732 -0.9606 0.8957, 1.6897 -0.953 0.8909, 1.6867 -0.957 0.8909, 1.6828 -0.96 0.8909, 1.6782 -0.9619 0.8909, 1.6732 -0.9625 0.8909, 1.1811 1.3596 0.1969, 1.378 1.3596 0.1969, -0.5905 1.3596 0.1969, -0.3937 1.3596 0.1969, -0.3937 1.2415 0.1969, 1.1811 1.2415 0.1969, -0.4446 -0.3659 0.1969, -0.3937 -0.3727 0.1969, 1.378 1.2415 0.1969, 1.378 -0.1758 0.1969, 1.1811 -0.3727 0.1969, 1.3713 -0.2267 0.1969, -0.5329 -0.315 0.1969, -0.5642 -0.2742 0.1969, -0.4921 -0.3463 0.1969, -0.5905 1.2415 0.1969, -0.5905 -0.1758 0.1969, -0.5838 -0.2267 0.1969, 1.3516 -0.2742 0.1969, 1.3203 -0.315 0.1969, 1.2795 -0.3463 0.1969, 1.2321 -0.3659 0.1969
            ]
        }
        coordIndex [
            0,1,2,-1,3,4,5,-1,6,7,8,-1,9,10,11,-1,12,13,14,-1,15,16,17,-1,18,19,20,-1,20,19,15,-1,20,15,21,-1,21,15,17,-1,21,17,22,-1,23,24,25,-1,25,24,26,-1,25,26,27,-1,27,26,28,-1,27,28,29,-1,30,18,31,-1,32,33,34,-1,35,36,37,-1,34,38,32,-1,32,38,39,-1,32,39,40,-1,33,32,41,-1,41,32,42,-1,41,42,43,-1,18,20,31,-1,31,20,44,-1,31,44,45,-1,46,5,47,-1,47,5,48,-1,47,48,49,-1,49,48,31,-1,49,31,50,-1,50,31,45,-1,51,52,20,-1,20,52,53,-1,20,53,44,-1,21,54,55,-1,55,56,21,-1,21,56,57,-1,21,57,20,-1,20,57,58,-1,20,58,51,-1,23,25,59,-1,59,25,60,-1,59,60,22,-1,22,60,61,-1,22,61,21,-1,21,61,62,-1,21,62,54,-1,63,64,65,-1,36,66,37,-1,37,66,67,-1,37,67,65,-1,65,67,68,-1,65,68,63,-1,69,70,61,-1,61,70,71,-1,61,71,62,-1,64,72,65,-1,65,72,73,-1,65,73,61,-1,61,73,74,-1,61,74,69,-1,75,76,32,-1,75,32,77,-1,78,79,37,-1,37,79,80,-1,81,82,83,-1,83,82,84,-1,83,84,85,-1,40,35,32,-1,32,35,37,-1,32,37,77,-1,77,37,80,-1,77,80,86,-1,86,87,77,-1,77,87,88,-1,77,88,84,-1,84,88,89,-1,84,89,90,-1,76,91,32,-1,32,91,92,-1,32,92,93,-1,90,94,84,-1,84,94,95,-1,84,95,96,-1,96,97,84,-1,84,97,98,-1,84,98,99,-1,100,101,84,-1,84,101,102,-1,84,102,85,-1,83,103,81,-1,81,103,104,-1,81,104,105,-1,105,104,106,-1,99,107,84,-1,84,107,108,-1,84,108,100,-1,109,110,111,-1,111,110,112,-1,111,113,114,-1,115,116,117,-1,117,116,118,-1,114,119,111,-1,111,119,120,-1,111,120,121,-1,115,122,116,-1,116,122,123,-1,116,123,124,-1,121,125,111,-1,111,125,126,-1,111,126,127,-1,127,128,111,-1,111,128,129,-1,111,129,109,-1,130,42,131,-1,131,42,32,-1,131,32,132,-1,132,32,93,-1,118,116,133,-1,133,116,3,-1,133,3,134,-1,135,136,111,-1,111,136,137,-1,111,137,138,-1,139,140,141,-1,138,142,143,-1,143,144,138,-1,138,144,116,-1,138,116,111,-1,111,116,124,-1,111,124,113,-1,145,146,147,-1,148,149,142,-1,142,149,150,-1,142,150,151,-1,152,153,154,-1,151,155,142,-1,142,155,156,-1,142,156,143,-1,157,158,159,-1,160,161,148,-1,148,161,162,-1,148,162,163,-1,14,13,164,-1,164,13,165,-1,164,165,148,-1,148,165,166,-1,148,166,160,-1,145,147,167,-1,163,168,148,-1,148,168,169,-1,148,169,149,-1,146,170,147,-1,147,170,171,-1,147,171,154,-1,154,171,172,-1,154,172,152,-1,159,173,157,-1,157,173,174,-1,157,174,147,-1,147,174,175,-1,147,175,167,-1,176,14,177,-1,177,14,178,-1,178,14,179,-1,179,14,180,-1,179,180,181,-1,176,182,14,-1,14,182,183,-1,14,183,12,-1,184,185,186,-1,187,188,189,-1,189,188,190,-1,153,191,154,-1,154,191,192,-1,154,192,186,-1,186,192,193,-1,186,193,184,-1,78,37,194,-1,194,37,65,-1,194,65,112,-1,112,65,189,-1,112,189,111,-1,111,189,190,-1,111,190,135,-1,185,195,186,-1,186,195,196,-1,186,196,189,-1,189,196,197,-1,189,197,187,-1,198,199,141,-1,198,141,200,-1,201,202,154,-1,154,202,203,-1,204,205,206,-1,206,205,207,-1,206,207,208,-1,140,147,141,-1,141,147,154,-1,141,154,200,-1,200,154,203,-1,200,203,209,-1,209,210,200,-1,200,210,211,-1,200,211,207,-1,207,211,212,-1,207,212,213,-1,199,214,141,-1,141,214,215,-1,141,215,216,-1,213,217,207,-1,207,217,218,-1,207,218,219,-1,219,220,207,-1,207,220,221,-1,207,221,222,-1,223,224,207,-1,207,224,225,-1,207,225,208,-1,206,226,204,-1,204,226,227,-1,204,227,228,-1,228,227,229,-1,222,230,207,-1,207,230,231,-1,207,231,223,-1,232,233,234,-1,234,233,235,-1,234,236,237,-1,238,239,240,-1,240,239,241,-1,240,241,242,-1,237,243,234,-1,234,243,244,-1,234,244,245,-1,242,246,240,-1,240,246,247,-1,240,247,248,-1,245,249,234,-1,234,249,250,-1,234,250,251,-1,251,252,234,-1,234,252,253,-1,234,253,232,-1,216,254,141,-1,141,254,255,-1,141,255,256,-1,256,255,257,-1,256,257,258,-1,258,257,259,-1,258,259,238,-1,11,260,261,-1,262,263,264,-1,264,263,265,-1,264,265,266,-1,267,261,268,-1,268,261,260,-1,268,260,269,-1,269,260,270,-1,261,271,11,-1,11,271,272,-1,11,272,273,-1,267,274,261,-1,261,274,275,-1,261,275,265,-1,265,275,276,-1,265,276,277,-1,273,278,11,-1,11,278,279,-1,11,279,9,-1,277,280,265,-1,265,280,281,-1,265,281,282,-1,282,283,265,-1,265,283,284,-1,265,284,285,-1,286,287,265,-1,265,287,288,-1,265,288,266,-1,264,289,262,-1,262,289,290,-1,262,290,291,-1,291,290,292,-1,285,293,265,-1,265,293,294,-1,265,294,286,-1,295,2,296,-1,296,2,1,-1,296,1,297,-1,297,1,298,-1,299,300,301,-1,301,300,302,-1,303,304,298,-1,298,304,305,-1,298,305,306,-1,302,307,301,-1,301,307,308,-1,301,308,298,-1,298,308,309,-1,298,309,303,-1,306,310,298,-1,298,310,311,-1,298,311,312,-1,313,297,314,-1,314,297,298,-1,314,298,315,-1,315,298,312,-1,6,316,317,-1,317,318,6,-1,6,318,319,-1,6,319,301,-1,301,319,320,-1,301,320,299,-1,6,8,316,-1,316,8,321,-1,316,321,258,-1,258,321,322,-1,258,322,256,-1,46,43,5,-1,5,43,42,-1,5,42,3,-1,3,42,130,-1,3,130,134,-1,48,323,31,-1,31,323,29,-1,31,29,30,-1,30,29,28,-1,238,240,258,-1,258,240,11,-1,258,11,316,-1,316,11,10,-1,316,10,317,-1,322,4,256,-1,256,4,3,-1,256,3,141,-1,141,3,116,-1,141,116,139,-1,139,116,144,-1,234,324,325,-1,324,234,326,-1,326,234,260,-1,326,260,327,-1,327,260,11,-1,327,11,325,-1,325,11,240,-1,325,240,234,-1,234,240,248,-1,234,248,236,-1,201,154,328,-1,328,154,186,-1,328,186,235,-1,235,186,329,-1,235,329,234,-1,234,329,2,-1,234,2,260,-1,260,2,295,-1,260,295,270,-1,323,330,29,-1,29,330,331,-1,29,331,27,-1,27,331,332,-1,27,332,25,-1,25,332,333,-1,25,333,60,-1,60,333,334,-1,0,2,335,-1,335,2,329,-1,335,329,336,-1,336,329,186,-1,336,186,337,-1,337,186,189,-1,337,189,338,-1,338,189,65,-1,338,65,339,-1,339,65,61,-1,339,61,340,-1,340,61,60,-1,340,60,341,-1,341,60,334,-1,341,334,342,-1,343,344,345,-1,345,344,346,-1,345,346,347,-1,346,348,347,-1,347,348,349,-1,347,349,350,-1,350,349,351,-1,343,350,344,-1,344,350,351,-1,344,351,352,-1,352,351,353,-1,352,353,348,-1,348,353,354,-1,348,354,349,-1,355,356,357,-1,357,356,358,-1,357,358,359,-1,360,361,362,-1,362,361,363,-1,362,363,364,-1,364,363,365,-1,364,365,366,-1,366,365,367,-1,368,369,370,-1,370,369,371,-1,370,371,372,-1,373,374,352,-1,352,374,344,-1,356,355,367,-1,375,376,377,-1,361,360,375,-1,378,379,380,-1,380,379,381,-1,382,383,356,-1,383,384,356,-1,356,384,385,-1,356,385,386,-1,386,385,387,-1,388,371,389,-1,389,371,390,-1,389,390,391,-1,388,392,371,-1,371,392,393,-1,371,393,394,-1,395,396,397,-1,398,399,355,-1,355,399,400,-1,355,400,401,-1,367,402,356,-1,356,402,403,-1,356,403,382,-1,404,405,372,-1,406,407,408,-1,395,397,409,-1,366,367,381,-1,381,367,355,-1,381,355,380,-1,380,355,401,-1,404,372,410,-1,411,412,406,-1,406,412,413,-1,406,413,407,-1,377,410,375,-1,375,410,372,-1,375,372,361,-1,361,372,371,-1,361,371,414,-1,414,371,394,-1,405,415,372,-1,372,415,416,-1,372,416,417,-1,417,416,406,-1,417,406,418,-1,418,406,408,-1,419,348,420,-1,420,348,346,-1,420,346,421,-1,398,355,397,-1,397,355,422,-1,397,422,409,-1,396,423,397,-1,397,423,424,-1,397,424,425,-1,421,346,406,-1,406,346,426,-1,406,426,411,-1,419,427,348,-1,348,427,397,-1,348,397,428,-1,428,397,425,-1,391,429,430,-1,369,431,371,-1,371,431,390,-1,390,431,391,-1,391,431,432,-1,391,432,429,-1,433,393,434,-1,434,393,392,-1,434,392,435,-1,435,392,388,-1,435,388,430,-1,430,388,389,-1,430,389,391,-1,363,361,436,-1,436,361,414,-1,436,414,433,-1,433,414,394,-1,433,394,393,-1,437,330,323,-1,437,323,438,-1,438,323,48,-1,438,48,5,-1,4,322,439,-1,5,4,438,-1,438,4,439,-1,438,439,440,-1,440,439,441,-1,440,441,442,-1,442,441,443,-1,442,443,444,-1,444,443,445,-1,444,445,446,-1,446,445,447,-1,446,447,448,-1,448,447,449,-1,448,449,450,-1,450,449,451,-1,450,451,452,-1,452,451,453,-1,452,453,454,-1,454,453,455,-1,454,455,456,-1,456,455,457,-1,456,457,363,-1,363,457,365,-1,322,321,439,-1,439,321,8,-1,439,8,458,-1,458,8,7,-1,367,365,402,-1,402,365,459,-1,402,459,403,-1,403,459,460,-1,403,460,382,-1,382,460,461,-1,382,461,383,-1,383,461,384,-1,384,461,462,-1,384,462,385,-1,462,463,385,-1,385,463,464,-1,385,464,387,-1,387,464,465,-1,387,465,386,-1,465,466,386,-1,386,466,358,-1,386,358,356,-1,408,467,418,-1,418,467,468,-1,418,468,417,-1,417,468,370,-1,417,370,372,-1,346,344,426,-1,426,344,469,-1,426,469,411,-1,411,469,470,-1,411,470,412,-1,412,470,471,-1,412,471,413,-1,413,471,472,-1,413,472,407,-1,407,472,473,-1,407,473,408,-1,408,473,474,-1,408,474,467,-1,475,476,477,-1,477,476,330,-1,478,330,476,-1,431,479,432,-1,432,479,480,-1,432,480,429,-1,429,480,430,-1,430,480,481,-1,430,481,435,-1,435,481,482,-1,435,482,434,-1,434,482,433,-1,433,482,483,-1,433,483,436,-1,436,483,456,-1,436,456,363,-1,330,437,484,-1,484,437,438,-1,485,330,484,-1,486,487,488,-1,488,487,485,-1,488,485,489,-1,489,485,484,-1,489,484,490,-1,490,484,438,-1,491,492,475,-1,475,492,493,-1,475,493,476,-1,476,493,494,-1,476,494,478,-1,495,486,496,-1,496,486,488,-1,496,488,497,-1,497,488,489,-1,497,489,498,-1,498,489,490,-1,498,490,499,-1,500,501,502,-1,502,501,503,-1,438,440,490,-1,490,440,442,-1,490,442,499,-1,499,442,444,-1,499,444,446,-1,503,495,502,-1,502,495,496,-1,502,496,504,-1,504,496,497,-1,504,497,505,-1,505,497,498,-1,505,498,506,-1,506,498,499,-1,506,499,507,-1,507,499,446,-1,508,509,510,-1,510,509,500,-1,500,502,510,-1,510,502,504,-1,510,504,511,-1,511,504,505,-1,511,505,512,-1,512,505,506,-1,512,506,513,-1,513,506,507,-1,513,507,514,-1,487,330,485,-1,503,491,495,-1,495,491,475,-1,495,475,486,-1,486,475,477,-1,486,477,487,-1,487,477,330,-1,508,479,515,-1,515,479,431,-1,515,431,369,-1,446,448,507,-1,507,448,450,-1,507,450,514,-1,514,450,452,-1,514,452,454,-1,508,510,479,-1,479,510,511,-1,479,511,480,-1,480,511,512,-1,480,512,481,-1,481,512,513,-1,481,513,482,-1,482,513,514,-1,482,514,483,-1,483,514,454,-1,483,454,456,-1,516,517,518,-1,518,517,7,-1,459,519,460,-1,460,519,520,-1,460,520,461,-1,461,520,521,-1,461,521,462,-1,462,521,463,-1,463,521,522,-1,463,522,464,-1,464,522,523,-1,464,523,465,-1,465,523,466,-1,466,523,524,-1,466,524,358,-1,443,441,516,-1,516,441,439,-1,516,439,517,-1,517,439,458,-1,517,458,7,-1,7,525,526,-1,526,525,527,-1,528,7,526,-1,529,530,531,-1,531,530,528,-1,531,528,532,-1,532,528,526,-1,532,526,533,-1,533,526,527,-1,534,529,535,-1,535,529,531,-1,535,531,536,-1,536,531,532,-1,536,532,537,-1,537,532,533,-1,537,533,538,-1,451,449,539,-1,539,449,447,-1,527,540,533,-1,533,540,541,-1,533,541,538,-1,538,541,542,-1,538,542,543,-1,543,544,538,-1,538,544,545,-1,538,545,537,-1,537,545,546,-1,537,546,536,-1,536,546,547,-1,536,547,535,-1,535,547,539,-1,535,539,534,-1,534,539,447,-1,534,447,445,-1,455,453,548,-1,548,453,451,-1,451,539,548,-1,548,539,547,-1,548,547,549,-1,549,547,546,-1,549,546,550,-1,550,546,545,-1,550,545,551,-1,551,545,544,-1,551,544,552,-1,530,7,528,-1,445,443,534,-1,534,443,516,-1,534,516,529,-1,529,516,518,-1,529,518,530,-1,530,518,7,-1,459,365,519,-1,519,365,457,-1,519,457,455,-1,543,553,544,-1,544,553,554,-1,544,554,552,-1,552,554,555,-1,552,555,556,-1,455,548,519,-1,519,548,549,-1,519,549,520,-1,520,549,550,-1,520,550,521,-1,521,550,551,-1,521,551,522,-1,522,551,552,-1,522,552,523,-1,523,552,556,-1,523,556,524,-1,352,348,557,-1,557,348,428,-1,557,428,558,-1,558,428,425,-1,558,425,559,-1,559,425,424,-1,559,424,560,-1,560,424,423,-1,560,423,561,-1,561,423,396,-1,561,396,562,-1,396,395,562,-1,562,395,409,-1,562,409,563,-1,563,409,422,-1,563,422,564,-1,564,422,355,-1,564,355,357,-1,344,374,469,-1,469,374,565,-1,469,565,470,-1,470,565,471,-1,471,565,566,-1,471,566,472,-1,472,566,473,-1,473,566,567,-1,473,567,474,-1,474,567,568,-1,474,568,467,-1,467,568,569,-1,467,569,468,-1,468,569,368,-1,468,368,370,-1,342,334,570,-1,570,334,333,-1,333,332,570,-1,570,332,331,-1,570,331,478,-1,478,331,330,-1,478,494,570,-1,570,494,493,-1,570,493,571,-1,493,492,571,-1,571,492,491,-1,571,491,572,-1,572,491,503,-1,572,503,573,-1,503,501,573,-1,573,501,500,-1,573,500,574,-1,500,509,574,-1,574,509,508,-1,574,508,368,-1,368,508,515,-1,368,515,369,-1,525,7,6,-1,525,6,527,-1,301,298,575,-1,575,298,1,-1,575,1,0,-1,6,301,527,-1,527,301,575,-1,527,575,540,-1,540,575,541,-1,541,575,576,-1,541,576,542,-1,542,576,543,-1,543,576,577,-1,543,577,553,-1,553,577,578,-1,553,578,554,-1,554,578,555,-1,555,578,579,-1,555,579,556,-1,556,579,524,-1,524,579,359,-1,524,359,358,-1,357,359,580,-1,357,580,564,-1,564,580,581,-1,564,581,563,-1,563,581,582,-1,563,582,562,-1,562,582,561,-1,561,582,583,-1,561,583,560,-1,560,583,559,-1,559,583,584,-1,559,584,558,-1,558,584,557,-1,557,584,373,-1,557,373,352,-1,374,585,586,-1,587,588,589,-1,342,570,590,-1,589,588,342,-1,591,342,588,-1,591,588,592,-1,592,588,587,-1,592,587,593,-1,594,342,591,-1,595,596,597,-1,597,596,590,-1,597,590,598,-1,598,590,570,-1,598,570,571,-1,594,591,599,-1,599,591,592,-1,599,592,600,-1,600,592,593,-1,600,593,601,-1,602,595,603,-1,603,595,597,-1,603,597,604,-1,604,597,598,-1,604,598,605,-1,605,598,571,-1,605,571,572,-1,606,602,607,-1,607,602,603,-1,607,603,608,-1,608,603,604,-1,608,604,609,-1,609,604,605,-1,609,605,610,-1,610,605,572,-1,610,572,573,-1,585,606,586,-1,586,606,607,-1,586,607,611,-1,611,607,608,-1,611,608,612,-1,612,608,609,-1,612,609,613,-1,613,609,610,-1,613,610,614,-1,614,610,573,-1,614,573,574,-1,374,586,565,-1,565,586,611,-1,565,611,566,-1,566,611,612,-1,566,612,567,-1,567,612,613,-1,567,613,568,-1,568,613,614,-1,568,614,569,-1,569,614,574,-1,569,574,368,-1,596,342,590,-1,585,601,606,-1,606,601,593,-1,606,593,602,-1,602,593,587,-1,602,587,595,-1,595,587,589,-1,595,589,596,-1,596,589,342,-1,359,579,615,-1,616,617,618,-1,0,619,620,-1,618,617,0,-1,621,0,617,-1,621,617,622,-1,622,617,616,-1,622,616,623,-1,575,0,621,-1,624,625,626,-1,626,625,620,-1,626,620,627,-1,627,620,619,-1,627,619,628,-1,575,621,576,-1,576,621,622,-1,576,622,577,-1,577,622,623,-1,577,623,578,-1,629,624,630,-1,630,624,626,-1,630,626,631,-1,631,626,627,-1,631,627,632,-1,632,627,628,-1,632,628,633,-1,634,629,635,-1,635,629,630,-1,635,630,636,-1,636,630,631,-1,636,631,637,-1,637,631,632,-1,637,632,638,-1,638,632,633,-1,638,633,639,-1,579,634,615,-1,615,634,635,-1,615,635,640,-1,640,635,636,-1,640,636,641,-1,641,636,637,-1,641,637,642,-1,642,637,638,-1,642,638,643,-1,643,638,639,-1,643,639,644,-1,359,615,580,-1,580,615,640,-1,580,640,581,-1,581,640,641,-1,581,641,582,-1,582,641,642,-1,582,642,583,-1,583,642,643,-1,583,643,584,-1,584,643,644,-1,584,644,373,-1,625,0,620,-1,579,578,634,-1,634,578,623,-1,634,623,629,-1,629,623,616,-1,629,616,624,-1,624,616,618,-1,624,618,625,-1,625,618,0,-1,0,335,619,-1,619,335,336,-1,336,337,619,-1,619,337,338,-1,619,338,339,-1,339,340,594,-1,594,340,341,-1,594,341,342,-1,339,594,619,-1,619,594,599,-1,619,599,628,-1,628,599,600,-1,628,600,633,-1,633,600,601,-1,633,601,639,-1,639,601,585,-1,639,585,644,-1,644,585,374,-1,644,374,373,-1,362,364,645,-1,645,364,646,-1,647,362,648,-1,648,362,645,-1,648,645,649,-1,649,645,650,-1,649,650,651,-1,651,650,652,-1,650,653,652,-1,652,653,654,-1,652,654,655,-1,655,654,656,-1,657,658,659,-1,659,658,651,-1,660,649,661,-1,661,649,651,-1,661,651,662,-1,662,651,658,-1,656,663,664,-1,664,665,656,-1,656,665,666,-1,656,666,655,-1,646,364,381,-1,381,364,366,-1,375,360,647,-1,647,360,362,-1,647,648,375,-1,375,648,376,-1,648,649,376,-1,376,649,377,-1,649,660,377,-1,377,660,410,-1,660,661,410,-1,410,661,404,-1,652,420,651,-1,651,420,421,-1,651,421,659,-1,659,421,406,-1,659,406,657,-1,657,406,416,-1,657,416,658,-1,658,416,415,-1,658,415,662,-1,662,415,405,-1,662,405,661,-1,661,405,404,-1,652,655,420,-1,420,655,419,-1,654,401,656,-1,656,401,400,-1,656,400,663,-1,663,400,399,-1,663,399,664,-1,664,399,398,-1,664,398,665,-1,665,398,397,-1,665,397,666,-1,666,397,427,-1,666,427,655,-1,655,427,419,-1,654,653,401,-1,401,653,380,-1,653,650,380,-1,380,650,378,-1,650,645,378,-1,378,645,379,-1,645,646,379,-1,379,646,381,-1,
        ]
    }
}
Shape{
    appearance Appearance {
        material  Material 	{
            diffuseColor 0.7686274509803922 0.7686274509803922 0.7686274509803922
            specularColor 0.615686274509804 0.615686274509804 0.615686274509804
            ambientIntensity 0.7686
            transparency 0.0
            shininess 0.5
        }
    }
    geometry IndexedFaceSet {
        ccw TRUE
        solid FALSE
        coord DEF co Coordinate {
            point [
                1.1575 -1.9526 0.1967, 1.4331 -1.9526 0.1967, 1.1575 -1.6548 0.2123, 1.4331 -1.6548 0.2123, 1.1575 -1.9423 0.0001, 1.1575 -1.6445 0.0157, 1.4331 -1.9423 0.0001, 1.4331 -1.6445 0.0157, 1.4331 -1.5793 0.2542, 1.1575 -1.5793 0.2542, 1.4331 -1.5941 0.2375, 1.1575 -1.5941 0.2375, 1.4331 -1.6122 0.2245, 1.1575 -1.6122 0.2245, 1.4331 -1.6328 0.216, 1.1575 -1.6328 0.216, 1.1575 -1.4181 0.1413, 1.1575 -1.4624 0.0912, 1.1575 -1.5168 0.0524, 1.1575 -1.5785 0.0268, 1.4331 -1.5785 0.0268, 1.4331 -1.5168 0.0524, 1.4331 -1.4624 0.0912, 1.4331 -1.4181 0.1413, 1.1575 -1.4457 0.445, 1.4331 -1.4457 0.445, 1.1575 -1.2845 0.332, 1.4331 -1.2845 0.332, 1.4331 -1.3985 0.4976, 1.1575 -1.3985 0.4976, 1.4331 -1.3402 0.5375, 1.1575 -1.3402 0.5375, 1.4331 -1.274 0.5624, 1.1575 -1.274 0.5624, 1.4331 -1.2038 0.5709, 1.1575 -1.2038 0.5709, 1.1575 -1.2687 0.3496, 1.1575 -1.2493 0.3629, 1.1575 -1.2272 0.3712, 1.1575 -1.2038 0.374, 1.4331 -1.2038 0.374, 1.4331 -1.2272 0.3712, 1.4331 -1.2493 0.3629, 1.4331 -1.2687 0.3496, 1.4331 -0.9611 0.5709, 1.4331 -0.9404 0.374, 1.1575 -0.9611 0.5709, 1.1575 -0.9404 0.374, -0.6457 -1.9526 0.1967, -0.3701 -1.9526 0.1967, -0.6457 -1.6548 0.2123, -0.3701 -1.6548 0.2123, -0.6457 -1.9423 0.0001, -0.6457 -1.6445 0.0157, -0.3701 -1.9423 0.0001, -0.3701 -1.6445 0.0157, -0.3701 -1.5793 0.2542, -0.6457 -1.5793 0.2542, -0.3701 -1.5941 0.2375, -0.6457 -1.5941 0.2375, -0.3701 -1.6122 0.2245, -0.6457 -1.6122 0.2245, -0.3701 -1.6328 0.216, -0.6457 -1.6328 0.216, -0.6457 -1.4181 0.1413, -0.6457 -1.4624 0.0912, -0.6457 -1.5168 0.0524, -0.6457 -1.5785 0.0268, -0.3701 -1.5785 0.0268, -0.3701 -1.5168 0.0524, -0.3701 -1.4624 0.0912, -0.3701 -1.4181 0.1413, -0.6457 -1.4457 0.445, -0.3701 -1.4457 0.445, -0.6457 -1.2845 0.332, -0.3701 -1.2845 0.332, -0.3701 -1.3985 0.4976, -0.6457 -1.3985 0.4976, -0.3701 -1.3402 0.5375, -0.6457 -1.3402 0.5375, -0.3701 -1.274 0.5624, -0.6457 -1.274 0.5624, -0.3701 -1.2038 0.5709, -0.6457 -1.2038 0.5709, -0.6457 -1.2687 0.3496, -0.6457 -1.2493 0.3629, -0.6457 -1.2272 0.3712, -0.6457 -1.2038 0.374, -0.3701 -1.2038 0.374, -0.3701 -1.2272 0.3712, -0.3701 -1.2493 0.3629, -0.3701 -1.2687 0.3496, -0.3701 -0.9611 0.5709, -0.3701 -0.9404 0.374, -0.6457 -0.9611 0.5709, -0.6457 -0.9404 0.374
            ]
        }
        coordIndex [
            0,1,2,-1,2,1,3,-1,4,0,5,-1,5,0,2,-1,6,4,7,-1,7,4,5,-1,1,6,3,-1,3,6,7,-1,8,9,10,-1,10,9,11,-1,10,11,12,-1,12,11,13,-1,12,13,14,-1,14,13,15,-1,14,15,3,-1,3,15,2,-1,9,16,11,-1,11,16,17,-1,11,17,13,-1,13,17,18,-1,13,18,15,-1,15,18,19,-1,15,19,2,-1,2,19,5,-1,7,5,19,-1,7,19,20,-1,20,19,18,-1,20,18,21,-1,21,18,17,-1,21,17,22,-1,22,17,16,-1,22,16,23,-1,3,7,14,-1,14,7,20,-1,14,20,12,-1,12,20,21,-1,12,21,10,-1,10,21,22,-1,10,22,8,-1,8,22,23,-1,9,8,24,-1,24,8,25,-1,16,9,26,-1,26,9,24,-1,23,16,27,-1,27,16,26,-1,8,23,25,-1,25,23,27,-1,24,25,28,-1,24,28,29,-1,29,28,30,-1,29,30,31,-1,31,30,32,-1,31,32,33,-1,33,32,34,-1,33,34,35,-1,26,24,36,-1,36,24,29,-1,36,29,37,-1,37,29,31,-1,37,31,38,-1,38,31,33,-1,38,33,39,-1,39,33,35,-1,39,40,38,-1,38,40,41,-1,38,41,37,-1,37,41,42,-1,37,42,36,-1,36,42,43,-1,36,43,26,-1,26,43,27,-1,40,34,41,-1,41,34,32,-1,41,32,42,-1,42,32,30,-1,42,30,43,-1,43,30,28,-1,43,28,27,-1,27,28,25,-1,34,40,44,-1,44,40,45,-1,35,34,46,-1,46,34,44,-1,39,35,47,-1,47,35,46,-1,40,39,45,-1,45,39,47,-1,0,4,1,-1,1,4,6,-1,48,49,50,-1,50,49,51,-1,52,48,53,-1,53,48,50,-1,54,52,55,-1,55,52,53,-1,49,54,51,-1,51,54,55,-1,56,57,58,-1,58,57,59,-1,58,59,60,-1,60,59,61,-1,60,61,62,-1,62,61,63,-1,62,63,51,-1,51,63,50,-1,57,64,59,-1,59,64,65,-1,59,65,61,-1,61,65,66,-1,61,66,63,-1,63,66,67,-1,63,67,50,-1,50,67,53,-1,55,53,67,-1,55,67,68,-1,68,67,66,-1,68,66,69,-1,69,66,65,-1,69,65,70,-1,70,65,64,-1,70,64,71,-1,51,55,62,-1,62,55,68,-1,62,68,60,-1,60,68,69,-1,60,69,58,-1,58,69,70,-1,58,70,56,-1,56,70,71,-1,57,56,72,-1,72,56,73,-1,64,57,74,-1,74,57,72,-1,71,64,75,-1,75,64,74,-1,56,71,73,-1,73,71,75,-1,72,73,76,-1,72,76,77,-1,77,76,78,-1,77,78,79,-1,79,78,80,-1,79,80,81,-1,81,80,82,-1,81,82,83,-1,74,72,84,-1,84,72,77,-1,84,77,85,-1,85,77,79,-1,85,79,86,-1,86,79,81,-1,86,81,87,-1,87,81,83,-1,87,88,86,-1,86,88,89,-1,86,89,85,-1,85,89,90,-1,85,90,84,-1,84,90,91,-1,84,91,74,-1,74,91,75,-1,88,82,89,-1,89,82,80,-1,89,80,90,-1,90,80,78,-1,90,78,91,-1,91,78,76,-1,91,76,75,-1,75,76,73,-1,82,88,92,-1,92,88,93,-1,83,82,94,-1,94,82,92,-1,87,83,95,-1,95,83,94,-1,88,87,93,-1,93,87,95,-1,48,52,49,-1,49,52,54,-1,
        ]
    }
}
Shape{
    appearance Appearance {
        material  Material 	{
            diffuseColor 0.45098039215686275 0.43137254901960786 0.4196078431372549
            specularColor 0.03137254901960784 0.03137254901960784 0.03137254901960784
            ambientIntensity 0.6221
            transparency 0.0
            shininess 0.5
        }
    }
    geometry IndexedFaceSet {
        ccw TRUE
        solid FALSE
        coord DEF co Coordinate {
            point [
                -0.5214 0.2445 0.9055, -0.5214 0.2445 0.9016, -0.5214 0.272 0.9055, -0.5214 0.2807 0.9016, -0.5214 0.2807 0.9055, -0.2667 0.2807 0.9016, -0.2667 0.2807 0.9055, -0.2667 0.2445 0.9016, -0.2667 0.2445 0.9055, -0.2667 0.272 0.9055, -0.3734 0.2445 0.9016, -0.3734 0.2445 0.9055, -0.3734 0.013 0.9055, -0.3734 -0.0343 0.9016, -0.3734 -0.0343 0.9055, -0.4147 -0.0343 0.9016, -0.4147 -0.0343 0.9055, -0.4147 0.013 0.9055, -0.4147 0.2445 0.9016, -0.4147 0.2445 0.9055, -0.0051 0.2081 0.9016, 0.0083 0.1811 0.9016, 0.055 0.1749 0.9016, 0.0622 0.1223 0.9016, 0.0382 0.2176 0.9016, 0.0209 0.2445 0.9016, -0.0208 0.2263 0.9016, -0.0051 0.2664 0.9016, -0.039 0.2392 0.9016, -0.0337 0.2803 0.9016, -0.0616 0.2482 0.9016, -0.091 0.2531 0.9016, -0.1201 -0.0009 0.9016, -0.1012 -0.0393 0.9016, -0.091 -0.005 0.9016, -0.091 -0.0395 0.9016, -0.0728 -0.0028 0.9016, -0.0463 -0.0345 0.9016, -0.0447 0.0058 0.9016, -0.015 -0.0232 0.9016, -0.0245 0.0181 0.9016, 0.0097 -0.007 0.9016, -0.0087 0.034 0.9016, 0.0226 0.0053 0.9016, 0.0041 0.0552 0.9016, 0.0452 0.0418 0.9016, 0.0138 0.0838 0.9016, 0.0584 0.0847 0.9016, 0.0192 0.1223 0.9016, 0.0179 0.1375 0.9016, -0.0727 0.2885 0.9016, -0.091 0.2893 0.9016, -0.1187 0.2492 0.9016, -0.1364 0.2842 0.9016, -0.1403 0.2416 0.9016, -0.1672 0.2729 0.9016, -0.1597 0.2291 0.9016, -0.1943 0.2548 0.9016, -0.1747 0.2132 0.9016, -0.2206 0.2207 0.9016, -0.1868 0.1921 0.9016, -0.1963 0.1626 0.9016, -0.2369 0.1829 0.9016, -0.2454 0.1321 0.9016, -0.2011 0.1223 0.9016, -0.2459 0.1223 0.9016, -0.1979 0.0913 0.9016, -0.2388 0.0706 0.9016, -0.188 0.057 0.9016, -0.2208 0.026 0.9016, -0.1767 0.0367 0.9016, -0.2097 0.0087 0.9016, -0.1614 0.0198 0.9016, -0.1867 -0.0125 0.9016, -0.1431 0.0076 0.9016, -0.163 -0.0259 0.9016, -0.1263 -0.0367 0.9016, 0.0226 0.0053 0.9055, 0.0274 0.013 0.9055, 0.0452 0.0418 0.9055, 0.0584 0.0847 0.9055, 0.0622 0.1223 0.9055, -0.091 -0.0395 0.9055, -0.0463 -0.0345 0.9055, -0.015 -0.0232 0.9055, 0.0097 -0.007 0.9055, -0.2097 0.0087 0.9055, -0.1867 -0.0125 0.9055, -0.163 -0.0259 0.9055, -0.1263 -0.0367 0.9055, -0.1012 -0.0393 0.9055, -0.2459 0.1223 0.9055, -0.2388 0.0706 0.9055, -0.2208 0.026 0.9055, -0.2125 0.013 0.9055, -0.1943 0.2548 0.9055, -0.2206 0.2207 0.9055, -0.2369 0.1829 0.9055, -0.2454 0.1321 0.9055, -0.091 0.2893 0.9055, -0.1294 0.285 0.9055, -0.1686 0.272 0.9055, -0.1672 0.2729 0.9055, -0.1364 0.2842 0.9055, 0.0209 0.2445 0.9055, -0.0051 0.2664 0.9055, -0.0167 0.272 0.9055, -0.0337 0.2803 0.9055, -0.0559 0.285 0.9055, -0.0727 0.2885 0.9055, 0.055 0.1749 0.9055, 0.0382 0.2176 0.9055, -0.091 0.2531 0.9055, -0.0616 0.2482 0.9055, -0.039 0.2392 0.9055, -0.0208 0.2263 0.9055, -0.0051 0.2081 0.9055, 0.0083 0.1811 0.9055, 0.0179 0.1375 0.9055, 0.0192 0.1223 0.9055, 0.0138 0.0838 0.9055, 0.0041 0.0552 0.9055, -0.0087 0.034 0.9055, -0.0245 0.0181 0.9055, -0.0447 0.0058 0.9055, -0.0728 -0.0028 0.9055, -0.091 -0.005 0.9055, -0.1201 -0.0009 0.9055, -0.1431 0.0076 0.9055, -0.1614 0.0198 0.9055, -0.1767 0.0367 0.9055, -0.188 0.057 0.9055, -0.1979 0.0913 0.9055, -0.2011 0.1223 0.9055, -0.1963 0.1626 0.9055, -0.1868 0.1921 0.9055, -0.1747 0.2132 0.9055, -0.1597 0.2291 0.9055, -0.1403 0.2416 0.9055, -0.1187 0.2492 0.9055
            ]
        }
        coordIndex [
            0,1,2,-1,2,1,3,-1,2,3,4,-1,3,5,4,-1,4,5,6,-1,7,8,5,-1,5,8,9,-1,5,9,6,-1,7,10,8,-1,8,10,11,-1,11,10,12,-1,12,10,13,-1,12,13,14,-1,13,15,14,-1,14,15,16,-1,16,15,17,-1,17,15,18,-1,17,18,19,-1,18,1,19,-1,19,1,0,-1,5,3,18,-1,18,3,1,-1,7,5,10,-1,10,5,18,-1,10,18,13,-1,13,18,15,-1,20,21,22,-1,22,21,23,-1,22,24,20,-1,20,24,25,-1,20,25,26,-1,26,25,27,-1,26,27,28,-1,28,27,29,-1,28,29,30,-1,30,29,31,-1,32,33,34,-1,34,33,35,-1,34,35,36,-1,36,35,37,-1,36,37,38,-1,38,37,39,-1,38,39,40,-1,40,39,41,-1,40,41,42,-1,42,41,43,-1,42,43,44,-1,44,43,45,-1,44,45,46,-1,46,45,47,-1,46,47,48,-1,48,47,23,-1,48,23,49,-1,49,23,21,-1,29,50,31,-1,31,50,51,-1,31,51,52,-1,52,51,53,-1,52,53,54,-1,54,53,55,-1,54,55,56,-1,56,55,57,-1,56,57,58,-1,58,57,59,-1,58,59,60,-1,60,59,61,-1,59,62,61,-1,61,62,63,-1,61,63,64,-1,64,63,65,-1,64,65,66,-1,66,65,67,-1,66,67,68,-1,68,67,69,-1,68,69,70,-1,70,69,71,-1,70,71,72,-1,72,71,73,-1,72,73,74,-1,74,73,75,-1,74,75,32,-1,32,75,76,-1,32,76,33,-1,43,77,78,-1,43,78,45,-1,78,79,45,-1,45,79,80,-1,45,80,47,-1,47,80,81,-1,47,81,23,-1,35,82,83,-1,35,83,37,-1,37,83,84,-1,37,84,39,-1,39,84,85,-1,39,85,41,-1,41,85,77,-1,41,77,43,-1,71,86,87,-1,71,87,73,-1,73,87,88,-1,73,88,75,-1,75,88,89,-1,75,89,76,-1,76,89,90,-1,76,90,33,-1,33,90,82,-1,33,82,35,-1,65,91,92,-1,65,92,67,-1,67,92,93,-1,67,93,69,-1,69,93,71,-1,71,93,94,-1,71,94,86,-1,57,95,96,-1,57,96,59,-1,59,96,97,-1,59,97,62,-1,62,97,98,-1,62,98,63,-1,63,98,91,-1,63,91,65,-1,51,99,53,-1,53,99,100,-1,95,57,101,-1,101,57,55,-1,101,55,102,-1,102,55,53,-1,102,53,103,-1,103,53,100,-1,99,51,50,-1,25,104,105,-1,25,105,27,-1,27,105,106,-1,27,106,29,-1,106,107,29,-1,29,107,108,-1,29,108,50,-1,50,108,109,-1,50,109,99,-1,23,81,110,-1,23,110,22,-1,22,110,111,-1,22,111,24,-1,24,111,104,-1,24,104,25,-1,31,112,113,-1,31,113,30,-1,30,113,114,-1,30,114,28,-1,28,114,115,-1,28,115,26,-1,26,115,116,-1,26,116,20,-1,20,116,117,-1,20,117,21,-1,21,117,118,-1,21,118,49,-1,49,118,119,-1,49,119,48,-1,48,119,120,-1,48,120,46,-1,46,120,121,-1,46,121,44,-1,44,121,122,-1,44,122,42,-1,42,122,123,-1,42,123,40,-1,40,123,124,-1,40,124,38,-1,38,124,125,-1,38,125,36,-1,36,125,126,-1,36,126,34,-1,34,126,127,-1,34,127,32,-1,32,127,128,-1,32,128,74,-1,74,128,129,-1,74,129,72,-1,72,129,130,-1,72,130,70,-1,70,130,131,-1,70,131,68,-1,68,131,132,-1,68,132,66,-1,66,132,133,-1,66,133,64,-1,64,133,134,-1,64,134,61,-1,61,134,135,-1,61,135,60,-1,60,135,136,-1,60,136,58,-1,58,136,137,-1,58,137,56,-1,56,137,138,-1,56,138,54,-1,54,138,139,-1,54,139,52,-1,52,139,112,-1,52,112,31,-1,
        ]
    }
}
Shape{
    appearance Appearance {
        material  Material 	{
            diffuseColor 0.25098039215686274 0.25098039215686274 0.25098039215686274
            specularColor 0.07450980392156863 0.07450980392156863 0.07450980392156863
            ambientIntensity 0.251
            transparency 0.0
            shininess 0.5
        }
    }
    geometry IndexedFaceSet {
        ccw TRUE
        solid FALSE
        coord DEF co Coordinate {
            point [
                -0.1868 0.1921 0.9055, -0.1963 0.1626 0.9055, 0.0179 0.1375 0.9055, 0.0041 0.0552 0.9055, 0.0138 0.0838 0.9055, -0.1979 0.0913 0.9055, -0.0728 -0.0028 0.9055, -0.091 -0.005 0.9055, -0.1201 -0.0009 0.9055, -0.0087 0.034 0.9055, -0.2011 0.1223 0.9055, 0.0192 0.1223 0.9055, -0.039 0.2392 0.9055, -0.0616 0.2482 0.9055, -0.091 0.2531 0.9055, -0.1187 0.2492 0.9055, -0.1403 0.2416 0.9055, -0.188 0.057 0.9055, -0.1767 0.0367 0.9055, -0.1431 0.0076 0.9055, -0.1614 0.0198 0.9055, -0.0447 0.0058 0.9055, -0.0245 0.0181 0.9055, -0.0208 0.2263 0.9055, 0.0083 0.1811 0.9055, -0.0051 0.2081 0.9055, -0.1597 0.2291 0.9055, -0.1747 0.2132 0.9055
            ]
        }
        coordIndex [
            0,1,2,-1,3,4,5,-1,6,5,7,-1,7,5,8,-1,3,5,9,-1,1,10,2,-1,2,10,5,-1,2,5,11,-1,11,5,4,-1,12,13,2,-1,13,14,2,-1,2,14,15,-1,2,15,16,-1,5,17,8,-1,8,17,18,-1,8,18,19,-1,19,18,20,-1,6,21,5,-1,5,21,22,-1,5,22,9,-1,12,2,23,-1,23,2,24,-1,23,24,25,-1,16,26,2,-1,2,26,27,-1,2,27,0,-1,
        ]
    }
}
Shape{
    appearance Appearance {
        material  Material 	{
            diffuseColor 0.45098039215686275 0.43137254901960786 0.4196078431372549
            specularColor 0.03137254901960784 0.03137254901960784 0.03137254901960784
            ambientIntensity 0.6221
            transparency 0.0
            shininess 0.5
        }
    }
    geometry IndexedFaceSet {
        ccw TRUE
        solid FALSE
        coord DEF co Coordinate {
            point [
                0.1381 0.1636 0.9016, 0.0985 0.1636 0.9016, 0.1381 0.1636 0.9055, 0.0985 0.1636 0.9055, 0.1261 0.2462 0.9016, 0.1261 0.2462 0.9055, 0.111 0.2238 0.9055, 0.111 0.2238 0.9016, 0.1019 0.1971 0.9055, 0.1019 0.1971 0.9016, 0.2052 0.2755 0.9055, 0.1738 0.272 0.9055, 0.2052 0.2755 0.9016, 0.1719 0.2718 0.9016, 0.1719 0.2718 0.9055, 0.1503 0.2642 0.9055, 0.1503 0.2642 0.9016, 0.1342 0.2538 0.9055, 0.1342 0.2538 0.9016, 0.2522 0.2654 0.9055, 0.2688 0.2558 0.9016, 0.2688 0.2558 0.9055, 0.2823 0.2432 0.9016, 0.2823 0.2432 0.9055, 0.2923 0.2279 0.9016, 0.2923 0.2279 0.9055, 0.2996 0.208 0.9016, 0.2996 0.208 0.9055, 0.3033 0.1826 0.9016, 0.3033 0.1826 0.9055, 0.2294 0.272 0.9055, 0.2252 0.2733 0.9016, 0.2522 0.2654 0.9016, 0.2252 0.2733 0.9055, 0.219 0.0793 0.9016, 0.219 0.0793 0.9055, 0.2582 0.1013 0.9055, 0.2582 0.1013 0.9016, 0.2833 0.1242 0.9055, 0.2833 0.1242 0.9016, 0.2949 0.1416 0.9055, 0.2949 0.1416 0.9016, 0.3013 0.1591 0.9055, 0.3013 0.1591 0.9016, 0.1863 0.0604 0.9016, 0.1863 0.0604 0.9055, 0.1347 0.0018 0.9016, 0.1347 0.0018 0.9055, 0.1389 0.0158 0.9016, 0.138 0.013 0.9055, 0.1389 0.0158 0.9055, 0.1468 0.0288 0.9055, 0.1468 0.0288 0.9016, 0.163 0.045 0.9055, 0.163 0.045 0.9016, 0.3033 0.0018 0.9016, 0.3033 0.0018 0.9055, 0.3033 -0.0343 0.9016, 0.3033 -0.0343 0.9055, 0.0916 -0.0343 0.9016, 0.0916 -0.0343 0.9055, 0.0939 -0.0087 0.9016, 0.1639 0.0879 0.9016, 0.1639 0.0879 0.9055, 0.1359 0.0687 0.9055, 0.1359 0.0687 0.9016, 0.1159 0.0466 0.9055, 0.1159 0.0466 0.9016, 0.1019 0.0207 0.9055, 0.1019 0.0207 0.9016, 0.0998 0.013 0.9055, 0.0939 -0.0087 0.9055, 0.2052 0.112 0.9016, 0.2052 0.112 0.9055, 0.25 0.1447 0.9016, 0.25 0.1447 0.9055, 0.2287 0.1269 0.9055, 0.2287 0.1269 0.9016, 0.262 0.1843 0.9016, 0.262 0.1843 0.9055, 0.2591 0.1635 0.9055, 0.2591 0.1635 0.9016, 0.253 0.1495 0.9055, 0.253 0.1495 0.9016, 0.2001 0.2393 0.9016, 0.2001 0.2393 0.9055, 0.2183 0.2373 0.9055, 0.2183 0.2373 0.9016, 0.2322 0.2328 0.9055, 0.2322 0.2328 0.9016, 0.2425 0.2266 0.9055, 0.2425 0.2266 0.9016, 0.2471 0.2225 0.9055, 0.2471 0.2225 0.9016, 0.2543 0.2129 0.9055, 0.2543 0.2129 0.9016, 0.259 0.2017 0.9055, 0.259 0.2017 0.9016, 0.262 0.1845 0.9055, 0.262 0.1845 0.9016, 0.1404 0.1874 0.9055, 0.1404 0.1874 0.9016, 0.1453 0.2046 0.9055, 0.1453 0.2046 0.9016, 0.1517 0.2168 0.9055, 0.1517 0.2168 0.9016, 0.1597 0.2259 0.9055, 0.1597 0.2259 0.9016, 0.169 0.2324 0.9055, 0.169 0.2324 0.9016, 0.18 0.2368 0.9055, 0.18 0.2368 0.9016, 0.1968 0.2393 0.9055, 0.1968 0.2393 0.9016, 0.4018 0.2307 0.9016, 0.3898 0.1464 0.9016, 0.4018 0.2307 0.9055, 0.3898 0.1464 0.9055, 0.4483 0.1653 0.9016, 0.4483 0.1653 0.9055, 0.4228 0.1622 0.9055, 0.4228 0.1622 0.9016, 0.4024 0.1544 0.9055, 0.4024 0.1544 0.9016, 0.5516 0.0655 0.9016, 0.5516 0.0655 0.9055, 0.5469 0.093 0.9055, 0.5469 0.093 0.9016, 0.5385 0.1145 0.9055, 0.5385 0.1145 0.9016, 0.5269 0.1312 0.9055, 0.5269 0.1312 0.9016, 0.5106 0.1456 0.9055, 0.5106 0.1456 0.9016, 0.4911 0.1558 0.9055, 0.4911 0.1558 0.9016, 0.4591 0.1641 0.9055, 0.4591 0.1641 0.9016, 0.5206 -0.0119 0.9016, 0.5206 -0.0119 0.9055, 0.5361 0.0069 0.9055, 0.5361 0.0069 0.9016, 0.539 0.013 0.9055, 0.5458 0.0276 0.9016, 0.5458 0.0276 0.9055, 0.5508 0.0509 0.9055, 0.5508 0.0509 0.9016, 0.438 -0.0395 0.9016, 0.438 -0.0395 0.9055, 0.4777 -0.035 0.9055, 0.4777 -0.035 0.9016, 0.5007 -0.0264 0.9055, 0.5007 -0.0264 0.9016, 0.5186 -0.0137 0.9055, 0.5186 -0.0137 0.9016, 0.3381 0.0431 0.9016, 0.3381 0.0431 0.9055, 0.3428 0.0198 0.9055, 0.3428 0.0198 0.9016, 0.3458 0.013 0.9055, 0.3509 0.0015 0.9016, 0.3509 0.0015 0.9055, 0.361 -0.012 0.9055, 0.361 -0.012 0.9016, 0.3752 -0.0236 0.9055, 0.3752 -0.0236 0.9016, 0.3948 -0.0328 0.9055, 0.3948 -0.0328 0.9016, 0.4257 -0.0389 0.9055, 0.4257 -0.0389 0.9016, 0.3777 0.0431 0.9016, 0.3777 0.0431 0.9055, 0.4448 -0.0102 0.9016, 0.4448 -0.0102 0.9055, 0.4259 -0.0087 0.9055, 0.4259 -0.0087 0.9016, 0.4115 -0.0046 0.9055, 0.4115 -0.0046 0.9016, 0.3994 0.002 0.9055, 0.3994 0.002 0.9016, 0.391 0.01 0.9055, 0.391 0.01 0.9016, 0.389 0.013 0.9055, 0.3843 0.0202 0.9016, 0.3843 0.0202 0.9055, 0.3791 0.0354 0.9055, 0.3791 0.0354 0.9016, 0.5085 0.0604 0.9016, 0.5085 0.0604 0.9055, 0.505 0.0392 0.9055, 0.505 0.0392 0.9016, 0.4989 0.0229 0.9055, 0.4989 0.0229 0.9016, 0.4924 0.013 0.9055, 0.4913 0.0115 0.9016, 0.4913 0.0115 0.9055, 0.4817 0.0025 0.9055, 0.4817 0.0025 0.9016, 0.4698 -0.0043 0.9055, 0.4698 -0.0043 0.9016, 0.4522 -0.0093 0.9055, 0.4522 -0.0093 0.9016, 0.4414 0.1292 0.9016, 0.4414 0.1292 0.9055, 0.46 0.1266 0.9055, 0.46 0.1266 0.9016, 0.4743 0.1215 0.9055, 0.4743 0.1215 0.9016, 0.4855 0.1144 0.9055, 0.4855 0.1144 0.9016, 0.4946 0.1049 0.9055, 0.4946 0.1049 0.9016, 0.5014 0.0933 0.9055, 0.5014 0.0933 0.9016, 0.5068 0.0755 0.9055, 0.5068 0.0755 0.9016, 0.3829 0.0999 0.9016, 0.3829 0.0999 0.9055, 0.396 0.1136 0.9055, 0.396 0.1136 0.9016, 0.4095 0.1223 0.9055, 0.4095 0.1223 0.9016, 0.4256 0.1277 0.9055, 0.4256 0.1277 0.9016, 0.3502 0.1017 0.9016, 0.3502 0.1017 0.9055, 0.3726 0.2686 0.9016, 0.3726 0.2686 0.9055, 0.5326 0.2686 0.9016, 0.5326 0.2686 0.9055, 0.5326 0.2307 0.9016, 0.5326 0.2307 0.9055, 0.6277 0.1636 0.9016, 0.5881 0.1636 0.9016, 0.6277 0.1636 0.9055, 0.5881 0.1636 0.9055, 0.6156 0.2462 0.9016, 0.6156 0.2462 0.9055, 0.6006 0.2238 0.9055, 0.6006 0.2238 0.9016, 0.5914 0.1971 0.9055, 0.5914 0.1971 0.9016, 0.6948 0.2755 0.9055, 0.6634 0.272 0.9055, 0.6948 0.2755 0.9016, 0.6614 0.2718 0.9016, 0.6614 0.2718 0.9055, 0.6399 0.2642 0.9055, 0.6399 0.2642 0.9016, 0.6237 0.2538 0.9055, 0.6237 0.2538 0.9016, 0.7418 0.2654 0.9055, 0.7584 0.2558 0.9016, 0.7584 0.2558 0.9055, 0.7719 0.2432 0.9016, 0.7719 0.2432 0.9055, 0.7818 0.2279 0.9016, 0.7818 0.2279 0.9055, 0.7891 0.208 0.9016, 0.7891 0.208 0.9055, 0.7929 0.1826 0.9016, 0.7929 0.1826 0.9055, 0.719 0.272 0.9055, 0.7147 0.2733 0.9016, 0.7418 0.2654 0.9016, 0.7147 0.2733 0.9055, 0.7086 0.0793 0.9016, 0.7086 0.0793 0.9055, 0.7478 0.1013 0.9055, 0.7478 0.1013 0.9016, 0.7729 0.1242 0.9055, 0.7729 0.1242 0.9016, 0.7844 0.1416 0.9055, 0.7844 0.1416 0.9016, 0.7909 0.1591 0.9055, 0.7909 0.1591 0.9016, 0.6759 0.0604 0.9016, 0.6759 0.0604 0.9055, 0.6242 0.0018 0.9016, 0.6242 0.0018 0.9055, 0.6284 0.0158 0.9016, 0.6276 0.013 0.9055, 0.6284 0.0158 0.9055, 0.6364 0.0288 0.9055, 0.6364 0.0288 0.9016, 0.6525 0.045 0.9055, 0.6525 0.045 0.9016, 0.7929 0.0018 0.9016, 0.7929 0.0018 0.9055, 0.7929 -0.0343 0.9016, 0.7929 -0.0343 0.9055, 0.5812 -0.0343 0.9016, 0.5812 -0.0343 0.9055, 0.5835 -0.0087 0.9016, 0.6535 0.0879 0.9016, 0.6535 0.0879 0.9055, 0.6254 0.0687 0.9055, 0.6254 0.0687 0.9016, 0.6054 0.0466 0.9055, 0.6054 0.0466 0.9016, 0.5915 0.0207 0.9055, 0.5915 0.0207 0.9016, 0.5894 0.013 0.9055, 0.5835 -0.0087 0.9055, 0.6948 0.112 0.9016, 0.6948 0.112 0.9055, 0.7395 0.1447 0.9016, 0.7395 0.1447 0.9055, 0.7182 0.1269 0.9055, 0.7182 0.1269 0.9016, 0.7516 0.1843 0.9016, 0.7516 0.1843 0.9055, 0.7487 0.1635 0.9055, 0.7487 0.1635 0.9016, 0.7425 0.1495 0.9055, 0.7425 0.1495 0.9016, 0.6896 0.2393 0.9016, 0.6896 0.2393 0.9055, 0.7078 0.2373 0.9055, 0.7078 0.2373 0.9016, 0.7217 0.2328 0.9055, 0.7217 0.2328 0.9016, 0.7321 0.2266 0.9055, 0.7321 0.2266 0.9016, 0.7366 0.2225 0.9055, 0.7366 0.2225 0.9016, 0.7439 0.2129 0.9055, 0.7439 0.2129 0.9016, 0.7485 0.2017 0.9055, 0.7485 0.2017 0.9016, 0.7516 0.1845 0.9055, 0.7516 0.1845 0.9016, 0.63 0.1874 0.9055, 0.63 0.1874 0.9016, 0.6349 0.2046 0.9055, 0.6349 0.2046 0.9016, 0.6413 0.2168 0.9055, 0.6413 0.2168 0.9016, 0.6493 0.2259 0.9055, 0.6493 0.2259 0.9016, 0.6586 0.2324 0.9055, 0.6586 0.2324 0.9016, 0.6696 0.2368 0.9055, 0.6696 0.2368 0.9016, 0.6864 0.2393 0.9055, 0.6864 0.2393 0.9016, 1.0532 0.0604 0.9016, 0.8311 0.0604 0.9016, 1.0532 0.0604 0.9055, 0.8311 0.0604 0.9055, 0.8311 0.0931 0.9016, 0.8311 0.0931 0.9055, 1.0532 0.0931 0.9016, 1.0532 0.0931 0.9055, 1.1295 0.1636 0.9016, 1.0899 0.1636 0.9016, 1.1295 0.1636 0.9055, 1.0899 0.1636 0.9055, 1.1174 0.2462 0.9016, 1.1174 0.2462 0.9055, 1.1024 0.2238 0.9055, 1.1024 0.2238 0.9016, 1.0932 0.1971 0.9055, 1.0932 0.1971 0.9016, 1.1966 0.2755 0.9055, 1.1652 0.272 0.9055, 1.1966 0.2755 0.9016, 1.1632 0.2718 0.9016, 1.1632 0.2718 0.9055, 1.1417 0.2642 0.9055, 1.1417 0.2642 0.9016, 1.1255 0.2538 0.9055, 1.1255 0.2538 0.9016, 1.2436 0.2654 0.9055, 1.2602 0.2558 0.9016, 1.2602 0.2558 0.9055, 1.2737 0.2432 0.9016, 1.2737 0.2432 0.9055, 1.2836 0.2279 0.9016, 1.2836 0.2279 0.9055, 1.2909 0.208 0.9016, 1.2909 0.208 0.9055, 1.2947 0.1826 0.9016, 1.2947 0.1826 0.9055, 1.2208 0.272 0.9055, 1.2165 0.2733 0.9016, 1.2436 0.2654 0.9016, 1.2165 0.2733 0.9055, 1.2103 0.0793 0.9016, 1.2103 0.0793 0.9055, 1.2496 0.1013 0.9055, 1.2496 0.1013 0.9016, 1.2747 0.1242 0.9055, 1.2747 0.1242 0.9016, 1.2862 0.1416 0.9055, 1.2862 0.1416 0.9016, 1.2927 0.1591 0.9055, 1.2927 0.1591 0.9016, 1.1776 0.0604 0.9016, 1.1776 0.0604 0.9055, 1.126 0.0018 0.9016, 1.126 0.0018 0.9055, 1.1302 0.0158 0.9016, 1.1294 0.013 0.9055, 1.1302 0.0158 0.9055, 1.1382 0.0288 0.9055, 1.1382 0.0288 0.9016, 1.1543 0.045 0.9055, 1.1543 0.045 0.9016, 1.2947 0.0018 0.9016, 1.2947 0.0018 0.9055, 1.2947 -0.0343 0.9016, 1.2947 -0.0343 0.9055, 1.083 -0.0343 0.9016, 1.083 -0.0343 0.9055, 1.0853 -0.0087 0.9016, 1.1553 0.0879 0.9016, 1.1553 0.0879 0.9055, 1.1272 0.0687 0.9055, 1.1272 0.0687 0.9016, 1.1072 0.0466 0.9055, 1.1072 0.0466 0.9016, 1.0932 0.0207 0.9055, 1.0932 0.0207 0.9016, 1.0912 0.013 0.9055, 1.0853 -0.0087 0.9055, 1.1966 0.112 0.9016, 1.1966 0.112 0.9055, 1.2413 0.1447 0.9016, 1.2413 0.1447 0.9055, 1.22 0.1269 0.9055, 1.22 0.1269 0.9016, 1.2534 0.1843 0.9016, 1.2534 0.1843 0.9055, 1.2505 0.1635 0.9055, 1.2505 0.1635 0.9016, 1.2443 0.1495 0.9055, 1.2443 0.1495 0.9016, 1.1914 0.2393 0.9016, 1.1914 0.2393 0.9055, 1.2096 0.2373 0.9055, 1.2096 0.2373 0.9016, 1.2235 0.2328 0.9055, 1.2235 0.2328 0.9016, 1.2339 0.2266 0.9055, 1.2339 0.2266 0.9016, 1.2384 0.2225 0.9055, 1.2384 0.2225 0.9016, 1.2457 0.2129 0.9055, 1.2457 0.2129 0.9016, 1.2503 0.2017 0.9055, 1.2503 0.2017 0.9016, 1.2534 0.1845 0.9055, 1.2534 0.1845 0.9016, 1.1318 0.1874 0.9055, 1.1318 0.1874 0.9016, 1.1367 0.2046 0.9055, 1.1367 0.2046 0.9016, 1.1431 0.2168 0.9055, 1.1431 0.2168 0.9016, 1.1511 0.2259 0.9055, 1.1511 0.2259 0.9016, 1.1604 0.2324 0.9055, 1.1604 0.2324 0.9016, 1.1714 0.2368 0.9055, 1.1714 0.2368 0.9016, 1.1881 0.2393 0.9055, 1.1881 0.2393 0.9016
            ]
        }
        coordIndex [
            0,1,2,-1,2,1,3,-1,4,5,6,-1,4,6,7,-1,7,6,8,-1,7,8,9,-1,9,8,3,-1,9,3,1,-1,10,11,12,-1,12,11,13,-1,11,14,13,-1,13,14,15,-1,13,15,16,-1,16,15,17,-1,16,17,18,-1,18,17,5,-1,18,5,4,-1,19,20,21,-1,21,20,22,-1,21,22,23,-1,23,22,24,-1,23,24,25,-1,25,24,26,-1,25,26,27,-1,27,26,28,-1,27,28,29,-1,30,31,19,-1,19,31,32,-1,19,32,20,-1,30,33,31,-1,31,33,10,-1,31,10,12,-1,34,35,36,-1,34,36,37,-1,37,36,38,-1,37,38,39,-1,39,38,40,-1,39,40,41,-1,41,40,42,-1,41,42,43,-1,43,42,29,-1,43,29,28,-1,34,44,35,-1,35,44,45,-1,46,47,48,-1,48,47,49,-1,49,50,48,-1,48,50,51,-1,48,51,52,-1,52,51,53,-1,52,53,54,-1,54,53,45,-1,54,45,44,-1,46,55,47,-1,47,55,56,-1,55,57,56,-1,56,57,58,-1,57,59,58,-1,58,59,60,-1,60,59,61,-1,62,63,64,-1,62,64,65,-1,65,64,66,-1,65,66,67,-1,67,66,68,-1,67,68,69,-1,69,68,70,-1,69,70,61,-1,61,70,71,-1,61,71,60,-1,62,72,63,-1,63,72,73,-1,74,75,76,-1,74,76,77,-1,77,76,73,-1,77,73,72,-1,78,79,80,-1,78,80,81,-1,81,80,82,-1,81,82,83,-1,83,82,75,-1,83,75,74,-1,84,85,86,-1,84,86,87,-1,87,86,88,-1,87,88,89,-1,89,88,90,-1,89,90,91,-1,91,90,92,-1,91,92,93,-1,93,92,94,-1,93,94,95,-1,95,94,96,-1,95,96,97,-1,97,96,98,-1,97,98,99,-1,99,98,79,-1,99,79,78,-1,0,2,100,-1,0,100,101,-1,101,100,102,-1,101,102,103,-1,103,102,104,-1,103,104,105,-1,105,104,106,-1,105,106,107,-1,107,106,108,-1,107,108,109,-1,109,108,110,-1,109,110,111,-1,111,110,112,-1,111,112,113,-1,113,112,85,-1,113,85,84,-1,57,55,59,-1,59,55,46,-1,28,78,43,-1,43,78,81,-1,43,81,41,-1,41,81,83,-1,41,83,39,-1,39,83,74,-1,39,74,37,-1,37,74,77,-1,37,77,34,-1,34,77,72,-1,34,72,44,-1,44,72,62,-1,44,62,54,-1,54,62,65,-1,54,65,52,-1,52,65,67,-1,52,67,48,-1,48,67,69,-1,48,69,46,-1,46,69,61,-1,46,61,59,-1,1,0,9,-1,9,0,101,-1,9,101,7,-1,7,101,103,-1,7,103,4,-1,4,103,105,-1,4,105,18,-1,18,105,107,-1,18,107,16,-1,16,107,109,-1,16,109,13,-1,13,109,111,-1,13,111,12,-1,111,113,12,-1,12,113,84,-1,12,84,31,-1,31,84,87,-1,31,87,32,-1,32,87,89,-1,32,89,20,-1,20,89,91,-1,20,91,22,-1,22,91,93,-1,22,93,24,-1,24,93,95,-1,24,95,26,-1,26,95,97,-1,26,97,28,-1,28,97,99,-1,28,99,78,-1,114,115,116,-1,116,115,117,-1,118,119,120,-1,118,120,121,-1,121,120,122,-1,121,122,123,-1,123,122,117,-1,123,117,115,-1,124,125,126,-1,124,126,127,-1,127,126,128,-1,127,128,129,-1,129,128,130,-1,129,130,131,-1,131,130,132,-1,131,132,133,-1,133,132,134,-1,133,134,135,-1,135,134,136,-1,135,136,137,-1,137,136,119,-1,137,119,118,-1,138,139,140,-1,138,140,141,-1,141,140,142,-1,141,142,143,-1,142,144,143,-1,143,144,145,-1,143,145,146,-1,146,145,125,-1,146,125,124,-1,147,148,149,-1,147,149,150,-1,150,149,151,-1,150,151,152,-1,152,151,153,-1,152,153,154,-1,154,153,139,-1,154,139,138,-1,155,156,157,-1,155,157,158,-1,158,157,159,-1,158,159,160,-1,159,161,160,-1,160,161,162,-1,160,162,163,-1,163,162,164,-1,163,164,165,-1,165,164,166,-1,165,166,167,-1,167,166,168,-1,167,168,169,-1,169,168,148,-1,169,148,147,-1,155,170,156,-1,156,170,171,-1,172,173,174,-1,172,174,175,-1,175,174,176,-1,175,176,177,-1,177,176,178,-1,177,178,179,-1,179,178,180,-1,179,180,181,-1,181,180,182,-1,181,182,183,-1,182,184,183,-1,183,184,185,-1,183,185,186,-1,186,185,171,-1,186,171,170,-1,187,188,189,-1,187,189,190,-1,190,189,191,-1,190,191,192,-1,192,191,193,-1,192,193,194,-1,193,195,194,-1,194,195,196,-1,194,196,197,-1,197,196,198,-1,197,198,199,-1,199,198,200,-1,199,200,201,-1,201,200,173,-1,201,173,172,-1,202,203,204,-1,202,204,205,-1,205,204,206,-1,205,206,207,-1,207,206,208,-1,207,208,209,-1,209,208,210,-1,209,210,211,-1,211,210,212,-1,211,212,213,-1,213,212,214,-1,213,214,215,-1,215,214,188,-1,215,188,187,-1,216,217,218,-1,216,218,219,-1,219,218,220,-1,219,220,221,-1,221,220,222,-1,221,222,223,-1,223,222,203,-1,223,203,202,-1,216,224,217,-1,217,224,225,-1,224,226,225,-1,225,226,227,-1,226,228,227,-1,227,228,229,-1,228,230,229,-1,229,230,231,-1,230,114,231,-1,231,114,116,-1,230,228,114,-1,114,228,226,-1,114,226,115,-1,115,226,224,-1,150,152,197,-1,197,152,154,-1,197,154,194,-1,194,154,138,-1,194,138,192,-1,192,138,141,-1,192,141,190,-1,170,155,186,-1,186,155,158,-1,186,158,183,-1,183,158,160,-1,183,160,181,-1,181,160,163,-1,181,163,179,-1,179,163,165,-1,179,165,177,-1,177,165,167,-1,177,167,175,-1,175,167,169,-1,175,169,172,-1,172,169,147,-1,172,147,201,-1,201,147,150,-1,201,150,199,-1,199,150,197,-1,224,216,115,-1,115,216,219,-1,115,219,123,-1,123,219,221,-1,123,221,121,-1,121,221,223,-1,121,223,118,-1,118,223,202,-1,118,202,137,-1,137,202,205,-1,137,205,135,-1,135,205,207,-1,135,207,133,-1,133,207,209,-1,133,209,131,-1,131,209,211,-1,131,211,129,-1,129,211,213,-1,129,213,127,-1,127,213,215,-1,127,215,124,-1,124,215,187,-1,124,187,146,-1,146,187,190,-1,146,190,143,-1,143,190,141,-1,232,233,234,-1,234,233,235,-1,236,237,238,-1,236,238,239,-1,239,238,240,-1,239,240,241,-1,241,240,235,-1,241,235,233,-1,242,243,244,-1,244,243,245,-1,243,246,245,-1,245,246,247,-1,245,247,248,-1,248,247,249,-1,248,249,250,-1,250,249,237,-1,250,237,236,-1,251,252,253,-1,253,252,254,-1,253,254,255,-1,255,254,256,-1,255,256,257,-1,257,256,258,-1,257,258,259,-1,259,258,260,-1,259,260,261,-1,262,263,251,-1,251,263,264,-1,251,264,252,-1,262,265,263,-1,263,265,242,-1,263,242,244,-1,266,267,268,-1,266,268,269,-1,269,268,270,-1,269,270,271,-1,271,270,272,-1,271,272,273,-1,273,272,274,-1,273,274,275,-1,275,274,261,-1,275,261,260,-1,266,276,267,-1,267,276,277,-1,278,279,280,-1,280,279,281,-1,281,282,280,-1,280,282,283,-1,280,283,284,-1,284,283,285,-1,284,285,286,-1,286,285,277,-1,286,277,276,-1,278,287,279,-1,279,287,288,-1,287,289,288,-1,288,289,290,-1,289,291,290,-1,290,291,292,-1,292,291,293,-1,294,295,296,-1,294,296,297,-1,297,296,298,-1,297,298,299,-1,299,298,300,-1,299,300,301,-1,301,300,302,-1,301,302,293,-1,293,302,303,-1,293,303,292,-1,294,304,295,-1,295,304,305,-1,306,307,308,-1,306,308,309,-1,309,308,305,-1,309,305,304,-1,310,311,312,-1,310,312,313,-1,313,312,314,-1,313,314,315,-1,315,314,307,-1,315,307,306,-1,316,317,318,-1,316,318,319,-1,319,318,320,-1,319,320,321,-1,321,320,322,-1,321,322,323,-1,323,322,324,-1,323,324,325,-1,325,324,326,-1,325,326,327,-1,327,326,328,-1,327,328,329,-1,329,328,330,-1,329,330,331,-1,331,330,311,-1,331,311,310,-1,232,234,332,-1,232,332,333,-1,333,332,334,-1,333,334,335,-1,335,334,336,-1,335,336,337,-1,337,336,338,-1,337,338,339,-1,339,338,340,-1,339,340,341,-1,341,340,342,-1,341,342,343,-1,343,342,344,-1,343,344,345,-1,345,344,317,-1,345,317,316,-1,289,287,291,-1,291,287,278,-1,260,310,275,-1,275,310,313,-1,275,313,273,-1,273,313,315,-1,273,315,271,-1,271,315,306,-1,271,306,269,-1,269,306,309,-1,269,309,266,-1,266,309,304,-1,266,304,276,-1,276,304,294,-1,276,294,286,-1,286,294,297,-1,286,297,284,-1,284,297,299,-1,284,299,280,-1,280,299,301,-1,280,301,278,-1,278,301,293,-1,278,293,291,-1,233,232,241,-1,241,232,333,-1,241,333,239,-1,239,333,335,-1,239,335,236,-1,236,335,337,-1,236,337,250,-1,250,337,339,-1,250,339,248,-1,248,339,341,-1,248,341,245,-1,245,341,343,-1,245,343,244,-1,343,345,244,-1,244,345,316,-1,244,316,263,-1,263,316,319,-1,263,319,264,-1,264,319,321,-1,264,321,252,-1,252,321,323,-1,252,323,254,-1,254,323,325,-1,254,325,256,-1,256,325,327,-1,256,327,258,-1,258,327,329,-1,258,329,260,-1,260,329,331,-1,260,331,310,-1,346,347,348,-1,348,347,349,-1,347,350,349,-1,349,350,351,-1,350,352,351,-1,351,352,353,-1,352,346,353,-1,353,346,348,-1,352,350,346,-1,346,350,347,-1,354,355,356,-1,356,355,357,-1,358,359,360,-1,358,360,361,-1,361,360,362,-1,361,362,363,-1,363,362,357,-1,363,357,355,-1,364,365,366,-1,366,365,367,-1,365,368,367,-1,367,368,369,-1,367,369,370,-1,370,369,371,-1,370,371,372,-1,372,371,359,-1,372,359,358,-1,373,374,375,-1,375,374,376,-1,375,376,377,-1,377,376,378,-1,377,378,379,-1,379,378,380,-1,379,380,381,-1,381,380,382,-1,381,382,383,-1,384,385,373,-1,373,385,386,-1,373,386,374,-1,384,387,385,-1,385,387,364,-1,385,364,366,-1,388,389,390,-1,388,390,391,-1,391,390,392,-1,391,392,393,-1,393,392,394,-1,393,394,395,-1,395,394,396,-1,395,396,397,-1,397,396,383,-1,397,383,382,-1,388,398,389,-1,389,398,399,-1,400,401,402,-1,402,401,403,-1,403,404,402,-1,402,404,405,-1,402,405,406,-1,406,405,407,-1,406,407,408,-1,408,407,399,-1,408,399,398,-1,400,409,401,-1,401,409,410,-1,409,411,410,-1,410,411,412,-1,411,413,412,-1,412,413,414,-1,414,413,415,-1,416,417,418,-1,416,418,419,-1,419,418,420,-1,419,420,421,-1,421,420,422,-1,421,422,423,-1,423,422,424,-1,423,424,415,-1,415,424,425,-1,415,425,414,-1,416,426,417,-1,417,426,427,-1,428,429,430,-1,428,430,431,-1,431,430,427,-1,431,427,426,-1,432,433,434,-1,432,434,435,-1,435,434,436,-1,435,436,437,-1,437,436,429,-1,437,429,428,-1,438,439,440,-1,438,440,441,-1,441,440,442,-1,441,442,443,-1,443,442,444,-1,443,444,445,-1,445,444,446,-1,445,446,447,-1,447,446,448,-1,447,448,449,-1,449,448,450,-1,449,450,451,-1,451,450,452,-1,451,452,453,-1,453,452,433,-1,453,433,432,-1,354,356,454,-1,354,454,455,-1,455,454,456,-1,455,456,457,-1,457,456,458,-1,457,458,459,-1,459,458,460,-1,459,460,461,-1,461,460,462,-1,461,462,463,-1,463,462,464,-1,463,464,465,-1,465,464,466,-1,465,466,467,-1,467,466,439,-1,467,439,438,-1,411,409,413,-1,413,409,400,-1,382,432,397,-1,397,432,435,-1,397,435,395,-1,395,435,437,-1,395,437,393,-1,393,437,428,-1,393,428,391,-1,391,428,431,-1,391,431,388,-1,388,431,426,-1,388,426,398,-1,398,426,416,-1,398,416,408,-1,408,416,419,-1,408,419,406,-1,406,419,421,-1,406,421,402,-1,402,421,423,-1,402,423,400,-1,400,423,415,-1,400,415,413,-1,355,354,363,-1,363,354,455,-1,363,455,361,-1,361,455,457,-1,361,457,358,-1,358,457,459,-1,358,459,372,-1,372,459,461,-1,372,461,370,-1,370,461,463,-1,370,463,367,-1,367,463,465,-1,367,465,366,-1,465,467,366,-1,366,467,438,-1,366,438,385,-1,385,438,441,-1,385,441,386,-1,386,441,443,-1,386,443,374,-1,374,443,445,-1,374,445,376,-1,376,445,447,-1,376,447,378,-1,378,447,449,-1,378,449,380,-1,380,449,451,-1,380,451,382,-1,382,451,453,-1,382,453,432,-1,
        ]
    }
}
Shape{
    appearance Appearance {
        material  Material 	{
            diffuseColor 0.7686274509803922 0.7686274509803922 0.7686274509803922
            specularColor 0.615686274509804 0.615686274509804 0.615686274509804
            ambientIntensity 0.7686
            transparency 0.0
            shininess 0.5
        }
    }
    geometry IndexedFaceSet {
        ccw TRUE
        solid FALSE
        coord DEF co Coordinate {
            point [
                -0.5905 -0.1758 0.0, -0.5905 0.1215 0.0, 0.358 0.1215 0.0, 0.1372 0.1227 0.0, 0.166 0.1227 0.0, 0.0171 0.1227 0.0, 0.037 0.178 0.0, 0.1184 0.178 0.0, 0.1902 0.1767 0.0, 0.2015 0.1591 0.0, 0.2177 0.1436 0.0, 0.2382 0.1316 0.0, -0.5905 1.7558 0.0, -0.3937 1.9526 0.0, 0.358 1.9526 0.0, -0.5905 1.3596 0.0, -0.3937 1.3596 0.0, -0.3937 1.2415 0.0, 0.3388 0.3196 0.0, 0.2833 0.3196 0.0, 0.2548 0.3166 0.0, 0.0915 0.3196 0.0, 0.2318 0.3085 0.0, 0.2104 0.2941 0.0, 0.3388 0.1227 0.0, 0.2853 0.1227 0.0, 0.2609 0.1249 0.0, 0.2102 0.2939 0.0, 0.1962 0.2785 0.0, 0.1871 0.2616 0.0, -0.0117 0.1227 0.0, 0.0651 0.3196 0.0, -0.5905 1.2415 0.0, 0.1818 0.2422 0.0, 0.1804 0.2236 0.0, 0.1831 0.1973 0.0, -0.4446 -0.3659 0.0, -0.4921 -0.3463 0.0, -0.5329 -0.315 0.0, -0.5642 -0.2742 0.0, -0.5838 -0.2267 0.0, 0.5621 0.1215 0.0, 0.57 0.1204 0.0, 0.358 -0.3727 0.0, 0.5754 0.1203 0.0, 0.587 0.1215 0.0, 1.378 0.1215 0.0, 1.378 -0.1758 0.0, 1.1811 -0.3727 0.0, 1.3713 -0.2267 0.0, 1.3516 -0.2742 0.0, 1.3203 -0.315 0.0, 1.2795 -0.3463 0.0, 1.2321 -0.3659 0.0, 0.3772 0.1444 0.0, 0.3772 0.1227 0.0, 0.4828 0.1227 0.0, 0.382 0.3196 0.0, 0.382 0.298 0.0, 0.5213 0.1329 0.0, 0.5213 0.1546 0.0, 0.4828 0.3196 0.0, 0.5422 0.1243 0.0, -0.3937 -0.3727 0.0, 1.1811 1.9526 0.0, 1.1811 1.3596 0.0, 1.378 1.7558 0.0, 1.378 1.3596 0.0, 0.4564 0.2116 0.0, 0.4564 0.1444 0.0, 0.3868 0.2116 0.0, 0.3868 0.2332 0.0, 0.4564 0.2332 0.0, 0.4564 0.298 0.0, 0.5867 0.2982 0.0, 0.6015 0.2929 0.0, 0.5248 0.1526 0.0, 0.6151 0.2838 0.0, 0.627 0.2707 0.0, 0.6413 0.2191 0.0, 0.6393 0.1978 0.0, 0.6339 0.1808 0.0, 0.5901 0.144 0.0, 0.5718 0.1419 0.0, 0.6045 0.1493 0.0, 0.6166 0.1574 0.0, 0.6258 0.1672 0.0, 0.5456 0.1448 0.0, 0.7853 0.1227 0.0, 0.6845 0.1227 0.0, 0.5997 0.1229 0.0, 0.6188 0.1294 0.0, 1.1811 1.2415 0.0, 0.6573 0.2678 0.0, 0.6457 0.2862 0.0, 0.7589 0.3196 0.0, 0.6351 0.2555 0.0, 0.6403 0.2344 0.0, 0.5676 0.322 0.0, 0.544 0.3204 0.0, 0.5213 0.3142 0.0, 0.5213 0.2878 0.0, 0.5434 0.2973 0.0, 0.5674 0.3004 0.0, 0.6346 0.1395 0.0, 0.6494 0.1551 0.0, 0.6845 0.1444 0.0, 0.6599 0.1738 0.0, 0.7589 0.1444 0.0, 0.628 0.3033 0.0, 0.6093 0.314 0.0, 0.5873 0.3204 0.0, 0.7853 0.3196 0.0, 1.378 1.2415 0.0, 0.6658 0.1947 0.0, 0.6677 0.2175 0.0, 0.6649 0.2454 0.0, 1.1811 1.2415 0.1969, 1.1811 1.3596 0.1969, -0.3937 1.3596 0.1969, 1.378 1.3596 0.1969, 1.378 1.7558 0.1969, 1.1811 1.9526 0.1969, -0.3937 1.9526 0.1969, -0.5905 1.3596 0.1969, -0.5905 1.7558 0.1969, 1.378 -0.1758 0.1969, 1.378 1.2415 0.1969, -0.5905 1.2415 0.1969, -0.3937 -0.3727 0.1969, -0.3937 1.2415 0.1969, 1.1811 -0.3727 0.1969, 1.2321 -0.3659 0.1969, -0.5905 -0.1758 0.1969, -0.5838 -0.2267 0.1969, -0.5642 -0.2742 0.1969, 1.2795 -0.3463 0.1969, 1.3203 -0.315 0.1969, 1.3516 -0.2742 0.1969, -0.5329 -0.315 0.1969, -0.4921 -0.3463 0.1969, -0.4446 -0.3659 0.1969, 1.3713 -0.2267 0.1969
            ]
        }
        coordIndex [
            0,1,2,-1,3,4,2,-1,5,6,7,-1,8,9,4,-1,4,9,10,-1,4,10,11,-1,12,13,14,-1,15,12,16,-1,16,12,14,-1,16,14,17,-1,17,14,18,-1,19,20,21,-1,21,20,22,-1,21,22,23,-1,24,2,25,-1,25,2,4,-1,25,4,26,-1,26,4,11,-1,23,27,21,-1,21,27,28,-1,21,28,29,-1,7,3,5,-1,5,3,2,-1,5,2,30,-1,30,2,1,-1,30,1,31,-1,31,1,32,-1,31,32,21,-1,21,32,17,-1,21,17,19,-1,19,17,18,-1,29,33,21,-1,21,33,34,-1,21,34,4,-1,4,34,35,-1,4,35,8,-1,36,37,0,-1,37,38,0,-1,0,38,39,-1,0,39,40,-1,41,42,43,-1,43,42,44,-1,43,44,45,-1,46,47,48,-1,48,47,49,-1,48,49,50,-1,50,51,48,-1,48,51,52,-1,48,52,53,-1,54,55,2,-1,2,55,56,-1,24,18,2,-1,2,18,14,-1,2,14,54,-1,54,14,57,-1,54,57,58,-1,59,56,60,-1,60,56,61,-1,59,62,56,-1,56,62,41,-1,56,41,2,-1,2,41,43,-1,2,43,0,-1,0,43,63,-1,0,63,36,-1,14,64,65,-1,65,64,66,-1,65,66,67,-1,68,69,70,-1,70,69,54,-1,70,54,71,-1,71,54,58,-1,71,58,72,-1,72,58,73,-1,74,75,76,-1,76,75,77,-1,76,77,78,-1,79,80,76,-1,76,80,81,-1,82,83,84,-1,84,83,85,-1,81,86,76,-1,76,86,85,-1,76,85,87,-1,87,85,83,-1,88,45,89,-1,89,45,90,-1,89,90,91,-1,14,65,57,-1,57,65,92,-1,57,92,61,-1,93,94,95,-1,78,96,76,-1,76,96,97,-1,76,97,79,-1,98,99,92,-1,92,99,100,-1,92,100,61,-1,61,100,101,-1,61,101,60,-1,60,101,102,-1,60,102,76,-1,76,102,103,-1,76,103,74,-1,91,104,89,-1,89,104,105,-1,89,105,106,-1,106,105,107,-1,106,107,108,-1,94,109,95,-1,95,109,110,-1,95,110,111,-1,111,98,95,-1,95,98,92,-1,95,92,112,-1,112,92,113,-1,112,113,88,-1,88,113,46,-1,88,46,45,-1,45,46,48,-1,45,48,43,-1,107,114,108,-1,108,114,115,-1,108,115,95,-1,95,115,116,-1,95,116,93,-1,117,118,119,-1,120,121,118,-1,118,121,122,-1,118,122,119,-1,119,122,123,-1,119,123,124,-1,124,123,125,-1,126,127,117,-1,128,129,130,-1,130,129,131,-1,130,131,132,-1,128,133,129,-1,129,133,134,-1,129,134,135,-1,136,137,138,-1,135,139,129,-1,129,139,140,-1,129,140,141,-1,119,130,117,-1,117,130,132,-1,117,132,126,-1,126,132,136,-1,126,136,142,-1,142,136,138,-1,16,119,15,-1,15,119,124,-1,17,130,16,-1,16,130,119,-1,32,128,17,-1,17,128,130,-1,128,32,133,-1,133,32,1,-1,133,1,0,-1,63,129,141,-1,63,141,36,-1,36,141,140,-1,36,140,37,-1,37,140,139,-1,37,139,38,-1,38,139,135,-1,38,135,39,-1,39,135,134,-1,39,134,40,-1,40,134,133,-1,40,133,0,-1,48,131,43,-1,43,131,129,-1,43,129,63,-1,47,126,142,-1,47,142,49,-1,49,142,138,-1,49,138,50,-1,50,138,137,-1,50,137,51,-1,51,137,136,-1,51,136,52,-1,52,136,132,-1,52,132,53,-1,53,132,131,-1,53,131,48,-1,113,127,46,-1,46,127,126,-1,46,126,47,-1,92,117,113,-1,113,117,127,-1,65,118,92,-1,92,118,117,-1,67,120,65,-1,65,120,118,-1,66,121,67,-1,67,121,120,-1,64,122,66,-1,66,122,121,-1,13,123,14,-1,14,123,122,-1,14,122,64,-1,12,125,13,-1,13,125,123,-1,15,124,12,-1,12,124,125,-1,
        ]
    }
}
Shape{
    appearance Appearance {
        material  Material 	{
            diffuseColor 0.25098039215686274 0.25098039215686274 0.25098039215686274
            specularColor 0.07450980392156863 0.07450980392156863 0.07450980392156863
            ambientIntensity 0.251
            transparency 0.0
            shininess 0.5
        }
    }
    geometry IndexedFaceSet {
        ccw TRUE
        solid FALSE
        coord DEF co Coordinate {
            point [
                0.0651 0.3196 0.0039, -0.0117 0.1227 0.0039, 0.0651 0.3196 0.0, -0.0117 0.1227 0.0, 0.0171 0.1227 0.0039, 0.0171 0.1227 0.0, 0.037 0.178 0.0039, 0.037 0.178 0.0, 0.1184 0.178 0.0039, 0.1184 0.178 0.0, 0.1372 0.1227 0.0039, 0.1372 0.1227 0.0, 0.166 0.1227 0.0039, 0.166 0.1227 0.0
            ]
        }
        coordIndex [
            0,1,2,-1,2,1,3,-1,1,4,3,-1,3,4,5,-1,4,6,5,-1,5,6,7,-1,6,8,7,-1,7,8,9,-1,8,10,9,-1,9,10,11,-1,10,12,11,-1,11,12,13,-1,
        ]
    }
}
Shape{
    appearance Appearance {
        material  Material 	{
            diffuseColor 0.7686274509803922 0.7686274509803922 0.7686274509803922
            specularColor 0.615686274509804 0.615686274509804 0.615686274509804
            ambientIntensity 0.7686
            transparency 0.0
            shininess 0.5
        }
    }
    geometry IndexedFaceSet {
        ccw TRUE
        solid FALSE
        coord DEF co Coordinate {
            point [
                0.166 0.1227 0.0039, 0.0915 0.3196 0.0039, 0.166 0.1227 0.0, 0.0915 0.3196 0.0, 0.0651 0.3196 0.0039, 0.0651 0.3196 0.0, 0.1117 0.1996 0.0039, 0.1184 0.178 0.0039, 0.0459 0.1996 0.0039, 0.037 0.178 0.0039, 0.0824 0.2818 0.0039, 0.1372 0.1227 0.0039, 0.0805 0.2886 0.0039, 0.0792 0.2956 0.0039, 0.0786 0.2956 0.0039, 0.0773 0.2886 0.0039, 0.0755 0.2818 0.0039, -0.0117 0.1227 0.0039, 0.0171 0.1227 0.0039
            ]
        }
        coordIndex [
            0,1,2,-1,2,1,3,-1,1,4,3,-1,3,4,5,-1,6,7,8,-1,8,7,9,-1,10,1,6,-1,6,1,0,-1,6,0,7,-1,7,0,11,-1,10,12,1,-1,1,12,13,-1,1,13,4,-1,4,13,14,-1,4,14,15,-1,15,16,4,-1,4,16,8,-1,4,8,17,-1,17,8,9,-1,17,9,18,-1,
        ]
    }
}
Shape{
    appearance Appearance {
        material  Material 	{
            diffuseColor 0.25098039215686274 0.25098039215686274 0.25098039215686274
            specularColor 0.07450980392156863 0.07450980392156863 0.07450980392156863
            ambientIntensity 0.251
            transparency 0.0
            shininess 0.5
        }
    }
    geometry IndexedFaceSet {
        ccw TRUE
        solid FALSE
        coord DEF co Coordinate {
            point [
                0.1117 0.1996 0.0039, 0.0459 0.1996 0.0039, 0.1117 0.1996 0.0, 0.0459 0.1996 0.0, 0.0824 0.2818 0.0039, 0.0824 0.2818 0.0
            ]
        }
        coordIndex [
            0,1,2,-1,2,1,3,-1,4,0,5,-1,5,0,2,-1,
        ]
    }
}
Shape{
    appearance Appearance {
        material  Material 	{
            diffuseColor 0.7686274509803922 0.7686274509803922 0.7686274509803922
            specularColor 0.615686274509804 0.615686274509804 0.615686274509804
            ambientIntensity 0.7686
            transparency 0.0
            shininess 0.5
        }
    }
    geometry IndexedFaceSet {
        ccw TRUE
        solid FALSE
        coord DEF co Coordinate {
            point [
                0.0824 0.2818 0.0039, 0.0824 0.2818 0.0, 0.0805 0.2886 0.0, 0.0805 0.2886 0.0039, 0.0792 0.2956 0.0, 0.0792 0.2956 0.0039
            ]
        }
        coordIndex [
            0,1,2,-1,0,2,3,-1,3,2,4,-1,3,4,5,-1,
        ]
    }
}
Shape{
    appearance Appearance {
        material  Material 	{
            diffuseColor 0.25098039215686274 0.25098039215686274 0.25098039215686274
            specularColor 0.07450980392156863 0.07450980392156863 0.07450980392156863
            ambientIntensity 0.251
            transparency 0.0
            shininess 0.5
        }
    }
    geometry IndexedFaceSet {
        ccw TRUE
        solid FALSE
        coord DEF co Coordinate {
            point [
                0.0786 0.2956 0.0039, 0.0792 0.2956 0.0039, 0.0786 0.2956 0.0, 0.0792 0.2956 0.0, 0.0773 0.2886 0.0, 0.0773 0.2886 0.0039, 0.0755 0.2818 0.0, 0.0755 0.2818 0.0039
            ]
        }
        coordIndex [
            0,1,2,-1,2,1,3,-1,0,2,4,-1,0,4,5,-1,5,4,6,-1,5,6,7,-1,
        ]
    }
}
Shape{
    appearance Appearance {
        material  Material 	{
            diffuseColor 0.7686274509803922 0.7686274509803922 0.7686274509803922
            specularColor 0.615686274509804 0.615686274509804 0.615686274509804
            ambientIntensity 0.7686
            transparency 0.0
            shininess 0.5
        }
    }
    geometry IndexedFaceSet {
        ccw TRUE
        solid FALSE
        coord DEF co Coordinate {
            point [
                0.0459 0.1996 0.0039, 0.0755 0.2818 0.0039, 0.0459 0.1996 0.0, 0.0755 0.2818 0.0, 0.2853 0.1227 0.0039, 0.3388 0.1227 0.0039, 0.2853 0.1227 0.0, 0.3388 0.1227 0.0
            ]
        }
        coordIndex [
            0,1,2,-1,2,1,3,-1,4,5,6,-1,6,5,7,-1,
        ]
    }
}
Shape{
    appearance Appearance {
        material  Material 	{
            diffuseColor 0.25098039215686274 0.25098039215686274 0.25098039215686274
            specularColor 0.07450980392156863 0.07450980392156863 0.07450980392156863
            ambientIntensity 0.251
            transparency 0.0
            shininess 0.5
        }
    }
    geometry IndexedFaceSet {
        ccw TRUE
        solid FALSE
        coord DEF co Coordinate {
            point [
                0.3388 0.1227 0.0039, 0.3388 0.3196 0.0039, 0.3388 0.1227 0.0, 0.3388 0.3196 0.0
            ]
        }
        coordIndex [
            0,1,2,-1,2,1,3,-1,
        ]
    }
}
Shape{
    appearance Appearance {
        material  Material 	{
            diffuseColor 0.7686274509803922 0.7686274509803922 0.7686274509803922
            specularColor 0.615686274509804 0.615686274509804 0.615686274509804
            ambientIntensity 0.7686
            transparency 0.0
            shininess 0.5
        }
    }
    geometry IndexedFaceSet {
        ccw TRUE
        solid FALSE
        coord DEF co Coordinate {
            point [
                0.3388 0.3196 0.0039, 0.2833 0.3196 0.0039, 0.3388 0.3196 0.0, 0.2833 0.3196 0.0, 0.1804 0.2236 0.0039, 0.1804 0.2236 0.0, 0.1818 0.2422 0.0, 0.1818 0.2422 0.0039, 0.1871 0.2616 0.0, 0.1871 0.2616 0.0039, 0.1962 0.2785 0.0, 0.1962 0.2785 0.0039, 0.2102 0.2939 0.0, 0.2102 0.2939 0.0039, 0.2104 0.2941 0.0, 0.2104 0.2941 0.0039, 0.2318 0.3085 0.0, 0.2318 0.3085 0.0039, 0.2548 0.3166 0.0, 0.2548 0.3166 0.0039, 0.2853 0.1227 0.0039, 0.2853 0.1227 0.0, 0.2609 0.1249 0.0, 0.2609 0.1249 0.0039, 0.2382 0.1316 0.0, 0.2382 0.1316 0.0039, 0.2177 0.1436 0.0, 0.2177 0.1436 0.0039, 0.2015 0.1591 0.0, 0.2015 0.1591 0.0039, 0.1902 0.1767 0.0, 0.1902 0.1767 0.0039, 0.1831 0.1973 0.0, 0.1831 0.1973 0.0039, 0.2199 0.2704 0.0039, 0.2294 0.2805 0.0039, 0.2438 0.2898 0.0039, 0.2601 0.2955 0.0039, 0.2834 0.298 0.0039, 0.3124 0.298 0.0039, 0.3124 0.1444 0.0039, 0.3388 0.1227 0.0039, 0.2845 0.1444 0.0039, 0.2637 0.1463 0.0039, 0.2471 0.1515 0.0039, 0.2337 0.1594 0.0039, 0.2227 0.1703 0.0039, 0.2144 0.1839 0.0039, 0.2086 0.2024 0.0039, 0.2068 0.2231 0.0039, 0.2084 0.2427 0.0039, 0.213 0.2582 0.0039, 0.2834 0.298 0.0, 0.3124 0.298 0.0, 0.2601 0.2955 0.0, 0.2438 0.2898 0.0, 0.2294 0.2805 0.0, 0.2199 0.2704 0.0, 0.213 0.2582 0.0, 0.2084 0.2427 0.0, 0.2068 0.2231 0.0, 0.2086 0.2024 0.0, 0.2144 0.1839 0.0, 0.2227 0.1703 0.0, 0.2337 0.1594 0.0, 0.2471 0.1515 0.0, 0.2637 0.1463 0.0, 0.2845 0.1444 0.0, 0.3124 0.1444 0.0
            ]
        }
        coordIndex [
            0,1,2,-1,2,1,3,-1,4,5,6,-1,4,6,7,-1,7,6,8,-1,7,8,9,-1,9,8,10,-1,9,10,11,-1,11,10,12,-1,11,12,13,-1,13,12,14,-1,13,14,15,-1,15,14,16,-1,15,16,17,-1,17,16,18,-1,17,18,19,-1,19,18,3,-1,19,3,1,-1,20,21,22,-1,20,22,23,-1,23,22,24,-1,23,24,25,-1,25,24,26,-1,25,26,27,-1,27,26,28,-1,27,28,29,-1,29,28,30,-1,29,30,31,-1,31,30,32,-1,31,32,33,-1,33,32,5,-1,33,5,4,-1,9,11,34,-1,34,11,13,-1,34,13,35,-1,35,13,15,-1,35,15,36,-1,36,15,17,-1,36,17,37,-1,37,17,19,-1,37,19,38,-1,38,19,1,-1,38,1,39,-1,39,1,0,-1,39,0,40,-1,40,0,41,-1,40,41,42,-1,42,41,20,-1,42,20,43,-1,43,20,23,-1,43,23,44,-1,44,23,25,-1,44,25,45,-1,45,25,27,-1,45,27,46,-1,46,27,29,-1,46,29,47,-1,47,29,31,-1,47,31,48,-1,48,31,33,-1,48,33,49,-1,49,33,4,-1,49,4,50,-1,50,4,7,-1,50,7,51,-1,51,7,9,-1,51,9,34,-1,38,39,52,-1,52,39,53,-1,38,52,54,-1,38,54,37,-1,37,54,55,-1,37,55,36,-1,36,55,56,-1,36,56,35,-1,35,56,57,-1,35,57,34,-1,34,57,58,-1,34,58,51,-1,51,58,59,-1,51,59,50,-1,50,59,60,-1,50,60,49,-1,49,60,61,-1,49,61,48,-1,48,61,62,-1,48,62,47,-1,47,62,63,-1,47,63,46,-1,46,63,64,-1,46,64,45,-1,45,64,65,-1,45,65,44,-1,44,65,66,-1,44,66,43,-1,43,66,67,-1,43,67,42,-1,40,42,68,-1,68,42,67,-1,39,40,53,-1,53,40,68,-1,
        ]
    }
}
Shape{
    appearance Appearance {
        material  Material 	{
            diffuseColor 0.25098039215686274 0.25098039215686274 0.25098039215686274
            specularColor 0.07450980392156863 0.07450980392156863 0.07450980392156863
            ambientIntensity 0.251
            transparency 0.0
            shininess 0.5
        }
    }
    geometry IndexedFaceSet {
        ccw TRUE
        solid FALSE
        coord DEF co Coordinate {
            point [
                0.3772 0.1444 0.0039, 0.3772 0.1227 0.0039, 0.3772 0.1444 0.0, 0.3772 0.1227 0.0, 0.4828 0.1227 0.0039, 0.4828 0.1227 0.0, 0.4828 0.3196 0.0039, 0.4828 0.3196 0.0, 0.382 0.3196 0.0039, 0.382 0.3196 0.0, 0.382 0.298 0.0039, 0.382 0.298 0.0, 0.4564 0.298 0.0039, 0.4564 0.298 0.0
            ]
        }
        coordIndex [
            0,1,2,-1,2,1,3,-1,1,4,3,-1,3,4,5,-1,4,6,5,-1,5,6,7,-1,6,8,7,-1,7,8,9,-1,8,10,9,-1,9,10,11,-1,10,12,11,-1,11,12,13,-1,
        ]
    }
}
Shape{
    appearance Appearance {
        material  Material 	{
            diffuseColor 0.7686274509803922 0.7686274509803922 0.7686274509803922
            specularColor 0.615686274509804 0.615686274509804 0.615686274509804
            ambientIntensity 0.7686
            transparency 0.0
            shininess 0.5
        }
    }
    geometry IndexedFaceSet {
        ccw TRUE
        solid FALSE
        coord DEF co Coordinate {
            point [
                0.4564 0.298 0.0039, 0.4564 0.2332 0.0039, 0.4564 0.298 0.0, 0.4564 0.2332 0.0, 0.3868 0.2332 0.0039, 0.3868 0.2332 0.0, 0.3868 0.2116 0.0039, 0.3868 0.2116 0.0
            ]
        }
        coordIndex [
            0,1,2,-1,2,1,3,-1,1,4,3,-1,3,4,5,-1,4,6,5,-1,5,6,7,-1,
        ]
    }
}
Shape{
    appearance Appearance {
        material  Material 	{
            diffuseColor 0.25098039215686274 0.25098039215686274 0.25098039215686274
            specularColor 0.07450980392156863 0.07450980392156863 0.07450980392156863
            ambientIntensity 0.251
            transparency 0.0
            shininess 0.5
        }
    }
    geometry IndexedFaceSet {
        ccw TRUE
        solid FALSE
        coord DEF co Coordinate {
            point [
                0.3868 0.2116 0.0039, 0.4564 0.2116 0.0039, 0.3868 0.2116 0.0, 0.4564 0.2116 0.0
            ]
        }
        coordIndex [
            0,1,2,-1,2,1,3,-1,
        ]
    }
}
Shape{
    appearance Appearance {
        material  Material 	{
            diffuseColor 0.45098039215686275 0.43137254901960786 0.4196078431372549
            specularColor 0.03137254901960784 0.03137254901960784 0.03137254901960784
            ambientIntensity 0.6221
            transparency 0.0
            shininess 0.5
        }
    }
    geometry IndexedFaceSet {
        ccw TRUE
        solid FALSE
        coord DEF co Coordinate {
            point [
                0.4564 0.2116 0.0039, 0.4564 0.1444 0.0039, 0.4564 0.2116 0.0, 0.4564 0.1444 0.0, 0.3772 0.1444 0.0039, 0.3772 0.1444 0.0, 0.4828 0.1227 0.0039, 0.3772 0.1227 0.0039, 0.4828 0.3196 0.0039, 0.382 0.298 0.0039, 0.382 0.3196 0.0039, 0.4564 0.298 0.0039, 0.4564 0.2332 0.0039, 0.3868 0.2332 0.0039, 0.3868 0.2116 0.0039, 0.5213 0.1546 0.0039, 0.5213 0.1329 0.0039, 0.5213 0.1546 0.0, 0.5213 0.1329 0.0, 0.5422 0.1243 0.0039, 0.5754 0.1203 0.0039, 0.5754 0.1203 0.0, 0.57 0.1204 0.0, 0.57 0.1204 0.0039, 0.5621 0.1215 0.0, 0.5422 0.1243 0.0, 0.6677 0.2175 0.0039, 0.6677 0.2175 0.0, 0.6658 0.1947 0.0, 0.6658 0.1947 0.0039, 0.6599 0.1738 0.0, 0.6599 0.1738 0.0039, 0.6494 0.1551 0.0, 0.6494 0.1551 0.0039, 0.6346 0.1395 0.0, 0.6346 0.1395 0.0039, 0.6188 0.1294 0.0, 0.6188 0.1294 0.0039, 0.5997 0.1229 0.0, 0.5997 0.1229 0.0039, 0.587 0.1215 0.0, 0.5676 0.322 0.0039, 0.5676 0.322 0.0, 0.5873 0.3204 0.0, 0.5873 0.3204 0.0039, 0.6093 0.314 0.0, 0.6093 0.314 0.0039, 0.628 0.3033 0.0, 0.628 0.3033 0.0039, 0.6457 0.2862 0.0, 0.6457 0.2862 0.0039, 0.6573 0.2678 0.0, 0.6573 0.2678 0.0039, 0.6649 0.2454 0.0, 0.6649 0.2454 0.0039, 0.5213 0.3142 0.0039, 0.5213 0.3142 0.0, 0.544 0.3204 0.0, 0.544 0.3204 0.0039, 0.5213 0.2878 0.0039, 0.5213 0.2878 0.0, 0.5674 0.3004 0.0039, 0.5674 0.3004 0.0, 0.5434 0.2973 0.0, 0.5434 0.2973 0.0039, 0.6413 0.2191 0.0039, 0.6413 0.2191 0.0, 0.6403 0.2344 0.0, 0.6403 0.2344 0.0039, 0.6351 0.2555 0.0, 0.6351 0.2555 0.0039, 0.627 0.2707 0.0, 0.627 0.2707 0.0039, 0.6151 0.2838 0.0, 0.6151 0.2838 0.0039, 0.6015 0.2929 0.0, 0.6015 0.2929 0.0039, 0.5867 0.2982 0.0, 0.5867 0.2982 0.0039, 0.5718 0.1419 0.0039, 0.5718 0.1419 0.0, 0.5901 0.144 0.0, 0.5901 0.144 0.0039, 0.6045 0.1493 0.0, 0.6045 0.1493 0.0039, 0.6166 0.1574 0.0, 0.6166 0.1574 0.0039, 0.6258 0.1672 0.0, 0.6258 0.1672 0.0039, 0.6339 0.1808 0.0, 0.6339 0.1808 0.0039, 0.6393 0.1978 0.0, 0.6393 0.1978 0.0039, 0.5248 0.1526 0.0, 0.5248 0.1526 0.0039, 0.5456 0.1448 0.0, 0.5456 0.1448 0.0039, 0.6845 0.1444 0.0039, 0.6845 0.1227 0.0039, 0.6845 0.1444 0.0, 0.6845 0.1227 0.0, 0.7853 0.1227 0.0039, 0.7853 0.1227 0.0
            ]
        }
        coordIndex [
            0,1,2,-1,2,1,3,-1,1,4,3,-1,3,4,5,-1,6,7,4,-1,4,1,6,-1,6,1,0,-1,6,0,8,-1,9,10,11,-1,11,10,8,-1,11,8,12,-1,12,8,0,-1,12,0,13,-1,13,0,14,-1,15,16,17,-1,17,16,18,-1,18,16,19,-1,20,21,22,-1,20,22,23,-1,23,22,24,-1,23,24,19,-1,19,24,25,-1,19,25,18,-1,26,27,28,-1,26,28,29,-1,29,28,30,-1,29,30,31,-1,31,30,32,-1,31,32,33,-1,33,32,34,-1,33,34,35,-1,35,34,36,-1,35,36,37,-1,37,36,38,-1,37,38,39,-1,39,38,20,-1,20,38,40,-1,20,40,21,-1,41,42,43,-1,41,43,44,-1,44,43,45,-1,44,45,46,-1,46,45,47,-1,46,47,48,-1,48,47,49,-1,48,49,50,-1,50,49,51,-1,50,51,52,-1,52,51,53,-1,52,53,54,-1,54,53,27,-1,54,27,26,-1,55,56,57,-1,55,57,58,-1,58,57,42,-1,58,42,41,-1,55,59,56,-1,56,59,60,-1,61,62,63,-1,61,63,64,-1,64,63,60,-1,64,60,59,-1,65,66,67,-1,65,67,68,-1,68,67,69,-1,68,69,70,-1,70,69,71,-1,70,71,72,-1,72,71,73,-1,72,73,74,-1,74,73,75,-1,74,75,76,-1,76,75,77,-1,76,77,78,-1,78,77,62,-1,78,62,61,-1,79,80,81,-1,79,81,82,-1,82,81,83,-1,82,83,84,-1,84,83,85,-1,84,85,86,-1,86,85,87,-1,86,87,88,-1,88,87,89,-1,88,89,90,-1,90,89,91,-1,90,91,92,-1,92,91,66,-1,92,66,65,-1,15,17,93,-1,15,93,94,-1,94,93,95,-1,94,95,96,-1,96,95,80,-1,96,80,79,-1,82,20,79,-1,79,20,23,-1,79,23,96,-1,96,23,19,-1,96,19,94,-1,94,19,16,-1,94,16,15,-1,59,55,64,-1,64,55,58,-1,64,58,61,-1,61,58,41,-1,61,41,78,-1,78,41,44,-1,78,44,76,-1,76,44,46,-1,76,46,74,-1,74,46,48,-1,74,48,72,-1,72,48,50,-1,72,50,70,-1,70,50,52,-1,70,52,68,-1,68,52,54,-1,68,54,65,-1,65,54,26,-1,65,26,92,-1,92,26,29,-1,92,29,90,-1,90,29,31,-1,90,31,88,-1,88,31,33,-1,88,33,86,-1,86,33,35,-1,86,35,84,-1,84,35,37,-1,84,37,82,-1,82,37,39,-1,82,39,20,-1,97,98,99,-1,99,98,100,-1,98,101,100,-1,100,101,102,-1,
        ]
    }
}
Shape{
    appearance Appearance {
        material  Material 	{
            diffuseColor 0.25098039215686274 0.25098039215686274 0.25098039215686274
            specularColor 0.07450980392156863 0.07450980392156863 0.07450980392156863
            ambientIntensity 0.251
            transparency 0.0
            shininess 0.5
        }
    }
    geometry IndexedFaceSet {
        ccw TRUE
        solid FALSE
        coord DEF co Coordinate {
            point [
                0.7853 0.1227 0.0039, 0.7853 0.3196 0.0039, 0.7853 0.1227 0.0, 0.7853 0.3196 0.0
            ]
        }
        coordIndex [
            0,1,2,-1,2,1,3,-1,
        ]
    }
}
Shape{
    appearance Appearance {
        material  Material 	{
            diffuseColor 0.45098039215686275 0.43137254901960786 0.4196078431372549
            specularColor 0.03137254901960784 0.03137254901960784 0.03137254901960784
            ambientIntensity 0.6221
            transparency 0.0
            shininess 0.5
        }
    }
    geometry IndexedFaceSet {
        ccw TRUE
        solid FALSE
        coord DEF co Coordinate {
            point [
                0.7853 0.3196 0.0039, 0.7589 0.3196 0.0039, 0.7853 0.3196 0.0, 0.7589 0.3196 0.0, 0.7589 0.1444 0.0039, 0.7589 0.1444 0.0, 0.6845 0.1444 0.0039, 0.6845 0.1444 0.0, 0.7853 0.1227 0.0039, 0.6845 0.1227 0.0039
            ]
        }
        coordIndex [
            0,1,2,-1,2,1,3,-1,1,4,3,-1,3,4,5,-1,4,6,5,-1,5,6,7,-1,1,0,4,-1,4,0,8,-1,4,8,6,-1,6,8,9,-1,
        ]
    }
}
Shape{
    appearance Appearance {
        material  Material 	{
            diffuseColor 0.7686274509803922 0.7686274509803922 0.7686274509803922
            specularColor 0.615686274509804 0.615686274509804 0.615686274509804
            ambientIntensity 0.7686
            transparency 0.0
            shininess 0.5
        }
    }
    geometry IndexedFaceSet {
        ccw TRUE
        solid FALSE
        coord DEF co Coordinate {
            point [
                0.1117 0.1996 0.0, 0.0459 0.1996 0.0, 0.0824 0.2818 0.0, 0.0755 0.2818 0.0, 0.0805 0.2886 0.0, 0.0773 0.2886 0.0, 0.0792 0.2956 0.0, 0.0786 0.2956 0.0, 0.3124 0.298 0.0, 0.3124 0.1444 0.0, 0.2834 0.298 0.0, 0.2845 0.1444 0.0, 0.2637 0.1463 0.0, 0.2068 0.2231 0.0, 0.2084 0.2427 0.0, 0.213 0.2582 0.0, 0.2601 0.2955 0.0, 0.2471 0.1515 0.0, 0.2337 0.1594 0.0, 0.2227 0.1703 0.0, 0.2144 0.1839 0.0, 0.2086 0.2024 0.0, 0.2199 0.2704 0.0, 0.2294 0.2805 0.0, 0.2438 0.2898 0.0
            ]
        }
        coordIndex [
            0,1,2,-1,2,1,3,-1,2,3,4,-1,4,3,5,-1,4,5,6,-1,6,5,7,-1,8,9,10,-1,10,9,11,-1,10,11,12,-1,13,14,10,-1,10,14,15,-1,10,15,16,-1,12,17,10,-1,10,17,18,-1,10,18,19,-1,19,20,10,-1,10,20,21,-1,10,21,13,-1,22,23,15,-1,15,23,24,-1,15,24,16,-1,
        ]
    }
}