#VRML V2.0 utf8
# 3D model generated by easyeda2kicad.py (https://github.com/uPesy/easyeda2kicad.py)

Shape{
    appearance Appearance {
        material  Material 	{
            diffuseColor 0.5019607843137255 0.5019607843137255 0.5019607843137255
            specularColor 0.25098039215686274 0.25098039215686274 0.25098039215686274
            ambientIntensity 0.502
            transparency 0.0
            shininess 0.5
        }
    }
    geometry IndexedFaceSet {
        ccw TRUE
        solid FALSE
        coord DEF co Coordinate {
            point [
                -0.2559 0.0268 0.0336, -0.2559 -0.0269 0.0336, -0.2559 -0.193 0.1181, -0.2559 -0.0269 0.0171, -0.2559 0.1929 0.1181, -0.2559 0.1929 0.0039, -0.2559 0.0697 0.0039, -0.2559 0.0268 0.0171, -0.2559 0.0298 0.0039, -0.2559 -0.0788 0.0039, -0.2559 -0.193 0.0039, -0.1772 -0.1969 0.0394, -0.252 -0.1969 0.1181, -0.2362 -0.1969 0.0394, -0.252 -0.1969 0.0039, -0.2362 -0.1969 0.0039, 0.0937 -0.1969 0.0278, 0.0386 -0.1969 0.0278, -0.0067 -0.1969 0.0039, 0.0386 -0.1969 0.0394, -0.0394 -0.1969 0.0394, -0.0394 -0.1969 0.0039, -0.1772 -0.1969 0.0039, -0.0984 -0.1969 0.0039, -0.0984 -0.1969 0.0394, 0.252 -0.1969 0.1181, 0.0937 -0.1969 0.0394, 0.1692 -0.1969 0.0278, 0.1692 -0.1969 0.0394, 0.2256 -0.1969 0.0394, 0.252 -0.1969 0.0039, 0.2256 -0.1969 0.0278, 0.1485 -0.1969 0.0039, 0.1197 -0.1969 0.0039, 0.0827 -0.1969 0.0039, 0.252 0.1968 0.0039, 0.2362 0.1968 0.0039, 0.2362 0.1968 0.0394, 0.1197 0.1968 0.0039, 0.0984 0.1968 0.0039, 0.0984 0.1968 0.0394, -0.2362 0.1968 0.0039, -0.0937 0.1968 0.0278, -0.0067 0.1968 0.0039, -0.0386 0.1968 0.0278, -0.0386 0.1968 0.0394, 0.1772 0.1968 0.0394, 0.1772 0.1968 0.0039, 0.1485 0.1968 0.0039, 0.252 0.1968 0.1181, 0.0394 0.1968 0.0394, -0.0937 0.1968 0.0394, -0.1692 0.1968 0.0278, -0.2256 0.1968 0.0278, -0.252 0.1968 0.0039, -0.2256 0.1968 0.0394, -0.252 0.1968 0.1181, -0.1692 0.1968 0.0394, 0.0394 0.1968 0.0039, -0.2362 0.0697 0.0039, 0.0787 0.0984 0.0039, 0.0827 0.0989 0.0039, 0.0827 0.0697 0.0039, 0.0984 0.1181 0.0039, 0.0787 -0.1575 0.0039, 0.0827 -0.1575 0.0039, 0.2019 -0.1569 0.0039, 0.2067 -0.1549 0.0039, 0.253 -0.1968 0.0039, 0.2108 -0.1518 0.0039, 0.2539 -0.1964 0.0039, 0.2139 -0.1477 0.0039, 0.2559 -0.193 0.0039, 0.2558 -0.194 0.0039, 0.2554 -0.1949 0.0039, 0.2548 -0.1957 0.0039, 0.1197 -0.1575 0.0039, 0.1485 -0.1575 0.0039, 0.1969 -0.1575 0.0039, 0.0591 -0.0788 0.0039, 0.0591 -0.1378 0.0039, 0.0597 -0.1429 0.0039, 0.0617 -0.1477 0.0039, 0.0648 -0.1518 0.0039, 0.0689 -0.1549 0.0039, 0.0736 -0.1569 0.0039, 0.0787 -0.0 0.0039, 0.0736 -0.0007 0.0039, 0.0827 0.0298 0.0039, -0.0067 -0.0788 0.0039, 0.0591 -0.0197 0.0039, -0.0067 0.0298 0.0039, 0.0689 -0.0027 0.0039, 0.0648 -0.0058 0.0039, 0.0617 -0.0099 0.0039, 0.0597 -0.0146 0.0039, 0.1485 0.0298 0.0039, 0.1485 -0.0 0.0039, 0.1197 0.0298 0.0039, 0.1197 -0.0 0.0039, 0.0827 -0.0 0.0039, 0.2559 0.0298 0.0039, 0.2159 -0.0146 0.0039, 0.2139 -0.0099 0.0039, 0.2108 -0.0058 0.0039, 0.2067 -0.0027 0.0039, 0.2019 -0.0007 0.0039, 0.2159 -0.1429 0.0039, 0.2165 -0.1378 0.0039, 0.2559 -0.0788 0.0039, 0.2165 -0.0788 0.0039, 0.2165 -0.0197 0.0039, 0.1655 0.0298 0.0039, 0.1969 -0.0 0.0039, 0.1631 0.0296 0.0039, -0.253 -0.1968 0.0039, -0.2539 -0.1964 0.0039, -0.2548 -0.1957 0.0039, -0.2554 -0.1949 0.0039, -0.2558 -0.194 0.0039, -0.1815 -0.1059 0.0039, -0.1846 -0.1028 0.0039, -0.2362 -0.0788 0.0039, -0.2288 -0.1028 0.0039, -0.2319 -0.1059 0.0039, -0.2165 -0.0985 0.0039, -0.2209 -0.099 0.0039, -0.2251 -0.1004 0.0039, -0.2343 -0.1096 0.0039, -0.2357 -0.1138 0.0039, -0.2362 -0.1182 0.0039, -0.0437 -0.1059 0.0039, -0.0468 -0.1028 0.0039, -0.0394 -0.1182 0.0039, -0.0399 -0.1138 0.0039, -0.0413 -0.1096 0.0039, -0.091 -0.1028 0.0039, -0.0941 -0.1059 0.0039, -0.0965 -0.1096 0.0039, -0.1791 -0.1096 0.0039, -0.1777 -0.1138 0.0039, -0.1883 -0.1004 0.0039, -0.1925 -0.099 0.0039, -0.1969 -0.0985 0.0039, -0.0984 -0.1182 0.0039, -0.0979 -0.1138 0.0039, -0.1772 -0.1182 0.0039, -0.0505 -0.1004 0.0039, -0.0547 -0.099 0.0039, -0.0591 -0.0985 0.0039, -0.0787 -0.0985 0.0039, -0.0831 -0.099 0.0039, -0.0873 -0.1004 0.0039, 0.2336 0.1082 0.0039, 0.2355 0.113 0.0039, 0.2559 0.0697 0.0039, 0.1772 0.1181 0.0039, 0.1485 0.0697 0.0039, 0.2362 0.1181 0.0039, 0.1778 0.113 0.0039, 0.1798 0.1082 0.0039, 0.1829 0.1041 0.0039, 0.187 0.101 0.0039, 0.1645 0.0697 0.0039, 0.2216 0.099 0.0039, 0.2264 0.101 0.0039, 0.2305 0.1041 0.0039, 0.253 0.1967 0.0039, 0.2539 0.1963 0.0039, 0.2548 0.1956 0.0039, 0.2554 0.1948 0.0039, 0.2558 0.1939 0.0039, 0.2559 0.1929 0.0039, 0.1918 0.099 0.0039, 0.1969 0.0984 0.0039, 0.2165 0.0984 0.0039, 0.0958 0.1082 0.0039, 0.0978 0.113 0.0039, 0.1197 0.0697 0.0039, 0.0838 0.099 0.0039, 0.0886 0.101 0.0039, 0.0927 0.1041 0.0039, 0.0505 0.1003 0.0039, 0.0547 0.0989 0.0039, -0.0067 0.0697 0.0039, 0.0591 0.0984 0.0039, 0.0394 0.1181 0.0039, 0.0399 0.1137 0.0039, 0.0413 0.1095 0.0039, 0.0437 0.1058 0.0039, 0.0468 0.1027 0.0039, -0.2558 0.1939 0.0039, -0.2554 0.1948 0.0039, -0.2548 0.1956 0.0039, -0.2539 0.1963 0.0039, -0.253 0.1967 0.0039, -0.0736 0.0006 0.0039, -0.0689 0.0026 0.0039, -0.0648 0.0057 0.0039, -0.0617 0.0098 0.0039, -0.0597 0.0145 0.0039, -0.0591 0.0196 0.0039, -0.1824 0.0196 0.0039, -0.1785 0.0101 0.0039, -0.1772 -0.0 0.0039, -0.0787 -0.0 0.0039, -0.2063 0.038 0.0039, -0.1969 0.034 0.0039, -0.2362 0.0298 0.0039, -0.1914 0.0298 0.0039, -0.1887 0.0278 0.0039, -0.0617 0.1476 0.0039, -0.0648 0.1517 0.0039, -0.0689 0.1548 0.0039, -0.2139 0.1476 0.0039, -0.2159 0.1428 0.0039, -0.2165 0.1377 0.0039, -0.2165 0.0697 0.0039, -0.2165 0.0393 0.0039, -0.2019 0.1568 0.0039, -0.2067 0.1548 0.0039, -0.2108 0.1517 0.0039, -0.0591 0.0697 0.0039, -0.0591 0.1377 0.0039, -0.0597 0.1428 0.0039, -0.0736 0.1568 0.0039, -0.0787 0.1574 0.0039, -0.1969 0.1574 0.0039, -0.0591 0.0298 0.0039, 0.1523 0.0321 0.0039, 0.1523 0.0364 0.0039, 0.1565 0.0304 0.0039, 0.1605 0.0298 0.0039, 0.1621 0.0296 0.0039, 0.1616 0.0699 0.0039, 0.1581 0.0697 0.0039, 0.1569 0.0696 0.0039, 0.1523 0.0684 0.0039, 0.1523 0.0631 0.0039, 0.1567 0.065 0.0039, 0.153 0.036 0.0039, 0.1615 0.0656 0.0039, 0.1654 0.0652 0.0039, 0.1683 0.0641 0.0039, 0.1711 0.0623 0.0039, 0.1734 0.0596 0.0039, 0.1763 0.0493 0.0039, 0.1759 0.0451 0.0039, 0.1748 0.0417 0.0039, 0.1661 0.0343 0.0039, 0.1624 0.0339 0.0039, 0.1689 0.0354 0.0039, 0.1714 0.037 0.0039, 0.1732 0.039 0.0039, 0.1572 0.0345 0.0039, 0.1751 0.0566 0.0039, 0.1761 0.0524 0.0039, 0.2051 0.0301 0.0039, 0.185 0.0301 0.0039, 0.168 0.0301 0.0039, 0.1718 0.0314 0.0039, 0.1795 0.0591 0.0039, 0.1772 0.0627 0.0039, 0.1998 0.0694 0.0039, 0.1737 0.0662 0.0039, 0.1699 0.0683 0.0039, 0.175 0.0334 0.0039, 0.1779 0.0365 0.0039, 0.185 0.0344 0.0039, 0.18 0.0403 0.0039, 0.1998 0.0344 0.0039, 0.1655 0.0696 0.0039, 0.2051 0.0694 0.0039, 0.1812 0.0444 0.0039, 0.1816 0.049 0.0039, 0.181 0.0546 0.0039, 0.1245 0.0694 0.0039, 0.1245 0.0651 0.0039, 0.1235 0.0344 0.0039, 0.1235 0.0301 0.0039, 0.1446 0.0301 0.0039, 0.1446 0.0694 0.0039, 0.1393 0.0478 0.0039, 0.1393 0.0344 0.0039, 0.1254 0.0478 0.0039, 0.1254 0.0522 0.0039, 0.1393 0.0522 0.0039, 0.1393 0.0651 0.0039, 0.0861 0.0409 0.0039, 0.0883 0.0373 0.0039, 0.0916 0.0342 0.0039, 0.0957 0.0318 0.0039, 0.1047 0.0694 0.0039, 0.099 0.0688 0.0039, 0.0944 0.0672 0.0039, 0.0901 0.0643 0.0039, 0.0901 0.0643 0.0039, 0.0873 0.0612 0.0039, 0.0855 0.0578 0.0039, 0.1002 0.0305 0.0039, 0.1051 0.0301 0.0039, 0.1158 0.0301 0.0039, 0.1158 0.0694 0.0039, 0.0844 0.054 0.0039, 0.0841 0.0502 0.0039, 0.0847 0.045 0.0039, 0.0515 0.0301 0.0039, 0.0457 0.0301 0.0039, 0.0611 0.0694 0.0039, 0.0555 0.0411 0.0039, 0.0717 0.0411 0.0039, 0.0755 0.0301 0.0039, 0.0812 0.0301 0.0039, 0.0664 0.0694 0.0039, 0.2559 -0.193 0.1181, 0.2559 -0.0269 0.0336, 0.2559 0.0268 0.0336, 0.2559 0.1929 0.1181, 0.2559 0.0268 0.0171, 0.2559 -0.0269 0.0171, -0.1894 -0.104 0.122, -0.1846 -0.0992 0.122, -0.252 0.1929 0.122, -0.1788 -0.0955 0.122, -0.1723 -0.0933 0.122, -0.1655 -0.0925 0.122, -0.1586 -0.0933 0.122, 0.252 0.1929 0.122, -0.1522 -0.0955 0.122, -0.1463 -0.0992 0.122, -0.1415 -0.104 0.122, -0.1378 -0.1099 0.122, 0.252 -0.193 0.122, -0.1356 -0.1163 0.122, -0.1348 -0.1232 0.122, -0.1356 -0.13 0.122, -0.1378 -0.1365 0.122, -0.1415 -0.1423 0.122, -0.1463 -0.1471 0.122, -0.1723 -0.153 0.122, -0.1788 -0.1508 0.122, -0.252 -0.193 0.122, -0.1846 -0.1471 0.122, -0.1894 -0.1423 0.122, -0.1931 -0.1365 0.122, -0.1953 -0.13 0.122, -0.1522 -0.1508 0.122, -0.1586 -0.153 0.122, -0.1655 -0.1538 0.122, -0.1961 -0.1232 0.122, -0.1953 -0.1163 0.122, -0.1931 -0.1099 0.122
            ]
        }
        coordIndex [
            0,1,2,-1,2,1,3,-1,4,5,6,-1,2,4,0,-1,0,4,6,-1,0,6,7,-1,7,6,8,-1,7,8,3,-1,3,8,9,-1,3,9,2,-1,2,9,10,-1,11,12,13,-1,13,12,14,-1,13,14,15,-1,16,17,18,-1,17,19,18,-1,18,19,20,-1,18,20,21,-1,22,23,11,-1,11,23,24,-1,11,24,12,-1,12,24,20,-1,12,20,25,-1,25,20,19,-1,25,19,26,-1,16,27,26,-1,26,27,28,-1,26,28,25,-1,25,28,29,-1,25,29,30,-1,30,29,31,-1,30,31,32,-1,32,31,27,-1,32,27,33,-1,33,27,16,-1,33,16,34,-1,34,16,18,-1,35,36,37,-1,38,39,40,-1,41,42,43,-1,43,42,44,-1,43,44,45,-1,46,47,48,-1,49,40,50,-1,51,42,52,-1,52,42,41,-1,52,41,53,-1,53,41,54,-1,53,54,55,-1,55,54,56,-1,55,56,57,-1,57,56,49,-1,58,43,50,-1,50,43,45,-1,50,45,49,-1,49,45,51,-1,49,51,57,-1,57,51,52,-1,35,37,49,-1,49,37,46,-1,49,46,40,-1,40,46,48,-1,40,48,38,-1,54,41,59,-1,60,61,62,-1,63,39,38,-1,64,65,34,-1,30,66,67,-1,30,67,68,-1,68,67,69,-1,68,69,70,-1,71,72,69,-1,69,72,73,-1,73,74,69,-1,69,74,75,-1,69,75,70,-1,34,65,33,-1,33,65,76,-1,33,76,32,-1,32,76,77,-1,32,77,30,-1,30,77,78,-1,30,78,66,-1,79,80,18,-1,18,80,81,-1,18,81,82,-1,82,83,18,-1,18,83,84,-1,18,84,34,-1,34,84,85,-1,34,85,64,-1,86,87,88,-1,79,89,90,-1,90,89,91,-1,88,87,91,-1,91,87,92,-1,91,92,93,-1,93,94,91,-1,91,94,95,-1,91,95,90,-1,96,97,98,-1,98,97,99,-1,98,99,88,-1,88,99,100,-1,88,100,86,-1,101,102,103,-1,103,104,101,-1,101,104,105,-1,101,105,106,-1,71,107,72,-1,72,107,108,-1,72,108,109,-1,109,108,110,-1,109,110,101,-1,101,110,111,-1,101,111,102,-1,112,113,114,-1,114,113,97,-1,10,14,115,-1,115,116,117,-1,117,118,115,-1,115,118,119,-1,115,119,10,-1,89,120,121,-1,122,123,124,-1,125,126,122,-1,122,126,127,-1,122,127,123,-1,124,128,122,-1,122,128,129,-1,122,129,130,-1,89,131,132,-1,133,134,89,-1,89,134,135,-1,89,135,131,-1,136,137,120,-1,120,137,138,-1,120,138,139,-1,139,138,140,-1,121,141,89,-1,89,141,142,-1,89,142,122,-1,122,142,143,-1,122,143,125,-1,79,18,89,-1,89,18,21,-1,89,21,133,-1,144,23,22,-1,138,145,140,-1,140,145,144,-1,140,144,146,-1,146,144,22,-1,132,147,89,-1,89,147,148,-1,89,148,149,-1,149,150,89,-1,89,150,151,-1,89,151,120,-1,120,151,152,-1,120,152,136,-1,153,154,155,-1,47,156,157,-1,154,158,155,-1,155,158,36,-1,155,36,35,-1,156,159,157,-1,157,159,160,-1,157,160,161,-1,161,162,163,-1,164,165,155,-1,155,165,166,-1,155,166,153,-1,167,168,169,-1,169,170,167,-1,167,170,171,-1,167,171,35,-1,35,171,172,-1,35,172,155,-1,162,173,163,-1,163,173,174,-1,163,174,155,-1,155,174,175,-1,155,175,164,-1,176,177,178,-1,179,180,178,-1,178,180,181,-1,178,181,176,-1,182,183,184,-1,60,62,185,-1,58,186,184,-1,184,186,187,-1,184,187,188,-1,188,189,184,-1,184,189,190,-1,184,190,182,-1,6,5,54,-1,54,5,191,-1,191,192,193,-1,193,194,191,-1,191,194,195,-1,191,195,54,-1,89,196,197,-1,197,198,89,-1,89,198,199,-1,89,199,91,-1,91,199,200,-1,91,200,201,-1,202,203,122,-1,122,203,204,-1,122,204,89,-1,89,204,205,-1,89,205,196,-1,206,207,208,-1,208,207,209,-1,208,209,122,-1,122,209,210,-1,122,210,202,-1,211,212,43,-1,43,212,213,-1,214,215,41,-1,41,215,216,-1,41,216,59,-1,59,216,217,-1,59,217,208,-1,208,217,218,-1,208,218,206,-1,219,220,41,-1,41,220,221,-1,41,221,214,-1,222,223,43,-1,43,223,224,-1,43,224,211,-1,213,225,43,-1,43,225,226,-1,43,226,41,-1,41,226,227,-1,41,227,219,-1,201,228,91,-1,91,228,222,-1,91,222,184,-1,184,222,43,-1,184,43,58,-1,229,96,230,-1,230,96,157,-1,229,231,96,-1,96,231,232,-1,96,232,97,-1,97,232,233,-1,97,233,114,-1,163,234,161,-1,161,234,235,-1,161,235,157,-1,157,235,236,-1,236,237,157,-1,157,237,238,-1,157,238,230,-1,230,238,239,-1,230,239,240,-1,240,239,241,-1,240,241,242,-1,242,243,240,-1,240,243,244,-1,240,244,245,-1,246,247,240,-1,240,247,248,-1,249,250,251,-1,251,250,252,-1,248,253,240,-1,240,253,252,-1,240,252,254,-1,254,252,250,-1,245,255,240,-1,240,255,256,-1,240,256,246,-1,257,112,258,-1,258,112,259,-1,258,259,260,-1,261,262,263,-1,263,262,264,-1,263,264,265,-1,260,266,258,-1,258,266,267,-1,258,267,268,-1,268,267,269,-1,268,269,270,-1,265,271,263,-1,263,271,163,-1,263,163,272,-1,272,163,155,-1,272,155,257,-1,257,155,101,-1,257,101,112,-1,112,101,106,-1,112,106,113,-1,269,273,270,-1,270,273,274,-1,270,274,263,-1,263,274,275,-1,263,275,261,-1,276,178,157,-1,276,277,178,-1,178,277,278,-1,178,278,98,-1,98,278,279,-1,98,279,96,-1,96,279,280,-1,96,280,157,-1,157,280,281,-1,157,281,276,-1,282,283,284,-1,284,283,278,-1,284,278,285,-1,285,278,277,-1,285,277,286,-1,286,277,287,-1,288,289,88,-1,88,289,290,-1,88,290,291,-1,61,179,62,-1,62,179,178,-1,62,178,292,-1,292,293,62,-1,62,293,294,-1,62,294,295,-1,295,296,62,-1,62,296,297,-1,62,297,298,-1,291,299,88,-1,88,299,300,-1,88,300,98,-1,98,300,301,-1,98,301,178,-1,178,301,302,-1,178,302,292,-1,298,303,62,-1,62,303,304,-1,62,304,88,-1,88,304,305,-1,88,305,288,-1,306,88,307,-1,307,88,91,-1,307,91,308,-1,308,91,184,-1,308,184,62,-1,62,184,183,-1,62,183,185,-1,309,310,306,-1,306,310,311,-1,306,311,88,-1,88,311,312,-1,88,312,62,-1,62,312,313,-1,62,313,308,-1,54,59,6,-1,6,59,208,-1,6,208,8,-1,8,208,122,-1,8,122,9,-1,9,122,130,-1,9,130,10,-1,10,130,15,-1,10,15,14,-1,177,63,178,-1,178,63,38,-1,178,38,157,-1,157,38,48,-1,157,48,47,-1,314,72,109,-1,315,316,317,-1,317,316,318,-1,172,317,155,-1,155,317,318,-1,155,318,101,-1,101,318,319,-1,101,319,109,-1,109,319,315,-1,109,315,314,-1,314,315,317,-1,320,321,322,-1,322,321,323,-1,322,323,324,-1,324,325,322,-1,322,325,326,-1,322,326,327,-1,327,326,328,-1,327,328,329,-1,329,330,327,-1,327,330,331,-1,327,331,332,-1,331,333,332,-1,332,333,334,-1,332,334,335,-1,335,336,332,-1,332,336,337,-1,332,337,338,-1,339,340,341,-1,341,340,342,-1,342,343,341,-1,341,343,344,-1,341,344,345,-1,338,346,332,-1,332,346,347,-1,332,347,341,-1,341,347,348,-1,341,348,339,-1,345,349,341,-1,341,349,350,-1,341,350,322,-1,322,350,351,-1,322,351,320,-1,
        ]
    }
}
Shape{
    appearance Appearance {
        material  Material 	{
            diffuseColor 0.7529411764705882 0.7529411764705882 0.7529411764705882
            specularColor 0.3764705882352941 0.3764705882352941 0.3764705882352941
            ambientIntensity 0.7529
            transparency 0.0
            shininess 0.5
        }
    }
    geometry IndexedFaceSet {
        ccw TRUE
        solid FALSE
        coord DEF co Coordinate {
            point [
                -0.1387 -0.1232 0.1181, -0.1394 -0.1172 0.1181, -0.1655 -0.1232 0.1181, -0.1446 -0.1398 0.1181, -0.1414 -0.1347 0.1181, -0.1394 -0.1291 0.1181, -0.1595 -0.1492 0.1181, -0.1539 -0.1472 0.1181, -0.1488 -0.144 0.1181, -0.177 -0.1472 0.1181, -0.1714 -0.1492 0.1181, -0.1655 -0.1499 0.1181, -0.1895 -0.1347 0.1181, -0.1863 -0.1398 0.1181, -0.1821 -0.144 0.1181, -0.1915 -0.1172 0.1181, -0.1922 -0.1232 0.1181, -0.1915 -0.1291 0.1181, -0.1821 -0.1023 0.1181, -0.1863 -0.1065 0.1181, -0.1895 -0.1116 0.1181, -0.1655 -0.0964 0.1181, -0.1714 -0.0971 0.1181, -0.177 -0.0991 0.1181, -0.1488 -0.1023 0.1181, -0.1539 -0.0991 0.1181, -0.1595 -0.0971 0.1181, -0.1414 -0.1116 0.1181, -0.1446 -0.1065 0.1181
            ]
        }
        coordIndex [
            0,1,2,-1,3,4,2,-1,2,4,5,-1,2,5,0,-1,6,7,2,-1,2,7,8,-1,2,8,3,-1,9,10,2,-1,2,10,11,-1,2,11,6,-1,12,13,2,-1,2,13,14,-1,2,14,9,-1,15,16,2,-1,2,16,17,-1,2,17,12,-1,18,19,2,-1,2,19,20,-1,2,20,15,-1,21,22,2,-1,2,22,23,-1,2,23,18,-1,24,25,2,-1,2,25,26,-1,2,26,21,-1,1,27,2,-1,2,27,28,-1,2,28,24,-1,
        ]
    }
}
Shape{
    appearance Appearance {
        material  Material 	{
            diffuseColor 1.0 1.0 1.0
            specularColor 0.5019607843137255 0.5019607843137255 0.5019607843137255
            ambientIntensity 1.0
            transparency 0.0
            shininess 0.5
        }
    }
    geometry IndexedFaceSet {
        ccw TRUE
        solid FALSE
        coord DEF co Coordinate {
            point [
                -0.1772 -0.1969 0.0394, -0.1772 -0.2008 0.0394, -0.1772 -0.1969 0.0039, -0.1772 -0.2008 0.0, -0.1772 -0.1182 0.0039, -0.1772 -0.1182 0.0, -0.2362 -0.1182 0.0039, -0.2362 -0.1182 0.0, -0.2362 -0.1969 0.0039, -0.2362 -0.2008 0.0, -0.2362 -0.1969 0.0394, -0.2362 -0.2008 0.0394, -0.2357 -0.1138 0.0039, -0.2357 -0.1138 0.0, -0.2343 -0.1096 0.0039, -0.2343 -0.1096 0.0, -0.2319 -0.1059 0.0039, -0.2319 -0.1059 0.0, -0.2288 -0.1028 0.0039, -0.2288 -0.1028 0.0, -0.2251 -0.1004 0.0039, -0.2251 -0.1004 0.0, -0.2209 -0.099 0.0039, -0.2209 -0.099 0.0, -0.2165 -0.0985 0.0039, -0.2165 -0.0985 0.0, -0.1969 -0.0985 0.0, -0.1969 -0.0985 0.0039, -0.1925 -0.099 0.0039, -0.1925 -0.099 0.0, -0.1883 -0.1004 0.0039, -0.1883 -0.1004 0.0, -0.1846 -0.1028 0.0039, -0.1846 -0.1028 0.0, -0.1815 -0.1059 0.0039, -0.1815 -0.1059 0.0, -0.1791 -0.1096 0.0039, -0.1791 -0.1096 0.0, -0.1777 -0.1138 0.0039, -0.1777 -0.1138 0.0, -0.0984 -0.1182 0.0039, -0.0984 -0.1182 0.0, -0.0984 -0.1969 0.0039, -0.0984 -0.2008 0.0, -0.0984 -0.1969 0.0394, -0.0984 -0.2008 0.0394, -0.0979 -0.1138 0.0039, -0.0979 -0.1138 0.0, -0.0965 -0.1096 0.0039, -0.0965 -0.1096 0.0, -0.0941 -0.1059 0.0039, -0.0941 -0.1059 0.0, -0.091 -0.1028 0.0039, -0.091 -0.1028 0.0, -0.0873 -0.1004 0.0039, -0.0873 -0.1004 0.0, -0.0831 -0.099 0.0039, -0.0831 -0.099 0.0, -0.0787 -0.0985 0.0039, -0.0787 -0.0985 0.0, -0.0591 -0.0985 0.0, -0.0591 -0.0985 0.0039, -0.0547 -0.099 0.0039, -0.0547 -0.099 0.0, -0.0505 -0.1004 0.0039, -0.0505 -0.1004 0.0, -0.0468 -0.1028 0.0039, -0.0468 -0.1028 0.0, -0.0437 -0.1059 0.0039, -0.0437 -0.1059 0.0, -0.0413 -0.1096 0.0039, -0.0413 -0.1096 0.0, -0.0399 -0.1138 0.0039, -0.0399 -0.1138 0.0, -0.0394 -0.1182 0.0039, -0.0394 -0.1182 0.0, -0.0394 -0.1969 0.0394, -0.0394 -0.2008 0.0394, -0.0394 -0.1969 0.0039, -0.0394 -0.2008 0.0, 0.2362 0.1181 0.0039, 0.2362 0.1181 0.0, 0.2362 0.1968 0.0039, 0.2362 0.2007 0.0, 0.2362 0.1968 0.0394, 0.2362 0.2007 0.0394, 0.2355 0.113 0.0039, 0.2355 0.113 0.0, 0.2336 0.1082 0.0039, 0.2336 0.1082 0.0, 0.2305 0.1041 0.0039, 0.2305 0.1041 0.0, 0.2264 0.101 0.0039, 0.2264 0.101 0.0, 0.2216 0.099 0.0039, 0.2216 0.099 0.0, 0.2165 0.0984 0.0039, 0.2165 0.0984 0.0, 0.1969 0.0984 0.0, 0.1969 0.0984 0.0039, 0.1918 0.099 0.0039, 0.1918 0.099 0.0, 0.187 0.101 0.0039, 0.187 0.101 0.0, 0.1829 0.1041 0.0039, 0.1829 0.1041 0.0, 0.1798 0.1082 0.0039, 0.1798 0.1082 0.0, 0.1778 0.113 0.0039, 0.1778 0.113 0.0, 0.1772 0.1181 0.0039, 0.1772 0.1181 0.0, 0.1772 0.1968 0.0394, 0.1772 0.2007 0.0394, 0.1772 0.1968 0.0039, 0.1772 0.2007 0.0, 0.2165 -0.1378 0.0039, 0.2165 -0.1378 0.0, 0.2165 -0.0788 0.0039, 0.2165 -0.0197 0.0, 0.2165 -0.0197 0.0039, 0.0827 -0.1575 0.0039, 0.0787 -0.1575 0.0039, 0.0787 -0.1575 0.0, 0.1969 -0.1575 0.0, 0.1969 -0.1575 0.0039, 0.1485 -0.1575 0.0039, 0.1197 -0.1575 0.0039, 0.0591 -0.0197 0.0039, 0.0591 -0.0197 0.0, 0.0591 -0.0788 0.0039, 0.0591 -0.1378 0.0, 0.0591 -0.1378 0.0039, 0.0787 -0.0 0.0, 0.0787 -0.0 0.0039, 0.0827 -0.0 0.0039, 0.1197 -0.0 0.0039, 0.1485 -0.0 0.0039, 0.1969 -0.0 0.0, 0.1969 -0.0 0.0039, 0.0597 -0.1429 0.0, 0.0736 -0.1569 0.0, 0.0689 -0.1549 0.0, 0.0648 -0.1518 0.0, 0.2159 -0.0146 0.0, 0.2067 -0.0027 0.0, 0.2108 -0.0058 0.0, 0.2139 -0.0099 0.0, 0.2067 -0.1549 0.0, 0.2019 -0.1569 0.0, 0.0617 -0.1477 0.0, 0.2159 -0.1429 0.0, 0.2139 -0.1477 0.0, 0.2108 -0.1518 0.0, 0.0597 -0.0146 0.0, 0.0617 -0.0099 0.0, 0.2019 -0.0007 0.0, 0.0648 -0.0058 0.0, 0.0689 -0.0027 0.0, 0.0736 -0.0007 0.0, 0.0394 0.1968 0.0394, 0.0394 0.2007 0.0394, 0.0394 0.1968 0.0039, 0.0394 0.2007 0.0, 0.0394 0.1181 0.0039, 0.0394 0.1181 0.0, 0.0984 0.1181 0.0039, 0.0984 0.1181 0.0, 0.0984 0.1968 0.0039, 0.0984 0.2007 0.0, 0.0984 0.1968 0.0394, 0.0984 0.2007 0.0394, 0.0787 0.0984 0.0039, 0.0787 0.0984 0.0, 0.0827 0.0989 0.0039, 0.0838 0.099 0.0, 0.0838 0.099 0.0039, 0.0886 0.101 0.0, 0.0886 0.101 0.0039, 0.0927 0.1041 0.0, 0.0927 0.1041 0.0039, 0.0958 0.1082 0.0, 0.0958 0.1082 0.0039, 0.0978 0.113 0.0, 0.0978 0.113 0.0039, 0.0591 0.0984 0.0, 0.0591 0.0984 0.0039, 0.0547 0.0989 0.0039, 0.0547 0.0989 0.0, 0.0505 0.1003 0.0039, 0.0505 0.1003 0.0, 0.0468 0.1027 0.0039, 0.0468 0.1027 0.0, 0.0437 0.1058 0.0039, 0.0437 0.1058 0.0, 0.0413 0.1095 0.0039, 0.0413 0.1095 0.0, 0.0399 0.1137 0.0039, 0.0399 0.1137 0.0, -0.0591 0.1377 0.0, -0.0591 0.1377 0.0039, -0.0591 0.0697 0.0039, -0.0591 0.0196 0.0, -0.0591 0.0298 0.0039, -0.0591 0.0196 0.0039, -0.0787 -0.0 0.0039, -0.1772 -0.0 0.0039, -0.0787 -0.0 0.0, -0.1772 -0.0 0.0, -0.1785 0.0101 0.0, -0.1785 0.0101 0.0039, -0.1824 0.0196 0.0, -0.1824 0.0196 0.0039, -0.1887 0.0278 0.0, -0.1887 0.0278 0.0039, -0.1914 0.0298 0.0039, -0.1969 0.034 0.0, -0.1969 0.034 0.0039, -0.2063 0.038 0.0, -0.2063 0.038 0.0039, -0.2165 0.0393 0.0, -0.2165 0.0393 0.0039, -0.2165 0.1377 0.0039, -0.2165 0.1377 0.0, -0.2165 0.0697 0.0039, -0.1969 0.1574 0.0039, -0.0787 0.1574 0.0039, -0.1969 0.1574 0.0, -0.0787 0.1574 0.0, -0.0689 0.1548 0.0, -0.0648 0.1517 0.0, -0.0689 0.0026 0.0, -0.0648 0.0057 0.0, -0.0597 0.0145 0.0, -0.0617 0.0098 0.0, -0.0597 0.1428 0.0, -0.0617 0.1476 0.0, -0.2019 0.1568 0.0, -0.2067 0.1548 0.0, -0.0736 0.0006 0.0, -0.0736 0.1568 0.0, -0.2108 0.1517 0.0, -0.2159 0.1428 0.0, -0.2139 0.1476 0.0, 0.0611 0.0694 0.0043, 0.0457 0.0301 0.0043, 0.0611 0.0694 0.0039, 0.0457 0.0301 0.0039, 0.0515 0.0301 0.0043, 0.0515 0.0301 0.0039, 0.0555 0.0411 0.0043, 0.0555 0.0411 0.0039, 0.0717 0.0411 0.0043, 0.0717 0.0411 0.0039, 0.0755 0.0301 0.0043, 0.0755 0.0301 0.0039, 0.0812 0.0301 0.0043, 0.0812 0.0301 0.0039, 0.0664 0.0694 0.0043, 0.0664 0.0694 0.0039, 0.0704 0.0454 0.0043, 0.0572 0.0454 0.0043, 0.0645 0.0619 0.0043, 0.0641 0.0632 0.0043, 0.0639 0.0646 0.0043, 0.0638 0.0646 0.0043, 0.0635 0.0632 0.0043, 0.0632 0.0619 0.0043, 0.0704 0.0454 0.0039, 0.0572 0.0454 0.0039, 0.0645 0.0619 0.0039, 0.0641 0.0632 0.0039, 0.0639 0.0646 0.0039, 0.0638 0.0646 0.0039, 0.0635 0.0632 0.0039, 0.0632 0.0619 0.0039, 0.1051 0.0301 0.0043, 0.1158 0.0301 0.0043, 0.1051 0.0301 0.0039, 0.1158 0.0301 0.0039, 0.1158 0.0694 0.0043, 0.1158 0.0694 0.0039, 0.1047 0.0694 0.0043, 0.1047 0.0694 0.0039, 0.0841 0.0502 0.0043, 0.0841 0.0502 0.0039, 0.0844 0.054 0.0039, 0.0844 0.054 0.0043, 0.0855 0.0578 0.0039, 0.0855 0.0578 0.0043, 0.0873 0.0612 0.0039, 0.0873 0.0612 0.0043, 0.0901 0.0643 0.0039, 0.0901 0.0643 0.0043, 0.0901 0.0643 0.0039, 0.0901 0.0643 0.0043, 0.0944 0.0672 0.0039, 0.0944 0.0672 0.0043, 0.099 0.0688 0.0039, 0.099 0.0688 0.0043, 0.1002 0.0305 0.0039, 0.1002 0.0305 0.0043, 0.0957 0.0318 0.0039, 0.0957 0.0318 0.0043, 0.0916 0.0342 0.0039, 0.0916 0.0342 0.0043, 0.0883 0.0373 0.0039, 0.0883 0.0373 0.0043, 0.0861 0.0409 0.0039, 0.0861 0.0409 0.0043, 0.0847 0.045 0.0039, 0.0847 0.045 0.0043, 0.092 0.0596 0.0043, 0.0939 0.0616 0.0043, 0.0968 0.0635 0.0043, 0.1001 0.0646 0.0043, 0.1047 0.0651 0.0043, 0.1105 0.0651 0.0043, 0.1105 0.0344 0.0043, 0.1049 0.0344 0.0043, 0.1008 0.0348 0.0043, 0.0975 0.0358 0.0043, 0.0948 0.0374 0.0043, 0.0926 0.0396 0.0043, 0.0909 0.0423 0.0043, 0.0898 0.046 0.0043, 0.0894 0.0501 0.0043, 0.0897 0.0541 0.0043, 0.0907 0.0572 0.0043, 0.1047 0.0651 0.0039, 0.1105 0.0651 0.0039, 0.1001 0.0646 0.0039, 0.0968 0.0635 0.0039, 0.0939 0.0616 0.0039, 0.092 0.0596 0.0039, 0.0907 0.0572 0.0039, 0.0897 0.0541 0.0039, 0.0894 0.0501 0.0039, 0.0898 0.046 0.0039, 0.0909 0.0423 0.0039, 0.0926 0.0396 0.0039, 0.0948 0.0374 0.0039, 0.0975 0.0358 0.0039, 0.1008 0.0348 0.0039, 0.1049 0.0344 0.0039, 0.1105 0.0344 0.0039, 0.1235 0.0344 0.0043, 0.1235 0.0301 0.0043, 0.1235 0.0344 0.0039, 0.1235 0.0301 0.0039, 0.1446 0.0301 0.0043, 0.1446 0.0301 0.0039, 0.1446 0.0694 0.0043, 0.1446 0.0694 0.0039, 0.1245 0.0694 0.0043, 0.1245 0.0694 0.0039, 0.1245 0.0651 0.0043, 0.1245 0.0651 0.0039, 0.1393 0.0651 0.0043, 0.1393 0.0651 0.0039, 0.1393 0.0522 0.0043, 0.1393 0.0522 0.0039, 0.1254 0.0522 0.0043, 0.1254 0.0522 0.0039, 0.1254 0.0478 0.0043, 0.1254 0.0478 0.0039, 0.1393 0.0478 0.0043, 0.1393 0.0478 0.0039, 0.1393 0.0344 0.0043, 0.1393 0.0344 0.0039, 0.1523 0.0364 0.0043, 0.1523 0.0321 0.0043, 0.1523 0.0364 0.0039, 0.1523 0.0321 0.0039, 0.1565 0.0304 0.0043, 0.1631 0.0296 0.0043, 0.1631 0.0296 0.0039, 0.1621 0.0296 0.0039, 0.1621 0.0296 0.0043, 0.1605 0.0298 0.0039, 0.1565 0.0304 0.0039, 0.1655 0.0298 0.0039, 0.168 0.0301 0.0043, 0.168 0.0301 0.0039, 0.1718 0.0314 0.0043, 0.1718 0.0314 0.0039, 0.175 0.0334 0.0043, 0.175 0.0334 0.0039, 0.1779 0.0365 0.0043, 0.1779 0.0365 0.0039, 0.18 0.0403 0.0043, 0.18 0.0403 0.0039, 0.1812 0.0444 0.0043, 0.1812 0.0444 0.0039, 0.1816 0.049 0.0043, 0.1816 0.049 0.0039, 0.1616 0.0699 0.0043, 0.1616 0.0699 0.0039, 0.1655 0.0696 0.0043, 0.1645 0.0697 0.0039, 0.1655 0.0696 0.0039, 0.1699 0.0683 0.0039, 0.1699 0.0683 0.0043, 0.1737 0.0662 0.0039, 0.1737 0.0662 0.0043, 0.1772 0.0627 0.0039, 0.1772 0.0627 0.0043, 0.1795 0.0591 0.0039, 0.1795 0.0591 0.0043, 0.181 0.0546 0.0039, 0.181 0.0546 0.0043, 0.1581 0.0697 0.0039, 0.1569 0.0696 0.0043, 0.1569 0.0696 0.0039, 0.1523 0.0684 0.0043, 0.1523 0.0684 0.0039, 0.1523 0.0631 0.0043, 0.1523 0.0631 0.0039, 0.1615 0.0656 0.0043, 0.1615 0.0656 0.0039, 0.1567 0.065 0.0039, 0.1567 0.065 0.0043, 0.1763 0.0493 0.0043, 0.1763 0.0493 0.0039, 0.1761 0.0524 0.0039, 0.1761 0.0524 0.0043, 0.1751 0.0566 0.0039, 0.1751 0.0566 0.0043, 0.1734 0.0596 0.0039, 0.1734 0.0596 0.0043, 0.1711 0.0623 0.0039, 0.1711 0.0623 0.0043, 0.1683 0.0641 0.0039, 0.1683 0.0641 0.0043, 0.1654 0.0652 0.0039, 0.1654 0.0652 0.0043, 0.1624 0.0339 0.0043, 0.1624 0.0339 0.0039, 0.1661 0.0343 0.0039, 0.1661 0.0343 0.0043, 0.1689 0.0354 0.0039, 0.1689 0.0354 0.0043, 0.1714 0.037 0.0039, 0.1714 0.037 0.0043, 0.1732 0.039 0.0039, 0.1732 0.039 0.0043, 0.1748 0.0417 0.0039, 0.1748 0.0417 0.0043, 0.1759 0.0451 0.0039, 0.1759 0.0451 0.0043, 0.153 0.036 0.0039, 0.153 0.036 0.0043, 0.1572 0.0345 0.0039, 0.1572 0.0345 0.0043, 0.185 0.0344 0.0043, 0.185 0.0301 0.0043, 0.185 0.0344 0.0039, 0.185 0.0301 0.0039, 0.2051 0.0301 0.0043, 0.2051 0.0301 0.0039, 0.2051 0.0694 0.0043, 0.2051 0.0694 0.0039, 0.1998 0.0694 0.0043, 0.1998 0.0694 0.0039, 0.1998 0.0344 0.0043, 0.1998 0.0344 0.0039
            ]
        }
        coordIndex [
            0,1,2,-1,2,1,3,-1,2,3,4,-1,4,3,5,-1,6,7,8,-1,8,7,9,-1,8,9,10,-1,10,9,11,-1,7,6,12,-1,7,12,13,-1,13,12,14,-1,13,14,15,-1,15,14,16,-1,15,16,17,-1,17,16,18,-1,17,18,19,-1,19,18,20,-1,19,20,21,-1,21,20,22,-1,21,22,23,-1,23,22,24,-1,23,24,25,-1,26,25,27,-1,27,25,24,-1,26,27,28,-1,26,28,29,-1,29,28,30,-1,29,30,31,-1,31,30,32,-1,31,32,33,-1,33,32,34,-1,33,34,35,-1,35,34,36,-1,35,36,37,-1,37,36,38,-1,37,38,39,-1,39,38,4,-1,39,4,5,-1,25,26,7,-1,7,26,9,-1,29,5,26,-1,26,5,3,-1,26,3,9,-1,33,35,37,-1,7,13,25,-1,25,13,15,-1,25,15,17,-1,29,31,5,-1,5,31,33,-1,5,33,39,-1,39,33,37,-1,19,21,17,-1,17,21,23,-1,17,23,25,-1,40,41,42,-1,42,41,43,-1,42,43,44,-1,44,43,45,-1,41,40,46,-1,41,46,47,-1,47,46,48,-1,47,48,49,-1,49,48,50,-1,49,50,51,-1,51,50,52,-1,51,52,53,-1,53,52,54,-1,53,54,55,-1,55,54,56,-1,55,56,57,-1,57,56,58,-1,57,58,59,-1,60,59,61,-1,61,59,58,-1,60,61,62,-1,60,62,63,-1,63,62,64,-1,63,64,65,-1,65,64,66,-1,65,66,67,-1,67,66,68,-1,67,68,69,-1,69,68,70,-1,69,70,71,-1,71,70,72,-1,71,72,73,-1,73,72,74,-1,73,74,75,-1,76,77,78,-1,78,77,79,-1,78,79,74,-1,74,79,75,-1,75,79,60,-1,79,43,60,-1,60,43,41,-1,60,41,59,-1,59,41,47,-1,59,47,57,-1,63,71,60,-1,60,71,73,-1,60,73,75,-1,63,65,71,-1,71,65,67,-1,71,67,69,-1,47,49,57,-1,57,49,51,-1,57,51,55,-1,55,51,53,-1,80,81,82,-1,82,81,83,-1,82,83,84,-1,84,83,85,-1,81,80,86,-1,81,86,87,-1,87,86,88,-1,87,88,89,-1,89,88,90,-1,89,90,91,-1,91,90,92,-1,91,92,93,-1,93,92,94,-1,93,94,95,-1,95,94,96,-1,95,96,97,-1,98,97,99,-1,99,97,96,-1,98,99,100,-1,98,100,101,-1,101,100,102,-1,101,102,103,-1,103,102,104,-1,103,104,105,-1,105,104,106,-1,105,106,107,-1,107,106,108,-1,107,108,109,-1,109,108,110,-1,109,110,111,-1,112,113,114,-1,114,113,115,-1,114,115,110,-1,110,115,111,-1,111,115,98,-1,111,98,109,-1,115,83,98,-1,98,83,81,-1,98,81,97,-1,97,81,95,-1,101,103,105,-1,101,105,98,-1,98,105,107,-1,98,107,109,-1,81,87,89,-1,89,91,81,-1,81,91,93,-1,81,93,95,-1,116,117,118,-1,118,117,119,-1,118,119,120,-1,121,122,123,-1,124,125,126,-1,124,126,123,-1,123,126,127,-1,123,127,121,-1,128,129,130,-1,130,129,131,-1,130,131,132,-1,133,134,135,-1,135,136,133,-1,133,136,137,-1,133,137,138,-1,138,137,139,-1,119,117,138,-1,140,131,123,-1,123,131,124,-1,141,142,143,-1,119,138,144,-1,145,146,147,-1,117,148,149,-1,141,143,123,-1,123,143,150,-1,123,150,140,-1,117,151,148,-1,148,151,152,-1,148,152,153,-1,149,124,117,-1,117,124,131,-1,117,131,138,-1,138,131,129,-1,138,129,133,-1,133,129,154,-1,133,154,155,-1,144,138,147,-1,147,138,156,-1,147,156,145,-1,155,157,133,-1,133,157,158,-1,133,158,159,-1,160,161,162,-1,162,161,163,-1,162,163,164,-1,164,163,165,-1,166,167,168,-1,168,167,169,-1,168,169,170,-1,170,169,171,-1,172,173,174,-1,174,173,175,-1,174,175,176,-1,176,175,177,-1,176,177,178,-1,178,177,179,-1,178,179,180,-1,180,179,181,-1,180,181,182,-1,182,181,183,-1,182,183,184,-1,184,183,167,-1,184,167,166,-1,185,173,186,-1,186,173,172,-1,185,186,187,-1,185,187,188,-1,188,187,189,-1,188,189,190,-1,190,189,191,-1,190,191,192,-1,192,191,193,-1,192,193,194,-1,194,193,195,-1,194,195,196,-1,196,195,197,-1,196,197,198,-1,198,197,164,-1,198,164,165,-1,175,173,167,-1,198,165,185,-1,185,165,163,-1,185,163,173,-1,173,163,169,-1,173,169,167,-1,190,192,194,-1,181,179,177,-1,190,194,188,-1,188,194,185,-1,185,194,196,-1,185,196,198,-1,175,167,177,-1,177,167,183,-1,177,183,181,-1,199,200,201,-1,199,201,202,-1,202,201,203,-1,202,203,204,-1,205,206,207,-1,207,206,208,-1,208,206,209,-1,209,206,210,-1,209,210,211,-1,211,210,212,-1,211,212,213,-1,212,214,213,-1,213,214,215,-1,213,215,216,-1,216,215,217,-1,216,217,218,-1,218,217,219,-1,218,219,220,-1,220,219,221,-1,222,223,224,-1,224,223,220,-1,224,220,221,-1,225,226,227,-1,227,226,228,-1,229,230,213,-1,231,202,232,-1,232,202,233,-1,232,233,234,-1,202,209,199,-1,199,209,211,-1,199,211,235,-1,235,211,213,-1,235,213,236,-1,236,213,230,-1,218,220,227,-1,227,220,223,-1,227,223,237,-1,237,223,238,-1,208,209,207,-1,207,209,202,-1,207,202,239,-1,239,202,231,-1,218,227,216,-1,216,227,228,-1,216,228,213,-1,213,228,240,-1,213,240,229,-1,238,223,241,-1,241,223,242,-1,241,242,243,-1,244,245,246,-1,246,245,247,-1,245,248,247,-1,247,248,249,-1,248,250,249,-1,249,250,251,-1,250,252,251,-1,251,252,253,-1,252,254,253,-1,253,254,255,-1,254,256,255,-1,255,256,257,-1,256,258,257,-1,257,258,259,-1,258,244,259,-1,259,244,246,-1,260,252,261,-1,261,252,250,-1,262,258,260,-1,260,258,256,-1,260,256,252,-1,252,256,254,-1,262,263,258,-1,258,263,264,-1,258,264,244,-1,244,264,265,-1,244,265,266,-1,266,267,244,-1,244,267,261,-1,244,261,245,-1,245,261,250,-1,245,250,248,-1,260,261,268,-1,268,261,269,-1,262,260,270,-1,270,260,268,-1,262,270,271,-1,262,271,263,-1,263,271,272,-1,263,272,264,-1,265,264,273,-1,273,264,272,-1,265,273,274,-1,265,274,266,-1,266,274,275,-1,266,275,267,-1,261,267,269,-1,269,267,275,-1,276,277,278,-1,278,277,279,-1,277,280,279,-1,279,280,281,-1,280,282,281,-1,281,282,283,-1,284,285,286,-1,284,286,287,-1,287,286,288,-1,287,288,289,-1,289,288,290,-1,289,290,291,-1,291,290,292,-1,291,292,293,-1,293,292,294,-1,293,294,295,-1,295,294,296,-1,295,296,297,-1,297,296,298,-1,297,298,299,-1,299,298,283,-1,299,283,282,-1,276,278,300,-1,276,300,301,-1,301,300,302,-1,301,302,303,-1,303,302,304,-1,303,304,305,-1,305,304,306,-1,305,306,307,-1,307,306,308,-1,307,308,309,-1,309,308,310,-1,309,310,311,-1,311,310,285,-1,311,285,284,-1,289,291,312,-1,312,291,293,-1,312,293,313,-1,313,293,295,-1,313,295,314,-1,314,295,297,-1,314,297,315,-1,315,297,299,-1,315,299,316,-1,316,299,282,-1,316,282,317,-1,317,282,280,-1,317,280,318,-1,318,280,277,-1,318,277,319,-1,319,277,276,-1,319,276,320,-1,320,276,301,-1,320,301,321,-1,321,301,303,-1,321,303,322,-1,322,303,305,-1,322,305,323,-1,323,305,307,-1,323,307,324,-1,324,307,309,-1,324,309,325,-1,325,309,311,-1,325,311,326,-1,326,311,284,-1,326,284,327,-1,327,284,287,-1,327,287,328,-1,328,287,289,-1,328,289,312,-1,316,317,329,-1,329,317,330,-1,316,329,331,-1,316,331,315,-1,315,331,332,-1,315,332,314,-1,314,332,333,-1,314,333,313,-1,313,333,334,-1,313,334,312,-1,312,334,335,-1,312,335,328,-1,328,335,336,-1,328,336,327,-1,327,336,337,-1,327,337,326,-1,326,337,338,-1,326,338,325,-1,325,338,339,-1,325,339,324,-1,324,339,340,-1,324,340,323,-1,323,340,341,-1,323,341,322,-1,322,341,342,-1,322,342,321,-1,321,342,343,-1,321,343,320,-1,320,343,344,-1,320,344,319,-1,318,319,345,-1,345,319,344,-1,317,318,330,-1,330,318,345,-1,346,347,348,-1,348,347,349,-1,347,350,349,-1,349,350,351,-1,350,352,351,-1,351,352,353,-1,352,354,353,-1,353,354,355,-1,354,356,355,-1,355,356,357,-1,356,358,357,-1,357,358,359,-1,358,360,359,-1,359,360,361,-1,360,362,361,-1,361,362,363,-1,362,364,363,-1,363,364,365,-1,364,366,365,-1,365,366,367,-1,366,368,367,-1,367,368,369,-1,368,346,369,-1,369,346,348,-1,350,347,346,-1,346,368,350,-1,350,368,366,-1,350,366,352,-1,356,354,358,-1,358,354,352,-1,358,352,360,-1,360,352,366,-1,360,366,362,-1,362,366,364,-1,370,371,372,-1,372,371,373,-1,373,371,374,-1,375,376,377,-1,375,377,378,-1,378,377,379,-1,378,379,374,-1,374,379,380,-1,374,380,373,-1,376,375,381,-1,381,375,382,-1,381,382,383,-1,383,382,384,-1,383,384,385,-1,385,384,386,-1,385,386,387,-1,387,386,388,-1,387,388,389,-1,389,388,390,-1,389,390,391,-1,391,390,392,-1,391,392,393,-1,393,392,394,-1,393,394,395,-1,396,397,398,-1,398,397,399,-1,399,400,398,-1,398,400,401,-1,398,401,402,-1,402,401,403,-1,402,403,404,-1,404,403,405,-1,404,405,406,-1,406,405,407,-1,406,407,408,-1,408,407,409,-1,408,409,410,-1,410,409,395,-1,410,395,394,-1,397,396,411,-1,411,396,412,-1,411,412,413,-1,413,412,414,-1,413,414,415,-1,414,416,415,-1,415,416,417,-1,418,419,420,-1,418,420,421,-1,421,420,417,-1,421,417,416,-1,422,423,424,-1,422,424,425,-1,425,424,426,-1,425,426,427,-1,427,426,428,-1,427,428,429,-1,429,428,430,-1,429,430,431,-1,431,430,432,-1,431,432,433,-1,433,432,434,-1,433,434,435,-1,435,434,419,-1,435,419,418,-1,436,437,438,-1,436,438,439,-1,439,438,440,-1,439,440,441,-1,441,440,442,-1,441,442,443,-1,443,442,444,-1,443,444,445,-1,445,444,446,-1,445,446,447,-1,447,446,448,-1,447,448,449,-1,449,448,423,-1,449,423,422,-1,370,372,450,-1,370,450,451,-1,451,450,452,-1,451,452,453,-1,453,452,437,-1,453,437,436,-1,439,375,436,-1,436,375,378,-1,436,378,453,-1,453,378,374,-1,453,374,451,-1,451,374,371,-1,451,371,370,-1,416,414,421,-1,421,414,412,-1,421,412,418,-1,418,412,396,-1,418,396,435,-1,435,396,398,-1,435,398,433,-1,433,398,402,-1,433,402,431,-1,431,402,404,-1,431,404,429,-1,429,404,406,-1,429,406,427,-1,427,406,408,-1,427,408,425,-1,425,408,410,-1,425,410,422,-1,422,410,394,-1,422,394,449,-1,449,394,392,-1,449,392,447,-1,447,392,390,-1,447,390,445,-1,445,390,388,-1,445,388,443,-1,443,388,386,-1,443,386,441,-1,441,386,384,-1,441,384,439,-1,439,384,382,-1,439,382,375,-1,454,455,456,-1,456,455,457,-1,455,458,457,-1,457,458,459,-1,458,460,459,-1,459,460,461,-1,460,462,461,-1,461,462,463,-1,462,464,463,-1,463,464,465,-1,464,454,465,-1,465,454,456,-1,462,460,464,-1,464,460,458,-1,464,458,454,-1,454,458,455,-1,
        ]
    }
}
Shape{
    appearance Appearance {
        material  Material 	{
            diffuseColor 0.5019607843137255 0.5019607843137255 0.5019607843137255
            specularColor 0.25098039215686274 0.25098039215686274 0.25098039215686274
            ambientIntensity 0.502
            transparency 0.0
            shininess 0.5
        }
    }
    geometry IndexedFaceSet {
        ccw TRUE
        solid FALSE
        coord DEF co Coordinate {
            point [
                0.0704 0.0454 0.0039, 0.0572 0.0454 0.0039, 0.0645 0.0619 0.0039, 0.0632 0.0619 0.0039, 0.0641 0.0632 0.0039, 0.0635 0.0632 0.0039, 0.0639 0.0646 0.0039, 0.0638 0.0646 0.0039, 0.1105 0.0651 0.0039, 0.1105 0.0344 0.0039, 0.1047 0.0651 0.0039, 0.1049 0.0344 0.0039, 0.1008 0.0348 0.0039, 0.0894 0.0501 0.0039, 0.0897 0.0541 0.0039, 0.0907 0.0572 0.0039, 0.1001 0.0646 0.0039, 0.0975 0.0358 0.0039, 0.0948 0.0374 0.0039, 0.0926 0.0396 0.0039, 0.0909 0.0423 0.0039, 0.0898 0.046 0.0039, 0.092 0.0596 0.0039, 0.0939 0.0616 0.0039, 0.0968 0.0635 0.0039
            ]
        }
        coordIndex [
            0,1,2,-1,2,1,3,-1,2,3,4,-1,4,3,5,-1,4,5,6,-1,6,5,7,-1,8,9,10,-1,10,9,11,-1,10,11,12,-1,13,14,10,-1,10,14,15,-1,10,15,16,-1,12,17,10,-1,10,17,18,-1,10,18,19,-1,19,20,10,-1,10,20,21,-1,10,21,13,-1,22,23,15,-1,15,23,24,-1,15,24,16,-1,
        ]
    }
}
Shape{
    appearance Appearance {
        material  Material 	{
            diffuseColor 1.0 1.0 0.0
            specularColor 0.5019607843137255 0.5019607843137255 0.0
            ambientIntensity 0.886
            transparency 0.0
            shininess 0.5
        }
    }
    geometry IndexedFaceSet {
        ccw TRUE
        solid FALSE
        coord DEF co Coordinate {
            point [
                0.2362 0.2007 0.0394, 0.1772 0.2007 0.0394, 0.2362 0.1968 0.0394, 0.1772 0.1968 0.0394, 0.1772 0.2007 0.0, 0.2362 0.2007 0.0, 0.0984 0.2007 0.0394, 0.0394 0.2007 0.0394, 0.0984 0.1968 0.0394, 0.0394 0.1968 0.0394, 0.0394 0.2007 0.0, 0.0984 0.2007 0.0, -0.0386 0.2007 0.0278, -0.0386 0.2007 0.0394, -0.0386 0.1968 0.0278, -0.0386 0.1968 0.0394, -0.0937 0.2007 0.0278, -0.0937 0.1968 0.0278, -0.0937 0.2007 0.0394, -0.0937 0.1968 0.0394, -0.1692 0.2007 0.0278, -0.1692 0.2007 0.0394, -0.1692 0.1968 0.0278, -0.1692 0.1968 0.0394, -0.2256 0.2007 0.0278, -0.2256 0.1968 0.0278, -0.2256 0.2007 0.0394, -0.2256 0.1968 0.0394, -0.2362 -0.2008 0.0394, -0.1772 -0.2008 0.0394, -0.2362 -0.1969 0.0394, -0.1772 -0.1969 0.0394, -0.1772 -0.2008 0.0, -0.2362 -0.2008 0.0, -0.0984 -0.2008 0.0394, -0.0394 -0.2008 0.0394, -0.0984 -0.1969 0.0394, -0.0394 -0.1969 0.0394, -0.0394 -0.2008 0.0, -0.0984 -0.2008 0.0, 0.0937 -0.2008 0.0394, 0.0937 -0.2008 0.0278, 0.0937 -0.1969 0.0394, 0.0937 -0.1969 0.0278, 0.0386 -0.2008 0.0394, 0.0386 -0.1969 0.0394, 0.0386 -0.2008 0.0278, 0.0386 -0.1969 0.0278, 0.2256 -0.2008 0.0394, 0.2256 -0.2008 0.0278, 0.2256 -0.1969 0.0394, 0.2256 -0.1969 0.0278, 0.1692 -0.2008 0.0394, 0.1692 -0.1969 0.0394, 0.1692 -0.2008 0.0278, 0.1692 -0.1969 0.0278
            ]
        }
        coordIndex [
            0,1,2,-1,2,1,3,-1,4,1,5,-1,5,1,0,-1,6,7,8,-1,8,7,9,-1,7,6,10,-1,10,6,11,-1,12,13,14,-1,14,13,15,-1,16,12,17,-1,17,12,14,-1,18,16,19,-1,19,16,17,-1,13,18,15,-1,15,18,19,-1,16,18,12,-1,12,18,13,-1,20,21,22,-1,22,21,23,-1,24,20,25,-1,25,20,22,-1,26,24,27,-1,27,24,25,-1,21,26,23,-1,23,26,27,-1,24,26,20,-1,20,26,21,-1,28,29,30,-1,30,29,31,-1,32,29,33,-1,33,29,28,-1,34,35,36,-1,36,35,37,-1,35,34,38,-1,38,34,39,-1,40,41,42,-1,42,41,43,-1,44,40,45,-1,45,40,42,-1,46,44,47,-1,47,44,45,-1,41,46,43,-1,43,46,47,-1,44,46,40,-1,40,46,41,-1,48,49,50,-1,50,49,51,-1,52,48,53,-1,53,48,50,-1,54,52,55,-1,55,52,53,-1,49,54,51,-1,51,54,55,-1,52,54,48,-1,48,54,49,-1,
        ]
    }
}
Shape{
    appearance Appearance {
        material  Material 	{
            diffuseColor 0.5019607843137255 0.5019607843137255 0.5019607843137255
            specularColor 0.25098039215686274 0.25098039215686274 0.25098039215686274
            ambientIntensity 0.502
            transparency 0.0
            shininess 0.5
        }
    }
    geometry IndexedFaceSet {
        ccw TRUE
        solid FALSE
        coord DEF co Coordinate {
            point [
                -0.252 0.1968 0.1181, -0.252 0.1968 0.0039, -0.253 0.1967 0.0039, -0.253 0.1967 0.1181, -0.2539 0.1963 0.0039, -0.2539 0.1963 0.1181, -0.2548 0.1956 0.0039, -0.2548 0.1956 0.1181, -0.2554 0.1948 0.0039, -0.2554 0.1948 0.1181, -0.2558 0.1939 0.0039, -0.2558 0.1939 0.1181, -0.2559 0.1929 0.0039, -0.2559 0.1929 0.1181, -0.252 0.1929 0.122, 0.252 0.1929 0.122, 0.252 0.1939 0.1219, -0.252 0.1939 0.1219, 0.252 0.1948 0.1215, -0.252 0.1948 0.1215, 0.252 0.1956 0.1209, -0.252 0.1956 0.1209, 0.252 0.1963 0.1201, -0.252 0.1963 0.1201, 0.252 0.1967 0.1191, -0.252 0.1967 0.1191, 0.252 0.1968 0.1181, 0.2559 0.1929 0.1181, 0.2559 0.1929 0.0039, 0.2558 0.1939 0.0039, 0.2558 0.1939 0.1181, 0.2554 0.1948 0.0039, 0.2554 0.1948 0.1181, 0.2548 0.1956 0.0039, 0.2548 0.1956 0.1181, 0.2539 0.1963 0.0039, 0.2539 0.1963 0.1181, 0.253 0.1967 0.0039, 0.253 0.1967 0.1181, 0.252 0.1968 0.0039, -0.2558 0.1929 0.1191, -0.2556 0.1938 0.1191, -0.2537 0.1938 0.1215, -0.2529 0.1934 0.1219, -0.2527 0.1936 0.1219, -0.2522 0.1938 0.1219, -0.253 0.1931 0.1219, -0.2539 0.1934 0.1215, -0.2547 0.1936 0.1209, -0.253 0.1929 0.1219, -0.2534 0.1943 0.1215, -0.2525 0.1937 0.1219, -0.253 0.1946 0.1215, -0.2525 0.1948 0.1215, -0.2539 0.1929 0.1215, -0.2548 0.1929 0.1209, -0.2554 0.1929 0.1201, -0.2544 0.1943 0.1209, -0.2539 0.1948 0.1209, -0.2534 0.1953 0.1209, -0.2527 0.1956 0.1209, -0.2553 0.1937 0.1201, -0.2549 0.1946 0.1201, -0.2544 0.1953 0.1201, -0.2537 0.1958 0.1201, -0.2529 0.1962 0.1201, -0.2553 0.1948 0.1191, -0.2547 0.1956 0.1191, -0.2539 0.1962 0.1191, -0.253 0.1965 0.1191, 0.253 0.1965 0.1191, 0.253 0.1946 0.1215, 0.2525 0.1937 0.1219, 0.2527 0.1936 0.1219, 0.253 0.1929 0.1219, 0.253 0.1931 0.1219, 0.2522 0.1938 0.1219, 0.2525 0.1948 0.1215, 0.2527 0.1956 0.1209, 0.2534 0.1943 0.1215, 0.2529 0.1934 0.1219, 0.2537 0.1938 0.1215, 0.2539 0.1934 0.1215, 0.2539 0.1929 0.1215, 0.2534 0.1953 0.1209, 0.2539 0.1948 0.1209, 0.2544 0.1943 0.1209, 0.2547 0.1936 0.1209, 0.2548 0.1929 0.1209, 0.2529 0.1962 0.1201, 0.2537 0.1958 0.1201, 0.2544 0.1953 0.1201, 0.2549 0.1946 0.1201, 0.2553 0.1937 0.1201, 0.2554 0.1929 0.1201, 0.2539 0.1962 0.1191, 0.2547 0.1956 0.1191, 0.2553 0.1948 0.1191, 0.2556 0.1938 0.1191, 0.2558 0.1929 0.1191, -0.2559 -0.193 0.1181, -0.2559 -0.193 0.0039, -0.2558 -0.194 0.0039, -0.2558 -0.194 0.1181, -0.2554 -0.1949 0.0039, -0.2554 -0.1949 0.1181, -0.2548 -0.1957 0.0039, -0.2548 -0.1957 0.1181, -0.2539 -0.1964 0.0039, -0.2539 -0.1964 0.1181, -0.253 -0.1968 0.0039, -0.253 -0.1968 0.1181, -0.252 -0.1969 0.0039, -0.252 -0.1969 0.1181, -0.252 -0.193 0.122, -0.253 -0.193 0.1219, -0.2539 -0.193 0.1215, -0.2548 -0.193 0.1209, -0.2554 -0.193 0.1201, -0.2558 -0.193 0.1191, 0.252 -0.193 0.122, 0.253 -0.193 0.1219, 0.2539 -0.193 0.1215, 0.2548 -0.193 0.1209, 0.2554 -0.193 0.1201, 0.2558 -0.193 0.1191, 0.2559 -0.193 0.1181, 0.252 -0.1969 0.1181, 0.252 -0.1969 0.0039, 0.253 -0.1968 0.0039, 0.253 -0.1968 0.1181, 0.2539 -0.1964 0.0039, 0.2539 -0.1964 0.1181, 0.2548 -0.1957 0.0039, 0.2548 -0.1957 0.1181, 0.2554 -0.1949 0.0039, 0.2554 -0.1949 0.1181, 0.2558 -0.194 0.0039, 0.2558 -0.194 0.1181, 0.2559 -0.193 0.0039, -0.252 -0.1968 0.1191, -0.253 -0.1966 0.1191, -0.253 -0.1947 0.1215, -0.2525 -0.1938 0.1219, -0.2527 -0.1937 0.1219, -0.253 -0.1932 0.1219, -0.2522 -0.1939 0.1219, -0.2525 -0.1949 0.1215, -0.2527 -0.1957 0.1209, -0.252 -0.194 0.1219, -0.2534 -0.1944 0.1215, -0.2529 -0.1935 0.1219, -0.2537 -0.1939 0.1215, -0.2539 -0.1935 0.1215, -0.252 -0.1949 0.1215, -0.252 -0.1957 0.1209, -0.252 -0.1964 0.1201, -0.2534 -0.1954 0.1209, -0.2539 -0.1949 0.1209, -0.2544 -0.1944 0.1209, -0.2547 -0.1937 0.1209, -0.2529 -0.1963 0.1201, -0.2537 -0.1959 0.1201, -0.2544 -0.1954 0.1201, -0.2549 -0.1947 0.1201, -0.2553 -0.1938 0.1201, -0.2539 -0.1963 0.1191, -0.2547 -0.1957 0.1191, -0.2553 -0.1949 0.1191, -0.2556 -0.1939 0.1191, 0.2556 -0.1939 0.1191, 0.2537 -0.1939 0.1215, 0.2529 -0.1935 0.1219, 0.2527 -0.1937 0.1219, 0.252 -0.194 0.1219, 0.2522 -0.1939 0.1219, 0.253 -0.1932 0.1219, 0.2539 -0.1935 0.1215, 0.2547 -0.1937 0.1209, 0.2534 -0.1944 0.1215, 0.2525 -0.1938 0.1219, 0.253 -0.1947 0.1215, 0.2525 -0.1949 0.1215, 0.252 -0.1949 0.1215, 0.2544 -0.1944 0.1209, 0.2539 -0.1949 0.1209, 0.2534 -0.1954 0.1209, 0.2527 -0.1957 0.1209, 0.252 -0.1957 0.1209, 0.2553 -0.1938 0.1201, 0.2549 -0.1947 0.1201, 0.2544 -0.1954 0.1201, 0.2537 -0.1959 0.1201, 0.2529 -0.1963 0.1201, 0.252 -0.1964 0.1201, 0.2553 -0.1949 0.1191, 0.2547 -0.1957 0.1191, 0.2539 -0.1963 0.1191, 0.253 -0.1966 0.1191, 0.252 -0.1968 0.1191, -0.1387 -0.1232 0.1181, -0.1393 -0.1172 0.1191, -0.1394 -0.1172 0.1181, -0.1413 -0.1115 0.1191, -0.1414 -0.1116 0.1181, -0.1445 -0.1064 0.1191, -0.1446 -0.1065 0.1181, -0.1487 -0.1022 0.1191, -0.1488 -0.1023 0.1181, -0.1538 -0.099 0.1191, -0.1539 -0.0991 0.1181, -0.1595 -0.097 0.1191, -0.1595 -0.0971 0.1181, -0.1655 -0.0963 0.1191, -0.1655 -0.0964 0.1181, -0.1714 -0.097 0.1191, -0.1714 -0.0971 0.1181, -0.1771 -0.099 0.1191, -0.177 -0.0991 0.1181, -0.1822 -0.1022 0.1191, -0.1821 -0.1023 0.1181, -0.1864 -0.1064 0.1191, -0.1863 -0.1065 0.1181, -0.1896 -0.1115 0.1191, -0.1895 -0.1116 0.1181, -0.1916 -0.1172 0.1191, -0.1915 -0.1172 0.1181, -0.1923 -0.1232 0.1191, -0.1922 -0.1232 0.1181, -0.1916 -0.1291 0.1191, -0.1915 -0.1291 0.1181, -0.1896 -0.1348 0.1191, -0.1895 -0.1347 0.1181, -0.1864 -0.1399 0.1191, -0.1863 -0.1398 0.1181, -0.1822 -0.1441 0.1191, -0.1821 -0.144 0.1181, -0.1771 -0.1473 0.1191, -0.177 -0.1472 0.1181, -0.1714 -0.1493 0.1191, -0.1714 -0.1492 0.1181, -0.1655 -0.15 0.1191, -0.1655 -0.1499 0.1181, -0.1595 -0.1493 0.1191, -0.1595 -0.1492 0.1181, -0.1538 -0.1473 0.1191, -0.1539 -0.1472 0.1181, -0.1487 -0.1441 0.1191, -0.1488 -0.144 0.1181, -0.1445 -0.1399 0.1191, -0.1446 -0.1398 0.1181, -0.1413 -0.1348 0.1191, -0.1414 -0.1347 0.1181, -0.1393 -0.1291 0.1191, -0.1394 -0.1291 0.1181, -0.1386 -0.1232 0.1191, -0.1389 -0.1171 0.1201, -0.1409 -0.1113 0.1201, -0.1442 -0.1062 0.1201, -0.1485 -0.1019 0.1201, -0.1536 -0.0986 0.1201, -0.1594 -0.0966 0.1201, -0.1655 -0.0959 0.1201, -0.1715 -0.0966 0.1201, -0.1773 -0.0986 0.1201, -0.1824 -0.1019 0.1201, -0.1868 -0.1062 0.1201, -0.19 -0.1113 0.1201, -0.192 -0.1171 0.1201, -0.1927 -0.1232 0.1201, -0.192 -0.1292 0.1201, -0.19 -0.135 0.1201, -0.1868 -0.1401 0.1201, -0.1824 -0.1445 0.1201, -0.1773 -0.1477 0.1201, -0.1715 -0.1497 0.1201, -0.1655 -0.1504 0.1201, -0.1594 -0.1497 0.1201, -0.1536 -0.1477 0.1201, -0.1485 -0.1445 0.1201, -0.1442 -0.1401 0.1201, -0.1409 -0.135 0.1201, -0.1389 -0.1292 0.1201, -0.1382 -0.1232 0.1201, -0.1383 -0.117 0.1209, -0.1403 -0.1111 0.1209, -0.1437 -0.1058 0.1209, -0.1481 -0.1014 0.1209, -0.1534 -0.098 0.1209, -0.1593 -0.096 0.1209, -0.1655 -0.0953 0.1209, -0.1717 -0.096 0.1209, -0.1775 -0.098 0.1209, -0.1828 -0.1014 0.1209, -0.1872 -0.1058 0.1209, -0.1906 -0.1111 0.1209, -0.1926 -0.117 0.1209, -0.1933 -0.1232 0.1209, -0.1926 -0.1294 0.1209, -0.1906 -0.1352 0.1209, -0.1872 -0.1405 0.1209, -0.1828 -0.1449 0.1209, -0.1775 -0.1483 0.1209, -0.1717 -0.1503 0.1209, -0.1655 -0.151 0.1209, -0.1593 -0.1503 0.1209, -0.1534 -0.1483 0.1209, -0.1481 -0.1449 0.1209, -0.1437 -0.1405 0.1209, -0.1403 -0.1352 0.1209, -0.1383 -0.1294 0.1209, -0.1376 -0.1232 0.1209, -0.1375 -0.1168 0.1215, -0.1396 -0.1107 0.1215, -0.143 -0.1053 0.1215, -0.1476 -0.1007 0.1215, -0.153 -0.0973 0.1215, -0.1591 -0.0952 0.1215, -0.1655 -0.0945 0.1215, -0.1718 -0.0952 0.1215, -0.1779 -0.0973 0.1215, -0.1833 -0.1007 0.1215, -0.1879 -0.1053 0.1215, -0.1913 -0.1107 0.1215, -0.1934 -0.1168 0.1215, -0.1941 -0.1232 0.1215, -0.1934 -0.1295 0.1215, -0.1913 -0.1356 0.1215, -0.1879 -0.141 0.1215, -0.1833 -0.1456 0.1215, -0.1779 -0.149 0.1215, -0.1718 -0.1511 0.1215, -0.1655 -0.1518 0.1215, -0.1591 -0.1511 0.1215, -0.153 -0.149 0.1215, -0.1476 -0.1456 0.1215, -0.143 -0.141 0.1215, -0.1396 -0.1356 0.1215, -0.1375 -0.1295 0.1215, -0.1368 -0.1232 0.1215, -0.1366 -0.1166 0.1219, -0.1388 -0.1103 0.1219, -0.1423 -0.1047 0.1219, -0.147 -0.1 0.1219, -0.1526 -0.0965 0.1219, -0.1589 -0.0943 0.1219, -0.1655 -0.0935 0.1219, -0.172 -0.0943 0.1219, -0.1783 -0.0965 0.1219, -0.1839 -0.1 0.1219, -0.1886 -0.1047 0.1219, -0.1922 -0.1103 0.1219, -0.1943 -0.1166 0.1219, -0.1951 -0.1232 0.1219, -0.1943 -0.1297 0.1219, -0.1922 -0.136 0.1219, -0.1886 -0.1416 0.1219, -0.1839 -0.1463 0.1219, -0.1783 -0.1499 0.1219, -0.172 -0.152 0.1219, -0.1655 -0.1528 0.1219, -0.1589 -0.152 0.1219, -0.1526 -0.1499 0.1219, -0.147 -0.1463 0.1219, -0.1423 -0.1416 0.1219, -0.1388 -0.136 0.1219, -0.1366 -0.1297 0.1219, -0.1358 -0.1232 0.1219, -0.1356 -0.1163 0.122, -0.1378 -0.1099 0.122, -0.1415 -0.104 0.122, -0.1463 -0.0992 0.122, -0.1522 -0.0955 0.122, -0.1586 -0.0933 0.122, -0.1655 -0.0925 0.122, -0.1723 -0.0933 0.122, -0.1788 -0.0955 0.122, -0.1846 -0.0992 0.122, -0.1894 -0.104 0.122, -0.1931 -0.1099 0.122, -0.1953 -0.1163 0.122, -0.1961 -0.1232 0.122, -0.1953 -0.13 0.122, -0.1931 -0.1365 0.122, -0.1894 -0.1423 0.122, -0.1846 -0.1471 0.122, -0.1788 -0.1508 0.122, -0.1723 -0.153 0.122, -0.1655 -0.1538 0.122, -0.1586 -0.153 0.122, -0.1522 -0.1508 0.122, -0.1463 -0.1471 0.122, -0.1415 -0.1423 0.122, -0.1378 -0.1365 0.122, -0.1356 -0.13 0.122, -0.1348 -0.1232 0.122
            ]
        }
        coordIndex [
            0,1,2,-1,0,2,3,-1,3,2,4,-1,3,4,5,-1,5,4,6,-1,5,6,7,-1,7,6,8,-1,7,8,9,-1,9,8,10,-1,9,10,11,-1,11,10,12,-1,11,12,13,-1,14,15,16,-1,14,16,17,-1,17,16,18,-1,17,18,19,-1,19,18,20,-1,19,20,21,-1,21,20,22,-1,21,22,23,-1,23,22,24,-1,23,24,25,-1,25,24,26,-1,25,26,0,-1,27,28,29,-1,27,29,30,-1,30,29,31,-1,30,31,32,-1,32,31,33,-1,32,33,34,-1,34,33,35,-1,34,35,36,-1,36,35,37,-1,36,37,38,-1,38,37,39,-1,38,39,26,-1,13,40,41,-1,42,43,44,-1,14,17,45,-1,44,43,14,-1,46,14,43,-1,46,43,47,-1,47,43,42,-1,47,42,48,-1,49,14,46,-1,50,51,52,-1,52,51,45,-1,52,45,53,-1,53,45,17,-1,53,17,19,-1,49,46,54,-1,54,46,47,-1,54,47,55,-1,55,47,48,-1,55,48,56,-1,57,50,58,-1,58,50,52,-1,58,52,59,-1,59,52,53,-1,59,53,60,-1,60,53,19,-1,60,19,21,-1,61,57,62,-1,62,57,58,-1,62,58,63,-1,63,58,59,-1,63,59,64,-1,64,59,60,-1,64,60,65,-1,65,60,21,-1,65,21,23,-1,40,61,41,-1,41,61,62,-1,41,62,66,-1,66,62,63,-1,66,63,67,-1,67,63,64,-1,67,64,68,-1,68,64,65,-1,68,65,69,-1,69,65,23,-1,69,23,25,-1,13,41,11,-1,11,41,66,-1,11,66,9,-1,9,66,67,-1,9,67,7,-1,7,67,68,-1,7,68,5,-1,5,68,69,-1,5,69,3,-1,3,69,25,-1,3,25,0,-1,51,14,45,-1,40,56,61,-1,61,56,48,-1,61,48,57,-1,57,48,42,-1,57,42,50,-1,50,42,44,-1,50,44,51,-1,51,44,14,-1,26,24,70,-1,71,72,73,-1,15,74,75,-1,73,72,15,-1,76,15,72,-1,76,72,77,-1,77,72,71,-1,77,71,78,-1,16,15,76,-1,79,80,81,-1,81,80,75,-1,81,75,82,-1,82,75,74,-1,82,74,83,-1,16,76,18,-1,18,76,77,-1,18,77,20,-1,20,77,78,-1,20,78,22,-1,84,79,85,-1,85,79,81,-1,85,81,86,-1,86,81,82,-1,86,82,87,-1,87,82,83,-1,87,83,88,-1,89,84,90,-1,90,84,85,-1,90,85,91,-1,91,85,86,-1,91,86,92,-1,92,86,87,-1,92,87,93,-1,93,87,88,-1,93,88,94,-1,24,89,70,-1,70,89,90,-1,70,90,95,-1,95,90,91,-1,95,91,96,-1,96,91,92,-1,96,92,97,-1,97,92,93,-1,97,93,98,-1,98,93,94,-1,98,94,99,-1,26,70,38,-1,38,70,95,-1,38,95,36,-1,36,95,96,-1,36,96,34,-1,34,96,97,-1,34,97,32,-1,32,97,98,-1,32,98,30,-1,30,98,99,-1,30,99,27,-1,80,15,75,-1,24,22,89,-1,89,22,78,-1,89,78,84,-1,84,78,71,-1,84,71,79,-1,79,71,73,-1,79,73,80,-1,80,73,15,-1,100,101,102,-1,100,102,103,-1,103,102,104,-1,103,104,105,-1,105,104,106,-1,105,106,107,-1,107,106,108,-1,107,108,109,-1,109,108,110,-1,109,110,111,-1,111,110,112,-1,111,112,113,-1,114,14,49,-1,114,49,115,-1,115,49,54,-1,115,54,116,-1,116,54,55,-1,116,55,117,-1,117,55,56,-1,117,56,118,-1,118,56,40,-1,118,40,119,-1,119,40,13,-1,119,13,100,-1,15,120,121,-1,15,121,74,-1,74,121,122,-1,74,122,83,-1,83,122,123,-1,83,123,88,-1,88,123,124,-1,88,124,94,-1,94,124,125,-1,94,125,99,-1,99,125,126,-1,99,126,27,-1,127,128,129,-1,127,129,130,-1,130,129,131,-1,130,131,132,-1,132,131,133,-1,132,133,134,-1,134,133,135,-1,134,135,136,-1,136,135,137,-1,136,137,138,-1,138,137,139,-1,138,139,126,-1,113,140,141,-1,142,143,144,-1,114,115,145,-1,144,143,114,-1,146,114,143,-1,146,143,147,-1,147,143,142,-1,147,142,148,-1,149,114,146,-1,150,151,152,-1,152,151,145,-1,152,145,153,-1,153,145,115,-1,153,115,116,-1,149,146,154,-1,154,146,147,-1,154,147,155,-1,155,147,148,-1,155,148,156,-1,157,150,158,-1,158,150,152,-1,158,152,159,-1,159,152,153,-1,159,153,160,-1,160,153,116,-1,160,116,117,-1,161,157,162,-1,162,157,158,-1,162,158,163,-1,163,158,159,-1,163,159,164,-1,164,159,160,-1,164,160,165,-1,165,160,117,-1,165,117,118,-1,140,161,141,-1,141,161,162,-1,141,162,166,-1,166,162,163,-1,166,163,167,-1,167,163,164,-1,167,164,168,-1,168,164,165,-1,168,165,169,-1,169,165,118,-1,169,118,119,-1,113,141,111,-1,111,141,166,-1,111,166,109,-1,109,166,167,-1,109,167,107,-1,107,167,168,-1,107,168,105,-1,105,168,169,-1,105,169,103,-1,103,169,119,-1,103,119,100,-1,151,114,145,-1,140,156,161,-1,161,156,148,-1,161,148,157,-1,157,148,142,-1,157,142,150,-1,150,142,144,-1,150,144,151,-1,151,144,114,-1,126,125,170,-1,171,172,173,-1,120,174,175,-1,173,172,120,-1,176,120,172,-1,176,172,177,-1,177,172,171,-1,177,171,178,-1,121,120,176,-1,179,180,181,-1,181,180,175,-1,181,175,182,-1,182,175,174,-1,182,174,183,-1,121,176,122,-1,122,176,177,-1,122,177,123,-1,123,177,178,-1,123,178,124,-1,184,179,185,-1,185,179,181,-1,185,181,186,-1,186,181,182,-1,186,182,187,-1,187,182,183,-1,187,183,188,-1,189,184,190,-1,190,184,185,-1,190,185,191,-1,191,185,186,-1,191,186,192,-1,192,186,187,-1,192,187,193,-1,193,187,188,-1,193,188,194,-1,125,189,170,-1,170,189,190,-1,170,190,195,-1,195,190,191,-1,195,191,196,-1,196,191,192,-1,196,192,197,-1,197,192,193,-1,197,193,198,-1,198,193,194,-1,198,194,199,-1,126,170,138,-1,138,170,195,-1,138,195,136,-1,136,195,196,-1,136,196,134,-1,134,196,197,-1,134,197,132,-1,132,197,198,-1,132,198,130,-1,130,198,199,-1,130,199,127,-1,180,120,175,-1,125,124,189,-1,189,124,178,-1,189,178,184,-1,184,178,171,-1,184,171,179,-1,179,171,173,-1,179,173,180,-1,180,173,120,-1,120,114,149,-1,120,149,174,-1,174,149,154,-1,174,154,183,-1,183,154,155,-1,183,155,188,-1,188,155,156,-1,188,156,194,-1,194,156,140,-1,194,140,199,-1,199,140,113,-1,199,113,127,-1,200,201,202,-1,202,201,203,-1,202,203,204,-1,204,203,205,-1,204,205,206,-1,206,205,207,-1,206,207,208,-1,208,207,209,-1,208,209,210,-1,210,209,211,-1,210,211,212,-1,212,211,213,-1,212,213,214,-1,214,213,215,-1,214,215,216,-1,216,215,217,-1,216,217,218,-1,218,217,219,-1,218,219,220,-1,220,219,221,-1,220,221,222,-1,222,221,223,-1,222,223,224,-1,224,223,225,-1,224,225,226,-1,226,225,227,-1,226,227,228,-1,228,227,229,-1,228,229,230,-1,230,229,231,-1,230,231,232,-1,232,231,233,-1,232,233,234,-1,234,233,235,-1,234,235,236,-1,236,235,237,-1,236,237,238,-1,238,237,239,-1,238,239,240,-1,240,239,241,-1,240,241,242,-1,242,241,243,-1,242,243,244,-1,244,243,245,-1,244,245,246,-1,246,245,247,-1,246,247,248,-1,248,247,249,-1,248,249,250,-1,250,249,251,-1,250,251,252,-1,252,251,253,-1,252,253,254,-1,254,253,255,-1,254,255,200,-1,200,255,201,-1,255,256,201,-1,201,256,257,-1,201,257,203,-1,203,257,258,-1,203,258,205,-1,205,258,259,-1,205,259,207,-1,207,259,260,-1,207,260,209,-1,209,260,261,-1,209,261,211,-1,211,261,262,-1,211,262,213,-1,213,262,263,-1,213,263,215,-1,215,263,264,-1,215,264,217,-1,217,264,265,-1,217,265,219,-1,219,265,266,-1,219,266,221,-1,221,266,267,-1,221,267,223,-1,223,267,268,-1,223,268,225,-1,225,268,269,-1,225,269,227,-1,227,269,270,-1,227,270,229,-1,229,270,271,-1,229,271,231,-1,231,271,272,-1,231,272,233,-1,233,272,273,-1,233,273,235,-1,235,273,274,-1,235,274,237,-1,237,274,275,-1,237,275,239,-1,239,275,276,-1,239,276,241,-1,241,276,277,-1,241,277,243,-1,243,277,278,-1,243,278,245,-1,245,278,279,-1,245,279,247,-1,247,279,280,-1,247,280,249,-1,249,280,281,-1,249,281,251,-1,251,281,282,-1,251,282,253,-1,253,282,283,-1,253,283,255,-1,255,283,256,-1,283,284,256,-1,256,284,285,-1,256,285,257,-1,257,285,286,-1,257,286,258,-1,258,286,287,-1,258,287,259,-1,259,287,288,-1,259,288,260,-1,260,288,289,-1,260,289,261,-1,261,289,290,-1,261,290,262,-1,262,290,291,-1,262,291,263,-1,263,291,292,-1,263,292,264,-1,264,292,293,-1,264,293,265,-1,265,293,294,-1,265,294,266,-1,266,294,295,-1,266,295,267,-1,267,295,296,-1,267,296,268,-1,268,296,297,-1,268,297,269,-1,269,297,298,-1,269,298,270,-1,270,298,299,-1,270,299,271,-1,271,299,300,-1,271,300,272,-1,272,300,301,-1,272,301,273,-1,273,301,302,-1,273,302,274,-1,274,302,303,-1,274,303,275,-1,275,303,304,-1,275,304,276,-1,276,304,305,-1,276,305,277,-1,277,305,306,-1,277,306,278,-1,278,306,307,-1,278,307,279,-1,279,307,308,-1,279,308,280,-1,280,308,309,-1,280,309,281,-1,281,309,310,-1,281,310,282,-1,282,310,311,-1,282,311,283,-1,283,311,284,-1,311,312,284,-1,284,312,313,-1,284,313,285,-1,285,313,314,-1,285,314,286,-1,286,314,315,-1,286,315,287,-1,287,315,316,-1,287,316,288,-1,288,316,317,-1,288,317,289,-1,289,317,318,-1,289,318,290,-1,290,318,319,-1,290,319,291,-1,291,319,320,-1,291,320,292,-1,292,320,321,-1,292,321,293,-1,293,321,322,-1,293,322,294,-1,294,322,323,-1,294,323,295,-1,295,323,324,-1,295,324,296,-1,296,324,325,-1,296,325,297,-1,297,325,326,-1,297,326,298,-1,298,326,327,-1,298,327,299,-1,299,327,328,-1,299,328,300,-1,300,328,329,-1,300,329,301,-1,301,329,330,-1,301,330,302,-1,302,330,331,-1,302,331,303,-1,303,331,332,-1,303,332,304,-1,304,332,333,-1,304,333,305,-1,305,333,334,-1,305,334,306,-1,306,334,335,-1,306,335,307,-1,307,335,336,-1,307,336,308,-1,308,336,337,-1,308,337,309,-1,309,337,338,-1,309,338,310,-1,310,338,339,-1,310,339,311,-1,311,339,312,-1,339,340,312,-1,312,340,341,-1,312,341,313,-1,313,341,342,-1,313,342,314,-1,314,342,343,-1,314,343,315,-1,315,343,344,-1,315,344,316,-1,316,344,345,-1,316,345,317,-1,317,345,346,-1,317,346,318,-1,318,346,347,-1,318,347,319,-1,319,347,348,-1,319,348,320,-1,320,348,349,-1,320,349,321,-1,321,349,350,-1,321,350,322,-1,322,350,351,-1,322,351,323,-1,323,351,352,-1,323,352,324,-1,324,352,353,-1,324,353,325,-1,325,353,354,-1,325,354,326,-1,326,354,355,-1,326,355,327,-1,327,355,356,-1,327,356,328,-1,328,356,357,-1,328,357,329,-1,329,357,358,-1,329,358,330,-1,330,358,359,-1,330,359,331,-1,331,359,360,-1,331,360,332,-1,332,360,361,-1,332,361,333,-1,333,361,362,-1,333,362,334,-1,334,362,363,-1,334,363,335,-1,335,363,364,-1,335,364,336,-1,336,364,365,-1,336,365,337,-1,337,365,366,-1,337,366,338,-1,338,366,367,-1,338,367,339,-1,339,367,340,-1,367,368,340,-1,340,368,369,-1,340,369,341,-1,341,369,370,-1,341,370,342,-1,342,370,371,-1,342,371,343,-1,343,371,372,-1,343,372,344,-1,344,372,373,-1,344,373,345,-1,345,373,374,-1,345,374,346,-1,346,374,375,-1,346,375,347,-1,347,375,376,-1,347,376,348,-1,348,376,377,-1,348,377,349,-1,349,377,378,-1,349,378,350,-1,350,378,379,-1,350,379,351,-1,351,379,380,-1,351,380,352,-1,352,380,381,-1,352,381,353,-1,353,381,382,-1,353,382,354,-1,354,382,383,-1,354,383,355,-1,355,383,384,-1,355,384,356,-1,356,384,385,-1,356,385,357,-1,357,385,386,-1,357,386,358,-1,358,386,387,-1,358,387,359,-1,359,387,388,-1,359,388,360,-1,360,388,389,-1,360,389,361,-1,361,389,390,-1,361,390,362,-1,362,390,391,-1,362,391,363,-1,363,391,392,-1,363,392,364,-1,364,392,393,-1,364,393,365,-1,365,393,394,-1,365,394,366,-1,366,394,395,-1,366,395,367,-1,367,395,368,-1,
        ]
    }
}
Shape{
    appearance Appearance {
        material  Material 	{
            diffuseColor 1.0 1.0 0.0
            specularColor 0.5019607843137255 0.5019607843137255 0.0
            ambientIntensity 0.886
            transparency 0.0
            shininess 0.5
        }
    }
    geometry IndexedFaceSet {
        ccw TRUE
        solid FALSE
        coord DEF co Coordinate {
            point [
                -0.2598 -0.0269 0.0171, -0.2598 0.0268 0.0171, -0.2559 -0.0269 0.0171, -0.2559 0.0268 0.0171, -0.2598 -0.0269 0.0336, -0.2559 -0.0269 0.0336, -0.2598 0.0268 0.0336, -0.2559 0.0268 0.0336, 0.2598 0.0268 0.0171, 0.2598 -0.0269 0.0171, 0.2559 0.0268 0.0171, 0.2559 -0.0269 0.0171, 0.2598 0.0268 0.0336, 0.2559 0.0268 0.0336, 0.2598 -0.0269 0.0336, 0.2559 -0.0269 0.0336
            ]
        }
        coordIndex [
            0,1,2,-1,2,1,3,-1,4,0,5,-1,5,0,2,-1,6,4,7,-1,7,4,5,-1,1,6,3,-1,3,6,7,-1,4,6,0,-1,0,6,1,-1,8,9,10,-1,10,9,11,-1,12,8,13,-1,13,8,10,-1,14,12,15,-1,15,12,13,-1,9,14,11,-1,11,14,15,-1,12,14,8,-1,8,14,9,-1,
        ]
    }
}
Shape{
    appearance Appearance {
        material  Material 	{
            diffuseColor 1.0 1.0 1.0
            specularColor 0.8784313725490196 0.8784313725490196 0.8784313725490196
            ambientIntensity 1.0
            transparency 0.0
            shininess 0.5
        }
    }
    geometry IndexedFaceSet {
        ccw TRUE
        solid FALSE
        coord DEF co Coordinate {
            point [
                -0.2165 0.1377 0.0, -0.2165 0.1377 0.0039, -0.2159 0.1428 0.0039, -0.2159 0.1428 0.0, -0.2139 0.1476 0.0039, -0.2139 0.1476 0.0, -0.2108 0.1517 0.0039, -0.2108 0.1517 0.0, -0.2067 0.1548 0.0039, -0.2067 0.1548 0.0, -0.2019 0.1568 0.0039, -0.2019 0.1568 0.0, -0.1969 0.1574 0.0039, -0.1969 0.1574 0.0, -0.0787 0.1574 0.0, -0.0787 0.1574 0.0039, -0.0736 0.1568 0.0039, -0.0736 0.1568 0.0, -0.0689 0.1548 0.0039, -0.0689 0.1548 0.0, -0.0648 0.1517 0.0039, -0.0648 0.1517 0.0, -0.0617 0.1476 0.0039, -0.0617 0.1476 0.0, -0.0597 0.1428 0.0039, -0.0597 0.1428 0.0, -0.0591 0.1377 0.0039, -0.0591 0.1377 0.0, -0.0591 0.0196 0.0, -0.0591 0.0196 0.0039, -0.0597 0.0145 0.0039, -0.0597 0.0145 0.0, -0.0617 0.0098 0.0039, -0.0617 0.0098 0.0, -0.0648 0.0057 0.0039, -0.0648 0.0057 0.0, -0.0689 0.0026 0.0039, -0.0689 0.0026 0.0, -0.0736 0.0006 0.0039, -0.0736 0.0006 0.0, -0.0787 -0.0 0.0039, -0.0787 -0.0 0.0, 0.0787 -0.1575 0.0, 0.0787 -0.1575 0.0039, 0.0736 -0.1569 0.0039, 0.0736 -0.1569 0.0, 0.0689 -0.1549 0.0039, 0.0689 -0.1549 0.0, 0.0648 -0.1518 0.0039, 0.0648 -0.1518 0.0, 0.0617 -0.1477 0.0039, 0.0617 -0.1477 0.0, 0.0597 -0.1429 0.0039, 0.0597 -0.1429 0.0, 0.0591 -0.1378 0.0039, 0.0591 -0.1378 0.0, 0.2165 -0.1378 0.0, 0.2165 -0.1378 0.0039, 0.2159 -0.1429 0.0039, 0.2159 -0.1429 0.0, 0.2139 -0.1477 0.0039, 0.2139 -0.1477 0.0, 0.2108 -0.1518 0.0039, 0.2108 -0.1518 0.0, 0.2067 -0.1549 0.0039, 0.2067 -0.1549 0.0, 0.2019 -0.1569 0.0039, 0.2019 -0.1569 0.0, 0.1969 -0.1575 0.0039, 0.1969 -0.1575 0.0, 0.1969 -0.0 0.0, 0.1969 -0.0 0.0039, 0.2019 -0.0007 0.0039, 0.2019 -0.0007 0.0, 0.2067 -0.0027 0.0039, 0.2067 -0.0027 0.0, 0.2108 -0.0058 0.0039, 0.2108 -0.0058 0.0, 0.2139 -0.0099 0.0039, 0.2139 -0.0099 0.0, 0.2159 -0.0146 0.0039, 0.2159 -0.0146 0.0, 0.2165 -0.0197 0.0039, 0.2165 -0.0197 0.0, 0.0591 -0.0197 0.0, 0.0591 -0.0197 0.0039, 0.0597 -0.0146 0.0039, 0.0597 -0.0146 0.0, 0.0617 -0.0099 0.0039, 0.0617 -0.0099 0.0, 0.0648 -0.0058 0.0039, 0.0648 -0.0058 0.0, 0.0689 -0.0027 0.0039, 0.0689 -0.0027 0.0, 0.0736 -0.0007 0.0039, 0.0736 -0.0007 0.0, 0.0787 -0.0 0.0039, 0.0787 -0.0 0.0
            ]
        }
        coordIndex [
            0,1,2,-1,0,2,3,-1,3,2,4,-1,3,4,5,-1,5,4,6,-1,5,6,7,-1,7,6,8,-1,7,8,9,-1,9,8,10,-1,9,10,11,-1,11,10,12,-1,11,12,13,-1,14,15,16,-1,14,16,17,-1,17,16,18,-1,17,18,19,-1,19,18,20,-1,19,20,21,-1,21,20,22,-1,21,22,23,-1,23,22,24,-1,23,24,25,-1,25,24,26,-1,25,26,27,-1,28,29,30,-1,28,30,31,-1,31,30,32,-1,31,32,33,-1,33,32,34,-1,33,34,35,-1,35,34,36,-1,35,36,37,-1,37,36,38,-1,37,38,39,-1,39,38,40,-1,39,40,41,-1,42,43,44,-1,42,44,45,-1,45,44,46,-1,45,46,47,-1,47,46,48,-1,47,48,49,-1,49,48,50,-1,49,50,51,-1,51,50,52,-1,51,52,53,-1,53,52,54,-1,53,54,55,-1,56,57,58,-1,56,58,59,-1,59,58,60,-1,59,60,61,-1,61,60,62,-1,61,62,63,-1,63,62,64,-1,63,64,65,-1,65,64,66,-1,65,66,67,-1,67,66,68,-1,67,68,69,-1,70,71,72,-1,70,72,73,-1,73,72,74,-1,73,74,75,-1,75,74,76,-1,75,76,77,-1,77,76,78,-1,77,78,79,-1,79,78,80,-1,79,80,81,-1,81,80,82,-1,81,82,83,-1,84,85,86,-1,84,86,87,-1,87,86,88,-1,87,88,89,-1,89,88,90,-1,89,90,91,-1,91,90,92,-1,91,92,93,-1,93,92,94,-1,93,94,95,-1,95,94,96,-1,95,96,97,-1,
        ]
    }
}