%TF.GenerationSoftware,KiCad,Pcbnew,9.0.4*%
%TF.CreationDate,2026-01-11T17:22:50-08:00*%
%TF.ProjectId,2026Precharge,32303236-5072-4656-9368-617267652e6b,rev?*%
%TF.SameCoordinates,Original*%
%TF.FileFunction,Soldermask,Bot*%
%TF.FilePolarity,Negative*%
%FSLAX46Y46*%
G04 Gerber Fmt 4.6, Leading zero omitted, Abs format (unit mm)*
G04 Created by KiCad (PCBNEW 9.0.4) date 2026-01-11 17:22:50*
%MOMM*%
%LPD*%
G01*
G04 APERTURE LIST*
G04 Aperture macros list*
%AMRoundRect*
0 Rectangle with rounded corners*
0 $1 Rounding radius*
0 $2 $3 $4 $5 $6 $7 $8 $9 X,Y pos of 4 corners*
0 Add a 4 corners polygon primitive as box body*
4,1,4,$2,$3,$4,$5,$6,$7,$8,$9,$2,$3,0*
0 Add four circle primitives for the rounded corners*
1,1,$1+$1,$2,$3*
1,1,$1+$1,$4,$5*
1,1,$1+$1,$6,$7*
1,1,$1+$1,$8,$9*
0 Add four rect primitives between the rounded corners*
20,1,$1+$1,$2,$3,$4,$5,0*
20,1,$1+$1,$4,$5,$6,$7,0*
20,1,$1+$1,$6,$7,$8,$9,0*
20,1,$1+$1,$8,$9,$2,$3,0*%
G04 Aperture macros list end*
%ADD10RoundRect,0.102000X0.555000X0.555000X-0.555000X0.555000X-0.555000X-0.555000X0.555000X-0.555000X0*%
%ADD11C,1.314000*%
%ADD12C,1.601000*%
%ADD13C,4.300000*%
%ADD14RoundRect,0.102000X0.565000X0.565000X-0.565000X0.565000X-0.565000X-0.565000X0.565000X-0.565000X0*%
%ADD15C,1.334000*%
%ADD16C,1.020000*%
%ADD17RoundRect,0.250001X0.499999X-0.499999X0.499999X0.499999X-0.499999X0.499999X-0.499999X-0.499999X0*%
%ADD18C,1.500000*%
%ADD19RoundRect,0.250001X0.499999X0.499999X-0.499999X0.499999X-0.499999X-0.499999X0.499999X-0.499999X0*%
%ADD20R,1.700000X1.700000*%
%ADD21C,1.700000*%
G04 APERTURE END LIST*
D10*
%TO.C,PS1*%
X152130000Y-115630000D03*
D11*
X149590000Y-115630000D03*
X144510000Y-115630000D03*
X139430000Y-115630000D03*
%TD*%
D12*
%TO.C,F4*%
X117010000Y-146910000D03*
X117010000Y-141830000D03*
%TD*%
%TO.C,F3*%
X117080000Y-122090000D03*
X117080000Y-117010000D03*
%TD*%
D13*
%TO.C,H4*%
X193840000Y-146010000D03*
%TD*%
%TO.C,H2*%
X193840000Y-115670000D03*
%TD*%
D12*
%TO.C,F2*%
X115620000Y-133900000D03*
X120700000Y-133900000D03*
%TD*%
D14*
%TO.C,U2*%
X132945000Y-128960000D03*
D15*
X132945000Y-126420000D03*
X132945000Y-123880000D03*
X132945000Y-121340000D03*
X125005000Y-121340000D03*
X125005000Y-123880000D03*
X125005000Y-126420000D03*
X125005000Y-128960000D03*
%TD*%
D13*
%TO.C,H1*%
X107390000Y-115670000D03*
%TD*%
D16*
%TO.C,Molex2*%
X111000000Y-138190000D03*
X111000000Y-132190000D03*
D17*
X107060000Y-135190000D03*
D18*
X110060000Y-135190000D03*
%TD*%
D13*
%TO.C,H3*%
X107390000Y-146010000D03*
%TD*%
D12*
%TO.C,F1*%
X115300000Y-113110000D03*
X120380000Y-113110000D03*
%TD*%
D16*
%TO.C,J1*%
X187050000Y-113910000D03*
X172050000Y-113910000D03*
D19*
X184050000Y-117850000D03*
D18*
X181050000Y-117850000D03*
X178050000Y-117850000D03*
X175050000Y-117850000D03*
X184050000Y-114850000D03*
X181050000Y-114850000D03*
X178050000Y-114850000D03*
X175050000Y-114850000D03*
%TD*%
D16*
%TO.C,Molex1*%
X110990000Y-128330000D03*
X110990000Y-122330000D03*
D17*
X107050000Y-125330000D03*
D18*
X110050000Y-125330000D03*
%TD*%
D20*
%TO.C,J2*%
X164880000Y-138730000D03*
D21*
X164880000Y-141270000D03*
X164880000Y-143810000D03*
X164880000Y-146350000D03*
%TD*%
D14*
%TO.C,U5*%
X132967500Y-149380000D03*
D15*
X132967500Y-146840000D03*
X132967500Y-144300000D03*
X132967500Y-141760000D03*
X125027500Y-141760000D03*
X125027500Y-144300000D03*
X125027500Y-146840000D03*
X125027500Y-149380000D03*
%TD*%
M02*
