%TF.GenerationSoftware,KiCad,Pcbnew,9.0.4*%
%TF.CreationDate,2026-01-11T17:22:50-08:00*%
%TF.ProjectId,2026Precharge,32303236-5072-4656-9368-617267652e6b,rev?*%
%TF.SameCoordinates,Original*%
%TF.FileFunction,Copper,L2,Bot*%
%TF.FilePolarity,Positive*%
%FSLAX46Y46*%
G04 Gerber Fmt 4.6, Leading zero omitted, Abs format (unit mm)*
G04 Created by KiCad (PCBNEW 9.0.4) date 2026-01-11 17:22:50*
%MOMM*%
%LPD*%
G01*
G04 APERTURE LIST*
G04 Aperture macros list*
%AMRoundRect*
0 Rectangle with rounded corners*
0 $1 Rounding radius*
0 $2 $3 $4 $5 $6 $7 $8 $9 X,Y pos of 4 corners*
0 Add a 4 corners polygon primitive as box body*
4,1,4,$2,$3,$4,$5,$6,$7,$8,$9,$2,$3,0*
0 Add four circle primitives for the rounded corners*
1,1,$1+$1,$2,$3*
1,1,$1+$1,$4,$5*
1,1,$1+$1,$6,$7*
1,1,$1+$1,$8,$9*
0 Add four rect primitives between the rounded corners*
20,1,$1+$1,$2,$3,$4,$5,0*
20,1,$1+$1,$4,$5,$6,$7,0*
20,1,$1+$1,$6,$7,$8,$9,0*
20,1,$1+$1,$8,$9,$2,$3,0*%
G04 Aperture macros list end*
%TA.AperFunction,ComponentPad*%
%ADD10R,1.110000X1.110000*%
%TD*%
%TA.AperFunction,ComponentPad*%
%ADD11C,1.110000*%
%TD*%
%TA.AperFunction,ComponentPad*%
%ADD12C,1.397000*%
%TD*%
%TA.AperFunction,ComponentPad*%
%ADD13R,1.130000X1.130000*%
%TD*%
%TA.AperFunction,ComponentPad*%
%ADD14C,1.130000*%
%TD*%
%TA.AperFunction,ComponentPad*%
%ADD15RoundRect,0.250001X0.499999X-0.499999X0.499999X0.499999X-0.499999X0.499999X-0.499999X-0.499999X0*%
%TD*%
%TA.AperFunction,ComponentPad*%
%ADD16C,1.500000*%
%TD*%
%TA.AperFunction,ComponentPad*%
%ADD17RoundRect,0.250001X0.499999X0.499999X-0.499999X0.499999X-0.499999X-0.499999X0.499999X-0.499999X0*%
%TD*%
%TA.AperFunction,ComponentPad*%
%ADD18R,1.700000X1.700000*%
%TD*%
%TA.AperFunction,ComponentPad*%
%ADD19C,1.700000*%
%TD*%
%TA.AperFunction,ViaPad*%
%ADD20C,0.600000*%
%TD*%
%TA.AperFunction,Conductor*%
%ADD21C,0.250000*%
%TD*%
%TA.AperFunction,Conductor*%
%ADD22C,0.500000*%
%TD*%
G04 APERTURE END LIST*
D10*
%TO.P,PS1,1,+VIN(VCC)*%
%TO.N,GLV+*%
X152130000Y-115630000D03*
D11*
%TO.P,PS1,2,-VIN(GND)*%
%TO.N,GLV-*%
X149590000Y-115630000D03*
%TO.P,PS1,4,-VOUT*%
%TO.N,HV-*%
X144510000Y-115630000D03*
%TO.P,PS1,6,+VOUT*%
%TO.N,12V_HV*%
X139430000Y-115630000D03*
%TD*%
D12*
%TO.P,F4,1*%
%TO.N,HV-*%
X117010000Y-146910000D03*
%TO.P,F4,2*%
%TO.N,Net-(Molex2-Pin_1)*%
X117010000Y-141830000D03*
%TD*%
%TO.P,F3,1*%
%TO.N,HV-*%
X117080000Y-122090000D03*
%TO.P,F3,2*%
%TO.N,Net-(Molex1-Pin_1)*%
X117080000Y-117010000D03*
%TD*%
%TO.P,F2,1*%
%TO.N,Net-(Molex2-Pin_2)*%
X115620000Y-133900000D03*
%TO.P,F2,2*%
%TO.N,/HV+_preAIR*%
X120700000Y-133900000D03*
%TD*%
D13*
%TO.P,U2,1,IOUT*%
%TO.N,Net-(U2-IOUT)*%
X132945000Y-128960000D03*
D14*
%TO.P,U2,2,IREF*%
%TO.N,Net-(U2-IREF)*%
X132945000Y-126420000D03*
%TO.P,U2,3,FOUT*%
%TO.N,Net-(U2-FOUT)*%
X132945000Y-123880000D03*
%TO.P,U2,4,GND*%
%TO.N,HV-*%
X132945000Y-121340000D03*
%TO.P,U2,5,RC*%
%TO.N,Net-(U2-RC)*%
X125005000Y-121340000D03*
%TO.P,U2,6,THRESH*%
%TO.N,Net-(U2-IOUT)*%
X125005000Y-123880000D03*
%TO.P,U2,7,COMPIN*%
%TO.N,Net-(U2-COMPIN)*%
X125005000Y-126420000D03*
%TO.P,U2,8,VS*%
%TO.N,12V_HV*%
X125005000Y-128960000D03*
%TD*%
D15*
%TO.P,Molex2,1,Pin_1*%
%TO.N,Net-(Molex2-Pin_1)*%
X107060000Y-135190000D03*
D16*
%TO.P,Molex2,2,Pin_2*%
%TO.N,Net-(Molex2-Pin_2)*%
X110060000Y-135190000D03*
%TD*%
D12*
%TO.P,F1,1*%
%TO.N,Net-(Molex1-Pin_2)*%
X115300000Y-113110000D03*
%TO.P,F1,2*%
%TO.N,/HV+_postAIR*%
X120380000Y-113110000D03*
%TD*%
D17*
%TO.P,J1,1,Pin_1*%
%TO.N,SDCin*%
X184050000Y-117850000D03*
D16*
%TO.P,J1,2,Pin_2*%
%TO.N,Pre_en*%
X181050000Y-117850000D03*
%TO.P,J1,3,Pin_3*%
%TO.N,AIR+_en*%
X178050000Y-117850000D03*
%TO.P,J1,4,Pin_4*%
%TO.N,Precharge_Fault*%
X175050000Y-117850000D03*
%TO.P,J1,5,Pin_5*%
%TO.N,CHG*%
X184050000Y-114850000D03*
%TO.P,J1,6,Pin_6*%
%TO.N,Charge_on*%
X181050000Y-114850000D03*
%TO.P,J1,7,Pin_7*%
%TO.N,GLV-*%
X178050000Y-114850000D03*
%TO.P,J1,8,Pin_8*%
%TO.N,Net-(D1-K)*%
X175050000Y-114850000D03*
%TD*%
D15*
%TO.P,Molex1,1,Pin_1*%
%TO.N,Net-(Molex1-Pin_1)*%
X107050000Y-125330000D03*
D16*
%TO.P,Molex1,2,Pin_2*%
%TO.N,Net-(Molex1-Pin_2)*%
X110050000Y-125330000D03*
%TD*%
D18*
%TO.P,J2,1,Pin_1*%
%TO.N,3.3 V*%
X164880000Y-138730000D03*
D19*
%TO.P,J2,2,Pin_2*%
%TO.N,SWCLK*%
X164880000Y-141270000D03*
%TO.P,J2,3,Pin_3*%
%TO.N,SWDIO*%
X164880000Y-143810000D03*
%TO.P,J2,4,Pin_4*%
%TO.N,GLV-*%
X164880000Y-146350000D03*
%TD*%
D13*
%TO.P,U5,1,IOUT*%
%TO.N,Net-(U5-IOUT)*%
X132967500Y-149380000D03*
D14*
%TO.P,U5,2,IREF*%
%TO.N,Net-(U5-IREF)*%
X132967500Y-146840000D03*
%TO.P,U5,3,FOUT*%
%TO.N,Net-(U5-FOUT)*%
X132967500Y-144300000D03*
%TO.P,U5,4,GND*%
%TO.N,HV-*%
X132967500Y-141760000D03*
%TO.P,U5,5,RC*%
%TO.N,Net-(U5-RC)*%
X125027500Y-141760000D03*
%TO.P,U5,6,THRESH*%
%TO.N,Net-(U5-IOUT)*%
X125027500Y-144300000D03*
%TO.P,U5,7,COMPIN*%
%TO.N,Net-(U5-COMPIN)*%
X125027500Y-146840000D03*
%TO.P,U5,8,VS*%
%TO.N,12V_HV*%
X125027500Y-149380000D03*
%TD*%
D20*
%TO.N,CHG*%
X186710000Y-126810000D03*
X186350000Y-124300000D03*
%TO.N,12V_HV*%
X138300000Y-144500000D03*
X137875000Y-125150000D03*
X138300000Y-126500000D03*
%TO.N,HV-*%
X121975000Y-127900000D03*
X135930000Y-119760000D03*
X121992500Y-148102500D03*
X136740000Y-143240000D03*
X136950000Y-139150000D03*
X123442500Y-143990000D03*
X120172275Y-123888391D03*
X120517500Y-149602500D03*
X134910000Y-143080000D03*
X123375000Y-123900000D03*
X120675000Y-129400000D03*
X120942500Y-143990000D03*
X141720000Y-118190000D03*
X136600000Y-123800000D03*
X135000000Y-123900000D03*
%TO.N,f_preAIR*%
X169640000Y-131770000D03*
X155515000Y-146585000D03*
%TO.N,f_postAIR*%
X175500000Y-131560000D03*
X169683180Y-130971164D03*
X155010000Y-127550000D03*
X172540000Y-131010000D03*
%TO.N,GLV-*%
X158190000Y-127010000D03*
X161170000Y-124980000D03*
X159670000Y-125950000D03*
X159690000Y-123960000D03*
X158930000Y-127940000D03*
X158950000Y-124970000D03*
X185205000Y-146980000D03*
X160430000Y-123970000D03*
X164470000Y-117780000D03*
X176567500Y-124612500D03*
X175560000Y-132970000D03*
X167715000Y-116780000D03*
X158190000Y-127940000D03*
X161890000Y-125960000D03*
X158930000Y-125950000D03*
X179560000Y-128220000D03*
X152760000Y-146710000D03*
X162650000Y-124980000D03*
X152950000Y-125710000D03*
X175420000Y-142530000D03*
X162630000Y-127950000D03*
X161170000Y-123970000D03*
X162650000Y-123970000D03*
X181977500Y-124442500D03*
X161150000Y-127950000D03*
X160410000Y-127020000D03*
X159670000Y-127940000D03*
X159690000Y-124970000D03*
X161900000Y-112940000D03*
X187850000Y-135250000D03*
X161890000Y-127950000D03*
X160410000Y-125960000D03*
X161910000Y-123970000D03*
X184150000Y-129640000D03*
X161890000Y-127020000D03*
X158950000Y-123960000D03*
X181510000Y-133230000D03*
X161150000Y-127020000D03*
X161910000Y-124980000D03*
X158190000Y-125950000D03*
X159670000Y-127010000D03*
X158210000Y-123960000D03*
X186380000Y-123440000D03*
X158210000Y-124970000D03*
X178400000Y-122642500D03*
X158930000Y-127010000D03*
X162630000Y-125960000D03*
X160410000Y-127950000D03*
X180470000Y-136350000D03*
X166520000Y-127190000D03*
X177210000Y-142550000D03*
X159080000Y-112900000D03*
X160430000Y-124980000D03*
X162630000Y-127020000D03*
X161150000Y-125960000D03*
%TO.N,SWCLK*%
X169740000Y-135070000D03*
%TO.N,SWDIO*%
X172440000Y-134220000D03*
%TO.N,Net-(Q1-G)*%
X170480000Y-127960000D03*
X184050000Y-133560000D03*
%TD*%
D21*
%TO.N,CHG*%
X186350000Y-125970000D02*
X186350000Y-124300000D01*
X186710000Y-126330000D02*
X186350000Y-125970000D01*
X186710000Y-126810000D02*
X186710000Y-126330000D01*
D22*
%TO.N,12V_HV*%
X126529000Y-127436000D02*
X125005000Y-128960000D01*
X135272500Y-148365000D02*
X126042500Y-148365000D01*
X138300000Y-126500000D02*
X137650000Y-125850000D01*
X137875000Y-125525000D02*
X137650000Y-125750000D01*
X135964000Y-127436000D02*
X126529000Y-127436000D01*
X126042500Y-148365000D02*
X125027500Y-149380000D01*
X137650000Y-125850000D02*
X137650000Y-125750000D01*
X137875000Y-125150000D02*
X137875000Y-125525000D01*
X137650000Y-125750000D02*
X135964000Y-127436000D01*
X138300000Y-144500000D02*
X138300000Y-145337500D01*
X138300000Y-145337500D02*
X135272500Y-148365000D01*
D21*
%TO.N,f_preAIR*%
X155515000Y-145895000D02*
X169640000Y-131770000D01*
X155515000Y-146585000D02*
X155515000Y-145895000D01*
%TO.N,f_postAIR*%
X169624344Y-131030000D02*
X158490000Y-131030000D01*
X169683180Y-130971164D02*
X169624344Y-131030000D01*
X174950000Y-131010000D02*
X175500000Y-131560000D01*
X158490000Y-131030000D02*
X155010000Y-127550000D01*
X172540000Y-131010000D02*
X174950000Y-131010000D01*
%TO.N,Net-(Molex1-Pin_1)*%
X115057007Y-117010000D02*
X117080000Y-117010000D01*
X107050000Y-125330000D02*
X107050000Y-125017007D01*
X107050000Y-125017007D02*
X115057007Y-117010000D01*
%TO.N,SWCLK*%
X169740000Y-135070000D02*
X169740000Y-136410000D01*
X169740000Y-136410000D02*
X164880000Y-141270000D01*
%TO.N,SWDIO*%
X172440000Y-134220000D02*
X172440000Y-136250000D01*
X172440000Y-136250000D02*
X164880000Y-143810000D01*
%TO.N,Net-(Q1-G)*%
X183470000Y-133560000D02*
X177870000Y-127960000D01*
X177870000Y-127960000D02*
X170480000Y-127960000D01*
X184050000Y-133560000D02*
X183470000Y-133560000D01*
%TD*%
%TA.AperFunction,Conductor*%
%TO.N,GLV-*%
G36*
X193849119Y-110860502D02*
G01*
X193851892Y-110860234D01*
X193865291Y-110860855D01*
X193879108Y-110864558D01*
X193945000Y-110864558D01*
X194343977Y-110881977D01*
X194354709Y-110882917D01*
X194693984Y-110927582D01*
X194757880Y-110955848D01*
X194796351Y-111014173D01*
X194801789Y-111049065D01*
X194828174Y-113296346D01*
X194809278Y-113363612D01*
X194757015Y-113409984D01*
X194687978Y-113420739D01*
X194663228Y-113414843D01*
X194505602Y-113359687D01*
X194505594Y-113359684D01*
X194308446Y-113314687D01*
X194242732Y-113299688D01*
X194242728Y-113299687D01*
X194242719Y-113299686D01*
X193974813Y-113269500D01*
X193974809Y-113269500D01*
X193705191Y-113269500D01*
X193705186Y-113269500D01*
X193437280Y-113299686D01*
X193437268Y-113299688D01*
X193174405Y-113359684D01*
X193174397Y-113359687D01*
X192919917Y-113448734D01*
X192677005Y-113565714D01*
X192448712Y-113709161D01*
X192237915Y-113877265D01*
X192047265Y-114067915D01*
X191879161Y-114278712D01*
X191735714Y-114507005D01*
X191618734Y-114749917D01*
X191529687Y-115004397D01*
X191529684Y-115004405D01*
X191469688Y-115267268D01*
X191469686Y-115267280D01*
X191439500Y-115535186D01*
X191439500Y-115804813D01*
X191469686Y-116072719D01*
X191469688Y-116072731D01*
X191529684Y-116335594D01*
X191529687Y-116335602D01*
X191618734Y-116590082D01*
X191735714Y-116832994D01*
X191735716Y-116832997D01*
X191879162Y-117061289D01*
X191901745Y-117089607D01*
X192027264Y-117247004D01*
X192047266Y-117272085D01*
X192237915Y-117462734D01*
X192448711Y-117630838D01*
X192677003Y-117774284D01*
X192919921Y-117891267D01*
X193060753Y-117940546D01*
X193174397Y-117980312D01*
X193174405Y-117980315D01*
X193174408Y-117980315D01*
X193174409Y-117980316D01*
X193437268Y-118040312D01*
X193705187Y-118070499D01*
X193705188Y-118070500D01*
X193705191Y-118070500D01*
X193974812Y-118070500D01*
X193974812Y-118070499D01*
X194242732Y-118040312D01*
X194505591Y-117980316D01*
X194718703Y-117905744D01*
X194788482Y-117902183D01*
X194849109Y-117936911D01*
X194881337Y-117998905D01*
X194883649Y-118021330D01*
X195186253Y-143795336D01*
X195167357Y-143862602D01*
X195115094Y-143908974D01*
X195046057Y-143919729D01*
X195006395Y-143906675D01*
X195006131Y-143907225D01*
X194760082Y-143788734D01*
X194505602Y-143699687D01*
X194505594Y-143699684D01*
X194308446Y-143654687D01*
X194242732Y-143639688D01*
X194242728Y-143639687D01*
X194242719Y-143639686D01*
X193974813Y-143609500D01*
X193974809Y-143609500D01*
X193705191Y-143609500D01*
X193705186Y-143609500D01*
X193437280Y-143639686D01*
X193437268Y-143639688D01*
X193174405Y-143699684D01*
X193174397Y-143699687D01*
X192919917Y-143788734D01*
X192677005Y-143905714D01*
X192448712Y-144049161D01*
X192237915Y-144217265D01*
X192047265Y-144407915D01*
X191879161Y-144618712D01*
X191735714Y-144847005D01*
X191618734Y-145089917D01*
X191529687Y-145344397D01*
X191529684Y-145344405D01*
X191469688Y-145607268D01*
X191469686Y-145607280D01*
X191439500Y-145875186D01*
X191439500Y-146144813D01*
X191469686Y-146412719D01*
X191469688Y-146412731D01*
X191529684Y-146675594D01*
X191529687Y-146675602D01*
X191618734Y-146930082D01*
X191735714Y-147172994D01*
X191735716Y-147172997D01*
X191879162Y-147401289D01*
X192047266Y-147612085D01*
X192237915Y-147802734D01*
X192448711Y-147970838D01*
X192677003Y-148114284D01*
X192677005Y-148114285D01*
X192731886Y-148140714D01*
X192919921Y-148231267D01*
X193111049Y-148298145D01*
X193174397Y-148320312D01*
X193174405Y-148320315D01*
X193174408Y-148320315D01*
X193174409Y-148320316D01*
X193437268Y-148380312D01*
X193705187Y-148410499D01*
X193705188Y-148410500D01*
X193705191Y-148410500D01*
X193974812Y-148410500D01*
X193974812Y-148410499D01*
X194242732Y-148380312D01*
X194505591Y-148320316D01*
X194760079Y-148231267D01*
X195002997Y-148114284D01*
X195047882Y-148086080D01*
X195115117Y-148067080D01*
X195181953Y-148087447D01*
X195227167Y-148140714D01*
X195237845Y-148189618D01*
X195257225Y-149840215D01*
X195238329Y-149907481D01*
X195186066Y-149953853D01*
X195134010Y-149965669D01*
X149922993Y-150248734D01*
X149855832Y-150229469D01*
X149809747Y-150176953D01*
X149798223Y-150125986D01*
X149796606Y-149965669D01*
X149571238Y-127618995D01*
X154309499Y-127618995D01*
X154336418Y-127754322D01*
X154336421Y-127754332D01*
X154389221Y-127881804D01*
X154389228Y-127881817D01*
X154465885Y-127996541D01*
X154465888Y-127996545D01*
X154563454Y-128094111D01*
X154563458Y-128094114D01*
X154678182Y-128170771D01*
X154678195Y-128170778D01*
X154805667Y-128223578D01*
X154805672Y-128223580D01*
X154930466Y-128248403D01*
X154936975Y-128249698D01*
X154998886Y-128282083D01*
X155000465Y-128283634D01*
X158065154Y-131348323D01*
X158065164Y-131348334D01*
X158069494Y-131352664D01*
X158069495Y-131352665D01*
X158167335Y-131450505D01*
X158167337Y-131450506D01*
X158167338Y-131450507D01*
X158227249Y-131485096D01*
X158287164Y-131519688D01*
X158420817Y-131555500D01*
X158559183Y-131555500D01*
X168811968Y-131555500D01*
X168879007Y-131575185D01*
X168924762Y-131627989D01*
X168934706Y-131697147D01*
X168905681Y-131760703D01*
X168899649Y-131767181D01*
X155094496Y-145572333D01*
X155094492Y-145572338D01*
X155025311Y-145692163D01*
X155025312Y-145692163D01*
X155025312Y-145692165D01*
X154989499Y-145825818D01*
X154989499Y-145974172D01*
X154989500Y-145974185D01*
X154989500Y-146072984D01*
X154969815Y-146140023D01*
X154968602Y-146141875D01*
X154894228Y-146253182D01*
X154894221Y-146253195D01*
X154841421Y-146380667D01*
X154841418Y-146380677D01*
X154814500Y-146516004D01*
X154814500Y-146516007D01*
X154814500Y-146653993D01*
X154814500Y-146653995D01*
X154814499Y-146653995D01*
X154841418Y-146789322D01*
X154841421Y-146789332D01*
X154894221Y-146916804D01*
X154894228Y-146916817D01*
X154970885Y-147031541D01*
X154970888Y-147031545D01*
X155068454Y-147129111D01*
X155068458Y-147129114D01*
X155183182Y-147205771D01*
X155183195Y-147205778D01*
X155310667Y-147258578D01*
X155310672Y-147258580D01*
X155310676Y-147258580D01*
X155310677Y-147258581D01*
X155446004Y-147285500D01*
X155446007Y-147285500D01*
X155583995Y-147285500D01*
X155675041Y-147267389D01*
X155719328Y-147258580D01*
X155846811Y-147205775D01*
X155961542Y-147129114D01*
X156059114Y-147031542D01*
X156135775Y-146916811D01*
X156188580Y-146789328D01*
X156211202Y-146675602D01*
X156215500Y-146653995D01*
X156215500Y-146516004D01*
X156188581Y-146380677D01*
X156188580Y-146380676D01*
X156188580Y-146380672D01*
X156188578Y-146380667D01*
X156135778Y-146253195D01*
X156135771Y-146253182D01*
X156097866Y-146196453D01*
X156076988Y-146129775D01*
X156095473Y-146062395D01*
X156113283Y-146039885D01*
X163417821Y-138735347D01*
X163479142Y-138701864D01*
X163548834Y-138706848D01*
X163604767Y-138748720D01*
X163629184Y-138814184D01*
X163629500Y-138823030D01*
X163629500Y-139611517D01*
X163640292Y-139679657D01*
X163644354Y-139705304D01*
X163701950Y-139818342D01*
X163701952Y-139818344D01*
X163701954Y-139818347D01*
X163791652Y-139908045D01*
X163791654Y-139908046D01*
X163791658Y-139908050D01*
X163904696Y-139965646D01*
X163904698Y-139965647D01*
X163998475Y-139980499D01*
X163998481Y-139980500D01*
X164145735Y-139980499D01*
X164212772Y-140000183D01*
X164258527Y-140052987D01*
X164268471Y-140122145D01*
X164239446Y-140185701D01*
X164218619Y-140204816D01*
X164065360Y-140316167D01*
X164065351Y-140316174D01*
X163926174Y-140455351D01*
X163926174Y-140455352D01*
X163926172Y-140455354D01*
X163876485Y-140523741D01*
X163810476Y-140614594D01*
X163721117Y-140789970D01*
X163660290Y-140977173D01*
X163629500Y-141171577D01*
X163629500Y-141368422D01*
X163660290Y-141562826D01*
X163721117Y-141750029D01*
X163810476Y-141925405D01*
X163926172Y-142084646D01*
X164065354Y-142223828D01*
X164224595Y-142339524D01*
X164347992Y-142402397D01*
X164401213Y-142429515D01*
X164452009Y-142477489D01*
X164468804Y-142545310D01*
X164446267Y-142611445D01*
X164401213Y-142650485D01*
X164224594Y-142740476D01*
X164133741Y-142806485D01*
X164065354Y-142856172D01*
X164065352Y-142856174D01*
X164065351Y-142856174D01*
X163926174Y-142995351D01*
X163926174Y-142995352D01*
X163926172Y-142995354D01*
X163876485Y-143063741D01*
X163810476Y-143154594D01*
X163721117Y-143329970D01*
X163660290Y-143517173D01*
X163629500Y-143711577D01*
X163629500Y-143908422D01*
X163660290Y-144102826D01*
X163721117Y-144290029D01*
X163810476Y-144465405D01*
X163926172Y-144624646D01*
X164065354Y-144763828D01*
X164224595Y-144879524D01*
X164307455Y-144921743D01*
X164399970Y-144968882D01*
X164399972Y-144968882D01*
X164399975Y-144968884D01*
X164500317Y-145001487D01*
X164587173Y-145029709D01*
X164781578Y-145060500D01*
X164781583Y-145060500D01*
X164978422Y-145060500D01*
X165172826Y-145029709D01*
X165360025Y-144968884D01*
X165535405Y-144879524D01*
X165694646Y-144763828D01*
X165833828Y-144624646D01*
X165949524Y-144465405D01*
X166038884Y-144290025D01*
X166099709Y-144102826D01*
X166130500Y-143908422D01*
X166130500Y-143711577D01*
X166099709Y-143517177D01*
X166099709Y-143517176D01*
X166099709Y-143517174D01*
X166078135Y-143450779D01*
X166076141Y-143380939D01*
X166108384Y-143324783D01*
X172860505Y-136572665D01*
X172929689Y-136452835D01*
X172965501Y-136319183D01*
X172965501Y-136180816D01*
X172965501Y-136173221D01*
X172965500Y-136173203D01*
X172965500Y-134732015D01*
X172985185Y-134664976D01*
X172986398Y-134663124D01*
X173060771Y-134551817D01*
X173060771Y-134551816D01*
X173060775Y-134551811D01*
X173113580Y-134424328D01*
X173140500Y-134288993D01*
X173140500Y-134151007D01*
X173140500Y-134151004D01*
X173113581Y-134015677D01*
X173113580Y-134015676D01*
X173113580Y-134015672D01*
X173113578Y-134015667D01*
X173060778Y-133888195D01*
X173060771Y-133888182D01*
X172984114Y-133773458D01*
X172984111Y-133773454D01*
X172886545Y-133675888D01*
X172886541Y-133675885D01*
X172771817Y-133599228D01*
X172771804Y-133599221D01*
X172644332Y-133546421D01*
X172644322Y-133546418D01*
X172508995Y-133519500D01*
X172508993Y-133519500D01*
X172371007Y-133519500D01*
X172371005Y-133519500D01*
X172235677Y-133546418D01*
X172235667Y-133546421D01*
X172108195Y-133599221D01*
X172108182Y-133599228D01*
X171993458Y-133675885D01*
X171993454Y-133675888D01*
X171895888Y-133773454D01*
X171895885Y-133773458D01*
X171819228Y-133888182D01*
X171819221Y-133888195D01*
X171766421Y-134015667D01*
X171766418Y-134015677D01*
X171739500Y-134151004D01*
X171739500Y-134151007D01*
X171739500Y-134288993D01*
X171739500Y-134288995D01*
X171739499Y-134288995D01*
X171766418Y-134424322D01*
X171766421Y-134424332D01*
X171819221Y-134551804D01*
X171819228Y-134551817D01*
X171893602Y-134663124D01*
X171914480Y-134729801D01*
X171914500Y-134732015D01*
X171914500Y-135980968D01*
X171894815Y-136048007D01*
X171878181Y-136068649D01*
X166316061Y-141630768D01*
X166254738Y-141664253D01*
X166185046Y-141659269D01*
X166129113Y-141617397D01*
X166104696Y-141551933D01*
X166105906Y-141523694D01*
X166119459Y-141438127D01*
X166130500Y-141368421D01*
X166130500Y-141171577D01*
X166099709Y-140977177D01*
X166099709Y-140977176D01*
X166099709Y-140977174D01*
X166078135Y-140910779D01*
X166076141Y-140840939D01*
X166108384Y-140784783D01*
X170052455Y-136840713D01*
X170052460Y-136840709D01*
X170062663Y-136830505D01*
X170062665Y-136830505D01*
X170160505Y-136732665D01*
X170229688Y-136612836D01*
X170240452Y-136572665D01*
X170265501Y-136479183D01*
X170265501Y-136340817D01*
X170265501Y-136333222D01*
X170265500Y-136333204D01*
X170265500Y-135582015D01*
X170285185Y-135514976D01*
X170286398Y-135513124D01*
X170360771Y-135401817D01*
X170360771Y-135401816D01*
X170360775Y-135401811D01*
X170413580Y-135274328D01*
X170440500Y-135138993D01*
X170440500Y-135001007D01*
X170440500Y-135001004D01*
X170413581Y-134865677D01*
X170413580Y-134865676D01*
X170413580Y-134865672D01*
X170413578Y-134865667D01*
X170360778Y-134738195D01*
X170360771Y-134738182D01*
X170284114Y-134623458D01*
X170284111Y-134623454D01*
X170186545Y-134525888D01*
X170186541Y-134525885D01*
X170071817Y-134449228D01*
X170071804Y-134449221D01*
X169944332Y-134396421D01*
X169944322Y-134396418D01*
X169808995Y-134369500D01*
X169808993Y-134369500D01*
X169671007Y-134369500D01*
X169671005Y-134369500D01*
X169535677Y-134396418D01*
X169535667Y-134396421D01*
X169408195Y-134449221D01*
X169408182Y-134449228D01*
X169293458Y-134525885D01*
X169293454Y-134525888D01*
X169195888Y-134623454D01*
X169195885Y-134623458D01*
X169119228Y-134738182D01*
X169119221Y-134738195D01*
X169066421Y-134865667D01*
X169066418Y-134865677D01*
X169039500Y-135001004D01*
X169039500Y-135001007D01*
X169039500Y-135138993D01*
X169039500Y-135138995D01*
X169039499Y-135138995D01*
X169066418Y-135274322D01*
X169066421Y-135274332D01*
X169119221Y-135401804D01*
X169119228Y-135401817D01*
X169193602Y-135513124D01*
X169214480Y-135579801D01*
X169214500Y-135582015D01*
X169214500Y-136140968D01*
X169194815Y-136208007D01*
X169178181Y-136228649D01*
X166342180Y-139064650D01*
X166280857Y-139098135D01*
X166211165Y-139093151D01*
X166155232Y-139051279D01*
X166130815Y-138985815D01*
X166130499Y-138976969D01*
X166130499Y-137848482D01*
X166115646Y-137754696D01*
X166058050Y-137641658D01*
X166058046Y-137641654D01*
X166058045Y-137641652D01*
X165968347Y-137551954D01*
X165968344Y-137551952D01*
X165968342Y-137551950D01*
X165891517Y-137512805D01*
X165855301Y-137494352D01*
X165761524Y-137479500D01*
X165761519Y-137479500D01*
X164973031Y-137479500D01*
X164905992Y-137459815D01*
X164860237Y-137407011D01*
X164850293Y-137337853D01*
X164879318Y-137274297D01*
X164885350Y-137267819D01*
X167152165Y-135001004D01*
X169649537Y-132503632D01*
X169710858Y-132470149D01*
X169713025Y-132469698D01*
X169717417Y-132468824D01*
X169844328Y-132443580D01*
X169971811Y-132390775D01*
X170086542Y-132314114D01*
X170184114Y-132216542D01*
X170260775Y-132101811D01*
X170313580Y-131974328D01*
X170340500Y-131838993D01*
X170340500Y-131701007D01*
X170340500Y-131701004D01*
X170313581Y-131565677D01*
X170313580Y-131565676D01*
X170313580Y-131565672D01*
X170268087Y-131455843D01*
X170260619Y-131386377D01*
X170279545Y-131339505D01*
X170303955Y-131302975D01*
X170356760Y-131175492D01*
X170375955Y-131078995D01*
X171839499Y-131078995D01*
X171866418Y-131214322D01*
X171866421Y-131214332D01*
X171919221Y-131341804D01*
X171919228Y-131341817D01*
X171995885Y-131456541D01*
X171995888Y-131456545D01*
X172093454Y-131554111D01*
X172093458Y-131554114D01*
X172208182Y-131630771D01*
X172208195Y-131630778D01*
X172335667Y-131683578D01*
X172335672Y-131683580D01*
X172335676Y-131683580D01*
X172335677Y-131683581D01*
X172471004Y-131710500D01*
X172471007Y-131710500D01*
X172608995Y-131710500D01*
X172700041Y-131692389D01*
X172744328Y-131683580D01*
X172871811Y-131630775D01*
X172905913Y-131607989D01*
X172983124Y-131556398D01*
X173049801Y-131535520D01*
X173052015Y-131535500D01*
X174679139Y-131535500D01*
X174746178Y-131555185D01*
X174791933Y-131607989D01*
X174800756Y-131635309D01*
X174826418Y-131764320D01*
X174826421Y-131764332D01*
X174879221Y-131891804D01*
X174879228Y-131891817D01*
X174955885Y-132006541D01*
X174955888Y-132006545D01*
X175053454Y-132104111D01*
X175053458Y-132104114D01*
X175168182Y-132180771D01*
X175168195Y-132180778D01*
X175295667Y-132233578D01*
X175295672Y-132233580D01*
X175295676Y-132233580D01*
X175295677Y-132233581D01*
X175431004Y-132260500D01*
X175431007Y-132260500D01*
X175568995Y-132260500D01*
X175660041Y-132242389D01*
X175704328Y-132233580D01*
X175831811Y-132180775D01*
X175946542Y-132104114D01*
X176044114Y-132006542D01*
X176120775Y-131891811D01*
X176173580Y-131764328D01*
X176184287Y-131710500D01*
X176200500Y-131628995D01*
X176200500Y-131491004D01*
X176173581Y-131355677D01*
X176173580Y-131355676D01*
X176173580Y-131355672D01*
X176173578Y-131355667D01*
X176120778Y-131228195D01*
X176120771Y-131228182D01*
X176044114Y-131113458D01*
X176044111Y-131113454D01*
X175946545Y-131015888D01*
X175946541Y-131015885D01*
X175831817Y-130939228D01*
X175831804Y-130939221D01*
X175704332Y-130886421D01*
X175704322Y-130886418D01*
X175573023Y-130860301D01*
X175556266Y-130851535D01*
X175537788Y-130847516D01*
X175512751Y-130828773D01*
X175511112Y-130827916D01*
X175509534Y-130826365D01*
X175377575Y-130694406D01*
X175377573Y-130694403D01*
X175272666Y-130589496D01*
X175272661Y-130589492D01*
X175152840Y-130520313D01*
X175124592Y-130512743D01*
X175124591Y-130512743D01*
X175019183Y-130484499D01*
X174880817Y-130484499D01*
X174873221Y-130484499D01*
X174873205Y-130484500D01*
X173052015Y-130484500D01*
X172984976Y-130464815D01*
X172983124Y-130463602D01*
X172871817Y-130389228D01*
X172871804Y-130389221D01*
X172744332Y-130336421D01*
X172744322Y-130336418D01*
X172608995Y-130309500D01*
X172608993Y-130309500D01*
X172471007Y-130309500D01*
X172471005Y-130309500D01*
X172335677Y-130336418D01*
X172335667Y-130336421D01*
X172208195Y-130389221D01*
X172208182Y-130389228D01*
X172093458Y-130465885D01*
X172093454Y-130465888D01*
X171995888Y-130563454D01*
X171995885Y-130563458D01*
X171919228Y-130678182D01*
X171919221Y-130678195D01*
X171866421Y-130805667D01*
X171866418Y-130805677D01*
X171839500Y-130941004D01*
X171839500Y-130941007D01*
X171839500Y-131078993D01*
X171839500Y-131078995D01*
X171839499Y-131078995D01*
X170375955Y-131078995D01*
X170383680Y-131040157D01*
X170383680Y-130902171D01*
X170383680Y-130902168D01*
X170356761Y-130766841D01*
X170356760Y-130766840D01*
X170356760Y-130766836D01*
X170326759Y-130694406D01*
X170303958Y-130639359D01*
X170303951Y-130639346D01*
X170227294Y-130524622D01*
X170227291Y-130524618D01*
X170129725Y-130427052D01*
X170129721Y-130427049D01*
X170014997Y-130350392D01*
X170014984Y-130350385D01*
X169887512Y-130297585D01*
X169887502Y-130297582D01*
X169752175Y-130270664D01*
X169752173Y-130270664D01*
X169614187Y-130270664D01*
X169614185Y-130270664D01*
X169478857Y-130297582D01*
X169478847Y-130297585D01*
X169351375Y-130350385D01*
X169351362Y-130350392D01*
X169236638Y-130427049D01*
X169236634Y-130427052D01*
X169195508Y-130468180D01*
X169134185Y-130501666D01*
X169107826Y-130504500D01*
X158759031Y-130504500D01*
X158691992Y-130484815D01*
X158671350Y-130468181D01*
X156232164Y-128028995D01*
X169779499Y-128028995D01*
X169806418Y-128164322D01*
X169806421Y-128164332D01*
X169859221Y-128291804D01*
X169859228Y-128291817D01*
X169935885Y-128406541D01*
X169935888Y-128406545D01*
X170033454Y-128504111D01*
X170033458Y-128504114D01*
X170148182Y-128580771D01*
X170148195Y-128580778D01*
X170275667Y-128633578D01*
X170275672Y-128633580D01*
X170275676Y-128633580D01*
X170275677Y-128633581D01*
X170411004Y-128660500D01*
X170411007Y-128660500D01*
X170548995Y-128660500D01*
X170640041Y-128642389D01*
X170684328Y-128633580D01*
X170811811Y-128580775D01*
X170923124Y-128506398D01*
X170989801Y-128485520D01*
X170992015Y-128485500D01*
X177600969Y-128485500D01*
X177668008Y-128505185D01*
X177688650Y-128521819D01*
X183045154Y-133878323D01*
X183045164Y-133878334D01*
X183049494Y-133882664D01*
X183049495Y-133882665D01*
X183147335Y-133980505D01*
X183147337Y-133980506D01*
X183147338Y-133980507D01*
X183192438Y-134006545D01*
X183267164Y-134049688D01*
X183285993Y-134054733D01*
X183295407Y-134057256D01*
X183295408Y-134057256D01*
X183400817Y-134085501D01*
X183400819Y-134085501D01*
X183537986Y-134085501D01*
X183605025Y-134105186D01*
X183606877Y-134106399D01*
X183718182Y-134180771D01*
X183718195Y-134180778D01*
X183845667Y-134233578D01*
X183845672Y-134233580D01*
X183845676Y-134233580D01*
X183845677Y-134233581D01*
X183981004Y-134260500D01*
X183981007Y-134260500D01*
X184118995Y-134260500D01*
X184210041Y-134242389D01*
X184254328Y-134233580D01*
X184381811Y-134180775D01*
X184496542Y-134104114D01*
X184594114Y-134006542D01*
X184670775Y-133891811D01*
X184723580Y-133764328D01*
X184741172Y-133675888D01*
X184750500Y-133628995D01*
X184750500Y-133491004D01*
X184723581Y-133355677D01*
X184723580Y-133355676D01*
X184723580Y-133355672D01*
X184723578Y-133355667D01*
X184670778Y-133228195D01*
X184670771Y-133228182D01*
X184594114Y-133113458D01*
X184594111Y-133113454D01*
X184496545Y-133015888D01*
X184496541Y-133015885D01*
X184381817Y-132939228D01*
X184381804Y-132939221D01*
X184254332Y-132886421D01*
X184254322Y-132886418D01*
X184118995Y-132859500D01*
X184118993Y-132859500D01*
X183981007Y-132859500D01*
X183981005Y-132859500D01*
X183845677Y-132886418D01*
X183845671Y-132886420D01*
X183718181Y-132939228D01*
X183717295Y-132939702D01*
X183716778Y-132939809D01*
X183712562Y-132941556D01*
X183712230Y-132940755D01*
X183648889Y-132953930D01*
X183583650Y-132928917D01*
X183571182Y-132918013D01*
X178297575Y-127644406D01*
X178297573Y-127644403D01*
X178192666Y-127539496D01*
X178192661Y-127539492D01*
X178072840Y-127470313D01*
X178044592Y-127462743D01*
X178044591Y-127462743D01*
X177939183Y-127434499D01*
X177800817Y-127434499D01*
X177793221Y-127434499D01*
X177793205Y-127434500D01*
X170992015Y-127434500D01*
X170924976Y-127414815D01*
X170923124Y-127413602D01*
X170811817Y-127339228D01*
X170811804Y-127339221D01*
X170684332Y-127286421D01*
X170684322Y-127286418D01*
X170548995Y-127259500D01*
X170548993Y-127259500D01*
X170411007Y-127259500D01*
X170411005Y-127259500D01*
X170275677Y-127286418D01*
X170275667Y-127286421D01*
X170148195Y-127339221D01*
X170148182Y-127339228D01*
X170033458Y-127415885D01*
X170033454Y-127415888D01*
X169935888Y-127513454D01*
X169935885Y-127513458D01*
X169859228Y-127628182D01*
X169859221Y-127628195D01*
X169806421Y-127755667D01*
X169806418Y-127755677D01*
X169779500Y-127891004D01*
X169779500Y-127891007D01*
X169779500Y-128028993D01*
X169779500Y-128028995D01*
X169779499Y-128028995D01*
X156232164Y-128028995D01*
X155743634Y-127540465D01*
X155710149Y-127479142D01*
X155709698Y-127476975D01*
X155697547Y-127415888D01*
X155683580Y-127345672D01*
X155659037Y-127286420D01*
X155630778Y-127218195D01*
X155630771Y-127218182D01*
X155554114Y-127103458D01*
X155554111Y-127103454D01*
X155456545Y-127005888D01*
X155456541Y-127005885D01*
X155341817Y-126929228D01*
X155341804Y-126929221D01*
X155214332Y-126876421D01*
X155214322Y-126876418D01*
X155078995Y-126849500D01*
X155078993Y-126849500D01*
X154941007Y-126849500D01*
X154941005Y-126849500D01*
X154805677Y-126876418D01*
X154805667Y-126876421D01*
X154678195Y-126929221D01*
X154678182Y-126929228D01*
X154563458Y-127005885D01*
X154563454Y-127005888D01*
X154465888Y-127103454D01*
X154465885Y-127103458D01*
X154389228Y-127218182D01*
X154389221Y-127218195D01*
X154336421Y-127345667D01*
X154336418Y-127345677D01*
X154309500Y-127481004D01*
X154309500Y-127481007D01*
X154309500Y-127618993D01*
X154309500Y-127618995D01*
X154309499Y-127618995D01*
X149571238Y-127618995D01*
X149538462Y-124368995D01*
X185649499Y-124368995D01*
X185676418Y-124504322D01*
X185676421Y-124504332D01*
X185729221Y-124631804D01*
X185729228Y-124631817D01*
X185803602Y-124743124D01*
X185824480Y-124809801D01*
X185824500Y-124812015D01*
X185824500Y-125893204D01*
X185824499Y-125893222D01*
X185824499Y-126039182D01*
X185850553Y-126136419D01*
X185860310Y-126172832D01*
X185860313Y-126172839D01*
X185929492Y-126292661D01*
X185929496Y-126292666D01*
X186034400Y-126397570D01*
X186034406Y-126397575D01*
X186038193Y-126401362D01*
X186071678Y-126462685D01*
X186066694Y-126532377D01*
X186065074Y-126536492D01*
X186036420Y-126605672D01*
X186036419Y-126605675D01*
X186036419Y-126605676D01*
X186036418Y-126605677D01*
X186009500Y-126741004D01*
X186009500Y-126741007D01*
X186009500Y-126878993D01*
X186009500Y-126878995D01*
X186009499Y-126878995D01*
X186036418Y-127014322D01*
X186036421Y-127014332D01*
X186089221Y-127141804D01*
X186089228Y-127141817D01*
X186165885Y-127256541D01*
X186165888Y-127256545D01*
X186263454Y-127354111D01*
X186263458Y-127354114D01*
X186378182Y-127430771D01*
X186378195Y-127430778D01*
X186499453Y-127481004D01*
X186505672Y-127483580D01*
X186505676Y-127483580D01*
X186505677Y-127483581D01*
X186641004Y-127510500D01*
X186641007Y-127510500D01*
X186778995Y-127510500D01*
X186870041Y-127492389D01*
X186914328Y-127483580D01*
X187032818Y-127434500D01*
X187041804Y-127430778D01*
X187041804Y-127430777D01*
X187041811Y-127430775D01*
X187156542Y-127354114D01*
X187254114Y-127256542D01*
X187330775Y-127141811D01*
X187383580Y-127014328D01*
X187410500Y-126878993D01*
X187410500Y-126741007D01*
X187410500Y-126741004D01*
X187383581Y-126605677D01*
X187383580Y-126605676D01*
X187383580Y-126605672D01*
X187354926Y-126536495D01*
X187330778Y-126478195D01*
X187330771Y-126478182D01*
X187256399Y-126366877D01*
X187237847Y-126321990D01*
X187235501Y-126310100D01*
X187235501Y-126260817D01*
X187199688Y-126127165D01*
X187199688Y-126127164D01*
X187130505Y-126007335D01*
X187032665Y-125909495D01*
X187032664Y-125909494D01*
X187028334Y-125905164D01*
X187028323Y-125905154D01*
X186911819Y-125788650D01*
X186878334Y-125727327D01*
X186875500Y-125700969D01*
X186875500Y-124812015D01*
X186895185Y-124744976D01*
X186896398Y-124743124D01*
X186970771Y-124631817D01*
X186970771Y-124631816D01*
X186970775Y-124631811D01*
X187023580Y-124504328D01*
X187050500Y-124368993D01*
X187050500Y-124231007D01*
X187050500Y-124231004D01*
X187023581Y-124095677D01*
X187023580Y-124095676D01*
X187023580Y-124095672D01*
X187023578Y-124095667D01*
X186970778Y-123968195D01*
X186970771Y-123968182D01*
X186894114Y-123853458D01*
X186894111Y-123853454D01*
X186796545Y-123755888D01*
X186796541Y-123755885D01*
X186681817Y-123679228D01*
X186681804Y-123679221D01*
X186554332Y-123626421D01*
X186554322Y-123626418D01*
X186418995Y-123599500D01*
X186418993Y-123599500D01*
X186281007Y-123599500D01*
X186281005Y-123599500D01*
X186145677Y-123626418D01*
X186145667Y-123626421D01*
X186018195Y-123679221D01*
X186018182Y-123679228D01*
X185903458Y-123755885D01*
X185903454Y-123755888D01*
X185805888Y-123853454D01*
X185805885Y-123853458D01*
X185729228Y-123968182D01*
X185729221Y-123968195D01*
X185676421Y-124095667D01*
X185676418Y-124095677D01*
X185649500Y-124231004D01*
X185649500Y-124231007D01*
X185649500Y-124368993D01*
X185649500Y-124368995D01*
X185649499Y-124368995D01*
X149538462Y-124368995D01*
X149530973Y-123626421D01*
X149482985Y-118868076D01*
X149471804Y-117759448D01*
X173899500Y-117759448D01*
X173899500Y-117940551D01*
X173927829Y-118119410D01*
X173983787Y-118291636D01*
X173983788Y-118291639D01*
X174039664Y-118401300D01*
X174065789Y-118452573D01*
X174066006Y-118452997D01*
X174172441Y-118599494D01*
X174172445Y-118599499D01*
X174300500Y-118727554D01*
X174300505Y-118727558D01*
X174333956Y-118751861D01*
X174447006Y-118833996D01*
X174552484Y-118887740D01*
X174608360Y-118916211D01*
X174608363Y-118916212D01*
X174694476Y-118944191D01*
X174780591Y-118972171D01*
X174863429Y-118985291D01*
X174959449Y-119000500D01*
X174959454Y-119000500D01*
X175140551Y-119000500D01*
X175227259Y-118986765D01*
X175319409Y-118972171D01*
X175491639Y-118916211D01*
X175652994Y-118833996D01*
X175799501Y-118727553D01*
X175927553Y-118599501D01*
X176033996Y-118452994D01*
X176116211Y-118291639D01*
X176172171Y-118119409D01*
X176191257Y-117998905D01*
X176200500Y-117940551D01*
X176200500Y-117759448D01*
X176899500Y-117759448D01*
X176899500Y-117940551D01*
X176927829Y-118119410D01*
X176983787Y-118291636D01*
X176983788Y-118291639D01*
X177039664Y-118401300D01*
X177065789Y-118452573D01*
X177066006Y-118452997D01*
X177172441Y-118599494D01*
X177172445Y-118599499D01*
X177300500Y-118727554D01*
X177300505Y-118727558D01*
X177333956Y-118751861D01*
X177447006Y-118833996D01*
X177552484Y-118887740D01*
X177608360Y-118916211D01*
X177608363Y-118916212D01*
X177694476Y-118944191D01*
X177780591Y-118972171D01*
X177863429Y-118985291D01*
X177959449Y-119000500D01*
X177959454Y-119000500D01*
X178140551Y-119000500D01*
X178227259Y-118986765D01*
X178319409Y-118972171D01*
X178491639Y-118916211D01*
X178652994Y-118833996D01*
X178799501Y-118727553D01*
X178927553Y-118599501D01*
X179033996Y-118452994D01*
X179116211Y-118291639D01*
X179172171Y-118119409D01*
X179191257Y-117998905D01*
X179200500Y-117940551D01*
X179200500Y-117759448D01*
X179899500Y-117759448D01*
X179899500Y-117940551D01*
X179927829Y-118119410D01*
X179983787Y-118291636D01*
X179983788Y-118291639D01*
X180039664Y-118401300D01*
X180065789Y-118452573D01*
X180066006Y-118452997D01*
X180172441Y-118599494D01*
X180172445Y-118599499D01*
X180300500Y-118727554D01*
X180300505Y-118727558D01*
X180333956Y-118751861D01*
X180447006Y-118833996D01*
X180552484Y-118887740D01*
X180608360Y-118916211D01*
X180608363Y-118916212D01*
X180694476Y-118944191D01*
X180780591Y-118972171D01*
X180863429Y-118985291D01*
X180959449Y-119000500D01*
X180959454Y-119000500D01*
X181140551Y-119000500D01*
X181227259Y-118986765D01*
X181319409Y-118972171D01*
X181491639Y-118916211D01*
X181652994Y-118833996D01*
X181799501Y-118727553D01*
X181927553Y-118599501D01*
X182033996Y-118452994D01*
X182116211Y-118291639D01*
X182172171Y-118119409D01*
X182191257Y-117998905D01*
X182200500Y-117940551D01*
X182200500Y-117759448D01*
X182180129Y-117630838D01*
X182172171Y-117580591D01*
X182116211Y-117408361D01*
X182053001Y-117284306D01*
X182052997Y-117284298D01*
X182899500Y-117284298D01*
X182899500Y-118415701D01*
X182902401Y-118452567D01*
X182902402Y-118452573D01*
X182948253Y-118610392D01*
X182948255Y-118610395D01*
X183031917Y-118751861D01*
X183031923Y-118751869D01*
X183148130Y-118868076D01*
X183148134Y-118868079D01*
X183148136Y-118868081D01*
X183289603Y-118951744D01*
X183289604Y-118951744D01*
X183289607Y-118951746D01*
X183447426Y-118997597D01*
X183447429Y-118997597D01*
X183447431Y-118997598D01*
X183484306Y-119000500D01*
X183484314Y-119000500D01*
X184615686Y-119000500D01*
X184615694Y-119000500D01*
X184652569Y-118997598D01*
X184652571Y-118997597D01*
X184652573Y-118997597D01*
X184810392Y-118951746D01*
X184810393Y-118951745D01*
X184810397Y-118951744D01*
X184951864Y-118868081D01*
X185068081Y-118751864D01*
X185151744Y-118610397D01*
X185151745Y-118610393D01*
X185151746Y-118610392D01*
X185197597Y-118452573D01*
X185197598Y-118452567D01*
X185200499Y-118415701D01*
X185200500Y-118415694D01*
X185200500Y-117284306D01*
X185197598Y-117247431D01*
X185197474Y-117247004D01*
X185151746Y-117089607D01*
X185151744Y-117089604D01*
X185151744Y-117089603D01*
X185068081Y-116948136D01*
X185068079Y-116948134D01*
X185068076Y-116948130D01*
X184951869Y-116831923D01*
X184951861Y-116831917D01*
X184810395Y-116748255D01*
X184810392Y-116748253D01*
X184652573Y-116702402D01*
X184652567Y-116702401D01*
X184615701Y-116699500D01*
X184615694Y-116699500D01*
X183484306Y-116699500D01*
X183484298Y-116699500D01*
X183447432Y-116702401D01*
X183447426Y-116702402D01*
X183289607Y-116748253D01*
X183289604Y-116748255D01*
X183148138Y-116831917D01*
X183148130Y-116831923D01*
X183031923Y-116948130D01*
X183031917Y-116948138D01*
X182948255Y-117089604D01*
X182948253Y-117089607D01*
X182902402Y-117247426D01*
X182902401Y-117247432D01*
X182899500Y-117284298D01*
X182052997Y-117284298D01*
X182033995Y-117247004D01*
X181927558Y-117100505D01*
X181927554Y-117100500D01*
X181799499Y-116972445D01*
X181799494Y-116972441D01*
X181652997Y-116866006D01*
X181652996Y-116866005D01*
X181652994Y-116866004D01*
X181586095Y-116831917D01*
X181491639Y-116783788D01*
X181491636Y-116783787D01*
X181319410Y-116727829D01*
X181140551Y-116699500D01*
X181140546Y-116699500D01*
X180959454Y-116699500D01*
X180959449Y-116699500D01*
X180780589Y-116727829D01*
X180608363Y-116783787D01*
X180608360Y-116783788D01*
X180447002Y-116866006D01*
X180300505Y-116972441D01*
X180300500Y-116972445D01*
X180172445Y-117100500D01*
X180172441Y-117100505D01*
X180066006Y-117247002D01*
X179983788Y-117408360D01*
X179983787Y-117408363D01*
X179927829Y-117580589D01*
X179899500Y-117759448D01*
X179200500Y-117759448D01*
X179180129Y-117630838D01*
X179172171Y-117580591D01*
X179116211Y-117408361D01*
X179116211Y-117408360D01*
X179080445Y-117338166D01*
X179033996Y-117247006D01*
X179020396Y-117228287D01*
X178927558Y-117100505D01*
X178927554Y-117100500D01*
X178799499Y-116972445D01*
X178799494Y-116972441D01*
X178652997Y-116866006D01*
X178652996Y-116866005D01*
X178652994Y-116866004D01*
X178586095Y-116831917D01*
X178491639Y-116783788D01*
X178491636Y-116783787D01*
X178319410Y-116727829D01*
X178140551Y-116699500D01*
X178140546Y-116699500D01*
X177959454Y-116699500D01*
X177959449Y-116699500D01*
X177780589Y-116727829D01*
X177608363Y-116783787D01*
X177608360Y-116783788D01*
X177447002Y-116866006D01*
X177300505Y-116972441D01*
X177300500Y-116972445D01*
X177172445Y-117100500D01*
X177172441Y-117100505D01*
X177066006Y-117247002D01*
X176983788Y-117408360D01*
X176983787Y-117408363D01*
X176927829Y-117580589D01*
X176899500Y-117759448D01*
X176200500Y-117759448D01*
X176180129Y-117630838D01*
X176172171Y-117580591D01*
X176116211Y-117408361D01*
X176116211Y-117408360D01*
X176080445Y-117338166D01*
X176033996Y-117247006D01*
X176020396Y-117228287D01*
X175927558Y-117100505D01*
X175927554Y-117100500D01*
X175799499Y-116972445D01*
X175799494Y-116972441D01*
X175652997Y-116866006D01*
X175652996Y-116866005D01*
X175652994Y-116866004D01*
X175586095Y-116831917D01*
X175491639Y-116783788D01*
X175491636Y-116783787D01*
X175319410Y-116727829D01*
X175140551Y-116699500D01*
X175140546Y-116699500D01*
X174959454Y-116699500D01*
X174959449Y-116699500D01*
X174780589Y-116727829D01*
X174608363Y-116783787D01*
X174608360Y-116783788D01*
X174447002Y-116866006D01*
X174300505Y-116972441D01*
X174300500Y-116972445D01*
X174172445Y-117100500D01*
X174172441Y-117100505D01*
X174066006Y-117247002D01*
X173983788Y-117408360D01*
X173983787Y-117408363D01*
X173927829Y-117580589D01*
X173899500Y-117759448D01*
X149471804Y-117759448D01*
X149444413Y-115043475D01*
X151174500Y-115043475D01*
X151174500Y-116216517D01*
X151185292Y-116284657D01*
X151189354Y-116310304D01*
X151246950Y-116423342D01*
X151246952Y-116423344D01*
X151246954Y-116423347D01*
X151336652Y-116513045D01*
X151336654Y-116513046D01*
X151336658Y-116513050D01*
X151449694Y-116570645D01*
X151449698Y-116570647D01*
X151543475Y-116585499D01*
X151543481Y-116585500D01*
X152716518Y-116585499D01*
X152810304Y-116570646D01*
X152923342Y-116513050D01*
X153013050Y-116423342D01*
X153070646Y-116310304D01*
X153070646Y-116310302D01*
X153070647Y-116310301D01*
X153085499Y-116216524D01*
X153085500Y-116216519D01*
X153085499Y-115043482D01*
X153070646Y-114949696D01*
X153013050Y-114836658D01*
X153013046Y-114836654D01*
X153013045Y-114836652D01*
X152935841Y-114759448D01*
X173899500Y-114759448D01*
X173899500Y-114940551D01*
X173927829Y-115119410D01*
X173983787Y-115291636D01*
X173983788Y-115291639D01*
X174066006Y-115452997D01*
X174172441Y-115599494D01*
X174172445Y-115599499D01*
X174300500Y-115727554D01*
X174300505Y-115727558D01*
X174406833Y-115804809D01*
X174447006Y-115833996D01*
X174552484Y-115887740D01*
X174608360Y-115916211D01*
X174608363Y-115916212D01*
X174694476Y-115944191D01*
X174780591Y-115972171D01*
X174863429Y-115985291D01*
X174959449Y-116000500D01*
X174959454Y-116000500D01*
X175140551Y-116000500D01*
X175227259Y-115986765D01*
X175319409Y-115972171D01*
X175491639Y-115916211D01*
X175652994Y-115833996D01*
X175799501Y-115727553D01*
X175927553Y-115599501D01*
X176033996Y-115452994D01*
X176116211Y-115291639D01*
X176172171Y-115119409D01*
X176190387Y-115004397D01*
X176200500Y-114940551D01*
X176200500Y-114759448D01*
X179899500Y-114759448D01*
X179899500Y-114940551D01*
X179927829Y-115119410D01*
X179983787Y-115291636D01*
X179983788Y-115291639D01*
X180066006Y-115452997D01*
X180172441Y-115599494D01*
X180172445Y-115599499D01*
X180300500Y-115727554D01*
X180300505Y-115727558D01*
X180406833Y-115804809D01*
X180447006Y-115833996D01*
X180552484Y-115887740D01*
X180608360Y-115916211D01*
X180608363Y-115916212D01*
X180694476Y-115944191D01*
X180780591Y-115972171D01*
X180863429Y-115985291D01*
X180959449Y-116000500D01*
X180959454Y-116000500D01*
X181140551Y-116000500D01*
X181227259Y-115986765D01*
X181319409Y-115972171D01*
X181491639Y-115916211D01*
X181652994Y-115833996D01*
X181799501Y-115727553D01*
X181927553Y-115599501D01*
X182033996Y-115452994D01*
X182116211Y-115291639D01*
X182172171Y-115119409D01*
X182190387Y-115004397D01*
X182200500Y-114940551D01*
X182200500Y-114759448D01*
X182899500Y-114759448D01*
X182899500Y-114940551D01*
X182927829Y-115119410D01*
X182983787Y-115291636D01*
X182983788Y-115291639D01*
X183066006Y-115452997D01*
X183172441Y-115599494D01*
X183172445Y-115599499D01*
X183300500Y-115727554D01*
X183300505Y-115727558D01*
X183406833Y-115804809D01*
X183447006Y-115833996D01*
X183552484Y-115887740D01*
X183608360Y-115916211D01*
X183608363Y-115916212D01*
X183694476Y-115944191D01*
X183780591Y-115972171D01*
X183863429Y-115985291D01*
X183959449Y-116000500D01*
X183959454Y-116000500D01*
X184140551Y-116000500D01*
X184227259Y-115986765D01*
X184319409Y-115972171D01*
X184491639Y-115916211D01*
X184652994Y-115833996D01*
X184799501Y-115727553D01*
X184927553Y-115599501D01*
X185033996Y-115452994D01*
X185116211Y-115291639D01*
X185172171Y-115119409D01*
X185190387Y-115004397D01*
X185200500Y-114940551D01*
X185200500Y-114759448D01*
X185184019Y-114655397D01*
X185172171Y-114580591D01*
X185116211Y-114408361D01*
X185116211Y-114408360D01*
X185062663Y-114303268D01*
X185033996Y-114247006D01*
X185020396Y-114228287D01*
X184927558Y-114100505D01*
X184927554Y-114100500D01*
X184799499Y-113972445D01*
X184799494Y-113972441D01*
X184740147Y-113929323D01*
X184652997Y-113866006D01*
X184652996Y-113866005D01*
X184652994Y-113866004D01*
X184592326Y-113835092D01*
X186289500Y-113835092D01*
X186289500Y-113984907D01*
X186318723Y-114131822D01*
X186318725Y-114131830D01*
X186376051Y-114270229D01*
X186376056Y-114270238D01*
X186459280Y-114394790D01*
X186459283Y-114394794D01*
X186565205Y-114500716D01*
X186565209Y-114500719D01*
X186689761Y-114583943D01*
X186689767Y-114583946D01*
X186689768Y-114583947D01*
X186828170Y-114641275D01*
X186975092Y-114670499D01*
X186975096Y-114670500D01*
X186975097Y-114670500D01*
X187124904Y-114670500D01*
X187124905Y-114670499D01*
X187271830Y-114641275D01*
X187410232Y-114583947D01*
X187534791Y-114500719D01*
X187640719Y-114394791D01*
X187723947Y-114270232D01*
X187781275Y-114131830D01*
X187810500Y-113984903D01*
X187810500Y-113835097D01*
X187781275Y-113688170D01*
X187723947Y-113549768D01*
X187723946Y-113549767D01*
X187723943Y-113549761D01*
X187640719Y-113425209D01*
X187640716Y-113425205D01*
X187534794Y-113319283D01*
X187534790Y-113319280D01*
X187410238Y-113236056D01*
X187410229Y-113236051D01*
X187271830Y-113178725D01*
X187271822Y-113178723D01*
X187124907Y-113149500D01*
X187124903Y-113149500D01*
X186975097Y-113149500D01*
X186975092Y-113149500D01*
X186828177Y-113178723D01*
X186828169Y-113178725D01*
X186689770Y-113236051D01*
X186689761Y-113236056D01*
X186565209Y-113319280D01*
X186565205Y-113319283D01*
X186459283Y-113425205D01*
X186459280Y-113425209D01*
X186376056Y-113549761D01*
X186376051Y-113549770D01*
X186318725Y-113688169D01*
X186318723Y-113688177D01*
X186289500Y-113835092D01*
X184592326Y-113835092D01*
X184491639Y-113783788D01*
X184491636Y-113783787D01*
X184319410Y-113727829D01*
X184140551Y-113699500D01*
X184140546Y-113699500D01*
X183959454Y-113699500D01*
X183959449Y-113699500D01*
X183780589Y-113727829D01*
X183608363Y-113783787D01*
X183608360Y-113783788D01*
X183447002Y-113866006D01*
X183300505Y-113972441D01*
X183300500Y-113972445D01*
X183172445Y-114100500D01*
X183172441Y-114100505D01*
X183066006Y-114247002D01*
X182983788Y-114408360D01*
X182983787Y-114408363D01*
X182927829Y-114580589D01*
X182899500Y-114759448D01*
X182200500Y-114759448D01*
X182184019Y-114655397D01*
X182172171Y-114580591D01*
X182116211Y-114408361D01*
X182116211Y-114408360D01*
X182062663Y-114303268D01*
X182033996Y-114247006D01*
X182020396Y-114228287D01*
X181927558Y-114100505D01*
X181927554Y-114100500D01*
X181799499Y-113972445D01*
X181799494Y-113972441D01*
X181652997Y-113866006D01*
X181652996Y-113866005D01*
X181652994Y-113866004D01*
X181592326Y-113835092D01*
X181491639Y-113783788D01*
X181491636Y-113783787D01*
X181319410Y-113727829D01*
X181140551Y-113699500D01*
X181140546Y-113699500D01*
X180959454Y-113699500D01*
X180959449Y-113699500D01*
X180780589Y-113727829D01*
X180608363Y-113783787D01*
X180608360Y-113783788D01*
X180447002Y-113866006D01*
X180300505Y-113972441D01*
X180300500Y-113972445D01*
X180172445Y-114100500D01*
X180172441Y-114100505D01*
X180066006Y-114247002D01*
X179983788Y-114408360D01*
X179983787Y-114408363D01*
X179927829Y-114580589D01*
X179899500Y-114759448D01*
X176200500Y-114759448D01*
X176184019Y-114655397D01*
X176172171Y-114580591D01*
X176116211Y-114408361D01*
X176116211Y-114408360D01*
X176062663Y-114303268D01*
X176033996Y-114247006D01*
X176020396Y-114228287D01*
X175927558Y-114100505D01*
X175927554Y-114100500D01*
X175799499Y-113972445D01*
X175799494Y-113972441D01*
X175652997Y-113866006D01*
X175652996Y-113866005D01*
X175652994Y-113866004D01*
X175592326Y-113835092D01*
X175491639Y-113783788D01*
X175491636Y-113783787D01*
X175319410Y-113727829D01*
X175140551Y-113699500D01*
X175140546Y-113699500D01*
X174959454Y-113699500D01*
X174959449Y-113699500D01*
X174780589Y-113727829D01*
X174608363Y-113783787D01*
X174608360Y-113783788D01*
X174447002Y-113866006D01*
X174300505Y-113972441D01*
X174300500Y-113972445D01*
X174172445Y-114100500D01*
X174172441Y-114100505D01*
X174066006Y-114247002D01*
X173983788Y-114408360D01*
X173983787Y-114408363D01*
X173927829Y-114580589D01*
X173899500Y-114759448D01*
X152935841Y-114759448D01*
X152923347Y-114746954D01*
X152923344Y-114746952D01*
X152923342Y-114746950D01*
X152828095Y-114698419D01*
X152810301Y-114689352D01*
X152716524Y-114674500D01*
X151543482Y-114674500D01*
X151462519Y-114687323D01*
X151449696Y-114689354D01*
X151336658Y-114746950D01*
X151336657Y-114746951D01*
X151336652Y-114746954D01*
X151246954Y-114836652D01*
X151246951Y-114836657D01*
X151246950Y-114836658D01*
X151227751Y-114874337D01*
X151189352Y-114949698D01*
X151174500Y-115043475D01*
X149444413Y-115043475D01*
X149432226Y-113835092D01*
X171289500Y-113835092D01*
X171289500Y-113984907D01*
X171318723Y-114131822D01*
X171318725Y-114131830D01*
X171376051Y-114270229D01*
X171376056Y-114270238D01*
X171459280Y-114394790D01*
X171459283Y-114394794D01*
X171565205Y-114500716D01*
X171565209Y-114500719D01*
X171689761Y-114583943D01*
X171689767Y-114583946D01*
X171689768Y-114583947D01*
X171828170Y-114641275D01*
X171975092Y-114670499D01*
X171975096Y-114670500D01*
X171975097Y-114670500D01*
X172124904Y-114670500D01*
X172124905Y-114670499D01*
X172271830Y-114641275D01*
X172410232Y-114583947D01*
X172534791Y-114500719D01*
X172640719Y-114394791D01*
X172723947Y-114270232D01*
X172781275Y-114131830D01*
X172810500Y-113984903D01*
X172810500Y-113835097D01*
X172781275Y-113688170D01*
X172723947Y-113549768D01*
X172723946Y-113549767D01*
X172723943Y-113549761D01*
X172640719Y-113425209D01*
X172640716Y-113425205D01*
X172534794Y-113319283D01*
X172534790Y-113319280D01*
X172410238Y-113236056D01*
X172410229Y-113236051D01*
X172271830Y-113178725D01*
X172271822Y-113178723D01*
X172124907Y-113149500D01*
X172124903Y-113149500D01*
X171975097Y-113149500D01*
X171975092Y-113149500D01*
X171828177Y-113178723D01*
X171828169Y-113178725D01*
X171689770Y-113236051D01*
X171689761Y-113236056D01*
X171565209Y-113319280D01*
X171565205Y-113319283D01*
X171459283Y-113425205D01*
X171459280Y-113425209D01*
X171376056Y-113549761D01*
X171376051Y-113549770D01*
X171318725Y-113688169D01*
X171318723Y-113688177D01*
X171289500Y-113835092D01*
X149432226Y-113835092D01*
X149405756Y-111210367D01*
X149424764Y-111143136D01*
X149477104Y-111096851D01*
X149528924Y-111085123D01*
X182234147Y-110868218D01*
X193846066Y-110860101D01*
X193849119Y-110860502D01*
G37*
%TD.AperFunction*%
%TD*%
%TA.AperFunction,Conductor*%
%TO.N,HV-*%
G36*
X141193039Y-129769685D02*
G01*
X141238794Y-129822489D01*
X141250000Y-129874000D01*
X141250000Y-149926000D01*
X141230315Y-149993039D01*
X141177511Y-150038794D01*
X141126000Y-150050000D01*
X136500000Y-150050000D01*
X136500000Y-148198867D01*
X138882952Y-145815915D01*
X138910205Y-145775127D01*
X138965084Y-145692995D01*
X138988518Y-145636420D01*
X139021659Y-145556412D01*
X139050500Y-145411417D01*
X139050500Y-145263582D01*
X139050500Y-144804604D01*
X139059939Y-144757151D01*
X139069737Y-144733497D01*
X139100500Y-144578842D01*
X139100500Y-144421158D01*
X139100500Y-144421155D01*
X139100499Y-144421153D01*
X139069738Y-144266510D01*
X139069737Y-144266503D01*
X139069735Y-144266498D01*
X139009397Y-144120827D01*
X139009390Y-144120814D01*
X138921789Y-143989711D01*
X138921786Y-143989707D01*
X138810292Y-143878213D01*
X138810288Y-143878210D01*
X138679185Y-143790609D01*
X138679172Y-143790602D01*
X138533501Y-143730264D01*
X138533489Y-143730261D01*
X138378845Y-143699500D01*
X138378842Y-143699500D01*
X138221158Y-143699500D01*
X138221155Y-143699500D01*
X138066510Y-143730261D01*
X138066498Y-143730264D01*
X137920827Y-143790602D01*
X137920814Y-143790609D01*
X137789711Y-143878210D01*
X137789707Y-143878213D01*
X137678213Y-143989707D01*
X137678210Y-143989711D01*
X137590609Y-144120814D01*
X137590602Y-144120827D01*
X137530264Y-144266498D01*
X137530261Y-144266510D01*
X137499500Y-144421153D01*
X137499500Y-144578846D01*
X137530261Y-144733489D01*
X137530263Y-144733497D01*
X137540061Y-144757151D01*
X137541687Y-144765328D01*
X137544477Y-144769669D01*
X137549500Y-144804604D01*
X137549500Y-144975270D01*
X137529815Y-145042309D01*
X137513181Y-145062951D01*
X136500000Y-146076132D01*
X136500000Y-129750000D01*
X141025000Y-129750000D01*
X141126000Y-129750000D01*
X141193039Y-129769685D01*
G37*
%TD.AperFunction*%
%TD*%
%TA.AperFunction,Conductor*%
%TO.N,HV-*%
G36*
X144942967Y-110913969D02*
G01*
X144988758Y-110966741D01*
X145000000Y-111018331D01*
X145000000Y-121126000D01*
X144980315Y-121193039D01*
X144927511Y-121238794D01*
X144876000Y-121250000D01*
X134500000Y-121250000D01*
X134500000Y-115526037D01*
X138374500Y-115526037D01*
X138374500Y-115733962D01*
X138415060Y-115937870D01*
X138415062Y-115937878D01*
X138494626Y-116129964D01*
X138610139Y-116302841D01*
X138610142Y-116302845D01*
X138757154Y-116449857D01*
X138757158Y-116449860D01*
X138930033Y-116565372D01*
X139122122Y-116644938D01*
X139326037Y-116685499D01*
X139326041Y-116685500D01*
X139326042Y-116685500D01*
X139533959Y-116685500D01*
X139533960Y-116685499D01*
X139737878Y-116644938D01*
X139929967Y-116565372D01*
X140102842Y-116449860D01*
X140249860Y-116302842D01*
X140365372Y-116129967D01*
X140444938Y-115937878D01*
X140485500Y-115733958D01*
X140485500Y-115526042D01*
X140444938Y-115322122D01*
X140365372Y-115130033D01*
X140249860Y-114957158D01*
X140249857Y-114957154D01*
X140102845Y-114810142D01*
X140102841Y-114810139D01*
X139929964Y-114694626D01*
X139737878Y-114615062D01*
X139737870Y-114615060D01*
X139533962Y-114574500D01*
X139533958Y-114574500D01*
X139326042Y-114574500D01*
X139326037Y-114574500D01*
X139122129Y-114615060D01*
X139122121Y-114615062D01*
X138930035Y-114694626D01*
X138757158Y-114810139D01*
X138757154Y-114810142D01*
X138610142Y-114957154D01*
X138610139Y-114957158D01*
X138494626Y-115130035D01*
X138415062Y-115322121D01*
X138415060Y-115322129D01*
X138374500Y-115526037D01*
X134500000Y-115526037D01*
X134500000Y-111025498D01*
X134519685Y-110958459D01*
X134572489Y-110912704D01*
X134623910Y-110901498D01*
X144875917Y-110894332D01*
X144942967Y-110913969D01*
G37*
%TD.AperFunction*%
%TD*%
%TA.AperFunction,Conductor*%
%TO.N,HV-*%
G36*
X124308332Y-140759685D02*
G01*
X124354087Y-140812489D01*
X124364031Y-140881647D01*
X124335006Y-140945203D01*
X124328974Y-140951681D01*
X124199874Y-141080780D01*
X124199873Y-141080781D01*
X124083265Y-141255298D01*
X124002947Y-141449204D01*
X124002945Y-141449210D01*
X123962000Y-141655054D01*
X123962000Y-141655057D01*
X123962000Y-141864943D01*
X123962000Y-141864945D01*
X123961999Y-141864945D01*
X124002945Y-142070789D01*
X124002947Y-142070795D01*
X124083265Y-142264701D01*
X124199873Y-142439218D01*
X124348281Y-142587626D01*
X124522798Y-142704234D01*
X124619751Y-142744393D01*
X124716705Y-142784553D01*
X124716709Y-142784553D01*
X124716710Y-142784554D01*
X124922554Y-142825500D01*
X124922557Y-142825500D01*
X125132445Y-142825500D01*
X125270933Y-142797952D01*
X125338295Y-142784553D01*
X125532203Y-142704233D01*
X125706716Y-142587628D01*
X125855128Y-142439216D01*
X125971733Y-142264703D01*
X126052053Y-142070795D01*
X126065452Y-142003433D01*
X126093000Y-141864945D01*
X126093000Y-141655054D01*
X126052054Y-141449210D01*
X126052053Y-141449209D01*
X126052053Y-141449205D01*
X126011893Y-141352251D01*
X125971734Y-141255298D01*
X125855126Y-141080781D01*
X125726026Y-140951681D01*
X125692541Y-140890358D01*
X125697525Y-140820666D01*
X125739397Y-140764733D01*
X125804861Y-140740316D01*
X125813707Y-140740000D01*
X136500000Y-140740000D01*
X136500000Y-146076132D01*
X134997951Y-147578181D01*
X134936628Y-147611666D01*
X134910270Y-147614500D01*
X133963449Y-147614500D01*
X133896410Y-147594815D01*
X133850655Y-147542011D01*
X133840711Y-147472853D01*
X133860346Y-147421610D01*
X133868061Y-147410061D01*
X133911733Y-147344703D01*
X133992053Y-147150795D01*
X134033000Y-146944943D01*
X134033000Y-146735057D01*
X134033000Y-146735054D01*
X133992054Y-146529210D01*
X133992053Y-146529209D01*
X133992053Y-146529205D01*
X133951893Y-146432251D01*
X133911734Y-146335298D01*
X133795126Y-146160781D01*
X133646718Y-146012373D01*
X133472201Y-145895765D01*
X133278295Y-145815447D01*
X133278289Y-145815445D01*
X133072445Y-145774500D01*
X133072443Y-145774500D01*
X132862557Y-145774500D01*
X132862555Y-145774500D01*
X132656710Y-145815445D01*
X132656704Y-145815447D01*
X132462798Y-145895765D01*
X132288281Y-146012373D01*
X132139873Y-146160781D01*
X132023265Y-146335298D01*
X131942947Y-146529204D01*
X131942945Y-146529210D01*
X131902000Y-146735054D01*
X131902000Y-146735057D01*
X131902000Y-146944943D01*
X131902000Y-146944945D01*
X131901999Y-146944945D01*
X131942945Y-147150789D01*
X131942947Y-147150795D01*
X132023266Y-147344701D01*
X132074654Y-147421610D01*
X132095531Y-147488288D01*
X132077046Y-147555668D01*
X132025067Y-147602357D01*
X131971551Y-147614500D01*
X126023449Y-147614500D01*
X125956410Y-147594815D01*
X125910655Y-147542011D01*
X125900711Y-147472853D01*
X125920346Y-147421610D01*
X125928061Y-147410061D01*
X125971733Y-147344703D01*
X126052053Y-147150795D01*
X126093000Y-146944943D01*
X126093000Y-146735057D01*
X126093000Y-146735054D01*
X126052054Y-146529210D01*
X126052053Y-146529209D01*
X126052053Y-146529205D01*
X126011893Y-146432251D01*
X125971734Y-146335298D01*
X125855126Y-146160781D01*
X125706718Y-146012373D01*
X125532201Y-145895765D01*
X125338295Y-145815447D01*
X125338289Y-145815445D01*
X125132445Y-145774500D01*
X125132443Y-145774500D01*
X124922557Y-145774500D01*
X124922555Y-145774500D01*
X124716710Y-145815445D01*
X124716704Y-145815447D01*
X124522798Y-145895765D01*
X124348281Y-146012373D01*
X124199873Y-146160781D01*
X124083265Y-146335298D01*
X124002947Y-146529204D01*
X124002945Y-146529210D01*
X123962000Y-146735054D01*
X123962000Y-146735057D01*
X123962000Y-146944943D01*
X123962000Y-146944945D01*
X123961999Y-146944945D01*
X124002945Y-147150789D01*
X124002947Y-147150795D01*
X124083265Y-147344701D01*
X124199873Y-147519218D01*
X124348281Y-147667626D01*
X124522798Y-147784234D01*
X124619751Y-147824393D01*
X124716705Y-147864553D01*
X124716709Y-147864553D01*
X124716710Y-147864554D01*
X124922554Y-147905500D01*
X125138535Y-147905500D01*
X125138535Y-147907530D01*
X125156942Y-147911019D01*
X125184901Y-147913019D01*
X125190805Y-147917438D01*
X125198050Y-147918812D01*
X125218394Y-147938091D01*
X125240835Y-147954890D01*
X125243411Y-147961799D01*
X125248765Y-147966872D01*
X125255457Y-147994093D01*
X125265252Y-148020355D01*
X125263684Y-148027560D01*
X125265445Y-148034722D01*
X125256358Y-148061238D01*
X125250400Y-148088628D01*
X125244078Y-148097073D01*
X125242795Y-148100818D01*
X125229250Y-148116882D01*
X125067949Y-148278182D01*
X125006628Y-148311666D01*
X124980270Y-148314500D01*
X124922555Y-148314500D01*
X124716710Y-148355445D01*
X124716704Y-148355447D01*
X124522798Y-148435765D01*
X124348281Y-148552373D01*
X124199873Y-148700781D01*
X124083265Y-148875298D01*
X124002947Y-149069204D01*
X124002945Y-149069210D01*
X123962000Y-149275054D01*
X123962000Y-149275057D01*
X123962000Y-149484943D01*
X123962000Y-149484945D01*
X123961999Y-149484945D01*
X124002945Y-149690789D01*
X124002947Y-149690795D01*
X124084859Y-149888547D01*
X124092328Y-149958016D01*
X124061053Y-150020496D01*
X124000964Y-150056148D01*
X123970298Y-150060000D01*
X113740110Y-150060000D01*
X113673071Y-150040315D01*
X113627316Y-149987511D01*
X113616146Y-149938986D01*
X113615833Y-149926000D01*
X113508978Y-145489425D01*
X113527043Y-145421932D01*
X113578730Y-145374919D01*
X113631659Y-145362447D01*
X120402500Y-145292500D01*
X120408490Y-144610789D01*
X120410299Y-144404945D01*
X123961999Y-144404945D01*
X124002945Y-144610789D01*
X124002947Y-144610795D01*
X124083265Y-144804701D01*
X124199873Y-144979218D01*
X124348281Y-145127626D01*
X124522798Y-145244234D01*
X124619751Y-145284393D01*
X124716705Y-145324553D01*
X124716709Y-145324553D01*
X124716710Y-145324554D01*
X124922554Y-145365500D01*
X124922557Y-145365500D01*
X125132445Y-145365500D01*
X125270933Y-145337952D01*
X125338295Y-145324553D01*
X125532203Y-145244233D01*
X125706716Y-145127628D01*
X125855128Y-144979216D01*
X125971733Y-144804703D01*
X126052053Y-144610795D01*
X126089775Y-144421158D01*
X126093000Y-144404945D01*
X131901999Y-144404945D01*
X131942945Y-144610789D01*
X131942947Y-144610795D01*
X132023265Y-144804701D01*
X132139873Y-144979218D01*
X132288281Y-145127626D01*
X132462798Y-145244234D01*
X132559751Y-145284393D01*
X132656705Y-145324553D01*
X132656709Y-145324553D01*
X132656710Y-145324554D01*
X132862554Y-145365500D01*
X132862557Y-145365500D01*
X133072445Y-145365500D01*
X133210933Y-145337952D01*
X133278295Y-145324553D01*
X133472203Y-145244233D01*
X133646716Y-145127628D01*
X133795128Y-144979216D01*
X133911733Y-144804703D01*
X133992053Y-144610795D01*
X134029775Y-144421158D01*
X134033000Y-144404945D01*
X134033000Y-144195054D01*
X133992054Y-143989210D01*
X133992053Y-143989209D01*
X133992053Y-143989205D01*
X133946077Y-143878210D01*
X133911734Y-143795298D01*
X133795126Y-143620781D01*
X133646718Y-143472373D01*
X133472201Y-143355765D01*
X133278295Y-143275447D01*
X133278289Y-143275445D01*
X133072445Y-143234500D01*
X133072443Y-143234500D01*
X132862557Y-143234500D01*
X132862555Y-143234500D01*
X132656710Y-143275445D01*
X132656704Y-143275447D01*
X132462798Y-143355765D01*
X132288281Y-143472373D01*
X132139873Y-143620781D01*
X132023265Y-143795298D01*
X131942947Y-143989204D01*
X131942945Y-143989210D01*
X131902000Y-144195054D01*
X131902000Y-144195057D01*
X131902000Y-144404943D01*
X131902000Y-144404945D01*
X131901999Y-144404945D01*
X126093000Y-144404945D01*
X126093000Y-144195054D01*
X126052054Y-143989210D01*
X126052053Y-143989209D01*
X126052053Y-143989205D01*
X126006077Y-143878210D01*
X125971734Y-143795298D01*
X125855126Y-143620781D01*
X125706718Y-143472373D01*
X125532201Y-143355765D01*
X125338295Y-143275447D01*
X125338289Y-143275445D01*
X125132445Y-143234500D01*
X125132443Y-143234500D01*
X124922557Y-143234500D01*
X124922555Y-143234500D01*
X124716710Y-143275445D01*
X124716704Y-143275447D01*
X124522798Y-143355765D01*
X124348281Y-143472373D01*
X124199873Y-143620781D01*
X124083265Y-143795298D01*
X124002947Y-143989204D01*
X124002945Y-143989210D01*
X123962000Y-144195054D01*
X123962000Y-144195057D01*
X123962000Y-144404943D01*
X123962000Y-144404945D01*
X123961999Y-144404945D01*
X120410299Y-144404945D01*
X120412206Y-144187876D01*
X120441420Y-140862911D01*
X120461693Y-140796047D01*
X120514897Y-140750757D01*
X120565415Y-140740000D01*
X124241293Y-140740000D01*
X124308332Y-140759685D01*
G37*
%TD.AperFunction*%
%TA.AperFunction,Conductor*%
G36*
X136500000Y-150050000D02*
G01*
X140420620Y-150050000D01*
X140407496Y-150057166D01*
X140381138Y-150060000D01*
X134157000Y-150060000D01*
X134089961Y-150040315D01*
X134044206Y-149987511D01*
X134033000Y-149936000D01*
X134032999Y-149239500D01*
X134052683Y-149172461D01*
X134105487Y-149126706D01*
X134156999Y-149115500D01*
X135346420Y-149115500D01*
X135443962Y-149096096D01*
X135491413Y-149086658D01*
X135627995Y-149030084D01*
X135677229Y-148997186D01*
X135750916Y-148947952D01*
X136500000Y-148198867D01*
X136500000Y-150050000D01*
G37*
%TD.AperFunction*%
%TD*%
%TA.AperFunction,Conductor*%
%TO.N,HV-*%
G36*
X124119856Y-120519685D02*
G01*
X124165611Y-120572489D01*
X124175555Y-120641647D01*
X124155919Y-120692890D01*
X124060767Y-120835295D01*
X123980447Y-121029204D01*
X123980445Y-121029210D01*
X123939500Y-121235054D01*
X123939500Y-121235057D01*
X123939500Y-121444943D01*
X123939500Y-121444945D01*
X123939499Y-121444945D01*
X123980445Y-121650789D01*
X123980447Y-121650795D01*
X124060765Y-121844701D01*
X124177373Y-122019218D01*
X124325781Y-122167626D01*
X124500298Y-122284234D01*
X124597251Y-122324393D01*
X124694205Y-122364553D01*
X124694209Y-122364553D01*
X124694210Y-122364554D01*
X124900054Y-122405500D01*
X124900057Y-122405500D01*
X125109945Y-122405500D01*
X125248433Y-122377952D01*
X125315795Y-122364553D01*
X125509703Y-122284233D01*
X125684216Y-122167628D01*
X125832628Y-122019216D01*
X125949233Y-121844703D01*
X126029553Y-121650795D01*
X126070500Y-121444943D01*
X126070500Y-121235057D01*
X126070500Y-121235054D01*
X126029554Y-121029210D01*
X126029553Y-121029209D01*
X126029553Y-121029205D01*
X125949233Y-120835297D01*
X125949232Y-120835295D01*
X125854081Y-120692890D01*
X125833203Y-120626213D01*
X125851688Y-120558833D01*
X125903667Y-120512143D01*
X125957183Y-120500000D01*
X134500000Y-120500000D01*
X134500000Y-121250000D01*
X141025000Y-121250000D01*
X141025000Y-129750000D01*
X134129502Y-129750000D01*
X134062463Y-129730315D01*
X134016708Y-129677511D01*
X134006213Y-129612744D01*
X134010499Y-129572880D01*
X134010499Y-129572879D01*
X134010500Y-129572873D01*
X134010499Y-128347128D01*
X134007986Y-128323753D01*
X134020392Y-128254996D01*
X134068002Y-128203858D01*
X134131276Y-128186500D01*
X136037920Y-128186500D01*
X136135462Y-128167096D01*
X136182913Y-128157658D01*
X136319495Y-128101084D01*
X136368729Y-128068186D01*
X136442416Y-128018952D01*
X137480396Y-126980970D01*
X137541717Y-126947487D01*
X137611408Y-126952471D01*
X137667342Y-126994342D01*
X137671178Y-126999763D01*
X137678212Y-127010291D01*
X137789707Y-127121786D01*
X137789711Y-127121789D01*
X137920814Y-127209390D01*
X137920827Y-127209397D01*
X138066498Y-127269735D01*
X138066503Y-127269737D01*
X138221153Y-127300499D01*
X138221156Y-127300500D01*
X138221158Y-127300500D01*
X138378844Y-127300500D01*
X138378845Y-127300499D01*
X138533497Y-127269737D01*
X138679179Y-127209394D01*
X138810289Y-127121789D01*
X138921789Y-127010289D01*
X139009394Y-126879179D01*
X139069737Y-126733497D01*
X139100500Y-126578842D01*
X139100500Y-126421158D01*
X139100500Y-126421155D01*
X139100499Y-126421153D01*
X139069738Y-126266510D01*
X139069737Y-126266503D01*
X139069735Y-126266498D01*
X139009397Y-126120827D01*
X139009390Y-126120814D01*
X138921789Y-125989711D01*
X138921786Y-125989707D01*
X138810292Y-125878213D01*
X138810288Y-125878210D01*
X138679176Y-125790603D01*
X138677297Y-125789599D01*
X138676497Y-125788813D01*
X138674114Y-125787221D01*
X138674416Y-125786768D01*
X138664649Y-125777175D01*
X138649000Y-125768843D01*
X138640242Y-125753199D01*
X138627453Y-125740636D01*
X138623505Y-125723301D01*
X138614870Y-125707876D01*
X138614529Y-125683888D01*
X138611982Y-125672701D01*
X138612493Y-125664301D01*
X138625500Y-125598918D01*
X138625500Y-125450837D01*
X138625730Y-125447063D01*
X138628558Y-125439228D01*
X138634939Y-125407151D01*
X138639787Y-125395447D01*
X138644737Y-125383497D01*
X138675500Y-125228842D01*
X138675500Y-125071158D01*
X138675500Y-125071155D01*
X138675499Y-125071153D01*
X138644738Y-124916510D01*
X138644737Y-124916503D01*
X138610794Y-124834556D01*
X138584397Y-124770827D01*
X138584390Y-124770814D01*
X138496789Y-124639711D01*
X138496786Y-124639707D01*
X138385292Y-124528213D01*
X138385288Y-124528210D01*
X138254185Y-124440609D01*
X138254172Y-124440602D01*
X138108501Y-124380264D01*
X138108489Y-124380261D01*
X137953845Y-124349500D01*
X137953842Y-124349500D01*
X137796158Y-124349500D01*
X137796155Y-124349500D01*
X137641510Y-124380261D01*
X137641498Y-124380264D01*
X137495827Y-124440602D01*
X137495814Y-124440609D01*
X137364711Y-124528210D01*
X137364707Y-124528213D01*
X137253213Y-124639707D01*
X137253210Y-124639711D01*
X137165609Y-124770814D01*
X137165602Y-124770827D01*
X137105264Y-124916498D01*
X137105261Y-124916510D01*
X137074500Y-125071153D01*
X137074500Y-125212769D01*
X137054815Y-125279808D01*
X137038181Y-125300450D01*
X135689451Y-126649181D01*
X135628128Y-126682666D01*
X135601770Y-126685500D01*
X134129658Y-126685500D01*
X134062619Y-126665815D01*
X134016864Y-126613011D01*
X134006920Y-126543853D01*
X134008041Y-126537309D01*
X134010499Y-126524947D01*
X134010500Y-126524945D01*
X134010500Y-126315054D01*
X133969554Y-126109210D01*
X133969553Y-126109209D01*
X133969553Y-126109205D01*
X133920055Y-125989707D01*
X133889234Y-125915298D01*
X133772626Y-125740781D01*
X133624218Y-125592373D01*
X133449701Y-125475765D01*
X133255795Y-125395447D01*
X133255789Y-125395445D01*
X133049945Y-125354500D01*
X133049943Y-125354500D01*
X132840057Y-125354500D01*
X132840055Y-125354500D01*
X132634210Y-125395445D01*
X132634204Y-125395447D01*
X132440298Y-125475765D01*
X132265781Y-125592373D01*
X132117373Y-125740781D01*
X132000765Y-125915298D01*
X131920447Y-126109204D01*
X131920445Y-126109210D01*
X131879500Y-126315054D01*
X131879500Y-126524947D01*
X131881959Y-126537309D01*
X131875732Y-126606901D01*
X131832868Y-126662078D01*
X131766979Y-126685322D01*
X131760342Y-126685500D01*
X126455080Y-126685500D01*
X126310092Y-126714340D01*
X126310082Y-126714343D01*
X126222258Y-126750721D01*
X126152789Y-126758190D01*
X126090310Y-126726914D01*
X126054658Y-126666825D01*
X126053189Y-126611969D01*
X126070500Y-126524943D01*
X126070500Y-126315057D01*
X126070500Y-126315054D01*
X126029554Y-126109210D01*
X126029553Y-126109209D01*
X126029553Y-126109205D01*
X125980055Y-125989707D01*
X125949234Y-125915298D01*
X125832626Y-125740781D01*
X125684218Y-125592373D01*
X125509701Y-125475765D01*
X125315795Y-125395447D01*
X125315789Y-125395445D01*
X125109945Y-125354500D01*
X125109943Y-125354500D01*
X124900057Y-125354500D01*
X124900055Y-125354500D01*
X124694210Y-125395445D01*
X124694204Y-125395447D01*
X124500298Y-125475765D01*
X124325781Y-125592373D01*
X124177373Y-125740781D01*
X124060765Y-125915298D01*
X123980447Y-126109204D01*
X123980445Y-126109210D01*
X123939500Y-126315054D01*
X123939500Y-126315057D01*
X123939500Y-126524943D01*
X123939500Y-126524945D01*
X123939499Y-126524945D01*
X123980445Y-126730789D01*
X123980447Y-126730795D01*
X124060765Y-126924701D01*
X124177373Y-127099218D01*
X124325781Y-127247626D01*
X124500298Y-127364234D01*
X124597251Y-127404393D01*
X124694205Y-127444553D01*
X124694209Y-127444553D01*
X124694210Y-127444554D01*
X124900054Y-127485500D01*
X125116035Y-127485500D01*
X125116035Y-127487530D01*
X125134442Y-127491019D01*
X125162401Y-127493019D01*
X125168305Y-127497438D01*
X125175550Y-127498812D01*
X125195894Y-127518091D01*
X125218335Y-127534890D01*
X125220911Y-127541799D01*
X125226265Y-127546872D01*
X125232957Y-127574093D01*
X125242752Y-127600355D01*
X125241184Y-127607560D01*
X125242945Y-127614722D01*
X125233858Y-127641238D01*
X125227900Y-127668628D01*
X125221578Y-127677073D01*
X125220295Y-127680818D01*
X125206751Y-127696879D01*
X125045449Y-127858182D01*
X124984128Y-127891666D01*
X124957770Y-127894500D01*
X124900055Y-127894500D01*
X124694210Y-127935445D01*
X124694204Y-127935447D01*
X124500298Y-128015765D01*
X124325781Y-128132373D01*
X124177373Y-128280781D01*
X124060765Y-128455298D01*
X123980447Y-128649204D01*
X123980445Y-128649210D01*
X123939500Y-128855054D01*
X123939500Y-128855057D01*
X123939500Y-129064943D01*
X123939500Y-129064945D01*
X123939499Y-129064945D01*
X123980445Y-129270789D01*
X123980447Y-129270795D01*
X124060765Y-129464701D01*
X124122511Y-129557110D01*
X124143388Y-129623787D01*
X124124903Y-129691167D01*
X124072924Y-129737857D01*
X124019408Y-129750000D01*
X118775879Y-129750000D01*
X118774192Y-129749989D01*
X115223727Y-129701683D01*
X115156962Y-129681088D01*
X115111929Y-129627666D01*
X115101422Y-129576269D01*
X115102705Y-129464701D01*
X115165690Y-123984945D01*
X123939499Y-123984945D01*
X123980445Y-124190789D01*
X123980447Y-124190795D01*
X124060765Y-124384701D01*
X124177373Y-124559218D01*
X124325781Y-124707626D01*
X124500298Y-124824234D01*
X124597251Y-124864393D01*
X124694205Y-124904553D01*
X124694209Y-124904553D01*
X124694210Y-124904554D01*
X124900054Y-124945500D01*
X124900057Y-124945500D01*
X125109945Y-124945500D01*
X125255744Y-124916498D01*
X125315795Y-124904553D01*
X125509703Y-124824233D01*
X125684216Y-124707628D01*
X125832628Y-124559216D01*
X125949233Y-124384703D01*
X126029553Y-124190795D01*
X126070500Y-123984945D01*
X131879499Y-123984945D01*
X131920445Y-124190789D01*
X131920447Y-124190795D01*
X132000765Y-124384701D01*
X132117373Y-124559218D01*
X132265781Y-124707626D01*
X132440298Y-124824234D01*
X132537251Y-124864393D01*
X132634205Y-124904553D01*
X132634209Y-124904553D01*
X132634210Y-124904554D01*
X132840054Y-124945500D01*
X132840057Y-124945500D01*
X133049945Y-124945500D01*
X133195744Y-124916498D01*
X133255795Y-124904553D01*
X133449703Y-124824233D01*
X133624216Y-124707628D01*
X133772628Y-124559216D01*
X133889233Y-124384703D01*
X133969553Y-124190795D01*
X134010500Y-123984943D01*
X134010500Y-123775057D01*
X134010500Y-123775054D01*
X133969554Y-123569210D01*
X133969553Y-123569209D01*
X133969553Y-123569205D01*
X133929393Y-123472251D01*
X133889234Y-123375298D01*
X133772626Y-123200781D01*
X133624218Y-123052373D01*
X133449701Y-122935765D01*
X133255795Y-122855447D01*
X133255789Y-122855445D01*
X133049945Y-122814500D01*
X133049943Y-122814500D01*
X132840057Y-122814500D01*
X132840055Y-122814500D01*
X132634210Y-122855445D01*
X132634204Y-122855447D01*
X132440298Y-122935765D01*
X132265781Y-123052373D01*
X132117373Y-123200781D01*
X132000765Y-123375298D01*
X131920447Y-123569204D01*
X131920445Y-123569210D01*
X131879500Y-123775054D01*
X131879500Y-123775057D01*
X131879500Y-123984943D01*
X131879500Y-123984945D01*
X131879499Y-123984945D01*
X126070500Y-123984945D01*
X126070500Y-123984943D01*
X126070500Y-123775057D01*
X126070500Y-123775054D01*
X126029554Y-123569210D01*
X126029553Y-123569209D01*
X126029553Y-123569205D01*
X125989393Y-123472251D01*
X125949234Y-123375298D01*
X125832626Y-123200781D01*
X125684218Y-123052373D01*
X125509701Y-122935765D01*
X125315795Y-122855447D01*
X125315789Y-122855445D01*
X125109945Y-122814500D01*
X125109943Y-122814500D01*
X124900057Y-122814500D01*
X124900055Y-122814500D01*
X124694210Y-122855445D01*
X124694204Y-122855447D01*
X124500298Y-122935765D01*
X124325781Y-123052373D01*
X124177373Y-123200781D01*
X124060765Y-123375298D01*
X123980447Y-123569204D01*
X123980445Y-123569210D01*
X123939500Y-123775054D01*
X123939500Y-123775057D01*
X123939500Y-123984943D01*
X123939500Y-123984945D01*
X123939499Y-123984945D01*
X115165690Y-123984945D01*
X115198774Y-121106609D01*
X115219228Y-121039802D01*
X115272554Y-120994657D01*
X115305583Y-120985233D01*
X118652611Y-120517117D01*
X118766456Y-120501195D01*
X118783631Y-120500000D01*
X124052817Y-120500000D01*
X124119856Y-120519685D01*
G37*
%TD.AperFunction*%
%TD*%
M02*
