%TF.GenerationSoftware,KiCad,Pcbnew,9.0.4*%
%TF.CreationDate,2026-01-13T11:47:29-08:00*%
%TF.ProjectId,2026Precharge,32303236-5072-4656-9368-617267652e6b,rev?*%
%TF.SameCoordinates,Original*%
%TF.FileFunction,Paste,Top*%
%TF.FilePolarity,Positive*%
%FSLAX46Y46*%
G04 Gerber Fmt 4.6, Leading zero omitted, Abs format (unit mm)*
G04 Created by KiCad (PCBNEW 9.0.4) date 2026-01-13 11:47:29*
%MOMM*%
%LPD*%
G01*
G04 APERTURE LIST*
G04 Aperture macros list*
%AMRoundRect*
0 Rectangle with rounded corners*
0 $1 Rounding radius*
0 $2 $3 $4 $5 $6 $7 $8 $9 X,Y pos of 4 corners*
0 Add a 4 corners polygon primitive as box body*
4,1,4,$2,$3,$4,$5,$6,$7,$8,$9,$2,$3,0*
0 Add four circle primitives for the rounded corners*
1,1,$1+$1,$2,$3*
1,1,$1+$1,$4,$5*
1,1,$1+$1,$6,$7*
1,1,$1+$1,$8,$9*
0 Add four rect primitives between the rounded corners*
20,1,$1+$1,$2,$3,$4,$5,0*
20,1,$1+$1,$4,$5,$6,$7,0*
20,1,$1+$1,$6,$7,$8,$9,0*
20,1,$1+$1,$8,$9,$2,$3,0*%
G04 Aperture macros list end*
%ADD10RoundRect,0.200000X0.275000X-0.200000X0.275000X0.200000X-0.275000X0.200000X-0.275000X-0.200000X0*%
%ADD11RoundRect,0.150000X-0.150000X-0.200000X0.150000X-0.200000X0.150000X0.200000X-0.150000X0.200000X0*%
%ADD12RoundRect,0.225000X0.225000X0.250000X-0.225000X0.250000X-0.225000X-0.250000X0.225000X-0.250000X0*%
%ADD13RoundRect,0.150000X0.150000X-0.587500X0.150000X0.587500X-0.150000X0.587500X-0.150000X-0.587500X0*%
%ADD14RoundRect,0.225000X-0.250000X0.225000X-0.250000X-0.225000X0.250000X-0.225000X0.250000X0.225000X0*%
%ADD15RoundRect,0.200000X-0.275000X0.200000X-0.275000X-0.200000X0.275000X-0.200000X0.275000X0.200000X0*%
%ADD16RoundRect,0.225000X-0.225000X-0.250000X0.225000X-0.250000X0.225000X0.250000X-0.225000X0.250000X0*%
%ADD17RoundRect,0.250000X-0.325000X-1.100000X0.325000X-1.100000X0.325000X1.100000X-0.325000X1.100000X0*%
%ADD18RoundRect,0.250000X0.250000X0.475000X-0.250000X0.475000X-0.250000X-0.475000X0.250000X-0.475000X0*%
%ADD19RoundRect,0.150000X-0.150000X0.587500X-0.150000X-0.587500X0.150000X-0.587500X0.150000X0.587500X0*%
%ADD20RoundRect,0.250000X-0.312500X-0.625000X0.312500X-0.625000X0.312500X0.625000X-0.312500X0.625000X0*%
%ADD21RoundRect,0.200000X-0.200000X-0.275000X0.200000X-0.275000X0.200000X0.275000X-0.200000X0.275000X0*%
%ADD22RoundRect,0.150000X0.150000X0.200000X-0.150000X0.200000X-0.150000X-0.200000X0.150000X-0.200000X0*%
%ADD23RoundRect,0.112500X0.112500X-0.187500X0.112500X0.187500X-0.112500X0.187500X-0.112500X-0.187500X0*%
%ADD24RoundRect,0.250000X0.312500X0.625000X-0.312500X0.625000X-0.312500X-0.625000X0.312500X-0.625000X0*%
%ADD25RoundRect,0.250000X0.650000X-0.325000X0.650000X0.325000X-0.650000X0.325000X-0.650000X-0.325000X0*%
%ADD26RoundRect,0.150000X-0.587500X-0.150000X0.587500X-0.150000X0.587500X0.150000X-0.587500X0.150000X0*%
%ADD27RoundRect,0.250000X-0.650000X0.325000X-0.650000X-0.325000X0.650000X-0.325000X0.650000X0.325000X0*%
%ADD28RoundRect,0.250000X-1.125000X1.275000X-1.125000X-1.275000X1.125000X-1.275000X1.125000X1.275000X0*%
%ADD29RoundRect,0.250000X-0.350000X0.850000X-0.350000X-0.850000X0.350000X-0.850000X0.350000X0.850000X0*%
%ADD30RoundRect,0.200000X0.200000X0.275000X-0.200000X0.275000X-0.200000X-0.275000X0.200000X-0.275000X0*%
%ADD31RoundRect,0.100000X0.637500X0.100000X-0.637500X0.100000X-0.637500X-0.100000X0.637500X-0.100000X0*%
%ADD32RoundRect,0.250001X-0.462499X-0.624999X0.462499X-0.624999X0.462499X0.624999X-0.462499X0.624999X0*%
%ADD33R,1.700000X2.400000*%
%ADD34R,1.520000X1.780000*%
G04 APERTURE END LIST*
D10*
%TO.C,R28*%
X178960000Y-130195000D03*
X178960000Y-131845000D03*
%TD*%
D11*
%TO.C,D1*%
X169977500Y-116790000D03*
X168577500Y-116790000D03*
%TD*%
D12*
%TO.C,C3*%
X123192500Y-149602500D03*
X121642500Y-149602500D03*
%TD*%
D13*
%TO.C,Q2*%
X174667500Y-125940000D03*
X176567500Y-125940000D03*
X175617500Y-124065000D03*
%TD*%
D14*
%TO.C,C5*%
X123175000Y-126325000D03*
X123175000Y-127875000D03*
%TD*%
D15*
%TO.C,R20*%
X139770000Y-144235000D03*
X139770000Y-145885000D03*
%TD*%
D14*
%TO.C,C7*%
X123192500Y-146502500D03*
X123192500Y-148052500D03*
%TD*%
D16*
%TO.C,C9*%
X178915000Y-133700000D03*
X180465000Y-133700000D03*
%TD*%
D13*
%TO.C,Q3*%
X185757500Y-130047500D03*
X187657500Y-130047500D03*
X186707500Y-128172500D03*
%TD*%
D10*
%TO.C,R17*%
X136625000Y-126525000D03*
X136625000Y-124875000D03*
%TD*%
D15*
%TO.C,R11*%
X119942500Y-141165000D03*
X119942500Y-142815000D03*
%TD*%
D13*
%TO.C,Q4*%
X180065000Y-125890000D03*
X181965000Y-125890000D03*
X181015000Y-124015000D03*
%TD*%
D17*
%TO.C,CL2*%
X135287500Y-130700000D03*
X138237500Y-130700000D03*
%TD*%
D18*
%TO.C,C2*%
X137890000Y-118290000D03*
X135990000Y-118290000D03*
%TD*%
D10*
%TO.C,R14*%
X165540000Y-119415000D03*
X165540000Y-117765000D03*
%TD*%
D19*
%TO.C,D2*%
X179350000Y-122045000D03*
X177450000Y-122045000D03*
X178400000Y-123920000D03*
%TD*%
D20*
%TO.C,R7*%
X125075000Y-133500000D03*
X128000000Y-133500000D03*
%TD*%
D15*
%TO.C,R24*%
X154170000Y-125055000D03*
X154170000Y-126705000D03*
%TD*%
D21*
%TO.C,R18*%
X165165000Y-125840000D03*
X166815000Y-125840000D03*
%TD*%
D12*
%TO.C,C10*%
X180445000Y-135280000D03*
X178895000Y-135280000D03*
%TD*%
D15*
%TO.C,RT2*%
X121775000Y-121125000D03*
X121775000Y-122775000D03*
%TD*%
D10*
%TO.C,R27*%
X172740000Y-123335000D03*
X172740000Y-121685000D03*
%TD*%
D21*
%TO.C,R23*%
X185125000Y-135200000D03*
X186775000Y-135200000D03*
%TD*%
D20*
%TO.C,R8*%
X130300000Y-133500000D03*
X133225000Y-133500000D03*
%TD*%
%TO.C,R1*%
X123290000Y-112835000D03*
X126215000Y-112835000D03*
%TD*%
D22*
%TO.C,D3*%
X139350000Y-118200000D03*
X140750000Y-118200000D03*
%TD*%
D21*
%TO.C,R12*%
X138315000Y-121930000D03*
X139965000Y-121930000D03*
%TD*%
D23*
%TO.C,D6*%
X165940000Y-123850000D03*
X165940000Y-121750000D03*
%TD*%
D12*
%TO.C,C8*%
X175395000Y-141300000D03*
X173845000Y-141300000D03*
%TD*%
D15*
%TO.C,R6*%
X120075000Y-121100000D03*
X120075000Y-122750000D03*
%TD*%
D24*
%TO.C,R10*%
X127862500Y-137800000D03*
X124937500Y-137800000D03*
%TD*%
D10*
%TO.C,RL1*%
X134910000Y-149875000D03*
X134910000Y-148225000D03*
%TD*%
D15*
%TO.C,R21*%
X120692500Y-145165000D03*
X120692500Y-146815000D03*
%TD*%
D24*
%TO.C,R3*%
X131052500Y-117610000D03*
X128127500Y-117610000D03*
%TD*%
D25*
%TO.C,C14*%
X158910000Y-117165000D03*
X158910000Y-114215000D03*
%TD*%
D14*
%TO.C,CT1*%
X123367500Y-141215000D03*
X123367500Y-142765000D03*
%TD*%
D12*
%TO.C,C4*%
X123350000Y-129400000D03*
X121800000Y-129400000D03*
%TD*%
D26*
%TO.C,Q5*%
X168115000Y-121700000D03*
X168115000Y-123600000D03*
X169990000Y-122650000D03*
%TD*%
D15*
%TO.C,R25*%
X154200000Y-144935000D03*
X154200000Y-146585000D03*
%TD*%
D16*
%TO.C,C6*%
X177225000Y-141320000D03*
X178775000Y-141320000D03*
%TD*%
D15*
%TO.C,RS2*%
X135000000Y-124850000D03*
X135000000Y-126500000D03*
%TD*%
D19*
%TO.C,Q1*%
X169212500Y-127962500D03*
X167312500Y-127962500D03*
X168262500Y-129837500D03*
%TD*%
D27*
%TO.C,C15*%
X162280000Y-114195000D03*
X162280000Y-117145000D03*
%TD*%
D15*
%TO.C,R16*%
X121550000Y-124700000D03*
X121550000Y-126350000D03*
%TD*%
D21*
%TO.C,R19*%
X185125000Y-133560000D03*
X186775000Y-133560000D03*
%TD*%
D20*
%TO.C,R2*%
X128427500Y-112835000D03*
X131352500Y-112835000D03*
%TD*%
D24*
%TO.C,R9*%
X133125000Y-137800000D03*
X130200000Y-137800000D03*
%TD*%
D13*
%TO.C,D4*%
X185390000Y-123887500D03*
X187290000Y-123887500D03*
X186340000Y-122012500D03*
%TD*%
D21*
%TO.C,RL2*%
X135025000Y-128100000D03*
X136675000Y-128100000D03*
%TD*%
D28*
%TO.C,U8*%
X161932500Y-124425000D03*
X158882500Y-124425000D03*
X161932500Y-127775000D03*
X158882500Y-127775000D03*
D29*
X162687500Y-119800000D03*
X158127500Y-119800000D03*
%TD*%
D15*
%TO.C,RS1*%
X134870000Y-144105000D03*
X134870000Y-145755000D03*
%TD*%
D30*
%TO.C,R5*%
X186775000Y-131950000D03*
X185125000Y-131950000D03*
%TD*%
D31*
%TO.C,U7*%
X176875000Y-135555000D03*
X176875000Y-134905000D03*
X176875000Y-134255000D03*
X176875000Y-133605000D03*
X176875000Y-132955000D03*
X176875000Y-132305000D03*
X176875000Y-131655000D03*
X176875000Y-131005000D03*
X176875000Y-130355000D03*
X176875000Y-129705000D03*
X171150000Y-129705000D03*
X171150000Y-130355000D03*
X171150000Y-131005000D03*
X171150000Y-131655000D03*
X171150000Y-132305000D03*
X171150000Y-132955000D03*
X171150000Y-133605000D03*
X171150000Y-134255000D03*
X171150000Y-134905000D03*
X171150000Y-135555000D03*
%TD*%
D21*
%TO.C,R13*%
X138505000Y-142270000D03*
X140155000Y-142270000D03*
%TD*%
D17*
%TO.C,CL1*%
X137102500Y-148970000D03*
X140052500Y-148970000D03*
%TD*%
D10*
%TO.C,R22*%
X136740000Y-145975000D03*
X136740000Y-144325000D03*
%TD*%
D32*
%TO.C,F7*%
X166965000Y-114790000D03*
X169940000Y-114790000D03*
%TD*%
D14*
%TO.C,CT2*%
X123350000Y-121150000D03*
X123350000Y-122700000D03*
%TD*%
D33*
%TO.C,X1*%
X174480000Y-138370000D03*
X178180000Y-138370000D03*
%TD*%
D34*
%TO.C,U4*%
X142297500Y-143072500D03*
X142297500Y-145612500D03*
X142297500Y-148152500D03*
X151307500Y-148152500D03*
X151307500Y-145612500D03*
X151307500Y-143072500D03*
%TD*%
%TO.C,U1*%
X142495000Y-123085000D03*
X142495000Y-125625000D03*
X142495000Y-128165000D03*
X151505000Y-128165000D03*
X151505000Y-125625000D03*
X151505000Y-123085000D03*
%TD*%
D15*
%TO.C,RT1*%
X121692500Y-141165000D03*
X121692500Y-142815000D03*
%TD*%
D24*
%TO.C,R4*%
X126002500Y-117610000D03*
X123077500Y-117610000D03*
%TD*%
D18*
%TO.C,C1*%
X152760000Y-118380000D03*
X150860000Y-118380000D03*
%TD*%
D15*
%TO.C,R15*%
X140100000Y-124155000D03*
X140100000Y-125805000D03*
%TD*%
M02*
