%TF.GenerationSoftware,KiCad,Pcbnew,9.0.4*%
%TF.CreationDate,2026-01-14T13:13:59-08:00*%
%TF.ProjectId,2026Precharge,32303236-5072-4656-9368-617267652e6b,rev?*%
%TF.SameCoordinates,Original*%
%TF.FileFunction,Legend,Top*%
%TF.FilePolarity,Positive*%
%FSLAX46Y46*%
G04 Gerber Fmt 4.6, Leading zero omitted, Abs format (unit mm)*
G04 Created by KiCad (PCBNEW 9.0.4) date 2026-01-14 13:13:59*
%MOMM*%
%LPD*%
G01*
G04 APERTURE LIST*
%ADD10C,0.100000*%
%ADD11C,0.250000*%
%ADD12C,0.300000*%
%ADD13C,0.200000*%
%ADD14C,0.150000*%
%ADD15C,0.125000*%
%ADD16C,0.120000*%
%ADD17C,0.127000*%
%ADD18C,0.000000*%
G04 APERTURE END LIST*
D10*
X163140038Y-141092306D02*
X163092419Y-141187544D01*
X163092419Y-141187544D02*
X163092419Y-141330401D01*
X163092419Y-141330401D02*
X163140038Y-141473258D01*
X163140038Y-141473258D02*
X163235276Y-141568496D01*
X163235276Y-141568496D02*
X163330514Y-141616115D01*
X163330514Y-141616115D02*
X163520990Y-141663734D01*
X163520990Y-141663734D02*
X163663847Y-141663734D01*
X163663847Y-141663734D02*
X163854323Y-141616115D01*
X163854323Y-141616115D02*
X163949561Y-141568496D01*
X163949561Y-141568496D02*
X164044800Y-141473258D01*
X164044800Y-141473258D02*
X164092419Y-141330401D01*
X164092419Y-141330401D02*
X164092419Y-141235163D01*
X164092419Y-141235163D02*
X164044800Y-141092306D01*
X164044800Y-141092306D02*
X163997180Y-141044687D01*
X163997180Y-141044687D02*
X163663847Y-141044687D01*
X163663847Y-141044687D02*
X163663847Y-141235163D01*
X164092419Y-140616115D02*
X163092419Y-140616115D01*
X163092419Y-140616115D02*
X164092419Y-140044687D01*
X164092419Y-140044687D02*
X163092419Y-140044687D01*
X164092419Y-139568496D02*
X163092419Y-139568496D01*
X163092419Y-139568496D02*
X163092419Y-139330401D01*
X163092419Y-139330401D02*
X163140038Y-139187544D01*
X163140038Y-139187544D02*
X163235276Y-139092306D01*
X163235276Y-139092306D02*
X163330514Y-139044687D01*
X163330514Y-139044687D02*
X163520990Y-138997068D01*
X163520990Y-138997068D02*
X163663847Y-138997068D01*
X163663847Y-138997068D02*
X163854323Y-139044687D01*
X163854323Y-139044687D02*
X163949561Y-139092306D01*
X163949561Y-139092306D02*
X164044800Y-139187544D01*
X164044800Y-139187544D02*
X164092419Y-139330401D01*
X164092419Y-139330401D02*
X164092419Y-139568496D01*
X156051466Y-142293734D02*
X156051466Y-141684211D01*
X156432419Y-141988972D02*
X155670514Y-141988972D01*
X155432419Y-141379449D02*
X155432419Y-140884211D01*
X155432419Y-140884211D02*
X155813371Y-141150877D01*
X155813371Y-141150877D02*
X155813371Y-141036592D01*
X155813371Y-141036592D02*
X155860990Y-140960401D01*
X155860990Y-140960401D02*
X155908609Y-140922306D01*
X155908609Y-140922306D02*
X156003847Y-140884211D01*
X156003847Y-140884211D02*
X156241942Y-140884211D01*
X156241942Y-140884211D02*
X156337180Y-140922306D01*
X156337180Y-140922306D02*
X156384800Y-140960401D01*
X156384800Y-140960401D02*
X156432419Y-141036592D01*
X156432419Y-141036592D02*
X156432419Y-141265163D01*
X156432419Y-141265163D02*
X156384800Y-141341354D01*
X156384800Y-141341354D02*
X156337180Y-141379449D01*
X156337180Y-140541353D02*
X156384800Y-140503258D01*
X156384800Y-140503258D02*
X156432419Y-140541353D01*
X156432419Y-140541353D02*
X156384800Y-140579449D01*
X156384800Y-140579449D02*
X156337180Y-140541353D01*
X156337180Y-140541353D02*
X156432419Y-140541353D01*
X155432419Y-140236592D02*
X155432419Y-139741354D01*
X155432419Y-139741354D02*
X155813371Y-140008020D01*
X155813371Y-140008020D02*
X155813371Y-139893735D01*
X155813371Y-139893735D02*
X155860990Y-139817544D01*
X155860990Y-139817544D02*
X155908609Y-139779449D01*
X155908609Y-139779449D02*
X156003847Y-139741354D01*
X156003847Y-139741354D02*
X156241942Y-139741354D01*
X156241942Y-139741354D02*
X156337180Y-139779449D01*
X156337180Y-139779449D02*
X156384800Y-139817544D01*
X156384800Y-139817544D02*
X156432419Y-139893735D01*
X156432419Y-139893735D02*
X156432419Y-140122306D01*
X156432419Y-140122306D02*
X156384800Y-140198497D01*
X156384800Y-140198497D02*
X156337180Y-140236592D01*
X155432419Y-139512782D02*
X156432419Y-139246115D01*
X156432419Y-139246115D02*
X155432419Y-138979449D01*
X161444800Y-142451830D02*
X161492419Y-142337544D01*
X161492419Y-142337544D02*
X161492419Y-142147068D01*
X161492419Y-142147068D02*
X161444800Y-142070877D01*
X161444800Y-142070877D02*
X161397180Y-142032782D01*
X161397180Y-142032782D02*
X161301942Y-141994687D01*
X161301942Y-141994687D02*
X161206704Y-141994687D01*
X161206704Y-141994687D02*
X161111466Y-142032782D01*
X161111466Y-142032782D02*
X161063847Y-142070877D01*
X161063847Y-142070877D02*
X161016228Y-142147068D01*
X161016228Y-142147068D02*
X160968609Y-142299449D01*
X160968609Y-142299449D02*
X160920990Y-142375639D01*
X160920990Y-142375639D02*
X160873371Y-142413734D01*
X160873371Y-142413734D02*
X160778133Y-142451830D01*
X160778133Y-142451830D02*
X160682895Y-142451830D01*
X160682895Y-142451830D02*
X160587657Y-142413734D01*
X160587657Y-142413734D02*
X160540038Y-142375639D01*
X160540038Y-142375639D02*
X160492419Y-142299449D01*
X160492419Y-142299449D02*
X160492419Y-142108972D01*
X160492419Y-142108972D02*
X160540038Y-141994687D01*
X160492419Y-141728020D02*
X161492419Y-141537544D01*
X161492419Y-141537544D02*
X160778133Y-141385163D01*
X160778133Y-141385163D02*
X161492419Y-141232782D01*
X161492419Y-141232782D02*
X160492419Y-141042306D01*
X161492419Y-140737543D02*
X160492419Y-140737543D01*
X160492419Y-140737543D02*
X160492419Y-140547067D01*
X160492419Y-140547067D02*
X160540038Y-140432781D01*
X160540038Y-140432781D02*
X160635276Y-140356591D01*
X160635276Y-140356591D02*
X160730514Y-140318496D01*
X160730514Y-140318496D02*
X160920990Y-140280400D01*
X160920990Y-140280400D02*
X161063847Y-140280400D01*
X161063847Y-140280400D02*
X161254323Y-140318496D01*
X161254323Y-140318496D02*
X161349561Y-140356591D01*
X161349561Y-140356591D02*
X161444800Y-140432781D01*
X161444800Y-140432781D02*
X161492419Y-140547067D01*
X161492419Y-140547067D02*
X161492419Y-140737543D01*
X161492419Y-139937543D02*
X160492419Y-139937543D01*
X160492419Y-139404210D02*
X160492419Y-139251829D01*
X160492419Y-139251829D02*
X160540038Y-139175639D01*
X160540038Y-139175639D02*
X160635276Y-139099448D01*
X160635276Y-139099448D02*
X160825752Y-139061353D01*
X160825752Y-139061353D02*
X161159085Y-139061353D01*
X161159085Y-139061353D02*
X161349561Y-139099448D01*
X161349561Y-139099448D02*
X161444800Y-139175639D01*
X161444800Y-139175639D02*
X161492419Y-139251829D01*
X161492419Y-139251829D02*
X161492419Y-139404210D01*
X161492419Y-139404210D02*
X161444800Y-139480401D01*
X161444800Y-139480401D02*
X161349561Y-139556591D01*
X161349561Y-139556591D02*
X161159085Y-139594687D01*
X161159085Y-139594687D02*
X160825752Y-139594687D01*
X160825752Y-139594687D02*
X160635276Y-139556591D01*
X160635276Y-139556591D02*
X160540038Y-139480401D01*
X160540038Y-139480401D02*
X160492419Y-139404210D01*
X158924800Y-142611830D02*
X158972419Y-142497544D01*
X158972419Y-142497544D02*
X158972419Y-142307068D01*
X158972419Y-142307068D02*
X158924800Y-142230877D01*
X158924800Y-142230877D02*
X158877180Y-142192782D01*
X158877180Y-142192782D02*
X158781942Y-142154687D01*
X158781942Y-142154687D02*
X158686704Y-142154687D01*
X158686704Y-142154687D02*
X158591466Y-142192782D01*
X158591466Y-142192782D02*
X158543847Y-142230877D01*
X158543847Y-142230877D02*
X158496228Y-142307068D01*
X158496228Y-142307068D02*
X158448609Y-142459449D01*
X158448609Y-142459449D02*
X158400990Y-142535639D01*
X158400990Y-142535639D02*
X158353371Y-142573734D01*
X158353371Y-142573734D02*
X158258133Y-142611830D01*
X158258133Y-142611830D02*
X158162895Y-142611830D01*
X158162895Y-142611830D02*
X158067657Y-142573734D01*
X158067657Y-142573734D02*
X158020038Y-142535639D01*
X158020038Y-142535639D02*
X157972419Y-142459449D01*
X157972419Y-142459449D02*
X157972419Y-142268972D01*
X157972419Y-142268972D02*
X158020038Y-142154687D01*
X157972419Y-141888020D02*
X158972419Y-141697544D01*
X158972419Y-141697544D02*
X158258133Y-141545163D01*
X158258133Y-141545163D02*
X158972419Y-141392782D01*
X158972419Y-141392782D02*
X157972419Y-141202306D01*
X158877180Y-140440400D02*
X158924800Y-140478496D01*
X158924800Y-140478496D02*
X158972419Y-140592781D01*
X158972419Y-140592781D02*
X158972419Y-140668972D01*
X158972419Y-140668972D02*
X158924800Y-140783258D01*
X158924800Y-140783258D02*
X158829561Y-140859448D01*
X158829561Y-140859448D02*
X158734323Y-140897543D01*
X158734323Y-140897543D02*
X158543847Y-140935639D01*
X158543847Y-140935639D02*
X158400990Y-140935639D01*
X158400990Y-140935639D02*
X158210514Y-140897543D01*
X158210514Y-140897543D02*
X158115276Y-140859448D01*
X158115276Y-140859448D02*
X158020038Y-140783258D01*
X158020038Y-140783258D02*
X157972419Y-140668972D01*
X157972419Y-140668972D02*
X157972419Y-140592781D01*
X157972419Y-140592781D02*
X158020038Y-140478496D01*
X158020038Y-140478496D02*
X158067657Y-140440400D01*
X158972419Y-139716591D02*
X158972419Y-140097543D01*
X158972419Y-140097543D02*
X157972419Y-140097543D01*
X158972419Y-139449924D02*
X157972419Y-139449924D01*
X158972419Y-138992781D02*
X158400990Y-139335639D01*
X157972419Y-138992781D02*
X158543847Y-139449924D01*
X144487500Y-110630000D02*
X149400000Y-110630000D01*
X149400000Y-150620000D01*
X144487500Y-150620000D01*
X144487500Y-110630000D01*
G36*
X144487500Y-110630000D02*
G01*
X149400000Y-110630000D01*
X149400000Y-150620000D01*
X144487500Y-150620000D01*
X144487500Y-110630000D01*
G37*
D11*
X113001615Y-137833428D02*
X113001615Y-136333428D01*
X113001615Y-137047714D02*
X113858758Y-137047714D01*
X113858758Y-137833428D02*
X113858758Y-136333428D01*
X114573044Y-137833428D02*
X114573044Y-136833428D01*
X114573044Y-136333428D02*
X114501616Y-136404857D01*
X114501616Y-136404857D02*
X114573044Y-136476285D01*
X114573044Y-136476285D02*
X114644473Y-136404857D01*
X114644473Y-136404857D02*
X114573044Y-136333428D01*
X114573044Y-136333428D02*
X114573044Y-136476285D01*
X115930188Y-136833428D02*
X115930188Y-138047714D01*
X115930188Y-138047714D02*
X115858759Y-138190571D01*
X115858759Y-138190571D02*
X115787330Y-138262000D01*
X115787330Y-138262000D02*
X115644473Y-138333428D01*
X115644473Y-138333428D02*
X115430188Y-138333428D01*
X115430188Y-138333428D02*
X115287330Y-138262000D01*
X115930188Y-137762000D02*
X115787330Y-137833428D01*
X115787330Y-137833428D02*
X115501616Y-137833428D01*
X115501616Y-137833428D02*
X115358759Y-137762000D01*
X115358759Y-137762000D02*
X115287330Y-137690571D01*
X115287330Y-137690571D02*
X115215902Y-137547714D01*
X115215902Y-137547714D02*
X115215902Y-137119142D01*
X115215902Y-137119142D02*
X115287330Y-136976285D01*
X115287330Y-136976285D02*
X115358759Y-136904857D01*
X115358759Y-136904857D02*
X115501616Y-136833428D01*
X115501616Y-136833428D02*
X115787330Y-136833428D01*
X115787330Y-136833428D02*
X115930188Y-136904857D01*
X116644473Y-137833428D02*
X116644473Y-136333428D01*
X117287331Y-137833428D02*
X117287331Y-137047714D01*
X117287331Y-137047714D02*
X117215902Y-136904857D01*
X117215902Y-136904857D02*
X117073045Y-136833428D01*
X117073045Y-136833428D02*
X116858759Y-136833428D01*
X116858759Y-136833428D02*
X116715902Y-136904857D01*
X116715902Y-136904857D02*
X116644473Y-136976285D01*
X118930188Y-136333428D02*
X119430188Y-137833428D01*
X119430188Y-137833428D02*
X119930188Y-136333428D01*
X120644473Y-137833428D02*
X120501616Y-137762000D01*
X120501616Y-137762000D02*
X120430187Y-137690571D01*
X120430187Y-137690571D02*
X120358759Y-137547714D01*
X120358759Y-137547714D02*
X120358759Y-137119142D01*
X120358759Y-137119142D02*
X120430187Y-136976285D01*
X120430187Y-136976285D02*
X120501616Y-136904857D01*
X120501616Y-136904857D02*
X120644473Y-136833428D01*
X120644473Y-136833428D02*
X120858759Y-136833428D01*
X120858759Y-136833428D02*
X121001616Y-136904857D01*
X121001616Y-136904857D02*
X121073045Y-136976285D01*
X121073045Y-136976285D02*
X121144473Y-137119142D01*
X121144473Y-137119142D02*
X121144473Y-137547714D01*
X121144473Y-137547714D02*
X121073045Y-137690571D01*
X121073045Y-137690571D02*
X121001616Y-137762000D01*
X121001616Y-137762000D02*
X120858759Y-137833428D01*
X120858759Y-137833428D02*
X120644473Y-137833428D01*
X122001616Y-137833428D02*
X121858759Y-137762000D01*
X121858759Y-137762000D02*
X121787330Y-137619142D01*
X121787330Y-137619142D02*
X121787330Y-136333428D01*
X122358759Y-136833428D02*
X122930187Y-136833428D01*
X122573044Y-136333428D02*
X122573044Y-137619142D01*
X122573044Y-137619142D02*
X122644473Y-137762000D01*
X122644473Y-137762000D02*
X122787330Y-137833428D01*
X122787330Y-137833428D02*
X122930187Y-137833428D01*
D12*
X192668796Y-124940828D02*
X191954510Y-124940828D01*
X191954510Y-124940828D02*
X191954510Y-123440828D01*
X193383082Y-124940828D02*
X193240225Y-124869400D01*
X193240225Y-124869400D02*
X193168796Y-124797971D01*
X193168796Y-124797971D02*
X193097368Y-124655114D01*
X193097368Y-124655114D02*
X193097368Y-124226542D01*
X193097368Y-124226542D02*
X193168796Y-124083685D01*
X193168796Y-124083685D02*
X193240225Y-124012257D01*
X193240225Y-124012257D02*
X193383082Y-123940828D01*
X193383082Y-123940828D02*
X193597368Y-123940828D01*
X193597368Y-123940828D02*
X193740225Y-124012257D01*
X193740225Y-124012257D02*
X193811654Y-124083685D01*
X193811654Y-124083685D02*
X193883082Y-124226542D01*
X193883082Y-124226542D02*
X193883082Y-124655114D01*
X193883082Y-124655114D02*
X193811654Y-124797971D01*
X193811654Y-124797971D02*
X193740225Y-124869400D01*
X193740225Y-124869400D02*
X193597368Y-124940828D01*
X193597368Y-124940828D02*
X193383082Y-124940828D01*
X194383082Y-123940828D02*
X194668797Y-124940828D01*
X194668797Y-124940828D02*
X194954511Y-124226542D01*
X194954511Y-124226542D02*
X195240225Y-124940828D01*
X195240225Y-124940828D02*
X195525939Y-123940828D01*
X191450225Y-126050828D02*
X191950225Y-127550828D01*
X191950225Y-127550828D02*
X192450225Y-126050828D01*
X193164510Y-127550828D02*
X193021653Y-127479400D01*
X193021653Y-127479400D02*
X192950224Y-127407971D01*
X192950224Y-127407971D02*
X192878796Y-127265114D01*
X192878796Y-127265114D02*
X192878796Y-126836542D01*
X192878796Y-126836542D02*
X192950224Y-126693685D01*
X192950224Y-126693685D02*
X193021653Y-126622257D01*
X193021653Y-126622257D02*
X193164510Y-126550828D01*
X193164510Y-126550828D02*
X193378796Y-126550828D01*
X193378796Y-126550828D02*
X193521653Y-126622257D01*
X193521653Y-126622257D02*
X193593082Y-126693685D01*
X193593082Y-126693685D02*
X193664510Y-126836542D01*
X193664510Y-126836542D02*
X193664510Y-127265114D01*
X193664510Y-127265114D02*
X193593082Y-127407971D01*
X193593082Y-127407971D02*
X193521653Y-127479400D01*
X193521653Y-127479400D02*
X193378796Y-127550828D01*
X193378796Y-127550828D02*
X193164510Y-127550828D01*
X194521653Y-127550828D02*
X194378796Y-127479400D01*
X194378796Y-127479400D02*
X194307367Y-127336542D01*
X194307367Y-127336542D02*
X194307367Y-126050828D01*
X194878796Y-126550828D02*
X195450224Y-126550828D01*
X195093081Y-126050828D02*
X195093081Y-127336542D01*
X195093081Y-127336542D02*
X195164510Y-127479400D01*
X195164510Y-127479400D02*
X195307367Y-127550828D01*
X195307367Y-127550828D02*
X195450224Y-127550828D01*
D13*
X137512054Y-139381695D02*
X137512054Y-138581695D01*
X137512054Y-138962647D02*
X137969197Y-138962647D01*
X137969197Y-139381695D02*
X137969197Y-138581695D01*
X138235863Y-138581695D02*
X138502530Y-139381695D01*
X138502530Y-139381695D02*
X138769196Y-138581695D01*
X139035863Y-139076933D02*
X139645387Y-139076933D01*
X140521577Y-138581695D02*
X140978720Y-138581695D01*
X140750148Y-139381695D02*
X140750148Y-138581695D01*
X141245387Y-139381695D02*
X141245387Y-138581695D01*
X141245387Y-138581695D02*
X141550149Y-138581695D01*
X141550149Y-138581695D02*
X141626339Y-138619790D01*
X141626339Y-138619790D02*
X141664434Y-138657885D01*
X141664434Y-138657885D02*
X141702530Y-138734076D01*
X141702530Y-138734076D02*
X141702530Y-138848361D01*
X141702530Y-138848361D02*
X141664434Y-138924552D01*
X141664434Y-138924552D02*
X141626339Y-138962647D01*
X141626339Y-138962647D02*
X141550149Y-139000742D01*
X141550149Y-139000742D02*
X141245387Y-139000742D01*
D14*
X168134405Y-119734819D02*
X168134405Y-118734819D01*
X168134405Y-118734819D02*
X168372500Y-118734819D01*
X168372500Y-118734819D02*
X168515357Y-118782438D01*
X168515357Y-118782438D02*
X168610595Y-118877676D01*
X168610595Y-118877676D02*
X168658214Y-118972914D01*
X168658214Y-118972914D02*
X168705833Y-119163390D01*
X168705833Y-119163390D02*
X168705833Y-119306247D01*
X168705833Y-119306247D02*
X168658214Y-119496723D01*
X168658214Y-119496723D02*
X168610595Y-119591961D01*
X168610595Y-119591961D02*
X168515357Y-119687200D01*
X168515357Y-119687200D02*
X168372500Y-119734819D01*
X168372500Y-119734819D02*
X168134405Y-119734819D01*
X169610595Y-118734819D02*
X169134405Y-118734819D01*
X169134405Y-118734819D02*
X169086786Y-119211009D01*
X169086786Y-119211009D02*
X169134405Y-119163390D01*
X169134405Y-119163390D02*
X169229643Y-119115771D01*
X169229643Y-119115771D02*
X169467738Y-119115771D01*
X169467738Y-119115771D02*
X169562976Y-119163390D01*
X169562976Y-119163390D02*
X169610595Y-119211009D01*
X169610595Y-119211009D02*
X169658214Y-119306247D01*
X169658214Y-119306247D02*
X169658214Y-119544342D01*
X169658214Y-119544342D02*
X169610595Y-119639580D01*
X169610595Y-119639580D02*
X169562976Y-119687200D01*
X169562976Y-119687200D02*
X169467738Y-119734819D01*
X169467738Y-119734819D02*
X169229643Y-119734819D01*
X169229643Y-119734819D02*
X169134405Y-119687200D01*
X169134405Y-119687200D02*
X169086786Y-119639580D01*
X181105714Y-127942295D02*
X180839047Y-127561342D01*
X180648571Y-127942295D02*
X180648571Y-127142295D01*
X180648571Y-127142295D02*
X180953333Y-127142295D01*
X180953333Y-127142295D02*
X181029523Y-127180390D01*
X181029523Y-127180390D02*
X181067618Y-127218485D01*
X181067618Y-127218485D02*
X181105714Y-127294676D01*
X181105714Y-127294676D02*
X181105714Y-127408961D01*
X181105714Y-127408961D02*
X181067618Y-127485152D01*
X181067618Y-127485152D02*
X181029523Y-127523247D01*
X181029523Y-127523247D02*
X180953333Y-127561342D01*
X180953333Y-127561342D02*
X180648571Y-127561342D01*
X181410475Y-127218485D02*
X181448571Y-127180390D01*
X181448571Y-127180390D02*
X181524761Y-127142295D01*
X181524761Y-127142295D02*
X181715237Y-127142295D01*
X181715237Y-127142295D02*
X181791428Y-127180390D01*
X181791428Y-127180390D02*
X181829523Y-127218485D01*
X181829523Y-127218485D02*
X181867618Y-127294676D01*
X181867618Y-127294676D02*
X181867618Y-127370866D01*
X181867618Y-127370866D02*
X181829523Y-127485152D01*
X181829523Y-127485152D02*
X181372380Y-127942295D01*
X181372380Y-127942295D02*
X181867618Y-127942295D01*
X182248571Y-127942295D02*
X182400952Y-127942295D01*
X182400952Y-127942295D02*
X182477142Y-127904200D01*
X182477142Y-127904200D02*
X182515238Y-127866104D01*
X182515238Y-127866104D02*
X182591428Y-127751819D01*
X182591428Y-127751819D02*
X182629523Y-127599438D01*
X182629523Y-127599438D02*
X182629523Y-127294676D01*
X182629523Y-127294676D02*
X182591428Y-127218485D01*
X182591428Y-127218485D02*
X182553333Y-127180390D01*
X182553333Y-127180390D02*
X182477142Y-127142295D01*
X182477142Y-127142295D02*
X182324761Y-127142295D01*
X182324761Y-127142295D02*
X182248571Y-127180390D01*
X182248571Y-127180390D02*
X182210476Y-127218485D01*
X182210476Y-127218485D02*
X182172380Y-127294676D01*
X182172380Y-127294676D02*
X182172380Y-127485152D01*
X182172380Y-127485152D02*
X182210476Y-127561342D01*
X182210476Y-127561342D02*
X182248571Y-127599438D01*
X182248571Y-127599438D02*
X182324761Y-127637533D01*
X182324761Y-127637533D02*
X182477142Y-127637533D01*
X182477142Y-127637533D02*
X182553333Y-127599438D01*
X182553333Y-127599438D02*
X182591428Y-127561342D01*
X182591428Y-127561342D02*
X182629523Y-127485152D01*
D15*
X120546667Y-148597404D02*
X120508571Y-148635500D01*
X120508571Y-148635500D02*
X120394286Y-148673595D01*
X120394286Y-148673595D02*
X120318095Y-148673595D01*
X120318095Y-148673595D02*
X120203809Y-148635500D01*
X120203809Y-148635500D02*
X120127619Y-148559309D01*
X120127619Y-148559309D02*
X120089524Y-148483119D01*
X120089524Y-148483119D02*
X120051428Y-148330738D01*
X120051428Y-148330738D02*
X120051428Y-148216452D01*
X120051428Y-148216452D02*
X120089524Y-148064071D01*
X120089524Y-148064071D02*
X120127619Y-147987880D01*
X120127619Y-147987880D02*
X120203809Y-147911690D01*
X120203809Y-147911690D02*
X120318095Y-147873595D01*
X120318095Y-147873595D02*
X120394286Y-147873595D01*
X120394286Y-147873595D02*
X120508571Y-147911690D01*
X120508571Y-147911690D02*
X120546667Y-147949785D01*
X120813333Y-147873595D02*
X121308571Y-147873595D01*
X121308571Y-147873595D02*
X121041905Y-148178357D01*
X121041905Y-148178357D02*
X121156190Y-148178357D01*
X121156190Y-148178357D02*
X121232381Y-148216452D01*
X121232381Y-148216452D02*
X121270476Y-148254547D01*
X121270476Y-148254547D02*
X121308571Y-148330738D01*
X121308571Y-148330738D02*
X121308571Y-148521214D01*
X121308571Y-148521214D02*
X121270476Y-148597404D01*
X121270476Y-148597404D02*
X121232381Y-148635500D01*
X121232381Y-148635500D02*
X121156190Y-148673595D01*
X121156190Y-148673595D02*
X120927619Y-148673595D01*
X120927619Y-148673595D02*
X120851428Y-148635500D01*
X120851428Y-148635500D02*
X120813333Y-148597404D01*
D14*
X173655985Y-125078690D02*
X173617890Y-125154880D01*
X173617890Y-125154880D02*
X173541700Y-125231071D01*
X173541700Y-125231071D02*
X173427414Y-125345357D01*
X173427414Y-125345357D02*
X173389319Y-125421547D01*
X173389319Y-125421547D02*
X173389319Y-125497738D01*
X173579795Y-125459642D02*
X173541700Y-125535833D01*
X173541700Y-125535833D02*
X173465509Y-125612023D01*
X173465509Y-125612023D02*
X173313128Y-125650119D01*
X173313128Y-125650119D02*
X173046461Y-125650119D01*
X173046461Y-125650119D02*
X172894080Y-125612023D01*
X172894080Y-125612023D02*
X172817890Y-125535833D01*
X172817890Y-125535833D02*
X172779795Y-125459642D01*
X172779795Y-125459642D02*
X172779795Y-125307261D01*
X172779795Y-125307261D02*
X172817890Y-125231071D01*
X172817890Y-125231071D02*
X172894080Y-125154880D01*
X172894080Y-125154880D02*
X173046461Y-125116785D01*
X173046461Y-125116785D02*
X173313128Y-125116785D01*
X173313128Y-125116785D02*
X173465509Y-125154880D01*
X173465509Y-125154880D02*
X173541700Y-125231071D01*
X173541700Y-125231071D02*
X173579795Y-125307261D01*
X173579795Y-125307261D02*
X173579795Y-125459642D01*
X172855985Y-124812024D02*
X172817890Y-124773928D01*
X172817890Y-124773928D02*
X172779795Y-124697738D01*
X172779795Y-124697738D02*
X172779795Y-124507262D01*
X172779795Y-124507262D02*
X172817890Y-124431071D01*
X172817890Y-124431071D02*
X172855985Y-124392976D01*
X172855985Y-124392976D02*
X172932176Y-124354881D01*
X172932176Y-124354881D02*
X173008366Y-124354881D01*
X173008366Y-124354881D02*
X173122652Y-124392976D01*
X173122652Y-124392976D02*
X173579795Y-124850119D01*
X173579795Y-124850119D02*
X173579795Y-124354881D01*
X181710476Y-143982295D02*
X182167619Y-143982295D01*
X181939047Y-144782295D02*
X181939047Y-143982295D01*
X182434286Y-144782295D02*
X182434286Y-143982295D01*
X182434286Y-143982295D02*
X182739048Y-143982295D01*
X182739048Y-143982295D02*
X182815238Y-144020390D01*
X182815238Y-144020390D02*
X182853333Y-144058485D01*
X182853333Y-144058485D02*
X182891429Y-144134676D01*
X182891429Y-144134676D02*
X182891429Y-144248961D01*
X182891429Y-144248961D02*
X182853333Y-144325152D01*
X182853333Y-144325152D02*
X182815238Y-144363247D01*
X182815238Y-144363247D02*
X182739048Y-144401342D01*
X182739048Y-144401342D02*
X182434286Y-144401342D01*
X183196190Y-144058485D02*
X183234286Y-144020390D01*
X183234286Y-144020390D02*
X183310476Y-143982295D01*
X183310476Y-143982295D02*
X183500952Y-143982295D01*
X183500952Y-143982295D02*
X183577143Y-144020390D01*
X183577143Y-144020390D02*
X183615238Y-144058485D01*
X183615238Y-144058485D02*
X183653333Y-144134676D01*
X183653333Y-144134676D02*
X183653333Y-144210866D01*
X183653333Y-144210866D02*
X183615238Y-144325152D01*
X183615238Y-144325152D02*
X183158095Y-144782295D01*
X183158095Y-144782295D02*
X183653333Y-144782295D01*
D15*
X123041667Y-125287404D02*
X123003571Y-125325500D01*
X123003571Y-125325500D02*
X122889286Y-125363595D01*
X122889286Y-125363595D02*
X122813095Y-125363595D01*
X122813095Y-125363595D02*
X122698809Y-125325500D01*
X122698809Y-125325500D02*
X122622619Y-125249309D01*
X122622619Y-125249309D02*
X122584524Y-125173119D01*
X122584524Y-125173119D02*
X122546428Y-125020738D01*
X122546428Y-125020738D02*
X122546428Y-124906452D01*
X122546428Y-124906452D02*
X122584524Y-124754071D01*
X122584524Y-124754071D02*
X122622619Y-124677880D01*
X122622619Y-124677880D02*
X122698809Y-124601690D01*
X122698809Y-124601690D02*
X122813095Y-124563595D01*
X122813095Y-124563595D02*
X122889286Y-124563595D01*
X122889286Y-124563595D02*
X123003571Y-124601690D01*
X123003571Y-124601690D02*
X123041667Y-124639785D01*
X123765476Y-124563595D02*
X123384524Y-124563595D01*
X123384524Y-124563595D02*
X123346428Y-124944547D01*
X123346428Y-124944547D02*
X123384524Y-124906452D01*
X123384524Y-124906452D02*
X123460714Y-124868357D01*
X123460714Y-124868357D02*
X123651190Y-124868357D01*
X123651190Y-124868357D02*
X123727381Y-124906452D01*
X123727381Y-124906452D02*
X123765476Y-124944547D01*
X123765476Y-124944547D02*
X123803571Y-125020738D01*
X123803571Y-125020738D02*
X123803571Y-125211214D01*
X123803571Y-125211214D02*
X123765476Y-125287404D01*
X123765476Y-125287404D02*
X123727381Y-125325500D01*
X123727381Y-125325500D02*
X123651190Y-125363595D01*
X123651190Y-125363595D02*
X123460714Y-125363595D01*
X123460714Y-125363595D02*
X123384524Y-125325500D01*
X123384524Y-125325500D02*
X123346428Y-125287404D01*
D14*
X138512295Y-145194285D02*
X138131342Y-145460952D01*
X138512295Y-145651428D02*
X137712295Y-145651428D01*
X137712295Y-145651428D02*
X137712295Y-145346666D01*
X137712295Y-145346666D02*
X137750390Y-145270476D01*
X137750390Y-145270476D02*
X137788485Y-145232381D01*
X137788485Y-145232381D02*
X137864676Y-145194285D01*
X137864676Y-145194285D02*
X137978961Y-145194285D01*
X137978961Y-145194285D02*
X138055152Y-145232381D01*
X138055152Y-145232381D02*
X138093247Y-145270476D01*
X138093247Y-145270476D02*
X138131342Y-145346666D01*
X138131342Y-145346666D02*
X138131342Y-145651428D01*
X137788485Y-144889524D02*
X137750390Y-144851428D01*
X137750390Y-144851428D02*
X137712295Y-144775238D01*
X137712295Y-144775238D02*
X137712295Y-144584762D01*
X137712295Y-144584762D02*
X137750390Y-144508571D01*
X137750390Y-144508571D02*
X137788485Y-144470476D01*
X137788485Y-144470476D02*
X137864676Y-144432381D01*
X137864676Y-144432381D02*
X137940866Y-144432381D01*
X137940866Y-144432381D02*
X138055152Y-144470476D01*
X138055152Y-144470476D02*
X138512295Y-144927619D01*
X138512295Y-144927619D02*
X138512295Y-144432381D01*
X137712295Y-143937142D02*
X137712295Y-143860952D01*
X137712295Y-143860952D02*
X137750390Y-143784761D01*
X137750390Y-143784761D02*
X137788485Y-143746666D01*
X137788485Y-143746666D02*
X137864676Y-143708571D01*
X137864676Y-143708571D02*
X138017057Y-143670476D01*
X138017057Y-143670476D02*
X138207533Y-143670476D01*
X138207533Y-143670476D02*
X138359914Y-143708571D01*
X138359914Y-143708571D02*
X138436104Y-143746666D01*
X138436104Y-143746666D02*
X138474200Y-143784761D01*
X138474200Y-143784761D02*
X138512295Y-143860952D01*
X138512295Y-143860952D02*
X138512295Y-143937142D01*
X138512295Y-143937142D02*
X138474200Y-144013333D01*
X138474200Y-144013333D02*
X138436104Y-144051428D01*
X138436104Y-144051428D02*
X138359914Y-144089523D01*
X138359914Y-144089523D02*
X138207533Y-144127619D01*
X138207533Y-144127619D02*
X138017057Y-144127619D01*
X138017057Y-144127619D02*
X137864676Y-144089523D01*
X137864676Y-144089523D02*
X137788485Y-144051428D01*
X137788485Y-144051428D02*
X137750390Y-144013333D01*
X137750390Y-144013333D02*
X137712295Y-143937142D01*
D15*
X123059167Y-145489904D02*
X123021071Y-145528000D01*
X123021071Y-145528000D02*
X122906786Y-145566095D01*
X122906786Y-145566095D02*
X122830595Y-145566095D01*
X122830595Y-145566095D02*
X122716309Y-145528000D01*
X122716309Y-145528000D02*
X122640119Y-145451809D01*
X122640119Y-145451809D02*
X122602024Y-145375619D01*
X122602024Y-145375619D02*
X122563928Y-145223238D01*
X122563928Y-145223238D02*
X122563928Y-145108952D01*
X122563928Y-145108952D02*
X122602024Y-144956571D01*
X122602024Y-144956571D02*
X122640119Y-144880380D01*
X122640119Y-144880380D02*
X122716309Y-144804190D01*
X122716309Y-144804190D02*
X122830595Y-144766095D01*
X122830595Y-144766095D02*
X122906786Y-144766095D01*
X122906786Y-144766095D02*
X123021071Y-144804190D01*
X123021071Y-144804190D02*
X123059167Y-144842285D01*
X123325833Y-144766095D02*
X123859167Y-144766095D01*
X123859167Y-144766095D02*
X123516309Y-145566095D01*
D14*
X114476009Y-145338333D02*
X114476009Y-145671666D01*
X114999819Y-145671666D02*
X113999819Y-145671666D01*
X113999819Y-145671666D02*
X113999819Y-145195476D01*
X114333152Y-144385952D02*
X114999819Y-144385952D01*
X113952200Y-144624047D02*
X114666485Y-144862142D01*
X114666485Y-144862142D02*
X114666485Y-144243095D01*
X189548485Y-129836190D02*
X189510390Y-129912380D01*
X189510390Y-129912380D02*
X189434200Y-129988571D01*
X189434200Y-129988571D02*
X189319914Y-130102857D01*
X189319914Y-130102857D02*
X189281819Y-130179047D01*
X189281819Y-130179047D02*
X189281819Y-130255238D01*
X189472295Y-130217142D02*
X189434200Y-130293333D01*
X189434200Y-130293333D02*
X189358009Y-130369523D01*
X189358009Y-130369523D02*
X189205628Y-130407619D01*
X189205628Y-130407619D02*
X188938961Y-130407619D01*
X188938961Y-130407619D02*
X188786580Y-130369523D01*
X188786580Y-130369523D02*
X188710390Y-130293333D01*
X188710390Y-130293333D02*
X188672295Y-130217142D01*
X188672295Y-130217142D02*
X188672295Y-130064761D01*
X188672295Y-130064761D02*
X188710390Y-129988571D01*
X188710390Y-129988571D02*
X188786580Y-129912380D01*
X188786580Y-129912380D02*
X188938961Y-129874285D01*
X188938961Y-129874285D02*
X189205628Y-129874285D01*
X189205628Y-129874285D02*
X189358009Y-129912380D01*
X189358009Y-129912380D02*
X189434200Y-129988571D01*
X189434200Y-129988571D02*
X189472295Y-130064761D01*
X189472295Y-130064761D02*
X189472295Y-130217142D01*
X188672295Y-129607619D02*
X188672295Y-129112381D01*
X188672295Y-129112381D02*
X188977057Y-129379047D01*
X188977057Y-129379047D02*
X188977057Y-129264762D01*
X188977057Y-129264762D02*
X189015152Y-129188571D01*
X189015152Y-129188571D02*
X189053247Y-129150476D01*
X189053247Y-129150476D02*
X189129438Y-129112381D01*
X189129438Y-129112381D02*
X189319914Y-129112381D01*
X189319914Y-129112381D02*
X189396104Y-129150476D01*
X189396104Y-129150476D02*
X189434200Y-129188571D01*
X189434200Y-129188571D02*
X189472295Y-129264762D01*
X189472295Y-129264762D02*
X189472295Y-129493333D01*
X189472295Y-129493333D02*
X189434200Y-129569524D01*
X189434200Y-129569524D02*
X189396104Y-129607619D01*
X136865714Y-123642295D02*
X136599047Y-123261342D01*
X136408571Y-123642295D02*
X136408571Y-122842295D01*
X136408571Y-122842295D02*
X136713333Y-122842295D01*
X136713333Y-122842295D02*
X136789523Y-122880390D01*
X136789523Y-122880390D02*
X136827618Y-122918485D01*
X136827618Y-122918485D02*
X136865714Y-122994676D01*
X136865714Y-122994676D02*
X136865714Y-123108961D01*
X136865714Y-123108961D02*
X136827618Y-123185152D01*
X136827618Y-123185152D02*
X136789523Y-123223247D01*
X136789523Y-123223247D02*
X136713333Y-123261342D01*
X136713333Y-123261342D02*
X136408571Y-123261342D01*
X137627618Y-123642295D02*
X137170475Y-123642295D01*
X137399047Y-123642295D02*
X137399047Y-122842295D01*
X137399047Y-122842295D02*
X137322856Y-122956580D01*
X137322856Y-122956580D02*
X137246666Y-123032771D01*
X137246666Y-123032771D02*
X137170475Y-123070866D01*
X137894285Y-122842295D02*
X138427619Y-122842295D01*
X138427619Y-122842295D02*
X138084761Y-123642295D01*
D15*
X118878214Y-140366095D02*
X118611547Y-139985142D01*
X118421071Y-140366095D02*
X118421071Y-139566095D01*
X118421071Y-139566095D02*
X118725833Y-139566095D01*
X118725833Y-139566095D02*
X118802023Y-139604190D01*
X118802023Y-139604190D02*
X118840118Y-139642285D01*
X118840118Y-139642285D02*
X118878214Y-139718476D01*
X118878214Y-139718476D02*
X118878214Y-139832761D01*
X118878214Y-139832761D02*
X118840118Y-139908952D01*
X118840118Y-139908952D02*
X118802023Y-139947047D01*
X118802023Y-139947047D02*
X118725833Y-139985142D01*
X118725833Y-139985142D02*
X118421071Y-139985142D01*
X119640118Y-140366095D02*
X119182975Y-140366095D01*
X119411547Y-140366095D02*
X119411547Y-139566095D01*
X119411547Y-139566095D02*
X119335356Y-139680380D01*
X119335356Y-139680380D02*
X119259166Y-139756571D01*
X119259166Y-139756571D02*
X119182975Y-139794666D01*
X120402023Y-140366095D02*
X119944880Y-140366095D01*
X120173452Y-140366095D02*
X120173452Y-139566095D01*
X120173452Y-139566095D02*
X120097261Y-139680380D01*
X120097261Y-139680380D02*
X120021071Y-139756571D01*
X120021071Y-139756571D02*
X119944880Y-139794666D01*
D14*
X114546009Y-120518333D02*
X114546009Y-120851666D01*
X115069819Y-120851666D02*
X114069819Y-120851666D01*
X114069819Y-120851666D02*
X114069819Y-120375476D01*
X114069819Y-120089761D02*
X114069819Y-119470714D01*
X114069819Y-119470714D02*
X114450771Y-119804047D01*
X114450771Y-119804047D02*
X114450771Y-119661190D01*
X114450771Y-119661190D02*
X114498390Y-119565952D01*
X114498390Y-119565952D02*
X114546009Y-119518333D01*
X114546009Y-119518333D02*
X114641247Y-119470714D01*
X114641247Y-119470714D02*
X114879342Y-119470714D01*
X114879342Y-119470714D02*
X114974580Y-119518333D01*
X114974580Y-119518333D02*
X115022200Y-119565952D01*
X115022200Y-119565952D02*
X115069819Y-119661190D01*
X115069819Y-119661190D02*
X115069819Y-119946904D01*
X115069819Y-119946904D02*
X115022200Y-120042142D01*
X115022200Y-120042142D02*
X114974580Y-120089761D01*
X178988485Y-125826190D02*
X178950390Y-125902380D01*
X178950390Y-125902380D02*
X178874200Y-125978571D01*
X178874200Y-125978571D02*
X178759914Y-126092857D01*
X178759914Y-126092857D02*
X178721819Y-126169047D01*
X178721819Y-126169047D02*
X178721819Y-126245238D01*
X178912295Y-126207142D02*
X178874200Y-126283333D01*
X178874200Y-126283333D02*
X178798009Y-126359523D01*
X178798009Y-126359523D02*
X178645628Y-126397619D01*
X178645628Y-126397619D02*
X178378961Y-126397619D01*
X178378961Y-126397619D02*
X178226580Y-126359523D01*
X178226580Y-126359523D02*
X178150390Y-126283333D01*
X178150390Y-126283333D02*
X178112295Y-126207142D01*
X178112295Y-126207142D02*
X178112295Y-126054761D01*
X178112295Y-126054761D02*
X178150390Y-125978571D01*
X178150390Y-125978571D02*
X178226580Y-125902380D01*
X178226580Y-125902380D02*
X178378961Y-125864285D01*
X178378961Y-125864285D02*
X178645628Y-125864285D01*
X178645628Y-125864285D02*
X178798009Y-125902380D01*
X178798009Y-125902380D02*
X178874200Y-125978571D01*
X178874200Y-125978571D02*
X178912295Y-126054761D01*
X178912295Y-126054761D02*
X178912295Y-126207142D01*
X178378961Y-125178571D02*
X178912295Y-125178571D01*
X178074200Y-125369047D02*
X178645628Y-125559524D01*
X178645628Y-125559524D02*
X178645628Y-125064285D01*
X137016071Y-133399580D02*
X136968452Y-133447200D01*
X136968452Y-133447200D02*
X136825595Y-133494819D01*
X136825595Y-133494819D02*
X136730357Y-133494819D01*
X136730357Y-133494819D02*
X136587500Y-133447200D01*
X136587500Y-133447200D02*
X136492262Y-133351961D01*
X136492262Y-133351961D02*
X136444643Y-133256723D01*
X136444643Y-133256723D02*
X136397024Y-133066247D01*
X136397024Y-133066247D02*
X136397024Y-132923390D01*
X136397024Y-132923390D02*
X136444643Y-132732914D01*
X136444643Y-132732914D02*
X136492262Y-132637676D01*
X136492262Y-132637676D02*
X136587500Y-132542438D01*
X136587500Y-132542438D02*
X136730357Y-132494819D01*
X136730357Y-132494819D02*
X136825595Y-132494819D01*
X136825595Y-132494819D02*
X136968452Y-132542438D01*
X136968452Y-132542438D02*
X137016071Y-132590057D01*
X137920833Y-133494819D02*
X137444643Y-133494819D01*
X137444643Y-133494819D02*
X137444643Y-132494819D01*
X138206548Y-132590057D02*
X138254167Y-132542438D01*
X138254167Y-132542438D02*
X138349405Y-132494819D01*
X138349405Y-132494819D02*
X138587500Y-132494819D01*
X138587500Y-132494819D02*
X138682738Y-132542438D01*
X138682738Y-132542438D02*
X138730357Y-132590057D01*
X138730357Y-132590057D02*
X138777976Y-132685295D01*
X138777976Y-132685295D02*
X138777976Y-132780533D01*
X138777976Y-132780533D02*
X138730357Y-132923390D01*
X138730357Y-132923390D02*
X138158929Y-133494819D01*
X138158929Y-133494819D02*
X138777976Y-133494819D01*
X136773333Y-120329580D02*
X136725714Y-120377200D01*
X136725714Y-120377200D02*
X136582857Y-120424819D01*
X136582857Y-120424819D02*
X136487619Y-120424819D01*
X136487619Y-120424819D02*
X136344762Y-120377200D01*
X136344762Y-120377200D02*
X136249524Y-120281961D01*
X136249524Y-120281961D02*
X136201905Y-120186723D01*
X136201905Y-120186723D02*
X136154286Y-119996247D01*
X136154286Y-119996247D02*
X136154286Y-119853390D01*
X136154286Y-119853390D02*
X136201905Y-119662914D01*
X136201905Y-119662914D02*
X136249524Y-119567676D01*
X136249524Y-119567676D02*
X136344762Y-119472438D01*
X136344762Y-119472438D02*
X136487619Y-119424819D01*
X136487619Y-119424819D02*
X136582857Y-119424819D01*
X136582857Y-119424819D02*
X136725714Y-119472438D01*
X136725714Y-119472438D02*
X136773333Y-119520057D01*
X137154286Y-119520057D02*
X137201905Y-119472438D01*
X137201905Y-119472438D02*
X137297143Y-119424819D01*
X137297143Y-119424819D02*
X137535238Y-119424819D01*
X137535238Y-119424819D02*
X137630476Y-119472438D01*
X137630476Y-119472438D02*
X137678095Y-119520057D01*
X137678095Y-119520057D02*
X137725714Y-119615295D01*
X137725714Y-119615295D02*
X137725714Y-119710533D01*
X137725714Y-119710533D02*
X137678095Y-119853390D01*
X137678095Y-119853390D02*
X137106667Y-120424819D01*
X137106667Y-120424819D02*
X137725714Y-120424819D01*
D10*
X167304895Y-118944285D02*
X166923942Y-119210952D01*
X167304895Y-119401428D02*
X166504895Y-119401428D01*
X166504895Y-119401428D02*
X166504895Y-119096666D01*
X166504895Y-119096666D02*
X166542990Y-119020476D01*
X166542990Y-119020476D02*
X166581085Y-118982381D01*
X166581085Y-118982381D02*
X166657276Y-118944285D01*
X166657276Y-118944285D02*
X166771561Y-118944285D01*
X166771561Y-118944285D02*
X166847752Y-118982381D01*
X166847752Y-118982381D02*
X166885847Y-119020476D01*
X166885847Y-119020476D02*
X166923942Y-119096666D01*
X166923942Y-119096666D02*
X166923942Y-119401428D01*
X167304895Y-118182381D02*
X167304895Y-118639524D01*
X167304895Y-118410952D02*
X166504895Y-118410952D01*
X166504895Y-118410952D02*
X166619180Y-118487143D01*
X166619180Y-118487143D02*
X166695371Y-118563333D01*
X166695371Y-118563333D02*
X166733466Y-118639524D01*
X166771561Y-117496666D02*
X167304895Y-117496666D01*
X166466800Y-117687142D02*
X167038228Y-117877619D01*
X167038228Y-117877619D02*
X167038228Y-117382380D01*
D14*
X181464819Y-122738094D02*
X180464819Y-122738094D01*
X180464819Y-122738094D02*
X180464819Y-122499999D01*
X180464819Y-122499999D02*
X180512438Y-122357142D01*
X180512438Y-122357142D02*
X180607676Y-122261904D01*
X180607676Y-122261904D02*
X180702914Y-122214285D01*
X180702914Y-122214285D02*
X180893390Y-122166666D01*
X180893390Y-122166666D02*
X181036247Y-122166666D01*
X181036247Y-122166666D02*
X181226723Y-122214285D01*
X181226723Y-122214285D02*
X181321961Y-122261904D01*
X181321961Y-122261904D02*
X181417200Y-122357142D01*
X181417200Y-122357142D02*
X181464819Y-122499999D01*
X181464819Y-122499999D02*
X181464819Y-122738094D01*
X180560057Y-121785713D02*
X180512438Y-121738094D01*
X180512438Y-121738094D02*
X180464819Y-121642856D01*
X180464819Y-121642856D02*
X180464819Y-121404761D01*
X180464819Y-121404761D02*
X180512438Y-121309523D01*
X180512438Y-121309523D02*
X180560057Y-121261904D01*
X180560057Y-121261904D02*
X180655295Y-121214285D01*
X180655295Y-121214285D02*
X180750533Y-121214285D01*
X180750533Y-121214285D02*
X180893390Y-121261904D01*
X180893390Y-121261904D02*
X181464819Y-121833332D01*
X181464819Y-121833332D02*
X181464819Y-121214285D01*
X125584167Y-132022295D02*
X125317500Y-131641342D01*
X125127024Y-132022295D02*
X125127024Y-131222295D01*
X125127024Y-131222295D02*
X125431786Y-131222295D01*
X125431786Y-131222295D02*
X125507976Y-131260390D01*
X125507976Y-131260390D02*
X125546071Y-131298485D01*
X125546071Y-131298485D02*
X125584167Y-131374676D01*
X125584167Y-131374676D02*
X125584167Y-131488961D01*
X125584167Y-131488961D02*
X125546071Y-131565152D01*
X125546071Y-131565152D02*
X125507976Y-131603247D01*
X125507976Y-131603247D02*
X125431786Y-131641342D01*
X125431786Y-131641342D02*
X125127024Y-131641342D01*
X125850833Y-131222295D02*
X126384167Y-131222295D01*
X126384167Y-131222295D02*
X126041309Y-132022295D01*
X154045714Y-128672295D02*
X153779047Y-128291342D01*
X153588571Y-128672295D02*
X153588571Y-127872295D01*
X153588571Y-127872295D02*
X153893333Y-127872295D01*
X153893333Y-127872295D02*
X153969523Y-127910390D01*
X153969523Y-127910390D02*
X154007618Y-127948485D01*
X154007618Y-127948485D02*
X154045714Y-128024676D01*
X154045714Y-128024676D02*
X154045714Y-128138961D01*
X154045714Y-128138961D02*
X154007618Y-128215152D01*
X154007618Y-128215152D02*
X153969523Y-128253247D01*
X153969523Y-128253247D02*
X153893333Y-128291342D01*
X153893333Y-128291342D02*
X153588571Y-128291342D01*
X154350475Y-127948485D02*
X154388571Y-127910390D01*
X154388571Y-127910390D02*
X154464761Y-127872295D01*
X154464761Y-127872295D02*
X154655237Y-127872295D01*
X154655237Y-127872295D02*
X154731428Y-127910390D01*
X154731428Y-127910390D02*
X154769523Y-127948485D01*
X154769523Y-127948485D02*
X154807618Y-128024676D01*
X154807618Y-128024676D02*
X154807618Y-128100866D01*
X154807618Y-128100866D02*
X154769523Y-128215152D01*
X154769523Y-128215152D02*
X154312380Y-128672295D01*
X154312380Y-128672295D02*
X154807618Y-128672295D01*
X155493333Y-128138961D02*
X155493333Y-128672295D01*
X155302857Y-127834200D02*
X155112380Y-128405628D01*
X155112380Y-128405628D02*
X155607619Y-128405628D01*
X117191666Y-131366009D02*
X116858333Y-131366009D01*
X116858333Y-131889819D02*
X116858333Y-130889819D01*
X116858333Y-130889819D02*
X117334523Y-130889819D01*
X117667857Y-130985057D02*
X117715476Y-130937438D01*
X117715476Y-130937438D02*
X117810714Y-130889819D01*
X117810714Y-130889819D02*
X118048809Y-130889819D01*
X118048809Y-130889819D02*
X118144047Y-130937438D01*
X118144047Y-130937438D02*
X118191666Y-130985057D01*
X118191666Y-130985057D02*
X118239285Y-131080295D01*
X118239285Y-131080295D02*
X118239285Y-131175533D01*
X118239285Y-131175533D02*
X118191666Y-131318390D01*
X118191666Y-131318390D02*
X117620238Y-131889819D01*
X117620238Y-131889819D02*
X118239285Y-131889819D01*
X128365476Y-124712295D02*
X128365476Y-125359914D01*
X128365476Y-125359914D02*
X128403571Y-125436104D01*
X128403571Y-125436104D02*
X128441666Y-125474200D01*
X128441666Y-125474200D02*
X128517857Y-125512295D01*
X128517857Y-125512295D02*
X128670238Y-125512295D01*
X128670238Y-125512295D02*
X128746428Y-125474200D01*
X128746428Y-125474200D02*
X128784523Y-125436104D01*
X128784523Y-125436104D02*
X128822619Y-125359914D01*
X128822619Y-125359914D02*
X128822619Y-124712295D01*
X129165475Y-124788485D02*
X129203571Y-124750390D01*
X129203571Y-124750390D02*
X129279761Y-124712295D01*
X129279761Y-124712295D02*
X129470237Y-124712295D01*
X129470237Y-124712295D02*
X129546428Y-124750390D01*
X129546428Y-124750390D02*
X129584523Y-124788485D01*
X129584523Y-124788485D02*
X129622618Y-124864676D01*
X129622618Y-124864676D02*
X129622618Y-124940866D01*
X129622618Y-124940866D02*
X129584523Y-125055152D01*
X129584523Y-125055152D02*
X129127380Y-125512295D01*
X129127380Y-125512295D02*
X129622618Y-125512295D01*
D15*
X121086905Y-120363595D02*
X120820238Y-119982642D01*
X120629762Y-120363595D02*
X120629762Y-119563595D01*
X120629762Y-119563595D02*
X120934524Y-119563595D01*
X120934524Y-119563595D02*
X121010714Y-119601690D01*
X121010714Y-119601690D02*
X121048809Y-119639785D01*
X121048809Y-119639785D02*
X121086905Y-119715976D01*
X121086905Y-119715976D02*
X121086905Y-119830261D01*
X121086905Y-119830261D02*
X121048809Y-119906452D01*
X121048809Y-119906452D02*
X121010714Y-119944547D01*
X121010714Y-119944547D02*
X120934524Y-119982642D01*
X120934524Y-119982642D02*
X120629762Y-119982642D01*
X121315476Y-119563595D02*
X121772619Y-119563595D01*
X121544047Y-120363595D02*
X121544047Y-119563595D01*
X122001190Y-119639785D02*
X122039286Y-119601690D01*
X122039286Y-119601690D02*
X122115476Y-119563595D01*
X122115476Y-119563595D02*
X122305952Y-119563595D01*
X122305952Y-119563595D02*
X122382143Y-119601690D01*
X122382143Y-119601690D02*
X122420238Y-119639785D01*
X122420238Y-119639785D02*
X122458333Y-119715976D01*
X122458333Y-119715976D02*
X122458333Y-119792166D01*
X122458333Y-119792166D02*
X122420238Y-119906452D01*
X122420238Y-119906452D02*
X121963095Y-120363595D01*
X121963095Y-120363595D02*
X122458333Y-120363595D01*
D14*
X174834819Y-123152857D02*
X174358628Y-123486190D01*
X174834819Y-123724285D02*
X173834819Y-123724285D01*
X173834819Y-123724285D02*
X173834819Y-123343333D01*
X173834819Y-123343333D02*
X173882438Y-123248095D01*
X173882438Y-123248095D02*
X173930057Y-123200476D01*
X173930057Y-123200476D02*
X174025295Y-123152857D01*
X174025295Y-123152857D02*
X174168152Y-123152857D01*
X174168152Y-123152857D02*
X174263390Y-123200476D01*
X174263390Y-123200476D02*
X174311009Y-123248095D01*
X174311009Y-123248095D02*
X174358628Y-123343333D01*
X174358628Y-123343333D02*
X174358628Y-123724285D01*
X173930057Y-122771904D02*
X173882438Y-122724285D01*
X173882438Y-122724285D02*
X173834819Y-122629047D01*
X173834819Y-122629047D02*
X173834819Y-122390952D01*
X173834819Y-122390952D02*
X173882438Y-122295714D01*
X173882438Y-122295714D02*
X173930057Y-122248095D01*
X173930057Y-122248095D02*
X174025295Y-122200476D01*
X174025295Y-122200476D02*
X174120533Y-122200476D01*
X174120533Y-122200476D02*
X174263390Y-122248095D01*
X174263390Y-122248095D02*
X174834819Y-122819523D01*
X174834819Y-122819523D02*
X174834819Y-122200476D01*
X173834819Y-121867142D02*
X173834819Y-121200476D01*
X173834819Y-121200476D02*
X174834819Y-121629047D01*
X130809167Y-132022295D02*
X130542500Y-131641342D01*
X130352024Y-132022295D02*
X130352024Y-131222295D01*
X130352024Y-131222295D02*
X130656786Y-131222295D01*
X130656786Y-131222295D02*
X130732976Y-131260390D01*
X130732976Y-131260390D02*
X130771071Y-131298485D01*
X130771071Y-131298485D02*
X130809167Y-131374676D01*
X130809167Y-131374676D02*
X130809167Y-131488961D01*
X130809167Y-131488961D02*
X130771071Y-131565152D01*
X130771071Y-131565152D02*
X130732976Y-131603247D01*
X130732976Y-131603247D02*
X130656786Y-131641342D01*
X130656786Y-131641342D02*
X130352024Y-131641342D01*
X131266309Y-131565152D02*
X131190119Y-131527057D01*
X131190119Y-131527057D02*
X131152024Y-131488961D01*
X131152024Y-131488961D02*
X131113928Y-131412771D01*
X131113928Y-131412771D02*
X131113928Y-131374676D01*
X131113928Y-131374676D02*
X131152024Y-131298485D01*
X131152024Y-131298485D02*
X131190119Y-131260390D01*
X131190119Y-131260390D02*
X131266309Y-131222295D01*
X131266309Y-131222295D02*
X131418690Y-131222295D01*
X131418690Y-131222295D02*
X131494881Y-131260390D01*
X131494881Y-131260390D02*
X131532976Y-131298485D01*
X131532976Y-131298485D02*
X131571071Y-131374676D01*
X131571071Y-131374676D02*
X131571071Y-131412771D01*
X131571071Y-131412771D02*
X131532976Y-131488961D01*
X131532976Y-131488961D02*
X131494881Y-131527057D01*
X131494881Y-131527057D02*
X131418690Y-131565152D01*
X131418690Y-131565152D02*
X131266309Y-131565152D01*
X131266309Y-131565152D02*
X131190119Y-131603247D01*
X131190119Y-131603247D02*
X131152024Y-131641342D01*
X131152024Y-131641342D02*
X131113928Y-131717533D01*
X131113928Y-131717533D02*
X131113928Y-131869914D01*
X131113928Y-131869914D02*
X131152024Y-131946104D01*
X131152024Y-131946104D02*
X131190119Y-131984200D01*
X131190119Y-131984200D02*
X131266309Y-132022295D01*
X131266309Y-132022295D02*
X131418690Y-132022295D01*
X131418690Y-132022295D02*
X131494881Y-131984200D01*
X131494881Y-131984200D02*
X131532976Y-131946104D01*
X131532976Y-131946104D02*
X131571071Y-131869914D01*
X131571071Y-131869914D02*
X131571071Y-131717533D01*
X131571071Y-131717533D02*
X131532976Y-131641342D01*
X131532976Y-131641342D02*
X131494881Y-131603247D01*
X131494881Y-131603247D02*
X131418690Y-131565152D01*
X124619167Y-111372295D02*
X124352500Y-110991342D01*
X124162024Y-111372295D02*
X124162024Y-110572295D01*
X124162024Y-110572295D02*
X124466786Y-110572295D01*
X124466786Y-110572295D02*
X124542976Y-110610390D01*
X124542976Y-110610390D02*
X124581071Y-110648485D01*
X124581071Y-110648485D02*
X124619167Y-110724676D01*
X124619167Y-110724676D02*
X124619167Y-110838961D01*
X124619167Y-110838961D02*
X124581071Y-110915152D01*
X124581071Y-110915152D02*
X124542976Y-110953247D01*
X124542976Y-110953247D02*
X124466786Y-110991342D01*
X124466786Y-110991342D02*
X124162024Y-110991342D01*
X125381071Y-111372295D02*
X124923928Y-111372295D01*
X125152500Y-111372295D02*
X125152500Y-110572295D01*
X125152500Y-110572295D02*
X125076309Y-110686580D01*
X125076309Y-110686580D02*
X125000119Y-110762771D01*
X125000119Y-110762771D02*
X124923928Y-110800866D01*
X140591905Y-120064819D02*
X140591905Y-119064819D01*
X140591905Y-119064819D02*
X140830000Y-119064819D01*
X140830000Y-119064819D02*
X140972857Y-119112438D01*
X140972857Y-119112438D02*
X141068095Y-119207676D01*
X141068095Y-119207676D02*
X141115714Y-119302914D01*
X141115714Y-119302914D02*
X141163333Y-119493390D01*
X141163333Y-119493390D02*
X141163333Y-119636247D01*
X141163333Y-119636247D02*
X141115714Y-119826723D01*
X141115714Y-119826723D02*
X141068095Y-119921961D01*
X141068095Y-119921961D02*
X140972857Y-120017200D01*
X140972857Y-120017200D02*
X140830000Y-120064819D01*
X140830000Y-120064819D02*
X140591905Y-120064819D01*
X141496667Y-119064819D02*
X142115714Y-119064819D01*
X142115714Y-119064819D02*
X141782381Y-119445771D01*
X141782381Y-119445771D02*
X141925238Y-119445771D01*
X141925238Y-119445771D02*
X142020476Y-119493390D01*
X142020476Y-119493390D02*
X142068095Y-119541009D01*
X142068095Y-119541009D02*
X142115714Y-119636247D01*
X142115714Y-119636247D02*
X142115714Y-119874342D01*
X142115714Y-119874342D02*
X142068095Y-119969580D01*
X142068095Y-119969580D02*
X142020476Y-120017200D01*
X142020476Y-120017200D02*
X141925238Y-120064819D01*
X141925238Y-120064819D02*
X141639524Y-120064819D01*
X141639524Y-120064819D02*
X141544286Y-120017200D01*
X141544286Y-120017200D02*
X141496667Y-119969580D01*
X138745714Y-120882295D02*
X138479047Y-120501342D01*
X138288571Y-120882295D02*
X138288571Y-120082295D01*
X138288571Y-120082295D02*
X138593333Y-120082295D01*
X138593333Y-120082295D02*
X138669523Y-120120390D01*
X138669523Y-120120390D02*
X138707618Y-120158485D01*
X138707618Y-120158485D02*
X138745714Y-120234676D01*
X138745714Y-120234676D02*
X138745714Y-120348961D01*
X138745714Y-120348961D02*
X138707618Y-120425152D01*
X138707618Y-120425152D02*
X138669523Y-120463247D01*
X138669523Y-120463247D02*
X138593333Y-120501342D01*
X138593333Y-120501342D02*
X138288571Y-120501342D01*
X139507618Y-120882295D02*
X139050475Y-120882295D01*
X139279047Y-120882295D02*
X139279047Y-120082295D01*
X139279047Y-120082295D02*
X139202856Y-120196580D01*
X139202856Y-120196580D02*
X139126666Y-120272771D01*
X139126666Y-120272771D02*
X139050475Y-120310866D01*
X139812380Y-120158485D02*
X139850476Y-120120390D01*
X139850476Y-120120390D02*
X139926666Y-120082295D01*
X139926666Y-120082295D02*
X140117142Y-120082295D01*
X140117142Y-120082295D02*
X140193333Y-120120390D01*
X140193333Y-120120390D02*
X140231428Y-120158485D01*
X140231428Y-120158485D02*
X140269523Y-120234676D01*
X140269523Y-120234676D02*
X140269523Y-120310866D01*
X140269523Y-120310866D02*
X140231428Y-120425152D01*
X140231428Y-120425152D02*
X139774285Y-120882295D01*
X139774285Y-120882295D02*
X140269523Y-120882295D01*
X181050714Y-132462295D02*
X180784047Y-132081342D01*
X180593571Y-132462295D02*
X180593571Y-131662295D01*
X180593571Y-131662295D02*
X180898333Y-131662295D01*
X180898333Y-131662295D02*
X180974523Y-131700390D01*
X180974523Y-131700390D02*
X181012618Y-131738485D01*
X181012618Y-131738485D02*
X181050714Y-131814676D01*
X181050714Y-131814676D02*
X181050714Y-131928961D01*
X181050714Y-131928961D02*
X181012618Y-132005152D01*
X181012618Y-132005152D02*
X180974523Y-132043247D01*
X180974523Y-132043247D02*
X180898333Y-132081342D01*
X180898333Y-132081342D02*
X180593571Y-132081342D01*
X181317380Y-131662295D02*
X181812618Y-131662295D01*
X181812618Y-131662295D02*
X181545952Y-131967057D01*
X181545952Y-131967057D02*
X181660237Y-131967057D01*
X181660237Y-131967057D02*
X181736428Y-132005152D01*
X181736428Y-132005152D02*
X181774523Y-132043247D01*
X181774523Y-132043247D02*
X181812618Y-132119438D01*
X181812618Y-132119438D02*
X181812618Y-132309914D01*
X181812618Y-132309914D02*
X181774523Y-132386104D01*
X181774523Y-132386104D02*
X181736428Y-132424200D01*
X181736428Y-132424200D02*
X181660237Y-132462295D01*
X181660237Y-132462295D02*
X181431666Y-132462295D01*
X181431666Y-132462295D02*
X181355475Y-132424200D01*
X181355475Y-132424200D02*
X181317380Y-132386104D01*
X182307857Y-131662295D02*
X182384047Y-131662295D01*
X182384047Y-131662295D02*
X182460238Y-131700390D01*
X182460238Y-131700390D02*
X182498333Y-131738485D01*
X182498333Y-131738485D02*
X182536428Y-131814676D01*
X182536428Y-131814676D02*
X182574523Y-131967057D01*
X182574523Y-131967057D02*
X182574523Y-132157533D01*
X182574523Y-132157533D02*
X182536428Y-132309914D01*
X182536428Y-132309914D02*
X182498333Y-132386104D01*
X182498333Y-132386104D02*
X182460238Y-132424200D01*
X182460238Y-132424200D02*
X182384047Y-132462295D01*
X182384047Y-132462295D02*
X182307857Y-132462295D01*
X182307857Y-132462295D02*
X182231666Y-132424200D01*
X182231666Y-132424200D02*
X182193571Y-132386104D01*
X182193571Y-132386104D02*
X182155476Y-132309914D01*
X182155476Y-132309914D02*
X182117380Y-132157533D01*
X182117380Y-132157533D02*
X182117380Y-131967057D01*
X182117380Y-131967057D02*
X182155476Y-131814676D01*
X182155476Y-131814676D02*
X182193571Y-131738485D01*
X182193571Y-131738485D02*
X182231666Y-131700390D01*
X182231666Y-131700390D02*
X182307857Y-131662295D01*
X165211905Y-121154819D02*
X165211905Y-120154819D01*
X165211905Y-120154819D02*
X165450000Y-120154819D01*
X165450000Y-120154819D02*
X165592857Y-120202438D01*
X165592857Y-120202438D02*
X165688095Y-120297676D01*
X165688095Y-120297676D02*
X165735714Y-120392914D01*
X165735714Y-120392914D02*
X165783333Y-120583390D01*
X165783333Y-120583390D02*
X165783333Y-120726247D01*
X165783333Y-120726247D02*
X165735714Y-120916723D01*
X165735714Y-120916723D02*
X165688095Y-121011961D01*
X165688095Y-121011961D02*
X165592857Y-121107200D01*
X165592857Y-121107200D02*
X165450000Y-121154819D01*
X165450000Y-121154819D02*
X165211905Y-121154819D01*
X166640476Y-120154819D02*
X166450000Y-120154819D01*
X166450000Y-120154819D02*
X166354762Y-120202438D01*
X166354762Y-120202438D02*
X166307143Y-120250057D01*
X166307143Y-120250057D02*
X166211905Y-120392914D01*
X166211905Y-120392914D02*
X166164286Y-120583390D01*
X166164286Y-120583390D02*
X166164286Y-120964342D01*
X166164286Y-120964342D02*
X166211905Y-121059580D01*
X166211905Y-121059580D02*
X166259524Y-121107200D01*
X166259524Y-121107200D02*
X166354762Y-121154819D01*
X166354762Y-121154819D02*
X166545238Y-121154819D01*
X166545238Y-121154819D02*
X166640476Y-121107200D01*
X166640476Y-121107200D02*
X166688095Y-121059580D01*
X166688095Y-121059580D02*
X166735714Y-120964342D01*
X166735714Y-120964342D02*
X166735714Y-120726247D01*
X166735714Y-120726247D02*
X166688095Y-120631009D01*
X166688095Y-120631009D02*
X166640476Y-120583390D01*
X166640476Y-120583390D02*
X166545238Y-120535771D01*
X166545238Y-120535771D02*
X166354762Y-120535771D01*
X166354762Y-120535771D02*
X166259524Y-120583390D01*
X166259524Y-120583390D02*
X166211905Y-120631009D01*
X166211905Y-120631009D02*
X166164286Y-120726247D01*
D10*
X174166667Y-142958704D02*
X174128571Y-142996800D01*
X174128571Y-142996800D02*
X174014286Y-143034895D01*
X174014286Y-143034895D02*
X173938095Y-143034895D01*
X173938095Y-143034895D02*
X173823809Y-142996800D01*
X173823809Y-142996800D02*
X173747619Y-142920609D01*
X173747619Y-142920609D02*
X173709524Y-142844419D01*
X173709524Y-142844419D02*
X173671428Y-142692038D01*
X173671428Y-142692038D02*
X173671428Y-142577752D01*
X173671428Y-142577752D02*
X173709524Y-142425371D01*
X173709524Y-142425371D02*
X173747619Y-142349180D01*
X173747619Y-142349180D02*
X173823809Y-142272990D01*
X173823809Y-142272990D02*
X173938095Y-142234895D01*
X173938095Y-142234895D02*
X174014286Y-142234895D01*
X174014286Y-142234895D02*
X174128571Y-142272990D01*
X174128571Y-142272990D02*
X174166667Y-142311085D01*
X174623809Y-142577752D02*
X174547619Y-142539657D01*
X174547619Y-142539657D02*
X174509524Y-142501561D01*
X174509524Y-142501561D02*
X174471428Y-142425371D01*
X174471428Y-142425371D02*
X174471428Y-142387276D01*
X174471428Y-142387276D02*
X174509524Y-142311085D01*
X174509524Y-142311085D02*
X174547619Y-142272990D01*
X174547619Y-142272990D02*
X174623809Y-142234895D01*
X174623809Y-142234895D02*
X174776190Y-142234895D01*
X174776190Y-142234895D02*
X174852381Y-142272990D01*
X174852381Y-142272990D02*
X174890476Y-142311085D01*
X174890476Y-142311085D02*
X174928571Y-142387276D01*
X174928571Y-142387276D02*
X174928571Y-142425371D01*
X174928571Y-142425371D02*
X174890476Y-142501561D01*
X174890476Y-142501561D02*
X174852381Y-142539657D01*
X174852381Y-142539657D02*
X174776190Y-142577752D01*
X174776190Y-142577752D02*
X174623809Y-142577752D01*
X174623809Y-142577752D02*
X174547619Y-142615847D01*
X174547619Y-142615847D02*
X174509524Y-142653942D01*
X174509524Y-142653942D02*
X174471428Y-142730133D01*
X174471428Y-142730133D02*
X174471428Y-142882514D01*
X174471428Y-142882514D02*
X174509524Y-142958704D01*
X174509524Y-142958704D02*
X174547619Y-142996800D01*
X174547619Y-142996800D02*
X174623809Y-143034895D01*
X174623809Y-143034895D02*
X174776190Y-143034895D01*
X174776190Y-143034895D02*
X174852381Y-142996800D01*
X174852381Y-142996800D02*
X174890476Y-142958704D01*
X174890476Y-142958704D02*
X174928571Y-142882514D01*
X174928571Y-142882514D02*
X174928571Y-142730133D01*
X174928571Y-142730133D02*
X174890476Y-142653942D01*
X174890476Y-142653942D02*
X174852381Y-142615847D01*
X174852381Y-142615847D02*
X174776190Y-142577752D01*
D15*
X119391667Y-120363595D02*
X119125000Y-119982642D01*
X118934524Y-120363595D02*
X118934524Y-119563595D01*
X118934524Y-119563595D02*
X119239286Y-119563595D01*
X119239286Y-119563595D02*
X119315476Y-119601690D01*
X119315476Y-119601690D02*
X119353571Y-119639785D01*
X119353571Y-119639785D02*
X119391667Y-119715976D01*
X119391667Y-119715976D02*
X119391667Y-119830261D01*
X119391667Y-119830261D02*
X119353571Y-119906452D01*
X119353571Y-119906452D02*
X119315476Y-119944547D01*
X119315476Y-119944547D02*
X119239286Y-119982642D01*
X119239286Y-119982642D02*
X118934524Y-119982642D01*
X120077381Y-119563595D02*
X119925000Y-119563595D01*
X119925000Y-119563595D02*
X119848809Y-119601690D01*
X119848809Y-119601690D02*
X119810714Y-119639785D01*
X119810714Y-119639785D02*
X119734524Y-119754071D01*
X119734524Y-119754071D02*
X119696428Y-119906452D01*
X119696428Y-119906452D02*
X119696428Y-120211214D01*
X119696428Y-120211214D02*
X119734524Y-120287404D01*
X119734524Y-120287404D02*
X119772619Y-120325500D01*
X119772619Y-120325500D02*
X119848809Y-120363595D01*
X119848809Y-120363595D02*
X120001190Y-120363595D01*
X120001190Y-120363595D02*
X120077381Y-120325500D01*
X120077381Y-120325500D02*
X120115476Y-120287404D01*
X120115476Y-120287404D02*
X120153571Y-120211214D01*
X120153571Y-120211214D02*
X120153571Y-120020738D01*
X120153571Y-120020738D02*
X120115476Y-119944547D01*
X120115476Y-119944547D02*
X120077381Y-119906452D01*
X120077381Y-119906452D02*
X120001190Y-119868357D01*
X120001190Y-119868357D02*
X119848809Y-119868357D01*
X119848809Y-119868357D02*
X119772619Y-119906452D01*
X119772619Y-119906452D02*
X119734524Y-119944547D01*
X119734524Y-119944547D02*
X119696428Y-120020738D01*
D14*
X125165714Y-136092295D02*
X124899047Y-135711342D01*
X124708571Y-136092295D02*
X124708571Y-135292295D01*
X124708571Y-135292295D02*
X125013333Y-135292295D01*
X125013333Y-135292295D02*
X125089523Y-135330390D01*
X125089523Y-135330390D02*
X125127618Y-135368485D01*
X125127618Y-135368485D02*
X125165714Y-135444676D01*
X125165714Y-135444676D02*
X125165714Y-135558961D01*
X125165714Y-135558961D02*
X125127618Y-135635152D01*
X125127618Y-135635152D02*
X125089523Y-135673247D01*
X125089523Y-135673247D02*
X125013333Y-135711342D01*
X125013333Y-135711342D02*
X124708571Y-135711342D01*
X125927618Y-136092295D02*
X125470475Y-136092295D01*
X125699047Y-136092295D02*
X125699047Y-135292295D01*
X125699047Y-135292295D02*
X125622856Y-135406580D01*
X125622856Y-135406580D02*
X125546666Y-135482771D01*
X125546666Y-135482771D02*
X125470475Y-135520866D01*
X126422857Y-135292295D02*
X126499047Y-135292295D01*
X126499047Y-135292295D02*
X126575238Y-135330390D01*
X126575238Y-135330390D02*
X126613333Y-135368485D01*
X126613333Y-135368485D02*
X126651428Y-135444676D01*
X126651428Y-135444676D02*
X126689523Y-135597057D01*
X126689523Y-135597057D02*
X126689523Y-135787533D01*
X126689523Y-135787533D02*
X126651428Y-135939914D01*
X126651428Y-135939914D02*
X126613333Y-136016104D01*
X126613333Y-136016104D02*
X126575238Y-136054200D01*
X126575238Y-136054200D02*
X126499047Y-136092295D01*
X126499047Y-136092295D02*
X126422857Y-136092295D01*
X126422857Y-136092295D02*
X126346666Y-136054200D01*
X126346666Y-136054200D02*
X126308571Y-136016104D01*
X126308571Y-136016104D02*
X126270476Y-135939914D01*
X126270476Y-135939914D02*
X126232380Y-135787533D01*
X126232380Y-135787533D02*
X126232380Y-135597057D01*
X126232380Y-135597057D02*
X126270476Y-135444676D01*
X126270476Y-135444676D02*
X126308571Y-135368485D01*
X126308571Y-135368485D02*
X126346666Y-135330390D01*
X126346666Y-135330390D02*
X126422857Y-135292295D01*
D15*
X119756095Y-146266785D02*
X119375142Y-146533452D01*
X119756095Y-146723928D02*
X118956095Y-146723928D01*
X118956095Y-146723928D02*
X118956095Y-146419166D01*
X118956095Y-146419166D02*
X118994190Y-146342976D01*
X118994190Y-146342976D02*
X119032285Y-146304881D01*
X119032285Y-146304881D02*
X119108476Y-146266785D01*
X119108476Y-146266785D02*
X119222761Y-146266785D01*
X119222761Y-146266785D02*
X119298952Y-146304881D01*
X119298952Y-146304881D02*
X119337047Y-146342976D01*
X119337047Y-146342976D02*
X119375142Y-146419166D01*
X119375142Y-146419166D02*
X119375142Y-146723928D01*
X119032285Y-145962024D02*
X118994190Y-145923928D01*
X118994190Y-145923928D02*
X118956095Y-145847738D01*
X118956095Y-145847738D02*
X118956095Y-145657262D01*
X118956095Y-145657262D02*
X118994190Y-145581071D01*
X118994190Y-145581071D02*
X119032285Y-145542976D01*
X119032285Y-145542976D02*
X119108476Y-145504881D01*
X119108476Y-145504881D02*
X119184666Y-145504881D01*
X119184666Y-145504881D02*
X119298952Y-145542976D01*
X119298952Y-145542976D02*
X119756095Y-146000119D01*
X119756095Y-146000119D02*
X119756095Y-145504881D01*
X119756095Y-144742976D02*
X119756095Y-145200119D01*
X119756095Y-144971547D02*
X118956095Y-144971547D01*
X118956095Y-144971547D02*
X119070380Y-145047738D01*
X119070380Y-145047738D02*
X119146571Y-145123928D01*
X119146571Y-145123928D02*
X119184666Y-145200119D01*
D14*
X129506667Y-116122295D02*
X129240000Y-115741342D01*
X129049524Y-116122295D02*
X129049524Y-115322295D01*
X129049524Y-115322295D02*
X129354286Y-115322295D01*
X129354286Y-115322295D02*
X129430476Y-115360390D01*
X129430476Y-115360390D02*
X129468571Y-115398485D01*
X129468571Y-115398485D02*
X129506667Y-115474676D01*
X129506667Y-115474676D02*
X129506667Y-115588961D01*
X129506667Y-115588961D02*
X129468571Y-115665152D01*
X129468571Y-115665152D02*
X129430476Y-115703247D01*
X129430476Y-115703247D02*
X129354286Y-115741342D01*
X129354286Y-115741342D02*
X129049524Y-115741342D01*
X129773333Y-115322295D02*
X130268571Y-115322295D01*
X130268571Y-115322295D02*
X130001905Y-115627057D01*
X130001905Y-115627057D02*
X130116190Y-115627057D01*
X130116190Y-115627057D02*
X130192381Y-115665152D01*
X130192381Y-115665152D02*
X130230476Y-115703247D01*
X130230476Y-115703247D02*
X130268571Y-115779438D01*
X130268571Y-115779438D02*
X130268571Y-115969914D01*
X130268571Y-115969914D02*
X130230476Y-116046104D01*
X130230476Y-116046104D02*
X130192381Y-116084200D01*
X130192381Y-116084200D02*
X130116190Y-116122295D01*
X130116190Y-116122295D02*
X129887619Y-116122295D01*
X129887619Y-116122295D02*
X129811428Y-116084200D01*
X129811428Y-116084200D02*
X129773333Y-116046104D01*
X157419580Y-116332857D02*
X157467200Y-116380476D01*
X157467200Y-116380476D02*
X157514819Y-116523333D01*
X157514819Y-116523333D02*
X157514819Y-116618571D01*
X157514819Y-116618571D02*
X157467200Y-116761428D01*
X157467200Y-116761428D02*
X157371961Y-116856666D01*
X157371961Y-116856666D02*
X157276723Y-116904285D01*
X157276723Y-116904285D02*
X157086247Y-116951904D01*
X157086247Y-116951904D02*
X156943390Y-116951904D01*
X156943390Y-116951904D02*
X156752914Y-116904285D01*
X156752914Y-116904285D02*
X156657676Y-116856666D01*
X156657676Y-116856666D02*
X156562438Y-116761428D01*
X156562438Y-116761428D02*
X156514819Y-116618571D01*
X156514819Y-116618571D02*
X156514819Y-116523333D01*
X156514819Y-116523333D02*
X156562438Y-116380476D01*
X156562438Y-116380476D02*
X156610057Y-116332857D01*
X157514819Y-115380476D02*
X157514819Y-115951904D01*
X157514819Y-115666190D02*
X156514819Y-115666190D01*
X156514819Y-115666190D02*
X156657676Y-115761428D01*
X156657676Y-115761428D02*
X156752914Y-115856666D01*
X156752914Y-115856666D02*
X156800533Y-115951904D01*
X156848152Y-114523333D02*
X157514819Y-114523333D01*
X156467200Y-114761428D02*
X157181485Y-114999523D01*
X157181485Y-114999523D02*
X157181485Y-114380476D01*
D15*
X123454405Y-140289904D02*
X123416309Y-140328000D01*
X123416309Y-140328000D02*
X123302024Y-140366095D01*
X123302024Y-140366095D02*
X123225833Y-140366095D01*
X123225833Y-140366095D02*
X123111547Y-140328000D01*
X123111547Y-140328000D02*
X123035357Y-140251809D01*
X123035357Y-140251809D02*
X122997262Y-140175619D01*
X122997262Y-140175619D02*
X122959166Y-140023238D01*
X122959166Y-140023238D02*
X122959166Y-139908952D01*
X122959166Y-139908952D02*
X122997262Y-139756571D01*
X122997262Y-139756571D02*
X123035357Y-139680380D01*
X123035357Y-139680380D02*
X123111547Y-139604190D01*
X123111547Y-139604190D02*
X123225833Y-139566095D01*
X123225833Y-139566095D02*
X123302024Y-139566095D01*
X123302024Y-139566095D02*
X123416309Y-139604190D01*
X123416309Y-139604190D02*
X123454405Y-139642285D01*
X123682976Y-139566095D02*
X124140119Y-139566095D01*
X123911547Y-140366095D02*
X123911547Y-139566095D01*
X124825833Y-140366095D02*
X124368690Y-140366095D01*
X124597262Y-140366095D02*
X124597262Y-139566095D01*
X124597262Y-139566095D02*
X124521071Y-139680380D01*
X124521071Y-139680380D02*
X124444881Y-139756571D01*
X124444881Y-139756571D02*
X124368690Y-139794666D01*
X122391667Y-131037404D02*
X122353571Y-131075500D01*
X122353571Y-131075500D02*
X122239286Y-131113595D01*
X122239286Y-131113595D02*
X122163095Y-131113595D01*
X122163095Y-131113595D02*
X122048809Y-131075500D01*
X122048809Y-131075500D02*
X121972619Y-130999309D01*
X121972619Y-130999309D02*
X121934524Y-130923119D01*
X121934524Y-130923119D02*
X121896428Y-130770738D01*
X121896428Y-130770738D02*
X121896428Y-130656452D01*
X121896428Y-130656452D02*
X121934524Y-130504071D01*
X121934524Y-130504071D02*
X121972619Y-130427880D01*
X121972619Y-130427880D02*
X122048809Y-130351690D01*
X122048809Y-130351690D02*
X122163095Y-130313595D01*
X122163095Y-130313595D02*
X122239286Y-130313595D01*
X122239286Y-130313595D02*
X122353571Y-130351690D01*
X122353571Y-130351690D02*
X122391667Y-130389785D01*
X123077381Y-130580261D02*
X123077381Y-131113595D01*
X122886905Y-130275500D02*
X122696428Y-130846928D01*
X122696428Y-130846928D02*
X123191667Y-130846928D01*
D14*
X170838809Y-121738485D02*
X170762619Y-121700390D01*
X170762619Y-121700390D02*
X170686428Y-121624200D01*
X170686428Y-121624200D02*
X170572142Y-121509914D01*
X170572142Y-121509914D02*
X170495952Y-121471819D01*
X170495952Y-121471819D02*
X170419761Y-121471819D01*
X170457857Y-121662295D02*
X170381666Y-121624200D01*
X170381666Y-121624200D02*
X170305476Y-121548009D01*
X170305476Y-121548009D02*
X170267380Y-121395628D01*
X170267380Y-121395628D02*
X170267380Y-121128961D01*
X170267380Y-121128961D02*
X170305476Y-120976580D01*
X170305476Y-120976580D02*
X170381666Y-120900390D01*
X170381666Y-120900390D02*
X170457857Y-120862295D01*
X170457857Y-120862295D02*
X170610238Y-120862295D01*
X170610238Y-120862295D02*
X170686428Y-120900390D01*
X170686428Y-120900390D02*
X170762619Y-120976580D01*
X170762619Y-120976580D02*
X170800714Y-121128961D01*
X170800714Y-121128961D02*
X170800714Y-121395628D01*
X170800714Y-121395628D02*
X170762619Y-121548009D01*
X170762619Y-121548009D02*
X170686428Y-121624200D01*
X170686428Y-121624200D02*
X170610238Y-121662295D01*
X170610238Y-121662295D02*
X170457857Y-121662295D01*
X171524523Y-120862295D02*
X171143571Y-120862295D01*
X171143571Y-120862295D02*
X171105475Y-121243247D01*
X171105475Y-121243247D02*
X171143571Y-121205152D01*
X171143571Y-121205152D02*
X171219761Y-121167057D01*
X171219761Y-121167057D02*
X171410237Y-121167057D01*
X171410237Y-121167057D02*
X171486428Y-121205152D01*
X171486428Y-121205152D02*
X171524523Y-121243247D01*
X171524523Y-121243247D02*
X171562618Y-121319438D01*
X171562618Y-121319438D02*
X171562618Y-121509914D01*
X171562618Y-121509914D02*
X171524523Y-121586104D01*
X171524523Y-121586104D02*
X171486428Y-121624200D01*
X171486428Y-121624200D02*
X171410237Y-121662295D01*
X171410237Y-121662295D02*
X171219761Y-121662295D01*
X171219761Y-121662295D02*
X171143571Y-121624200D01*
X171143571Y-121624200D02*
X171105475Y-121586104D01*
D10*
X154155714Y-148222395D02*
X153889047Y-147841442D01*
X153698571Y-148222395D02*
X153698571Y-147422395D01*
X153698571Y-147422395D02*
X154003333Y-147422395D01*
X154003333Y-147422395D02*
X154079523Y-147460490D01*
X154079523Y-147460490D02*
X154117618Y-147498585D01*
X154117618Y-147498585D02*
X154155714Y-147574776D01*
X154155714Y-147574776D02*
X154155714Y-147689061D01*
X154155714Y-147689061D02*
X154117618Y-147765252D01*
X154117618Y-147765252D02*
X154079523Y-147803347D01*
X154079523Y-147803347D02*
X154003333Y-147841442D01*
X154003333Y-147841442D02*
X153698571Y-147841442D01*
X154460475Y-147498585D02*
X154498571Y-147460490D01*
X154498571Y-147460490D02*
X154574761Y-147422395D01*
X154574761Y-147422395D02*
X154765237Y-147422395D01*
X154765237Y-147422395D02*
X154841428Y-147460490D01*
X154841428Y-147460490D02*
X154879523Y-147498585D01*
X154879523Y-147498585D02*
X154917618Y-147574776D01*
X154917618Y-147574776D02*
X154917618Y-147650966D01*
X154917618Y-147650966D02*
X154879523Y-147765252D01*
X154879523Y-147765252D02*
X154422380Y-148222395D01*
X154422380Y-148222395D02*
X154917618Y-148222395D01*
X155641428Y-147422395D02*
X155260476Y-147422395D01*
X155260476Y-147422395D02*
X155222380Y-147803347D01*
X155222380Y-147803347D02*
X155260476Y-147765252D01*
X155260476Y-147765252D02*
X155336666Y-147727157D01*
X155336666Y-147727157D02*
X155527142Y-147727157D01*
X155527142Y-147727157D02*
X155603333Y-147765252D01*
X155603333Y-147765252D02*
X155641428Y-147803347D01*
X155641428Y-147803347D02*
X155679523Y-147879538D01*
X155679523Y-147879538D02*
X155679523Y-148070014D01*
X155679523Y-148070014D02*
X155641428Y-148146204D01*
X155641428Y-148146204D02*
X155603333Y-148184300D01*
X155603333Y-148184300D02*
X155527142Y-148222395D01*
X155527142Y-148222395D02*
X155336666Y-148222395D01*
X155336666Y-148222395D02*
X155260476Y-148184300D01*
X155260476Y-148184300D02*
X155222380Y-148146204D01*
D14*
X134555714Y-123542295D02*
X134289047Y-123161342D01*
X134098571Y-123542295D02*
X134098571Y-122742295D01*
X134098571Y-122742295D02*
X134403333Y-122742295D01*
X134403333Y-122742295D02*
X134479523Y-122780390D01*
X134479523Y-122780390D02*
X134517618Y-122818485D01*
X134517618Y-122818485D02*
X134555714Y-122894676D01*
X134555714Y-122894676D02*
X134555714Y-123008961D01*
X134555714Y-123008961D02*
X134517618Y-123085152D01*
X134517618Y-123085152D02*
X134479523Y-123123247D01*
X134479523Y-123123247D02*
X134403333Y-123161342D01*
X134403333Y-123161342D02*
X134098571Y-123161342D01*
X134860475Y-123504200D02*
X134974761Y-123542295D01*
X134974761Y-123542295D02*
X135165237Y-123542295D01*
X135165237Y-123542295D02*
X135241428Y-123504200D01*
X135241428Y-123504200D02*
X135279523Y-123466104D01*
X135279523Y-123466104D02*
X135317618Y-123389914D01*
X135317618Y-123389914D02*
X135317618Y-123313723D01*
X135317618Y-123313723D02*
X135279523Y-123237533D01*
X135279523Y-123237533D02*
X135241428Y-123199438D01*
X135241428Y-123199438D02*
X135165237Y-123161342D01*
X135165237Y-123161342D02*
X135012856Y-123123247D01*
X135012856Y-123123247D02*
X134936666Y-123085152D01*
X134936666Y-123085152D02*
X134898571Y-123047057D01*
X134898571Y-123047057D02*
X134860475Y-122970866D01*
X134860475Y-122970866D02*
X134860475Y-122894676D01*
X134860475Y-122894676D02*
X134898571Y-122818485D01*
X134898571Y-122818485D02*
X134936666Y-122780390D01*
X134936666Y-122780390D02*
X135012856Y-122742295D01*
X135012856Y-122742295D02*
X135203333Y-122742295D01*
X135203333Y-122742295D02*
X135317618Y-122780390D01*
X135622380Y-122818485D02*
X135660476Y-122780390D01*
X135660476Y-122780390D02*
X135736666Y-122742295D01*
X135736666Y-122742295D02*
X135927142Y-122742295D01*
X135927142Y-122742295D02*
X136003333Y-122780390D01*
X136003333Y-122780390D02*
X136041428Y-122818485D01*
X136041428Y-122818485D02*
X136079523Y-122894676D01*
X136079523Y-122894676D02*
X136079523Y-122970866D01*
X136079523Y-122970866D02*
X136041428Y-123085152D01*
X136041428Y-123085152D02*
X135584285Y-123542295D01*
X135584285Y-123542295D02*
X136079523Y-123542295D01*
X164489580Y-116312857D02*
X164537200Y-116360476D01*
X164537200Y-116360476D02*
X164584819Y-116503333D01*
X164584819Y-116503333D02*
X164584819Y-116598571D01*
X164584819Y-116598571D02*
X164537200Y-116741428D01*
X164537200Y-116741428D02*
X164441961Y-116836666D01*
X164441961Y-116836666D02*
X164346723Y-116884285D01*
X164346723Y-116884285D02*
X164156247Y-116931904D01*
X164156247Y-116931904D02*
X164013390Y-116931904D01*
X164013390Y-116931904D02*
X163822914Y-116884285D01*
X163822914Y-116884285D02*
X163727676Y-116836666D01*
X163727676Y-116836666D02*
X163632438Y-116741428D01*
X163632438Y-116741428D02*
X163584819Y-116598571D01*
X163584819Y-116598571D02*
X163584819Y-116503333D01*
X163584819Y-116503333D02*
X163632438Y-116360476D01*
X163632438Y-116360476D02*
X163680057Y-116312857D01*
X164584819Y-115360476D02*
X164584819Y-115931904D01*
X164584819Y-115646190D02*
X163584819Y-115646190D01*
X163584819Y-115646190D02*
X163727676Y-115741428D01*
X163727676Y-115741428D02*
X163822914Y-115836666D01*
X163822914Y-115836666D02*
X163870533Y-115931904D01*
X163584819Y-114455714D02*
X163584819Y-114931904D01*
X163584819Y-114931904D02*
X164061009Y-114979523D01*
X164061009Y-114979523D02*
X164013390Y-114931904D01*
X164013390Y-114931904D02*
X163965771Y-114836666D01*
X163965771Y-114836666D02*
X163965771Y-114598571D01*
X163965771Y-114598571D02*
X164013390Y-114503333D01*
X164013390Y-114503333D02*
X164061009Y-114455714D01*
X164061009Y-114455714D02*
X164156247Y-114408095D01*
X164156247Y-114408095D02*
X164394342Y-114408095D01*
X164394342Y-114408095D02*
X164489580Y-114455714D01*
X164489580Y-114455714D02*
X164537200Y-114503333D01*
X164537200Y-114503333D02*
X164584819Y-114598571D01*
X164584819Y-114598571D02*
X164584819Y-114836666D01*
X164584819Y-114836666D02*
X164537200Y-114931904D01*
X164537200Y-114931904D02*
X164489580Y-114979523D01*
D15*
X120638595Y-126014285D02*
X120257642Y-126280952D01*
X120638595Y-126471428D02*
X119838595Y-126471428D01*
X119838595Y-126471428D02*
X119838595Y-126166666D01*
X119838595Y-126166666D02*
X119876690Y-126090476D01*
X119876690Y-126090476D02*
X119914785Y-126052381D01*
X119914785Y-126052381D02*
X119990976Y-126014285D01*
X119990976Y-126014285D02*
X120105261Y-126014285D01*
X120105261Y-126014285D02*
X120181452Y-126052381D01*
X120181452Y-126052381D02*
X120219547Y-126090476D01*
X120219547Y-126090476D02*
X120257642Y-126166666D01*
X120257642Y-126166666D02*
X120257642Y-126471428D01*
X120638595Y-125252381D02*
X120638595Y-125709524D01*
X120638595Y-125480952D02*
X119838595Y-125480952D01*
X119838595Y-125480952D02*
X119952880Y-125557143D01*
X119952880Y-125557143D02*
X120029071Y-125633333D01*
X120029071Y-125633333D02*
X120067166Y-125709524D01*
X119838595Y-124566666D02*
X119838595Y-124719047D01*
X119838595Y-124719047D02*
X119876690Y-124795238D01*
X119876690Y-124795238D02*
X119914785Y-124833333D01*
X119914785Y-124833333D02*
X120029071Y-124909523D01*
X120029071Y-124909523D02*
X120181452Y-124947619D01*
X120181452Y-124947619D02*
X120486214Y-124947619D01*
X120486214Y-124947619D02*
X120562404Y-124909523D01*
X120562404Y-124909523D02*
X120600500Y-124871428D01*
X120600500Y-124871428D02*
X120638595Y-124795238D01*
X120638595Y-124795238D02*
X120638595Y-124642857D01*
X120638595Y-124642857D02*
X120600500Y-124566666D01*
X120600500Y-124566666D02*
X120562404Y-124528571D01*
X120562404Y-124528571D02*
X120486214Y-124490476D01*
X120486214Y-124490476D02*
X120295738Y-124490476D01*
X120295738Y-124490476D02*
X120219547Y-124528571D01*
X120219547Y-124528571D02*
X120181452Y-124566666D01*
X120181452Y-124566666D02*
X120143357Y-124642857D01*
X120143357Y-124642857D02*
X120143357Y-124795238D01*
X120143357Y-124795238D02*
X120181452Y-124871428D01*
X120181452Y-124871428D02*
X120219547Y-124909523D01*
X120219547Y-124909523D02*
X120295738Y-124947619D01*
D14*
X188165714Y-133932295D02*
X187899047Y-133551342D01*
X187708571Y-133932295D02*
X187708571Y-133132295D01*
X187708571Y-133132295D02*
X188013333Y-133132295D01*
X188013333Y-133132295D02*
X188089523Y-133170390D01*
X188089523Y-133170390D02*
X188127618Y-133208485D01*
X188127618Y-133208485D02*
X188165714Y-133284676D01*
X188165714Y-133284676D02*
X188165714Y-133398961D01*
X188165714Y-133398961D02*
X188127618Y-133475152D01*
X188127618Y-133475152D02*
X188089523Y-133513247D01*
X188089523Y-133513247D02*
X188013333Y-133551342D01*
X188013333Y-133551342D02*
X187708571Y-133551342D01*
X188927618Y-133932295D02*
X188470475Y-133932295D01*
X188699047Y-133932295D02*
X188699047Y-133132295D01*
X188699047Y-133132295D02*
X188622856Y-133246580D01*
X188622856Y-133246580D02*
X188546666Y-133322771D01*
X188546666Y-133322771D02*
X188470475Y-133360866D01*
X189308571Y-133932295D02*
X189460952Y-133932295D01*
X189460952Y-133932295D02*
X189537142Y-133894200D01*
X189537142Y-133894200D02*
X189575238Y-133856104D01*
X189575238Y-133856104D02*
X189651428Y-133741819D01*
X189651428Y-133741819D02*
X189689523Y-133589438D01*
X189689523Y-133589438D02*
X189689523Y-133284676D01*
X189689523Y-133284676D02*
X189651428Y-133208485D01*
X189651428Y-133208485D02*
X189613333Y-133170390D01*
X189613333Y-133170390D02*
X189537142Y-133132295D01*
X189537142Y-133132295D02*
X189384761Y-133132295D01*
X189384761Y-133132295D02*
X189308571Y-133170390D01*
X189308571Y-133170390D02*
X189270476Y-133208485D01*
X189270476Y-133208485D02*
X189232380Y-133284676D01*
X189232380Y-133284676D02*
X189232380Y-133475152D01*
X189232380Y-133475152D02*
X189270476Y-133551342D01*
X189270476Y-133551342D02*
X189308571Y-133589438D01*
X189308571Y-133589438D02*
X189384761Y-133627533D01*
X189384761Y-133627533D02*
X189537142Y-133627533D01*
X189537142Y-133627533D02*
X189613333Y-133589438D01*
X189613333Y-133589438D02*
X189651428Y-133551342D01*
X189651428Y-133551342D02*
X189689523Y-133475152D01*
X185307142Y-137004819D02*
X184973809Y-136528628D01*
X184735714Y-137004819D02*
X184735714Y-136004819D01*
X184735714Y-136004819D02*
X185116666Y-136004819D01*
X185116666Y-136004819D02*
X185211904Y-136052438D01*
X185211904Y-136052438D02*
X185259523Y-136100057D01*
X185259523Y-136100057D02*
X185307142Y-136195295D01*
X185307142Y-136195295D02*
X185307142Y-136338152D01*
X185307142Y-136338152D02*
X185259523Y-136433390D01*
X185259523Y-136433390D02*
X185211904Y-136481009D01*
X185211904Y-136481009D02*
X185116666Y-136528628D01*
X185116666Y-136528628D02*
X184735714Y-136528628D01*
X186259523Y-137004819D02*
X185688095Y-137004819D01*
X185973809Y-137004819D02*
X185973809Y-136004819D01*
X185973809Y-136004819D02*
X185878571Y-136147676D01*
X185878571Y-136147676D02*
X185783333Y-136242914D01*
X185783333Y-136242914D02*
X185688095Y-136290533D01*
X186830952Y-136433390D02*
X186735714Y-136385771D01*
X186735714Y-136385771D02*
X186688095Y-136338152D01*
X186688095Y-136338152D02*
X186640476Y-136242914D01*
X186640476Y-136242914D02*
X186640476Y-136195295D01*
X186640476Y-136195295D02*
X186688095Y-136100057D01*
X186688095Y-136100057D02*
X186735714Y-136052438D01*
X186735714Y-136052438D02*
X186830952Y-136004819D01*
X186830952Y-136004819D02*
X187021428Y-136004819D01*
X187021428Y-136004819D02*
X187116666Y-136052438D01*
X187116666Y-136052438D02*
X187164285Y-136100057D01*
X187164285Y-136100057D02*
X187211904Y-136195295D01*
X187211904Y-136195295D02*
X187211904Y-136242914D01*
X187211904Y-136242914D02*
X187164285Y-136338152D01*
X187164285Y-136338152D02*
X187116666Y-136385771D01*
X187116666Y-136385771D02*
X187021428Y-136433390D01*
X187021428Y-136433390D02*
X186830952Y-136433390D01*
X186830952Y-136433390D02*
X186735714Y-136481009D01*
X186735714Y-136481009D02*
X186688095Y-136528628D01*
X186688095Y-136528628D02*
X186640476Y-136623866D01*
X186640476Y-136623866D02*
X186640476Y-136814342D01*
X186640476Y-136814342D02*
X186688095Y-136909580D01*
X186688095Y-136909580D02*
X186735714Y-136957200D01*
X186735714Y-136957200D02*
X186830952Y-137004819D01*
X186830952Y-137004819D02*
X187021428Y-137004819D01*
X187021428Y-137004819D02*
X187116666Y-136957200D01*
X187116666Y-136957200D02*
X187164285Y-136909580D01*
X187164285Y-136909580D02*
X187211904Y-136814342D01*
X187211904Y-136814342D02*
X187211904Y-136623866D01*
X187211904Y-136623866D02*
X187164285Y-136528628D01*
X187164285Y-136528628D02*
X187116666Y-136481009D01*
X187116666Y-136481009D02*
X187021428Y-136433390D01*
X129756667Y-111372295D02*
X129490000Y-110991342D01*
X129299524Y-111372295D02*
X129299524Y-110572295D01*
X129299524Y-110572295D02*
X129604286Y-110572295D01*
X129604286Y-110572295D02*
X129680476Y-110610390D01*
X129680476Y-110610390D02*
X129718571Y-110648485D01*
X129718571Y-110648485D02*
X129756667Y-110724676D01*
X129756667Y-110724676D02*
X129756667Y-110838961D01*
X129756667Y-110838961D02*
X129718571Y-110915152D01*
X129718571Y-110915152D02*
X129680476Y-110953247D01*
X129680476Y-110953247D02*
X129604286Y-110991342D01*
X129604286Y-110991342D02*
X129299524Y-110991342D01*
X130061428Y-110648485D02*
X130099524Y-110610390D01*
X130099524Y-110610390D02*
X130175714Y-110572295D01*
X130175714Y-110572295D02*
X130366190Y-110572295D01*
X130366190Y-110572295D02*
X130442381Y-110610390D01*
X130442381Y-110610390D02*
X130480476Y-110648485D01*
X130480476Y-110648485D02*
X130518571Y-110724676D01*
X130518571Y-110724676D02*
X130518571Y-110800866D01*
X130518571Y-110800866D02*
X130480476Y-110915152D01*
X130480476Y-110915152D02*
X130023333Y-111372295D01*
X130023333Y-111372295D02*
X130518571Y-111372295D01*
X130546667Y-136092295D02*
X130280000Y-135711342D01*
X130089524Y-136092295D02*
X130089524Y-135292295D01*
X130089524Y-135292295D02*
X130394286Y-135292295D01*
X130394286Y-135292295D02*
X130470476Y-135330390D01*
X130470476Y-135330390D02*
X130508571Y-135368485D01*
X130508571Y-135368485D02*
X130546667Y-135444676D01*
X130546667Y-135444676D02*
X130546667Y-135558961D01*
X130546667Y-135558961D02*
X130508571Y-135635152D01*
X130508571Y-135635152D02*
X130470476Y-135673247D01*
X130470476Y-135673247D02*
X130394286Y-135711342D01*
X130394286Y-135711342D02*
X130089524Y-135711342D01*
X130927619Y-136092295D02*
X131080000Y-136092295D01*
X131080000Y-136092295D02*
X131156190Y-136054200D01*
X131156190Y-136054200D02*
X131194286Y-136016104D01*
X131194286Y-136016104D02*
X131270476Y-135901819D01*
X131270476Y-135901819D02*
X131308571Y-135749438D01*
X131308571Y-135749438D02*
X131308571Y-135444676D01*
X131308571Y-135444676D02*
X131270476Y-135368485D01*
X131270476Y-135368485D02*
X131232381Y-135330390D01*
X131232381Y-135330390D02*
X131156190Y-135292295D01*
X131156190Y-135292295D02*
X131003809Y-135292295D01*
X131003809Y-135292295D02*
X130927619Y-135330390D01*
X130927619Y-135330390D02*
X130889524Y-135368485D01*
X130889524Y-135368485D02*
X130851428Y-135444676D01*
X130851428Y-135444676D02*
X130851428Y-135635152D01*
X130851428Y-135635152D02*
X130889524Y-135711342D01*
X130889524Y-135711342D02*
X130927619Y-135749438D01*
X130927619Y-135749438D02*
X131003809Y-135787533D01*
X131003809Y-135787533D02*
X131156190Y-135787533D01*
X131156190Y-135787533D02*
X131232381Y-135749438D01*
X131232381Y-135749438D02*
X131270476Y-135711342D01*
X131270476Y-135711342D02*
X131308571Y-135635152D01*
X189254819Y-123358094D02*
X188254819Y-123358094D01*
X188254819Y-123358094D02*
X188254819Y-123119999D01*
X188254819Y-123119999D02*
X188302438Y-122977142D01*
X188302438Y-122977142D02*
X188397676Y-122881904D01*
X188397676Y-122881904D02*
X188492914Y-122834285D01*
X188492914Y-122834285D02*
X188683390Y-122786666D01*
X188683390Y-122786666D02*
X188826247Y-122786666D01*
X188826247Y-122786666D02*
X189016723Y-122834285D01*
X189016723Y-122834285D02*
X189111961Y-122881904D01*
X189111961Y-122881904D02*
X189207200Y-122977142D01*
X189207200Y-122977142D02*
X189254819Y-123119999D01*
X189254819Y-123119999D02*
X189254819Y-123358094D01*
X188588152Y-121929523D02*
X189254819Y-121929523D01*
X188207200Y-122167618D02*
X188921485Y-122405713D01*
X188921485Y-122405713D02*
X188921485Y-121786666D01*
D15*
X138142857Y-128513595D02*
X137876190Y-128132642D01*
X137685714Y-128513595D02*
X137685714Y-127713595D01*
X137685714Y-127713595D02*
X137990476Y-127713595D01*
X137990476Y-127713595D02*
X138066666Y-127751690D01*
X138066666Y-127751690D02*
X138104761Y-127789785D01*
X138104761Y-127789785D02*
X138142857Y-127865976D01*
X138142857Y-127865976D02*
X138142857Y-127980261D01*
X138142857Y-127980261D02*
X138104761Y-128056452D01*
X138104761Y-128056452D02*
X138066666Y-128094547D01*
X138066666Y-128094547D02*
X137990476Y-128132642D01*
X137990476Y-128132642D02*
X137685714Y-128132642D01*
X138866666Y-128513595D02*
X138485714Y-128513595D01*
X138485714Y-128513595D02*
X138485714Y-127713595D01*
X139095237Y-127789785D02*
X139133333Y-127751690D01*
X139133333Y-127751690D02*
X139209523Y-127713595D01*
X139209523Y-127713595D02*
X139399999Y-127713595D01*
X139399999Y-127713595D02*
X139476190Y-127751690D01*
X139476190Y-127751690D02*
X139514285Y-127789785D01*
X139514285Y-127789785D02*
X139552380Y-127865976D01*
X139552380Y-127865976D02*
X139552380Y-127942166D01*
X139552380Y-127942166D02*
X139514285Y-128056452D01*
X139514285Y-128056452D02*
X139057142Y-128513595D01*
X139057142Y-128513595D02*
X139552380Y-128513595D01*
D14*
X155514819Y-126491904D02*
X156324342Y-126491904D01*
X156324342Y-126491904D02*
X156419580Y-126444285D01*
X156419580Y-126444285D02*
X156467200Y-126396666D01*
X156467200Y-126396666D02*
X156514819Y-126301428D01*
X156514819Y-126301428D02*
X156514819Y-126110952D01*
X156514819Y-126110952D02*
X156467200Y-126015714D01*
X156467200Y-126015714D02*
X156419580Y-125968095D01*
X156419580Y-125968095D02*
X156324342Y-125920476D01*
X156324342Y-125920476D02*
X155514819Y-125920476D01*
X155943390Y-125301428D02*
X155895771Y-125396666D01*
X155895771Y-125396666D02*
X155848152Y-125444285D01*
X155848152Y-125444285D02*
X155752914Y-125491904D01*
X155752914Y-125491904D02*
X155705295Y-125491904D01*
X155705295Y-125491904D02*
X155610057Y-125444285D01*
X155610057Y-125444285D02*
X155562438Y-125396666D01*
X155562438Y-125396666D02*
X155514819Y-125301428D01*
X155514819Y-125301428D02*
X155514819Y-125110952D01*
X155514819Y-125110952D02*
X155562438Y-125015714D01*
X155562438Y-125015714D02*
X155610057Y-124968095D01*
X155610057Y-124968095D02*
X155705295Y-124920476D01*
X155705295Y-124920476D02*
X155752914Y-124920476D01*
X155752914Y-124920476D02*
X155848152Y-124968095D01*
X155848152Y-124968095D02*
X155895771Y-125015714D01*
X155895771Y-125015714D02*
X155943390Y-125110952D01*
X155943390Y-125110952D02*
X155943390Y-125301428D01*
X155943390Y-125301428D02*
X155991009Y-125396666D01*
X155991009Y-125396666D02*
X156038628Y-125444285D01*
X156038628Y-125444285D02*
X156133866Y-125491904D01*
X156133866Y-125491904D02*
X156324342Y-125491904D01*
X156324342Y-125491904D02*
X156419580Y-125444285D01*
X156419580Y-125444285D02*
X156467200Y-125396666D01*
X156467200Y-125396666D02*
X156514819Y-125301428D01*
X156514819Y-125301428D02*
X156514819Y-125110952D01*
X156514819Y-125110952D02*
X156467200Y-125015714D01*
X156467200Y-125015714D02*
X156419580Y-124968095D01*
X156419580Y-124968095D02*
X156324342Y-124920476D01*
X156324342Y-124920476D02*
X156133866Y-124920476D01*
X156133866Y-124920476D02*
X156038628Y-124968095D01*
X156038628Y-124968095D02*
X155991009Y-125015714D01*
X155991009Y-125015714D02*
X155943390Y-125110952D01*
D15*
X135223595Y-141974285D02*
X134842642Y-142240952D01*
X135223595Y-142431428D02*
X134423595Y-142431428D01*
X134423595Y-142431428D02*
X134423595Y-142126666D01*
X134423595Y-142126666D02*
X134461690Y-142050476D01*
X134461690Y-142050476D02*
X134499785Y-142012381D01*
X134499785Y-142012381D02*
X134575976Y-141974285D01*
X134575976Y-141974285D02*
X134690261Y-141974285D01*
X134690261Y-141974285D02*
X134766452Y-142012381D01*
X134766452Y-142012381D02*
X134804547Y-142050476D01*
X134804547Y-142050476D02*
X134842642Y-142126666D01*
X134842642Y-142126666D02*
X134842642Y-142431428D01*
X135185500Y-141669524D02*
X135223595Y-141555238D01*
X135223595Y-141555238D02*
X135223595Y-141364762D01*
X135223595Y-141364762D02*
X135185500Y-141288571D01*
X135185500Y-141288571D02*
X135147404Y-141250476D01*
X135147404Y-141250476D02*
X135071214Y-141212381D01*
X135071214Y-141212381D02*
X134995023Y-141212381D01*
X134995023Y-141212381D02*
X134918833Y-141250476D01*
X134918833Y-141250476D02*
X134880738Y-141288571D01*
X134880738Y-141288571D02*
X134842642Y-141364762D01*
X134842642Y-141364762D02*
X134804547Y-141517143D01*
X134804547Y-141517143D02*
X134766452Y-141593333D01*
X134766452Y-141593333D02*
X134728357Y-141631428D01*
X134728357Y-141631428D02*
X134652166Y-141669524D01*
X134652166Y-141669524D02*
X134575976Y-141669524D01*
X134575976Y-141669524D02*
X134499785Y-141631428D01*
X134499785Y-141631428D02*
X134461690Y-141593333D01*
X134461690Y-141593333D02*
X134423595Y-141517143D01*
X134423595Y-141517143D02*
X134423595Y-141326666D01*
X134423595Y-141326666D02*
X134461690Y-141212381D01*
X135223595Y-140450476D02*
X135223595Y-140907619D01*
X135223595Y-140679047D02*
X134423595Y-140679047D01*
X134423595Y-140679047D02*
X134537880Y-140755238D01*
X134537880Y-140755238D02*
X134614071Y-140831428D01*
X134614071Y-140831428D02*
X134652166Y-140907619D01*
D14*
X188473333Y-132514819D02*
X188140000Y-132038628D01*
X187901905Y-132514819D02*
X187901905Y-131514819D01*
X187901905Y-131514819D02*
X188282857Y-131514819D01*
X188282857Y-131514819D02*
X188378095Y-131562438D01*
X188378095Y-131562438D02*
X188425714Y-131610057D01*
X188425714Y-131610057D02*
X188473333Y-131705295D01*
X188473333Y-131705295D02*
X188473333Y-131848152D01*
X188473333Y-131848152D02*
X188425714Y-131943390D01*
X188425714Y-131943390D02*
X188378095Y-131991009D01*
X188378095Y-131991009D02*
X188282857Y-132038628D01*
X188282857Y-132038628D02*
X187901905Y-132038628D01*
X189378095Y-131514819D02*
X188901905Y-131514819D01*
X188901905Y-131514819D02*
X188854286Y-131991009D01*
X188854286Y-131991009D02*
X188901905Y-131943390D01*
X188901905Y-131943390D02*
X188997143Y-131895771D01*
X188997143Y-131895771D02*
X189235238Y-131895771D01*
X189235238Y-131895771D02*
X189330476Y-131943390D01*
X189330476Y-131943390D02*
X189378095Y-131991009D01*
X189378095Y-131991009D02*
X189425714Y-132086247D01*
X189425714Y-132086247D02*
X189425714Y-132324342D01*
X189425714Y-132324342D02*
X189378095Y-132419580D01*
X189378095Y-132419580D02*
X189330476Y-132467200D01*
X189330476Y-132467200D02*
X189235238Y-132514819D01*
X189235238Y-132514819D02*
X188997143Y-132514819D01*
X188997143Y-132514819D02*
X188901905Y-132467200D01*
X188901905Y-132467200D02*
X188854286Y-132419580D01*
X138590714Y-141202295D02*
X138324047Y-140821342D01*
X138133571Y-141202295D02*
X138133571Y-140402295D01*
X138133571Y-140402295D02*
X138438333Y-140402295D01*
X138438333Y-140402295D02*
X138514523Y-140440390D01*
X138514523Y-140440390D02*
X138552618Y-140478485D01*
X138552618Y-140478485D02*
X138590714Y-140554676D01*
X138590714Y-140554676D02*
X138590714Y-140668961D01*
X138590714Y-140668961D02*
X138552618Y-140745152D01*
X138552618Y-140745152D02*
X138514523Y-140783247D01*
X138514523Y-140783247D02*
X138438333Y-140821342D01*
X138438333Y-140821342D02*
X138133571Y-140821342D01*
X139352618Y-141202295D02*
X138895475Y-141202295D01*
X139124047Y-141202295D02*
X139124047Y-140402295D01*
X139124047Y-140402295D02*
X139047856Y-140516580D01*
X139047856Y-140516580D02*
X138971666Y-140592771D01*
X138971666Y-140592771D02*
X138895475Y-140630866D01*
X139619285Y-140402295D02*
X140114523Y-140402295D01*
X140114523Y-140402295D02*
X139847857Y-140707057D01*
X139847857Y-140707057D02*
X139962142Y-140707057D01*
X139962142Y-140707057D02*
X140038333Y-140745152D01*
X140038333Y-140745152D02*
X140076428Y-140783247D01*
X140076428Y-140783247D02*
X140114523Y-140859438D01*
X140114523Y-140859438D02*
X140114523Y-141049914D01*
X140114523Y-141049914D02*
X140076428Y-141126104D01*
X140076428Y-141126104D02*
X140038333Y-141164200D01*
X140038333Y-141164200D02*
X139962142Y-141202295D01*
X139962142Y-141202295D02*
X139733571Y-141202295D01*
X139733571Y-141202295D02*
X139657380Y-141164200D01*
X139657380Y-141164200D02*
X139619285Y-141126104D01*
X112626666Y-112841009D02*
X112293333Y-112841009D01*
X112293333Y-113364819D02*
X112293333Y-112364819D01*
X112293333Y-112364819D02*
X112769523Y-112364819D01*
X113674285Y-113364819D02*
X113102857Y-113364819D01*
X113388571Y-113364819D02*
X113388571Y-112364819D01*
X113388571Y-112364819D02*
X113293333Y-112507676D01*
X113293333Y-112507676D02*
X113198095Y-112602914D01*
X113198095Y-112602914D02*
X113102857Y-112650533D01*
D15*
X136165714Y-142483595D02*
X135899047Y-142102642D01*
X135708571Y-142483595D02*
X135708571Y-141683595D01*
X135708571Y-141683595D02*
X136013333Y-141683595D01*
X136013333Y-141683595D02*
X136089523Y-141721690D01*
X136089523Y-141721690D02*
X136127618Y-141759785D01*
X136127618Y-141759785D02*
X136165714Y-141835976D01*
X136165714Y-141835976D02*
X136165714Y-141950261D01*
X136165714Y-141950261D02*
X136127618Y-142026452D01*
X136127618Y-142026452D02*
X136089523Y-142064547D01*
X136089523Y-142064547D02*
X136013333Y-142102642D01*
X136013333Y-142102642D02*
X135708571Y-142102642D01*
X136470475Y-141759785D02*
X136508571Y-141721690D01*
X136508571Y-141721690D02*
X136584761Y-141683595D01*
X136584761Y-141683595D02*
X136775237Y-141683595D01*
X136775237Y-141683595D02*
X136851428Y-141721690D01*
X136851428Y-141721690D02*
X136889523Y-141759785D01*
X136889523Y-141759785D02*
X136927618Y-141835976D01*
X136927618Y-141835976D02*
X136927618Y-141912166D01*
X136927618Y-141912166D02*
X136889523Y-142026452D01*
X136889523Y-142026452D02*
X136432380Y-142483595D01*
X136432380Y-142483595D02*
X136927618Y-142483595D01*
X137232380Y-141759785D02*
X137270476Y-141721690D01*
X137270476Y-141721690D02*
X137346666Y-141683595D01*
X137346666Y-141683595D02*
X137537142Y-141683595D01*
X137537142Y-141683595D02*
X137613333Y-141721690D01*
X137613333Y-141721690D02*
X137651428Y-141759785D01*
X137651428Y-141759785D02*
X137689523Y-141835976D01*
X137689523Y-141835976D02*
X137689523Y-141912166D01*
X137689523Y-141912166D02*
X137651428Y-142026452D01*
X137651428Y-142026452D02*
X137194285Y-142483595D01*
X137194285Y-142483595D02*
X137689523Y-142483595D01*
D14*
X167956666Y-111801009D02*
X167623333Y-111801009D01*
X167623333Y-112324819D02*
X167623333Y-111324819D01*
X167623333Y-111324819D02*
X168099523Y-111324819D01*
X168385238Y-111324819D02*
X169051904Y-111324819D01*
X169051904Y-111324819D02*
X168623333Y-112324819D01*
D15*
X123336905Y-119817404D02*
X123298809Y-119855500D01*
X123298809Y-119855500D02*
X123184524Y-119893595D01*
X123184524Y-119893595D02*
X123108333Y-119893595D01*
X123108333Y-119893595D02*
X122994047Y-119855500D01*
X122994047Y-119855500D02*
X122917857Y-119779309D01*
X122917857Y-119779309D02*
X122879762Y-119703119D01*
X122879762Y-119703119D02*
X122841666Y-119550738D01*
X122841666Y-119550738D02*
X122841666Y-119436452D01*
X122841666Y-119436452D02*
X122879762Y-119284071D01*
X122879762Y-119284071D02*
X122917857Y-119207880D01*
X122917857Y-119207880D02*
X122994047Y-119131690D01*
X122994047Y-119131690D02*
X123108333Y-119093595D01*
X123108333Y-119093595D02*
X123184524Y-119093595D01*
X123184524Y-119093595D02*
X123298809Y-119131690D01*
X123298809Y-119131690D02*
X123336905Y-119169785D01*
X123565476Y-119093595D02*
X124022619Y-119093595D01*
X123794047Y-119893595D02*
X123794047Y-119093595D01*
X124251190Y-119169785D02*
X124289286Y-119131690D01*
X124289286Y-119131690D02*
X124365476Y-119093595D01*
X124365476Y-119093595D02*
X124555952Y-119093595D01*
X124555952Y-119093595D02*
X124632143Y-119131690D01*
X124632143Y-119131690D02*
X124670238Y-119169785D01*
X124670238Y-119169785D02*
X124708333Y-119245976D01*
X124708333Y-119245976D02*
X124708333Y-119322166D01*
X124708333Y-119322166D02*
X124670238Y-119436452D01*
X124670238Y-119436452D02*
X124213095Y-119893595D01*
X124213095Y-119893595D02*
X124708333Y-119893595D01*
D10*
X171642380Y-137954895D02*
X172175714Y-138754895D01*
X172175714Y-137954895D02*
X171642380Y-138754895D01*
X172899523Y-138754895D02*
X172442380Y-138754895D01*
X172670952Y-138754895D02*
X172670952Y-137954895D01*
X172670952Y-137954895D02*
X172594761Y-138069180D01*
X172594761Y-138069180D02*
X172518571Y-138145371D01*
X172518571Y-138145371D02*
X172442380Y-138183466D01*
D14*
X146117976Y-139729795D02*
X146117976Y-140377414D01*
X146117976Y-140377414D02*
X146156071Y-140453604D01*
X146156071Y-140453604D02*
X146194166Y-140491700D01*
X146194166Y-140491700D02*
X146270357Y-140529795D01*
X146270357Y-140529795D02*
X146422738Y-140529795D01*
X146422738Y-140529795D02*
X146498928Y-140491700D01*
X146498928Y-140491700D02*
X146537023Y-140453604D01*
X146537023Y-140453604D02*
X146575119Y-140377414D01*
X146575119Y-140377414D02*
X146575119Y-139729795D01*
X147298928Y-139996461D02*
X147298928Y-140529795D01*
X147108452Y-139691700D02*
X146917975Y-140263128D01*
X146917975Y-140263128D02*
X147413214Y-140263128D01*
X146315476Y-119742295D02*
X146315476Y-120389914D01*
X146315476Y-120389914D02*
X146353571Y-120466104D01*
X146353571Y-120466104D02*
X146391666Y-120504200D01*
X146391666Y-120504200D02*
X146467857Y-120542295D01*
X146467857Y-120542295D02*
X146620238Y-120542295D01*
X146620238Y-120542295D02*
X146696428Y-120504200D01*
X146696428Y-120504200D02*
X146734523Y-120466104D01*
X146734523Y-120466104D02*
X146772619Y-120389914D01*
X146772619Y-120389914D02*
X146772619Y-119742295D01*
X147572618Y-120542295D02*
X147115475Y-120542295D01*
X147344047Y-120542295D02*
X147344047Y-119742295D01*
X147344047Y-119742295D02*
X147267856Y-119856580D01*
X147267856Y-119856580D02*
X147191666Y-119932771D01*
X147191666Y-119932771D02*
X147115475Y-119970866D01*
D15*
X121454405Y-140366095D02*
X121187738Y-139985142D01*
X120997262Y-140366095D02*
X120997262Y-139566095D01*
X120997262Y-139566095D02*
X121302024Y-139566095D01*
X121302024Y-139566095D02*
X121378214Y-139604190D01*
X121378214Y-139604190D02*
X121416309Y-139642285D01*
X121416309Y-139642285D02*
X121454405Y-139718476D01*
X121454405Y-139718476D02*
X121454405Y-139832761D01*
X121454405Y-139832761D02*
X121416309Y-139908952D01*
X121416309Y-139908952D02*
X121378214Y-139947047D01*
X121378214Y-139947047D02*
X121302024Y-139985142D01*
X121302024Y-139985142D02*
X120997262Y-139985142D01*
X121682976Y-139566095D02*
X122140119Y-139566095D01*
X121911547Y-140366095D02*
X121911547Y-139566095D01*
X122825833Y-140366095D02*
X122368690Y-140366095D01*
X122597262Y-140366095D02*
X122597262Y-139566095D01*
X122597262Y-139566095D02*
X122521071Y-139680380D01*
X122521071Y-139680380D02*
X122444881Y-139756571D01*
X122444881Y-139756571D02*
X122368690Y-139794666D01*
D14*
X124356667Y-115972295D02*
X124090000Y-115591342D01*
X123899524Y-115972295D02*
X123899524Y-115172295D01*
X123899524Y-115172295D02*
X124204286Y-115172295D01*
X124204286Y-115172295D02*
X124280476Y-115210390D01*
X124280476Y-115210390D02*
X124318571Y-115248485D01*
X124318571Y-115248485D02*
X124356667Y-115324676D01*
X124356667Y-115324676D02*
X124356667Y-115438961D01*
X124356667Y-115438961D02*
X124318571Y-115515152D01*
X124318571Y-115515152D02*
X124280476Y-115553247D01*
X124280476Y-115553247D02*
X124204286Y-115591342D01*
X124204286Y-115591342D02*
X123899524Y-115591342D01*
X125042381Y-115438961D02*
X125042381Y-115972295D01*
X124851905Y-115134200D02*
X124661428Y-115705628D01*
X124661428Y-115705628D02*
X125156667Y-115705628D01*
X153064819Y-137353333D02*
X153779104Y-137353333D01*
X153779104Y-137353333D02*
X153921961Y-137400952D01*
X153921961Y-137400952D02*
X154017200Y-137496190D01*
X154017200Y-137496190D02*
X154064819Y-137639047D01*
X154064819Y-137639047D02*
X154064819Y-137734285D01*
X153160057Y-136924761D02*
X153112438Y-136877142D01*
X153112438Y-136877142D02*
X153064819Y-136781904D01*
X153064819Y-136781904D02*
X153064819Y-136543809D01*
X153064819Y-136543809D02*
X153112438Y-136448571D01*
X153112438Y-136448571D02*
X153160057Y-136400952D01*
X153160057Y-136400952D02*
X153255295Y-136353333D01*
X153255295Y-136353333D02*
X153350533Y-136353333D01*
X153350533Y-136353333D02*
X153493390Y-136400952D01*
X153493390Y-136400952D02*
X154064819Y-136972380D01*
X154064819Y-136972380D02*
X154064819Y-136353333D01*
X128335476Y-145202295D02*
X128335476Y-145849914D01*
X128335476Y-145849914D02*
X128373571Y-145926104D01*
X128373571Y-145926104D02*
X128411666Y-145964200D01*
X128411666Y-145964200D02*
X128487857Y-146002295D01*
X128487857Y-146002295D02*
X128640238Y-146002295D01*
X128640238Y-146002295D02*
X128716428Y-145964200D01*
X128716428Y-145964200D02*
X128754523Y-145926104D01*
X128754523Y-145926104D02*
X128792619Y-145849914D01*
X128792619Y-145849914D02*
X128792619Y-145202295D01*
X129554523Y-145202295D02*
X129173571Y-145202295D01*
X129173571Y-145202295D02*
X129135475Y-145583247D01*
X129135475Y-145583247D02*
X129173571Y-145545152D01*
X129173571Y-145545152D02*
X129249761Y-145507057D01*
X129249761Y-145507057D02*
X129440237Y-145507057D01*
X129440237Y-145507057D02*
X129516428Y-145545152D01*
X129516428Y-145545152D02*
X129554523Y-145583247D01*
X129554523Y-145583247D02*
X129592618Y-145659438D01*
X129592618Y-145659438D02*
X129592618Y-145849914D01*
X129592618Y-145849914D02*
X129554523Y-145926104D01*
X129554523Y-145926104D02*
X129516428Y-145964200D01*
X129516428Y-145964200D02*
X129440237Y-146002295D01*
X129440237Y-146002295D02*
X129249761Y-146002295D01*
X129249761Y-146002295D02*
X129173571Y-145964200D01*
X129173571Y-145964200D02*
X129135475Y-145926104D01*
X151643333Y-120419580D02*
X151595714Y-120467200D01*
X151595714Y-120467200D02*
X151452857Y-120514819D01*
X151452857Y-120514819D02*
X151357619Y-120514819D01*
X151357619Y-120514819D02*
X151214762Y-120467200D01*
X151214762Y-120467200D02*
X151119524Y-120371961D01*
X151119524Y-120371961D02*
X151071905Y-120276723D01*
X151071905Y-120276723D02*
X151024286Y-120086247D01*
X151024286Y-120086247D02*
X151024286Y-119943390D01*
X151024286Y-119943390D02*
X151071905Y-119752914D01*
X151071905Y-119752914D02*
X151119524Y-119657676D01*
X151119524Y-119657676D02*
X151214762Y-119562438D01*
X151214762Y-119562438D02*
X151357619Y-119514819D01*
X151357619Y-119514819D02*
X151452857Y-119514819D01*
X151452857Y-119514819D02*
X151595714Y-119562438D01*
X151595714Y-119562438D02*
X151643333Y-119610057D01*
X152595714Y-120514819D02*
X152024286Y-120514819D01*
X152310000Y-120514819D02*
X152310000Y-119514819D01*
X152310000Y-119514819D02*
X152214762Y-119657676D01*
X152214762Y-119657676D02*
X152119524Y-119752914D01*
X152119524Y-119752914D02*
X152024286Y-119800533D01*
X138962295Y-125494285D02*
X138581342Y-125760952D01*
X138962295Y-125951428D02*
X138162295Y-125951428D01*
X138162295Y-125951428D02*
X138162295Y-125646666D01*
X138162295Y-125646666D02*
X138200390Y-125570476D01*
X138200390Y-125570476D02*
X138238485Y-125532381D01*
X138238485Y-125532381D02*
X138314676Y-125494285D01*
X138314676Y-125494285D02*
X138428961Y-125494285D01*
X138428961Y-125494285D02*
X138505152Y-125532381D01*
X138505152Y-125532381D02*
X138543247Y-125570476D01*
X138543247Y-125570476D02*
X138581342Y-125646666D01*
X138581342Y-125646666D02*
X138581342Y-125951428D01*
X138962295Y-124732381D02*
X138962295Y-125189524D01*
X138962295Y-124960952D02*
X138162295Y-124960952D01*
X138162295Y-124960952D02*
X138276580Y-125037143D01*
X138276580Y-125037143D02*
X138352771Y-125113333D01*
X138352771Y-125113333D02*
X138390866Y-125189524D01*
X138162295Y-124008571D02*
X138162295Y-124389523D01*
X138162295Y-124389523D02*
X138543247Y-124427619D01*
X138543247Y-124427619D02*
X138505152Y-124389523D01*
X138505152Y-124389523D02*
X138467057Y-124313333D01*
X138467057Y-124313333D02*
X138467057Y-124122857D01*
X138467057Y-124122857D02*
X138505152Y-124046666D01*
X138505152Y-124046666D02*
X138543247Y-124008571D01*
X138543247Y-124008571D02*
X138619438Y-123970476D01*
X138619438Y-123970476D02*
X138809914Y-123970476D01*
X138809914Y-123970476D02*
X138886104Y-124008571D01*
X138886104Y-124008571D02*
X138924200Y-124046666D01*
X138924200Y-124046666D02*
X138962295Y-124122857D01*
X138962295Y-124122857D02*
X138962295Y-124313333D01*
X138962295Y-124313333D02*
X138924200Y-124389523D01*
X138924200Y-124389523D02*
X138886104Y-124427619D01*
D16*
%TO.C,D5*%
X168872500Y-118440000D02*
X169522500Y-118440000D01*
X168872500Y-118440000D02*
X168222500Y-118440000D01*
X168872500Y-115320000D02*
X169522500Y-115320000D01*
X168872500Y-115320000D02*
X168222500Y-115320000D01*
X170275000Y-118720000D02*
X169795000Y-118720000D01*
X170035000Y-118390000D01*
X170275000Y-118720000D01*
G36*
X170275000Y-118720000D02*
G01*
X169795000Y-118720000D01*
X170035000Y-118390000D01*
X170275000Y-118720000D01*
G37*
%TO.C,R29*%
X181382742Y-128487500D02*
X181857258Y-128487500D01*
X181382742Y-129532500D02*
X181857258Y-129532500D01*
%TO.C,C3*%
X122558080Y-149092500D02*
X122276920Y-149092500D01*
X122558080Y-150112500D02*
X122276920Y-150112500D01*
%TO.C,Q2*%
X174057500Y-125002500D02*
X174057500Y-124352500D01*
X174057500Y-125002500D02*
X174057500Y-125652500D01*
X177177500Y-125002500D02*
X177177500Y-124352500D01*
X177177500Y-125002500D02*
X177177500Y-125652500D01*
X174107500Y-126165000D02*
X173777500Y-126405000D01*
X173777500Y-125925000D01*
X174107500Y-126165000D01*
G36*
X174107500Y-126165000D02*
G01*
X173777500Y-126405000D01*
X173777500Y-125925000D01*
X174107500Y-126165000D01*
G37*
%TO.C,TP2*%
X184255000Y-147090000D02*
G75*
G02*
X180755000Y-147090000I-1750000J0D01*
G01*
X180755000Y-147090000D02*
G75*
G02*
X184255000Y-147090000I1750000J0D01*
G01*
D17*
%TO.C,PS1*%
X135030000Y-110980000D02*
X135030000Y-116980000D01*
X135030000Y-116980000D02*
X154530000Y-116980000D01*
X154530000Y-110980000D02*
X135030000Y-110980000D01*
X154530000Y-116980000D02*
X154530000Y-110980000D01*
D13*
X155167000Y-115630000D02*
G75*
G02*
X154967000Y-115630000I-100000J0D01*
G01*
X154967000Y-115630000D02*
G75*
G02*
X155167000Y-115630000I100000J0D01*
G01*
D16*
%TO.C,C5*%
X122665000Y-126959420D02*
X122665000Y-127240580D01*
X123685000Y-126959420D02*
X123685000Y-127240580D01*
%TO.C,R20*%
X139247500Y-144822742D02*
X139247500Y-145297258D01*
X140292500Y-144822742D02*
X140292500Y-145297258D01*
%TO.C,C7*%
X122682500Y-147136920D02*
X122682500Y-147418080D01*
X123702500Y-147136920D02*
X123702500Y-147418080D01*
%TO.C,C9*%
X179549420Y-133190000D02*
X179830580Y-133190000D01*
X179549420Y-134210000D02*
X179830580Y-134210000D01*
D17*
%TO.C,F4*%
X115805000Y-140560000D02*
X118215000Y-140560000D01*
X115805000Y-148180000D02*
X115805000Y-140560000D01*
X118215000Y-140560000D02*
X118215000Y-148180000D01*
X118215000Y-148180000D02*
X115805000Y-148180000D01*
D16*
%TO.C,Q3*%
X185147500Y-129110000D02*
X185147500Y-128460000D01*
X185147500Y-129110000D02*
X185147500Y-129760000D01*
X188267500Y-129110000D02*
X188267500Y-128460000D01*
X188267500Y-129110000D02*
X188267500Y-129760000D01*
X185197500Y-130272500D02*
X184867500Y-130512500D01*
X184867500Y-130032500D01*
X185197500Y-130272500D01*
G36*
X185197500Y-130272500D02*
G01*
X184867500Y-130512500D01*
X184867500Y-130032500D01*
X185197500Y-130272500D01*
G37*
%TO.C,R17*%
X136102500Y-125937258D02*
X136102500Y-125462742D01*
X137147500Y-125937258D02*
X137147500Y-125462742D01*
%TO.C,R11*%
X119420000Y-141752742D02*
X119420000Y-142227258D01*
X120465000Y-141752742D02*
X120465000Y-142227258D01*
D17*
%TO.C,F3*%
X115875000Y-115740000D02*
X118285000Y-115740000D01*
X115875000Y-123360000D02*
X115875000Y-115740000D01*
X118285000Y-115740000D02*
X118285000Y-123360000D01*
X118285000Y-123360000D02*
X115875000Y-123360000D01*
D16*
%TO.C,Q4*%
X179455000Y-124952500D02*
X179455000Y-124302500D01*
X179455000Y-124952500D02*
X179455000Y-125602500D01*
X182575000Y-124952500D02*
X182575000Y-124302500D01*
X182575000Y-124952500D02*
X182575000Y-125602500D01*
X179505000Y-126115000D02*
X179175000Y-126355000D01*
X179175000Y-125875000D01*
X179505000Y-126115000D01*
G36*
X179505000Y-126115000D02*
G01*
X179175000Y-126355000D01*
X179175000Y-125875000D01*
X179505000Y-126115000D01*
G37*
%TO.C,CL2*%
X136938748Y-129320000D02*
X138361252Y-129320000D01*
X136938748Y-132040000D02*
X138361252Y-132040000D01*
%TO.C,C2*%
X137201252Y-117555000D02*
X136678748Y-117555000D01*
X137201252Y-119025000D02*
X136678748Y-119025000D01*
%TO.C,R14*%
X165017500Y-118827258D02*
X165017500Y-118352742D01*
X166062500Y-118827258D02*
X166062500Y-118352742D01*
%TO.C,D2*%
X176840000Y-122982500D02*
X176840000Y-122332500D01*
X176840000Y-122982500D02*
X176840000Y-123632500D01*
X179960000Y-122982500D02*
X179960000Y-122332500D01*
X179960000Y-122982500D02*
X179960000Y-123632500D01*
X180240000Y-122060000D02*
X179910000Y-121820000D01*
X180240000Y-121580000D01*
X180240000Y-122060000D01*
G36*
X180240000Y-122060000D02*
G01*
X179910000Y-121820000D01*
X180240000Y-121580000D01*
X180240000Y-122060000D01*
G37*
%TO.C,R7*%
X124990436Y-132570000D02*
X126444564Y-132570000D01*
X124990436Y-134390000D02*
X126444564Y-134390000D01*
%TO.C,R24*%
X153647500Y-125642742D02*
X153647500Y-126117258D01*
X154692500Y-125642742D02*
X154692500Y-126117258D01*
D18*
%TO.C,G\u002A\u002A\u002A*%
G36*
X191933223Y-134289905D02*
G01*
X191933223Y-134615873D01*
X192047949Y-134615873D01*
X192162675Y-134615873D01*
X192162675Y-135038357D01*
X192162675Y-135460840D01*
X191921379Y-135460840D01*
X191680082Y-135460840D01*
X191349569Y-135130312D01*
X191019056Y-134799784D01*
X191019056Y-134381861D01*
X191019056Y-133963937D01*
X191476140Y-133963937D01*
X191933223Y-133963937D01*
X191933223Y-134289905D01*
G37*
G36*
X193422842Y-134080485D02*
G01*
X193422842Y-134502968D01*
X193306294Y-134502968D01*
X193189747Y-134502968D01*
X193189747Y-135786808D01*
X193189747Y-137070648D01*
X193990990Y-137070648D01*
X194792232Y-137070648D01*
X194793162Y-136743770D01*
X194794092Y-136416891D01*
X195250265Y-136415967D01*
X195706438Y-136415042D01*
X195706438Y-136834815D01*
X195706438Y-137254589D01*
X195375910Y-137585102D01*
X195045382Y-137915615D01*
X193992815Y-137915615D01*
X192940248Y-137915615D01*
X192607914Y-137583266D01*
X192275580Y-137250917D01*
X192275580Y-135786808D01*
X192275580Y-134322699D01*
X192607914Y-133990350D01*
X192940248Y-133658001D01*
X193181545Y-133658001D01*
X193422842Y-133658001D01*
X193422842Y-134080485D01*
G37*
G36*
X195375925Y-133988529D02*
G01*
X195706438Y-134319057D01*
X195706438Y-134738801D01*
X195706438Y-135158546D01*
X195251782Y-135158546D01*
X195194825Y-135158527D01*
X195139888Y-135158471D01*
X195087412Y-135158381D01*
X195037837Y-135158259D01*
X194991601Y-135158108D01*
X194949145Y-135157929D01*
X194910908Y-135157725D01*
X194877329Y-135157499D01*
X194848847Y-135157252D01*
X194825904Y-135156988D01*
X194808937Y-135156708D01*
X194798387Y-135156414D01*
X194794699Y-135156118D01*
X194794341Y-135152198D01*
X194793998Y-135141514D01*
X194793675Y-135124588D01*
X194793376Y-135101942D01*
X194793105Y-135074095D01*
X194792865Y-135041569D01*
X194792660Y-135004886D01*
X194792495Y-134964565D01*
X194792372Y-134921129D01*
X194792296Y-134875098D01*
X194792271Y-134828329D01*
X194792271Y-134502968D01*
X194677545Y-134502968D01*
X194562819Y-134502968D01*
X194562819Y-134080485D01*
X194562819Y-133658001D01*
X194804115Y-133658001D01*
X195045412Y-133658001D01*
X195375925Y-133988529D01*
G37*
G36*
X194119401Y-131114913D02*
G01*
X194449914Y-131445441D01*
X194449914Y-131863364D01*
X194449914Y-132281288D01*
X193992830Y-132281288D01*
X193535747Y-132281288D01*
X193535747Y-131955320D01*
X193535747Y-131629352D01*
X192734485Y-131629352D01*
X191933223Y-131629352D01*
X191933223Y-132164740D01*
X191933223Y-132700129D01*
X192861055Y-132700129D01*
X193788888Y-132700129D01*
X194119401Y-133030657D01*
X194449914Y-133361185D01*
X194449914Y-134080500D01*
X194449914Y-134799814D01*
X194119386Y-135130327D01*
X193788858Y-135460840D01*
X193545755Y-135460840D01*
X193302652Y-135460840D01*
X193302652Y-135038357D01*
X193302652Y-134615873D01*
X193419199Y-134615873D01*
X193535747Y-134615873D01*
X193535747Y-134080485D01*
X193535747Y-133545096D01*
X192607914Y-133545096D01*
X191680082Y-133545096D01*
X191349569Y-133214568D01*
X191019056Y-132884040D01*
X191019056Y-132164725D01*
X191019056Y-131445411D01*
X191349584Y-131114898D01*
X191680112Y-130784385D01*
X192734500Y-130784385D01*
X193788888Y-130784385D01*
X194119401Y-131114913D01*
G37*
D17*
%TO.C,F2*%
X114350000Y-132695000D02*
X121970000Y-132695000D01*
X114350000Y-135105000D02*
X114350000Y-132695000D01*
X121970000Y-132695000D02*
X121970000Y-135105000D01*
X121970000Y-135105000D02*
X114350000Y-135105000D01*
%TO.C,U2*%
X132150000Y-120355000D02*
X125800000Y-120355000D01*
X132150000Y-129945000D02*
X125800000Y-129945000D01*
D13*
X134110000Y-128960000D02*
G75*
G02*
X133910000Y-128960000I-100000J0D01*
G01*
X133910000Y-128960000D02*
G75*
G02*
X134110000Y-128960000I100000J0D01*
G01*
D16*
%TO.C,C10*%
X179810580Y-134770000D02*
X179529420Y-134770000D01*
X179810580Y-135790000D02*
X179529420Y-135790000D01*
%TO.C,RT2*%
X121252500Y-121712742D02*
X121252500Y-122187258D01*
X122297500Y-121712742D02*
X122297500Y-122187258D01*
%TO.C,R27*%
X172217500Y-122747258D02*
X172217500Y-122272742D01*
X173262500Y-122747258D02*
X173262500Y-122272742D01*
%TO.C,R8*%
X130215436Y-132570000D02*
X131669564Y-132570000D01*
X130215436Y-134390000D02*
X131669564Y-134390000D01*
%TO.C,R1*%
X124025436Y-111925000D02*
X125479564Y-111925000D01*
X124025436Y-113745000D02*
X125479564Y-113745000D01*
%TO.C,D3*%
X138790000Y-117600000D02*
X138790000Y-118800000D01*
X140750000Y-117600000D02*
X138790000Y-117600000D01*
X140750000Y-118800000D02*
X138790000Y-118800000D01*
%TO.C,R12*%
X138902742Y-121407500D02*
X139377258Y-121407500D01*
X138902742Y-122452500D02*
X139377258Y-122452500D01*
%TO.C,R30*%
X181857258Y-130047500D02*
X181382742Y-130047500D01*
X181857258Y-131092500D02*
X181382742Y-131092500D01*
%TO.C,D6*%
X165090000Y-124410000D02*
X165090000Y-121750000D01*
X165090000Y-124410000D02*
X166790000Y-124410000D01*
X166790000Y-124410000D02*
X166790000Y-121750000D01*
%TO.C,C8*%
X174760580Y-140790000D02*
X174479420Y-140790000D01*
X174760580Y-141810000D02*
X174479420Y-141810000D01*
%TO.C,R6*%
X119552500Y-121687742D02*
X119552500Y-122162258D01*
X120597500Y-121687742D02*
X120597500Y-122162258D01*
%TO.C,R10*%
X126307064Y-136870000D02*
X124852936Y-136870000D01*
X126307064Y-138690000D02*
X124852936Y-138690000D01*
%TO.C,RL1*%
X134387500Y-149287258D02*
X134387500Y-148812742D01*
X135432500Y-149287258D02*
X135432500Y-148812742D01*
%TO.C,R21*%
X120170000Y-145752742D02*
X120170000Y-146227258D01*
X121215000Y-145752742D02*
X121215000Y-146227258D01*
%TO.C,R3*%
X130317064Y-116700000D02*
X128862936Y-116700000D01*
X130317064Y-118520000D02*
X128862936Y-118520000D01*
%TO.C,C14*%
X158000000Y-116401252D02*
X158000000Y-114978748D01*
X159820000Y-116401252D02*
X159820000Y-114978748D01*
%TO.C,CT1*%
X122857500Y-141849420D02*
X122857500Y-142130580D01*
X123877500Y-141849420D02*
X123877500Y-142130580D01*
%TO.C,C4*%
X122715580Y-128890000D02*
X122434420Y-128890000D01*
X122715580Y-129910000D02*
X122434420Y-129910000D01*
%TO.C,Q5*%
X169052500Y-121090000D02*
X168402500Y-121090000D01*
X169052500Y-121090000D02*
X169702500Y-121090000D01*
X169052500Y-124210000D02*
X168402500Y-124210000D01*
X169052500Y-124210000D02*
X169702500Y-124210000D01*
X167890000Y-121140000D02*
X167650000Y-120810000D01*
X168130000Y-120810000D01*
X167890000Y-121140000D01*
G36*
X167890000Y-121140000D02*
G01*
X167650000Y-120810000D01*
X168130000Y-120810000D01*
X167890000Y-121140000D01*
G37*
%TO.C,R25*%
X153677500Y-145522742D02*
X153677500Y-145997258D01*
X154722500Y-145522742D02*
X154722500Y-145997258D01*
%TO.C,C6*%
X177859420Y-140810000D02*
X178140580Y-140810000D01*
X177859420Y-141830000D02*
X178140580Y-141830000D01*
%TO.C,RS2*%
X134477500Y-125437742D02*
X134477500Y-125912258D01*
X135522500Y-125437742D02*
X135522500Y-125912258D01*
D18*
%TO.C,G\u002A\u002A\u002A*%
G36*
X117041786Y-126407676D02*
G01*
X117181921Y-126407831D01*
X117297264Y-126408199D01*
X117390380Y-126408884D01*
X117463831Y-126409989D01*
X117520182Y-126411617D01*
X117561998Y-126413872D01*
X117591840Y-126416857D01*
X117612275Y-126420675D01*
X117625865Y-126425430D01*
X117635175Y-126431226D01*
X117635658Y-126431613D01*
X117675584Y-126478200D01*
X117694507Y-126532662D01*
X117695391Y-126546818D01*
X117690423Y-126565503D01*
X117676172Y-126606980D01*
X117653617Y-126668681D01*
X117623734Y-126748037D01*
X117587503Y-126842483D01*
X117545901Y-126949450D01*
X117499906Y-127066371D01*
X117450496Y-127190678D01*
X117442348Y-127211059D01*
X117392672Y-127335336D01*
X117346224Y-127451768D01*
X117303973Y-127557917D01*
X117266885Y-127651341D01*
X117235925Y-127729603D01*
X117212062Y-127790261D01*
X117196262Y-127830876D01*
X117189491Y-127849007D01*
X117189305Y-127849712D01*
X117202386Y-127851530D01*
X117239235Y-127853450D01*
X117296269Y-127855369D01*
X117369903Y-127857183D01*
X117456549Y-127858789D01*
X117546076Y-127860009D01*
X117902846Y-127864077D01*
X117942737Y-127908746D01*
X117974242Y-127961741D01*
X117982827Y-128019942D01*
X117967804Y-128075736D01*
X117959101Y-128090139D01*
X117943025Y-128110815D01*
X117910963Y-128149875D01*
X117864400Y-128205596D01*
X117804820Y-128276255D01*
X117733708Y-128360129D01*
X117652548Y-128455493D01*
X117562824Y-128560624D01*
X117466020Y-128673799D01*
X117363621Y-128793294D01*
X117257112Y-128917386D01*
X117147975Y-129044351D01*
X117037697Y-129172465D01*
X116927761Y-129300006D01*
X116819651Y-129425248D01*
X116714853Y-129546470D01*
X116614849Y-129661947D01*
X116521125Y-129769957D01*
X116435165Y-129868774D01*
X116358453Y-129956677D01*
X116292473Y-130031940D01*
X116238710Y-130092842D01*
X116198649Y-130137658D01*
X116173773Y-130164664D01*
X116166025Y-130172163D01*
X116109757Y-130194997D01*
X116054400Y-130190691D01*
X116001564Y-130159453D01*
X115991115Y-130149666D01*
X115956789Y-130106459D01*
X115944729Y-130065612D01*
X115944610Y-130060825D01*
X115949598Y-130039930D01*
X115963900Y-129996349D01*
X115986520Y-129932733D01*
X116016463Y-129851738D01*
X116052736Y-129756015D01*
X116094343Y-129648217D01*
X116140289Y-129530998D01*
X116189579Y-129407010D01*
X116192588Y-129399495D01*
X116242062Y-129275855D01*
X116288517Y-129159475D01*
X116330941Y-129052915D01*
X116368318Y-128958736D01*
X116399636Y-128879497D01*
X116423879Y-128817760D01*
X116440034Y-128776085D01*
X116447087Y-128757031D01*
X116447226Y-128756565D01*
X116447692Y-128749328D01*
X116442576Y-128743712D01*
X116428882Y-128739513D01*
X116403611Y-128736528D01*
X116363767Y-128734551D01*
X116306353Y-128733379D01*
X116228371Y-128732808D01*
X116126825Y-128732634D01*
X116095611Y-128732628D01*
X115737336Y-128732628D01*
X115697354Y-128692646D01*
X115667934Y-128654189D01*
X115657678Y-128611274D01*
X115657372Y-128599456D01*
X115662154Y-128574736D01*
X115676430Y-128524707D01*
X115700097Y-128449677D01*
X115707163Y-128428293D01*
X116015956Y-128428293D01*
X116019723Y-128433665D01*
X116036795Y-128437860D01*
X116069640Y-128440998D01*
X116120722Y-128443198D01*
X116192508Y-128444580D01*
X116287463Y-128445264D01*
X116368531Y-128445391D01*
X116726990Y-128445391D01*
X116773495Y-128491896D01*
X116807750Y-128534961D01*
X116819863Y-128575704D01*
X116820000Y-128580878D01*
X116815018Y-128604952D01*
X116801005Y-128650364D01*
X116779359Y-128713162D01*
X116751481Y-128789394D01*
X116718768Y-128875109D01*
X116690124Y-128947687D01*
X116655491Y-129035510D01*
X116626499Y-129111685D01*
X116604130Y-129173418D01*
X116589365Y-129217914D01*
X116583187Y-129242379D01*
X116585645Y-129245107D01*
X116599314Y-129229674D01*
X116628964Y-129195529D01*
X116672803Y-129144757D01*
X116729040Y-129079441D01*
X116795883Y-129001665D01*
X116871539Y-128913514D01*
X116954217Y-128817071D01*
X117042123Y-128714419D01*
X117064584Y-128688175D01*
X117518126Y-128158153D01*
X117229935Y-128158153D01*
X117127652Y-128157760D01*
X117049145Y-128156433D01*
X116990846Y-128153949D01*
X116949183Y-128150086D01*
X116920587Y-128144620D01*
X116902219Y-128137714D01*
X116852316Y-128099340D01*
X116824679Y-128049231D01*
X116820000Y-128015576D01*
X116824973Y-127995090D01*
X116839238Y-127951862D01*
X116861816Y-127888500D01*
X116891727Y-127807617D01*
X116927992Y-127711823D01*
X116969631Y-127603729D01*
X117015664Y-127485946D01*
X117065112Y-127361084D01*
X117073043Y-127341204D01*
X117122681Y-127216781D01*
X117169097Y-127100193D01*
X117211324Y-126993882D01*
X117248399Y-126900286D01*
X117279357Y-126821844D01*
X117303234Y-126760997D01*
X117319066Y-126720185D01*
X117325887Y-126701847D01*
X117326085Y-126701093D01*
X117313014Y-126699332D01*
X117276225Y-126697753D01*
X117219357Y-126696423D01*
X117146048Y-126695412D01*
X117059937Y-126694787D01*
X116979597Y-126694610D01*
X116633110Y-126694610D01*
X116327475Y-127552903D01*
X116275241Y-127699596D01*
X116225651Y-127838882D01*
X116179475Y-127968591D01*
X116137488Y-128086554D01*
X116100460Y-128190599D01*
X116069165Y-128278556D01*
X116044375Y-128348256D01*
X116026861Y-128397529D01*
X116017397Y-128424203D01*
X116015956Y-128428293D01*
X115707163Y-128428293D01*
X115733049Y-128349954D01*
X115775182Y-128225847D01*
X115826393Y-128077663D01*
X115886577Y-127905710D01*
X115955629Y-127710296D01*
X116013142Y-127548620D01*
X116070025Y-127389258D01*
X116124670Y-127236453D01*
X116176320Y-127092304D01*
X116224219Y-126958905D01*
X116267611Y-126838354D01*
X116305740Y-126732749D01*
X116337850Y-126644185D01*
X116363186Y-126574759D01*
X116380990Y-126526569D01*
X116390508Y-126501711D01*
X116391228Y-126499999D01*
X116400867Y-126477996D01*
X116410436Y-126459782D01*
X116422448Y-126445003D01*
X116439415Y-126433300D01*
X116463848Y-126424319D01*
X116498260Y-126417701D01*
X116545163Y-126413092D01*
X116607069Y-126410134D01*
X116686491Y-126408470D01*
X116785939Y-126407745D01*
X116907927Y-126407601D01*
X117041786Y-126407676D01*
G37*
G36*
X116911361Y-124364998D02*
G01*
X116918082Y-124365999D01*
X117030467Y-124394333D01*
X117137147Y-124441844D01*
X117230502Y-124504625D01*
X117280374Y-124551713D01*
X117291136Y-124565585D01*
X117307371Y-124589782D01*
X117329513Y-124625073D01*
X117357993Y-124672227D01*
X117393245Y-124732014D01*
X117435700Y-124805202D01*
X117485792Y-124892562D01*
X117543953Y-124994861D01*
X117610616Y-125112870D01*
X117686213Y-125247357D01*
X117771177Y-125399092D01*
X117865940Y-125568844D01*
X117970936Y-125757382D01*
X118086596Y-125965475D01*
X118213354Y-126193892D01*
X118351642Y-126443403D01*
X118501892Y-126714777D01*
X118664537Y-127008783D01*
X118796468Y-127247410D01*
X118934557Y-127497320D01*
X119069364Y-127741461D01*
X119200273Y-127978708D01*
X119326664Y-128207935D01*
X119447922Y-128428018D01*
X119563427Y-128637832D01*
X119672564Y-128836253D01*
X119774715Y-129022154D01*
X119869262Y-129194411D01*
X119955588Y-129351899D01*
X120033075Y-129493494D01*
X120101107Y-129618069D01*
X120159065Y-129724501D01*
X120206333Y-129811664D01*
X120242292Y-129878434D01*
X120266326Y-129923684D01*
X120277817Y-129946291D01*
X120278408Y-129947630D01*
X120310940Y-130060327D01*
X120319214Y-130178388D01*
X120304391Y-130297065D01*
X120267630Y-130411606D01*
X120210092Y-130517264D01*
X120132937Y-130609288D01*
X120112123Y-130628389D01*
X120032220Y-130684957D01*
X119937229Y-130731868D01*
X119839093Y-130763667D01*
X119799146Y-130771302D01*
X119776856Y-130772547D01*
X119728768Y-130773715D01*
X119656433Y-130774807D01*
X119561405Y-130775824D01*
X119445236Y-130776764D01*
X119309480Y-130777630D01*
X119155688Y-130778419D01*
X118985414Y-130779134D01*
X118800210Y-130779774D01*
X118601629Y-130780339D01*
X118391224Y-130780830D01*
X118170547Y-130781246D01*
X117941151Y-130781589D01*
X117704590Y-130781857D01*
X117462415Y-130782052D01*
X117216179Y-130782174D01*
X116967436Y-130782222D01*
X116717737Y-130782197D01*
X116468636Y-130782100D01*
X116221686Y-130781929D01*
X115978438Y-130781687D01*
X115740447Y-130781372D01*
X115509263Y-130780985D01*
X115286441Y-130780526D01*
X115073533Y-130779996D01*
X114872092Y-130779395D01*
X114683670Y-130778722D01*
X114509821Y-130777978D01*
X114352096Y-130777164D01*
X114212049Y-130776279D01*
X114091232Y-130775324D01*
X113991199Y-130774298D01*
X113913501Y-130773203D01*
X113859692Y-130772038D01*
X113831324Y-130770804D01*
X113828535Y-130770506D01*
X113751503Y-130751009D01*
X113667273Y-130716387D01*
X113586920Y-130671874D01*
X113527878Y-130628389D01*
X113446289Y-130540251D01*
X113384045Y-130437365D01*
X113342306Y-130324481D01*
X113322233Y-130206348D01*
X113322460Y-130196561D01*
X113621591Y-130196561D01*
X113635144Y-130272027D01*
X113646367Y-130302233D01*
X113695134Y-130378288D01*
X113764452Y-130436441D01*
X113804007Y-130457606D01*
X113810957Y-130460464D01*
X113819632Y-130463097D01*
X113831125Y-130465515D01*
X113846526Y-130467728D01*
X113866930Y-130469745D01*
X113893428Y-130471575D01*
X113927114Y-130473228D01*
X113969079Y-130474711D01*
X114020416Y-130476036D01*
X114082219Y-130477211D01*
X114155578Y-130478244D01*
X114241588Y-130479147D01*
X114341340Y-130479927D01*
X114455928Y-130480595D01*
X114586443Y-130481158D01*
X114733978Y-130481627D01*
X114899626Y-130482011D01*
X115084479Y-130482319D01*
X115289630Y-130482561D01*
X115516171Y-130482745D01*
X115765196Y-130482881D01*
X116037796Y-130482977D01*
X116335064Y-130483045D01*
X116658093Y-130483091D01*
X116815690Y-130483108D01*
X117193630Y-130483092D01*
X117544555Y-130482962D01*
X117868805Y-130482716D01*
X118166721Y-130482353D01*
X118438643Y-130481872D01*
X118684913Y-130481271D01*
X118905870Y-130480548D01*
X119101855Y-130479701D01*
X119273209Y-130478729D01*
X119420271Y-130477631D01*
X119543384Y-130476405D01*
X119642886Y-130475048D01*
X119719120Y-130473561D01*
X119772425Y-130471940D01*
X119803141Y-130470185D01*
X119811167Y-130468966D01*
X119889409Y-130426322D01*
X119951599Y-130365787D01*
X119995559Y-130292202D01*
X120019111Y-130210409D01*
X120020075Y-130125249D01*
X119999818Y-130049697D01*
X119991290Y-130033104D01*
X119970133Y-129993688D01*
X119936962Y-129932562D01*
X119892388Y-129850841D01*
X119837024Y-129749640D01*
X119771483Y-129630072D01*
X119696379Y-129493252D01*
X119612324Y-129340294D01*
X119519932Y-129172313D01*
X119419814Y-128990423D01*
X119312584Y-128795737D01*
X119198854Y-128589371D01*
X119079239Y-128372439D01*
X118954350Y-128146054D01*
X118824800Y-127911331D01*
X118691203Y-127669385D01*
X118554171Y-127421330D01*
X118540113Y-127395889D01*
X118365660Y-127080352D01*
X118200996Y-126782876D01*
X118046355Y-126503878D01*
X117901969Y-126243772D01*
X117768072Y-126002975D01*
X117644896Y-125781901D01*
X117532674Y-125580967D01*
X117431639Y-125400588D01*
X117342024Y-125241179D01*
X117264062Y-125103157D01*
X117197985Y-124986936D01*
X117144027Y-124892932D01*
X117102420Y-124821560D01*
X117073397Y-124773237D01*
X117057192Y-124748377D01*
X117054857Y-124745550D01*
X116987929Y-124696885D01*
X116908060Y-124667530D01*
X116821665Y-124657488D01*
X116735157Y-124666761D01*
X116654951Y-124695351D01*
X116587459Y-124743260D01*
X116585290Y-124745403D01*
X116573048Y-124763052D01*
X116547929Y-124804263D01*
X116510182Y-124868594D01*
X116460051Y-124955604D01*
X116397786Y-125064853D01*
X116323633Y-125195900D01*
X116237839Y-125348303D01*
X116140651Y-125521621D01*
X116032317Y-125715414D01*
X115913084Y-125929240D01*
X115783198Y-126162659D01*
X115642907Y-126415230D01*
X115492458Y-126686511D01*
X115332098Y-126976061D01*
X115162075Y-127283441D01*
X115100126Y-127395522D01*
X114962772Y-127644132D01*
X114828790Y-127886748D01*
X114698794Y-128122255D01*
X114573396Y-128349539D01*
X114453208Y-128567485D01*
X114338845Y-128774979D01*
X114230918Y-128970907D01*
X114130042Y-129154154D01*
X114036828Y-129323606D01*
X113951891Y-129478148D01*
X113875842Y-129616666D01*
X113809295Y-129738046D01*
X113752864Y-129841173D01*
X113707160Y-129924933D01*
X113672797Y-129988212D01*
X113650388Y-130029894D01*
X113640546Y-130048866D01*
X113640275Y-130049477D01*
X113623199Y-130118164D01*
X113621591Y-130196561D01*
X113322460Y-130196561D01*
X113324985Y-130087716D01*
X113351722Y-129973334D01*
X113361592Y-129947630D01*
X113371201Y-129928421D01*
X113393443Y-129886405D01*
X113427701Y-129822705D01*
X113473356Y-129738448D01*
X113529793Y-129634758D01*
X113596393Y-129512760D01*
X113672539Y-129373579D01*
X113757614Y-129218340D01*
X113850999Y-129048168D01*
X113952079Y-128864188D01*
X114060235Y-128667525D01*
X114174850Y-128459303D01*
X114295306Y-128240648D01*
X114420987Y-128012685D01*
X114551275Y-127776539D01*
X114685552Y-127533334D01*
X114823201Y-127284196D01*
X114843533Y-127247410D01*
X115015871Y-126935721D01*
X115175485Y-126647247D01*
X115322809Y-126381219D01*
X115458274Y-126136869D01*
X115582315Y-125913426D01*
X115695362Y-125710123D01*
X115797849Y-125526189D01*
X115890208Y-125360855D01*
X115972872Y-125213353D01*
X116046273Y-125082913D01*
X116110845Y-124968765D01*
X116167019Y-124870142D01*
X116215228Y-124786272D01*
X116255906Y-124716388D01*
X116289483Y-124659721D01*
X116316394Y-124615500D01*
X116337071Y-124582956D01*
X116351946Y-124561322D01*
X116359626Y-124551713D01*
X116446943Y-124475370D01*
X116551135Y-124416745D01*
X116666842Y-124377619D01*
X116788704Y-124359776D01*
X116911361Y-124364998D01*
G37*
D16*
%TO.C,C15*%
X161370000Y-114958748D02*
X161370000Y-116381252D01*
X163190000Y-114958748D02*
X163190000Y-116381252D01*
%TO.C,R16*%
X121027500Y-125287742D02*
X121027500Y-125762258D01*
X122072500Y-125287742D02*
X122072500Y-125762258D01*
%TO.C,R19*%
X185712742Y-133037500D02*
X186187258Y-133037500D01*
X185712742Y-134082500D02*
X186187258Y-134082500D01*
%TO.C,R18*%
X186187258Y-134597500D02*
X185712742Y-134597500D01*
X186187258Y-135642500D02*
X185712742Y-135642500D01*
%TO.C,R2*%
X129162936Y-111925000D02*
X130617064Y-111925000D01*
X129162936Y-113745000D02*
X130617064Y-113745000D01*
%TO.C,TP1*%
X140320000Y-136210000D02*
G75*
G02*
X136820000Y-136210000I-1750000J0D01*
G01*
X136820000Y-136210000D02*
G75*
G02*
X140320000Y-136210000I1750000J0D01*
G01*
%TO.C,R9*%
X131569564Y-136870000D02*
X130115436Y-136870000D01*
X131569564Y-138690000D02*
X130115436Y-138690000D01*
%TO.C,D4*%
X184780000Y-122950000D02*
X184780000Y-122300000D01*
X184780000Y-122950000D02*
X184780000Y-123600000D01*
X187900000Y-122950000D02*
X187900000Y-122300000D01*
X187900000Y-122950000D02*
X187900000Y-123600000D01*
X184830000Y-124112500D02*
X184500000Y-124352500D01*
X184500000Y-123872500D01*
X184830000Y-124112500D01*
G36*
X184830000Y-124112500D02*
G01*
X184500000Y-124352500D01*
X184500000Y-123872500D01*
X184830000Y-124112500D01*
G37*
%TO.C,Molex2*%
X104480000Y-131505000D02*
X110230000Y-131505000D01*
X104480000Y-132925000D02*
X104480000Y-131505000D01*
X104480000Y-137455000D02*
X104980000Y-137455000D01*
X104480000Y-138875000D02*
X104480000Y-137455000D01*
X104980000Y-132925000D02*
X104480000Y-132925000D01*
X104980000Y-137455000D02*
X104980000Y-132925000D01*
X110230000Y-138875000D02*
X104480000Y-138875000D01*
X111770000Y-138875000D02*
X112070000Y-138875000D01*
X112070000Y-131505000D02*
X111770000Y-131505000D01*
X112070000Y-138875000D02*
X112070000Y-131505000D01*
%TO.C,RL2*%
X135612742Y-127577500D02*
X136087258Y-127577500D01*
X135612742Y-128622500D02*
X136087258Y-128622500D01*
%TO.C,U8*%
X156957500Y-121530000D02*
X157227500Y-121530000D01*
X156957500Y-127950000D02*
X156957500Y-121530000D01*
X163857500Y-121530000D02*
X163587500Y-121530000D01*
X163857500Y-127950000D02*
X163857500Y-121530000D01*
X164017500Y-120140000D02*
X163547500Y-119800000D01*
X164017500Y-119460000D01*
X164017500Y-120140000D01*
G36*
X164017500Y-120140000D02*
G01*
X163547500Y-119800000D01*
X164017500Y-119460000D01*
X164017500Y-120140000D01*
G37*
%TO.C,RS1*%
X134347500Y-144692742D02*
X134347500Y-145167258D01*
X135392500Y-144692742D02*
X135392500Y-145167258D01*
%TO.C,R5*%
X186187258Y-131427500D02*
X185712742Y-131427500D01*
X186187258Y-132472500D02*
X185712742Y-132472500D01*
%TO.C,U7*%
X174012500Y-129245000D02*
X171812500Y-129245000D01*
X174012500Y-129245000D02*
X176212500Y-129245000D01*
X174012500Y-136015000D02*
X171812500Y-136015000D01*
X174012500Y-136015000D02*
X176212500Y-136015000D01*
X178202500Y-135795000D02*
X177872500Y-135555000D01*
X178202500Y-135315000D01*
X178202500Y-135795000D01*
G36*
X178202500Y-135795000D02*
G01*
X177872500Y-135555000D01*
X178202500Y-135315000D01*
X178202500Y-135795000D01*
G37*
%TO.C,R13*%
X139092742Y-141747500D02*
X139567258Y-141747500D01*
X139092742Y-142792500D02*
X139567258Y-142792500D01*
%TO.C,CL1*%
X137866248Y-147610000D02*
X139288752Y-147610000D01*
X137866248Y-150330000D02*
X139288752Y-150330000D01*
D17*
%TO.C,F1*%
X114030000Y-111905000D02*
X121650000Y-111905000D01*
X114030000Y-114315000D02*
X114030000Y-111905000D01*
X121650000Y-111905000D02*
X121650000Y-114315000D01*
X121650000Y-114315000D02*
X114030000Y-114315000D01*
D16*
%TO.C,R22*%
X136217500Y-145387258D02*
X136217500Y-144912742D01*
X137262500Y-145387258D02*
X137262500Y-144912742D01*
%TO.C,J1*%
X171365000Y-112840000D02*
X171365000Y-113140000D01*
X171365000Y-120430000D02*
X171365000Y-114680000D01*
X172785000Y-119930000D02*
X172785000Y-120430000D01*
X172785000Y-120430000D02*
X171365000Y-120430000D01*
X186315000Y-119930000D02*
X172785000Y-119930000D01*
X186315000Y-120430000D02*
X186315000Y-119930000D01*
X187735000Y-112840000D02*
X171365000Y-112840000D01*
X187735000Y-113140000D02*
X187735000Y-112840000D01*
X187735000Y-114680000D02*
X187735000Y-120430000D01*
X187735000Y-120430000D02*
X186315000Y-120430000D01*
%TO.C,F7*%
X167687936Y-112790000D02*
X168892064Y-112790000D01*
X167687936Y-114610000D02*
X168892064Y-114610000D01*
%TO.C,CT2*%
X122840000Y-121784420D02*
X122840000Y-122065580D01*
X123860000Y-121784420D02*
X123860000Y-122065580D01*
D17*
%TO.C,X1*%
X174030000Y-136770000D02*
X178630000Y-136770000D01*
X178630000Y-139970000D02*
X174030000Y-139970000D01*
X173830000Y-139770000D02*
G75*
G02*
X174030000Y-139970000I-1J-200001D01*
G01*
X174030000Y-136770000D02*
G75*
G02*
X173830000Y-136970000I-200001J1D01*
G01*
X178630000Y-139970000D02*
G75*
G02*
X178830000Y-139770000I200000J0D01*
G01*
X178830000Y-136970000D02*
G75*
G02*
X178630000Y-136770000I0J200000D01*
G01*
%TO.C,U4*%
X143627500Y-141357500D02*
X143627500Y-149867500D01*
X143627500Y-141357500D02*
X149977500Y-141357500D01*
X143627500Y-149867500D02*
X149977500Y-149867500D01*
X149977500Y-141357500D02*
X149977500Y-149867500D01*
D13*
X141077500Y-143072500D02*
G75*
G02*
X140877500Y-143072500I-100000J0D01*
G01*
X140877500Y-143072500D02*
G75*
G02*
X141077500Y-143072500I100000J0D01*
G01*
D16*
%TO.C,Molex1*%
X104470000Y-121645000D02*
X110220000Y-121645000D01*
X104470000Y-123065000D02*
X104470000Y-121645000D01*
X104470000Y-127595000D02*
X104970000Y-127595000D01*
X104470000Y-129015000D02*
X104470000Y-127595000D01*
X104970000Y-123065000D02*
X104470000Y-123065000D01*
X104970000Y-127595000D02*
X104970000Y-123065000D01*
X110220000Y-129015000D02*
X104470000Y-129015000D01*
X111760000Y-129015000D02*
X112060000Y-129015000D01*
X112060000Y-121645000D02*
X111760000Y-121645000D01*
X112060000Y-129015000D02*
X112060000Y-121645000D01*
D17*
%TO.C,U1*%
X143825000Y-121370000D02*
X143825000Y-129880000D01*
X143825000Y-121370000D02*
X150175000Y-121370000D01*
X143825000Y-129880000D02*
X150175000Y-129880000D01*
X150175000Y-121370000D02*
X150175000Y-129880000D01*
D13*
X141275000Y-123085000D02*
G75*
G02*
X141075000Y-123085000I-100000J0D01*
G01*
X141075000Y-123085000D02*
G75*
G02*
X141275000Y-123085000I100000J0D01*
G01*
D16*
%TO.C,RT1*%
X121170000Y-141752742D02*
X121170000Y-142227258D01*
X122215000Y-141752742D02*
X122215000Y-142227258D01*
%TO.C,R4*%
X125267064Y-116700000D02*
X123812936Y-116700000D01*
X125267064Y-118520000D02*
X123812936Y-118520000D01*
%TO.C,J2*%
X154610000Y-138400000D02*
X154610000Y-137020000D01*
X155990000Y-138400000D02*
X154610000Y-138400000D01*
X157260000Y-135640000D02*
X164990000Y-135640000D01*
X157260000Y-138400000D02*
X157260000Y-135640000D01*
X157260000Y-138400000D02*
X164990000Y-138400000D01*
X164990000Y-138400000D02*
X164990000Y-135640000D01*
D17*
%TO.C,U5*%
X132172500Y-140775000D02*
X125822500Y-140775000D01*
X132172500Y-150365000D02*
X125822500Y-150365000D01*
D13*
X134132500Y-149380000D02*
G75*
G02*
X133932500Y-149380000I-100000J0D01*
G01*
X133932500Y-149380000D02*
G75*
G02*
X134132500Y-149380000I100000J0D01*
G01*
D16*
%TO.C,C1*%
X152071252Y-117645000D02*
X151548748Y-117645000D01*
X152071252Y-119115000D02*
X151548748Y-119115000D01*
%TO.C,R15*%
X139577500Y-124742742D02*
X139577500Y-125217258D01*
X140622500Y-124742742D02*
X140622500Y-125217258D01*
%TD*%
M02*
