M48
; DRILL file {KiCad 9.0.4} date 2026-01-11T17:23:09-0800
; FORMAT={-:-/ absolute / metric / decimal}
; #@! TF.CreationDate,2026-01-11T17:23:09-08:00
; #@! TF.GenerationSoftware,Kicad,Pcbnew,9.0.4
; #@! TF.FileFunction,Plated,1,2,PTH
FMAT,2
METRIC
; #@! TA.AperFunction,Plated,PTH,ViaDrill
T1C0.300
; #@! TA.AperFunction,Plated,PTH,ComponentDrill
T2C0.710
; #@! TA.AperFunction,Plated,PTH,ComponentDrill
T3C0.740
; #@! TA.AperFunction,Plated,PTH,ComponentDrill
T4C0.889
; #@! TA.AperFunction,Plated,PTH,ComponentDrill
T5C1.000
; #@! TA.AperFunction,Plated,PTH,ComponentDrill
T6C1.020
%
G90
G05
T1
X120.172Y-123.888
X120.517Y-149.602
X120.675Y-129.4
X120.942Y-143.99
X121.975Y-127.9
X121.992Y-148.102
X123.375Y-123.9
X123.442Y-143.99
X134.91Y-143.08
X135.0Y-123.9
X135.93Y-119.76
X136.6Y-123.8
X136.74Y-143.24
X136.95Y-139.15
X137.875Y-125.15
X138.3Y-126.5
X138.3Y-144.5
X141.72Y-118.19
X152.76Y-146.71
X152.95Y-125.71
X155.01Y-127.55
X155.515Y-146.585
X158.19Y-125.95
X158.19Y-127.01
X158.19Y-127.94
X158.21Y-123.96
X158.21Y-124.97
X158.93Y-125.95
X158.93Y-127.01
X158.93Y-127.94
X158.95Y-123.96
X158.95Y-124.97
X159.08Y-112.9
X159.67Y-125.95
X159.67Y-127.01
X159.67Y-127.94
X159.69Y-123.96
X159.69Y-124.97
X160.41Y-125.96
X160.41Y-127.02
X160.41Y-127.95
X160.43Y-123.97
X160.43Y-124.98
X161.15Y-125.96
X161.15Y-127.02
X161.15Y-127.95
X161.17Y-123.97
X161.17Y-124.98
X161.89Y-125.96
X161.89Y-127.02
X161.89Y-127.95
X161.9Y-112.94
X161.91Y-123.97
X161.91Y-124.98
X162.63Y-125.96
X162.63Y-127.02
X162.63Y-127.95
X162.65Y-123.97
X162.65Y-124.98
X164.47Y-117.78
X166.52Y-127.19
X167.715Y-116.78
X169.64Y-131.77
X169.683Y-130.971
X169.74Y-135.07
X170.48Y-127.96
X172.44Y-134.22
X172.54Y-131.01
X175.42Y-142.53
X175.5Y-131.56
X175.56Y-132.97
X176.567Y-124.612
X177.21Y-142.55
X178.4Y-122.642
X179.56Y-128.22
X180.47Y-136.35
X181.51Y-133.23
X181.977Y-124.442
X184.05Y-133.56
X184.15Y-129.64
X185.205Y-146.98
X186.35Y-124.3
X186.38Y-123.44
X186.71Y-126.81
X187.85Y-135.25
T2
X139.43Y-115.63
X144.51Y-115.63
X149.59Y-115.63
X152.13Y-115.63
T3
X125.005Y-121.34
X125.005Y-123.88
X125.005Y-126.42
X125.005Y-128.96
X125.027Y-141.76
X125.027Y-144.3
X125.027Y-146.84
X125.027Y-149.38
X132.945Y-121.34
X132.945Y-123.88
X132.945Y-126.42
X132.945Y-128.96
X132.968Y-141.76
X132.968Y-144.3
X132.968Y-146.84
X132.968Y-149.38
T4
X115.3Y-113.11
X115.62Y-133.9
X117.01Y-141.83
X117.01Y-146.91
X117.08Y-117.01
X117.08Y-122.09
X120.38Y-113.11
X120.7Y-133.9
T5
X164.88Y-138.73
X164.88Y-141.27
X164.88Y-143.81
X164.88Y-146.35
T6
X107.05Y-125.33
X107.06Y-135.19
X110.05Y-125.33
X110.06Y-135.19
X175.05Y-114.85
X175.05Y-117.85
X178.05Y-114.85
X178.05Y-117.85
X181.05Y-114.85
X181.05Y-117.85
X184.05Y-114.85
X184.05Y-117.85
M30
