%TF.GenerationSoftware,KiCad,Pcbnew,9.0.4*%
%TF.CreationDate,2026-01-13T11:47:29-08:00*%
%TF.ProjectId,2026Precharge,32303236-5072-4656-9368-617267652e6b,rev?*%
%TF.SameCoordinates,Original*%
%TF.FileFunction,Copper,L1,Top*%
%TF.FilePolarity,Positive*%
%FSLAX46Y46*%
G04 Gerber Fmt 4.6, Leading zero omitted, Abs format (unit mm)*
G04 Created by KiCad (PCBNEW 9.0.4) date 2026-01-13 11:47:29*
%MOMM*%
%LPD*%
G01*
G04 APERTURE LIST*
G04 Aperture macros list*
%AMRoundRect*
0 Rectangle with rounded corners*
0 $1 Rounding radius*
0 $2 $3 $4 $5 $6 $7 $8 $9 X,Y pos of 4 corners*
0 Add a 4 corners polygon primitive as box body*
4,1,4,$2,$3,$4,$5,$6,$7,$8,$9,$2,$3,0*
0 Add four circle primitives for the rounded corners*
1,1,$1+$1,$2,$3*
1,1,$1+$1,$4,$5*
1,1,$1+$1,$6,$7*
1,1,$1+$1,$8,$9*
0 Add four rect primitives between the rounded corners*
20,1,$1+$1,$2,$3,$4,$5,0*
20,1,$1+$1,$4,$5,$6,$7,0*
20,1,$1+$1,$6,$7,$8,$9,0*
20,1,$1+$1,$8,$9,$2,$3,0*%
G04 Aperture macros list end*
%TA.AperFunction,SMDPad,CuDef*%
%ADD10RoundRect,0.200000X0.275000X-0.200000X0.275000X0.200000X-0.275000X0.200000X-0.275000X-0.200000X0*%
%TD*%
%TA.AperFunction,SMDPad,CuDef*%
%ADD11RoundRect,0.150000X-0.150000X-0.200000X0.150000X-0.200000X0.150000X0.200000X-0.150000X0.200000X0*%
%TD*%
%TA.AperFunction,SMDPad,CuDef*%
%ADD12RoundRect,0.225000X0.225000X0.250000X-0.225000X0.250000X-0.225000X-0.250000X0.225000X-0.250000X0*%
%TD*%
%TA.AperFunction,SMDPad,CuDef*%
%ADD13RoundRect,0.150000X0.150000X-0.587500X0.150000X0.587500X-0.150000X0.587500X-0.150000X-0.587500X0*%
%TD*%
%TA.AperFunction,SMDPad,CuDef*%
%ADD14C,3.000000*%
%TD*%
%TA.AperFunction,ComponentPad*%
%ADD15R,1.110000X1.110000*%
%TD*%
%TA.AperFunction,ComponentPad*%
%ADD16C,1.110000*%
%TD*%
%TA.AperFunction,SMDPad,CuDef*%
%ADD17RoundRect,0.225000X-0.250000X0.225000X-0.250000X-0.225000X0.250000X-0.225000X0.250000X0.225000X0*%
%TD*%
%TA.AperFunction,SMDPad,CuDef*%
%ADD18RoundRect,0.200000X-0.275000X0.200000X-0.275000X-0.200000X0.275000X-0.200000X0.275000X0.200000X0*%
%TD*%
%TA.AperFunction,SMDPad,CuDef*%
%ADD19RoundRect,0.225000X-0.225000X-0.250000X0.225000X-0.250000X0.225000X0.250000X-0.225000X0.250000X0*%
%TD*%
%TA.AperFunction,ComponentPad*%
%ADD20C,1.397000*%
%TD*%
%TA.AperFunction,SMDPad,CuDef*%
%ADD21RoundRect,0.250000X-0.325000X-1.100000X0.325000X-1.100000X0.325000X1.100000X-0.325000X1.100000X0*%
%TD*%
%TA.AperFunction,SMDPad,CuDef*%
%ADD22RoundRect,0.250000X0.250000X0.475000X-0.250000X0.475000X-0.250000X-0.475000X0.250000X-0.475000X0*%
%TD*%
%TA.AperFunction,SMDPad,CuDef*%
%ADD23RoundRect,0.150000X-0.150000X0.587500X-0.150000X-0.587500X0.150000X-0.587500X0.150000X0.587500X0*%
%TD*%
%TA.AperFunction,SMDPad,CuDef*%
%ADD24RoundRect,0.250000X-0.312500X-0.625000X0.312500X-0.625000X0.312500X0.625000X-0.312500X0.625000X0*%
%TD*%
%TA.AperFunction,ComponentPad*%
%ADD25R,1.130000X1.130000*%
%TD*%
%TA.AperFunction,ComponentPad*%
%ADD26C,1.130000*%
%TD*%
%TA.AperFunction,SMDPad,CuDef*%
%ADD27RoundRect,0.200000X-0.200000X-0.275000X0.200000X-0.275000X0.200000X0.275000X-0.200000X0.275000X0*%
%TD*%
%TA.AperFunction,SMDPad,CuDef*%
%ADD28RoundRect,0.150000X0.150000X0.200000X-0.150000X0.200000X-0.150000X-0.200000X0.150000X-0.200000X0*%
%TD*%
%TA.AperFunction,SMDPad,CuDef*%
%ADD29RoundRect,0.112500X0.112500X-0.187500X0.112500X0.187500X-0.112500X0.187500X-0.112500X-0.187500X0*%
%TD*%
%TA.AperFunction,SMDPad,CuDef*%
%ADD30RoundRect,0.250000X0.312500X0.625000X-0.312500X0.625000X-0.312500X-0.625000X0.312500X-0.625000X0*%
%TD*%
%TA.AperFunction,SMDPad,CuDef*%
%ADD31RoundRect,0.250000X0.650000X-0.325000X0.650000X0.325000X-0.650000X0.325000X-0.650000X-0.325000X0*%
%TD*%
%TA.AperFunction,SMDPad,CuDef*%
%ADD32RoundRect,0.150000X-0.587500X-0.150000X0.587500X-0.150000X0.587500X0.150000X-0.587500X0.150000X0*%
%TD*%
%TA.AperFunction,SMDPad,CuDef*%
%ADD33RoundRect,0.250000X-0.650000X0.325000X-0.650000X-0.325000X0.650000X-0.325000X0.650000X0.325000X0*%
%TD*%
%TA.AperFunction,ComponentPad*%
%ADD34RoundRect,0.250001X0.499999X-0.499999X0.499999X0.499999X-0.499999X0.499999X-0.499999X-0.499999X0*%
%TD*%
%TA.AperFunction,ComponentPad*%
%ADD35C,1.500000*%
%TD*%
%TA.AperFunction,SMDPad,CuDef*%
%ADD36RoundRect,0.250000X-0.350000X0.850000X-0.350000X-0.850000X0.350000X-0.850000X0.350000X0.850000X0*%
%TD*%
%TA.AperFunction,SMDPad,CuDef*%
%ADD37RoundRect,0.249997X-2.650003X2.950003X-2.650003X-2.950003X2.650003X-2.950003X2.650003X2.950003X0*%
%TD*%
%TA.AperFunction,SMDPad,CuDef*%
%ADD38RoundRect,0.200000X0.200000X0.275000X-0.200000X0.275000X-0.200000X-0.275000X0.200000X-0.275000X0*%
%TD*%
%TA.AperFunction,SMDPad,CuDef*%
%ADD39RoundRect,0.100000X0.637500X0.100000X-0.637500X0.100000X-0.637500X-0.100000X0.637500X-0.100000X0*%
%TD*%
%TA.AperFunction,ComponentPad*%
%ADD40RoundRect,0.250001X0.499999X0.499999X-0.499999X0.499999X-0.499999X-0.499999X0.499999X-0.499999X0*%
%TD*%
%TA.AperFunction,SMDPad,CuDef*%
%ADD41RoundRect,0.250001X-0.462499X-0.624999X0.462499X-0.624999X0.462499X0.624999X-0.462499X0.624999X0*%
%TD*%
%TA.AperFunction,SMDPad,CuDef*%
%ADD42R,1.700000X2.400000*%
%TD*%
%TA.AperFunction,SMDPad,CuDef*%
%ADD43R,1.520000X1.780000*%
%TD*%
%TA.AperFunction,ComponentPad*%
%ADD44R,1.700000X1.700000*%
%TD*%
%TA.AperFunction,ComponentPad*%
%ADD45C,1.700000*%
%TD*%
%TA.AperFunction,ViaPad*%
%ADD46C,0.600000*%
%TD*%
%TA.AperFunction,Conductor*%
%ADD47C,0.250000*%
%TD*%
%TA.AperFunction,Conductor*%
%ADD48C,0.200000*%
%TD*%
%TA.AperFunction,Conductor*%
%ADD49C,0.500000*%
%TD*%
G04 APERTURE END LIST*
D10*
%TO.P,R28,2*%
%TO.N,Charge_on*%
X178960000Y-130195000D03*
%TO.P,R28,1*%
%TO.N,3.3 V*%
X178960000Y-131845000D03*
%TD*%
D11*
%TO.P,D1,1,K*%
%TO.N,Net-(D1-K)*%
X169977500Y-116790000D03*
%TO.P,D1,2,A*%
%TO.N,GLV-*%
X168577500Y-116790000D03*
%TD*%
D12*
%TO.P,C3,1*%
%TO.N,12V_HV*%
X123192500Y-149602500D03*
%TO.P,C3,2*%
%TO.N,HV-*%
X121642500Y-149602500D03*
%TD*%
D13*
%TO.P,Q2,1,G*%
%TO.N,AIR+_en_gate*%
X174667500Y-125940000D03*
%TO.P,Q2,2,S*%
%TO.N,GLV-*%
X176567500Y-125940000D03*
%TO.P,Q2,3,D*%
%TO.N,AIR+_en*%
X175617500Y-124065000D03*
%TD*%
D14*
%TO.P,TP2,1,1*%
%TO.N,GLV-*%
X182505000Y-147090000D03*
%TD*%
D15*
%TO.P,PS1,1,+VIN(VCC)*%
%TO.N,GLV+*%
X152130000Y-115630000D03*
D16*
%TO.P,PS1,2,-VIN(GND)*%
%TO.N,GLV-*%
X149590000Y-115630000D03*
%TO.P,PS1,4,-VOUT*%
%TO.N,HV-*%
X144510000Y-115630000D03*
%TO.P,PS1,6,+VOUT*%
%TO.N,12V_HV*%
X139430000Y-115630000D03*
%TD*%
D17*
%TO.P,C5,1*%
%TO.N,Net-(U2-COMPIN)*%
X123175000Y-126325000D03*
%TO.P,C5,2*%
%TO.N,HV-*%
X123175000Y-127875000D03*
%TD*%
D18*
%TO.P,R20,1*%
%TO.N,12V_HV*%
X139770000Y-144235000D03*
%TO.P,R20,2*%
%TO.N,Net-(U5-FOUT)*%
X139770000Y-145885000D03*
%TD*%
D17*
%TO.P,C7,1*%
%TO.N,Net-(U5-COMPIN)*%
X123192500Y-146502500D03*
%TO.P,C7,2*%
%TO.N,HV-*%
X123192500Y-148052500D03*
%TD*%
D19*
%TO.P,C9,1*%
%TO.N,3.3 V*%
X178915000Y-133700000D03*
%TO.P,C9,2*%
%TO.N,GLV-*%
X180465000Y-133700000D03*
%TD*%
D20*
%TO.P,F4,1*%
%TO.N,HV-*%
X117010000Y-146910000D03*
%TO.P,F4,2*%
%TO.N,Net-(Molex2-Pin_1)*%
X117010000Y-141830000D03*
%TD*%
D13*
%TO.P,Q3,1,G*%
%TO.N,Charge_on*%
X185757500Y-130047500D03*
%TO.P,Q3,2,S*%
%TO.N,SDCin*%
X187657500Y-130047500D03*
%TO.P,Q3,3,D*%
%TO.N,CHG*%
X186707500Y-128172500D03*
%TD*%
D10*
%TO.P,R17,1*%
%TO.N,Net-(CL2-Pad2)*%
X136625000Y-126525000D03*
%TO.P,R17,2*%
%TO.N,HV-*%
X136625000Y-124875000D03*
%TD*%
D18*
%TO.P,R11,1*%
%TO.N,Net-(R10-Pad2)*%
X119942500Y-141165000D03*
%TO.P,R11,2*%
%TO.N,HV-*%
X119942500Y-142815000D03*
%TD*%
D20*
%TO.P,F3,1*%
%TO.N,HV-*%
X117080000Y-122090000D03*
%TO.P,F3,2*%
%TO.N,Net-(Molex1-Pin_1)*%
X117080000Y-117010000D03*
%TD*%
D13*
%TO.P,Q4,1,G*%
%TO.N,Pre_en_gate*%
X180065000Y-125890000D03*
%TO.P,Q4,2,S*%
%TO.N,GLV-*%
X181965000Y-125890000D03*
%TO.P,Q4,3,D*%
%TO.N,Pre_en*%
X181015000Y-124015000D03*
%TD*%
D21*
%TO.P,CL2,1*%
%TO.N,Net-(U2-IOUT)*%
X135287500Y-130700000D03*
%TO.P,CL2,2*%
%TO.N,Net-(CL2-Pad2)*%
X138237500Y-130700000D03*
%TD*%
D22*
%TO.P,C2,1*%
%TO.N,12V_HV*%
X137890000Y-118290000D03*
%TO.P,C2,2*%
%TO.N,HV-*%
X135990000Y-118290000D03*
%TD*%
D10*
%TO.P,R14,1*%
%TO.N,Net-(Q5-G)*%
X165540000Y-119415000D03*
%TO.P,R14,2*%
%TO.N,GLV-*%
X165540000Y-117765000D03*
%TD*%
D23*
%TO.P,D2,1,K*%
%TO.N,Pre_en*%
X179350000Y-122045000D03*
%TO.P,D2,2,K*%
%TO.N,AIR+_en*%
X177450000Y-122045000D03*
%TO.P,D2,3,A*%
%TO.N,GLV-*%
X178400000Y-123920000D03*
%TD*%
D24*
%TO.P,R7,1*%
%TO.N,/HV+_preAIR*%
X125075000Y-133500000D03*
%TO.P,R7,2*%
%TO.N,Net-(R7-Pad2)*%
X128000000Y-133500000D03*
%TD*%
D18*
%TO.P,R24,1*%
%TO.N,3.3 V*%
X154170000Y-125055000D03*
%TO.P,R24,2*%
%TO.N,f_postAIR*%
X154170000Y-126705000D03*
%TD*%
D20*
%TO.P,F2,1*%
%TO.N,Net-(Molex2-Pin_2)*%
X115620000Y-133900000D03*
%TO.P,F2,2*%
%TO.N,/HV+_preAIR*%
X120700000Y-133900000D03*
%TD*%
D25*
%TO.P,U2,1,IOUT*%
%TO.N,Net-(U2-IOUT)*%
X132945000Y-128960000D03*
D26*
%TO.P,U2,2,IREF*%
%TO.N,Net-(U2-IREF)*%
X132945000Y-126420000D03*
%TO.P,U2,3,FOUT*%
%TO.N,Net-(U2-FOUT)*%
X132945000Y-123880000D03*
%TO.P,U2,4,GND*%
%TO.N,HV-*%
X132945000Y-121340000D03*
%TO.P,U2,5,RC*%
%TO.N,Net-(U2-RC)*%
X125005000Y-121340000D03*
%TO.P,U2,6,THRESH*%
%TO.N,Net-(U2-IOUT)*%
X125005000Y-123880000D03*
%TO.P,U2,7,COMPIN*%
%TO.N,Net-(U2-COMPIN)*%
X125005000Y-126420000D03*
%TO.P,U2,8,VS*%
%TO.N,12V_HV*%
X125005000Y-128960000D03*
%TD*%
D27*
%TO.P,R18,1*%
%TO.N,3.3 V*%
X165165000Y-125840000D03*
%TO.P,R18,2*%
%TO.N,Net-(Q1-D)*%
X166815000Y-125840000D03*
%TD*%
D12*
%TO.P,C10,1*%
%TO.N,GLV-*%
X180445000Y-135280000D03*
%TO.P,C10,2*%
%TO.N,3.3 V*%
X178895000Y-135280000D03*
%TD*%
D18*
%TO.P,RT2,1*%
%TO.N,Net-(U2-RC)*%
X121775000Y-121125000D03*
%TO.P,RT2,2*%
%TO.N,12V_HV*%
X121775000Y-122775000D03*
%TD*%
D10*
%TO.P,R27,1*%
%TO.N,Net-(U7-PA5)*%
X172740000Y-123335000D03*
%TO.P,R27,2*%
%TO.N,Precharge_Fault*%
X172740000Y-121685000D03*
%TD*%
D27*
%TO.P,R23,1*%
%TO.N,Net-(Q1-G)*%
X185125000Y-135200000D03*
%TO.P,R23,2*%
%TO.N,GLV-*%
X186775000Y-135200000D03*
%TD*%
D24*
%TO.P,R8,1*%
%TO.N,Net-(R7-Pad2)*%
X130300000Y-133500000D03*
%TO.P,R8,2*%
%TO.N,Net-(R8-Pad2)*%
X133225000Y-133500000D03*
%TD*%
%TO.P,R1,1*%
%TO.N,/HV+_postAIR*%
X123290000Y-112835000D03*
%TO.P,R1,2*%
%TO.N,Net-(R1-Pad2)*%
X126215000Y-112835000D03*
%TD*%
D28*
%TO.P,D3,1,K*%
%TO.N,12V_HV*%
X139350000Y-118200000D03*
%TO.P,D3,2,A*%
%TO.N,HV-*%
X140750000Y-118200000D03*
%TD*%
D27*
%TO.P,R12,1*%
%TO.N,12V_HV*%
X138315000Y-121930000D03*
%TO.P,R12,2*%
%TO.N,Net-(R12-Pad2)*%
X139965000Y-121930000D03*
%TD*%
D29*
%TO.P,D6,1*%
%TO.N,GLV+*%
X165940000Y-123850000D03*
%TO.P,D6,2*%
%TO.N,Net-(Q5-G)*%
X165940000Y-121750000D03*
%TD*%
D12*
%TO.P,C8,1*%
%TO.N,GLV-*%
X175395000Y-141300000D03*
%TO.P,C8,2*%
%TO.N,Net-(U7-PC15)*%
X173845000Y-141300000D03*
%TD*%
D18*
%TO.P,R6,1*%
%TO.N,Net-(R16-Pad1)*%
X120075000Y-121100000D03*
%TO.P,R6,2*%
%TO.N,HV-*%
X120075000Y-122750000D03*
%TD*%
D30*
%TO.P,R10,1*%
%TO.N,Net-(R10-Pad1)*%
X127862500Y-137800000D03*
%TO.P,R10,2*%
%TO.N,Net-(R10-Pad2)*%
X124937500Y-137800000D03*
%TD*%
D10*
%TO.P,RL1,1*%
%TO.N,Net-(U5-IOUT)*%
X134910000Y-149875000D03*
%TO.P,RL1,2*%
%TO.N,Net-(CL1-Pad2)*%
X134910000Y-148225000D03*
%TD*%
D18*
%TO.P,R21,1*%
%TO.N,Net-(R10-Pad2)*%
X120692500Y-145165000D03*
%TO.P,R21,2*%
%TO.N,Net-(U5-COMPIN)*%
X120692500Y-146815000D03*
%TD*%
D30*
%TO.P,R3,1*%
%TO.N,Net-(R2-Pad2)*%
X131052500Y-117610000D03*
%TO.P,R3,2*%
%TO.N,Net-(R3-Pad2)*%
X128127500Y-117610000D03*
%TD*%
D31*
%TO.P,C14,1*%
%TO.N,3.3 V*%
X158910000Y-117165000D03*
%TO.P,C14,2*%
%TO.N,GLV-*%
X158910000Y-114215000D03*
%TD*%
D17*
%TO.P,CT1,1*%
%TO.N,Net-(U5-RC)*%
X123367500Y-141215000D03*
%TO.P,CT1,2*%
%TO.N,HV-*%
X123367500Y-142765000D03*
%TD*%
D12*
%TO.P,C4,1*%
%TO.N,12V_HV*%
X123350000Y-129400000D03*
%TO.P,C4,2*%
%TO.N,HV-*%
X121800000Y-129400000D03*
%TD*%
D32*
%TO.P,Q5,1,G*%
%TO.N,Net-(Q5-G)*%
X168115000Y-121700000D03*
%TO.P,Q5,2,S*%
%TO.N,GLV+*%
X168115000Y-123600000D03*
%TO.P,Q5,3,D*%
%TO.N,Pre_GLV+*%
X169990000Y-122650000D03*
%TD*%
D18*
%TO.P,R25,1*%
%TO.N,3.3 V*%
X154200000Y-144935000D03*
%TO.P,R25,2*%
%TO.N,f_preAIR*%
X154200000Y-146585000D03*
%TD*%
D19*
%TO.P,C6,1*%
%TO.N,GLV-*%
X177225000Y-141320000D03*
%TO.P,C6,2*%
%TO.N,Net-(U7-PC14)*%
X178775000Y-141320000D03*
%TD*%
D18*
%TO.P,RS2,1*%
%TO.N,HV-*%
X135000000Y-124850000D03*
%TO.P,RS2,2*%
%TO.N,Net-(U2-IREF)*%
X135000000Y-126500000D03*
%TD*%
D23*
%TO.P,Q1,1,G*%
%TO.N,Net-(Q1-G)*%
X169212500Y-127962500D03*
%TO.P,Q1,2,S*%
%TO.N,GLV-*%
X167312500Y-127962500D03*
%TO.P,Q1,3,D*%
%TO.N,Net-(Q1-D)*%
X168262500Y-129837500D03*
%TD*%
D33*
%TO.P,C15,1*%
%TO.N,GLV-*%
X162280000Y-114195000D03*
%TO.P,C15,2*%
%TO.N,GLV+*%
X162280000Y-117145000D03*
%TD*%
D18*
%TO.P,R16,1*%
%TO.N,Net-(R16-Pad1)*%
X121550000Y-124700000D03*
%TO.P,R16,2*%
%TO.N,Net-(U2-COMPIN)*%
X121550000Y-126350000D03*
%TD*%
D27*
%TO.P,R19,1*%
%TO.N,Net-(Q1-G)*%
X185125000Y-133560000D03*
%TO.P,R19,2*%
%TO.N,SDCin*%
X186775000Y-133560000D03*
%TD*%
D24*
%TO.P,R2,1*%
%TO.N,Net-(R1-Pad2)*%
X128427500Y-112835000D03*
%TO.P,R2,2*%
%TO.N,Net-(R2-Pad2)*%
X131352500Y-112835000D03*
%TD*%
D14*
%TO.P,TP1,1,1*%
%TO.N,HV-*%
X138570000Y-136210000D03*
%TD*%
D30*
%TO.P,R9,1*%
%TO.N,Net-(R8-Pad2)*%
X133125000Y-137800000D03*
%TO.P,R9,2*%
%TO.N,Net-(R10-Pad1)*%
X130200000Y-137800000D03*
%TD*%
D13*
%TO.P,D4,1,K*%
%TO.N,SDCin*%
X185390000Y-123887500D03*
%TO.P,D4,2,K*%
%TO.N,CHG*%
X187290000Y-123887500D03*
%TO.P,D4,3,A*%
%TO.N,GLV-*%
X186340000Y-122012500D03*
%TD*%
D34*
%TO.P,Molex2,1,Pin_1*%
%TO.N,Net-(Molex2-Pin_1)*%
X107060000Y-135190000D03*
D35*
%TO.P,Molex2,2,Pin_2*%
%TO.N,Net-(Molex2-Pin_2)*%
X110060000Y-135190000D03*
%TD*%
D27*
%TO.P,RL2,1*%
%TO.N,Net-(U2-IOUT)*%
X135025000Y-128100000D03*
%TO.P,RL2,2*%
%TO.N,Net-(CL2-Pad2)*%
X136675000Y-128100000D03*
%TD*%
D36*
%TO.P,U8,1,IN*%
%TO.N,GLV+*%
X162687500Y-119800000D03*
D37*
%TO.P,U8,2,GND*%
%TO.N,GLV-*%
X160407500Y-126100000D03*
D36*
%TO.P,U8,3,OUT*%
%TO.N,3.3 V*%
X158127500Y-119800000D03*
%TD*%
D18*
%TO.P,RS1,1*%
%TO.N,HV-*%
X134870000Y-144105000D03*
%TO.P,RS1,2*%
%TO.N,Net-(U5-IREF)*%
X134870000Y-145755000D03*
%TD*%
D38*
%TO.P,R5,1*%
%TO.N,SDCin*%
X186775000Y-131950000D03*
%TO.P,R5,2*%
%TO.N,Charge_on*%
X185125000Y-131950000D03*
%TD*%
D39*
%TO.P,U7,1,PB7*%
%TO.N,unconnected-(U7-PB7-Pad1)*%
X176875000Y-135555000D03*
%TO.P,U7,2,PC14*%
%TO.N,Net-(U7-PC14)*%
X176875000Y-134905000D03*
%TO.P,U7,3,PC15*%
%TO.N,Net-(U7-PC15)*%
X176875000Y-134255000D03*
%TO.P,U7,4,VDD*%
%TO.N,3.3 V*%
X176875000Y-133605000D03*
%TO.P,U7,5,VSS*%
%TO.N,GLV-*%
X176875000Y-132955000D03*
%TO.P,U7,6,PF2*%
%TO.N,unconnected-(U7-PF2-Pad6)*%
X176875000Y-132305000D03*
%TO.P,U7,7,PA0*%
%TO.N,f_postAIR*%
X176875000Y-131655000D03*
%TO.P,U7,8,PA1*%
%TO.N,Pre_en_gate*%
X176875000Y-131005000D03*
%TO.P,U7,9,PA2*%
%TO.N,Charge_on*%
X176875000Y-130355000D03*
%TO.P,U7,10,PA3*%
%TO.N,unconnected-(U7-PA3-Pad10)*%
X176875000Y-129705000D03*
%TO.P,U7,11,PA4*%
%TO.N,Net-(Q1-D)*%
X171150000Y-129705000D03*
%TO.P,U7,12,PA5*%
%TO.N,Net-(U7-PA5)*%
X171150000Y-130355000D03*
%TO.P,U7,13,PA6*%
%TO.N,f_postAIR*%
X171150000Y-131005000D03*
%TO.P,U7,14,PA7*%
%TO.N,f_preAIR*%
X171150000Y-131655000D03*
%TO.P,U7,15,PA8*%
%TO.N,unconnected-(U7-PA8-Pad15)*%
X171150000Y-132305000D03*
%TO.P,U7,16,PA9/PA11*%
%TO.N,AIR+_en_gate*%
X171150000Y-132955000D03*
%TO.P,U7,17,PA10/PA12*%
%TO.N,unconnected-(U7-PA10{slash}PA12-Pad17)*%
X171150000Y-133605000D03*
%TO.P,U7,18,PA13*%
%TO.N,SWDIO*%
X171150000Y-134255000D03*
%TO.P,U7,19,PA14*%
%TO.N,SWCLK*%
X171150000Y-134905000D03*
%TO.P,U7,20,PB6*%
%TO.N,unconnected-(U7-PB6-Pad20)*%
X171150000Y-135555000D03*
%TD*%
D27*
%TO.P,R13,1*%
%TO.N,12V_HV*%
X138505000Y-142270000D03*
%TO.P,R13,2*%
%TO.N,Net-(R13-Pad2)*%
X140155000Y-142270000D03*
%TD*%
D21*
%TO.P,CL1,1*%
%TO.N,Net-(U5-IOUT)*%
X137102500Y-148970000D03*
%TO.P,CL1,2*%
%TO.N,Net-(CL1-Pad2)*%
X140052500Y-148970000D03*
%TD*%
D20*
%TO.P,F1,1*%
%TO.N,Net-(Molex1-Pin_2)*%
X115300000Y-113110000D03*
%TO.P,F1,2*%
%TO.N,/HV+_postAIR*%
X120380000Y-113110000D03*
%TD*%
D10*
%TO.P,R22,1*%
%TO.N,Net-(CL1-Pad2)*%
X136740000Y-145975000D03*
%TO.P,R22,2*%
%TO.N,HV-*%
X136740000Y-144325000D03*
%TD*%
D40*
%TO.P,J1,1,Pin_1*%
%TO.N,SDCin*%
X184050000Y-117850000D03*
D35*
%TO.P,J1,2,Pin_2*%
%TO.N,Pre_en*%
X181050000Y-117850000D03*
%TO.P,J1,3,Pin_3*%
%TO.N,AIR+_en*%
X178050000Y-117850000D03*
%TO.P,J1,4,Pin_4*%
%TO.N,Precharge_Fault*%
X175050000Y-117850000D03*
%TO.P,J1,5,Pin_5*%
%TO.N,CHG*%
X184050000Y-114850000D03*
%TO.P,J1,6,Pin_6*%
%TO.N,Charge_on*%
X181050000Y-114850000D03*
%TO.P,J1,7,Pin_7*%
%TO.N,GLV-*%
X178050000Y-114850000D03*
%TO.P,J1,8,Pin_8*%
%TO.N,Net-(D1-K)*%
X175050000Y-114850000D03*
%TD*%
D41*
%TO.P,F7,1*%
%TO.N,Pre_GLV+*%
X166965000Y-114790000D03*
%TO.P,F7,2*%
%TO.N,Net-(D1-K)*%
X169940000Y-114790000D03*
%TD*%
D17*
%TO.P,CT2,1*%
%TO.N,Net-(U2-RC)*%
X123350000Y-121150000D03*
%TO.P,CT2,2*%
%TO.N,HV-*%
X123350000Y-122700000D03*
%TD*%
D42*
%TO.P,X1,1*%
%TO.N,Net-(U7-PC15)*%
X174480000Y-138370000D03*
%TO.P,X1,2*%
%TO.N,Net-(U7-PC14)*%
X178180000Y-138370000D03*
%TD*%
D43*
%TO.P,U4,1*%
%TO.N,Net-(R13-Pad2)*%
X142297500Y-143072500D03*
%TO.P,U4,2*%
%TO.N,Net-(U5-FOUT)*%
X142297500Y-145612500D03*
%TO.P,U4,3*%
%TO.N,unconnected-(U4-Pad3)*%
X142297500Y-148152500D03*
%TO.P,U4,4*%
%TO.N,f_preAIR*%
X151307500Y-148152500D03*
%TO.P,U4,5*%
%TO.N,GLV-*%
X151307500Y-145612500D03*
%TO.P,U4,6*%
%TO.N,3.3 V*%
X151307500Y-143072500D03*
%TD*%
D34*
%TO.P,Molex1,1,Pin_1*%
%TO.N,Net-(Molex1-Pin_1)*%
X107050000Y-125330000D03*
D35*
%TO.P,Molex1,2,Pin_2*%
%TO.N,Net-(Molex1-Pin_2)*%
X110050000Y-125330000D03*
%TD*%
D43*
%TO.P,U1,1*%
%TO.N,Net-(R12-Pad2)*%
X142495000Y-123085000D03*
%TO.P,U1,2*%
%TO.N,Net-(U2-FOUT)*%
X142495000Y-125625000D03*
%TO.P,U1,3*%
%TO.N,unconnected-(U1-Pad3)*%
X142495000Y-128165000D03*
%TO.P,U1,4*%
%TO.N,f_postAIR*%
X151505000Y-128165000D03*
%TO.P,U1,5*%
%TO.N,GLV-*%
X151505000Y-125625000D03*
%TO.P,U1,6*%
%TO.N,3.3 V*%
X151505000Y-123085000D03*
%TD*%
D18*
%TO.P,RT1,1*%
%TO.N,Net-(U5-RC)*%
X121692500Y-141165000D03*
%TO.P,RT1,2*%
%TO.N,12V_HV*%
X121692500Y-142815000D03*
%TD*%
D30*
%TO.P,R4,1*%
%TO.N,Net-(R3-Pad2)*%
X126002500Y-117610000D03*
%TO.P,R4,2*%
%TO.N,Net-(R16-Pad1)*%
X123077500Y-117610000D03*
%TD*%
D44*
%TO.P,J2,1,Pin_1*%
%TO.N,3.3 V*%
X164880000Y-138730000D03*
D45*
%TO.P,J2,2,Pin_2*%
%TO.N,SWCLK*%
X164880000Y-141270000D03*
%TO.P,J2,3,Pin_3*%
%TO.N,SWDIO*%
X164880000Y-143810000D03*
%TO.P,J2,4,Pin_4*%
%TO.N,GLV-*%
X164880000Y-146350000D03*
%TD*%
D25*
%TO.P,U5,1,IOUT*%
%TO.N,Net-(U5-IOUT)*%
X132967500Y-149380000D03*
D26*
%TO.P,U5,2,IREF*%
%TO.N,Net-(U5-IREF)*%
X132967500Y-146840000D03*
%TO.P,U5,3,FOUT*%
%TO.N,Net-(U5-FOUT)*%
X132967500Y-144300000D03*
%TO.P,U5,4,GND*%
%TO.N,HV-*%
X132967500Y-141760000D03*
%TO.P,U5,5,RC*%
%TO.N,Net-(U5-RC)*%
X125027500Y-141760000D03*
%TO.P,U5,6,THRESH*%
%TO.N,Net-(U5-IOUT)*%
X125027500Y-144300000D03*
%TO.P,U5,7,COMPIN*%
%TO.N,Net-(U5-COMPIN)*%
X125027500Y-146840000D03*
%TO.P,U5,8,VS*%
%TO.N,12V_HV*%
X125027500Y-149380000D03*
%TD*%
D22*
%TO.P,C1,1*%
%TO.N,GLV+*%
X152760000Y-118380000D03*
%TO.P,C1,2*%
%TO.N,GLV-*%
X150860000Y-118380000D03*
%TD*%
D18*
%TO.P,R15,1*%
%TO.N,12V_HV*%
X140100000Y-124155000D03*
%TO.P,R15,2*%
%TO.N,Net-(U2-FOUT)*%
X140100000Y-125805000D03*
%TD*%
D46*
%TO.N,CHG*%
X186710000Y-126810000D03*
X186350000Y-124300000D03*
%TO.N,12V_HV*%
X138300000Y-144500000D03*
X137875000Y-125150000D03*
X138300000Y-126500000D03*
%TO.N,HV-*%
X121975000Y-127900000D03*
X135930000Y-119760000D03*
X121992500Y-148102500D03*
X136740000Y-143240000D03*
X136950000Y-139150000D03*
X123442500Y-143990000D03*
X120172275Y-123888391D03*
X120517500Y-149602500D03*
X134910000Y-143080000D03*
X123375000Y-123900000D03*
X120675000Y-129400000D03*
X120942500Y-143990000D03*
X141720000Y-118190000D03*
X136600000Y-123800000D03*
X135000000Y-123900000D03*
%TO.N,f_preAIR*%
X169640000Y-131770000D03*
X155515000Y-146585000D03*
%TO.N,f_postAIR*%
X175500000Y-131560000D03*
X169683180Y-130971164D03*
X155010000Y-127550000D03*
X172540000Y-131010000D03*
%TO.N,GLV-*%
X158190000Y-127010000D03*
X161170000Y-124980000D03*
X159670000Y-125950000D03*
X159690000Y-123960000D03*
X158930000Y-127940000D03*
X158950000Y-124970000D03*
X185205000Y-146980000D03*
X160430000Y-123970000D03*
X164470000Y-117780000D03*
X176567500Y-124612500D03*
X175560000Y-132970000D03*
X167715000Y-116780000D03*
X158190000Y-127940000D03*
X161890000Y-125960000D03*
X158930000Y-125950000D03*
X152760000Y-146710000D03*
X162650000Y-124980000D03*
X152950000Y-125710000D03*
X175420000Y-142530000D03*
X162630000Y-127950000D03*
X161170000Y-123970000D03*
X162650000Y-123970000D03*
X181977500Y-124442500D03*
X161150000Y-127950000D03*
X160410000Y-127020000D03*
X159670000Y-127940000D03*
X159690000Y-124970000D03*
X161900000Y-112940000D03*
X187850000Y-135250000D03*
X161890000Y-127950000D03*
X160410000Y-125960000D03*
X161910000Y-123970000D03*
X161890000Y-127020000D03*
X158950000Y-123960000D03*
X181510000Y-133230000D03*
X161150000Y-127020000D03*
X161910000Y-124980000D03*
X158190000Y-125950000D03*
X159670000Y-127010000D03*
X158210000Y-123960000D03*
X186380000Y-123440000D03*
X158210000Y-124970000D03*
X178400000Y-122642500D03*
X158930000Y-127010000D03*
X162630000Y-125960000D03*
X160410000Y-127950000D03*
X180470000Y-136350000D03*
X166520000Y-127190000D03*
X177210000Y-142550000D03*
X159080000Y-112900000D03*
X160430000Y-124980000D03*
X162630000Y-127020000D03*
X161150000Y-125960000D03*
%TO.N,SWCLK*%
X169740000Y-135070000D03*
%TO.N,SWDIO*%
X172440000Y-134220000D03*
%TO.N,Net-(Q1-G)*%
X170480000Y-127960000D03*
X184050000Y-133560000D03*
%TD*%
D47*
%TO.N,Charge_on*%
X178960000Y-130195000D02*
X183370000Y-130195000D01*
X183370000Y-130195000D02*
X185125000Y-131950000D01*
X176875000Y-130355000D02*
X178800000Y-130355000D01*
X178800000Y-130355000D02*
X178960000Y-130195000D01*
X182126000Y-115926000D02*
X182126000Y-122361000D01*
X182126000Y-122361000D02*
X183640000Y-123875000D01*
X183640000Y-123875000D02*
X183840000Y-123875000D01*
X183840000Y-123875000D02*
X185260000Y-125295000D01*
X181050000Y-114850000D02*
X182126000Y-115926000D01*
X185260000Y-125295000D02*
X185260000Y-129550000D01*
X185260000Y-129550000D02*
X185757500Y-130047500D01*
%TO.N,Net-(R3-Pad2)*%
X126165000Y-117385000D02*
X128427500Y-117385000D01*
%TO.N,Net-(R16-Pad1)*%
X120075000Y-121100000D02*
X122052500Y-119122500D01*
X120100000Y-124700000D02*
X118900000Y-123500000D01*
X119625000Y-121100000D02*
X120075000Y-121100000D01*
X118900000Y-123500000D02*
X118900000Y-121825000D01*
X118900000Y-121825000D02*
X119625000Y-121100000D01*
X121550000Y-124700000D02*
X120100000Y-124700000D01*
X122052500Y-118635000D02*
X122052500Y-119122500D01*
X123077500Y-117610000D02*
X122052500Y-118635000D01*
%TO.N,Net-(R2-Pad2)*%
X130990000Y-117310000D02*
X131065000Y-117385000D01*
X130990000Y-112835000D02*
X130990000Y-117310000D01*
%TO.N,Net-(R1-Pad2)*%
X126215000Y-112835000D02*
X128427500Y-112835000D01*
%TO.N,/HV+_postAIR*%
X120515000Y-113185000D02*
X122940000Y-113185000D01*
D48*
%TO.N,SDCin*%
X187657500Y-130047500D02*
X186775000Y-130930000D01*
X185390000Y-123887500D02*
X185599000Y-124096500D01*
X187801000Y-126571057D02*
X187801000Y-129014000D01*
X187801000Y-129014000D02*
X187657500Y-129157500D01*
X184850000Y-118650000D02*
X184850000Y-121233032D01*
X184850000Y-121233032D02*
X185410000Y-121793032D01*
X186775000Y-130930000D02*
X186775000Y-133560000D01*
X185599000Y-124096500D02*
X185599000Y-124749000D01*
X185410000Y-121793032D02*
X185410000Y-123693032D01*
X187657500Y-129157500D02*
X187657500Y-130047500D01*
X186630000Y-125780000D02*
X187009943Y-125780000D01*
X184050000Y-117850000D02*
X184850000Y-118650000D01*
X187009943Y-125780000D02*
X187801000Y-126571057D01*
X185599000Y-124749000D02*
X186630000Y-125780000D01*
D47*
%TO.N,Net-(R7-Pad2)*%
X128000000Y-133500000D02*
X130300000Y-133500000D01*
%TO.N,/HV+_preAIR*%
X124675000Y-133900000D02*
X125075000Y-133500000D01*
X120700000Y-133900000D02*
X124675000Y-133900000D01*
%TO.N,Net-(R8-Pad2)*%
X133225000Y-137700000D02*
X133125000Y-137800000D01*
X133225000Y-133500000D02*
X133225000Y-137700000D01*
%TO.N,Net-(R10-Pad1)*%
X128475000Y-137825000D02*
X130175000Y-137825000D01*
X127862500Y-137800000D02*
X130200000Y-137800000D01*
X130175000Y-137825000D02*
X130200000Y-137800000D01*
%TO.N,CHG*%
X186877500Y-124300000D02*
X186350000Y-124300000D01*
X187310000Y-118110000D02*
X187310000Y-123693032D01*
X186710000Y-126810000D02*
X186710000Y-127280000D01*
X187290000Y-123887500D02*
X186877500Y-124300000D01*
X184050000Y-114850000D02*
X187310000Y-118110000D01*
X186710000Y-127280000D02*
X186707500Y-127282500D01*
X186707500Y-127282500D02*
X186707500Y-128172500D01*
%TO.N,Net-(R10-Pad2)*%
X120692500Y-144665000D02*
X120217500Y-144665000D01*
X122445000Y-138662500D02*
X124075000Y-138662500D01*
X120542500Y-144990000D02*
X120542500Y-145015000D01*
X119142500Y-143590000D02*
X120542500Y-144990000D01*
X124075000Y-138662500D02*
X124937500Y-137800000D01*
X119942500Y-141165000D02*
X122445000Y-138662500D01*
X119142500Y-141965000D02*
X119942500Y-141165000D01*
X120542500Y-145015000D02*
X120692500Y-145165000D01*
X119142500Y-143590000D02*
X119142500Y-141965000D01*
%TO.N,12V_HV*%
X121775000Y-123375000D02*
X123250000Y-124850000D01*
X126120000Y-128570000D02*
X125395000Y-128570000D01*
D49*
X140490196Y-140284804D02*
X141030196Y-140284804D01*
D47*
X123342500Y-144865000D02*
X124311151Y-144865000D01*
X137977500Y-117082500D02*
X139430000Y-115630000D01*
X140100000Y-124155000D02*
X138870000Y-124155000D01*
D49*
X138300000Y-126500000D02*
X141030196Y-129230196D01*
D47*
X123350000Y-129400000D02*
X124565000Y-129400000D01*
D49*
X139770000Y-143535000D02*
X138505000Y-142270000D01*
D47*
X138305000Y-121940000D02*
X138315000Y-121930000D01*
X121692500Y-143215000D02*
X123342500Y-144865000D01*
X126300000Y-128390000D02*
X126120000Y-128570000D01*
X125942500Y-148465000D02*
X125027500Y-149380000D01*
X138315000Y-121930000D02*
X140100000Y-123715000D01*
D49*
X123192500Y-149602500D02*
X124805000Y-149602500D01*
D47*
X138870000Y-124155000D02*
X137875000Y-125150000D01*
D49*
X139505000Y-144500000D02*
X139770000Y-144235000D01*
D47*
X121692500Y-142815000D02*
X121692500Y-143215000D01*
X121775000Y-122775000D02*
X121775000Y-123375000D01*
X123250000Y-124850000D02*
X126300000Y-124850000D01*
X139350000Y-120895000D02*
X138315000Y-121930000D01*
D49*
X138300000Y-144500000D02*
X139505000Y-144500000D01*
D47*
X125395000Y-128570000D02*
X125005000Y-128960000D01*
D49*
X138505000Y-142270000D02*
X140490196Y-140284804D01*
D47*
X139260000Y-118290000D02*
X139350000Y-118200000D01*
D49*
X141030196Y-129230196D02*
X141030196Y-140284804D01*
X139770000Y-144235000D02*
X139770000Y-143535000D01*
D47*
X137977500Y-118290000D02*
X137977500Y-117082500D01*
D49*
X124805000Y-149602500D02*
X125027500Y-149380000D01*
D47*
X140100000Y-123715000D02*
X140100000Y-124155000D01*
X139350000Y-118200000D02*
X139350000Y-120895000D01*
X126300000Y-124850000D02*
X126300000Y-128390000D01*
X125942500Y-146496349D02*
X125942500Y-148465000D01*
X124311151Y-144865000D02*
X125942500Y-146496349D01*
X137890000Y-118290000D02*
X139260000Y-118290000D01*
%TO.N,Net-(R13-Pad2)*%
X140155000Y-142270000D02*
X141495000Y-142270000D01*
X141495000Y-142270000D02*
X142297500Y-143072500D01*
X142992500Y-143072500D02*
X142807500Y-142887500D01*
D49*
%TO.N,AIR+_en*%
X177450000Y-122232500D02*
X175617500Y-124065000D01*
X177967500Y-121527500D02*
X177450000Y-122045000D01*
X177967500Y-117872500D02*
X177967500Y-121527500D01*
%TO.N,HV-*%
X121642500Y-149602500D02*
X120517500Y-149602500D01*
D47*
X123367500Y-142765000D02*
X123367500Y-143915000D01*
X123350000Y-123875000D02*
X123375000Y-123900000D01*
X140750000Y-118200000D02*
X141710000Y-118200000D01*
X122000000Y-127875000D02*
X121975000Y-127900000D01*
X137830000Y-136210000D02*
X137830000Y-138270000D01*
X122042500Y-148052500D02*
X121992500Y-148102500D01*
X119942500Y-142815000D02*
X119942500Y-142990000D01*
X119942500Y-142990000D02*
X120942500Y-143990000D01*
X136625000Y-123825000D02*
X136600000Y-123800000D01*
X135930000Y-119760000D02*
X135930000Y-118317500D01*
X141710000Y-118200000D02*
X141720000Y-118190000D01*
X136740000Y-144177500D02*
X136740000Y-143240000D01*
X120075000Y-122750000D02*
X120075000Y-123791116D01*
X134870000Y-143120000D02*
X134910000Y-143080000D01*
X135930000Y-118317500D02*
X135902500Y-118290000D01*
X136850000Y-144287500D02*
X136740000Y-144177500D01*
X136625000Y-124875000D02*
X136625000Y-123825000D01*
X123175000Y-127875000D02*
X122000000Y-127875000D01*
X121800000Y-129400000D02*
X120675000Y-129400000D01*
X123350000Y-122700000D02*
X123350000Y-123875000D01*
X123192500Y-148052500D02*
X122042500Y-148052500D01*
X134870000Y-144105000D02*
X134870000Y-143120000D01*
X135000000Y-124850000D02*
X135000000Y-123900000D01*
X137830000Y-138270000D02*
X136950000Y-139150000D01*
X120075000Y-123791116D02*
X120172275Y-123888391D01*
X123367500Y-143915000D02*
X123442500Y-143990000D01*
%TO.N,Net-(R12-Pad2)*%
X141500000Y-122800000D02*
X140630000Y-121930000D01*
X140630000Y-121930000D02*
X139965000Y-121930000D01*
X141500000Y-122800000D02*
X142905000Y-122800000D01*
X142905000Y-122800000D02*
X143190000Y-123085000D01*
%TO.N,Net-(U2-FOUT)*%
X133170000Y-124380000D02*
X134565000Y-125775000D01*
X134565000Y-125775000D02*
X141050000Y-125775000D01*
X141050000Y-125775000D02*
X141250000Y-125975000D01*
X142840000Y-125975000D02*
X143190000Y-125625000D01*
X141250000Y-125975000D02*
X142840000Y-125975000D01*
%TO.N,Pre_en_gate*%
X178676798Y-127278202D02*
X177959072Y-127278202D01*
X175830298Y-131005000D02*
X176875000Y-131005000D01*
X175759298Y-129477976D02*
X175759298Y-130934000D01*
X176870000Y-131010000D02*
X176875000Y-131005000D01*
X180065000Y-125890000D02*
X178676798Y-127278202D01*
X175759298Y-130934000D02*
X175830298Y-131005000D01*
X177959072Y-127278202D02*
X175759298Y-129477976D01*
%TO.N,Net-(U2-RC)*%
X121775000Y-121125000D02*
X123325000Y-121125000D01*
X123350000Y-121150000D02*
X124815000Y-121150000D01*
X123325000Y-121125000D02*
X123350000Y-121150000D01*
%TO.N,Net-(U5-RC)*%
X124482500Y-141215000D02*
X125027500Y-141760000D01*
X123317500Y-141165000D02*
X123367500Y-141215000D01*
X123367500Y-141215000D02*
X124482500Y-141215000D01*
X121692500Y-141165000D02*
X123317500Y-141165000D01*
%TO.N,Net-(U2-IREF)*%
X134580000Y-126920000D02*
X135000000Y-126500000D01*
X133170000Y-126920000D02*
X134580000Y-126920000D01*
%TO.N,Net-(U5-IREF)*%
X133192500Y-146615000D02*
X132967500Y-146840000D01*
X133785000Y-146840000D02*
X134870000Y-145755000D01*
X132967500Y-146840000D02*
X133785000Y-146840000D01*
%TO.N,Net-(U2-IOUT)*%
X133170000Y-129460000D02*
X133960000Y-129460000D01*
X133170000Y-129460000D02*
X133665000Y-129460000D01*
X125230000Y-124380000D02*
X128090000Y-124380000D01*
X128090000Y-124380000D02*
X133170000Y-129460000D01*
X133960000Y-129460000D02*
X135200000Y-130700000D01*
X133665000Y-129460000D02*
X135025000Y-128100000D01*
%TO.N,Net-(U5-IOUT)*%
X135142500Y-150027500D02*
X133615000Y-150027500D01*
X127887500Y-144300000D02*
X132967500Y-149380000D01*
X134910000Y-149875000D02*
X136270000Y-149875000D01*
X125027500Y-144300000D02*
X127887500Y-144300000D01*
X136270000Y-149875000D02*
X137015000Y-149130000D01*
X133615000Y-150027500D02*
X132967500Y-149380000D01*
%TO.N,Net-(U2-COMPIN)*%
X121550000Y-126350000D02*
X123150000Y-126350000D01*
X123150000Y-126350000D02*
X123175000Y-126325000D01*
X123175000Y-126325000D02*
X124910000Y-126325000D01*
%TO.N,AIR+_en_gate*%
X173274000Y-127333500D02*
X173260000Y-127333500D01*
X173260000Y-127333500D02*
X173260000Y-131537726D01*
X174667500Y-125940000D02*
X173274000Y-127333500D01*
X173260000Y-131537726D02*
X171842726Y-132955000D01*
X174667500Y-125940000D02*
X174670000Y-125940000D01*
X171150000Y-132955000D02*
X171854916Y-132955000D01*
X171842726Y-132955000D02*
X171150000Y-132955000D01*
D49*
%TO.N,GLV+*%
X165632500Y-123970000D02*
X165540000Y-123877500D01*
X155627500Y-115600000D02*
X160267500Y-115600000D01*
X152847500Y-116347500D02*
X152130000Y-115630000D01*
X162700000Y-118032500D02*
X162700000Y-119787500D01*
X165540000Y-123877500D02*
X165540000Y-122980000D01*
X162700000Y-119787500D02*
X162687500Y-119800000D01*
X165540000Y-122980000D02*
X162687500Y-120127500D01*
X167745000Y-123970000D02*
X165632500Y-123970000D01*
X162687500Y-120127500D02*
X162687500Y-119800000D01*
X160267500Y-115600000D02*
X162700000Y-118032500D01*
X152847500Y-118380000D02*
X155627500Y-115600000D01*
X152847500Y-118380000D02*
X152847500Y-116347500D01*
X167837500Y-123877500D02*
X167745000Y-123970000D01*
D47*
%TO.N,f_preAIR*%
X152632500Y-148152500D02*
X154200000Y-146585000D01*
X154200000Y-146585000D02*
X155515000Y-146585000D01*
X171035000Y-131770000D02*
X171150000Y-131655000D01*
X169640000Y-131770000D02*
X171035000Y-131770000D01*
X151307500Y-148152500D02*
X152632500Y-148152500D01*
X150810000Y-148350000D02*
X150612500Y-148152500D01*
%TO.N,f_postAIR*%
X176875000Y-131655000D02*
X175595000Y-131655000D01*
X151505000Y-128165000D02*
X152710000Y-128165000D01*
X172540000Y-131010000D02*
X171155000Y-131010000D01*
X170101000Y-131005000D02*
X171150000Y-131005000D01*
X169683180Y-130971164D02*
X169742016Y-131030000D01*
X170076000Y-131030000D02*
X170101000Y-131005000D01*
X154170000Y-126705000D02*
X155010000Y-127545000D01*
X169742016Y-131030000D02*
X170076000Y-131030000D01*
X152710000Y-128165000D02*
X154170000Y-126705000D01*
X155010000Y-127545000D02*
X155010000Y-127550000D01*
X175595000Y-131655000D02*
X175500000Y-131560000D01*
X171155000Y-131010000D02*
X171150000Y-131005000D01*
%TO.N,Net-(U5-COMPIN)*%
X122505000Y-146502500D02*
X122192500Y-146815000D01*
X123192500Y-146502500D02*
X122505000Y-146502500D01*
X123192500Y-146502500D02*
X124690000Y-146502500D01*
X124690000Y-146502500D02*
X125027500Y-146840000D01*
X120692500Y-146815000D02*
X122192500Y-146815000D01*
%TO.N,Net-(U5-FOUT)*%
X132967500Y-144300000D02*
X133532500Y-144865000D01*
X135979000Y-145249000D02*
X139134000Y-145249000D01*
X139770000Y-145885000D02*
X140622500Y-145885000D01*
X140950000Y-146212500D02*
X142392500Y-146212500D01*
X140622500Y-145885000D02*
X140950000Y-146212500D01*
X133532500Y-144865000D02*
X135595000Y-144865000D01*
X139441500Y-146213500D02*
X139770000Y-145885000D01*
X135595000Y-144865000D02*
X135979000Y-145249000D01*
X132967500Y-144463004D02*
X132967500Y-144300000D01*
X142392500Y-146212500D02*
X142992500Y-145612500D01*
X139134000Y-145249000D02*
X139770000Y-145885000D01*
D49*
%TO.N,Pre_en*%
X179350000Y-122045000D02*
X181015000Y-123710000D01*
X180967500Y-119432500D02*
X179350000Y-121050000D01*
X179350000Y-121050000D02*
X179350000Y-122045000D01*
X180967500Y-117872500D02*
X180967500Y-119432500D01*
D48*
%TO.N,GLV-*%
X159060000Y-113050000D02*
X159060000Y-114107500D01*
X151662500Y-145612500D02*
X152760000Y-146710000D01*
X168567500Y-116780000D02*
X168577500Y-116790000D01*
X159080000Y-113030000D02*
X159060000Y-113050000D01*
X186775000Y-135200000D02*
X187800000Y-135200000D01*
X187800000Y-135200000D02*
X187850000Y-135250000D01*
D49*
X176567500Y-125940000D02*
X176567500Y-124612500D01*
D48*
X177205000Y-141300000D02*
X177225000Y-141320000D01*
X180285000Y-135260000D02*
X180285000Y-133665000D01*
X166972500Y-127872500D02*
X167492500Y-127872500D01*
X176875000Y-132955000D02*
X175575000Y-132955000D01*
X180470000Y-136350000D02*
X180470000Y-135305000D01*
X152865000Y-125625000D02*
X152950000Y-125710000D01*
D49*
X150772500Y-118380000D02*
X150772500Y-116812500D01*
D48*
X182615000Y-146980000D02*
X185205000Y-146980000D01*
X186340000Y-123400000D02*
X186380000Y-123440000D01*
X151505000Y-125625000D02*
X152865000Y-125625000D01*
X167715000Y-116780000D02*
X168567500Y-116780000D01*
X175420000Y-141325000D02*
X175395000Y-141300000D01*
X186340000Y-122012500D02*
X186340000Y-123400000D01*
X177225000Y-141320000D02*
X177225000Y-142535000D01*
D49*
X150772500Y-116812500D02*
X149590000Y-115630000D01*
D48*
X180470000Y-135305000D02*
X180445000Y-135280000D01*
X180285000Y-133665000D02*
X180300000Y-133650000D01*
X166520000Y-127420000D02*
X166972500Y-127872500D01*
X175575000Y-132955000D02*
X175560000Y-132970000D01*
X161900000Y-112940000D02*
X161900000Y-114107500D01*
X175420000Y-142530000D02*
X175420000Y-141325000D01*
X181040000Y-133700000D02*
X180465000Y-133700000D01*
D49*
X181965000Y-125890000D02*
X181965000Y-124455000D01*
X165540000Y-117765000D02*
X164485000Y-117765000D01*
D48*
X167715000Y-116780000D02*
X167765000Y-116730000D01*
X180300000Y-133650000D02*
X180715000Y-133650000D01*
X177225000Y-142535000D02*
X177210000Y-142550000D01*
X181510000Y-133230000D02*
X181040000Y-133700000D01*
X182505000Y-147090000D02*
X182615000Y-146980000D01*
D49*
X178400000Y-122642500D02*
X178400000Y-123920000D01*
D48*
X166520000Y-127190000D02*
X166520000Y-127420000D01*
X159080000Y-112900000D02*
X159080000Y-113030000D01*
X151307500Y-145612500D02*
X151662500Y-145612500D01*
X164485000Y-117765000D02*
X164470000Y-117780000D01*
D47*
%TO.N,Precharge_Fault*%
X175050000Y-117850000D02*
X175050000Y-119375000D01*
X175050000Y-119375000D02*
X172740000Y-121685000D01*
%TO.N,Net-(Molex1-Pin_2)*%
X115505000Y-113415000D02*
X115175000Y-113085000D01*
X110050000Y-125330000D02*
X115300000Y-120080000D01*
X115300000Y-120080000D02*
X115300000Y-113110000D01*
%TO.N,Net-(Molex2-Pin_2)*%
X114330000Y-135190000D02*
X115620000Y-133900000D01*
X110060000Y-135190000D02*
X114330000Y-135190000D01*
X115660000Y-133940000D02*
X115620000Y-133900000D01*
%TO.N,Net-(Molex2-Pin_1)*%
X112484000Y-137304000D02*
X109174000Y-137304000D01*
X109174000Y-137304000D02*
X107060000Y-135190000D01*
X117010000Y-141830000D02*
X112484000Y-137304000D01*
%TO.N,Net-(CL2-Pad2)*%
X136675000Y-126575000D02*
X136625000Y-126525000D01*
X136615000Y-126535000D02*
X136625000Y-126525000D01*
X136675000Y-129050000D02*
X138325000Y-130700000D01*
X136675000Y-128100000D02*
X136675000Y-129050000D01*
X136675000Y-128100000D02*
X136675000Y-126575000D01*
%TO.N,Net-(CL1-Pad2)*%
X136740000Y-145975000D02*
X136740000Y-146615000D01*
X136350000Y-146785000D02*
X134910000Y-148225000D01*
X137795000Y-146785000D02*
X140140000Y-149130000D01*
X136740000Y-146615000D02*
X136910000Y-146785000D01*
X136910000Y-146785000D02*
X136350000Y-146785000D01*
X136910000Y-146785000D02*
X137795000Y-146785000D01*
%TO.N,Net-(U7-PC14)*%
X177612499Y-134905000D02*
X178119000Y-135411501D01*
X178775000Y-141320000D02*
X178775000Y-138965000D01*
X176875000Y-134905000D02*
X177612499Y-134905000D01*
X178119000Y-138309000D02*
X178180000Y-138370000D01*
X177981500Y-138171500D02*
X178180000Y-138370000D01*
X178119000Y-135411501D02*
X178119000Y-138309000D01*
X176875000Y-134905000D02*
X176182274Y-134905000D01*
X178775000Y-138965000D02*
X178180000Y-138370000D01*
%TO.N,Net-(U7-PC15)*%
X174480000Y-140665000D02*
X173845000Y-141300000D01*
X176137501Y-134255000D02*
X174480000Y-135912501D01*
X176875000Y-134255000D02*
X176137501Y-134255000D01*
X174480000Y-135912501D02*
X174480000Y-138370000D01*
X174480000Y-138370000D02*
X174480000Y-140665000D01*
%TO.N,3.3 V*%
X153475000Y-125055000D02*
X154170000Y-125055000D01*
X174882274Y-134707726D02*
X175985000Y-133605000D01*
X170720000Y-138880000D02*
X174882274Y-134717726D01*
X176875000Y-133605000D02*
X178705000Y-133605000D01*
X178735000Y-135260000D02*
X178735000Y-133665000D01*
X150419000Y-124171000D02*
X151505000Y-123085000D01*
X174882274Y-134717726D02*
X174882274Y-134707726D01*
X151505000Y-123085000D02*
X153475000Y-125055000D01*
X178915000Y-132155000D02*
X178870000Y-132110000D01*
X175985000Y-133605000D02*
X176875000Y-133605000D01*
X178740000Y-133605000D02*
X178760000Y-133585000D01*
X178735000Y-133665000D02*
X178750000Y-133650000D01*
X168440000Y-138880000D02*
X170720000Y-138880000D01*
X164235000Y-138960000D02*
X168360000Y-138960000D01*
X168360000Y-138960000D02*
X168440000Y-138880000D01*
X178705000Y-133605000D02*
X178750000Y-133650000D01*
X178915000Y-133700000D02*
X178915000Y-132155000D01*
D49*
%TO.N,Pre_GLV+*%
X166965000Y-117982500D02*
X169990000Y-121007500D01*
X169990000Y-121007500D02*
X169990000Y-122650000D01*
X166965000Y-114790000D02*
X166965000Y-117982500D01*
D47*
%TO.N,SWCLK*%
X169905000Y-134905000D02*
X171150000Y-134905000D01*
X169740000Y-135070000D02*
X169905000Y-134905000D01*
%TO.N,SWDIO*%
X172440000Y-134220000D02*
X171185000Y-134220000D01*
X171185000Y-134220000D02*
X171150000Y-134255000D01*
X164600000Y-143675000D02*
X164235000Y-144040000D01*
%TO.N,Net-(Q1-D)*%
X168270000Y-129830000D02*
X168262500Y-129837500D01*
X168270000Y-126895000D02*
X168270000Y-129830000D01*
X166815000Y-125840000D02*
X167215000Y-125840000D01*
X171027500Y-129827500D02*
X171150000Y-129705000D01*
X168262500Y-129837500D02*
X168272500Y-129827500D01*
X167215000Y-125840000D02*
X168270000Y-126895000D01*
X168272500Y-129827500D02*
X171027500Y-129827500D01*
%TO.N,Net-(Q1-G)*%
X185125000Y-133560000D02*
X184050000Y-133560000D01*
X185125000Y-133560000D02*
X185125000Y-135200000D01*
X170480000Y-127960000D02*
X169480000Y-127960000D01*
X169480000Y-127960000D02*
X169472500Y-127952500D01*
%TO.N,Net-(U7-PA5)*%
X172740000Y-129502499D02*
X172740000Y-123335000D01*
X171887499Y-130355000D02*
X172740000Y-129502499D01*
X171150000Y-130355000D02*
X171887499Y-130355000D01*
X171140164Y-130345164D02*
X171150000Y-130355000D01*
%TO.N,unconnected-(U7-PA8-Pad15)*%
X171135000Y-132290000D02*
X171150000Y-132305000D01*
%TO.N,Net-(Q5-G)*%
X165840000Y-121700000D02*
X165540000Y-121400000D01*
X168115000Y-121700000D02*
X165840000Y-121700000D01*
X165540000Y-121400000D02*
X165540000Y-119415000D01*
%TO.N,Net-(D1-K)*%
X169940000Y-114790000D02*
X170000000Y-114850000D01*
D49*
X174580000Y-115320000D02*
X175050000Y-114850000D01*
X170470000Y-115320000D02*
X174580000Y-115320000D01*
D47*
X169940000Y-116710000D02*
X169900000Y-116750000D01*
D49*
X169940000Y-114790000D02*
X169940000Y-116710000D01*
X170000000Y-114850000D02*
X170470000Y-115320000D01*
D47*
%TO.N,Charge_on*%
X185757500Y-131317500D02*
X185125000Y-131950000D01*
X185757500Y-130047500D02*
X185757500Y-131317500D01*
%TD*%
%TA.AperFunction,Conductor*%
%TO.N,3.3 V*%
G36*
X159972309Y-116370185D02*
G01*
X159992951Y-116386819D01*
X160843181Y-117237049D01*
X160876666Y-117298372D01*
X160879500Y-117324729D01*
X160879500Y-117520000D01*
X160879501Y-117520019D01*
X160890000Y-117622796D01*
X160890001Y-117622799D01*
X160915967Y-117701158D01*
X160945186Y-117789334D01*
X161037288Y-117938656D01*
X161161344Y-118062712D01*
X161310666Y-118154814D01*
X161477203Y-118209999D01*
X161579991Y-118220500D01*
X161706270Y-118220499D01*
X161773309Y-118240183D01*
X161819064Y-118292987D01*
X161829008Y-118362145D01*
X161799984Y-118425701D01*
X161793952Y-118432179D01*
X161744789Y-118481342D01*
X161652687Y-118630663D01*
X161652686Y-118630666D01*
X161597501Y-118797203D01*
X161597501Y-118797204D01*
X161597500Y-118797204D01*
X161587000Y-118899983D01*
X161587000Y-120700001D01*
X161587001Y-120700018D01*
X161597500Y-120802796D01*
X161597501Y-120802799D01*
X161648593Y-120956983D01*
X161652686Y-120969334D01*
X161744788Y-121118656D01*
X161868844Y-121242712D01*
X162018166Y-121334814D01*
X162184703Y-121389999D01*
X162287491Y-121400500D01*
X162847769Y-121400499D01*
X162914808Y-121420183D01*
X162935450Y-121436818D01*
X164753181Y-123254548D01*
X164786666Y-123315871D01*
X164789500Y-123342229D01*
X164789500Y-123951418D01*
X164789500Y-123951420D01*
X164789499Y-123951420D01*
X164818340Y-124096407D01*
X164818343Y-124096417D01*
X164874912Y-124232988D01*
X164874917Y-124232997D01*
X164875922Y-124234501D01*
X164900045Y-124270603D01*
X164900046Y-124270606D01*
X164900047Y-124270606D01*
X164913808Y-124291202D01*
X164957051Y-124355920D01*
X165154078Y-124552947D01*
X165154083Y-124552951D01*
X165154084Y-124552952D01*
X165212209Y-124591789D01*
X165277005Y-124635084D01*
X165314223Y-124650500D01*
X165413588Y-124691659D01*
X165529741Y-124714763D01*
X165548968Y-124718587D01*
X165558581Y-124720500D01*
X165868555Y-124720500D01*
X165935594Y-124740185D01*
X165981349Y-124792989D01*
X165992555Y-124844819D01*
X165991622Y-125207895D01*
X165973746Y-125271713D01*
X165971524Y-125275388D01*
X165920913Y-125437807D01*
X165914500Y-125508386D01*
X165914500Y-126171613D01*
X165920913Y-126242192D01*
X165920913Y-126242194D01*
X165920914Y-126242196D01*
X165971522Y-126404606D01*
X165971523Y-126404608D01*
X165971524Y-126404610D01*
X165978468Y-126416097D01*
X165982960Y-126431819D01*
X165990868Y-126443784D01*
X165996340Y-126478651D01*
X165996974Y-126527980D01*
X165978152Y-126595267D01*
X165960667Y-126617254D01*
X165898208Y-126679714D01*
X165810609Y-126810814D01*
X165810602Y-126810827D01*
X165750264Y-126956498D01*
X165750261Y-126956510D01*
X165719500Y-127111153D01*
X165719500Y-127268846D01*
X165750261Y-127423489D01*
X165750264Y-127423501D01*
X165810602Y-127569172D01*
X165810609Y-127569185D01*
X165898209Y-127700287D01*
X165898210Y-127700288D01*
X165898211Y-127700289D01*
X165977864Y-127779942D01*
X166011348Y-127841263D01*
X166014172Y-127866028D01*
X166168368Y-139863071D01*
X166149546Y-139930358D01*
X166097335Y-139976788D01*
X166043068Y-139988658D01*
X165300959Y-139980815D01*
X165263951Y-139974753D01*
X165196244Y-139952754D01*
X165054841Y-139930358D01*
X164986287Y-139919500D01*
X164773713Y-139919500D01*
X164731721Y-139926150D01*
X164563753Y-139952754D01*
X164522651Y-139966109D01*
X164483024Y-139972171D01*
X162655807Y-139952861D01*
X162723218Y-145307185D01*
X162704379Y-145374467D01*
X162652155Y-145420883D01*
X162600403Y-145432740D01*
X152693174Y-145526659D01*
X152625951Y-145507611D01*
X152579698Y-145455243D01*
X152567999Y-145402665D01*
X152567999Y-144674629D01*
X152567998Y-144674623D01*
X152561591Y-144615016D01*
X152511297Y-144480171D01*
X152511293Y-144480164D01*
X152425047Y-144364955D01*
X152425044Y-144364952D01*
X152309835Y-144278706D01*
X152309828Y-144278702D01*
X152174982Y-144228408D01*
X152174983Y-144228408D01*
X152115383Y-144222001D01*
X152115381Y-144222000D01*
X152115373Y-144222000D01*
X152115364Y-144222000D01*
X150499629Y-144222000D01*
X150499623Y-144222001D01*
X150440015Y-144228409D01*
X150409927Y-144239631D01*
X150340236Y-144244615D01*
X150278913Y-144211129D01*
X150245429Y-144149806D01*
X150242600Y-144122371D01*
X150369345Y-129626574D01*
X150389615Y-129559712D01*
X150442817Y-129514421D01*
X150512059Y-129505082D01*
X150536673Y-129511479D01*
X150637517Y-129549091D01*
X150637516Y-129549091D01*
X150644444Y-129549835D01*
X150697127Y-129555500D01*
X152312872Y-129555499D01*
X152372483Y-129549091D01*
X152507331Y-129498796D01*
X152622546Y-129412546D01*
X152708796Y-129297331D01*
X152759091Y-129162483D01*
X152765500Y-129102873D01*
X152765500Y-128893479D01*
X152772545Y-128869484D01*
X152775518Y-128844652D01*
X152782220Y-128836536D01*
X152785185Y-128826440D01*
X152804083Y-128810064D01*
X152820010Y-128790780D01*
X152832227Y-128785677D01*
X152837989Y-128780685D01*
X152851759Y-128775362D01*
X152858434Y-128773229D01*
X152892452Y-128766463D01*
X152930990Y-128750500D01*
X153006286Y-128719312D01*
X153057509Y-128685084D01*
X153108733Y-128650858D01*
X153195858Y-128563733D01*
X153195859Y-128563731D01*
X153202925Y-128556665D01*
X153202927Y-128556661D01*
X154032492Y-127727096D01*
X154093814Y-127693613D01*
X154163506Y-127698597D01*
X154219439Y-127740469D01*
X154238830Y-127778775D01*
X154240262Y-127783497D01*
X154300602Y-127929172D01*
X154300609Y-127929185D01*
X154388210Y-128060288D01*
X154388213Y-128060292D01*
X154499707Y-128171786D01*
X154499711Y-128171789D01*
X154630814Y-128259390D01*
X154630827Y-128259397D01*
X154776498Y-128319735D01*
X154776503Y-128319737D01*
X154931153Y-128350499D01*
X154931156Y-128350500D01*
X154931158Y-128350500D01*
X155088844Y-128350500D01*
X155088845Y-128350499D01*
X155243497Y-128319737D01*
X155389179Y-128259394D01*
X155520289Y-128171789D01*
X155631789Y-128060289D01*
X155719394Y-127929179D01*
X155779737Y-127783497D01*
X155810500Y-127628842D01*
X155810500Y-127471158D01*
X155810500Y-127471155D01*
X155810499Y-127471153D01*
X155801020Y-127423501D01*
X155779737Y-127316503D01*
X155759997Y-127268846D01*
X155719397Y-127170827D01*
X155719390Y-127170814D01*
X155631789Y-127039711D01*
X155631786Y-127039707D01*
X155520292Y-126928213D01*
X155520288Y-126928210D01*
X155389185Y-126840609D01*
X155389172Y-126840602D01*
X155243501Y-126780264D01*
X155237665Y-126778494D01*
X155238152Y-126776885D01*
X155183379Y-126748219D01*
X155148817Y-126687496D01*
X155145500Y-126659005D01*
X155145500Y-126448386D01*
X155145082Y-126443784D01*
X155139086Y-126377804D01*
X155088478Y-126215394D01*
X155000472Y-126069815D01*
X155000470Y-126069813D01*
X155000469Y-126069811D01*
X154880188Y-125949530D01*
X154734606Y-125861522D01*
X154595321Y-125818120D01*
X154572196Y-125810914D01*
X154572194Y-125810913D01*
X154572192Y-125810913D01*
X154522778Y-125806423D01*
X154501616Y-125804500D01*
X153874500Y-125804500D01*
X153807461Y-125784815D01*
X153761706Y-125732011D01*
X153750500Y-125680500D01*
X153750500Y-125631155D01*
X153750499Y-125631153D01*
X153726079Y-125508386D01*
X153719737Y-125476503D01*
X153703709Y-125437807D01*
X153659397Y-125330827D01*
X153659390Y-125330814D01*
X153571789Y-125199711D01*
X153571786Y-125199707D01*
X153460292Y-125088213D01*
X153460288Y-125088210D01*
X153329185Y-125000609D01*
X153329172Y-125000602D01*
X153183501Y-124940264D01*
X153183489Y-124940261D01*
X153028845Y-124909500D01*
X153028842Y-124909500D01*
X152889499Y-124909500D01*
X152822460Y-124889815D01*
X152776705Y-124837011D01*
X152765499Y-124785500D01*
X152765499Y-124687129D01*
X152765498Y-124687123D01*
X152761561Y-124650500D01*
X152759091Y-124627517D01*
X152745765Y-124591789D01*
X152708797Y-124492671D01*
X152708793Y-124492664D01*
X152622547Y-124377455D01*
X152622544Y-124377452D01*
X152507335Y-124291206D01*
X152507328Y-124291202D01*
X152372482Y-124240908D01*
X152372483Y-124240908D01*
X152312883Y-124234501D01*
X152312881Y-124234500D01*
X152312873Y-124234500D01*
X152312864Y-124234500D01*
X150697129Y-124234500D01*
X150697123Y-124234501D01*
X150637517Y-124240908D01*
X150584613Y-124260640D01*
X150514922Y-124265623D01*
X150453599Y-124232137D01*
X150420115Y-124170813D01*
X150417288Y-124143385D01*
X150426411Y-123099980D01*
X157007000Y-123099980D01*
X157007000Y-129100019D01*
X157017501Y-129202801D01*
X157072684Y-129369333D01*
X157072689Y-129369344D01*
X157164785Y-129518653D01*
X157164788Y-129518657D01*
X157288842Y-129642711D01*
X157288846Y-129642714D01*
X157438155Y-129734810D01*
X157438158Y-129734811D01*
X157438164Y-129734815D01*
X157604700Y-129789999D01*
X157707488Y-129800500D01*
X157707493Y-129800500D01*
X163107507Y-129800500D01*
X163107512Y-129800500D01*
X163210300Y-129789999D01*
X163376836Y-129734815D01*
X163526157Y-129642712D01*
X163650212Y-129518657D01*
X163742315Y-129369336D01*
X163797499Y-129202800D01*
X163808000Y-129100012D01*
X163808000Y-123099988D01*
X163797499Y-122997200D01*
X163742315Y-122830664D01*
X163742311Y-122830658D01*
X163742310Y-122830655D01*
X163650214Y-122681346D01*
X163650211Y-122681342D01*
X163526157Y-122557288D01*
X163526153Y-122557285D01*
X163376844Y-122465189D01*
X163376838Y-122465186D01*
X163376836Y-122465185D01*
X163376833Y-122465184D01*
X163210301Y-122410001D01*
X163107519Y-122399500D01*
X163107512Y-122399500D01*
X157707488Y-122399500D01*
X157707480Y-122399500D01*
X157604698Y-122410001D01*
X157438166Y-122465184D01*
X157438155Y-122465189D01*
X157288846Y-122557285D01*
X157288842Y-122557288D01*
X157164788Y-122681342D01*
X157164785Y-122681346D01*
X157072689Y-122830655D01*
X157072684Y-122830666D01*
X157017501Y-122997198D01*
X157007000Y-123099980D01*
X150426411Y-123099980D01*
X150455890Y-119728411D01*
X150476160Y-119661550D01*
X150529362Y-119616259D01*
X150579880Y-119605499D01*
X151160008Y-119605499D01*
X151160016Y-119605498D01*
X151160019Y-119605498D01*
X151216302Y-119599748D01*
X151262797Y-119594999D01*
X151429334Y-119539814D01*
X151578656Y-119447712D01*
X151702712Y-119323656D01*
X151704461Y-119320819D01*
X151706169Y-119319283D01*
X151707193Y-119317989D01*
X151707414Y-119318163D01*
X151756406Y-119274096D01*
X151825368Y-119262872D01*
X151889451Y-119290713D01*
X151915537Y-119320817D01*
X151917288Y-119323656D01*
X152041344Y-119447712D01*
X152190666Y-119539814D01*
X152357203Y-119594999D01*
X152459991Y-119605500D01*
X153060008Y-119605499D01*
X153060016Y-119605498D01*
X153060019Y-119605498D01*
X153116302Y-119599748D01*
X153162797Y-119594999D01*
X153329334Y-119539814D01*
X153478656Y-119447712D01*
X153602712Y-119323656D01*
X153694814Y-119174334D01*
X153749999Y-119007797D01*
X153760500Y-118905009D01*
X153760499Y-118579728D01*
X153780183Y-118512690D01*
X153796813Y-118492053D01*
X155902049Y-116386819D01*
X155963372Y-116353334D01*
X155989730Y-116350500D01*
X159905270Y-116350500D01*
X159972309Y-116370185D01*
G37*
%TD.AperFunction*%
%TD*%
M02*
