M48
; DRILL file {KiCad 9.0.1} date 2025-04-11T22:39:54-0700
; FORMAT={-:-/ absolute / metric / decimal}
; #@! TF.CreationDate,2025-04-11T22:39:54-07:00
; #@! TF.GenerationSoftware,Kicad,Pcbnew,9.0.1
; #@! TF.FileFunction,Plated,1,2,PTH
FMAT,2
METRIC
; #@! TA.AperFunction,Plated,PTH,ViaDrill
T1C0.300
; #@! TA.AperFunction,Plated,PTH,ComponentDrill
T2C0.838
; #@! TA.AperFunction,Plated,PTH,ComponentDrill
T3C0.889
%
G90
G05
T1
X48.75Y-100.5
X50.75Y-102.5
X66.75Y-101.0
X68.75Y-99.5
X72.75Y-88.25
X74.0Y-86.75
T2
X35.75Y-90.5
X35.75Y-92.5
X35.75Y-94.5
X35.75Y-96.5
X35.75Y-98.5
X37.75Y-90.5
X37.75Y-92.5
X37.75Y-94.5
X37.75Y-96.5
X37.75Y-98.5
X53.0Y-105.5
X53.0Y-107.5
X55.0Y-105.5
X55.0Y-107.5
X57.0Y-105.5
X57.0Y-107.5
X59.0Y-105.5
X59.0Y-107.5
X61.0Y-105.5
X61.0Y-107.5
X63.0Y-105.5
X63.0Y-107.5
X65.0Y-105.5
X65.0Y-107.5
X78.0Y-90.25
X78.0Y-92.25
X78.0Y-94.25
X78.0Y-96.25
X78.0Y-98.25
X80.0Y-90.25
X80.0Y-92.25
X80.0Y-94.25
X80.0Y-96.25
X80.0Y-98.25
T3
X45.75Y-91.86
X45.75Y-96.94
X47.0Y-104.71
X47.0Y-109.79
X47.25Y-79.17
X47.25Y-84.25
X50.95Y-91.86
X50.95Y-96.94
X52.75Y-79.17
X52.75Y-84.25
X56.15Y-91.86
X56.15Y-96.94
X58.0Y-79.21
X58.0Y-84.29
X61.15Y-91.86
X61.15Y-96.94
X63.25Y-79.21
X63.25Y-84.29
X66.35Y-91.86
X66.35Y-96.94
X68.5Y-79.21
X68.5Y-84.29
X71.5Y-104.71
X71.5Y-109.79
X71.75Y-91.86
X71.75Y-96.94
M30
