%TF.GenerationSoftware,KiCad,Pcbnew,9.0.1*%
%TF.CreationDate,2025-04-11T17:38:00-07:00*%
%TF.ProjectId,CellTapFuses_V3,43656c6c-5461-4704-9675-7365735f5633,rev?*%
%TF.SameCoordinates,Original*%
%TF.FileFunction,Copper,L1,Top*%
%TF.FilePolarity,Positive*%
%FSLAX46Y46*%
G04 Gerber Fmt 4.6, Leading zero omitted, Abs format (unit mm)*
G04 Created by KiCad (PCBNEW 9.0.1) date 2025-04-11 17:38:00*
%MOMM*%
%LPD*%
G01*
G04 APERTURE LIST*
%TA.AperFunction,ComponentPad*%
%ADD10C,1.397000*%
%TD*%
%TA.AperFunction,ComponentPad*%
%ADD11C,1.346200*%
%TD*%
%TA.AperFunction,ViaPad*%
%ADD12C,0.600000*%
%TD*%
%TA.AperFunction,Conductor*%
%ADD13C,0.300000*%
%TD*%
G04 APERTURE END LIST*
D10*
%TO.P,F11,1*%
%TO.N,Net-(F11-Pad1)*%
X68500000Y-84290000D03*
%TO.P,F11,2*%
%TO.N,Net-(F11-Pad2)*%
X68500000Y-79210000D03*
%TD*%
%TO.P,F13,1*%
%TO.N,Net-(F13-Pad1)*%
X71500000Y-109790000D03*
%TO.P,F13,2*%
%TO.N,Net-(F13-Pad2)*%
X71500000Y-104710000D03*
%TD*%
%TO.P,F1,1*%
%TO.N,Net-(F1-Pad1)*%
X47000000Y-109790000D03*
%TO.P,F1,2*%
%TO.N,Net-(F1-Pad2)*%
X47000000Y-104710000D03*
%TD*%
%TO.P,F8,1*%
%TO.N,Net-(F8-Pad1)*%
X61150000Y-91860002D03*
%TO.P,F8,2*%
%TO.N,Net-(F8-Pad2)*%
X61150000Y-96940002D03*
%TD*%
%TO.P,F6,1*%
%TO.N,Net-(F6-Pad1)*%
X56150000Y-91860002D03*
%TO.P,F6,2*%
%TO.N,Net-(F6-Pad2)*%
X56150000Y-96940002D03*
%TD*%
%TO.P,F7,1*%
%TO.N,Net-(F7-Pad1)*%
X58000000Y-84290000D03*
%TO.P,F7,2*%
%TO.N,Net-(F7-Pad2)*%
X58000000Y-79210000D03*
%TD*%
%TO.P,F12,1*%
%TO.N,Net-(F12-Pad1)*%
X71750000Y-91860002D03*
%TO.P,F12,2*%
%TO.N,Net-(F12-Pad2)*%
X71750000Y-96940002D03*
%TD*%
D11*
%TO.P,J1,1,1*%
%TO.N,Net-(F1-Pad2)*%
X52999999Y-105500000D03*
%TO.P,J1,2,2*%
%TO.N,Net-(F2-Pad2)*%
X52999999Y-107500001D03*
%TO.P,J1,3,3*%
%TO.N,Net-(F3-Pad2)*%
X55000000Y-105500000D03*
%TO.P,J1,4,4*%
%TO.N,Net-(F4-Pad2)*%
X55000000Y-107500001D03*
%TO.P,J1,5,5*%
%TO.N,Net-(F5-Pad2)*%
X56999999Y-105500000D03*
%TO.P,J1,6,6*%
%TO.N,Net-(F6-Pad2)*%
X56999999Y-107500001D03*
%TO.P,J1,7,7*%
%TO.N,Net-(F7-Pad2)*%
X59000000Y-105500000D03*
%TO.P,J1,8,8*%
%TO.N,Net-(F8-Pad2)*%
X59000000Y-107500001D03*
%TO.P,J1,9,9*%
%TO.N,Net-(F9-Pad2)*%
X61000001Y-105500000D03*
%TO.P,J1,10,10*%
%TO.N,Net-(F10-Pad2)*%
X61000001Y-107500001D03*
%TO.P,J1,11,11*%
%TO.N,Net-(F11-Pad2)*%
X62999999Y-105500000D03*
%TO.P,J1,12,12*%
%TO.N,Net-(F12-Pad2)*%
X62999999Y-107500001D03*
%TO.P,J1,13,13*%
%TO.N,Net-(F13-Pad2)*%
X65000001Y-105500000D03*
%TO.P,J1,14,14*%
%TO.N,unconnected-(J1-Pad14)*%
X65000001Y-107500001D03*
%TD*%
D10*
%TO.P,F5,1*%
%TO.N,Net-(F5-Pad1)*%
X52750000Y-84250000D03*
%TO.P,F5,2*%
%TO.N,Net-(F5-Pad2)*%
X52750000Y-79170000D03*
%TD*%
%TO.P,F10,1*%
%TO.N,Net-(F10-Pad1)*%
X66350000Y-91860002D03*
%TO.P,F10,2*%
%TO.N,Net-(F10-Pad2)*%
X66350000Y-96940002D03*
%TD*%
%TO.P,F4,1*%
%TO.N,Net-(F4-Pad1)*%
X50950000Y-91860002D03*
%TO.P,F4,2*%
%TO.N,Net-(F4-Pad2)*%
X50950000Y-96940002D03*
%TD*%
%TO.P,F2,1*%
%TO.N,Net-(F2-Pad1)*%
X45750000Y-91860002D03*
%TO.P,F2,2*%
%TO.N,Net-(F2-Pad2)*%
X45750000Y-96940002D03*
%TD*%
D11*
%TO.P,J3,1,1*%
%TO.N,Net-(F8-Pad1)*%
X77999999Y-98250000D03*
%TO.P,J3,2,2*%
%TO.N,Net-(F9-Pad1)*%
X80000000Y-98250000D03*
%TO.P,J3,3,3*%
%TO.N,Net-(F10-Pad1)*%
X77999999Y-96250001D03*
%TO.P,J3,4,4*%
%TO.N,Net-(F11-Pad1)*%
X80000000Y-96250001D03*
%TO.P,J3,5,5*%
%TO.N,Net-(F12-Pad1)*%
X77999999Y-94250000D03*
%TO.P,J3,6,6*%
%TO.N,Net-(F13-Pad1)*%
X80000000Y-94250000D03*
%TO.P,J3,7,7*%
%TO.N,unconnected-(J3-Pad7)*%
X77999999Y-92249999D03*
%TO.P,J3,8,8*%
%TO.N,unconnected-(J3-Pad8)*%
X80000000Y-92249999D03*
%TO.P,J3,9,9*%
%TO.N,unconnected-(J3-Pad9)*%
X77999999Y-90250001D03*
%TO.P,J3,10,10*%
%TO.N,unconnected-(J3-Pad10)*%
X80000000Y-90250001D03*
%TD*%
D10*
%TO.P,F3,1*%
%TO.N,Net-(F3-Pad1)*%
X47250000Y-84250000D03*
%TO.P,F3,2*%
%TO.N,Net-(F3-Pad2)*%
X47250000Y-79170000D03*
%TD*%
D11*
%TO.P,J2,1,1*%
%TO.N,Net-(F1-Pad1)*%
X35749999Y-98500001D03*
%TO.P,J2,2,2*%
%TO.N,Net-(F2-Pad1)*%
X37750000Y-98500001D03*
%TO.P,J2,3,3*%
%TO.N,Net-(F3-Pad1)*%
X35749999Y-96500002D03*
%TO.P,J2,4,4*%
%TO.N,Net-(F4-Pad1)*%
X37750000Y-96500002D03*
%TO.P,J2,5,5*%
%TO.N,Net-(F5-Pad1)*%
X35749999Y-94500001D03*
%TO.P,J2,6,6*%
%TO.N,Net-(F6-Pad1)*%
X37750000Y-94500001D03*
%TO.P,J2,7,7*%
%TO.N,Net-(F7-Pad1)*%
X35749999Y-92500000D03*
%TO.P,J2,8,8*%
%TO.N,unconnected-(J2-Pad8)*%
X37750000Y-92500000D03*
%TO.P,J2,9,9*%
%TO.N,unconnected-(J2-Pad9)*%
X35749999Y-90500002D03*
%TO.P,J2,10,10*%
%TO.N,unconnected-(J2-Pad10)*%
X37750000Y-90500002D03*
%TD*%
D10*
%TO.P,F9,1*%
%TO.N,Net-(F9-Pad1)*%
X63250000Y-84290000D03*
%TO.P,F9,2*%
%TO.N,Net-(F9-Pad2)*%
X63250000Y-79210000D03*
%TD*%
D12*
%TO.N,Net-(F12-Pad2)*%
X66750000Y-101000000D03*
%TO.N,Net-(F8-Pad2)*%
X68750000Y-99500000D03*
%TO.N,Net-(F2-Pad2)*%
X50749999Y-102500001D03*
%TO.N,Net-(F6-Pad2)*%
X48750000Y-100500000D03*
%TO.N,Net-(F11-Pad1)*%
X72750000Y-88250000D03*
%TO.N,Net-(F9-Pad1)*%
X74000000Y-86750000D03*
%TD*%
D13*
%TO.N,Net-(F5-Pad1)*%
X35749999Y-94500001D02*
X33000000Y-91750002D01*
X33000000Y-91750002D02*
X33000000Y-89750000D01*
X33000000Y-89750000D02*
X35114085Y-87635915D01*
X49364085Y-87635915D02*
X52750000Y-84250000D01*
X35114085Y-87635915D02*
X49364085Y-87635915D01*
%TO.N,Net-(F12-Pad2)*%
X71750000Y-99250000D02*
X71750000Y-96940002D01*
X70000000Y-101000000D02*
X71750000Y-99250000D01*
X66750000Y-101000000D02*
X70000000Y-101000000D01*
%TO.N,Net-(F8-Pad2)*%
X63709998Y-99500000D02*
X61150000Y-96940002D01*
X68750000Y-99500000D02*
X63709998Y-99500000D01*
%TO.N,Net-(F2-Pad2)*%
X50749999Y-102500001D02*
X47750001Y-102500001D01*
X47750001Y-102500001D02*
X45750000Y-100500000D01*
X45750000Y-100500000D02*
X45750000Y-96940002D01*
%TO.N,Net-(F13-Pad2)*%
X65000001Y-105500000D02*
X65790001Y-104710000D01*
X65790001Y-104710000D02*
X71500000Y-104710000D01*
%TO.N,Net-(F6-Pad2)*%
X52590002Y-100500000D02*
X56150000Y-96940002D01*
X48750000Y-100500000D02*
X52590002Y-100500000D01*
%TO.N,Net-(F1-Pad2)*%
X52209999Y-104710000D02*
X47000000Y-104710000D01*
X52999999Y-105500000D02*
X52209999Y-104710000D01*
%TO.N,Net-(F13-Pad1)*%
X76750000Y-101250000D02*
X79500000Y-101250000D01*
X74000000Y-104000000D02*
X76750000Y-101250000D01*
X71500000Y-109790000D02*
X71710000Y-109790000D01*
X71710000Y-109790000D02*
X74000000Y-107500000D01*
X74000000Y-107500000D02*
X74000000Y-104000000D01*
X81500000Y-95750000D02*
X80000000Y-94250000D01*
X81500000Y-99250000D02*
X81500000Y-95750000D01*
X79500000Y-101250000D02*
X81500000Y-99250000D01*
%TO.N,Net-(F10-Pad1)*%
X77999999Y-96250001D02*
X74999998Y-93250000D01*
X69473505Y-93250000D02*
X68083507Y-91860002D01*
X68083507Y-91860002D02*
X66350000Y-91860002D01*
X74999998Y-93250000D02*
X69473505Y-93250000D01*
%TO.N,Net-(F12-Pad1)*%
X71750000Y-91860002D02*
X75610001Y-91860002D01*
X75610001Y-91860002D02*
X77999999Y-94250000D01*
%TO.N,Net-(F11-Pad1)*%
X72460000Y-88250000D02*
X72750000Y-88250000D01*
X68500000Y-84290000D02*
X72460000Y-88250000D01*
%TO.N,Net-(F9-Pad1)*%
X70250000Y-83000000D02*
X64540000Y-83000000D01*
X64540000Y-83000000D02*
X63250000Y-84290000D01*
X74000000Y-86750000D02*
X70250000Y-83000000D01*
%TO.N,Net-(F1-Pad1)*%
X37000000Y-101250000D02*
X35749999Y-99999999D01*
X35749999Y-99999999D02*
X35749999Y-98500001D01*
X47000000Y-109790000D02*
X47000000Y-107750000D01*
X47000000Y-107750000D02*
X40500000Y-101250000D01*
X40500000Y-101250000D02*
X37000000Y-101250000D01*
%TO.N,Net-(F3-Pad1)*%
X32000000Y-89217614D02*
X32000000Y-92750003D01*
X44750000Y-86750000D02*
X34467614Y-86750000D01*
X34467614Y-86750000D02*
X32000000Y-89217614D01*
X32000000Y-92750003D02*
X35749999Y-96500002D01*
X47250000Y-84250000D02*
X44750000Y-86750000D01*
%TO.N,Net-(F6-Pad1)*%
X53789998Y-89500000D02*
X42750001Y-89500000D01*
X56150000Y-91860002D02*
X53789998Y-89500000D01*
X42750001Y-89500000D02*
X37750000Y-94500001D01*
%TO.N,Net-(F8-Pad1)*%
X77999999Y-98250000D02*
X74500000Y-94750001D01*
X63789998Y-94500000D02*
X61150000Y-91860002D01*
X74500000Y-94750001D02*
X74500000Y-94500000D01*
X74500000Y-94500000D02*
X63789998Y-94500000D01*
%TO.N,Net-(F4-Pad1)*%
X43750002Y-90500000D02*
X37750000Y-96500002D01*
X49589998Y-90500000D02*
X43750002Y-90500000D01*
X50950000Y-91860002D02*
X49589998Y-90500000D01*
%TO.N,Net-(F7-Pad1)*%
X35250000Y-88750000D02*
X53540000Y-88750000D01*
X35749999Y-92500000D02*
X34000000Y-90750001D01*
X34000000Y-90750001D02*
X34000000Y-90000000D01*
X34000000Y-90000000D02*
X35250000Y-88750000D01*
X53540000Y-88750000D02*
X58000000Y-84290000D01*
%TO.N,Net-(F2-Pad1)*%
X45750000Y-91860002D02*
X39110001Y-98500001D01*
X39110001Y-98500001D02*
X37750000Y-98500001D01*
%TD*%
M02*
