%TF.GenerationSoftware,KiCad,Pcbnew,9.0.1*%
%TF.CreationDate,2025-04-11T17:38:00-07:00*%
%TF.ProjectId,CellTapFuses_V3,43656c6c-5461-4704-9675-7365735f5633,rev?*%
%TF.SameCoordinates,Original*%
%TF.FileFunction,Legend,Bot*%
%TF.FilePolarity,Positive*%
%FSLAX46Y46*%
G04 Gerber Fmt 4.6, Leading zero omitted, Abs format (unit mm)*
G04 Created by KiCad (PCBNEW 9.0.1) date 2025-04-11 17:38:00*
%MOMM*%
%LPD*%
G01*
G04 APERTURE LIST*
%ADD10C,0.508000*%
%ADD11C,1.601000*%
%ADD12C,4.300000*%
%ADD13C,1.397000*%
%ADD14C,1.346200*%
G04 APERTURE END LIST*
D10*
%TO.C,J1*%
X50618000Y-105500000D02*
G75*
G02*
X49856000Y-105500000I-381000J0D01*
G01*
X49856000Y-105500000D02*
G75*
G02*
X50618000Y-105500000I381000J0D01*
G01*
%TO.C,J3*%
X78380999Y-101006400D02*
G75*
G02*
X77618999Y-101006400I-381000J0D01*
G01*
X77618999Y-101006400D02*
G75*
G02*
X78380999Y-101006400I381000J0D01*
G01*
%TO.C,J2*%
X36130999Y-101256401D02*
G75*
G02*
X35368999Y-101256401I-381000J0D01*
G01*
X35368999Y-101256401D02*
G75*
G02*
X36130999Y-101256401I381000J0D01*
G01*
%TD*%
%LPC*%
D11*
%TO.C,F11*%
X68500000Y-84290000D03*
X68500000Y-79210000D03*
%TD*%
%TO.C,F13*%
X71500000Y-109790000D03*
X71500000Y-104710000D03*
%TD*%
%TO.C,F1*%
X47000000Y-109790000D03*
X47000000Y-104710000D03*
%TD*%
%TO.C,F8*%
X61150000Y-91860002D03*
X61150000Y-96940002D03*
%TD*%
D12*
%TO.C,H2*%
X36750000Y-106500000D03*
%TD*%
D11*
%TO.C,F6*%
X56150000Y-91860002D03*
X56150000Y-96940002D03*
%TD*%
%TO.C,F7*%
X58000000Y-84290000D03*
X58000000Y-79210000D03*
%TD*%
%TO.C,F12*%
X71750000Y-91860002D03*
X71750000Y-96940002D03*
%TD*%
D12*
%TO.C,H1*%
X36750000Y-82950000D03*
%TD*%
D13*
%TO.C,J1*%
X51799999Y-110599999D03*
D14*
X52999999Y-105500000D03*
X52999999Y-107500001D03*
X55000000Y-105500000D03*
X55000000Y-107500001D03*
X56999999Y-105500000D03*
X56999999Y-107500001D03*
X59000000Y-105500000D03*
X59000000Y-107500001D03*
X61000001Y-105500000D03*
X61000001Y-107500001D03*
X62999999Y-105500000D03*
X62999999Y-107500001D03*
X65000001Y-105500000D03*
X65000001Y-107500001D03*
%TD*%
D12*
%TO.C,H3*%
X79400000Y-82800000D03*
%TD*%
D11*
%TO.C,F5*%
X52750000Y-84250000D03*
X52750000Y-79170000D03*
%TD*%
%TO.C,F10*%
X66350000Y-91860002D03*
X66350000Y-96940002D03*
%TD*%
%TO.C,F4*%
X50950000Y-91860002D03*
X50950000Y-96940002D03*
%TD*%
D12*
%TO.C,H4*%
X79400000Y-106350000D03*
%TD*%
D11*
%TO.C,F2*%
X45750000Y-91860002D03*
X45750000Y-96940002D03*
%TD*%
D13*
%TO.C,J3*%
X83099998Y-99450000D03*
D14*
X77999999Y-98250000D03*
X80000000Y-98250000D03*
X77999999Y-96250001D03*
X80000000Y-96250001D03*
X77999999Y-94250000D03*
X80000000Y-94250000D03*
X77999999Y-92249999D03*
X80000000Y-92249999D03*
X77999999Y-90250001D03*
X80000000Y-90250001D03*
%TD*%
D11*
%TO.C,F3*%
X47250000Y-84250000D03*
X47250000Y-79170000D03*
%TD*%
D13*
%TO.C,J2*%
X40849998Y-99700001D03*
D14*
X35749999Y-98500001D03*
X37750000Y-98500001D03*
X35749999Y-96500002D03*
X37750000Y-96500002D03*
X35749999Y-94500001D03*
X37750000Y-94500001D03*
X35749999Y-92500000D03*
X37750000Y-92500000D03*
X35749999Y-90500002D03*
X37750000Y-90500002D03*
%TD*%
D11*
%TO.C,F9*%
X63250000Y-84290000D03*
X63250000Y-79210000D03*
%TD*%
%LPD*%
M02*
