G04 #@! TF.GenerationSoftware,KiCad,Pcbnew,9.0.4*
G04 #@! TF.CreationDate,2026-02-24T18:34:21-08:00*
G04 #@! TF.ProjectId,RML-26_V2,524d4c2d-3236-45f5-9632-2e6b69636164,rev?*
G04 #@! TF.SameCoordinates,Original*
G04 #@! TF.FileFunction,Soldermask,Top*
G04 #@! TF.FilePolarity,Negative*
%FSLAX46Y46*%
G04 Gerber Fmt 4.6, Leading zero omitted, Abs format (unit mm)*
G04 Created by KiCad (PCBNEW 9.0.4) date 2026-02-24 18:34:21*
%MOMM*%
%LPD*%
G01*
G04 APERTURE LIST*
G04 Aperture macros list*
%AMRoundRect*
0 Rectangle with rounded corners*
0 $1 Rounding radius*
0 $2 $3 $4 $5 $6 $7 $8 $9 X,Y pos of 4 corners*
0 Add a 4 corners polygon primitive as box body*
4,1,4,$2,$3,$4,$5,$6,$7,$8,$9,$2,$3,0*
0 Add four circle primitives for the rounded corners*
1,1,$1+$1,$2,$3*
1,1,$1+$1,$4,$5*
1,1,$1+$1,$6,$7*
1,1,$1+$1,$8,$9*
0 Add four rect primitives between the rounded corners*
20,1,$1+$1,$2,$3,$4,$5,0*
20,1,$1+$1,$4,$5,$6,$7,0*
20,1,$1+$1,$6,$7,$8,$9,0*
20,1,$1+$1,$8,$9,$2,$3,0*%
G04 Aperture macros list end*
%ADD10C,3.200000*%
%ADD11RoundRect,0.250000X1.500000X0.550000X-1.500000X0.550000X-1.500000X-0.550000X1.500000X-0.550000X0*%
%ADD12C,1.020000*%
%ADD13RoundRect,0.250001X-0.499999X-0.499999X0.499999X-0.499999X0.499999X0.499999X-0.499999X0.499999X0*%
%ADD14C,1.500000*%
%ADD15RoundRect,0.150000X-0.150000X-0.200000X0.150000X-0.200000X0.150000X0.200000X-0.150000X0.200000X0*%
%ADD16RoundRect,0.250000X0.300000X-0.300000X0.300000X0.300000X-0.300000X0.300000X-0.300000X-0.300000X0*%
%ADD17C,1.601000*%
%ADD18RoundRect,0.250000X-0.475000X0.337500X-0.475000X-0.337500X0.475000X-0.337500X0.475000X0.337500X0*%
%ADD19RoundRect,0.250000X0.350000X0.450000X-0.350000X0.450000X-0.350000X-0.450000X0.350000X-0.450000X0*%
%ADD20RoundRect,0.250000X-0.337500X-0.475000X0.337500X-0.475000X0.337500X0.475000X-0.337500X0.475000X0*%
%ADD21RoundRect,0.150000X0.150000X-0.587500X0.150000X0.587500X-0.150000X0.587500X-0.150000X-0.587500X0*%
%ADD22RoundRect,0.250000X-0.350000X-0.450000X0.350000X-0.450000X0.350000X0.450000X-0.350000X0.450000X0*%
%ADD23RoundRect,0.150000X-0.150000X0.587500X-0.150000X-0.587500X0.150000X-0.587500X0.150000X0.587500X0*%
%ADD24RoundRect,0.250001X0.499999X-0.499999X0.499999X0.499999X-0.499999X0.499999X-0.499999X-0.499999X0*%
%ADD25RoundRect,0.250000X-0.550000X-0.550000X0.550000X-0.550000X0.550000X0.550000X-0.550000X0.550000X0*%
%ADD26C,1.600000*%
%ADD27RoundRect,0.150000X-0.825000X-0.150000X0.825000X-0.150000X0.825000X0.150000X-0.825000X0.150000X0*%
%ADD28C,3.600000*%
%ADD29R,4.500000X2.500000*%
%ADD30O,4.500000X2.500000*%
%ADD31RoundRect,0.112500X0.187500X0.112500X-0.187500X0.112500X-0.187500X-0.112500X0.187500X-0.112500X0*%
%ADD32RoundRect,0.250001X0.499999X0.499999X-0.499999X0.499999X-0.499999X-0.499999X0.499999X-0.499999X0*%
G04 APERTURE END LIST*
D10*
X109000000Y-80500000D03*
D11*
X178800000Y-100100000D03*
X173200000Y-100100000D03*
D12*
X114550000Y-102400000D03*
X120550000Y-102400000D03*
D13*
X117550000Y-98460000D03*
D14*
X117550000Y-101460000D03*
D15*
X124207500Y-79780000D03*
X122807500Y-79780000D03*
D16*
X118210000Y-92580000D03*
X118210000Y-89780000D03*
D17*
X111350000Y-87670000D03*
X106270000Y-87670000D03*
D18*
X177575000Y-85212500D03*
X177575000Y-87287500D03*
D19*
X167000000Y-98500000D03*
X165000000Y-98500000D03*
D10*
X108964466Y-100535534D03*
D20*
X179925000Y-92700000D03*
X182000000Y-92700000D03*
D21*
X166525000Y-91862500D03*
X168425000Y-91862500D03*
X167475000Y-89987500D03*
D10*
X189000000Y-100500000D03*
D22*
X165000000Y-96000000D03*
X167000000Y-96000000D03*
D23*
X177642500Y-80982500D03*
X175742500Y-80982500D03*
X176692500Y-82857500D03*
D12*
X170595000Y-86475000D03*
X170595000Y-77475000D03*
D24*
X166655000Y-83475000D03*
D14*
X166655000Y-80475000D03*
X169655000Y-83475000D03*
X169655000Y-80475000D03*
D22*
X179925000Y-87000000D03*
X181925000Y-87000000D03*
X169550000Y-95150000D03*
X171550000Y-95150000D03*
D25*
X154828200Y-93167900D03*
D26*
X154828200Y-95707900D03*
X154828200Y-98247900D03*
X162448200Y-98247900D03*
X162448200Y-95707900D03*
X162448200Y-93167900D03*
D17*
X106270000Y-93230000D03*
X111350000Y-93230000D03*
D27*
X171675000Y-89020000D03*
X171675000Y-90290000D03*
X171675000Y-91560000D03*
X171675000Y-92830000D03*
X176625000Y-92830000D03*
X176625000Y-91560000D03*
X176625000Y-90290000D03*
X176625000Y-89020000D03*
D19*
X182025000Y-90050000D03*
X180025000Y-90050000D03*
D28*
X144410000Y-89800000D03*
D29*
X124550000Y-84350000D03*
D30*
X124550000Y-89800000D03*
X124550000Y-95250000D03*
D31*
X125710000Y-77450000D03*
X123610000Y-77450000D03*
D22*
X127370000Y-77390000D03*
X129370000Y-77390000D03*
D10*
X189000000Y-80600000D03*
D12*
X120500000Y-78680000D03*
X114500000Y-78680000D03*
D32*
X117500000Y-82620000D03*
D14*
X117500000Y-79620000D03*
G36*
X150478001Y-81909685D02*
G01*
X150523756Y-81962489D01*
X150534962Y-82014000D01*
X150534962Y-97766000D01*
X150515277Y-97833039D01*
X150462473Y-97878794D01*
X150410962Y-97890000D01*
X130178962Y-97890000D01*
X130111923Y-97870315D01*
X130066168Y-97817511D01*
X130054962Y-97766000D01*
X130054962Y-82014000D01*
X130074647Y-81946961D01*
X130127451Y-81901206D01*
X130178962Y-81890000D01*
X150410962Y-81890000D01*
X150478001Y-81909685D01*
G37*
M02*
