G04 #@! TF.GenerationSoftware,KiCad,Pcbnew,9.0.4*
G04 #@! TF.CreationDate,2026-02-24T18:34:21-08:00*
G04 #@! TF.ProjectId,RML-26_V2,524d4c2d-3236-45f5-9632-2e6b69636164,rev?*
G04 #@! TF.SameCoordinates,Original*
G04 #@! TF.FileFunction,Copper,L2,Bot*
G04 #@! TF.FilePolarity,Positive*
%FSLAX46Y46*%
G04 Gerber Fmt 4.6, Leading zero omitted, Abs format (unit mm)*
G04 Created by KiCad (PCBNEW 9.0.4) date 2026-02-24 18:34:21*
%MOMM*%
%LPD*%
G01*
G04 APERTURE LIST*
G04 Aperture macros list*
%AMRoundRect*
0 Rectangle with rounded corners*
0 $1 Rounding radius*
0 $2 $3 $4 $5 $6 $7 $8 $9 X,Y pos of 4 corners*
0 Add a 4 corners polygon primitive as box body*
4,1,4,$2,$3,$4,$5,$6,$7,$8,$9,$2,$3,0*
0 Add four circle primitives for the rounded corners*
1,1,$1+$1,$2,$3*
1,1,$1+$1,$4,$5*
1,1,$1+$1,$6,$7*
1,1,$1+$1,$8,$9*
0 Add four rect primitives between the rounded corners*
20,1,$1+$1,$2,$3,$4,$5,0*
20,1,$1+$1,$4,$5,$6,$7,0*
20,1,$1+$1,$6,$7,$8,$9,0*
20,1,$1+$1,$8,$9,$2,$3,0*%
G04 Aperture macros list end*
G04 #@! TA.AperFunction,ComponentPad*
%ADD10RoundRect,0.250001X-0.499999X-0.499999X0.499999X-0.499999X0.499999X0.499999X-0.499999X0.499999X0*%
G04 #@! TD*
G04 #@! TA.AperFunction,ComponentPad*
%ADD11C,1.500000*%
G04 #@! TD*
G04 #@! TA.AperFunction,ComponentPad*
%ADD12C,1.397000*%
G04 #@! TD*
G04 #@! TA.AperFunction,ComponentPad*
%ADD13RoundRect,0.250001X0.499999X-0.499999X0.499999X0.499999X-0.499999X0.499999X-0.499999X-0.499999X0*%
G04 #@! TD*
G04 #@! TA.AperFunction,ComponentPad*
%ADD14RoundRect,0.250000X-0.550000X-0.550000X0.550000X-0.550000X0.550000X0.550000X-0.550000X0.550000X0*%
G04 #@! TD*
G04 #@! TA.AperFunction,ComponentPad*
%ADD15C,1.600000*%
G04 #@! TD*
G04 #@! TA.AperFunction,ComponentPad*
%ADD16R,4.500000X2.500000*%
G04 #@! TD*
G04 #@! TA.AperFunction,ComponentPad*
%ADD17O,4.500000X2.500000*%
G04 #@! TD*
G04 #@! TA.AperFunction,ComponentPad*
%ADD18RoundRect,0.250001X0.499999X0.499999X-0.499999X0.499999X-0.499999X-0.499999X0.499999X-0.499999X0*%
G04 #@! TD*
G04 #@! TA.AperFunction,ViaPad*
%ADD19C,0.600000*%
G04 #@! TD*
G04 #@! TA.AperFunction,Conductor*
%ADD20C,0.200000*%
G04 #@! TD*
G04 APERTURE END LIST*
D10*
X117550000Y-98460000D03*
D11*
X117550000Y-101460000D03*
D12*
X111350000Y-87670000D03*
X106270000Y-87670000D03*
D13*
X166655000Y-83475000D03*
D11*
X166655000Y-80475000D03*
X169655000Y-83475000D03*
X169655000Y-80475000D03*
D14*
X154828200Y-93167900D03*
D15*
X154828200Y-95707900D03*
X154828200Y-98247900D03*
X162448200Y-98247900D03*
X162448200Y-95707900D03*
X162448200Y-93167900D03*
D12*
X106270000Y-93230000D03*
X111350000Y-93230000D03*
D16*
X124550000Y-84350000D03*
D17*
X124550000Y-89800000D03*
X124550000Y-95250000D03*
D18*
X117500000Y-82620000D03*
D11*
X117500000Y-79620000D03*
D19*
X124210000Y-80940000D03*
X143160000Y-95030000D03*
X141660000Y-96530000D03*
X140160000Y-92030000D03*
X140160000Y-84530000D03*
X131160000Y-87530000D03*
X135660000Y-95030000D03*
X132660000Y-84530000D03*
X140160000Y-83030000D03*
X137160000Y-96530000D03*
X149160000Y-89030000D03*
X141660000Y-87530000D03*
X135660000Y-86030000D03*
X134160000Y-90530000D03*
X137160000Y-89030000D03*
X132660000Y-86030000D03*
X131160000Y-89030000D03*
X137160000Y-84530000D03*
X131160000Y-96530000D03*
X131160000Y-92030000D03*
X144660000Y-84530000D03*
X135660000Y-83030000D03*
X149160000Y-87530000D03*
X144660000Y-95030000D03*
X143160000Y-93530000D03*
X135660000Y-96530000D03*
X137160000Y-90530000D03*
X141660000Y-83030000D03*
X132660000Y-95030000D03*
X149160000Y-95030000D03*
X143160000Y-84530000D03*
X149160000Y-93530000D03*
X147660000Y-84530000D03*
X132660000Y-83030000D03*
X137160000Y-92030000D03*
X149160000Y-92030000D03*
X138660000Y-90530000D03*
X134160000Y-95030000D03*
X147660000Y-89030000D03*
X143160000Y-83030000D03*
X141660000Y-90530000D03*
X135660000Y-93530000D03*
X140160000Y-86030000D03*
X138660000Y-96530000D03*
X134160000Y-96530000D03*
X141660000Y-92030000D03*
X137160000Y-86030000D03*
X147660000Y-90530000D03*
X143160000Y-86030000D03*
X143160000Y-96530000D03*
X135660000Y-92030000D03*
X140160000Y-93530000D03*
X138660000Y-84530000D03*
X138660000Y-89030000D03*
X147660000Y-83030000D03*
X132660000Y-87530000D03*
X138660000Y-87530000D03*
X131160000Y-83030000D03*
X141660000Y-89030000D03*
X149160000Y-83030000D03*
X138660000Y-92030000D03*
X131160000Y-86030000D03*
X140160000Y-95030000D03*
X132660000Y-89030000D03*
X140160000Y-90530000D03*
X137160000Y-95030000D03*
X131160000Y-90530000D03*
X146160000Y-83030000D03*
X131160000Y-84530000D03*
X140160000Y-96530000D03*
X134160000Y-89030000D03*
X141660000Y-84530000D03*
X147660000Y-96530000D03*
X135660000Y-84530000D03*
X137160000Y-87530000D03*
X140160000Y-89030000D03*
X138660000Y-83030000D03*
X149160000Y-96530000D03*
X147660000Y-92030000D03*
X147660000Y-95030000D03*
X144660000Y-93530000D03*
X138660000Y-86030000D03*
X149160000Y-84530000D03*
X147660000Y-93530000D03*
X134160000Y-87530000D03*
X132660000Y-90530000D03*
X141660000Y-86030000D03*
X146160000Y-86030000D03*
X134160000Y-83030000D03*
X146160000Y-96530000D03*
X137160000Y-93530000D03*
X134160000Y-84530000D03*
X138660000Y-95030000D03*
X146160000Y-95030000D03*
X135660000Y-89030000D03*
X134160000Y-93530000D03*
X149160000Y-86030000D03*
X135660000Y-87530000D03*
X141660000Y-95030000D03*
X132660000Y-92030000D03*
X147660000Y-87530000D03*
X146160000Y-84530000D03*
X144660000Y-86030000D03*
X137160000Y-83030000D03*
X132660000Y-93530000D03*
X138660000Y-93530000D03*
X132660000Y-96530000D03*
X144660000Y-96530000D03*
X144660000Y-83030000D03*
X140160000Y-87530000D03*
X146160000Y-93530000D03*
X147660000Y-86030000D03*
X131160000Y-95030000D03*
X141660000Y-93530000D03*
X134160000Y-92030000D03*
X135660000Y-90530000D03*
X131160000Y-93530000D03*
X149160000Y-90530000D03*
X134160000Y-86030000D03*
X164975000Y-94525000D03*
X169500000Y-89025000D03*
X179925000Y-92700000D03*
X175900000Y-85000000D03*
X170350000Y-100075000D03*
X179350000Y-88350000D03*
X170200000Y-91000000D03*
X178375000Y-90290000D03*
X173025000Y-95125000D03*
D20*
X117500000Y-82620000D02*
X113830000Y-82620000D01*
X108780000Y-87670000D02*
X106270000Y-87670000D01*
X113830000Y-82620000D02*
X108780000Y-87670000D01*
X117640000Y-98350000D02*
X113910000Y-98350000D01*
X113910000Y-98350000D02*
X108790000Y-93230000D01*
X108790000Y-93230000D02*
X106270000Y-93230000D01*
X120050000Y-83100000D02*
X120050000Y-90750000D01*
X122210000Y-80940000D02*
X120050000Y-83100000D01*
X120050000Y-90750000D02*
X124550000Y-95250000D01*
X124210000Y-80940000D02*
X122210000Y-80940000D01*
X164975000Y-95440800D02*
X164707900Y-95707900D01*
X164707900Y-95707900D02*
X162448200Y-95707900D01*
X164975000Y-94525000D02*
X164975000Y-95440800D01*
X179350000Y-88350000D02*
X172850000Y-88350000D01*
X172850000Y-88350000D02*
X170200000Y-91000000D01*
X173025000Y-91840840D02*
X174575840Y-90290000D01*
X174575840Y-90290000D02*
X178375000Y-90290000D01*
X173025000Y-95125000D02*
X173025000Y-91840840D01*
G04 #@! TA.AperFunction,Conductor*
G36*
X184342554Y-76319827D02*
G01*
X184388440Y-76372518D01*
X184399773Y-76424533D01*
X184350225Y-103676225D01*
X184330418Y-103743229D01*
X184277531Y-103788888D01*
X184226225Y-103800000D01*
X163724113Y-103800000D01*
X163657074Y-103780315D01*
X163611319Y-103727511D01*
X163600113Y-103675887D01*
X163604487Y-98872803D01*
X163617999Y-98816635D01*
X163653420Y-98747119D01*
X163716677Y-98552434D01*
X163748700Y-98350252D01*
X163748700Y-98145548D01*
X163716677Y-97943366D01*
X163653420Y-97748681D01*
X163619137Y-97681397D01*
X163605623Y-97624995D01*
X163607972Y-95046153D01*
X172224500Y-95046153D01*
X172224500Y-95203846D01*
X172255261Y-95358489D01*
X172255264Y-95358501D01*
X172315602Y-95504172D01*
X172315609Y-95504185D01*
X172403210Y-95635288D01*
X172403213Y-95635292D01*
X172514707Y-95746786D01*
X172514711Y-95746789D01*
X172645814Y-95834390D01*
X172645827Y-95834397D01*
X172791498Y-95894735D01*
X172791503Y-95894737D01*
X172946153Y-95925499D01*
X172946156Y-95925500D01*
X172946158Y-95925500D01*
X173103844Y-95925500D01*
X173103845Y-95925499D01*
X173258497Y-95894737D01*
X173404179Y-95834394D01*
X173535289Y-95746789D01*
X173646789Y-95635289D01*
X173734394Y-95504179D01*
X173794737Y-95358497D01*
X173825500Y-95203842D01*
X173825500Y-95046158D01*
X173825500Y-95046155D01*
X173825499Y-95046153D01*
X173794738Y-94891510D01*
X173794737Y-94891503D01*
X173794735Y-94891498D01*
X173734397Y-94745827D01*
X173734390Y-94745814D01*
X173646398Y-94614125D01*
X173625520Y-94547447D01*
X173625500Y-94545234D01*
X173625500Y-92140937D01*
X173645185Y-92073898D01*
X173661819Y-92053256D01*
X174788256Y-90926819D01*
X174849579Y-90893334D01*
X174875937Y-90890500D01*
X177795234Y-90890500D01*
X177862273Y-90910185D01*
X177864125Y-90911398D01*
X177995814Y-90999390D01*
X177995827Y-90999397D01*
X178141498Y-91059735D01*
X178141503Y-91059737D01*
X178296153Y-91090499D01*
X178296156Y-91090500D01*
X178296158Y-91090500D01*
X178453844Y-91090500D01*
X178453845Y-91090499D01*
X178608497Y-91059737D01*
X178754179Y-90999394D01*
X178885289Y-90911789D01*
X178996789Y-90800289D01*
X179084394Y-90669179D01*
X179144737Y-90523497D01*
X179175500Y-90368842D01*
X179175500Y-90211158D01*
X179175500Y-90211155D01*
X179175499Y-90211153D01*
X179144738Y-90056510D01*
X179144737Y-90056503D01*
X179088728Y-89921284D01*
X179084397Y-89910827D01*
X179084390Y-89910814D01*
X178996789Y-89779711D01*
X178996786Y-89779707D01*
X178885292Y-89668213D01*
X178885288Y-89668210D01*
X178754185Y-89580609D01*
X178754172Y-89580602D01*
X178608501Y-89520264D01*
X178608489Y-89520261D01*
X178453845Y-89489500D01*
X178453842Y-89489500D01*
X178296158Y-89489500D01*
X178296155Y-89489500D01*
X178141510Y-89520261D01*
X178141498Y-89520264D01*
X177995827Y-89580602D01*
X177995814Y-89580609D01*
X177864125Y-89668602D01*
X177797447Y-89689480D01*
X177795234Y-89689500D01*
X174662509Y-89689500D01*
X174662493Y-89689499D01*
X174654897Y-89689499D01*
X174496783Y-89689499D01*
X174389427Y-89718265D01*
X174344050Y-89730424D01*
X174344049Y-89730425D01*
X174293936Y-89759359D01*
X174293935Y-89759360D01*
X174258693Y-89779707D01*
X174207125Y-89809479D01*
X174207122Y-89809481D01*
X172544479Y-91472124D01*
X172531026Y-91495426D01*
X172525340Y-91505276D01*
X172465423Y-91609055D01*
X172424499Y-91761783D01*
X172424499Y-91761785D01*
X172424499Y-91929886D01*
X172424500Y-91929899D01*
X172424500Y-94545234D01*
X172404815Y-94612273D01*
X172403602Y-94614125D01*
X172315609Y-94745814D01*
X172315602Y-94745827D01*
X172255264Y-94891498D01*
X172255261Y-94891510D01*
X172224500Y-95046153D01*
X163607972Y-95046153D01*
X163609122Y-93783708D01*
X163622635Y-93727537D01*
X163653420Y-93667119D01*
X163716677Y-93472434D01*
X163748700Y-93270252D01*
X163748700Y-93065548D01*
X163716677Y-92863366D01*
X163716676Y-92863362D01*
X163716676Y-92863361D01*
X163653421Y-92668683D01*
X163623757Y-92610464D01*
X163610242Y-92554056D01*
X163610680Y-92073898D01*
X163611730Y-90921153D01*
X169399500Y-90921153D01*
X169399500Y-91078846D01*
X169430261Y-91233489D01*
X169430264Y-91233501D01*
X169490602Y-91379172D01*
X169490609Y-91379185D01*
X169578210Y-91510288D01*
X169578213Y-91510292D01*
X169689707Y-91621786D01*
X169689711Y-91621789D01*
X169820814Y-91709390D01*
X169820827Y-91709397D01*
X169947300Y-91761783D01*
X169966503Y-91769737D01*
X170121153Y-91800499D01*
X170121156Y-91800500D01*
X170121158Y-91800500D01*
X170278844Y-91800500D01*
X170278845Y-91800499D01*
X170433497Y-91769737D01*
X170579179Y-91709394D01*
X170710289Y-91621789D01*
X170821789Y-91510289D01*
X170909394Y-91379179D01*
X170969737Y-91233497D01*
X170998181Y-91090500D01*
X171000638Y-91078150D01*
X171033023Y-91016239D01*
X171034518Y-91014716D01*
X173062416Y-88986819D01*
X173123739Y-88953334D01*
X173150097Y-88950500D01*
X178770234Y-88950500D01*
X178837273Y-88970185D01*
X178839125Y-88971398D01*
X178970814Y-89059390D01*
X178970827Y-89059397D01*
X179116498Y-89119735D01*
X179116503Y-89119737D01*
X179271153Y-89150499D01*
X179271156Y-89150500D01*
X179271158Y-89150500D01*
X179428844Y-89150500D01*
X179428845Y-89150499D01*
X179583497Y-89119737D01*
X179729179Y-89059394D01*
X179860289Y-88971789D01*
X179971789Y-88860289D01*
X180059394Y-88729179D01*
X180119737Y-88583497D01*
X180150500Y-88428842D01*
X180150500Y-88271158D01*
X180150500Y-88271155D01*
X180150499Y-88271153D01*
X180119738Y-88116510D01*
X180119737Y-88116503D01*
X180063728Y-87981284D01*
X180059397Y-87970827D01*
X180059390Y-87970814D01*
X179971789Y-87839711D01*
X179971786Y-87839707D01*
X179860292Y-87728213D01*
X179860288Y-87728210D01*
X179729185Y-87640609D01*
X179729172Y-87640602D01*
X179583501Y-87580264D01*
X179583489Y-87580261D01*
X179428845Y-87549500D01*
X179428842Y-87549500D01*
X179271158Y-87549500D01*
X179271155Y-87549500D01*
X179116510Y-87580261D01*
X179116498Y-87580264D01*
X178970827Y-87640602D01*
X178970814Y-87640609D01*
X178839125Y-87728602D01*
X178772447Y-87749480D01*
X178770234Y-87749500D01*
X172936669Y-87749500D01*
X172936653Y-87749499D01*
X172929057Y-87749499D01*
X172770943Y-87749499D01*
X172663587Y-87778265D01*
X172618210Y-87790424D01*
X172618209Y-87790425D01*
X172568096Y-87819359D01*
X172568095Y-87819360D01*
X172532853Y-87839707D01*
X172481285Y-87869479D01*
X172481282Y-87869481D01*
X170185339Y-90165425D01*
X170124016Y-90198910D01*
X170121850Y-90199361D01*
X169966508Y-90230261D01*
X169966498Y-90230264D01*
X169820827Y-90290602D01*
X169820814Y-90290609D01*
X169689711Y-90378210D01*
X169689707Y-90378213D01*
X169578213Y-90489707D01*
X169578210Y-90489711D01*
X169490609Y-90620814D01*
X169490602Y-90620827D01*
X169430264Y-90766498D01*
X169430261Y-90766510D01*
X169399500Y-90921153D01*
X163611730Y-90921153D01*
X163612769Y-89779707D01*
X163615847Y-86400092D01*
X169834500Y-86400092D01*
X169834500Y-86549907D01*
X169863723Y-86696822D01*
X169863725Y-86696830D01*
X169921051Y-86835229D01*
X169921056Y-86835238D01*
X170004280Y-86959790D01*
X170004283Y-86959794D01*
X170110205Y-87065716D01*
X170110209Y-87065719D01*
X170234761Y-87148943D01*
X170234767Y-87148946D01*
X170234768Y-87148947D01*
X170373170Y-87206275D01*
X170520092Y-87235499D01*
X170520096Y-87235500D01*
X170520097Y-87235500D01*
X170669904Y-87235500D01*
X170669905Y-87235499D01*
X170816830Y-87206275D01*
X170955232Y-87148947D01*
X171079791Y-87065719D01*
X171185719Y-86959791D01*
X171268947Y-86835232D01*
X171326275Y-86696830D01*
X171355500Y-86549903D01*
X171355500Y-86400097D01*
X171326275Y-86253170D01*
X171268947Y-86114768D01*
X171268946Y-86114767D01*
X171268943Y-86114761D01*
X171185719Y-85990209D01*
X171185716Y-85990205D01*
X171079794Y-85884283D01*
X171079790Y-85884280D01*
X170955238Y-85801056D01*
X170955229Y-85801051D01*
X170816830Y-85743725D01*
X170816822Y-85743723D01*
X170669907Y-85714500D01*
X170669903Y-85714500D01*
X170520097Y-85714500D01*
X170520092Y-85714500D01*
X170373177Y-85743723D01*
X170373169Y-85743725D01*
X170234770Y-85801051D01*
X170234761Y-85801056D01*
X170110209Y-85884280D01*
X170110205Y-85884283D01*
X170004283Y-85990205D01*
X170004280Y-85990209D01*
X169921056Y-86114761D01*
X169921051Y-86114770D01*
X169863725Y-86253169D01*
X169863723Y-86253177D01*
X169834500Y-86400092D01*
X163615847Y-86400092D01*
X163615853Y-86393892D01*
X163619012Y-82924984D01*
X165404500Y-82924984D01*
X165404500Y-84025015D01*
X165415000Y-84127795D01*
X165415001Y-84127797D01*
X165442593Y-84211065D01*
X165470186Y-84294335D01*
X165470187Y-84294337D01*
X165562286Y-84443651D01*
X165562289Y-84443655D01*
X165686344Y-84567710D01*
X165686348Y-84567713D01*
X165835662Y-84659812D01*
X165835664Y-84659813D01*
X165835666Y-84659814D01*
X166002203Y-84714999D01*
X166104992Y-84725500D01*
X166104997Y-84725500D01*
X167205003Y-84725500D01*
X167205008Y-84725500D01*
X167307797Y-84714999D01*
X167474334Y-84659814D01*
X167623655Y-84567711D01*
X167747711Y-84443655D01*
X167839814Y-84294334D01*
X167894999Y-84127797D01*
X167905500Y-84025008D01*
X167905500Y-83376577D01*
X168404500Y-83376577D01*
X168404500Y-83573422D01*
X168435290Y-83767826D01*
X168496117Y-83955029D01*
X168531777Y-84025015D01*
X168585476Y-84130405D01*
X168701172Y-84289646D01*
X168840354Y-84428828D01*
X168999595Y-84544524D01*
X169082455Y-84586743D01*
X169174970Y-84633882D01*
X169174972Y-84633882D01*
X169174975Y-84633884D01*
X169254773Y-84659812D01*
X169362173Y-84694709D01*
X169556578Y-84725500D01*
X169556583Y-84725500D01*
X169753422Y-84725500D01*
X169947826Y-84694709D01*
X170135025Y-84633884D01*
X170310405Y-84544524D01*
X170469646Y-84428828D01*
X170608828Y-84289646D01*
X170724524Y-84130405D01*
X170813884Y-83955025D01*
X170874709Y-83767826D01*
X170905500Y-83573422D01*
X170905500Y-83376577D01*
X170874709Y-83182173D01*
X170813882Y-82994970D01*
X170725853Y-82822204D01*
X170724524Y-82819595D01*
X170608828Y-82660354D01*
X170469646Y-82521172D01*
X170310405Y-82405476D01*
X170264892Y-82382286D01*
X170135029Y-82316117D01*
X169947826Y-82255290D01*
X169753422Y-82224500D01*
X169753417Y-82224500D01*
X169556583Y-82224500D01*
X169556578Y-82224500D01*
X169362173Y-82255290D01*
X169174970Y-82316117D01*
X168999594Y-82405476D01*
X168937625Y-82450500D01*
X168840354Y-82521172D01*
X168840352Y-82521174D01*
X168840351Y-82521174D01*
X168701174Y-82660351D01*
X168701174Y-82660352D01*
X168701172Y-82660354D01*
X168651485Y-82728741D01*
X168585476Y-82819594D01*
X168496117Y-82994970D01*
X168435290Y-83182173D01*
X168404500Y-83376577D01*
X167905500Y-83376577D01*
X167905500Y-82924992D01*
X167894999Y-82822203D01*
X167839814Y-82655666D01*
X167756856Y-82521172D01*
X167747713Y-82506348D01*
X167747710Y-82506344D01*
X167623655Y-82382289D01*
X167623651Y-82382286D01*
X167474337Y-82290187D01*
X167474335Y-82290186D01*
X167369025Y-82255290D01*
X167307797Y-82235001D01*
X167307795Y-82235000D01*
X167205015Y-82224500D01*
X167205008Y-82224500D01*
X166104992Y-82224500D01*
X166104984Y-82224500D01*
X166002204Y-82235000D01*
X166002203Y-82235001D01*
X165835664Y-82290186D01*
X165835662Y-82290187D01*
X165686348Y-82382286D01*
X165686344Y-82382289D01*
X165562289Y-82506344D01*
X165562286Y-82506348D01*
X165470187Y-82655662D01*
X165470186Y-82655664D01*
X165415001Y-82822203D01*
X165415000Y-82822204D01*
X165404500Y-82924984D01*
X163619012Y-82924984D01*
X163619015Y-82921722D01*
X163620336Y-81471306D01*
X163620976Y-80767826D01*
X163621332Y-80376617D01*
X165405000Y-80376617D01*
X165405000Y-80573382D01*
X165435778Y-80767705D01*
X165496581Y-80954835D01*
X165585905Y-81130145D01*
X165611319Y-81165125D01*
X165611320Y-81165125D01*
X166163871Y-80612574D01*
X166179755Y-80671853D01*
X166246898Y-80788147D01*
X166341853Y-80883102D01*
X166458147Y-80950245D01*
X166517424Y-80966128D01*
X165964873Y-81518677D01*
X165964873Y-81518678D01*
X165999858Y-81544096D01*
X166175164Y-81633418D01*
X166362294Y-81694221D01*
X166556618Y-81725000D01*
X166753382Y-81725000D01*
X166947705Y-81694221D01*
X167134835Y-81633418D01*
X167310143Y-81544095D01*
X167345125Y-81518678D01*
X167345126Y-81518678D01*
X166792575Y-80966127D01*
X166851853Y-80950245D01*
X166968147Y-80883102D01*
X167063102Y-80788147D01*
X167130245Y-80671853D01*
X167146127Y-80612575D01*
X167698678Y-81165126D01*
X167698678Y-81165125D01*
X167724095Y-81130143D01*
X167813418Y-80954835D01*
X167874221Y-80767705D01*
X167905000Y-80573382D01*
X167905000Y-80376617D01*
X167904994Y-80376577D01*
X168404500Y-80376577D01*
X168404500Y-80573422D01*
X168435290Y-80767826D01*
X168496117Y-80955029D01*
X168585343Y-81130143D01*
X168585476Y-81130405D01*
X168701172Y-81289646D01*
X168840354Y-81428828D01*
X168999595Y-81544524D01*
X169082455Y-81586743D01*
X169174970Y-81633882D01*
X169174972Y-81633882D01*
X169174975Y-81633884D01*
X169275317Y-81666487D01*
X169362173Y-81694709D01*
X169556578Y-81725500D01*
X169556583Y-81725500D01*
X169753422Y-81725500D01*
X169947826Y-81694709D01*
X169949328Y-81694221D01*
X170135025Y-81633884D01*
X170310405Y-81544524D01*
X170469646Y-81428828D01*
X170608828Y-81289646D01*
X170724524Y-81130405D01*
X170813884Y-80955025D01*
X170874709Y-80767826D01*
X170882080Y-80721288D01*
X170905500Y-80573422D01*
X170905500Y-80376577D01*
X170874709Y-80182173D01*
X170813882Y-79994970D01*
X170766743Y-79902455D01*
X170724524Y-79819595D01*
X170608828Y-79660354D01*
X170469646Y-79521172D01*
X170310405Y-79405476D01*
X170255032Y-79377262D01*
X170135029Y-79316117D01*
X169947826Y-79255290D01*
X169753422Y-79224500D01*
X169753417Y-79224500D01*
X169556583Y-79224500D01*
X169556578Y-79224500D01*
X169362173Y-79255290D01*
X169174970Y-79316117D01*
X168999594Y-79405476D01*
X168908741Y-79471485D01*
X168840354Y-79521172D01*
X168840352Y-79521174D01*
X168840351Y-79521174D01*
X168701174Y-79660351D01*
X168701174Y-79660352D01*
X168701172Y-79660354D01*
X168651485Y-79728741D01*
X168585476Y-79819594D01*
X168496117Y-79994970D01*
X168435290Y-80182173D01*
X168404500Y-80376577D01*
X167904994Y-80376577D01*
X167874221Y-80182294D01*
X167813418Y-79995164D01*
X167724096Y-79819858D01*
X167698678Y-79784873D01*
X167698677Y-79784873D01*
X167146127Y-80337423D01*
X167130245Y-80278147D01*
X167063102Y-80161853D01*
X166968147Y-80066898D01*
X166851853Y-79999755D01*
X166792574Y-79983871D01*
X167345125Y-79431320D01*
X167345125Y-79431319D01*
X167310145Y-79405905D01*
X167134835Y-79316581D01*
X166947705Y-79255778D01*
X166753382Y-79225000D01*
X166556618Y-79225000D01*
X166362294Y-79255778D01*
X166175161Y-79316582D01*
X165999863Y-79405899D01*
X165999859Y-79405902D01*
X165964873Y-79431320D01*
X165964872Y-79431320D01*
X166517425Y-79983871D01*
X166458147Y-79999755D01*
X166341853Y-80066898D01*
X166246898Y-80161853D01*
X166179755Y-80278147D01*
X166163871Y-80337424D01*
X165611320Y-79784872D01*
X165611320Y-79784873D01*
X165585902Y-79819859D01*
X165585899Y-79819863D01*
X165496582Y-79995161D01*
X165435778Y-80182294D01*
X165405000Y-80376617D01*
X163621332Y-80376617D01*
X163624043Y-77400092D01*
X169834500Y-77400092D01*
X169834500Y-77549907D01*
X169863723Y-77696822D01*
X169863725Y-77696830D01*
X169921051Y-77835229D01*
X169921056Y-77835238D01*
X170004280Y-77959790D01*
X170004283Y-77959794D01*
X170110205Y-78065716D01*
X170110209Y-78065719D01*
X170234761Y-78148943D01*
X170234767Y-78148946D01*
X170234768Y-78148947D01*
X170373170Y-78206275D01*
X170520092Y-78235499D01*
X170520096Y-78235500D01*
X170520097Y-78235500D01*
X170669904Y-78235500D01*
X170669905Y-78235499D01*
X170816830Y-78206275D01*
X170955232Y-78148947D01*
X171079791Y-78065719D01*
X171185719Y-77959791D01*
X171268947Y-77835232D01*
X171326275Y-77696830D01*
X171355500Y-77549903D01*
X171355500Y-77400097D01*
X171326275Y-77253170D01*
X171268947Y-77114768D01*
X171268946Y-77114767D01*
X171268943Y-77114761D01*
X171185719Y-76990209D01*
X171185716Y-76990205D01*
X171079794Y-76884283D01*
X171079790Y-76884280D01*
X170955238Y-76801056D01*
X170955229Y-76801051D01*
X170816830Y-76743725D01*
X170816822Y-76743723D01*
X170669907Y-76714500D01*
X170669903Y-76714500D01*
X170520097Y-76714500D01*
X170520092Y-76714500D01*
X170373177Y-76743723D01*
X170373169Y-76743725D01*
X170234770Y-76801051D01*
X170234761Y-76801056D01*
X170110209Y-76884280D01*
X170110205Y-76884283D01*
X170004283Y-76990205D01*
X170004280Y-76990209D01*
X169921056Y-77114761D01*
X169921051Y-77114770D01*
X169863725Y-77253169D01*
X169863723Y-77253177D01*
X169834500Y-77400092D01*
X163624043Y-77400092D01*
X163624887Y-76473886D01*
X163644633Y-76406866D01*
X163697478Y-76361159D01*
X163748887Y-76350000D01*
X164199846Y-76350000D01*
X164200000Y-76350000D01*
X184275466Y-76300308D01*
X184342554Y-76319827D01*
G37*
G04 #@! TD.AperFunction*
G04 #@! TA.AperFunction,Conductor*
G36*
X157436005Y-76000450D02*
G01*
X157503040Y-76020134D01*
X157548794Y-76072938D01*
X157560000Y-76124449D01*
X157560000Y-87776562D01*
X157540315Y-87843601D01*
X157487511Y-87889356D01*
X157436564Y-87900561D01*
X150583835Y-87931709D01*
X150617781Y-104873901D01*
X150598231Y-104940979D01*
X150545518Y-104986840D01*
X150493891Y-104998149D01*
X122440249Y-105023043D01*
X122373192Y-105003418D01*
X122327390Y-104950655D01*
X122316162Y-104896684D01*
X122417964Y-99556032D01*
X122438921Y-99489384D01*
X122492588Y-99444643D01*
X122561923Y-99436020D01*
X122574030Y-99438624D01*
X122618748Y-99450606D01*
X122988399Y-99515786D01*
X123362321Y-99548499D01*
X123362322Y-99548500D01*
X123362323Y-99548500D01*
X125737678Y-99548500D01*
X125737678Y-99548499D01*
X126111601Y-99515786D01*
X126481252Y-99450606D01*
X126843815Y-99353458D01*
X127196532Y-99225079D01*
X127536717Y-99066448D01*
X127861783Y-98878772D01*
X128169254Y-98663478D01*
X128456791Y-98422206D01*
X128722206Y-98156791D01*
X128963478Y-97869254D01*
X129178772Y-97561783D01*
X129366448Y-97236717D01*
X129525079Y-96896532D01*
X129653458Y-96543815D01*
X129750606Y-96181252D01*
X129815786Y-95811601D01*
X129848500Y-95437677D01*
X129848500Y-95062323D01*
X129815786Y-94688399D01*
X129750606Y-94318748D01*
X129653458Y-93956185D01*
X129525079Y-93603468D01*
X129366448Y-93263283D01*
X129178772Y-92938217D01*
X128963478Y-92630746D01*
X128963477Y-92630745D01*
X128963473Y-92630739D01*
X128722203Y-92343206D01*
X128456793Y-92077796D01*
X128169260Y-91836526D01*
X128002616Y-91719840D01*
X127958991Y-91665262D01*
X127949745Y-91619327D01*
X127947395Y-91344957D01*
X127944952Y-91059630D01*
X126561367Y-91066324D01*
X126528675Y-91062100D01*
X126481266Y-91049397D01*
X126481254Y-91049394D01*
X126481252Y-91049394D01*
X126429061Y-91040191D01*
X126111603Y-90984214D01*
X125737680Y-90951500D01*
X125737677Y-90951500D01*
X124755513Y-90951500D01*
X124688474Y-90931815D01*
X124667832Y-90915181D01*
X123418253Y-89665602D01*
X142359500Y-89665602D01*
X142359500Y-89934397D01*
X142394582Y-90200880D01*
X142394583Y-90200885D01*
X142394584Y-90200891D01*
X142394585Y-90200893D01*
X142464152Y-90460524D01*
X142567011Y-90708850D01*
X142567019Y-90708866D01*
X142647830Y-90848832D01*
X142701413Y-90941641D01*
X142701415Y-90941644D01*
X142701416Y-90941645D01*
X142865042Y-91154888D01*
X142865048Y-91154895D01*
X143055104Y-91344951D01*
X143055110Y-91344956D01*
X143268359Y-91508587D01*
X143417968Y-91594964D01*
X143501133Y-91642980D01*
X143501149Y-91642988D01*
X143656008Y-91707132D01*
X143749474Y-91745847D01*
X144009109Y-91815416D01*
X144169428Y-91836522D01*
X144275602Y-91850500D01*
X144275603Y-91850500D01*
X144544398Y-91850500D01*
X144604905Y-91842534D01*
X144810891Y-91815416D01*
X145070526Y-91745847D01*
X145265075Y-91665262D01*
X145318850Y-91642988D01*
X145318853Y-91642986D01*
X145318859Y-91642984D01*
X145551641Y-91508587D01*
X145764890Y-91344956D01*
X145954956Y-91154890D01*
X146118587Y-90941641D01*
X146252984Y-90708859D01*
X146257357Y-90698303D01*
X146278417Y-90647457D01*
X146355847Y-90460526D01*
X146425416Y-90200891D01*
X146460500Y-89934397D01*
X146460500Y-89665603D01*
X146425416Y-89399109D01*
X146355847Y-89139474D01*
X146317132Y-89046008D01*
X146252988Y-88891149D01*
X146252980Y-88891133D01*
X146145781Y-88705461D01*
X146118587Y-88658359D01*
X145954956Y-88445110D01*
X145954951Y-88445104D01*
X145764895Y-88255048D01*
X145764888Y-88255042D01*
X145551645Y-88091416D01*
X145551644Y-88091415D01*
X145551641Y-88091413D01*
X145458832Y-88037830D01*
X145318866Y-87957019D01*
X145318850Y-87957011D01*
X145070524Y-87854152D01*
X144940708Y-87819368D01*
X144810891Y-87784584D01*
X144810885Y-87784583D01*
X144810880Y-87784582D01*
X144544398Y-87749500D01*
X144544397Y-87749500D01*
X144275603Y-87749500D01*
X144275602Y-87749500D01*
X144009119Y-87784582D01*
X144009112Y-87784583D01*
X144009109Y-87784584D01*
X143954239Y-87799286D01*
X143749475Y-87854152D01*
X143501149Y-87957011D01*
X143501133Y-87957019D01*
X143268354Y-88091416D01*
X143055111Y-88255042D01*
X143055104Y-88255048D01*
X142865048Y-88445104D01*
X142865042Y-88445111D01*
X142701416Y-88658354D01*
X142567019Y-88891133D01*
X142567011Y-88891149D01*
X142464152Y-89139475D01*
X142415942Y-89319400D01*
X142395823Y-89394487D01*
X142394585Y-89399106D01*
X142394582Y-89399119D01*
X142359500Y-89665602D01*
X123418253Y-89665602D01*
X123234819Y-89482168D01*
X123201334Y-89420845D01*
X123198500Y-89394487D01*
X123198500Y-88772500D01*
X123218185Y-88705461D01*
X123270989Y-88659706D01*
X123322500Y-88648500D01*
X126899557Y-88648500D01*
X126899560Y-88648500D01*
X126899567Y-88648499D01*
X126899585Y-88648499D01*
X127013626Y-88642794D01*
X127104717Y-88638238D01*
X127449064Y-88583698D01*
X127784949Y-88490262D01*
X128107994Y-88359147D01*
X128413987Y-88192062D01*
X128698940Y-87991186D01*
X128959136Y-87759136D01*
X129191186Y-87498940D01*
X129392062Y-87213987D01*
X129559147Y-86907994D01*
X129690262Y-86584949D01*
X129783698Y-86249064D01*
X129838238Y-85904717D01*
X129848500Y-85699560D01*
X129848500Y-83000440D01*
X129838238Y-82795283D01*
X129783698Y-82450936D01*
X129690262Y-82115051D01*
X129560771Y-81796007D01*
X129559150Y-81792012D01*
X129559144Y-81792001D01*
X129392067Y-81486021D01*
X129392060Y-81486010D01*
X129191192Y-81201068D01*
X129191190Y-81201066D01*
X129191186Y-81201060D01*
X128959136Y-80940864D01*
X128698940Y-80708814D01*
X128698934Y-80708810D01*
X128698931Y-80708807D01*
X128413989Y-80507939D01*
X128413978Y-80507932D01*
X128107998Y-80340855D01*
X128107987Y-80340849D01*
X127930151Y-80268671D01*
X127875435Y-80225220D01*
X127852898Y-80159085D01*
X127852787Y-80154500D01*
X127832912Y-76433154D01*
X127852238Y-76366012D01*
X127904797Y-76319975D01*
X127955280Y-76308504D01*
X151429437Y-76000451D01*
X151430991Y-76000441D01*
X157436005Y-76000450D01*
G37*
G04 #@! TD.AperFunction*
M02*
