M48
; DRILL file {KiCad 9.0.4} date 2026-02-24T18:34:29-0800
; FORMAT={-:-/ absolute / metric / decimal}
; #@! TF.CreationDate,2026-02-24T18:34:29-08:00
; #@! TF.GenerationSoftware,Kicad,Pcbnew,9.0.4
; #@! TF.FileFunction,Plated,1,2,PTH
FMAT,2
METRIC
; #@! TA.AperFunction,Plated,PTH,ViaDrill
T1C0.300
; #@! TA.AperFunction,Plated,PTH,ComponentDrill
T2C0.800
; #@! TA.AperFunction,Plated,PTH,ComponentDrill
T3C0.889
; #@! TA.AperFunction,Plated,PTH,ComponentDrill
T4C1.020
; #@! TA.AperFunction,Plated,PTH,ComponentDrill
T5C1.500
%
G90
G05
T1
X124.21Y-80.94
X131.16Y-83.03
X131.16Y-84.53
X131.16Y-86.03
X131.16Y-87.53
X131.16Y-89.03
X131.16Y-90.53
X131.16Y-92.03
X131.16Y-93.53
X131.16Y-95.03
X131.16Y-96.53
X132.66Y-83.03
X132.66Y-84.53
X132.66Y-86.03
X132.66Y-87.53
X132.66Y-89.03
X132.66Y-90.53
X132.66Y-92.03
X132.66Y-93.53
X132.66Y-95.03
X132.66Y-96.53
X134.16Y-83.03
X134.16Y-84.53
X134.16Y-86.03
X134.16Y-87.53
X134.16Y-89.03
X134.16Y-90.53
X134.16Y-92.03
X134.16Y-93.53
X134.16Y-95.03
X134.16Y-96.53
X135.66Y-83.03
X135.66Y-84.53
X135.66Y-86.03
X135.66Y-87.53
X135.66Y-89.03
X135.66Y-90.53
X135.66Y-92.03
X135.66Y-93.53
X135.66Y-95.03
X135.66Y-96.53
X137.16Y-83.03
X137.16Y-84.53
X137.16Y-86.03
X137.16Y-87.53
X137.16Y-89.03
X137.16Y-90.53
X137.16Y-92.03
X137.16Y-93.53
X137.16Y-95.03
X137.16Y-96.53
X138.66Y-83.03
X138.66Y-84.53
X138.66Y-86.03
X138.66Y-87.53
X138.66Y-89.03
X138.66Y-90.53
X138.66Y-92.03
X138.66Y-93.53
X138.66Y-95.03
X138.66Y-96.53
X140.16Y-83.03
X140.16Y-84.53
X140.16Y-86.03
X140.16Y-87.53
X140.16Y-89.03
X140.16Y-90.53
X140.16Y-92.03
X140.16Y-93.53
X140.16Y-95.03
X140.16Y-96.53
X141.66Y-83.03
X141.66Y-84.53
X141.66Y-86.03
X141.66Y-87.53
X141.66Y-89.03
X141.66Y-90.53
X141.66Y-92.03
X141.66Y-93.53
X141.66Y-95.03
X141.66Y-96.53
X143.16Y-83.03
X143.16Y-84.53
X143.16Y-86.03
X143.16Y-93.53
X143.16Y-95.03
X143.16Y-96.53
X144.66Y-83.03
X144.66Y-84.53
X144.66Y-86.03
X144.66Y-93.53
X144.66Y-95.03
X144.66Y-96.53
X146.16Y-83.03
X146.16Y-84.53
X146.16Y-86.03
X146.16Y-93.53
X146.16Y-95.03
X146.16Y-96.53
X147.66Y-83.03
X147.66Y-84.53
X147.66Y-86.03
X147.66Y-87.53
X147.66Y-89.03
X147.66Y-90.53
X147.66Y-92.03
X147.66Y-93.53
X147.66Y-95.03
X147.66Y-96.53
X149.16Y-83.03
X149.16Y-84.53
X149.16Y-86.03
X149.16Y-87.53
X149.16Y-89.03
X149.16Y-90.53
X149.16Y-92.03
X149.16Y-93.53
X149.16Y-95.03
X149.16Y-96.53
X164.975Y-94.525
X169.5Y-89.025
X170.2Y-91.0
X170.35Y-100.075
X173.025Y-95.125
X175.9Y-85.0
X178.375Y-90.29
X179.35Y-88.35
X179.925Y-92.7
T2
X154.828Y-93.168
X154.828Y-95.708
X154.828Y-98.248
X162.448Y-93.168
X162.448Y-95.708
X162.448Y-98.248
T3
X106.27Y-87.67
X106.27Y-93.23
X111.35Y-87.67
X111.35Y-93.23
T4
X117.5Y-79.62
X117.5Y-82.62
X117.55Y-98.46
X117.55Y-101.46
X166.655Y-80.475
X166.655Y-83.475
X169.655Y-80.475
X169.655Y-83.475
T5
X124.55Y-84.35
X124.55Y-89.8
X124.55Y-95.25
M30
