M48
; DRILL file {KiCad 9.0.4} date 2026-01-15T15:25:33-0800
; FORMAT={-:-/ absolute / metric / decimal}
; #@! TF.CreationDate,2026-01-15T15:25:33-08:00
; #@! TF.GenerationSoftware,Kicad,Pcbnew,9.0.4
; #@! TF.FileFunction,Plated,1,2,PTH
FMAT,2
METRIC
; #@! TA.AperFunction,Plated,PTH,ViaDrill
T1C0.300
; #@! TA.AperFunction,Plated,PTH,ComponentDrill
T2C1.000
; #@! TA.AperFunction,Plated,PTH,ComponentDrill
T3C1.020
; #@! TA.AperFunction,Plated,PTH,ViaDrill
T4C1.200
; #@! TA.AperFunction,Plated,PTH,ComponentDrill
T5C1.300
%
G90
G05
T1
X80.44Y-77.62
X81.4Y-76.72
X82.67Y-86.07
X82.75Y-75.63
X83.05Y-83.34
X85.001Y-77.109
X85.57Y-84.51
X85.72Y-82.45
X86.34Y-87.16
X87.533Y-62.624
X89.17Y-74.22
X90.62Y-69.26
X90.62Y-79.52
X91.25Y-96.08
X91.63Y-66.21
X92.0Y-44.24
X92.38Y-68.7
X92.46Y-48.57
X93.27Y-101.43
X93.27Y-102.17
X93.27Y-102.91
X93.28Y-98.47
X93.28Y-99.21
X93.28Y-99.95
X93.28Y-100.69
X94.28Y-101.43
X94.28Y-102.17
X94.28Y-102.91
X94.29Y-98.47
X94.29Y-99.21
X94.29Y-99.95
X94.29Y-100.69
X94.83Y-35.43
X95.26Y-101.45
X95.26Y-102.19
X95.26Y-102.93
X95.27Y-98.49
X95.27Y-99.23
X95.27Y-99.97
X95.27Y-100.71
X96.3Y-78.21
X96.32Y-101.45
X96.32Y-102.19
X96.32Y-102.93
X96.33Y-98.49
X96.33Y-99.23
X96.33Y-99.97
X96.33Y-100.71
X96.54Y-93.46
X97.25Y-101.45
X97.25Y-102.19
X97.25Y-102.93
X97.26Y-98.49
X97.26Y-99.23
X97.26Y-99.97
X97.26Y-100.71
X99.58Y-96.2
X99.96Y-93.55
X100.37Y-99.64
X111.627Y-102.891
X112.82Y-103.03
X118.72Y-50.03
X122.0Y-64.26
X122.01Y-51.0
X122.84Y-76.81
X122.93Y-91.2
X124.16Y-82.99
X124.57Y-56.11
X126.03Y-83.16
X126.28Y-56.21
X126.41Y-52.62
X127.135Y-80.495
X127.94Y-64.39
X128.59Y-74.15
X128.74Y-88.59
X129.63Y-77.05
X129.89Y-46.21
X129.92Y-60.71
X130.45Y-53.49
T2
X81.97Y-90.36
X84.51Y-90.36
X87.05Y-90.36
X89.59Y-90.36
T3
X85.49Y-52.11
X85.49Y-55.11
X85.49Y-58.11
X85.49Y-61.11
X85.49Y-64.11
X85.49Y-67.11
X88.49Y-52.11
X88.49Y-55.11
X88.49Y-58.11
X88.49Y-61.11
X88.49Y-64.11
X88.49Y-67.11
T4
X109.93Y-58.49
T5
X98.74Y-39.4
X98.74Y-47.02
X98.75Y-67.55
X98.75Y-75.17
X98.83Y-53.44
X98.83Y-61.06
X98.83Y-81.63
X98.83Y-89.25
X113.98Y-39.4
X113.98Y-47.02
X113.99Y-67.55
X113.99Y-75.17
X114.07Y-53.44
X114.07Y-61.06
X114.07Y-81.63
X114.07Y-89.25
X119.06Y-39.4
X119.06Y-47.02
X119.07Y-67.55
X119.07Y-75.17
X119.15Y-53.44
X119.15Y-61.06
X119.15Y-81.63
X119.15Y-89.25
M30
