%TF.GenerationSoftware,KiCad,Pcbnew,9.0.4*%
%TF.CreationDate,2026-01-15T15:25:04-08:00*%
%TF.ProjectId,relayBoard,72656c61-7942-46f6-9172-642e6b696361,rev?*%
%TF.SameCoordinates,Original*%
%TF.FileFunction,Soldermask,Bot*%
%TF.FilePolarity,Negative*%
%FSLAX46Y46*%
G04 Gerber Fmt 4.6, Leading zero omitted, Abs format (unit mm)*
G04 Created by KiCad (PCBNEW 9.0.4) date 2026-01-15 15:25:04*
%MOMM*%
%LPD*%
G01*
G04 APERTURE LIST*
G04 Aperture macros list*
%AMRoundRect*
0 Rectangle with rounded corners*
0 $1 Rounding radius*
0 $2 $3 $4 $5 $6 $7 $8 $9 X,Y pos of 4 corners*
0 Add a 4 corners polygon primitive as box body*
4,1,4,$2,$3,$4,$5,$6,$7,$8,$9,$2,$3,0*
0 Add four circle primitives for the rounded corners*
1,1,$1+$1,$2,$3*
1,1,$1+$1,$4,$5*
1,1,$1+$1,$6,$7*
1,1,$1+$1,$8,$9*
0 Add four rect primitives between the rounded corners*
20,1,$1+$1,$2,$3,$4,$5,0*
20,1,$1+$1,$4,$5,$6,$7,0*
20,1,$1+$1,$6,$7,$8,$9,0*
20,1,$1+$1,$8,$9,$2,$3,0*%
G04 Aperture macros list end*
%ADD10C,4.300000*%
%ADD11C,1.500000*%
%ADD12RoundRect,0.250001X0.499999X-0.499999X0.499999X0.499999X-0.499999X0.499999X-0.499999X-0.499999X0*%
%ADD13C,3.000000*%
%ADD14C,2.300000*%
%ADD15R,1.700000X1.700000*%
%ADD16C,1.700000*%
G04 APERTURE END LIST*
D10*
%TO.C,H1*%
X126430000Y-38930000D03*
%TD*%
%TO.C,H2*%
X86160000Y-38930000D03*
%TD*%
%TO.C,H3*%
X126430000Y-98920000D03*
%TD*%
%TO.C,H4*%
X86160000Y-98920000D03*
%TD*%
D11*
%TO.C,J1*%
X88490000Y-52110000D03*
X88490000Y-55110000D03*
X88490000Y-58110000D03*
X88490000Y-61110000D03*
X88490000Y-64110000D03*
X88490000Y-67110000D03*
X85490000Y-52110000D03*
X85490000Y-55110000D03*
X85490000Y-58110000D03*
X85490000Y-61110000D03*
X85490000Y-64110000D03*
D12*
X85490000Y-67110000D03*
D13*
X81170000Y-54250000D03*
X81170000Y-64950000D03*
%TD*%
D14*
%TO.C,K6*%
X98740000Y-47020000D03*
X113980000Y-47020000D03*
X119060000Y-47020000D03*
X119060000Y-39400000D03*
X113980000Y-39400000D03*
X98740000Y-39400000D03*
%TD*%
%TO.C,K4*%
X98750000Y-75170000D03*
X113990000Y-75170000D03*
X119070000Y-75170000D03*
X119070000Y-67550000D03*
X113990000Y-67550000D03*
X98750000Y-67550000D03*
%TD*%
%TO.C,K5*%
X98830000Y-61060000D03*
X114070000Y-61060000D03*
X119150000Y-61060000D03*
X119150000Y-53440000D03*
X114070000Y-53440000D03*
X98830000Y-53440000D03*
%TD*%
D15*
%TO.C,J2*%
X89590000Y-90360000D03*
D16*
X87050000Y-90360000D03*
X84510000Y-90360000D03*
X81970000Y-90360000D03*
%TD*%
D14*
%TO.C,K7*%
X98830000Y-89250000D03*
X114070000Y-89250000D03*
X119150000Y-89250000D03*
X119150000Y-81630000D03*
X114070000Y-81630000D03*
X98830000Y-81630000D03*
%TD*%
M02*
