%TF.GenerationSoftware,KiCad,Pcbnew,9.0.4*%
%TF.CreationDate,2026-01-15T15:25:04-08:00*%
%TF.ProjectId,relayBoard,72656c61-7942-46f6-9172-642e6b696361,rev?*%
%TF.SameCoordinates,Original*%
%TF.FileFunction,Legend,Top*%
%TF.FilePolarity,Positive*%
%FSLAX46Y46*%
G04 Gerber Fmt 4.6, Leading zero omitted, Abs format (unit mm)*
G04 Created by KiCad (PCBNEW 9.0.4) date 2026-01-15 15:25:04*
%MOMM*%
%LPD*%
G01*
G04 APERTURE LIST*
%ADD10C,0.100000*%
%ADD11C,0.150000*%
%ADD12C,0.120000*%
%ADD13C,0.250000*%
G04 APERTURE END LIST*
D10*
X111956384Y-99362716D02*
X112718289Y-99362716D01*
X112337336Y-99743669D02*
X112337336Y-98981764D01*
X113718288Y-98791288D02*
X113623050Y-98743669D01*
X113623050Y-98743669D02*
X113480193Y-98743669D01*
X113480193Y-98743669D02*
X113337336Y-98791288D01*
X113337336Y-98791288D02*
X113242098Y-98886526D01*
X113242098Y-98886526D02*
X113194479Y-98981764D01*
X113194479Y-98981764D02*
X113146860Y-99172240D01*
X113146860Y-99172240D02*
X113146860Y-99315097D01*
X113146860Y-99315097D02*
X113194479Y-99505573D01*
X113194479Y-99505573D02*
X113242098Y-99600811D01*
X113242098Y-99600811D02*
X113337336Y-99696050D01*
X113337336Y-99696050D02*
X113480193Y-99743669D01*
X113480193Y-99743669D02*
X113575431Y-99743669D01*
X113575431Y-99743669D02*
X113718288Y-99696050D01*
X113718288Y-99696050D02*
X113765907Y-99648430D01*
X113765907Y-99648430D02*
X113765907Y-99315097D01*
X113765907Y-99315097D02*
X113575431Y-99315097D01*
X114670669Y-99743669D02*
X114194479Y-99743669D01*
X114194479Y-99743669D02*
X114194479Y-98743669D01*
X114861146Y-98743669D02*
X115194479Y-99743669D01*
X115194479Y-99743669D02*
X115527812Y-98743669D01*
X124368609Y-71762782D02*
X124416228Y-71619925D01*
X124416228Y-71619925D02*
X124463847Y-71572306D01*
X124463847Y-71572306D02*
X124559085Y-71524687D01*
X124559085Y-71524687D02*
X124701942Y-71524687D01*
X124701942Y-71524687D02*
X124797180Y-71572306D01*
X124797180Y-71572306D02*
X124844800Y-71619925D01*
X124844800Y-71619925D02*
X124892419Y-71715163D01*
X124892419Y-71715163D02*
X124892419Y-72096115D01*
X124892419Y-72096115D02*
X123892419Y-72096115D01*
X123892419Y-72096115D02*
X123892419Y-71762782D01*
X123892419Y-71762782D02*
X123940038Y-71667544D01*
X123940038Y-71667544D02*
X123987657Y-71619925D01*
X123987657Y-71619925D02*
X124082895Y-71572306D01*
X124082895Y-71572306D02*
X124178133Y-71572306D01*
X124178133Y-71572306D02*
X124273371Y-71619925D01*
X124273371Y-71619925D02*
X124320990Y-71667544D01*
X124320990Y-71667544D02*
X124368609Y-71762782D01*
X124368609Y-71762782D02*
X124368609Y-72096115D01*
X124892419Y-71096115D02*
X123892419Y-71096115D01*
X123892419Y-71096115D02*
X124606704Y-70762782D01*
X124606704Y-70762782D02*
X123892419Y-70429449D01*
X123892419Y-70429449D02*
X124892419Y-70429449D01*
X124844800Y-70000877D02*
X124892419Y-69858020D01*
X124892419Y-69858020D02*
X124892419Y-69619925D01*
X124892419Y-69619925D02*
X124844800Y-69524687D01*
X124844800Y-69524687D02*
X124797180Y-69477068D01*
X124797180Y-69477068D02*
X124701942Y-69429449D01*
X124701942Y-69429449D02*
X124606704Y-69429449D01*
X124606704Y-69429449D02*
X124511466Y-69477068D01*
X124511466Y-69477068D02*
X124463847Y-69524687D01*
X124463847Y-69524687D02*
X124416228Y-69619925D01*
X124416228Y-69619925D02*
X124368609Y-69810401D01*
X124368609Y-69810401D02*
X124320990Y-69905639D01*
X124320990Y-69905639D02*
X124273371Y-69953258D01*
X124273371Y-69953258D02*
X124178133Y-70000877D01*
X124178133Y-70000877D02*
X124082895Y-70000877D01*
X124082895Y-70000877D02*
X123987657Y-69953258D01*
X123987657Y-69953258D02*
X123940038Y-69905639D01*
X123940038Y-69905639D02*
X123892419Y-69810401D01*
X123892419Y-69810401D02*
X123892419Y-69572306D01*
X123892419Y-69572306D02*
X123940038Y-69429449D01*
X124862419Y-65986115D02*
X123862419Y-65986115D01*
X124862419Y-65509925D02*
X123862419Y-65509925D01*
X123862419Y-65509925D02*
X124576704Y-65176592D01*
X124576704Y-65176592D02*
X123862419Y-64843259D01*
X123862419Y-64843259D02*
X124862419Y-64843259D01*
X124862419Y-64367068D02*
X123862419Y-64367068D01*
X123862419Y-64367068D02*
X123862419Y-64128973D01*
X123862419Y-64128973D02*
X123910038Y-63986116D01*
X123910038Y-63986116D02*
X124005276Y-63890878D01*
X124005276Y-63890878D02*
X124100514Y-63843259D01*
X124100514Y-63843259D02*
X124290990Y-63795640D01*
X124290990Y-63795640D02*
X124433847Y-63795640D01*
X124433847Y-63795640D02*
X124624323Y-63843259D01*
X124624323Y-63843259D02*
X124719561Y-63890878D01*
X124719561Y-63890878D02*
X124814800Y-63986116D01*
X124814800Y-63986116D02*
X124862419Y-64128973D01*
X124862419Y-64128973D02*
X124862419Y-64367068D01*
X124842419Y-93186115D02*
X123842419Y-93186115D01*
X123842419Y-93186115D02*
X123842419Y-92805163D01*
X123842419Y-92805163D02*
X123890038Y-92709925D01*
X123890038Y-92709925D02*
X123937657Y-92662306D01*
X123937657Y-92662306D02*
X124032895Y-92614687D01*
X124032895Y-92614687D02*
X124175752Y-92614687D01*
X124175752Y-92614687D02*
X124270990Y-92662306D01*
X124270990Y-92662306D02*
X124318609Y-92709925D01*
X124318609Y-92709925D02*
X124366228Y-92805163D01*
X124366228Y-92805163D02*
X124366228Y-93186115D01*
X124842419Y-91614687D02*
X124366228Y-91948020D01*
X124842419Y-92186115D02*
X123842419Y-92186115D01*
X123842419Y-92186115D02*
X123842419Y-91805163D01*
X123842419Y-91805163D02*
X123890038Y-91709925D01*
X123890038Y-91709925D02*
X123937657Y-91662306D01*
X123937657Y-91662306D02*
X124032895Y-91614687D01*
X124032895Y-91614687D02*
X124175752Y-91614687D01*
X124175752Y-91614687D02*
X124270990Y-91662306D01*
X124270990Y-91662306D02*
X124318609Y-91709925D01*
X124318609Y-91709925D02*
X124366228Y-91805163D01*
X124366228Y-91805163D02*
X124366228Y-92186115D01*
X124747180Y-90614687D02*
X124794800Y-90662306D01*
X124794800Y-90662306D02*
X124842419Y-90805163D01*
X124842419Y-90805163D02*
X124842419Y-90900401D01*
X124842419Y-90900401D02*
X124794800Y-91043258D01*
X124794800Y-91043258D02*
X124699561Y-91138496D01*
X124699561Y-91138496D02*
X124604323Y-91186115D01*
X124604323Y-91186115D02*
X124413847Y-91233734D01*
X124413847Y-91233734D02*
X124270990Y-91233734D01*
X124270990Y-91233734D02*
X124080514Y-91186115D01*
X124080514Y-91186115D02*
X123985276Y-91138496D01*
X123985276Y-91138496D02*
X123890038Y-91043258D01*
X123890038Y-91043258D02*
X123842419Y-90900401D01*
X123842419Y-90900401D02*
X123842419Y-90805163D01*
X123842419Y-90805163D02*
X123890038Y-90662306D01*
X123890038Y-90662306D02*
X123937657Y-90614687D01*
X122218609Y-44922782D02*
X122266228Y-44779925D01*
X122266228Y-44779925D02*
X122313847Y-44732306D01*
X122313847Y-44732306D02*
X122409085Y-44684687D01*
X122409085Y-44684687D02*
X122551942Y-44684687D01*
X122551942Y-44684687D02*
X122647180Y-44732306D01*
X122647180Y-44732306D02*
X122694800Y-44779925D01*
X122694800Y-44779925D02*
X122742419Y-44875163D01*
X122742419Y-44875163D02*
X122742419Y-45256115D01*
X122742419Y-45256115D02*
X121742419Y-45256115D01*
X121742419Y-45256115D02*
X121742419Y-44922782D01*
X121742419Y-44922782D02*
X121790038Y-44827544D01*
X121790038Y-44827544D02*
X121837657Y-44779925D01*
X121837657Y-44779925D02*
X121932895Y-44732306D01*
X121932895Y-44732306D02*
X122028133Y-44732306D01*
X122028133Y-44732306D02*
X122123371Y-44779925D01*
X122123371Y-44779925D02*
X122170990Y-44827544D01*
X122170990Y-44827544D02*
X122218609Y-44922782D01*
X122218609Y-44922782D02*
X122218609Y-45256115D01*
X122694800Y-44303734D02*
X122742419Y-44160877D01*
X122742419Y-44160877D02*
X122742419Y-43922782D01*
X122742419Y-43922782D02*
X122694800Y-43827544D01*
X122694800Y-43827544D02*
X122647180Y-43779925D01*
X122647180Y-43779925D02*
X122551942Y-43732306D01*
X122551942Y-43732306D02*
X122456704Y-43732306D01*
X122456704Y-43732306D02*
X122361466Y-43779925D01*
X122361466Y-43779925D02*
X122313847Y-43827544D01*
X122313847Y-43827544D02*
X122266228Y-43922782D01*
X122266228Y-43922782D02*
X122218609Y-44113258D01*
X122218609Y-44113258D02*
X122170990Y-44208496D01*
X122170990Y-44208496D02*
X122123371Y-44256115D01*
X122123371Y-44256115D02*
X122028133Y-44303734D01*
X122028133Y-44303734D02*
X121932895Y-44303734D01*
X121932895Y-44303734D02*
X121837657Y-44256115D01*
X121837657Y-44256115D02*
X121790038Y-44208496D01*
X121790038Y-44208496D02*
X121742419Y-44113258D01*
X121742419Y-44113258D02*
X121742419Y-43875163D01*
X121742419Y-43875163D02*
X121790038Y-43732306D01*
X122742419Y-43303734D02*
X121742419Y-43303734D01*
X121742419Y-43303734D02*
X121742419Y-42922782D01*
X121742419Y-42922782D02*
X121790038Y-42827544D01*
X121790038Y-42827544D02*
X121837657Y-42779925D01*
X121837657Y-42779925D02*
X121932895Y-42732306D01*
X121932895Y-42732306D02*
X122075752Y-42732306D01*
X122075752Y-42732306D02*
X122170990Y-42779925D01*
X122170990Y-42779925D02*
X122218609Y-42827544D01*
X122218609Y-42827544D02*
X122266228Y-42922782D01*
X122266228Y-42922782D02*
X122266228Y-43303734D01*
X122742419Y-42303734D02*
X121742419Y-42303734D01*
X121742419Y-42303734D02*
X121742419Y-42065639D01*
X121742419Y-42065639D02*
X121790038Y-41922782D01*
X121790038Y-41922782D02*
X121885276Y-41827544D01*
X121885276Y-41827544D02*
X121980514Y-41779925D01*
X121980514Y-41779925D02*
X122170990Y-41732306D01*
X122170990Y-41732306D02*
X122313847Y-41732306D01*
X122313847Y-41732306D02*
X122504323Y-41779925D01*
X122504323Y-41779925D02*
X122599561Y-41827544D01*
X122599561Y-41827544D02*
X122694800Y-41922782D01*
X122694800Y-41922782D02*
X122742419Y-42065639D01*
X122742419Y-42065639D02*
X122742419Y-42303734D01*
X108586384Y-99322716D02*
X109348289Y-99322716D01*
X108967336Y-99703669D02*
X108967336Y-98941764D01*
X109729241Y-98703669D02*
X110348288Y-98703669D01*
X110348288Y-98703669D02*
X110014955Y-99084621D01*
X110014955Y-99084621D02*
X110157812Y-99084621D01*
X110157812Y-99084621D02*
X110253050Y-99132240D01*
X110253050Y-99132240D02*
X110300669Y-99179859D01*
X110300669Y-99179859D02*
X110348288Y-99275097D01*
X110348288Y-99275097D02*
X110348288Y-99513192D01*
X110348288Y-99513192D02*
X110300669Y-99608430D01*
X110300669Y-99608430D02*
X110253050Y-99656050D01*
X110253050Y-99656050D02*
X110157812Y-99703669D01*
X110157812Y-99703669D02*
X109872098Y-99703669D01*
X109872098Y-99703669D02*
X109776860Y-99656050D01*
X109776860Y-99656050D02*
X109729241Y-99608430D01*
X110634003Y-98703669D02*
X110967336Y-99703669D01*
X110967336Y-99703669D02*
X111300669Y-98703669D01*
D11*
X74824819Y-59943333D02*
X75539104Y-59943333D01*
X75539104Y-59943333D02*
X75681961Y-59990952D01*
X75681961Y-59990952D02*
X75777200Y-60086190D01*
X75777200Y-60086190D02*
X75824819Y-60229047D01*
X75824819Y-60229047D02*
X75824819Y-60324285D01*
X75824819Y-58943333D02*
X75824819Y-59514761D01*
X75824819Y-59229047D02*
X74824819Y-59229047D01*
X74824819Y-59229047D02*
X74967676Y-59324285D01*
X74967676Y-59324285D02*
X75062914Y-59419523D01*
X75062914Y-59419523D02*
X75110533Y-59514761D01*
X95002319Y-94991904D02*
X95811842Y-94991904D01*
X95811842Y-94991904D02*
X95907080Y-94944285D01*
X95907080Y-94944285D02*
X95954700Y-94896666D01*
X95954700Y-94896666D02*
X96002319Y-94801428D01*
X96002319Y-94801428D02*
X96002319Y-94610952D01*
X96002319Y-94610952D02*
X95954700Y-94515714D01*
X95954700Y-94515714D02*
X95907080Y-94468095D01*
X95907080Y-94468095D02*
X95811842Y-94420476D01*
X95811842Y-94420476D02*
X95002319Y-94420476D01*
X95335652Y-93515714D02*
X96002319Y-93515714D01*
X94954700Y-93753809D02*
X95668985Y-93991904D01*
X95668985Y-93991904D02*
X95668985Y-93372857D01*
X93304819Y-67198094D02*
X92304819Y-67198094D01*
X92304819Y-67198094D02*
X92304819Y-66959999D01*
X92304819Y-66959999D02*
X92352438Y-66817142D01*
X92352438Y-66817142D02*
X92447676Y-66721904D01*
X92447676Y-66721904D02*
X92542914Y-66674285D01*
X92542914Y-66674285D02*
X92733390Y-66626666D01*
X92733390Y-66626666D02*
X92876247Y-66626666D01*
X92876247Y-66626666D02*
X93066723Y-66674285D01*
X93066723Y-66674285D02*
X93161961Y-66721904D01*
X93161961Y-66721904D02*
X93257200Y-66817142D01*
X93257200Y-66817142D02*
X93304819Y-66959999D01*
X93304819Y-66959999D02*
X93304819Y-67198094D01*
X92304819Y-65721904D02*
X92304819Y-66198094D01*
X92304819Y-66198094D02*
X92781009Y-66245713D01*
X92781009Y-66245713D02*
X92733390Y-66198094D01*
X92733390Y-66198094D02*
X92685771Y-66102856D01*
X92685771Y-66102856D02*
X92685771Y-65864761D01*
X92685771Y-65864761D02*
X92733390Y-65769523D01*
X92733390Y-65769523D02*
X92781009Y-65721904D01*
X92781009Y-65721904D02*
X92876247Y-65674285D01*
X92876247Y-65674285D02*
X93114342Y-65674285D01*
X93114342Y-65674285D02*
X93209580Y-65721904D01*
X93209580Y-65721904D02*
X93257200Y-65769523D01*
X93257200Y-65769523D02*
X93304819Y-65864761D01*
X93304819Y-65864761D02*
X93304819Y-66102856D01*
X93304819Y-66102856D02*
X93257200Y-66198094D01*
X93257200Y-66198094D02*
X93209580Y-66245713D01*
X91549580Y-93096666D02*
X91597200Y-93144285D01*
X91597200Y-93144285D02*
X91644819Y-93287142D01*
X91644819Y-93287142D02*
X91644819Y-93382380D01*
X91644819Y-93382380D02*
X91597200Y-93525237D01*
X91597200Y-93525237D02*
X91501961Y-93620475D01*
X91501961Y-93620475D02*
X91406723Y-93668094D01*
X91406723Y-93668094D02*
X91216247Y-93715713D01*
X91216247Y-93715713D02*
X91073390Y-93715713D01*
X91073390Y-93715713D02*
X90882914Y-93668094D01*
X90882914Y-93668094D02*
X90787676Y-93620475D01*
X90787676Y-93620475D02*
X90692438Y-93525237D01*
X90692438Y-93525237D02*
X90644819Y-93382380D01*
X90644819Y-93382380D02*
X90644819Y-93287142D01*
X90644819Y-93287142D02*
X90692438Y-93144285D01*
X90692438Y-93144285D02*
X90740057Y-93096666D01*
X90740057Y-92715713D02*
X90692438Y-92668094D01*
X90692438Y-92668094D02*
X90644819Y-92572856D01*
X90644819Y-92572856D02*
X90644819Y-92334761D01*
X90644819Y-92334761D02*
X90692438Y-92239523D01*
X90692438Y-92239523D02*
X90740057Y-92191904D01*
X90740057Y-92191904D02*
X90835295Y-92144285D01*
X90835295Y-92144285D02*
X90930533Y-92144285D01*
X90930533Y-92144285D02*
X91073390Y-92191904D01*
X91073390Y-92191904D02*
X91644819Y-92763332D01*
X91644819Y-92763332D02*
X91644819Y-92144285D01*
X85703333Y-77304819D02*
X85370000Y-76828628D01*
X85131905Y-77304819D02*
X85131905Y-76304819D01*
X85131905Y-76304819D02*
X85512857Y-76304819D01*
X85512857Y-76304819D02*
X85608095Y-76352438D01*
X85608095Y-76352438D02*
X85655714Y-76400057D01*
X85655714Y-76400057D02*
X85703333Y-76495295D01*
X85703333Y-76495295D02*
X85703333Y-76638152D01*
X85703333Y-76638152D02*
X85655714Y-76733390D01*
X85655714Y-76733390D02*
X85608095Y-76781009D01*
X85608095Y-76781009D02*
X85512857Y-76828628D01*
X85512857Y-76828628D02*
X85131905Y-76828628D01*
X86560476Y-76638152D02*
X86560476Y-77304819D01*
X86322381Y-76257200D02*
X86084286Y-76971485D01*
X86084286Y-76971485D02*
X86703333Y-76971485D01*
X95294819Y-75154285D02*
X94294819Y-75154285D01*
X94294819Y-75154285D02*
X94294819Y-74916190D01*
X94294819Y-74916190D02*
X94342438Y-74773333D01*
X94342438Y-74773333D02*
X94437676Y-74678095D01*
X94437676Y-74678095D02*
X94532914Y-74630476D01*
X94532914Y-74630476D02*
X94723390Y-74582857D01*
X94723390Y-74582857D02*
X94866247Y-74582857D01*
X94866247Y-74582857D02*
X95056723Y-74630476D01*
X95056723Y-74630476D02*
X95151961Y-74678095D01*
X95151961Y-74678095D02*
X95247200Y-74773333D01*
X95247200Y-74773333D02*
X95294819Y-74916190D01*
X95294819Y-74916190D02*
X95294819Y-75154285D01*
X95294819Y-73630476D02*
X95294819Y-74201904D01*
X95294819Y-73916190D02*
X94294819Y-73916190D01*
X94294819Y-73916190D02*
X94437676Y-74011428D01*
X94437676Y-74011428D02*
X94532914Y-74106666D01*
X94532914Y-74106666D02*
X94580533Y-74201904D01*
X95294819Y-72678095D02*
X95294819Y-73249523D01*
X95294819Y-72963809D02*
X94294819Y-72963809D01*
X94294819Y-72963809D02*
X94437676Y-73059047D01*
X94437676Y-73059047D02*
X94532914Y-73154285D01*
X94532914Y-73154285D02*
X94580533Y-73249523D01*
X123334819Y-85742857D02*
X122858628Y-86076190D01*
X123334819Y-86314285D02*
X122334819Y-86314285D01*
X122334819Y-86314285D02*
X122334819Y-85933333D01*
X122334819Y-85933333D02*
X122382438Y-85838095D01*
X122382438Y-85838095D02*
X122430057Y-85790476D01*
X122430057Y-85790476D02*
X122525295Y-85742857D01*
X122525295Y-85742857D02*
X122668152Y-85742857D01*
X122668152Y-85742857D02*
X122763390Y-85790476D01*
X122763390Y-85790476D02*
X122811009Y-85838095D01*
X122811009Y-85838095D02*
X122858628Y-85933333D01*
X122858628Y-85933333D02*
X122858628Y-86314285D01*
X123334819Y-84790476D02*
X123334819Y-85361904D01*
X123334819Y-85076190D02*
X122334819Y-85076190D01*
X122334819Y-85076190D02*
X122477676Y-85171428D01*
X122477676Y-85171428D02*
X122572914Y-85266666D01*
X122572914Y-85266666D02*
X122620533Y-85361904D01*
X122334819Y-84457142D02*
X122334819Y-83838095D01*
X122334819Y-83838095D02*
X122715771Y-84171428D01*
X122715771Y-84171428D02*
X122715771Y-84028571D01*
X122715771Y-84028571D02*
X122763390Y-83933333D01*
X122763390Y-83933333D02*
X122811009Y-83885714D01*
X122811009Y-83885714D02*
X122906247Y-83838095D01*
X122906247Y-83838095D02*
X123144342Y-83838095D01*
X123144342Y-83838095D02*
X123239580Y-83885714D01*
X123239580Y-83885714D02*
X123287200Y-83933333D01*
X123287200Y-83933333D02*
X123334819Y-84028571D01*
X123334819Y-84028571D02*
X123334819Y-84314285D01*
X123334819Y-84314285D02*
X123287200Y-84409523D01*
X123287200Y-84409523D02*
X123239580Y-84457142D01*
X108161905Y-43694819D02*
X108161905Y-42694819D01*
X108733333Y-43694819D02*
X108304762Y-43123390D01*
X108733333Y-42694819D02*
X108161905Y-43266247D01*
X109590476Y-42694819D02*
X109400000Y-42694819D01*
X109400000Y-42694819D02*
X109304762Y-42742438D01*
X109304762Y-42742438D02*
X109257143Y-42790057D01*
X109257143Y-42790057D02*
X109161905Y-42932914D01*
X109161905Y-42932914D02*
X109114286Y-43123390D01*
X109114286Y-43123390D02*
X109114286Y-43504342D01*
X109114286Y-43504342D02*
X109161905Y-43599580D01*
X109161905Y-43599580D02*
X109209524Y-43647200D01*
X109209524Y-43647200D02*
X109304762Y-43694819D01*
X109304762Y-43694819D02*
X109495238Y-43694819D01*
X109495238Y-43694819D02*
X109590476Y-43647200D01*
X109590476Y-43647200D02*
X109638095Y-43599580D01*
X109638095Y-43599580D02*
X109685714Y-43504342D01*
X109685714Y-43504342D02*
X109685714Y-43266247D01*
X109685714Y-43266247D02*
X109638095Y-43171009D01*
X109638095Y-43171009D02*
X109590476Y-43123390D01*
X109590476Y-43123390D02*
X109495238Y-43075771D01*
X109495238Y-43075771D02*
X109304762Y-43075771D01*
X109304762Y-43075771D02*
X109209524Y-43123390D01*
X109209524Y-43123390D02*
X109161905Y-43171009D01*
X109161905Y-43171009D02*
X109114286Y-43266247D01*
X127914819Y-85742857D02*
X127438628Y-86076190D01*
X127914819Y-86314285D02*
X126914819Y-86314285D01*
X126914819Y-86314285D02*
X126914819Y-85933333D01*
X126914819Y-85933333D02*
X126962438Y-85838095D01*
X126962438Y-85838095D02*
X127010057Y-85790476D01*
X127010057Y-85790476D02*
X127105295Y-85742857D01*
X127105295Y-85742857D02*
X127248152Y-85742857D01*
X127248152Y-85742857D02*
X127343390Y-85790476D01*
X127343390Y-85790476D02*
X127391009Y-85838095D01*
X127391009Y-85838095D02*
X127438628Y-85933333D01*
X127438628Y-85933333D02*
X127438628Y-86314285D01*
X127914819Y-84790476D02*
X127914819Y-85361904D01*
X127914819Y-85076190D02*
X126914819Y-85076190D01*
X126914819Y-85076190D02*
X127057676Y-85171428D01*
X127057676Y-85171428D02*
X127152914Y-85266666D01*
X127152914Y-85266666D02*
X127200533Y-85361904D01*
X126914819Y-83933333D02*
X126914819Y-84123809D01*
X126914819Y-84123809D02*
X126962438Y-84219047D01*
X126962438Y-84219047D02*
X127010057Y-84266666D01*
X127010057Y-84266666D02*
X127152914Y-84361904D01*
X127152914Y-84361904D02*
X127343390Y-84409523D01*
X127343390Y-84409523D02*
X127724342Y-84409523D01*
X127724342Y-84409523D02*
X127819580Y-84361904D01*
X127819580Y-84361904D02*
X127867200Y-84314285D01*
X127867200Y-84314285D02*
X127914819Y-84219047D01*
X127914819Y-84219047D02*
X127914819Y-84028571D01*
X127914819Y-84028571D02*
X127867200Y-83933333D01*
X127867200Y-83933333D02*
X127819580Y-83885714D01*
X127819580Y-83885714D02*
X127724342Y-83838095D01*
X127724342Y-83838095D02*
X127486247Y-83838095D01*
X127486247Y-83838095D02*
X127391009Y-83885714D01*
X127391009Y-83885714D02*
X127343390Y-83933333D01*
X127343390Y-83933333D02*
X127295771Y-84028571D01*
X127295771Y-84028571D02*
X127295771Y-84219047D01*
X127295771Y-84219047D02*
X127343390Y-84314285D01*
X127343390Y-84314285D02*
X127391009Y-84361904D01*
X127391009Y-84361904D02*
X127486247Y-84409523D01*
X128174819Y-50946666D02*
X127698628Y-51279999D01*
X128174819Y-51518094D02*
X127174819Y-51518094D01*
X127174819Y-51518094D02*
X127174819Y-51137142D01*
X127174819Y-51137142D02*
X127222438Y-51041904D01*
X127222438Y-51041904D02*
X127270057Y-50994285D01*
X127270057Y-50994285D02*
X127365295Y-50946666D01*
X127365295Y-50946666D02*
X127508152Y-50946666D01*
X127508152Y-50946666D02*
X127603390Y-50994285D01*
X127603390Y-50994285D02*
X127651009Y-51041904D01*
X127651009Y-51041904D02*
X127698628Y-51137142D01*
X127698628Y-51137142D02*
X127698628Y-51518094D01*
X127603390Y-50375237D02*
X127555771Y-50470475D01*
X127555771Y-50470475D02*
X127508152Y-50518094D01*
X127508152Y-50518094D02*
X127412914Y-50565713D01*
X127412914Y-50565713D02*
X127365295Y-50565713D01*
X127365295Y-50565713D02*
X127270057Y-50518094D01*
X127270057Y-50518094D02*
X127222438Y-50470475D01*
X127222438Y-50470475D02*
X127174819Y-50375237D01*
X127174819Y-50375237D02*
X127174819Y-50184761D01*
X127174819Y-50184761D02*
X127222438Y-50089523D01*
X127222438Y-50089523D02*
X127270057Y-50041904D01*
X127270057Y-50041904D02*
X127365295Y-49994285D01*
X127365295Y-49994285D02*
X127412914Y-49994285D01*
X127412914Y-49994285D02*
X127508152Y-50041904D01*
X127508152Y-50041904D02*
X127555771Y-50089523D01*
X127555771Y-50089523D02*
X127603390Y-50184761D01*
X127603390Y-50184761D02*
X127603390Y-50375237D01*
X127603390Y-50375237D02*
X127651009Y-50470475D01*
X127651009Y-50470475D02*
X127698628Y-50518094D01*
X127698628Y-50518094D02*
X127793866Y-50565713D01*
X127793866Y-50565713D02*
X127984342Y-50565713D01*
X127984342Y-50565713D02*
X128079580Y-50518094D01*
X128079580Y-50518094D02*
X128127200Y-50470475D01*
X128127200Y-50470475D02*
X128174819Y-50375237D01*
X128174819Y-50375237D02*
X128174819Y-50184761D01*
X128174819Y-50184761D02*
X128127200Y-50089523D01*
X128127200Y-50089523D02*
X128079580Y-50041904D01*
X128079580Y-50041904D02*
X127984342Y-49994285D01*
X127984342Y-49994285D02*
X127793866Y-49994285D01*
X127793866Y-49994285D02*
X127698628Y-50041904D01*
X127698628Y-50041904D02*
X127651009Y-50089523D01*
X127651009Y-50089523D02*
X127603390Y-50184761D01*
X88134819Y-48032857D02*
X87658628Y-48366190D01*
X88134819Y-48604285D02*
X87134819Y-48604285D01*
X87134819Y-48604285D02*
X87134819Y-48223333D01*
X87134819Y-48223333D02*
X87182438Y-48128095D01*
X87182438Y-48128095D02*
X87230057Y-48080476D01*
X87230057Y-48080476D02*
X87325295Y-48032857D01*
X87325295Y-48032857D02*
X87468152Y-48032857D01*
X87468152Y-48032857D02*
X87563390Y-48080476D01*
X87563390Y-48080476D02*
X87611009Y-48128095D01*
X87611009Y-48128095D02*
X87658628Y-48223333D01*
X87658628Y-48223333D02*
X87658628Y-48604285D01*
X87230057Y-47651904D02*
X87182438Y-47604285D01*
X87182438Y-47604285D02*
X87134819Y-47509047D01*
X87134819Y-47509047D02*
X87134819Y-47270952D01*
X87134819Y-47270952D02*
X87182438Y-47175714D01*
X87182438Y-47175714D02*
X87230057Y-47128095D01*
X87230057Y-47128095D02*
X87325295Y-47080476D01*
X87325295Y-47080476D02*
X87420533Y-47080476D01*
X87420533Y-47080476D02*
X87563390Y-47128095D01*
X87563390Y-47128095D02*
X88134819Y-47699523D01*
X88134819Y-47699523D02*
X88134819Y-47080476D01*
X87134819Y-46223333D02*
X87134819Y-46413809D01*
X87134819Y-46413809D02*
X87182438Y-46509047D01*
X87182438Y-46509047D02*
X87230057Y-46556666D01*
X87230057Y-46556666D02*
X87372914Y-46651904D01*
X87372914Y-46651904D02*
X87563390Y-46699523D01*
X87563390Y-46699523D02*
X87944342Y-46699523D01*
X87944342Y-46699523D02*
X88039580Y-46651904D01*
X88039580Y-46651904D02*
X88087200Y-46604285D01*
X88087200Y-46604285D02*
X88134819Y-46509047D01*
X88134819Y-46509047D02*
X88134819Y-46318571D01*
X88134819Y-46318571D02*
X88087200Y-46223333D01*
X88087200Y-46223333D02*
X88039580Y-46175714D01*
X88039580Y-46175714D02*
X87944342Y-46128095D01*
X87944342Y-46128095D02*
X87706247Y-46128095D01*
X87706247Y-46128095D02*
X87611009Y-46175714D01*
X87611009Y-46175714D02*
X87563390Y-46223333D01*
X87563390Y-46223333D02*
X87515771Y-46318571D01*
X87515771Y-46318571D02*
X87515771Y-46509047D01*
X87515771Y-46509047D02*
X87563390Y-46604285D01*
X87563390Y-46604285D02*
X87611009Y-46651904D01*
X87611009Y-46651904D02*
X87706247Y-46699523D01*
X108061905Y-66844819D02*
X108061905Y-65844819D01*
X108633333Y-66844819D02*
X108204762Y-66273390D01*
X108633333Y-65844819D02*
X108061905Y-66416247D01*
X109490476Y-66178152D02*
X109490476Y-66844819D01*
X109252381Y-65797200D02*
X109014286Y-66511485D01*
X109014286Y-66511485D02*
X109633333Y-66511485D01*
X124933333Y-77494819D02*
X124600000Y-77018628D01*
X124361905Y-77494819D02*
X124361905Y-76494819D01*
X124361905Y-76494819D02*
X124742857Y-76494819D01*
X124742857Y-76494819D02*
X124838095Y-76542438D01*
X124838095Y-76542438D02*
X124885714Y-76590057D01*
X124885714Y-76590057D02*
X124933333Y-76685295D01*
X124933333Y-76685295D02*
X124933333Y-76828152D01*
X124933333Y-76828152D02*
X124885714Y-76923390D01*
X124885714Y-76923390D02*
X124838095Y-76971009D01*
X124838095Y-76971009D02*
X124742857Y-77018628D01*
X124742857Y-77018628D02*
X124361905Y-77018628D01*
X125266667Y-76494819D02*
X125933333Y-76494819D01*
X125933333Y-76494819D02*
X125504762Y-77494819D01*
X86780057Y-42595238D02*
X86732438Y-42690476D01*
X86732438Y-42690476D02*
X86637200Y-42785714D01*
X86637200Y-42785714D02*
X86494342Y-42928571D01*
X86494342Y-42928571D02*
X86446723Y-43023809D01*
X86446723Y-43023809D02*
X86446723Y-43119047D01*
X86684819Y-43071428D02*
X86637200Y-43166666D01*
X86637200Y-43166666D02*
X86541961Y-43261904D01*
X86541961Y-43261904D02*
X86351485Y-43309523D01*
X86351485Y-43309523D02*
X86018152Y-43309523D01*
X86018152Y-43309523D02*
X85827676Y-43261904D01*
X85827676Y-43261904D02*
X85732438Y-43166666D01*
X85732438Y-43166666D02*
X85684819Y-43071428D01*
X85684819Y-43071428D02*
X85684819Y-42880952D01*
X85684819Y-42880952D02*
X85732438Y-42785714D01*
X85732438Y-42785714D02*
X85827676Y-42690476D01*
X85827676Y-42690476D02*
X86018152Y-42642857D01*
X86018152Y-42642857D02*
X86351485Y-42642857D01*
X86351485Y-42642857D02*
X86541961Y-42690476D01*
X86541961Y-42690476D02*
X86637200Y-42785714D01*
X86637200Y-42785714D02*
X86684819Y-42880952D01*
X86684819Y-42880952D02*
X86684819Y-43071428D01*
X86018152Y-41785714D02*
X86684819Y-41785714D01*
X85637200Y-42023809D02*
X86351485Y-42261904D01*
X86351485Y-42261904D02*
X86351485Y-41642857D01*
X124953333Y-79034819D02*
X124620000Y-78558628D01*
X124381905Y-79034819D02*
X124381905Y-78034819D01*
X124381905Y-78034819D02*
X124762857Y-78034819D01*
X124762857Y-78034819D02*
X124858095Y-78082438D01*
X124858095Y-78082438D02*
X124905714Y-78130057D01*
X124905714Y-78130057D02*
X124953333Y-78225295D01*
X124953333Y-78225295D02*
X124953333Y-78368152D01*
X124953333Y-78368152D02*
X124905714Y-78463390D01*
X124905714Y-78463390D02*
X124858095Y-78511009D01*
X124858095Y-78511009D02*
X124762857Y-78558628D01*
X124762857Y-78558628D02*
X124381905Y-78558628D01*
X125429524Y-79034819D02*
X125620000Y-79034819D01*
X125620000Y-79034819D02*
X125715238Y-78987200D01*
X125715238Y-78987200D02*
X125762857Y-78939580D01*
X125762857Y-78939580D02*
X125858095Y-78796723D01*
X125858095Y-78796723D02*
X125905714Y-78606247D01*
X125905714Y-78606247D02*
X125905714Y-78225295D01*
X125905714Y-78225295D02*
X125858095Y-78130057D01*
X125858095Y-78130057D02*
X125810476Y-78082438D01*
X125810476Y-78082438D02*
X125715238Y-78034819D01*
X125715238Y-78034819D02*
X125524762Y-78034819D01*
X125524762Y-78034819D02*
X125429524Y-78082438D01*
X125429524Y-78082438D02*
X125381905Y-78130057D01*
X125381905Y-78130057D02*
X125334286Y-78225295D01*
X125334286Y-78225295D02*
X125334286Y-78463390D01*
X125334286Y-78463390D02*
X125381905Y-78558628D01*
X125381905Y-78558628D02*
X125429524Y-78606247D01*
X125429524Y-78606247D02*
X125524762Y-78653866D01*
X125524762Y-78653866D02*
X125715238Y-78653866D01*
X125715238Y-78653866D02*
X125810476Y-78606247D01*
X125810476Y-78606247D02*
X125858095Y-78558628D01*
X125858095Y-78558628D02*
X125905714Y-78463390D01*
X91424819Y-90693333D02*
X92139104Y-90693333D01*
X92139104Y-90693333D02*
X92281961Y-90740952D01*
X92281961Y-90740952D02*
X92377200Y-90836190D01*
X92377200Y-90836190D02*
X92424819Y-90979047D01*
X92424819Y-90979047D02*
X92424819Y-91074285D01*
X91520057Y-90264761D02*
X91472438Y-90217142D01*
X91472438Y-90217142D02*
X91424819Y-90121904D01*
X91424819Y-90121904D02*
X91424819Y-89883809D01*
X91424819Y-89883809D02*
X91472438Y-89788571D01*
X91472438Y-89788571D02*
X91520057Y-89740952D01*
X91520057Y-89740952D02*
X91615295Y-89693333D01*
X91615295Y-89693333D02*
X91710533Y-89693333D01*
X91710533Y-89693333D02*
X91853390Y-89740952D01*
X91853390Y-89740952D02*
X92424819Y-90312380D01*
X92424819Y-90312380D02*
X92424819Y-89693333D01*
X103645714Y-98184819D02*
X103645714Y-97184819D01*
X103645714Y-97184819D02*
X103883809Y-97184819D01*
X103883809Y-97184819D02*
X104026666Y-97232438D01*
X104026666Y-97232438D02*
X104121904Y-97327676D01*
X104121904Y-97327676D02*
X104169523Y-97422914D01*
X104169523Y-97422914D02*
X104217142Y-97613390D01*
X104217142Y-97613390D02*
X104217142Y-97756247D01*
X104217142Y-97756247D02*
X104169523Y-97946723D01*
X104169523Y-97946723D02*
X104121904Y-98041961D01*
X104121904Y-98041961D02*
X104026666Y-98137200D01*
X104026666Y-98137200D02*
X103883809Y-98184819D01*
X103883809Y-98184819D02*
X103645714Y-98184819D01*
X105169523Y-98184819D02*
X104598095Y-98184819D01*
X104883809Y-98184819D02*
X104883809Y-97184819D01*
X104883809Y-97184819D02*
X104788571Y-97327676D01*
X104788571Y-97327676D02*
X104693333Y-97422914D01*
X104693333Y-97422914D02*
X104598095Y-97470533D01*
X105502857Y-97184819D02*
X106169523Y-97184819D01*
X106169523Y-97184819D02*
X105740952Y-98184819D01*
X124674819Y-53136666D02*
X124198628Y-53469999D01*
X124674819Y-53708094D02*
X123674819Y-53708094D01*
X123674819Y-53708094D02*
X123674819Y-53327142D01*
X123674819Y-53327142D02*
X123722438Y-53231904D01*
X123722438Y-53231904D02*
X123770057Y-53184285D01*
X123770057Y-53184285D02*
X123865295Y-53136666D01*
X123865295Y-53136666D02*
X124008152Y-53136666D01*
X124008152Y-53136666D02*
X124103390Y-53184285D01*
X124103390Y-53184285D02*
X124151009Y-53231904D01*
X124151009Y-53231904D02*
X124198628Y-53327142D01*
X124198628Y-53327142D02*
X124198628Y-53708094D01*
X123674819Y-52231904D02*
X123674819Y-52708094D01*
X123674819Y-52708094D02*
X124151009Y-52755713D01*
X124151009Y-52755713D02*
X124103390Y-52708094D01*
X124103390Y-52708094D02*
X124055771Y-52612856D01*
X124055771Y-52612856D02*
X124055771Y-52374761D01*
X124055771Y-52374761D02*
X124103390Y-52279523D01*
X124103390Y-52279523D02*
X124151009Y-52231904D01*
X124151009Y-52231904D02*
X124246247Y-52184285D01*
X124246247Y-52184285D02*
X124484342Y-52184285D01*
X124484342Y-52184285D02*
X124579580Y-52231904D01*
X124579580Y-52231904D02*
X124627200Y-52279523D01*
X124627200Y-52279523D02*
X124674819Y-52374761D01*
X124674819Y-52374761D02*
X124674819Y-52612856D01*
X124674819Y-52612856D02*
X124627200Y-52708094D01*
X124627200Y-52708094D02*
X124579580Y-52755713D01*
X125611905Y-54884819D02*
X125611905Y-53884819D01*
X125611905Y-53884819D02*
X125850000Y-53884819D01*
X125850000Y-53884819D02*
X125992857Y-53932438D01*
X125992857Y-53932438D02*
X126088095Y-54027676D01*
X126088095Y-54027676D02*
X126135714Y-54122914D01*
X126135714Y-54122914D02*
X126183333Y-54313390D01*
X126183333Y-54313390D02*
X126183333Y-54456247D01*
X126183333Y-54456247D02*
X126135714Y-54646723D01*
X126135714Y-54646723D02*
X126088095Y-54741961D01*
X126088095Y-54741961D02*
X125992857Y-54837200D01*
X125992857Y-54837200D02*
X125850000Y-54884819D01*
X125850000Y-54884819D02*
X125611905Y-54884819D01*
X126754762Y-54313390D02*
X126659524Y-54265771D01*
X126659524Y-54265771D02*
X126611905Y-54218152D01*
X126611905Y-54218152D02*
X126564286Y-54122914D01*
X126564286Y-54122914D02*
X126564286Y-54075295D01*
X126564286Y-54075295D02*
X126611905Y-53980057D01*
X126611905Y-53980057D02*
X126659524Y-53932438D01*
X126659524Y-53932438D02*
X126754762Y-53884819D01*
X126754762Y-53884819D02*
X126945238Y-53884819D01*
X126945238Y-53884819D02*
X127040476Y-53932438D01*
X127040476Y-53932438D02*
X127088095Y-53980057D01*
X127088095Y-53980057D02*
X127135714Y-54075295D01*
X127135714Y-54075295D02*
X127135714Y-54122914D01*
X127135714Y-54122914D02*
X127088095Y-54218152D01*
X127088095Y-54218152D02*
X127040476Y-54265771D01*
X127040476Y-54265771D02*
X126945238Y-54313390D01*
X126945238Y-54313390D02*
X126754762Y-54313390D01*
X126754762Y-54313390D02*
X126659524Y-54361009D01*
X126659524Y-54361009D02*
X126611905Y-54408628D01*
X126611905Y-54408628D02*
X126564286Y-54503866D01*
X126564286Y-54503866D02*
X126564286Y-54694342D01*
X126564286Y-54694342D02*
X126611905Y-54789580D01*
X126611905Y-54789580D02*
X126659524Y-54837200D01*
X126659524Y-54837200D02*
X126754762Y-54884819D01*
X126754762Y-54884819D02*
X126945238Y-54884819D01*
X126945238Y-54884819D02*
X127040476Y-54837200D01*
X127040476Y-54837200D02*
X127088095Y-54789580D01*
X127088095Y-54789580D02*
X127135714Y-54694342D01*
X127135714Y-54694342D02*
X127135714Y-54503866D01*
X127135714Y-54503866D02*
X127088095Y-54408628D01*
X127088095Y-54408628D02*
X127040476Y-54361009D01*
X127040476Y-54361009D02*
X126945238Y-54313390D01*
X93524819Y-52198094D02*
X92524819Y-52198094D01*
X92524819Y-52198094D02*
X92524819Y-51959999D01*
X92524819Y-51959999D02*
X92572438Y-51817142D01*
X92572438Y-51817142D02*
X92667676Y-51721904D01*
X92667676Y-51721904D02*
X92762914Y-51674285D01*
X92762914Y-51674285D02*
X92953390Y-51626666D01*
X92953390Y-51626666D02*
X93096247Y-51626666D01*
X93096247Y-51626666D02*
X93286723Y-51674285D01*
X93286723Y-51674285D02*
X93381961Y-51721904D01*
X93381961Y-51721904D02*
X93477200Y-51817142D01*
X93477200Y-51817142D02*
X93524819Y-51959999D01*
X93524819Y-51959999D02*
X93524819Y-52198094D01*
X92858152Y-50769523D02*
X93524819Y-50769523D01*
X92477200Y-51007618D02*
X93191485Y-51245713D01*
X93191485Y-51245713D02*
X93191485Y-50626666D01*
X105244761Y-94930057D02*
X105149523Y-94882438D01*
X105149523Y-94882438D02*
X105054285Y-94787200D01*
X105054285Y-94787200D02*
X104911428Y-94644342D01*
X104911428Y-94644342D02*
X104816190Y-94596723D01*
X104816190Y-94596723D02*
X104720952Y-94596723D01*
X104768571Y-94834819D02*
X104673333Y-94787200D01*
X104673333Y-94787200D02*
X104578095Y-94691961D01*
X104578095Y-94691961D02*
X104530476Y-94501485D01*
X104530476Y-94501485D02*
X104530476Y-94168152D01*
X104530476Y-94168152D02*
X104578095Y-93977676D01*
X104578095Y-93977676D02*
X104673333Y-93882438D01*
X104673333Y-93882438D02*
X104768571Y-93834819D01*
X104768571Y-93834819D02*
X104959047Y-93834819D01*
X104959047Y-93834819D02*
X105054285Y-93882438D01*
X105054285Y-93882438D02*
X105149523Y-93977676D01*
X105149523Y-93977676D02*
X105197142Y-94168152D01*
X105197142Y-94168152D02*
X105197142Y-94501485D01*
X105197142Y-94501485D02*
X105149523Y-94691961D01*
X105149523Y-94691961D02*
X105054285Y-94787200D01*
X105054285Y-94787200D02*
X104959047Y-94834819D01*
X104959047Y-94834819D02*
X104768571Y-94834819D01*
X106054285Y-93834819D02*
X105863809Y-93834819D01*
X105863809Y-93834819D02*
X105768571Y-93882438D01*
X105768571Y-93882438D02*
X105720952Y-93930057D01*
X105720952Y-93930057D02*
X105625714Y-94072914D01*
X105625714Y-94072914D02*
X105578095Y-94263390D01*
X105578095Y-94263390D02*
X105578095Y-94644342D01*
X105578095Y-94644342D02*
X105625714Y-94739580D01*
X105625714Y-94739580D02*
X105673333Y-94787200D01*
X105673333Y-94787200D02*
X105768571Y-94834819D01*
X105768571Y-94834819D02*
X105959047Y-94834819D01*
X105959047Y-94834819D02*
X106054285Y-94787200D01*
X106054285Y-94787200D02*
X106101904Y-94739580D01*
X106101904Y-94739580D02*
X106149523Y-94644342D01*
X106149523Y-94644342D02*
X106149523Y-94406247D01*
X106149523Y-94406247D02*
X106101904Y-94311009D01*
X106101904Y-94311009D02*
X106054285Y-94263390D01*
X106054285Y-94263390D02*
X105959047Y-94215771D01*
X105959047Y-94215771D02*
X105768571Y-94215771D01*
X105768571Y-94215771D02*
X105673333Y-94263390D01*
X105673333Y-94263390D02*
X105625714Y-94311009D01*
X105625714Y-94311009D02*
X105578095Y-94406247D01*
X86747142Y-72964819D02*
X86413809Y-72488628D01*
X86175714Y-72964819D02*
X86175714Y-71964819D01*
X86175714Y-71964819D02*
X86556666Y-71964819D01*
X86556666Y-71964819D02*
X86651904Y-72012438D01*
X86651904Y-72012438D02*
X86699523Y-72060057D01*
X86699523Y-72060057D02*
X86747142Y-72155295D01*
X86747142Y-72155295D02*
X86747142Y-72298152D01*
X86747142Y-72298152D02*
X86699523Y-72393390D01*
X86699523Y-72393390D02*
X86651904Y-72441009D01*
X86651904Y-72441009D02*
X86556666Y-72488628D01*
X86556666Y-72488628D02*
X86175714Y-72488628D01*
X87699523Y-72964819D02*
X87128095Y-72964819D01*
X87413809Y-72964819D02*
X87413809Y-71964819D01*
X87413809Y-71964819D02*
X87318571Y-72107676D01*
X87318571Y-72107676D02*
X87223333Y-72202914D01*
X87223333Y-72202914D02*
X87128095Y-72250533D01*
X88556666Y-72298152D02*
X88556666Y-72964819D01*
X88318571Y-71917200D02*
X88080476Y-72631485D01*
X88080476Y-72631485D02*
X88699523Y-72631485D01*
X123674819Y-58717857D02*
X123198628Y-59051190D01*
X123674819Y-59289285D02*
X122674819Y-59289285D01*
X122674819Y-59289285D02*
X122674819Y-58908333D01*
X122674819Y-58908333D02*
X122722438Y-58813095D01*
X122722438Y-58813095D02*
X122770057Y-58765476D01*
X122770057Y-58765476D02*
X122865295Y-58717857D01*
X122865295Y-58717857D02*
X123008152Y-58717857D01*
X123008152Y-58717857D02*
X123103390Y-58765476D01*
X123103390Y-58765476D02*
X123151009Y-58813095D01*
X123151009Y-58813095D02*
X123198628Y-58908333D01*
X123198628Y-58908333D02*
X123198628Y-59289285D01*
X123674819Y-57765476D02*
X123674819Y-58336904D01*
X123674819Y-58051190D02*
X122674819Y-58051190D01*
X122674819Y-58051190D02*
X122817676Y-58146428D01*
X122817676Y-58146428D02*
X122912914Y-58241666D01*
X122912914Y-58241666D02*
X122960533Y-58336904D01*
X122674819Y-57432142D02*
X122674819Y-56765476D01*
X122674819Y-56765476D02*
X123674819Y-57194047D01*
X99957080Y-93006666D02*
X100004700Y-93054285D01*
X100004700Y-93054285D02*
X100052319Y-93197142D01*
X100052319Y-93197142D02*
X100052319Y-93292380D01*
X100052319Y-93292380D02*
X100004700Y-93435237D01*
X100004700Y-93435237D02*
X99909461Y-93530475D01*
X99909461Y-93530475D02*
X99814223Y-93578094D01*
X99814223Y-93578094D02*
X99623747Y-93625713D01*
X99623747Y-93625713D02*
X99480890Y-93625713D01*
X99480890Y-93625713D02*
X99290414Y-93578094D01*
X99290414Y-93578094D02*
X99195176Y-93530475D01*
X99195176Y-93530475D02*
X99099938Y-93435237D01*
X99099938Y-93435237D02*
X99052319Y-93292380D01*
X99052319Y-93292380D02*
X99052319Y-93197142D01*
X99052319Y-93197142D02*
X99099938Y-93054285D01*
X99099938Y-93054285D02*
X99147557Y-93006666D01*
X100052319Y-92054285D02*
X100052319Y-92625713D01*
X100052319Y-92339999D02*
X99052319Y-92339999D01*
X99052319Y-92339999D02*
X99195176Y-92435237D01*
X99195176Y-92435237D02*
X99290414Y-92530475D01*
X99290414Y-92530475D02*
X99338033Y-92625713D01*
X90051385Y-61284819D02*
X90051385Y-62094342D01*
X90051385Y-62094342D02*
X90099004Y-62189580D01*
X90099004Y-62189580D02*
X90146623Y-62237200D01*
X90146623Y-62237200D02*
X90241861Y-62284819D01*
X90241861Y-62284819D02*
X90432337Y-62284819D01*
X90432337Y-62284819D02*
X90527575Y-62237200D01*
X90527575Y-62237200D02*
X90575194Y-62189580D01*
X90575194Y-62189580D02*
X90622813Y-62094342D01*
X90622813Y-62094342D02*
X90622813Y-61284819D01*
X91051385Y-61380057D02*
X91099004Y-61332438D01*
X91099004Y-61332438D02*
X91194242Y-61284819D01*
X91194242Y-61284819D02*
X91432337Y-61284819D01*
X91432337Y-61284819D02*
X91527575Y-61332438D01*
X91527575Y-61332438D02*
X91575194Y-61380057D01*
X91575194Y-61380057D02*
X91622813Y-61475295D01*
X91622813Y-61475295D02*
X91622813Y-61570533D01*
X91622813Y-61570533D02*
X91575194Y-61713390D01*
X91575194Y-61713390D02*
X91003766Y-62284819D01*
X91003766Y-62284819D02*
X91622813Y-62284819D01*
X131424819Y-48264285D02*
X130424819Y-48264285D01*
X130424819Y-48264285D02*
X130424819Y-48026190D01*
X130424819Y-48026190D02*
X130472438Y-47883333D01*
X130472438Y-47883333D02*
X130567676Y-47788095D01*
X130567676Y-47788095D02*
X130662914Y-47740476D01*
X130662914Y-47740476D02*
X130853390Y-47692857D01*
X130853390Y-47692857D02*
X130996247Y-47692857D01*
X130996247Y-47692857D02*
X131186723Y-47740476D01*
X131186723Y-47740476D02*
X131281961Y-47788095D01*
X131281961Y-47788095D02*
X131377200Y-47883333D01*
X131377200Y-47883333D02*
X131424819Y-48026190D01*
X131424819Y-48026190D02*
X131424819Y-48264285D01*
X131424819Y-46740476D02*
X131424819Y-47311904D01*
X131424819Y-47026190D02*
X130424819Y-47026190D01*
X130424819Y-47026190D02*
X130567676Y-47121428D01*
X130567676Y-47121428D02*
X130662914Y-47216666D01*
X130662914Y-47216666D02*
X130710533Y-47311904D01*
X130424819Y-46407142D02*
X130424819Y-45788095D01*
X130424819Y-45788095D02*
X130805771Y-46121428D01*
X130805771Y-46121428D02*
X130805771Y-45978571D01*
X130805771Y-45978571D02*
X130853390Y-45883333D01*
X130853390Y-45883333D02*
X130901009Y-45835714D01*
X130901009Y-45835714D02*
X130996247Y-45788095D01*
X130996247Y-45788095D02*
X131234342Y-45788095D01*
X131234342Y-45788095D02*
X131329580Y-45835714D01*
X131329580Y-45835714D02*
X131377200Y-45883333D01*
X131377200Y-45883333D02*
X131424819Y-45978571D01*
X131424819Y-45978571D02*
X131424819Y-46264285D01*
X131424819Y-46264285D02*
X131377200Y-46359523D01*
X131377200Y-46359523D02*
X131329580Y-46407142D01*
X79431009Y-74053333D02*
X79431009Y-74386666D01*
X79954819Y-74386666D02*
X78954819Y-74386666D01*
X78954819Y-74386666D02*
X78954819Y-73910476D01*
X79954819Y-73005714D02*
X79954819Y-73577142D01*
X79954819Y-73291428D02*
X78954819Y-73291428D01*
X78954819Y-73291428D02*
X79097676Y-73386666D01*
X79097676Y-73386666D02*
X79192914Y-73481904D01*
X79192914Y-73481904D02*
X79240533Y-73577142D01*
X122894819Y-71772857D02*
X122418628Y-72106190D01*
X122894819Y-72344285D02*
X121894819Y-72344285D01*
X121894819Y-72344285D02*
X121894819Y-71963333D01*
X121894819Y-71963333D02*
X121942438Y-71868095D01*
X121942438Y-71868095D02*
X121990057Y-71820476D01*
X121990057Y-71820476D02*
X122085295Y-71772857D01*
X122085295Y-71772857D02*
X122228152Y-71772857D01*
X122228152Y-71772857D02*
X122323390Y-71820476D01*
X122323390Y-71820476D02*
X122371009Y-71868095D01*
X122371009Y-71868095D02*
X122418628Y-71963333D01*
X122418628Y-71963333D02*
X122418628Y-72344285D01*
X122894819Y-70820476D02*
X122894819Y-71391904D01*
X122894819Y-71106190D02*
X121894819Y-71106190D01*
X121894819Y-71106190D02*
X122037676Y-71201428D01*
X122037676Y-71201428D02*
X122132914Y-71296666D01*
X122132914Y-71296666D02*
X122180533Y-71391904D01*
X122894819Y-69868095D02*
X122894819Y-70439523D01*
X122894819Y-70153809D02*
X121894819Y-70153809D01*
X121894819Y-70153809D02*
X122037676Y-70249047D01*
X122037676Y-70249047D02*
X122132914Y-70344285D01*
X122132914Y-70344285D02*
X122180533Y-70439523D01*
X128154819Y-58727857D02*
X127678628Y-59061190D01*
X128154819Y-59299285D02*
X127154819Y-59299285D01*
X127154819Y-59299285D02*
X127154819Y-58918333D01*
X127154819Y-58918333D02*
X127202438Y-58823095D01*
X127202438Y-58823095D02*
X127250057Y-58775476D01*
X127250057Y-58775476D02*
X127345295Y-58727857D01*
X127345295Y-58727857D02*
X127488152Y-58727857D01*
X127488152Y-58727857D02*
X127583390Y-58775476D01*
X127583390Y-58775476D02*
X127631009Y-58823095D01*
X127631009Y-58823095D02*
X127678628Y-58918333D01*
X127678628Y-58918333D02*
X127678628Y-59299285D01*
X128154819Y-57775476D02*
X128154819Y-58346904D01*
X128154819Y-58061190D02*
X127154819Y-58061190D01*
X127154819Y-58061190D02*
X127297676Y-58156428D01*
X127297676Y-58156428D02*
X127392914Y-58251666D01*
X127392914Y-58251666D02*
X127440533Y-58346904D01*
X127583390Y-57204047D02*
X127535771Y-57299285D01*
X127535771Y-57299285D02*
X127488152Y-57346904D01*
X127488152Y-57346904D02*
X127392914Y-57394523D01*
X127392914Y-57394523D02*
X127345295Y-57394523D01*
X127345295Y-57394523D02*
X127250057Y-57346904D01*
X127250057Y-57346904D02*
X127202438Y-57299285D01*
X127202438Y-57299285D02*
X127154819Y-57204047D01*
X127154819Y-57204047D02*
X127154819Y-57013571D01*
X127154819Y-57013571D02*
X127202438Y-56918333D01*
X127202438Y-56918333D02*
X127250057Y-56870714D01*
X127250057Y-56870714D02*
X127345295Y-56823095D01*
X127345295Y-56823095D02*
X127392914Y-56823095D01*
X127392914Y-56823095D02*
X127488152Y-56870714D01*
X127488152Y-56870714D02*
X127535771Y-56918333D01*
X127535771Y-56918333D02*
X127583390Y-57013571D01*
X127583390Y-57013571D02*
X127583390Y-57204047D01*
X127583390Y-57204047D02*
X127631009Y-57299285D01*
X127631009Y-57299285D02*
X127678628Y-57346904D01*
X127678628Y-57346904D02*
X127773866Y-57394523D01*
X127773866Y-57394523D02*
X127964342Y-57394523D01*
X127964342Y-57394523D02*
X128059580Y-57346904D01*
X128059580Y-57346904D02*
X128107200Y-57299285D01*
X128107200Y-57299285D02*
X128154819Y-57204047D01*
X128154819Y-57204047D02*
X128154819Y-57013571D01*
X128154819Y-57013571D02*
X128107200Y-56918333D01*
X128107200Y-56918333D02*
X128059580Y-56870714D01*
X128059580Y-56870714D02*
X127964342Y-56823095D01*
X127964342Y-56823095D02*
X127773866Y-56823095D01*
X127773866Y-56823095D02*
X127678628Y-56870714D01*
X127678628Y-56870714D02*
X127631009Y-56918333D01*
X127631009Y-56918333D02*
X127583390Y-57013571D01*
X122704819Y-92322857D02*
X122228628Y-92656190D01*
X122704819Y-92894285D02*
X121704819Y-92894285D01*
X121704819Y-92894285D02*
X121704819Y-92513333D01*
X121704819Y-92513333D02*
X121752438Y-92418095D01*
X121752438Y-92418095D02*
X121800057Y-92370476D01*
X121800057Y-92370476D02*
X121895295Y-92322857D01*
X121895295Y-92322857D02*
X122038152Y-92322857D01*
X122038152Y-92322857D02*
X122133390Y-92370476D01*
X122133390Y-92370476D02*
X122181009Y-92418095D01*
X122181009Y-92418095D02*
X122228628Y-92513333D01*
X122228628Y-92513333D02*
X122228628Y-92894285D01*
X122704819Y-91370476D02*
X122704819Y-91941904D01*
X122704819Y-91656190D02*
X121704819Y-91656190D01*
X121704819Y-91656190D02*
X121847676Y-91751428D01*
X121847676Y-91751428D02*
X121942914Y-91846666D01*
X121942914Y-91846666D02*
X121990533Y-91941904D01*
X121800057Y-90989523D02*
X121752438Y-90941904D01*
X121752438Y-90941904D02*
X121704819Y-90846666D01*
X121704819Y-90846666D02*
X121704819Y-90608571D01*
X121704819Y-90608571D02*
X121752438Y-90513333D01*
X121752438Y-90513333D02*
X121800057Y-90465714D01*
X121800057Y-90465714D02*
X121895295Y-90418095D01*
X121895295Y-90418095D02*
X121990533Y-90418095D01*
X121990533Y-90418095D02*
X122133390Y-90465714D01*
X122133390Y-90465714D02*
X122704819Y-91037142D01*
X122704819Y-91037142D02*
X122704819Y-90418095D01*
X101846075Y-101704819D02*
X101512742Y-101228628D01*
X101274647Y-101704819D02*
X101274647Y-100704819D01*
X101274647Y-100704819D02*
X101655599Y-100704819D01*
X101655599Y-100704819D02*
X101750837Y-100752438D01*
X101750837Y-100752438D02*
X101798456Y-100800057D01*
X101798456Y-100800057D02*
X101846075Y-100895295D01*
X101846075Y-100895295D02*
X101846075Y-101038152D01*
X101846075Y-101038152D02*
X101798456Y-101133390D01*
X101798456Y-101133390D02*
X101750837Y-101181009D01*
X101750837Y-101181009D02*
X101655599Y-101228628D01*
X101655599Y-101228628D02*
X101274647Y-101228628D01*
X102798456Y-101704819D02*
X102227028Y-101704819D01*
X102512742Y-101704819D02*
X102512742Y-100704819D01*
X102512742Y-100704819D02*
X102417504Y-100847676D01*
X102417504Y-100847676D02*
X102322266Y-100942914D01*
X102322266Y-100942914D02*
X102227028Y-100990533D01*
X122794819Y-49856666D02*
X122318628Y-50189999D01*
X122794819Y-50428094D02*
X121794819Y-50428094D01*
X121794819Y-50428094D02*
X121794819Y-50047142D01*
X121794819Y-50047142D02*
X121842438Y-49951904D01*
X121842438Y-49951904D02*
X121890057Y-49904285D01*
X121890057Y-49904285D02*
X121985295Y-49856666D01*
X121985295Y-49856666D02*
X122128152Y-49856666D01*
X122128152Y-49856666D02*
X122223390Y-49904285D01*
X122223390Y-49904285D02*
X122271009Y-49951904D01*
X122271009Y-49951904D02*
X122318628Y-50047142D01*
X122318628Y-50047142D02*
X122318628Y-50428094D01*
X121794819Y-48999523D02*
X121794819Y-49189999D01*
X121794819Y-49189999D02*
X121842438Y-49285237D01*
X121842438Y-49285237D02*
X121890057Y-49332856D01*
X121890057Y-49332856D02*
X122032914Y-49428094D01*
X122032914Y-49428094D02*
X122223390Y-49475713D01*
X122223390Y-49475713D02*
X122604342Y-49475713D01*
X122604342Y-49475713D02*
X122699580Y-49428094D01*
X122699580Y-49428094D02*
X122747200Y-49380475D01*
X122747200Y-49380475D02*
X122794819Y-49285237D01*
X122794819Y-49285237D02*
X122794819Y-49094761D01*
X122794819Y-49094761D02*
X122747200Y-48999523D01*
X122747200Y-48999523D02*
X122699580Y-48951904D01*
X122699580Y-48951904D02*
X122604342Y-48904285D01*
X122604342Y-48904285D02*
X122366247Y-48904285D01*
X122366247Y-48904285D02*
X122271009Y-48951904D01*
X122271009Y-48951904D02*
X122223390Y-48999523D01*
X122223390Y-48999523D02*
X122175771Y-49094761D01*
X122175771Y-49094761D02*
X122175771Y-49285237D01*
X122175771Y-49285237D02*
X122223390Y-49380475D01*
X122223390Y-49380475D02*
X122271009Y-49428094D01*
X122271009Y-49428094D02*
X122366247Y-49475713D01*
X88744761Y-71470057D02*
X88649523Y-71422438D01*
X88649523Y-71422438D02*
X88554285Y-71327200D01*
X88554285Y-71327200D02*
X88411428Y-71184342D01*
X88411428Y-71184342D02*
X88316190Y-71136723D01*
X88316190Y-71136723D02*
X88220952Y-71136723D01*
X88268571Y-71374819D02*
X88173333Y-71327200D01*
X88173333Y-71327200D02*
X88078095Y-71231961D01*
X88078095Y-71231961D02*
X88030476Y-71041485D01*
X88030476Y-71041485D02*
X88030476Y-70708152D01*
X88030476Y-70708152D02*
X88078095Y-70517676D01*
X88078095Y-70517676D02*
X88173333Y-70422438D01*
X88173333Y-70422438D02*
X88268571Y-70374819D01*
X88268571Y-70374819D02*
X88459047Y-70374819D01*
X88459047Y-70374819D02*
X88554285Y-70422438D01*
X88554285Y-70422438D02*
X88649523Y-70517676D01*
X88649523Y-70517676D02*
X88697142Y-70708152D01*
X88697142Y-70708152D02*
X88697142Y-71041485D01*
X88697142Y-71041485D02*
X88649523Y-71231961D01*
X88649523Y-71231961D02*
X88554285Y-71327200D01*
X88554285Y-71327200D02*
X88459047Y-71374819D01*
X88459047Y-71374819D02*
X88268571Y-71374819D01*
X89078095Y-70470057D02*
X89125714Y-70422438D01*
X89125714Y-70422438D02*
X89220952Y-70374819D01*
X89220952Y-70374819D02*
X89459047Y-70374819D01*
X89459047Y-70374819D02*
X89554285Y-70422438D01*
X89554285Y-70422438D02*
X89601904Y-70470057D01*
X89601904Y-70470057D02*
X89649523Y-70565295D01*
X89649523Y-70565295D02*
X89649523Y-70660533D01*
X89649523Y-70660533D02*
X89601904Y-70803390D01*
X89601904Y-70803390D02*
X89030476Y-71374819D01*
X89030476Y-71374819D02*
X89649523Y-71374819D01*
X91242261Y-50510057D02*
X91147023Y-50462438D01*
X91147023Y-50462438D02*
X91051785Y-50367200D01*
X91051785Y-50367200D02*
X90908928Y-50224342D01*
X90908928Y-50224342D02*
X90813690Y-50176723D01*
X90813690Y-50176723D02*
X90718452Y-50176723D01*
X90766071Y-50414819D02*
X90670833Y-50367200D01*
X90670833Y-50367200D02*
X90575595Y-50271961D01*
X90575595Y-50271961D02*
X90527976Y-50081485D01*
X90527976Y-50081485D02*
X90527976Y-49748152D01*
X90527976Y-49748152D02*
X90575595Y-49557676D01*
X90575595Y-49557676D02*
X90670833Y-49462438D01*
X90670833Y-49462438D02*
X90766071Y-49414819D01*
X90766071Y-49414819D02*
X90956547Y-49414819D01*
X90956547Y-49414819D02*
X91051785Y-49462438D01*
X91051785Y-49462438D02*
X91147023Y-49557676D01*
X91147023Y-49557676D02*
X91194642Y-49748152D01*
X91194642Y-49748152D02*
X91194642Y-50081485D01*
X91194642Y-50081485D02*
X91147023Y-50271961D01*
X91147023Y-50271961D02*
X91051785Y-50367200D01*
X91051785Y-50367200D02*
X90956547Y-50414819D01*
X90956547Y-50414819D02*
X90766071Y-50414819D01*
X91527976Y-49414819D02*
X92147023Y-49414819D01*
X92147023Y-49414819D02*
X91813690Y-49795771D01*
X91813690Y-49795771D02*
X91956547Y-49795771D01*
X91956547Y-49795771D02*
X92051785Y-49843390D01*
X92051785Y-49843390D02*
X92099404Y-49891009D01*
X92099404Y-49891009D02*
X92147023Y-49986247D01*
X92147023Y-49986247D02*
X92147023Y-50224342D01*
X92147023Y-50224342D02*
X92099404Y-50319580D01*
X92099404Y-50319580D02*
X92051785Y-50367200D01*
X92051785Y-50367200D02*
X91956547Y-50414819D01*
X91956547Y-50414819D02*
X91670833Y-50414819D01*
X91670833Y-50414819D02*
X91575595Y-50367200D01*
X91575595Y-50367200D02*
X91527976Y-50319580D01*
X108211905Y-85784819D02*
X108211905Y-84784819D01*
X108783333Y-85784819D02*
X108354762Y-85213390D01*
X108783333Y-84784819D02*
X108211905Y-85356247D01*
X109116667Y-84784819D02*
X109783333Y-84784819D01*
X109783333Y-84784819D02*
X109354762Y-85784819D01*
D12*
%TO.C,D7*%
X82220000Y-72060000D02*
X82220000Y-74720000D01*
X83920000Y-72060000D02*
X83920000Y-74720000D01*
X83920000Y-72060000D02*
X82220000Y-72060000D01*
%TO.C,R15*%
X84997258Y-80242500D02*
X84522742Y-80242500D01*
X84997258Y-79197500D02*
X84522742Y-79197500D01*
%TO.C,J1*%
X86590000Y-70795000D02*
X77460000Y-70795000D01*
X86590000Y-48425000D02*
X86590000Y-70795000D01*
X77460000Y-70795000D02*
X76460000Y-69795000D01*
X77460000Y-48425000D02*
X86590000Y-48425000D01*
X76460000Y-69795000D02*
X76460000Y-49425000D01*
X76460000Y-49425000D02*
X77460000Y-48425000D01*
%TO.C,Q5*%
X83292500Y-78692500D02*
X82962500Y-78452500D01*
X83292500Y-78212500D01*
X83292500Y-78692500D01*
G36*
X83292500Y-78692500D02*
G01*
X82962500Y-78452500D01*
X83292500Y-78212500D01*
X83292500Y-78692500D01*
G37*
X83012500Y-79615000D02*
X83012500Y-80265000D01*
X83012500Y-79615000D02*
X83012500Y-78965000D01*
X79892500Y-79615000D02*
X79892500Y-80265000D01*
X79892500Y-79615000D02*
X79892500Y-78965000D01*
%TO.C,Q12*%
X79427500Y-84982500D02*
X79097500Y-85222500D01*
X79097500Y-84742500D01*
X79427500Y-84982500D01*
G36*
X79427500Y-84982500D02*
G01*
X79097500Y-85222500D01*
X79097500Y-84742500D01*
X79427500Y-84982500D01*
G37*
X82497500Y-83820000D02*
X82497500Y-83170000D01*
X82497500Y-83820000D02*
X82497500Y-84470000D01*
X79377500Y-83820000D02*
X79377500Y-83170000D01*
X79377500Y-83820000D02*
X79377500Y-84470000D01*
%TO.C,U4*%
X99085000Y-94735000D02*
X98615000Y-94395000D01*
X99085000Y-94055000D01*
X99085000Y-94735000D01*
G36*
X99085000Y-94735000D02*
G01*
X98615000Y-94395000D01*
X99085000Y-94055000D01*
X99085000Y-94735000D01*
G37*
X98925000Y-102545000D02*
X98925000Y-96125000D01*
X98925000Y-96125000D02*
X98655000Y-96125000D01*
X92025000Y-102545000D02*
X92025000Y-96125000D01*
X92025000Y-96125000D02*
X92295000Y-96125000D01*
%TO.C,Q8*%
X86115000Y-84300000D02*
X85635000Y-84300000D01*
X85875000Y-83970000D01*
X86115000Y-84300000D01*
G36*
X86115000Y-84300000D02*
G01*
X85635000Y-84300000D01*
X85875000Y-83970000D01*
X86115000Y-84300000D01*
G37*
X84712500Y-80900000D02*
X84062500Y-80900000D01*
X84712500Y-80900000D02*
X85362500Y-80900000D01*
X84712500Y-84020000D02*
X84062500Y-84020000D01*
X84712500Y-84020000D02*
X85362500Y-84020000D01*
%TO.C,R29*%
X88847258Y-84757500D02*
X88372742Y-84757500D01*
X88847258Y-85802500D02*
X88372742Y-85802500D01*
%TO.C,R30*%
X81327258Y-86637500D02*
X80852742Y-86637500D01*
X81327258Y-87682500D02*
X80852742Y-87682500D01*
%TO.C,R31*%
X84212742Y-86637500D02*
X84687258Y-86637500D01*
X84212742Y-87682500D02*
X84687258Y-87682500D01*
%TO.C,R28*%
X85332742Y-84777500D02*
X85807258Y-84777500D01*
X85332742Y-85822500D02*
X85807258Y-85822500D01*
%TO.C,D5*%
X93850000Y-68070000D02*
X93850000Y-65410000D01*
X93850000Y-68070000D02*
X95550000Y-68070000D01*
X95550000Y-68070000D02*
X95550000Y-65410000D01*
%TO.C,C2*%
X91017500Y-94717164D02*
X91017500Y-94932836D01*
X91737500Y-94717164D02*
X91737500Y-94932836D01*
%TO.C,R4*%
X86967742Y-74887500D02*
X87442258Y-74887500D01*
X86967742Y-75932500D02*
X87442258Y-75932500D01*
%TO.C,D14*%
X123430000Y-60632500D02*
X123430000Y-63317500D01*
X123430000Y-63317500D02*
X125350000Y-63317500D01*
X125350000Y-63317500D02*
X125350000Y-60632500D01*
%TO.C,D11*%
X93880000Y-78407500D02*
X93880000Y-75747500D01*
X93880000Y-78407500D02*
X95580000Y-78407500D01*
X95580000Y-78407500D02*
X95580000Y-75747500D01*
%TO.C,R13*%
X123787500Y-85337258D02*
X123787500Y-84862742D01*
X124832500Y-85337258D02*
X124832500Y-84862742D01*
%TO.C,R21*%
X114917258Y-102487500D02*
X114442742Y-102487500D01*
X114917258Y-103532500D02*
X114442742Y-103532500D01*
%TO.C,R3*%
X84397500Y-74917258D02*
X84397500Y-74442742D01*
X85442500Y-74917258D02*
X85442500Y-74442742D01*
D13*
%TO.C,K6*%
X96700000Y-36810000D02*
X121100000Y-36810000D01*
X96700000Y-49610000D02*
X96700000Y-36810000D01*
X121100000Y-36810000D02*
X121100000Y-49610000D01*
X121100000Y-49610000D02*
X96700000Y-49610000D01*
D12*
%TO.C,C7*%
X89747836Y-74780000D02*
X89532164Y-74780000D01*
X89747836Y-75500000D02*
X89532164Y-75500000D01*
%TO.C,U5*%
X86895000Y-80567500D02*
X86895000Y-78367500D01*
X86895000Y-80567500D02*
X86895000Y-82767500D01*
X93665000Y-80567500D02*
X93665000Y-78367500D01*
X93665000Y-80567500D02*
X93665000Y-82767500D01*
X93205000Y-76707500D02*
X92965000Y-76377500D01*
X93445000Y-76377500D01*
X93205000Y-76707500D01*
G36*
X93205000Y-76707500D02*
G01*
X92965000Y-76377500D01*
X93445000Y-76377500D01*
X93205000Y-76707500D01*
G37*
%TO.C,R16*%
X125507500Y-84862742D02*
X125507500Y-85337258D01*
X126552500Y-84862742D02*
X126552500Y-85337258D01*
%TO.C,R8*%
X125867500Y-50987258D02*
X125867500Y-50512742D01*
X126912500Y-50987258D02*
X126912500Y-50512742D01*
%TO.C,R26*%
X88580000Y-47322742D02*
X88580000Y-47797258D01*
X89625000Y-47322742D02*
X89625000Y-47797258D01*
D13*
%TO.C,K4*%
X96710000Y-64960000D02*
X121110000Y-64960000D01*
X96710000Y-77760000D02*
X96710000Y-64960000D01*
X121110000Y-64960000D02*
X121110000Y-77760000D01*
X121110000Y-77760000D02*
X96710000Y-77760000D01*
D12*
%TO.C,GLV1*%
X112895000Y-100110000D02*
X112895000Y-102030000D01*
X112895000Y-102030000D02*
X115580000Y-102030000D01*
X115580000Y-100110000D02*
X112895000Y-100110000D01*
D13*
%TO.C,K5*%
X96790000Y-50850000D02*
X121190000Y-50850000D01*
X96790000Y-63650000D02*
X96790000Y-50850000D01*
X121190000Y-50850000D02*
X121190000Y-63650000D01*
X121190000Y-63650000D02*
X96790000Y-63650000D01*
D12*
%TO.C,R7*%
X127887258Y-76497500D02*
X127412742Y-76497500D01*
X127887258Y-77542500D02*
X127412742Y-77542500D01*
%TO.C,D1*%
X94330000Y-39710000D02*
X94330000Y-42370000D01*
X96030000Y-39710000D02*
X94330000Y-39710000D01*
X96030000Y-39710000D02*
X96030000Y-42370000D01*
%TO.C,Q4*%
X90390000Y-43110000D02*
X90390000Y-42460000D01*
X90390000Y-43110000D02*
X90390000Y-43760000D01*
X93510000Y-43110000D02*
X93510000Y-42460000D01*
X93510000Y-43110000D02*
X93510000Y-43760000D01*
X90440000Y-44272500D02*
X90110000Y-44512500D01*
X90110000Y-44032500D01*
X90440000Y-44272500D01*
G36*
X90440000Y-44272500D02*
G01*
X90110000Y-44512500D01*
X90110000Y-44032500D01*
X90440000Y-44272500D01*
G37*
%TO.C,R22*%
X91207500Y-58252258D02*
X91207500Y-57777742D01*
X92252500Y-58252258D02*
X92252500Y-57777742D01*
%TO.C,R25*%
X92792742Y-36557500D02*
X93267258Y-36557500D01*
X92792742Y-37602500D02*
X93267258Y-37602500D01*
%TO.C,D15*%
X123470000Y-73132500D02*
X123470000Y-75817500D01*
X123470000Y-75817500D02*
X125390000Y-75817500D01*
X125390000Y-75817500D02*
X125390000Y-73132500D01*
%TO.C,D10*%
X93880000Y-79390000D02*
X93880000Y-82050000D01*
X95580000Y-79390000D02*
X93880000Y-79390000D01*
X95580000Y-79390000D02*
X95580000Y-82050000D01*
%TO.C,R9*%
X127422742Y-78127500D02*
X127897258Y-78127500D01*
X127422742Y-79172500D02*
X127897258Y-79172500D01*
%TO.C,Q9*%
X127540000Y-60112500D02*
X126890000Y-60112500D01*
X127540000Y-60112500D02*
X128190000Y-60112500D01*
X127540000Y-63232500D02*
X126890000Y-63232500D01*
X127540000Y-63232500D02*
X128190000Y-63232500D01*
X128942500Y-63512500D02*
X128462500Y-63512500D01*
X128702500Y-63182500D01*
X128942500Y-63512500D01*
G36*
X128942500Y-63512500D02*
G01*
X128462500Y-63512500D01*
X128702500Y-63182500D01*
X128942500Y-63512500D01*
G37*
%TO.C,Q11*%
X127312500Y-87060000D02*
X126662500Y-87060000D01*
X127312500Y-87060000D02*
X127962500Y-87060000D01*
X127312500Y-90180000D02*
X126662500Y-90180000D01*
X127312500Y-90180000D02*
X127962500Y-90180000D01*
X128715000Y-90460000D02*
X128235000Y-90460000D01*
X128475000Y-90130000D01*
X128715000Y-90460000D01*
G36*
X128715000Y-90460000D02*
G01*
X128235000Y-90460000D01*
X128475000Y-90130000D01*
X128715000Y-90460000D01*
G37*
%TO.C,J2*%
X80590000Y-88980000D02*
X80590000Y-91740000D01*
X88320000Y-88980000D02*
X80590000Y-88980000D01*
X88320000Y-88980000D02*
X88320000Y-91740000D01*
X88320000Y-91740000D02*
X80590000Y-91740000D01*
X89590000Y-88980000D02*
X90970000Y-88980000D01*
X90970000Y-88980000D02*
X90970000Y-90360000D01*
%TO.C,D17*%
X100020000Y-96920000D02*
X100020000Y-98620000D01*
X100020000Y-96920000D02*
X102680000Y-96920000D01*
X100020000Y-98620000D02*
X102680000Y-98620000D01*
%TO.C,R20*%
X109490242Y-102368750D02*
X109964758Y-102368750D01*
X109490242Y-103413750D02*
X109964758Y-103413750D01*
%TO.C,R5*%
X124087500Y-50502742D02*
X124087500Y-50977258D01*
X125132500Y-50502742D02*
X125132500Y-50977258D01*
%TO.C,D8*%
X128990000Y-52880000D02*
X128340000Y-52880000D01*
X128990000Y-52880000D02*
X129640000Y-52880000D01*
X128990000Y-56000000D02*
X128340000Y-56000000D01*
X128990000Y-56000000D02*
X129640000Y-56000000D01*
X127827500Y-52930000D02*
X127587500Y-52600000D01*
X128067500Y-52600000D01*
X127827500Y-52930000D01*
G36*
X127827500Y-52930000D02*
G01*
X127587500Y-52600000D01*
X128067500Y-52600000D01*
X127827500Y-52930000D01*
G37*
%TO.C,D4*%
X94070000Y-53070000D02*
X94070000Y-50410000D01*
X94070000Y-53070000D02*
X95770000Y-53070000D01*
X95770000Y-53070000D02*
X95770000Y-50410000D01*
%TO.C,Q6*%
X102290000Y-92832500D02*
X101640000Y-92832500D01*
X102290000Y-92832500D02*
X102940000Y-92832500D01*
X102290000Y-95952500D02*
X101640000Y-95952500D01*
X102290000Y-95952500D02*
X102940000Y-95952500D01*
X103692500Y-96232500D02*
X103212500Y-96232500D01*
X103452500Y-95902500D01*
X103692500Y-96232500D01*
G36*
X103692500Y-96232500D02*
G01*
X103212500Y-96232500D01*
X103452500Y-95902500D01*
X103692500Y-96232500D01*
G37*
%TO.C,R14*%
X87017742Y-73287500D02*
X87492258Y-73287500D01*
X87017742Y-74332500D02*
X87492258Y-74332500D01*
%TO.C,R10*%
X121897500Y-61642742D02*
X121897500Y-62117258D01*
X122942500Y-61642742D02*
X122942500Y-62117258D01*
%TO.C,R17*%
X124127500Y-58312258D02*
X124127500Y-57837742D01*
X125172500Y-58312258D02*
X125172500Y-57837742D01*
%TO.C,C1*%
X99237500Y-94777164D02*
X99237500Y-94992836D01*
X99957500Y-94777164D02*
X99957500Y-94992836D01*
%TO.C,R27*%
X93247258Y-34977500D02*
X92772742Y-34977500D01*
X93247258Y-36022500D02*
X92772742Y-36022500D01*
%TO.C,U2*%
X91295000Y-62920000D02*
X90505000Y-62920000D01*
X91295000Y-65740000D02*
X90295000Y-65740000D01*
X90175000Y-62920000D02*
X89895000Y-62920000D01*
X90175000Y-62640000D01*
X90175000Y-62920000D01*
G36*
X90175000Y-62920000D02*
G01*
X89895000Y-62920000D01*
X90175000Y-62640000D01*
X90175000Y-62920000D01*
G37*
%TO.C,Q10*%
X127580000Y-72592500D02*
X126930000Y-72592500D01*
X127580000Y-72592500D02*
X128230000Y-72592500D01*
X127580000Y-75712500D02*
X126930000Y-75712500D01*
X127580000Y-75712500D02*
X128230000Y-75712500D01*
X128982500Y-75992500D02*
X128502500Y-75992500D01*
X128742500Y-75662500D01*
X128982500Y-75992500D01*
G36*
X128982500Y-75992500D02*
G01*
X128502500Y-75992500D01*
X128742500Y-75662500D01*
X128982500Y-75992500D01*
G37*
%TO.C,3V1*%
X108112500Y-100071250D02*
X108112500Y-101991250D01*
X108112500Y-101991250D02*
X110797500Y-101991250D01*
X110797500Y-100071250D02*
X108112500Y-100071250D01*
%TO.C,D13*%
X123450000Y-46160000D02*
X123450000Y-48845000D01*
X123450000Y-48845000D02*
X125370000Y-48845000D01*
X125370000Y-48845000D02*
X125370000Y-46160000D01*
%TO.C,R19*%
X91932742Y-75367500D02*
X92407258Y-75367500D01*
X91932742Y-76412500D02*
X92407258Y-76412500D01*
%TO.C,Q1*%
X127500000Y-45632500D02*
X126850000Y-45632500D01*
X127500000Y-45632500D02*
X128150000Y-45632500D01*
X127500000Y-48752500D02*
X126850000Y-48752500D01*
X127500000Y-48752500D02*
X128150000Y-48752500D01*
X128902500Y-49032500D02*
X128422500Y-49032500D01*
X128662500Y-48702500D01*
X128902500Y-49032500D01*
G36*
X128902500Y-49032500D02*
G01*
X128422500Y-49032500D01*
X128662500Y-48702500D01*
X128902500Y-49032500D01*
G37*
%TO.C,F1*%
X80010000Y-73307936D02*
X80010000Y-74512064D01*
X81830000Y-73307936D02*
X81830000Y-74512064D01*
%TO.C,R11*%
X121947500Y-74087742D02*
X121947500Y-74562258D01*
X122992500Y-74087742D02*
X122992500Y-74562258D01*
%TO.C,R18*%
X125747500Y-57847742D02*
X125747500Y-58322258D01*
X126792500Y-57847742D02*
X126792500Y-58322258D01*
%TO.C,R12*%
X121707500Y-88482742D02*
X121707500Y-88957258D01*
X122752500Y-88482742D02*
X122752500Y-88957258D01*
%TO.C,C6*%
X89532164Y-75790000D02*
X89747836Y-75790000D01*
X89532164Y-76510000D02*
X89747836Y-76510000D01*
%TO.C,D2*%
X94150000Y-45130000D02*
X94150000Y-47790000D01*
X95850000Y-45130000D02*
X94150000Y-45130000D01*
X95850000Y-45130000D02*
X95850000Y-47790000D01*
%TO.C,R2*%
X85007258Y-78622500D02*
X84532742Y-78622500D01*
X85007258Y-77577500D02*
X84532742Y-77577500D01*
%TO.C,D3*%
X94090000Y-55490000D02*
X94090000Y-58150000D01*
X95790000Y-55490000D02*
X94090000Y-55490000D01*
X95790000Y-55490000D02*
X95790000Y-58150000D01*
%TO.C,R1*%
X102487258Y-99227500D02*
X102012742Y-99227500D01*
X102487258Y-100272500D02*
X102012742Y-100272500D01*
%TO.C,R6*%
X121817500Y-46902742D02*
X121817500Y-47377258D01*
X122862500Y-46902742D02*
X122862500Y-47377258D01*
%TO.C,D6*%
X93850000Y-69450000D02*
X93850000Y-72110000D01*
X95550000Y-69450000D02*
X93850000Y-69450000D01*
X95550000Y-69450000D02*
X95550000Y-72110000D01*
%TO.C,Q2*%
X89992500Y-71530000D02*
X89992500Y-70880000D01*
X89992500Y-71530000D02*
X89992500Y-72180000D01*
X93112500Y-71530000D02*
X93112500Y-70880000D01*
X93112500Y-71530000D02*
X93112500Y-72180000D01*
X93392500Y-70607500D02*
X93062500Y-70367500D01*
X93392500Y-70127500D01*
X93392500Y-70607500D01*
G36*
X93392500Y-70607500D02*
G01*
X93062500Y-70367500D01*
X93392500Y-70127500D01*
X93392500Y-70607500D01*
G37*
%TO.C,D16*%
X123250000Y-87610000D02*
X123250000Y-90295000D01*
X123250000Y-90295000D02*
X125170000Y-90295000D01*
X125170000Y-90295000D02*
X125170000Y-87610000D01*
%TO.C,Q3*%
X91940000Y-46010000D02*
X91290000Y-46010000D01*
X91940000Y-46010000D02*
X92590000Y-46010000D01*
X91940000Y-49130000D02*
X91290000Y-49130000D01*
X91940000Y-49130000D02*
X92590000Y-49130000D01*
X90777500Y-46060000D02*
X90537500Y-45730000D01*
X91017500Y-45730000D01*
X90777500Y-46060000D01*
G36*
X90777500Y-46060000D02*
G01*
X90537500Y-45730000D01*
X91017500Y-45730000D01*
X90777500Y-46060000D01*
G37*
D13*
%TO.C,K7*%
X96790000Y-79040000D02*
X121190000Y-79040000D01*
X96790000Y-91840000D02*
X96790000Y-79040000D01*
X121190000Y-79040000D02*
X121190000Y-91840000D01*
X121190000Y-91840000D02*
X96790000Y-91840000D01*
%TD*%
M02*
