%TF.GenerationSoftware,KiCad,Pcbnew,9.0.4*%
%TF.CreationDate,2026-01-15T15:25:04-08:00*%
%TF.ProjectId,relayBoard,72656c61-7942-46f6-9172-642e6b696361,rev?*%
%TF.SameCoordinates,Original*%
%TF.FileFunction,Paste,Top*%
%TF.FilePolarity,Positive*%
%FSLAX46Y46*%
G04 Gerber Fmt 4.6, Leading zero omitted, Abs format (unit mm)*
G04 Created by KiCad (PCBNEW 9.0.4) date 2026-01-15 15:25:04*
%MOMM*%
%LPD*%
G01*
G04 APERTURE LIST*
G04 Aperture macros list*
%AMRoundRect*
0 Rectangle with rounded corners*
0 $1 Rounding radius*
0 $2 $3 $4 $5 $6 $7 $8 $9 X,Y pos of 4 corners*
0 Add a 4 corners polygon primitive as box body*
4,1,4,$2,$3,$4,$5,$6,$7,$8,$9,$2,$3,0*
0 Add four circle primitives for the rounded corners*
1,1,$1+$1,$2,$3*
1,1,$1+$1,$4,$5*
1,1,$1+$1,$6,$7*
1,1,$1+$1,$8,$9*
0 Add four rect primitives between the rounded corners*
20,1,$1+$1,$2,$3,$4,$5,0*
20,1,$1+$1,$4,$5,$6,$7,0*
20,1,$1+$1,$6,$7,$8,$9,0*
20,1,$1+$1,$8,$9,$2,$3,0*%
G04 Aperture macros list end*
%ADD10RoundRect,0.112500X-0.112500X0.187500X-0.112500X-0.187500X0.112500X-0.187500X0.112500X0.187500X0*%
%ADD11RoundRect,0.200000X0.200000X0.275000X-0.200000X0.275000X-0.200000X-0.275000X0.200000X-0.275000X0*%
%ADD12RoundRect,0.150000X-0.150000X0.587500X-0.150000X-0.587500X0.150000X-0.587500X0.150000X0.587500X0*%
%ADD13RoundRect,0.150000X0.150000X-0.587500X0.150000X0.587500X-0.150000X0.587500X-0.150000X-0.587500X0*%
%ADD14RoundRect,0.250000X-0.350000X0.850000X-0.350000X-0.850000X0.350000X-0.850000X0.350000X0.850000X0*%
%ADD15RoundRect,0.250000X-1.125000X1.275000X-1.125000X-1.275000X1.125000X-1.275000X1.125000X1.275000X0*%
%ADD16RoundRect,0.150000X0.587500X0.150000X-0.587500X0.150000X-0.587500X-0.150000X0.587500X-0.150000X0*%
%ADD17RoundRect,0.200000X-0.200000X-0.275000X0.200000X-0.275000X0.200000X0.275000X-0.200000X0.275000X0*%
%ADD18RoundRect,0.112500X0.112500X-0.187500X0.112500X0.187500X-0.112500X0.187500X-0.112500X-0.187500X0*%
%ADD19RoundRect,0.140000X-0.170000X0.140000X-0.170000X-0.140000X0.170000X-0.140000X0.170000X0.140000X0*%
%ADD20RoundRect,0.243750X0.456250X-0.243750X0.456250X0.243750X-0.456250X0.243750X-0.456250X-0.243750X0*%
%ADD21RoundRect,0.200000X0.275000X-0.200000X0.275000X0.200000X-0.275000X0.200000X-0.275000X-0.200000X0*%
%ADD22RoundRect,0.140000X0.140000X0.170000X-0.140000X0.170000X-0.140000X-0.170000X0.140000X-0.170000X0*%
%ADD23RoundRect,0.100000X-0.100000X0.637500X-0.100000X-0.637500X0.100000X-0.637500X0.100000X0.637500X0*%
%ADD24RoundRect,0.200000X-0.275000X0.200000X-0.275000X-0.200000X0.275000X-0.200000X0.275000X0.200000X0*%
%ADD25RoundRect,0.243750X-0.243750X-0.456250X0.243750X-0.456250X0.243750X0.456250X-0.243750X0.456250X0*%
%ADD26RoundRect,0.112500X-0.187500X-0.112500X0.187500X-0.112500X0.187500X0.112500X-0.187500X0.112500X0*%
%ADD27RoundRect,0.150000X-0.587500X-0.150000X0.587500X-0.150000X0.587500X0.150000X-0.587500X0.150000X0*%
%ADD28RoundRect,0.075000X-0.200000X0.075000X-0.200000X-0.075000X0.200000X-0.075000X0.200000X0.075000X0*%
%ADD29RoundRect,0.250001X-0.624999X0.462499X-0.624999X-0.462499X0.624999X-0.462499X0.624999X0.462499X0*%
%ADD30RoundRect,0.140000X-0.140000X-0.170000X0.140000X-0.170000X0.140000X0.170000X-0.140000X0.170000X0*%
G04 APERTURE END LIST*
D10*
%TO.C,D7*%
X83070000Y-74720000D03*
X83070000Y-72620000D03*
%TD*%
D11*
%TO.C,R15*%
X85585000Y-79720000D03*
X83935000Y-79720000D03*
%TD*%
D12*
%TO.C,Q5*%
X81452500Y-80552500D03*
X80502500Y-78677500D03*
X82402500Y-78677500D03*
%TD*%
D13*
%TO.C,Q12*%
X80937500Y-82882500D03*
X81887500Y-84757500D03*
X79987500Y-84757500D03*
%TD*%
D14*
%TO.C,U4*%
X93195000Y-94395000D03*
X97755000Y-94395000D03*
D15*
X93950000Y-102370000D03*
X97000000Y-102370000D03*
X93950000Y-99020000D03*
X97000000Y-99020000D03*
%TD*%
D16*
%TO.C,Q8*%
X83775000Y-82460000D03*
X85650000Y-81510000D03*
X85650000Y-83410000D03*
%TD*%
D11*
%TO.C,R29*%
X87785000Y-85280000D03*
X89435000Y-85280000D03*
%TD*%
%TO.C,R30*%
X80265000Y-87160000D03*
X81915000Y-87160000D03*
%TD*%
D17*
%TO.C,R31*%
X83625000Y-87160000D03*
X85275000Y-87160000D03*
%TD*%
%TO.C,R28*%
X84745000Y-85300000D03*
X86395000Y-85300000D03*
%TD*%
D18*
%TO.C,D5*%
X94700000Y-67510000D03*
X94700000Y-65410000D03*
%TD*%
D19*
%TO.C,C2*%
X91377500Y-94345000D03*
X91377500Y-95305000D03*
%TD*%
D17*
%TO.C,R4*%
X86380000Y-75410000D03*
X88030000Y-75410000D03*
%TD*%
D20*
%TO.C,D14*%
X124390000Y-62570000D03*
X124390000Y-60695000D03*
%TD*%
D18*
%TO.C,D11*%
X94730000Y-77847500D03*
X94730000Y-75747500D03*
%TD*%
D21*
%TO.C,R13*%
X124310000Y-85925000D03*
X124310000Y-84275000D03*
%TD*%
D11*
%TO.C,R21*%
X115505000Y-103010000D03*
X113855000Y-103010000D03*
%TD*%
D21*
%TO.C,R3*%
X84920000Y-75505000D03*
X84920000Y-73855000D03*
%TD*%
D22*
%TO.C,C7*%
X90120000Y-75140000D03*
X89160000Y-75140000D03*
%TD*%
D23*
%TO.C,U5*%
X93205000Y-77705000D03*
X92555000Y-77705000D03*
X91905000Y-77705000D03*
X91255000Y-77705000D03*
X90605000Y-77705000D03*
X89955000Y-77705000D03*
X89305000Y-77705000D03*
X88655000Y-77705000D03*
X88005000Y-77705000D03*
X87355000Y-77705000D03*
X87355000Y-83430000D03*
X88005000Y-83430000D03*
X88655000Y-83430000D03*
X89305000Y-83430000D03*
X89955000Y-83430000D03*
X90605000Y-83430000D03*
X91255000Y-83430000D03*
X91905000Y-83430000D03*
X92555000Y-83430000D03*
X93205000Y-83430000D03*
%TD*%
D24*
%TO.C,R16*%
X126030000Y-84275000D03*
X126030000Y-85925000D03*
%TD*%
D21*
%TO.C,R8*%
X126390000Y-51575000D03*
X126390000Y-49925000D03*
%TD*%
D24*
%TO.C,R26*%
X89102500Y-46735000D03*
X89102500Y-48385000D03*
%TD*%
D25*
%TO.C,GLV1*%
X113642500Y-101070000D03*
X115517500Y-101070000D03*
%TD*%
D11*
%TO.C,R7*%
X128475000Y-77020000D03*
X126825000Y-77020000D03*
%TD*%
D10*
%TO.C,D1*%
X95180000Y-40270000D03*
X95180000Y-42370000D03*
%TD*%
D13*
%TO.C,Q4*%
X91000000Y-44047500D03*
X92900000Y-44047500D03*
X91950000Y-42172500D03*
%TD*%
D21*
%TO.C,R22*%
X91730000Y-58840000D03*
X91730000Y-57190000D03*
%TD*%
D17*
%TO.C,R25*%
X92205000Y-37080000D03*
X93855000Y-37080000D03*
%TD*%
D20*
%TO.C,D15*%
X124430000Y-75070000D03*
X124430000Y-73195000D03*
%TD*%
D10*
%TO.C,D10*%
X94730000Y-79950000D03*
X94730000Y-82050000D03*
%TD*%
D17*
%TO.C,R9*%
X126835000Y-78650000D03*
X128485000Y-78650000D03*
%TD*%
D16*
%TO.C,Q9*%
X128477500Y-62622500D03*
X128477500Y-60722500D03*
X126602500Y-61672500D03*
%TD*%
%TO.C,Q11*%
X128250000Y-89570000D03*
X128250000Y-87670000D03*
X126375000Y-88620000D03*
%TD*%
D26*
%TO.C,D17*%
X100580000Y-97770000D03*
X102680000Y-97770000D03*
%TD*%
D17*
%TO.C,R20*%
X108902500Y-102891250D03*
X110552500Y-102891250D03*
%TD*%
D24*
%TO.C,R5*%
X124610000Y-49915000D03*
X124610000Y-51565000D03*
%TD*%
D27*
%TO.C,D8*%
X128052500Y-53490000D03*
X128052500Y-55390000D03*
X129927500Y-54440000D03*
%TD*%
D18*
%TO.C,D4*%
X94920000Y-52510000D03*
X94920000Y-50410000D03*
%TD*%
D16*
%TO.C,Q6*%
X103227500Y-95342500D03*
X103227500Y-93442500D03*
X101352500Y-94392500D03*
%TD*%
D17*
%TO.C,R14*%
X86430000Y-73810000D03*
X88080000Y-73810000D03*
%TD*%
D24*
%TO.C,R10*%
X122420000Y-61055000D03*
X122420000Y-62705000D03*
%TD*%
D21*
%TO.C,R17*%
X124650000Y-58900000D03*
X124650000Y-57250000D03*
%TD*%
D19*
%TO.C,C1*%
X99597500Y-94405000D03*
X99597500Y-95365000D03*
%TD*%
D11*
%TO.C,R27*%
X93835000Y-35500000D03*
X92185000Y-35500000D03*
%TD*%
D28*
%TO.C,U2*%
X90410000Y-63330000D03*
X90410000Y-63830000D03*
X90410000Y-64330000D03*
X90410000Y-64830000D03*
X90410000Y-65330000D03*
X91180000Y-65330000D03*
X91180000Y-64830000D03*
X91180000Y-64330000D03*
X91180000Y-63830000D03*
X91180000Y-63330000D03*
%TD*%
D16*
%TO.C,Q10*%
X128517500Y-75102500D03*
X128517500Y-73202500D03*
X126642500Y-74152500D03*
%TD*%
D25*
%TO.C,3V1*%
X108860000Y-101031250D03*
X110735000Y-101031250D03*
%TD*%
D20*
%TO.C,D13*%
X124410000Y-48097500D03*
X124410000Y-46222500D03*
%TD*%
D17*
%TO.C,R19*%
X91345000Y-75890000D03*
X92995000Y-75890000D03*
%TD*%
D16*
%TO.C,Q1*%
X128437500Y-48142500D03*
X128437500Y-46242500D03*
X126562500Y-47192500D03*
%TD*%
D29*
%TO.C,F1*%
X80920000Y-72422500D03*
X80920000Y-75397500D03*
%TD*%
D24*
%TO.C,R11*%
X122470000Y-73500000D03*
X122470000Y-75150000D03*
%TD*%
%TO.C,R18*%
X126270000Y-57260000D03*
X126270000Y-58910000D03*
%TD*%
%TO.C,R12*%
X122230000Y-87895000D03*
X122230000Y-89545000D03*
%TD*%
D30*
%TO.C,C6*%
X89160000Y-76150000D03*
X90120000Y-76150000D03*
%TD*%
D10*
%TO.C,D2*%
X95000000Y-45690000D03*
X95000000Y-47790000D03*
%TD*%
D11*
%TO.C,R2*%
X85595000Y-78100000D03*
X83945000Y-78100000D03*
%TD*%
D10*
%TO.C,D3*%
X94940000Y-56050000D03*
X94940000Y-58150000D03*
%TD*%
D11*
%TO.C,R1*%
X103075000Y-99750000D03*
X101425000Y-99750000D03*
%TD*%
D24*
%TO.C,R6*%
X122340000Y-46315000D03*
X122340000Y-47965000D03*
%TD*%
D10*
%TO.C,D6*%
X94700000Y-70010000D03*
X94700000Y-72110000D03*
%TD*%
D12*
%TO.C,Q2*%
X92502500Y-70592500D03*
X90602500Y-70592500D03*
X91552500Y-72467500D03*
%TD*%
D20*
%TO.C,D16*%
X124210000Y-89547500D03*
X124210000Y-87672500D03*
%TD*%
D27*
%TO.C,Q3*%
X91002500Y-46620000D03*
X91002500Y-48520000D03*
X92877500Y-47570000D03*
%TD*%
M02*
