M48
; DRILL file {KiCad 9.0.4} date 2025-11-13T15:23:38-0800
; FORMAT={-:-/ absolute / metric / decimal}
; #@! TF.CreationDate,2025-11-13T15:23:38-08:00
; #@! TF.GenerationSoftware,Kicad,Pcbnew,9.0.4
; #@! TF.FileFunction,Plated,1,2,PTH
FMAT,2
METRIC
; #@! TA.AperFunction,Plated,PTH,ViaDrill
T1C0.300
; #@! TA.AperFunction,Plated,PTH,ComponentDrill
T2C1.020
; #@! TA.AperFunction,Plated,PTH,ComponentDrill
T3C1.500
%
G90
G05
T1
X117.75Y-87.0
X118.975Y-105.05
X125.225Y-93.25
X125.225Y-94.25
X126.2Y-93.25
X126.2Y-94.25
X127.3Y-93.25
X127.3Y-94.25
X128.3Y-93.25
X128.3Y-94.25
X128.4Y-95.325
X128.4Y-96.325
X128.475Y-97.2
X128.475Y-98.2
X129.375Y-93.25
X129.45Y-94.225
X129.85Y-95.325
X129.85Y-96.325
X129.925Y-97.2
X129.925Y-98.2
X130.575Y-93.225
X130.575Y-94.225
X130.95Y-95.325
X130.95Y-96.325
X131.025Y-97.2
X131.025Y-98.2
X132.4Y-95.325
X132.4Y-96.325
X132.4Y-99.575
X132.475Y-97.2
X132.475Y-98.2
X132.475Y-100.45
X132.475Y-101.45
X132.575Y-102.675
X132.6Y-108.9
X132.65Y-103.55
X132.65Y-104.55
X132.675Y-109.775
X132.675Y-110.775
X132.85Y-93.075
X132.85Y-94.075
X132.85Y-106.0
X132.925Y-85.325
X132.925Y-106.875
X132.925Y-107.875
X133.475Y-95.325
X133.55Y-96.3
X133.55Y-97.2
X133.55Y-99.55
X133.55Y-100.45
X133.625Y-98.175
X133.625Y-101.425
X133.725Y-102.65
X133.725Y-103.55
X133.75Y-108.875
X133.75Y-109.775
X133.8Y-104.525
X133.825Y-110.75
X133.95Y-93.075
X133.95Y-94.075
X134.0Y-105.975
X134.0Y-106.875
X134.075Y-107.85
X134.675Y-95.3
X134.675Y-96.3
X134.675Y-99.55
X134.75Y-97.175
X134.75Y-98.175
X134.75Y-100.425
X134.75Y-101.425
X134.85Y-102.65
X134.875Y-108.875
X134.925Y-103.525
X134.925Y-104.525
X134.95Y-109.75
X134.95Y-110.75
X135.125Y-105.975
X135.2Y-106.85
X135.2Y-107.85
X135.4Y-93.075
X135.4Y-94.075
X136.125Y-95.3
X136.125Y-96.3
X136.125Y-99.55
X136.2Y-97.175
X136.2Y-98.175
X136.2Y-100.425
X136.2Y-101.425
X136.3Y-102.65
X136.325Y-108.875
X136.375Y-103.525
X136.375Y-104.525
X136.4Y-109.75
X136.4Y-110.75
X136.475Y-93.075
X136.55Y-94.05
X136.575Y-105.975
X136.65Y-106.85
X136.65Y-107.85
X137.225Y-95.3
X137.225Y-96.3
X137.225Y-99.55
X137.3Y-97.175
X137.3Y-98.175
X137.3Y-100.425
X137.3Y-101.425
X137.4Y-102.65
X137.425Y-108.875
X137.475Y-103.525
X137.475Y-104.525
X137.5Y-109.75
X137.5Y-110.75
X137.675Y-105.975
X137.725Y-93.125
X137.725Y-94.125
X137.75Y-106.85
X137.75Y-107.85
X138.675Y-95.3
X138.675Y-96.3
X138.675Y-99.55
X138.75Y-97.175
X138.75Y-98.175
X138.75Y-100.425
X138.75Y-101.425
X138.85Y-102.65
X138.875Y-108.875
X138.925Y-103.525
X138.925Y-104.525
X138.95Y-109.75
X138.95Y-110.75
X139.125Y-105.975
X139.175Y-93.125
X139.175Y-94.125
X139.2Y-106.85
X139.2Y-107.85
X139.75Y-95.3
X139.825Y-96.275
X139.825Y-97.175
X139.825Y-99.525
X139.825Y-100.425
X139.9Y-98.15
X139.9Y-101.4
X140.0Y-102.625
X140.0Y-103.525
X140.025Y-108.85
X140.025Y-109.75
X140.075Y-104.5
X140.1Y-110.725
X140.275Y-93.125
X140.275Y-94.125
X140.275Y-105.95
X140.275Y-106.85
X140.35Y-107.825
X141.0Y-95.35
X141.0Y-96.35
X141.0Y-99.6
X141.075Y-97.225
X141.075Y-98.225
X141.075Y-100.475
X141.075Y-101.475
X141.175Y-102.7
X141.2Y-108.925
X141.25Y-103.575
X141.25Y-104.575
X141.275Y-109.8
X141.275Y-110.8
X141.45Y-106.025
X141.525Y-106.9
X141.525Y-107.9
X141.675Y-93.05
X141.675Y-94.05
X142.2Y-99.075
X142.2Y-100.075
X142.45Y-95.35
X142.45Y-96.35
X142.525Y-97.225
X142.525Y-98.225
X142.7Y-105.825
X142.7Y-108.9
X142.75Y-93.05
X142.775Y-106.7
X142.775Y-107.7
X142.775Y-109.775
X142.775Y-110.775
X142.825Y-94.025
X143.3Y-99.075
X143.3Y-100.075
X143.55Y-95.35
X143.55Y-96.35
X143.625Y-97.225
X143.625Y-98.225
X143.85Y-105.8
X143.85Y-106.7
X143.85Y-108.875
X143.85Y-109.775
X143.925Y-107.675
X143.925Y-110.75
X144.475Y-93.0
X144.475Y-94.0
X144.975Y-105.8
X144.975Y-108.875
X145.0Y-95.35
X145.0Y-96.35
X145.05Y-106.675
X145.05Y-107.675
X145.05Y-109.75
X145.05Y-110.75
X145.075Y-97.225
X145.075Y-98.225
X145.6Y-98.975
X145.6Y-99.975
X145.925Y-93.0
X145.925Y-94.0
X146.075Y-95.35
X146.15Y-96.325
X146.15Y-97.225
X146.225Y-98.2
X146.425Y-105.8
X146.425Y-108.875
X146.5Y-106.675
X146.5Y-107.675
X146.5Y-109.75
X146.5Y-110.75
X146.7Y-98.975
X146.7Y-99.975
X147.025Y-93.0
X147.025Y-94.0
X147.525Y-105.8
X147.525Y-108.875
X147.6Y-106.675
X147.6Y-107.675
X147.6Y-109.75
X147.6Y-110.75
X147.8Y-95.3
X147.8Y-96.3
X147.825Y-99.125
X147.825Y-102.15
X147.875Y-97.175
X147.875Y-98.175
X147.9Y-100.0
X147.9Y-101.0
X147.9Y-103.025
X147.9Y-104.025
X148.4Y-93.0
X148.4Y-94.0
X148.975Y-99.1
X148.975Y-100.0
X148.975Y-102.125
X148.975Y-103.025
X148.975Y-105.8
X148.975Y-108.875
X149.05Y-100.975
X149.05Y-104.0
X149.05Y-106.675
X149.05Y-107.675
X149.05Y-109.75
X149.05Y-110.75
X149.25Y-95.3
X149.25Y-96.3
X149.325Y-97.175
X149.325Y-98.175
X149.475Y-93.0
X149.55Y-93.975
X150.1Y-99.1
X150.1Y-102.125
X150.125Y-105.775
X150.125Y-106.675
X150.125Y-108.85
X150.125Y-109.75
X150.175Y-99.975
X150.175Y-100.975
X150.175Y-103.0
X150.175Y-104.0
X150.2Y-107.65
X150.2Y-110.725
X150.35Y-95.3
X150.35Y-96.3
X150.425Y-97.175
X150.425Y-98.175
X150.725Y-93.0
X150.725Y-94.0
X151.55Y-99.1
X151.55Y-102.125
X151.6Y-105.55
X151.625Y-99.975
X151.625Y-100.975
X151.625Y-103.0
X151.625Y-104.0
X151.675Y-106.425
X151.675Y-107.425
X151.675Y-108.5
X151.75Y-109.375
X151.75Y-110.375
X151.8Y-95.3
X151.8Y-96.3
X151.875Y-97.175
X151.875Y-98.175
X151.9Y-92.975
X151.9Y-93.975
X152.65Y-99.1
X152.65Y-102.125
X152.725Y-99.975
X152.725Y-100.975
X152.725Y-103.0
X152.725Y-104.0
X152.775Y-104.975
X152.85Y-105.85
X152.85Y-106.85
X152.85Y-107.925
X152.875Y-95.3
X152.925Y-108.8
X152.925Y-109.8
X152.95Y-96.275
X152.95Y-97.175
X153.0Y-92.975
X153.0Y-93.975
X153.025Y-98.15
X153.875Y-104.975
X153.95Y-105.85
X153.95Y-106.85
X153.95Y-107.925
X153.975Y-92.975
X153.975Y-93.975
X154.025Y-108.8
X154.025Y-109.8
X154.1Y-99.1
X154.1Y-102.125
X154.125Y-95.3
X154.125Y-96.3
X154.175Y-99.975
X154.175Y-100.975
X154.175Y-103.0
X154.175Y-104.0
X154.2Y-97.175
X154.2Y-98.175
X155.05Y-92.975
X155.05Y-94.025
X155.25Y-99.075
X155.25Y-99.975
X155.25Y-102.1
X155.25Y-103.0
X155.325Y-100.95
X155.325Y-103.975
X155.325Y-104.975
X155.4Y-105.85
X155.4Y-106.85
X155.4Y-107.925
X155.475Y-108.8
X155.475Y-109.8
X155.575Y-95.3
X155.575Y-96.3
X155.65Y-97.175
X155.65Y-98.175
X156.0Y-92.975
X156.0Y-93.975
X156.425Y-99.15
X156.425Y-102.175
X156.475Y-104.95
X156.475Y-105.85
X156.5Y-100.025
X156.5Y-101.025
X156.5Y-103.05
X156.5Y-104.05
X156.55Y-106.825
X156.55Y-107.9
X156.55Y-108.8
X156.625Y-109.775
X156.675Y-95.3
X156.675Y-96.3
X156.75Y-97.175
X156.75Y-98.175
X157.075Y-92.975
X157.075Y-94.025
X157.65Y-105.025
X157.725Y-105.9
X157.725Y-106.9
X157.725Y-107.975
X157.8Y-108.85
X157.8Y-109.85
X157.875Y-93.0
X157.9Y-94.025
X158.125Y-95.3
X158.125Y-96.3
X158.2Y-97.175
X158.2Y-98.825
X158.225Y-98.0
X158.275Y-99.875
X158.275Y-100.7
X158.275Y-101.7
X158.3Y-102.375
X158.3Y-103.2
X158.3Y-104.2
X158.825Y-105.125
X158.9Y-106.0
X158.9Y-107.0
X158.9Y-108.075
X158.95Y-93.05
X158.975Y-94.075
X158.975Y-108.95
X158.975Y-109.95
X159.2Y-95.3
X159.2Y-96.35
X159.275Y-97.175
X159.275Y-98.825
X159.275Y-99.875
X159.3Y-98.05
X159.3Y-102.375
X159.35Y-100.7
X159.35Y-101.75
X159.375Y-103.2
X159.375Y-104.25
T2
X130.0Y-76.5
X130.0Y-79.5
X143.675Y-76.39
X143.675Y-79.39
T3
X125.24Y-97.03
X125.24Y-102.48
X125.24Y-107.93
M30
