%TF.GenerationSoftware,KiCad,Pcbnew,9.0.4*%
%TF.CreationDate,2025-11-13T15:22:34-08:00*%
%TF.ProjectId,VOLTAGE_INDICATOR_FINAL,564f4c54-4147-4455-9f49-4e4449434154,rev?*%
%TF.SameCoordinates,Original*%
%TF.FileFunction,Copper,L2,Bot*%
%TF.FilePolarity,Positive*%
%FSLAX46Y46*%
G04 Gerber Fmt 4.6, Leading zero omitted, Abs format (unit mm)*
G04 Created by KiCad (PCBNEW 9.0.4) date 2025-11-13 15:22:34*
%MOMM*%
%LPD*%
G01*
G04 APERTURE LIST*
G04 Aperture macros list*
%AMRoundRect*
0 Rectangle with rounded corners*
0 $1 Rounding radius*
0 $2 $3 $4 $5 $6 $7 $8 $9 X,Y pos of 4 corners*
0 Add a 4 corners polygon primitive as box body*
4,1,4,$2,$3,$4,$5,$6,$7,$8,$9,$2,$3,0*
0 Add four circle primitives for the rounded corners*
1,1,$1+$1,$2,$3*
1,1,$1+$1,$4,$5*
1,1,$1+$1,$6,$7*
1,1,$1+$1,$8,$9*
0 Add four rect primitives between the rounded corners*
20,1,$1+$1,$2,$3,$4,$5,0*
20,1,$1+$1,$4,$5,$6,$7,0*
20,1,$1+$1,$6,$7,$8,$9,0*
20,1,$1+$1,$8,$9,$2,$3,0*%
G04 Aperture macros list end*
%TA.AperFunction,ComponentPad*%
%ADD10RoundRect,0.250001X0.499999X0.499999X-0.499999X0.499999X-0.499999X-0.499999X0.499999X-0.499999X0*%
%TD*%
%TA.AperFunction,ComponentPad*%
%ADD11C,1.500000*%
%TD*%
%TA.AperFunction,ComponentPad*%
%ADD12R,4.500000X2.500000*%
%TD*%
%TA.AperFunction,ComponentPad*%
%ADD13O,4.500000X2.500000*%
%TD*%
%TA.AperFunction,ViaPad*%
%ADD14C,0.600000*%
%TD*%
%TA.AperFunction,Conductor*%
%ADD15C,0.200000*%
%TD*%
%ADD16C,1.020000*%
%ADD17RoundRect,0.250001X0.499999X0.499999X-0.499999X0.499999X-0.499999X-0.499999X0.499999X-0.499999X0*%
%ADD18C,1.500000*%
%ADD19C,3.600000*%
%ADD20R,4.500000X2.500000*%
%ADD21O,4.500000X2.500000*%
%ADD22C,4.300000*%
%TA.AperFunction,SMDPad,CuDef*%
%ADD23RoundRect,0.250001X-0.462499X-0.624999X0.462499X-0.624999X0.462499X0.624999X-0.462499X0.624999X0*%
%TD*%
%TA.AperFunction,SMDPad,CuDef*%
%ADD24RoundRect,0.250001X-0.624999X0.462499X-0.624999X-0.462499X0.624999X-0.462499X0.624999X0.462499X0*%
%TD*%
%TA.AperFunction,SMDPad,CuDef*%
%ADD25RoundRect,0.250000X0.300000X0.300000X-0.300000X0.300000X-0.300000X-0.300000X0.300000X-0.300000X0*%
%TD*%
%TA.AperFunction,SMDPad,CuDef*%
%ADD26RoundRect,0.112500X0.187500X0.112500X-0.187500X0.112500X-0.187500X-0.112500X0.187500X-0.112500X0*%
%TD*%
%TA.AperFunction,SMDPad,CuDef*%
%ADD27RoundRect,0.150000X0.150000X0.200000X-0.150000X0.200000X-0.150000X-0.200000X0.150000X-0.200000X0*%
%TD*%
%TA.AperFunction,SMDPad,CuDef*%
%ADD28RoundRect,0.250000X0.450000X-0.350000X0.450000X0.350000X-0.450000X0.350000X-0.450000X-0.350000X0*%
%TD*%
%ADD29RoundRect,0.250001X-0.462499X-0.624999X0.462499X-0.624999X0.462499X0.624999X-0.462499X0.624999X0*%
%ADD30RoundRect,0.250001X-0.624999X0.462499X-0.624999X-0.462499X0.624999X-0.462499X0.624999X0.462499X0*%
%ADD31RoundRect,0.250000X0.300000X0.300000X-0.300000X0.300000X-0.300000X-0.300000X0.300000X-0.300000X0*%
%ADD32RoundRect,0.112500X0.187500X0.112500X-0.187500X0.112500X-0.187500X-0.112500X0.187500X-0.112500X0*%
%ADD33RoundRect,0.150000X0.150000X0.200000X-0.150000X0.200000X-0.150000X-0.200000X0.150000X-0.200000X0*%
%ADD34RoundRect,0.250000X0.450000X-0.350000X0.450000X0.350000X-0.450000X0.350000X-0.450000X-0.350000X0*%
%ADD35C,0.300000*%
%ADD36C,0.100000*%
%ADD37C,0.150000*%
%ADD38C,0.120000*%
%TA.AperFunction,Profile*%
%ADD39C,0.050000*%
%TD*%
G04 APERTURE END LIST*
D10*
%TO.P,HV1,1,Pin_1*%
%TO.N,/HV-*%
X143675000Y-79390000D03*
D11*
%TO.P,HV1,2,Pin_2*%
%TO.N,/HV+*%
X143675000Y-76390000D03*
%TD*%
D10*
%TO.P,LED1,1,Pin_1*%
%TO.N,/HV-_fused*%
X130000000Y-79500000D03*
D11*
%TO.P,LED1,2,Pin_2*%
%TO.N,/LED+*%
X130000000Y-76500000D03*
%TD*%
D12*
%TO.P,Q2,1,G*%
%TO.N,/HV-_fused*%
X125240000Y-97030000D03*
D13*
%TO.P,Q2,2,D*%
%TO.N,Net-(D3-A)*%
X125240000Y-102480000D03*
%TO.P,Q2,3,S*%
%TO.N,Net-(D4-A2)*%
X125240000Y-107930000D03*
%TD*%
D14*
%TO.N,/HV-_fused*%
X132925000Y-85325000D03*
X146150000Y-97225000D03*
X134750000Y-100425000D03*
X132925000Y-106875000D03*
X141525000Y-106900000D03*
X133800000Y-104525000D03*
X140350000Y-107825000D03*
X147600000Y-106675000D03*
X135200000Y-107850000D03*
X152925000Y-109800000D03*
X154025000Y-109800000D03*
X155475000Y-109800000D03*
X156550000Y-106825000D03*
X159350000Y-101750000D03*
X138675000Y-99550000D03*
X151550000Y-99100000D03*
X137300000Y-100425000D03*
X142775000Y-107700000D03*
X139175000Y-94125000D03*
X140075000Y-104500000D03*
X141075000Y-97225000D03*
X159200000Y-96350000D03*
X142700000Y-105825000D03*
X143925000Y-107675000D03*
X151625000Y-99975000D03*
X137500000Y-109750000D03*
X141075000Y-101475000D03*
X156000000Y-92975000D03*
X143300000Y-100075000D03*
X152950000Y-97175000D03*
X125225000Y-93250000D03*
X132675000Y-109775000D03*
X155400000Y-105850000D03*
X150175000Y-100975000D03*
X139825000Y-96275000D03*
X158200000Y-98825000D03*
X156750000Y-98175000D03*
X127300000Y-93250000D03*
X150725000Y-94000000D03*
X148400000Y-93000000D03*
X158975000Y-109950000D03*
X145050000Y-107675000D03*
X141675000Y-93050000D03*
X156500000Y-103050000D03*
X143925000Y-110750000D03*
X150200000Y-110725000D03*
X137300000Y-97175000D03*
X155250000Y-103000000D03*
X142775000Y-106700000D03*
X129925000Y-98200000D03*
X143300000Y-99075000D03*
X139825000Y-100425000D03*
X133625000Y-98175000D03*
X157800000Y-108850000D03*
X143625000Y-97225000D03*
X142525000Y-98225000D03*
X128475000Y-98200000D03*
X154200000Y-98175000D03*
X137225000Y-99550000D03*
X154125000Y-96300000D03*
X147525000Y-105800000D03*
X158275000Y-101700000D03*
X158900000Y-107000000D03*
X130950000Y-95325000D03*
X144975000Y-105800000D03*
X147875000Y-98175000D03*
X138750000Y-97175000D03*
X141675000Y-94050000D03*
X143625000Y-98225000D03*
X134000000Y-106875000D03*
X133950000Y-94075000D03*
X138675000Y-95300000D03*
X149050000Y-109750000D03*
X156675000Y-95300000D03*
X134750000Y-101425000D03*
X151625000Y-104000000D03*
X158125000Y-95300000D03*
X150125000Y-108850000D03*
X145000000Y-96350000D03*
X159275000Y-98825000D03*
X151600000Y-105550000D03*
X152850000Y-105850000D03*
X148975000Y-103025000D03*
X155325000Y-104975000D03*
X147900000Y-100000000D03*
X133550000Y-97200000D03*
X150125000Y-109750000D03*
X158275000Y-99875000D03*
X153025000Y-98150000D03*
X152725000Y-103000000D03*
X145000000Y-95350000D03*
X130575000Y-94225000D03*
X138850000Y-102650000D03*
X143850000Y-108875000D03*
X158975000Y-94075000D03*
X146700000Y-98975000D03*
X139900000Y-101400000D03*
X152850000Y-107925000D03*
X149250000Y-96300000D03*
X154175000Y-100975000D03*
X155250000Y-102100000D03*
X153000000Y-92975000D03*
X142775000Y-110775000D03*
X157875000Y-93000000D03*
X140275000Y-94125000D03*
X131025000Y-97200000D03*
X149050000Y-110750000D03*
X156425000Y-102175000D03*
X144975000Y-108875000D03*
X155250000Y-99075000D03*
X149475000Y-93000000D03*
X137475000Y-103525000D03*
X155325000Y-100950000D03*
X144475000Y-93000000D03*
X134875000Y-108875000D03*
X142700000Y-108900000D03*
X139200000Y-106850000D03*
X156475000Y-104950000D03*
X126200000Y-94250000D03*
X158200000Y-97175000D03*
X132650000Y-104550000D03*
X147600000Y-109750000D03*
X148975000Y-108875000D03*
X151675000Y-108500000D03*
X136125000Y-95300000D03*
X155575000Y-95300000D03*
X135400000Y-93075000D03*
X142775000Y-109775000D03*
X140000000Y-103525000D03*
X146500000Y-106675000D03*
X149550000Y-93975000D03*
X132475000Y-100450000D03*
X150175000Y-99975000D03*
X151675000Y-107425000D03*
X158300000Y-102375000D03*
X151900000Y-92975000D03*
X133475000Y-95325000D03*
X132400000Y-95325000D03*
X147600000Y-110750000D03*
X146500000Y-109750000D03*
X128300000Y-94250000D03*
X134750000Y-98175000D03*
X132575000Y-102675000D03*
X134000000Y-105975000D03*
X159275000Y-99875000D03*
X157800000Y-109850000D03*
X152725000Y-99975000D03*
X138750000Y-100425000D03*
X147825000Y-102150000D03*
X141175000Y-102700000D03*
X152875000Y-95300000D03*
X132475000Y-97200000D03*
X135400000Y-94075000D03*
X128400000Y-95325000D03*
X151625000Y-100975000D03*
X127300000Y-94250000D03*
X136650000Y-106850000D03*
X117750000Y-87000000D03*
X134675000Y-96300000D03*
X142525000Y-97225000D03*
X159300000Y-98050000D03*
X150175000Y-104000000D03*
X133950000Y-93075000D03*
X136300000Y-102650000D03*
X136400000Y-109750000D03*
X137675000Y-105975000D03*
X135200000Y-106850000D03*
X139825000Y-97175000D03*
X134850000Y-102650000D03*
X146425000Y-105800000D03*
X131025000Y-98200000D03*
X150725000Y-93000000D03*
X140275000Y-105950000D03*
X152925000Y-108800000D03*
X150175000Y-103000000D03*
X143850000Y-109775000D03*
X141525000Y-107900000D03*
X140275000Y-93125000D03*
X146425000Y-108875000D03*
X152650000Y-102125000D03*
X150100000Y-99100000D03*
X153975000Y-93975000D03*
X147525000Y-108875000D03*
X156750000Y-97175000D03*
X157725000Y-106900000D03*
X136375000Y-104525000D03*
X153950000Y-107925000D03*
X151750000Y-109375000D03*
X157075000Y-92975000D03*
X148400000Y-94000000D03*
X133750000Y-109775000D03*
X146500000Y-110750000D03*
X153875000Y-104975000D03*
X145925000Y-94000000D03*
X151550000Y-102125000D03*
X141250000Y-104575000D03*
X155475000Y-108800000D03*
X132600000Y-108900000D03*
X157725000Y-105900000D03*
X134950000Y-109750000D03*
X132400000Y-99575000D03*
X147025000Y-94000000D03*
X145050000Y-106675000D03*
X133725000Y-102650000D03*
X133725000Y-103550000D03*
X154200000Y-97175000D03*
X158225000Y-98000000D03*
X154175000Y-99975000D03*
X142200000Y-100075000D03*
X145075000Y-97225000D03*
X137750000Y-106850000D03*
X156475000Y-105850000D03*
X152725000Y-104000000D03*
X154100000Y-99100000D03*
X132850000Y-93075000D03*
X132675000Y-110775000D03*
X155650000Y-98175000D03*
X130575000Y-93225000D03*
X153950000Y-106850000D03*
X146700000Y-99975000D03*
X138925000Y-103525000D03*
X149050000Y-104000000D03*
X158950000Y-93050000D03*
X138675000Y-96300000D03*
X157725000Y-107975000D03*
X159275000Y-97175000D03*
X153000000Y-93975000D03*
X156550000Y-108800000D03*
X136200000Y-100425000D03*
X141000000Y-99600000D03*
X136325000Y-108875000D03*
X134675000Y-99550000D03*
X150125000Y-105775000D03*
X156500000Y-100025000D03*
X153975000Y-92975000D03*
X136400000Y-110750000D03*
X137725000Y-93125000D03*
X151875000Y-98175000D03*
X125225000Y-94250000D03*
X142450000Y-96350000D03*
X145600000Y-99975000D03*
X137500000Y-110750000D03*
X158125000Y-96300000D03*
X137225000Y-96300000D03*
X126200000Y-93250000D03*
X129850000Y-95325000D03*
X150100000Y-102125000D03*
X133550000Y-96300000D03*
X137475000Y-104525000D03*
X151900000Y-93975000D03*
X155575000Y-96300000D03*
X154125000Y-95300000D03*
X138875000Y-108875000D03*
X153950000Y-105850000D03*
X151800000Y-96300000D03*
X151800000Y-95300000D03*
X146500000Y-107675000D03*
X137300000Y-98175000D03*
X147600000Y-107675000D03*
X143550000Y-95350000D03*
X148975000Y-99100000D03*
X128475000Y-97200000D03*
X151750000Y-110375000D03*
X151875000Y-97175000D03*
X145050000Y-109750000D03*
X145600000Y-98975000D03*
X150425000Y-97175000D03*
X140025000Y-108850000D03*
X139125000Y-105975000D03*
X136200000Y-98175000D03*
X138925000Y-104525000D03*
X152775000Y-104975000D03*
X141275000Y-109800000D03*
X156675000Y-96300000D03*
X149050000Y-106675000D03*
X139825000Y-99525000D03*
X148975000Y-105800000D03*
X132850000Y-94075000D03*
X132475000Y-101450000D03*
X139175000Y-93125000D03*
X139900000Y-98150000D03*
X132650000Y-103550000D03*
X156425000Y-99150000D03*
X157650000Y-105025000D03*
X150200000Y-107650000D03*
X129925000Y-97200000D03*
X133750000Y-108875000D03*
X149250000Y-95300000D03*
X145925000Y-93000000D03*
X155050000Y-94025000D03*
X158825000Y-105125000D03*
X141250000Y-103575000D03*
X145050000Y-110750000D03*
X135125000Y-105975000D03*
X130950000Y-96325000D03*
X150125000Y-106675000D03*
X141075000Y-98225000D03*
X136200000Y-97175000D03*
X154175000Y-104000000D03*
X158975000Y-108950000D03*
X134075000Y-107850000D03*
X150350000Y-95300000D03*
X132400000Y-96325000D03*
X141200000Y-108925000D03*
X151675000Y-106425000D03*
X155400000Y-107925000D03*
X148975000Y-100000000D03*
X158300000Y-104200000D03*
X148975000Y-102125000D03*
X155050000Y-92975000D03*
X138950000Y-110750000D03*
X149325000Y-98175000D03*
X137225000Y-95300000D03*
X136475000Y-93075000D03*
X150425000Y-98175000D03*
X155400000Y-106850000D03*
X140275000Y-106850000D03*
X152725000Y-100975000D03*
X159375000Y-104250000D03*
X154025000Y-108800000D03*
X133550000Y-100450000D03*
X129375000Y-93250000D03*
X157900000Y-94025000D03*
X147900000Y-101000000D03*
X145075000Y-98225000D03*
X134925000Y-103525000D03*
X137725000Y-94125000D03*
X137400000Y-102650000D03*
X129850000Y-96325000D03*
X159375000Y-103200000D03*
X142750000Y-93050000D03*
X156500000Y-101025000D03*
X140000000Y-102625000D03*
X147800000Y-95300000D03*
X143850000Y-106700000D03*
X152650000Y-99100000D03*
X133550000Y-99550000D03*
X156000000Y-93975000D03*
X159350000Y-100700000D03*
X137425000Y-108875000D03*
X133625000Y-101425000D03*
X147800000Y-96300000D03*
X159200000Y-95300000D03*
X136125000Y-96300000D03*
X134950000Y-110750000D03*
X136125000Y-99550000D03*
X136200000Y-101425000D03*
X147875000Y-97175000D03*
X144475000Y-94000000D03*
X132475000Y-98200000D03*
X142200000Y-99075000D03*
X140025000Y-109750000D03*
X128400000Y-96325000D03*
X154100000Y-102125000D03*
X158300000Y-103200000D03*
X140100000Y-110725000D03*
X158900000Y-108075000D03*
X146150000Y-96325000D03*
X151625000Y-103000000D03*
X143550000Y-96350000D03*
X154175000Y-103000000D03*
X149050000Y-100975000D03*
X139750000Y-95300000D03*
X136375000Y-103525000D03*
X139200000Y-107850000D03*
X134750000Y-97175000D03*
X134925000Y-104525000D03*
X142825000Y-94025000D03*
X137750000Y-107850000D03*
X141450000Y-106025000D03*
X149050000Y-107675000D03*
X156500000Y-104050000D03*
X138950000Y-109750000D03*
X157075000Y-94025000D03*
X155250000Y-99975000D03*
X136550000Y-94050000D03*
X141075000Y-100475000D03*
X129450000Y-94225000D03*
X155325000Y-103975000D03*
X136575000Y-105975000D03*
X155650000Y-97175000D03*
X128300000Y-93250000D03*
X158275000Y-100700000D03*
X147900000Y-103025000D03*
X132850000Y-106000000D03*
X152950000Y-96275000D03*
X158900000Y-106000000D03*
X141275000Y-110800000D03*
X134675000Y-95300000D03*
X156550000Y-107900000D03*
X146075000Y-95350000D03*
X141000000Y-95350000D03*
X141000000Y-96350000D03*
X159300000Y-102375000D03*
X152850000Y-106850000D03*
X143850000Y-105800000D03*
X147025000Y-93000000D03*
X118975000Y-105050000D03*
X146225000Y-98200000D03*
X150350000Y-96300000D03*
X147900000Y-104025000D03*
X137300000Y-101425000D03*
X156625000Y-109775000D03*
X138750000Y-98175000D03*
X136650000Y-107850000D03*
X147825000Y-99125000D03*
X138750000Y-101425000D03*
X133825000Y-110750000D03*
X149325000Y-97175000D03*
X132925000Y-107875000D03*
X142450000Y-95350000D03*
%TD*%
D15*
%TO.N,/HV-_fused*%
X130000000Y-79500000D02*
X130000000Y-80140000D01*
X118975000Y-105050000D02*
X118975000Y-98025000D01*
X125240000Y-96960000D02*
X125240000Y-97030000D01*
X134160000Y-84800000D02*
X134160000Y-85090000D01*
%TD*%
%TA.AperFunction,Conductor*%
%TO.N,/HV-_fused*%
G36*
X137797240Y-77973905D02*
G01*
X137845116Y-78024794D01*
X137858523Y-78080732D01*
X137864354Y-83139766D01*
X137864354Y-83139765D01*
X137864355Y-83139767D01*
X159744946Y-83040871D01*
X159812067Y-83060252D01*
X159858060Y-83112848D01*
X159869500Y-83164869D01*
X159869500Y-111053227D01*
X159849815Y-111120266D01*
X159797011Y-111166021D01*
X159759893Y-111174218D01*
X130900000Y-111107903D01*
X130882416Y-102345602D01*
X143049500Y-102345602D01*
X143049500Y-102614397D01*
X143084582Y-102880880D01*
X143084583Y-102880885D01*
X143084584Y-102880891D01*
X143084585Y-102880893D01*
X143154152Y-103140524D01*
X143257011Y-103388850D01*
X143257019Y-103388866D01*
X143337830Y-103528832D01*
X143391413Y-103621641D01*
X143391415Y-103621644D01*
X143391416Y-103621645D01*
X143555042Y-103834888D01*
X143555048Y-103834895D01*
X143745104Y-104024951D01*
X143745110Y-104024956D01*
X143958359Y-104188587D01*
X144107968Y-104274964D01*
X144191133Y-104322980D01*
X144191149Y-104322988D01*
X144346008Y-104387132D01*
X144439474Y-104425847D01*
X144699109Y-104495416D01*
X144887319Y-104520193D01*
X144965602Y-104530500D01*
X144965603Y-104530500D01*
X145234398Y-104530500D01*
X145294905Y-104522534D01*
X145500891Y-104495416D01*
X145760526Y-104425847D01*
X145987836Y-104331692D01*
X146008850Y-104322988D01*
X146008853Y-104322986D01*
X146008859Y-104322984D01*
X146241641Y-104188587D01*
X146454890Y-104024956D01*
X146644956Y-103834890D01*
X146808587Y-103621641D01*
X146942984Y-103388859D01*
X147045847Y-103140526D01*
X147115416Y-102880891D01*
X147150500Y-102614397D01*
X147150500Y-102345603D01*
X147115416Y-102079109D01*
X147045847Y-101819474D01*
X147000795Y-101710710D01*
X146942988Y-101571149D01*
X146942980Y-101571133D01*
X146853743Y-101416572D01*
X146808587Y-101338359D01*
X146644956Y-101125110D01*
X146644951Y-101125104D01*
X146454895Y-100935048D01*
X146454888Y-100935042D01*
X146241645Y-100771416D01*
X146241644Y-100771415D01*
X146241641Y-100771413D01*
X146148832Y-100717830D01*
X146008866Y-100637019D01*
X146008850Y-100637011D01*
X145760524Y-100534152D01*
X145630708Y-100499368D01*
X145500891Y-100464584D01*
X145500885Y-100464583D01*
X145500880Y-100464582D01*
X145234398Y-100429500D01*
X145234397Y-100429500D01*
X144965603Y-100429500D01*
X144965602Y-100429500D01*
X144699119Y-100464582D01*
X144699112Y-100464583D01*
X144699109Y-100464584D01*
X144644239Y-100479286D01*
X144439475Y-100534152D01*
X144191149Y-100637011D01*
X144191133Y-100637019D01*
X143958354Y-100771416D01*
X143745111Y-100935042D01*
X143745104Y-100935048D01*
X143555048Y-101125104D01*
X143555042Y-101125111D01*
X143391416Y-101338354D01*
X143257019Y-101571133D01*
X143257011Y-101571149D01*
X143154152Y-101819475D01*
X143084585Y-102079106D01*
X143084582Y-102079119D01*
X143049500Y-102345602D01*
X130882416Y-102345602D01*
X130875000Y-98650000D01*
X127857765Y-98623060D01*
X127933350Y-98522093D01*
X127933354Y-98522086D01*
X127983596Y-98387379D01*
X127983598Y-98387372D01*
X127989999Y-98327844D01*
X127990000Y-98327827D01*
X127990000Y-97280000D01*
X125948241Y-97280000D01*
X125961178Y-97248767D01*
X125990000Y-97103869D01*
X125990000Y-96956131D01*
X125961178Y-96811233D01*
X125948241Y-96780000D01*
X127990000Y-96780000D01*
X127990000Y-95732172D01*
X127989999Y-95732155D01*
X127983598Y-95672627D01*
X127983596Y-95672620D01*
X127933354Y-95537913D01*
X127933350Y-95537906D01*
X127847190Y-95422812D01*
X127847187Y-95422809D01*
X127732093Y-95336649D01*
X127732086Y-95336645D01*
X127597379Y-95286403D01*
X127597372Y-95286401D01*
X127537844Y-95280000D01*
X125490000Y-95280000D01*
X125490000Y-96321759D01*
X125458767Y-96308822D01*
X125313869Y-96280000D01*
X125166131Y-96280000D01*
X125021233Y-96308822D01*
X124990000Y-96321759D01*
X124990000Y-95280000D01*
X122942155Y-95280000D01*
X122882627Y-95286401D01*
X122882620Y-95286403D01*
X122747913Y-95336645D01*
X122747906Y-95336649D01*
X122632812Y-95422809D01*
X122632809Y-95422812D01*
X122546649Y-95537906D01*
X122546645Y-95537913D01*
X122496403Y-95672620D01*
X122496401Y-95672627D01*
X122490000Y-95732155D01*
X122490000Y-96780000D01*
X124531759Y-96780000D01*
X124518822Y-96811233D01*
X124490000Y-96956131D01*
X124490000Y-97103869D01*
X124518822Y-97248767D01*
X124531759Y-97280000D01*
X122490000Y-97280000D01*
X122490000Y-98327844D01*
X122496401Y-98387372D01*
X122496404Y-98387383D01*
X122503676Y-98406881D01*
X122508660Y-98476573D01*
X122475174Y-98537896D01*
X122413850Y-98571380D01*
X122386387Y-98574208D01*
X114196798Y-98501087D01*
X114129937Y-98480805D01*
X114084655Y-98427594D01*
X114073910Y-98378204D01*
X113901074Y-79052400D01*
X113920158Y-78985188D01*
X113972551Y-78938963D01*
X114019995Y-78927396D01*
X128602062Y-78330559D01*
X128622182Y-78335583D01*
X128642928Y-78335734D01*
X128662053Y-78345538D01*
X128669845Y-78347484D01*
X128674925Y-78350629D01*
X128678865Y-78353202D01*
X128733644Y-78395235D01*
X128816431Y-78443032D01*
X128819270Y-78444886D01*
X128839833Y-78468969D01*
X128861688Y-78491890D01*
X128862354Y-78495345D01*
X128864639Y-78498022D01*
X128868916Y-78529393D01*
X128874912Y-78560497D01*
X128873664Y-78564212D01*
X128874079Y-78567251D01*
X128868931Y-78578309D01*
X128857012Y-78613808D01*
X128815643Y-78680876D01*
X128815641Y-78680881D01*
X128760494Y-78847303D01*
X128760493Y-78847310D01*
X128750000Y-78950014D01*
X128750000Y-79250000D01*
X129555440Y-79250000D01*
X129524755Y-79303147D01*
X129490000Y-79432857D01*
X129490000Y-79567143D01*
X129524755Y-79696853D01*
X129555440Y-79750000D01*
X128750000Y-79750000D01*
X128750000Y-80049985D01*
X128760493Y-80152689D01*
X128760494Y-80152696D01*
X128815641Y-80319118D01*
X128815643Y-80319123D01*
X128907684Y-80468344D01*
X129031655Y-80592315D01*
X129180876Y-80684356D01*
X129180881Y-80684358D01*
X129347303Y-80739505D01*
X129347310Y-80739506D01*
X129450014Y-80749999D01*
X129450027Y-80750000D01*
X129750000Y-80750000D01*
X129750000Y-79944560D01*
X129803147Y-79975245D01*
X129932857Y-80010000D01*
X130067143Y-80010000D01*
X130196853Y-79975245D01*
X130250000Y-79944560D01*
X130250000Y-80750000D01*
X130549973Y-80750000D01*
X130549985Y-80749999D01*
X130652689Y-80739506D01*
X130652696Y-80739505D01*
X130819118Y-80684358D01*
X130819123Y-80684356D01*
X130968344Y-80592315D01*
X131092315Y-80468344D01*
X131184356Y-80319123D01*
X131184358Y-80319118D01*
X131239505Y-80152696D01*
X131239506Y-80152689D01*
X131249999Y-80049985D01*
X131250000Y-80049972D01*
X131250000Y-79750000D01*
X130444560Y-79750000D01*
X130475245Y-79696853D01*
X130510000Y-79567143D01*
X130510000Y-79432857D01*
X130475245Y-79303147D01*
X130444560Y-79250000D01*
X131250000Y-79250000D01*
X131250000Y-78950027D01*
X131249999Y-78950014D01*
X131239506Y-78847310D01*
X131239505Y-78847303D01*
X131184358Y-78680881D01*
X131184355Y-78680874D01*
X131142988Y-78613809D01*
X131124547Y-78546416D01*
X131145469Y-78479753D01*
X131186523Y-78441326D01*
X131266356Y-78395235D01*
X131474351Y-78235634D01*
X131539520Y-78210441D01*
X131544716Y-78210118D01*
X137729454Y-77956979D01*
X137797240Y-77973905D01*
G37*
%TD.AperFunction*%
%TD*%
%TA.AperFunction,Conductor*%
%TO.N,/HV-_fused*%
G36*
X130875000Y-98650000D02*
G01*
X130900000Y-111107903D01*
X159759893Y-111174218D01*
X159746280Y-111177225D01*
X128768395Y-111372190D01*
X128701233Y-111352927D01*
X128655147Y-111300412D01*
X128644769Y-111231318D01*
X128673393Y-111167581D01*
X128688938Y-111152350D01*
X128959396Y-110930391D01*
X129240391Y-110649396D01*
X129492491Y-110342212D01*
X129713267Y-110011796D01*
X129900594Y-109661332D01*
X130052668Y-109294194D01*
X130168023Y-108913919D01*
X130245550Y-108524167D01*
X130284500Y-108128694D01*
X130284500Y-107731306D01*
X130245550Y-107335833D01*
X130168023Y-106946081D01*
X130052668Y-106565806D01*
X129900594Y-106198668D01*
X129713267Y-105848204D01*
X129713256Y-105848187D01*
X129492503Y-105517805D01*
X129492496Y-105517795D01*
X129492491Y-105517788D01*
X129300349Y-105283663D01*
X129273037Y-105219355D01*
X129284828Y-105150488D01*
X129300347Y-105126339D01*
X129492491Y-104892212D01*
X129713267Y-104561796D01*
X129900594Y-104211332D01*
X130052668Y-103844194D01*
X130168023Y-103463919D01*
X130245550Y-103074167D01*
X130284500Y-102678694D01*
X130284500Y-102281306D01*
X130245550Y-101885833D01*
X130168023Y-101496081D01*
X130052668Y-101115806D01*
X129900594Y-100748668D01*
X129840916Y-100637019D01*
X129713273Y-100398215D01*
X129713271Y-100398213D01*
X129713267Y-100398204D01*
X129713256Y-100398187D01*
X129492503Y-100067805D01*
X129492496Y-100067795D01*
X129492491Y-100067788D01*
X129240391Y-99760604D01*
X129240390Y-99760603D01*
X129240386Y-99760598D01*
X128959401Y-99479613D01*
X128652217Y-99227513D01*
X128652194Y-99227496D01*
X128321812Y-99006743D01*
X128321784Y-99006726D01*
X127971339Y-98819409D01*
X127971323Y-98819402D01*
X127919924Y-98798111D01*
X127865521Y-98754270D01*
X127843457Y-98687975D01*
X127860021Y-98623080D01*
X130875000Y-98650000D01*
G37*
%TD.AperFunction*%
%TD*%
D16*
%TO.C,HV1*%
X146675000Y-75450000D03*
X140675000Y-75450000D03*
D17*
X143675000Y-79390000D03*
D18*
X143675000Y-76390000D03*
%TD*%
D16*
%TO.C,LED1*%
X133000000Y-75560000D03*
X127000000Y-75560000D03*
D17*
X130000000Y-79500000D03*
D18*
X130000000Y-76500000D03*
%TD*%
D19*
%TO.C,Q2*%
X145100000Y-102480000D03*
D20*
X125240000Y-97030000D03*
D21*
X125240000Y-102480000D03*
X125240000Y-107930000D03*
%TD*%
D22*
%TO.C,H3*%
X118679999Y-73530000D03*
%TD*%
%TO.C,H4*%
X118669999Y-115990001D03*
%TD*%
%TO.C,H4*%
X154980001Y-73590000D03*
%TD*%
%TO.C,H3*%
X154970001Y-115990001D03*
%TD*%
D23*
%TO.P,F2,1*%
%TO.N,/HV-_fused*%
X135137500Y-85350000D03*
%TO.P,F2,2*%
%TO.N,/HV-*%
X138112500Y-85350000D03*
%TD*%
D24*
%TO.P,F1,1*%
%TO.N,/HV+*%
X155700000Y-84312500D03*
%TO.P,F1,2*%
%TO.N,/HV+_fused*%
X155700000Y-87287500D03*
%TD*%
D25*
%TO.P,D3,1,K*%
%TO.N,/HV+_fused*%
X150875000Y-88475000D03*
%TO.P,D3,2,A*%
%TO.N,Net-(D3-A)*%
X148075000Y-88475000D03*
%TD*%
D26*
%TO.P,D4,1,A1*%
%TO.N,/HV-_fused*%
X118975000Y-106675000D03*
%TO.P,D4,2,A2*%
%TO.N,Net-(D4-A2)*%
X116875000Y-106675000D03*
%TD*%
D27*
%TO.P,D5,1,K*%
%TO.N,Net-(D4-A2)*%
X116400000Y-88500000D03*
%TO.P,D5,2,A*%
%TO.N,/HV-_fused*%
X117800000Y-88500000D03*
%TD*%
D10*
%TO.P,HV1,1,Pin_1*%
%TO.N,/HV-*%
X143675000Y-79390000D03*
D11*
%TO.P,HV1,2,Pin_2*%
%TO.N,/HV+*%
X143675000Y-76390000D03*
%TD*%
D10*
%TO.P,LED1,1,Pin_1*%
%TO.N,/HV-_fused*%
X130000000Y-79500000D03*
D11*
%TO.P,LED1,2,Pin_2*%
%TO.N,/LED+*%
X130000000Y-76500000D03*
%TD*%
D12*
%TO.P,Q2,1,G*%
%TO.N,/HV-_fused*%
X125240000Y-97030000D03*
D13*
%TO.P,Q2,2,D*%
%TO.N,Net-(D3-A)*%
X125240000Y-102480000D03*
%TO.P,Q2,3,S*%
%TO.N,Net-(D4-A2)*%
X125240000Y-107930000D03*
%TD*%
D28*
%TO.P,R1,1*%
%TO.N,Net-(D4-A2)*%
X117125000Y-85125000D03*
%TO.P,R1,2*%
%TO.N,/LED+*%
X117125000Y-83125000D03*
%TD*%
D14*
%TO.N,/HV-_fused*%
X132925000Y-85325000D03*
X146150000Y-97225000D03*
X134750000Y-100425000D03*
X132925000Y-106875000D03*
X141525000Y-106900000D03*
X133800000Y-104525000D03*
X140350000Y-107825000D03*
X147600000Y-106675000D03*
X135200000Y-107850000D03*
X152925000Y-109800000D03*
X154025000Y-109800000D03*
X155475000Y-109800000D03*
X156550000Y-106825000D03*
X159350000Y-101750000D03*
X138675000Y-99550000D03*
X151550000Y-99100000D03*
X137300000Y-100425000D03*
X142775000Y-107700000D03*
X139175000Y-94125000D03*
X140075000Y-104500000D03*
X141075000Y-97225000D03*
X159200000Y-96350000D03*
X142700000Y-105825000D03*
X143925000Y-107675000D03*
X151625000Y-99975000D03*
X137500000Y-109750000D03*
X141075000Y-101475000D03*
X156000000Y-92975000D03*
X143300000Y-100075000D03*
X152950000Y-97175000D03*
X125225000Y-93250000D03*
X132675000Y-109775000D03*
X155400000Y-105850000D03*
X150175000Y-100975000D03*
X139825000Y-96275000D03*
X158200000Y-98825000D03*
X156750000Y-98175000D03*
X127300000Y-93250000D03*
X150725000Y-94000000D03*
X148400000Y-93000000D03*
X158975000Y-109950000D03*
X145050000Y-107675000D03*
X141675000Y-93050000D03*
X156500000Y-103050000D03*
X143925000Y-110750000D03*
X150200000Y-110725000D03*
X137300000Y-97175000D03*
X155250000Y-103000000D03*
X142775000Y-106700000D03*
X129925000Y-98200000D03*
X143300000Y-99075000D03*
X139825000Y-100425000D03*
X133625000Y-98175000D03*
X157800000Y-108850000D03*
X143625000Y-97225000D03*
X142525000Y-98225000D03*
X128475000Y-98200000D03*
X154200000Y-98175000D03*
X137225000Y-99550000D03*
X154125000Y-96300000D03*
X147525000Y-105800000D03*
X158275000Y-101700000D03*
X158900000Y-107000000D03*
X130950000Y-95325000D03*
X144975000Y-105800000D03*
X147875000Y-98175000D03*
X138750000Y-97175000D03*
X141675000Y-94050000D03*
X143625000Y-98225000D03*
X134000000Y-106875000D03*
X133950000Y-94075000D03*
X138675000Y-95300000D03*
X149050000Y-109750000D03*
X156675000Y-95300000D03*
X134750000Y-101425000D03*
X151625000Y-104000000D03*
X158125000Y-95300000D03*
X150125000Y-108850000D03*
X145000000Y-96350000D03*
X159275000Y-98825000D03*
X151600000Y-105550000D03*
X152850000Y-105850000D03*
X148975000Y-103025000D03*
X155325000Y-104975000D03*
X147900000Y-100000000D03*
X133550000Y-97200000D03*
X150125000Y-109750000D03*
X158275000Y-99875000D03*
X153025000Y-98150000D03*
X152725000Y-103000000D03*
X145000000Y-95350000D03*
X130575000Y-94225000D03*
X138850000Y-102650000D03*
X143850000Y-108875000D03*
X158975000Y-94075000D03*
X146700000Y-98975000D03*
X139900000Y-101400000D03*
X152850000Y-107925000D03*
X149250000Y-96300000D03*
X154175000Y-100975000D03*
X155250000Y-102100000D03*
X153000000Y-92975000D03*
X142775000Y-110775000D03*
X157875000Y-93000000D03*
X140275000Y-94125000D03*
X131025000Y-97200000D03*
X149050000Y-110750000D03*
X156425000Y-102175000D03*
X144975000Y-108875000D03*
X155250000Y-99075000D03*
X149475000Y-93000000D03*
X137475000Y-103525000D03*
X155325000Y-100950000D03*
X144475000Y-93000000D03*
X134875000Y-108875000D03*
X142700000Y-108900000D03*
X139200000Y-106850000D03*
X156475000Y-104950000D03*
X126200000Y-94250000D03*
X158200000Y-97175000D03*
X132650000Y-104550000D03*
X147600000Y-109750000D03*
X148975000Y-108875000D03*
X151675000Y-108500000D03*
X136125000Y-95300000D03*
X155575000Y-95300000D03*
X135400000Y-93075000D03*
X142775000Y-109775000D03*
X140000000Y-103525000D03*
X146500000Y-106675000D03*
X149550000Y-93975000D03*
X132475000Y-100450000D03*
X150175000Y-99975000D03*
X151675000Y-107425000D03*
X158300000Y-102375000D03*
X151900000Y-92975000D03*
X133475000Y-95325000D03*
X132400000Y-95325000D03*
X147600000Y-110750000D03*
X146500000Y-109750000D03*
X128300000Y-94250000D03*
X134750000Y-98175000D03*
X132575000Y-102675000D03*
X134000000Y-105975000D03*
X159275000Y-99875000D03*
X157800000Y-109850000D03*
X152725000Y-99975000D03*
X138750000Y-100425000D03*
X147825000Y-102150000D03*
X141175000Y-102700000D03*
X152875000Y-95300000D03*
X132475000Y-97200000D03*
X135400000Y-94075000D03*
X128400000Y-95325000D03*
X151625000Y-100975000D03*
X127300000Y-94250000D03*
X136650000Y-106850000D03*
X117750000Y-87000000D03*
X134675000Y-96300000D03*
X142525000Y-97225000D03*
X159300000Y-98050000D03*
X150175000Y-104000000D03*
X133950000Y-93075000D03*
X136300000Y-102650000D03*
X136400000Y-109750000D03*
X137675000Y-105975000D03*
X135200000Y-106850000D03*
X139825000Y-97175000D03*
X134850000Y-102650000D03*
X146425000Y-105800000D03*
X131025000Y-98200000D03*
X150725000Y-93000000D03*
X140275000Y-105950000D03*
X152925000Y-108800000D03*
X150175000Y-103000000D03*
X143850000Y-109775000D03*
X141525000Y-107900000D03*
X140275000Y-93125000D03*
X146425000Y-108875000D03*
X152650000Y-102125000D03*
X150100000Y-99100000D03*
X153975000Y-93975000D03*
X147525000Y-108875000D03*
X156750000Y-97175000D03*
X157725000Y-106900000D03*
X136375000Y-104525000D03*
X153950000Y-107925000D03*
X151750000Y-109375000D03*
X157075000Y-92975000D03*
X148400000Y-94000000D03*
X133750000Y-109775000D03*
X146500000Y-110750000D03*
X153875000Y-104975000D03*
X145925000Y-94000000D03*
X151550000Y-102125000D03*
X141250000Y-104575000D03*
X155475000Y-108800000D03*
X132600000Y-108900000D03*
X157725000Y-105900000D03*
X134950000Y-109750000D03*
X132400000Y-99575000D03*
X147025000Y-94000000D03*
X145050000Y-106675000D03*
X133725000Y-102650000D03*
X133725000Y-103550000D03*
X154200000Y-97175000D03*
X158225000Y-98000000D03*
X154175000Y-99975000D03*
X142200000Y-100075000D03*
X145075000Y-97225000D03*
X137750000Y-106850000D03*
X156475000Y-105850000D03*
X152725000Y-104000000D03*
X154100000Y-99100000D03*
X132850000Y-93075000D03*
X132675000Y-110775000D03*
X155650000Y-98175000D03*
X130575000Y-93225000D03*
X153950000Y-106850000D03*
X146700000Y-99975000D03*
X138925000Y-103525000D03*
X149050000Y-104000000D03*
X158950000Y-93050000D03*
X138675000Y-96300000D03*
X157725000Y-107975000D03*
X159275000Y-97175000D03*
X153000000Y-93975000D03*
X156550000Y-108800000D03*
X136200000Y-100425000D03*
X141000000Y-99600000D03*
X136325000Y-108875000D03*
X134675000Y-99550000D03*
X150125000Y-105775000D03*
X156500000Y-100025000D03*
X153975000Y-92975000D03*
X136400000Y-110750000D03*
X137725000Y-93125000D03*
X151875000Y-98175000D03*
X125225000Y-94250000D03*
X142450000Y-96350000D03*
X145600000Y-99975000D03*
X137500000Y-110750000D03*
X158125000Y-96300000D03*
X137225000Y-96300000D03*
X126200000Y-93250000D03*
X129850000Y-95325000D03*
X150100000Y-102125000D03*
X133550000Y-96300000D03*
X137475000Y-104525000D03*
X151900000Y-93975000D03*
X155575000Y-96300000D03*
X154125000Y-95300000D03*
X138875000Y-108875000D03*
X153950000Y-105850000D03*
X151800000Y-96300000D03*
X151800000Y-95300000D03*
X146500000Y-107675000D03*
X137300000Y-98175000D03*
X147600000Y-107675000D03*
X143550000Y-95350000D03*
X148975000Y-99100000D03*
X128475000Y-97200000D03*
X151750000Y-110375000D03*
X151875000Y-97175000D03*
X145050000Y-109750000D03*
X145600000Y-98975000D03*
X150425000Y-97175000D03*
X140025000Y-108850000D03*
X139125000Y-105975000D03*
X136200000Y-98175000D03*
X138925000Y-104525000D03*
X152775000Y-104975000D03*
X141275000Y-109800000D03*
X156675000Y-96300000D03*
X149050000Y-106675000D03*
X139825000Y-99525000D03*
X148975000Y-105800000D03*
X132850000Y-94075000D03*
X132475000Y-101450000D03*
X139175000Y-93125000D03*
X139900000Y-98150000D03*
X132650000Y-103550000D03*
X156425000Y-99150000D03*
X157650000Y-105025000D03*
X150200000Y-107650000D03*
X129925000Y-97200000D03*
X133750000Y-108875000D03*
X149250000Y-95300000D03*
X145925000Y-93000000D03*
X155050000Y-94025000D03*
X158825000Y-105125000D03*
X141250000Y-103575000D03*
X145050000Y-110750000D03*
X135125000Y-105975000D03*
X130950000Y-96325000D03*
X150125000Y-106675000D03*
X141075000Y-98225000D03*
X136200000Y-97175000D03*
X154175000Y-104000000D03*
X158975000Y-108950000D03*
X134075000Y-107850000D03*
X150350000Y-95300000D03*
X132400000Y-96325000D03*
X141200000Y-108925000D03*
X151675000Y-106425000D03*
X155400000Y-107925000D03*
X148975000Y-100000000D03*
X158300000Y-104200000D03*
X148975000Y-102125000D03*
X155050000Y-92975000D03*
X138950000Y-110750000D03*
X149325000Y-98175000D03*
X137225000Y-95300000D03*
X136475000Y-93075000D03*
X150425000Y-98175000D03*
X155400000Y-106850000D03*
X140275000Y-106850000D03*
X152725000Y-100975000D03*
X159375000Y-104250000D03*
X154025000Y-108800000D03*
X133550000Y-100450000D03*
X129375000Y-93250000D03*
X157900000Y-94025000D03*
X147900000Y-101000000D03*
X145075000Y-98225000D03*
X134925000Y-103525000D03*
X137725000Y-94125000D03*
X137400000Y-102650000D03*
X129850000Y-96325000D03*
X159375000Y-103200000D03*
X142750000Y-93050000D03*
X156500000Y-101025000D03*
X140000000Y-102625000D03*
X147800000Y-95300000D03*
X143850000Y-106700000D03*
X152650000Y-99100000D03*
X133550000Y-99550000D03*
X156000000Y-93975000D03*
X159350000Y-100700000D03*
X137425000Y-108875000D03*
X133625000Y-101425000D03*
X147800000Y-96300000D03*
X159200000Y-95300000D03*
X136125000Y-96300000D03*
X134950000Y-110750000D03*
X136125000Y-99550000D03*
X136200000Y-101425000D03*
X147875000Y-97175000D03*
X144475000Y-94000000D03*
X132475000Y-98200000D03*
X142200000Y-99075000D03*
X140025000Y-109750000D03*
X128400000Y-96325000D03*
X154100000Y-102125000D03*
X158300000Y-103200000D03*
X140100000Y-110725000D03*
X158900000Y-108075000D03*
X146150000Y-96325000D03*
X151625000Y-103000000D03*
X143550000Y-96350000D03*
X154175000Y-103000000D03*
X149050000Y-100975000D03*
X139750000Y-95300000D03*
X136375000Y-103525000D03*
X139200000Y-107850000D03*
X134750000Y-97175000D03*
X134925000Y-104525000D03*
X142825000Y-94025000D03*
X137750000Y-107850000D03*
X141450000Y-106025000D03*
X149050000Y-107675000D03*
X156500000Y-104050000D03*
X138950000Y-109750000D03*
X157075000Y-94025000D03*
X155250000Y-99975000D03*
X136550000Y-94050000D03*
X141075000Y-100475000D03*
X129450000Y-94225000D03*
X155325000Y-103975000D03*
X136575000Y-105975000D03*
X155650000Y-97175000D03*
X128300000Y-93250000D03*
X158275000Y-100700000D03*
X147900000Y-103025000D03*
X132850000Y-106000000D03*
X152950000Y-96275000D03*
X158900000Y-106000000D03*
X141275000Y-110800000D03*
X134675000Y-95300000D03*
X156550000Y-107900000D03*
X146075000Y-95350000D03*
X141000000Y-95350000D03*
X141000000Y-96350000D03*
X159300000Y-102375000D03*
X152850000Y-106850000D03*
X143850000Y-105800000D03*
X147025000Y-93000000D03*
X118975000Y-105050000D03*
X146225000Y-98200000D03*
X150350000Y-96300000D03*
X147900000Y-104025000D03*
X137300000Y-101425000D03*
X156625000Y-109775000D03*
X138750000Y-98175000D03*
X136650000Y-107850000D03*
X147825000Y-99125000D03*
X138750000Y-101425000D03*
X133825000Y-110750000D03*
X149325000Y-97175000D03*
X132925000Y-107875000D03*
X142450000Y-95350000D03*
%TD*%
D15*
%TO.N,/HV+_fused*%
X155700000Y-88340000D02*
X155700000Y-87287500D01*
%TO.N,/HV+*%
X155700000Y-84312500D02*
X155700000Y-83260000D01*
X155700000Y-83260000D02*
X148940000Y-76500000D01*
%TO.N,/HV-_fused*%
X135137500Y-85350000D02*
X132950000Y-85350000D01*
X132950000Y-85350000D02*
X132925000Y-85325000D01*
%TO.N,/HV-*%
X138112500Y-85350000D02*
X138112500Y-85087500D01*
X138112500Y-85087500D02*
X143700000Y-79500000D01*
%TO.N,/HV+_fused*%
X155700000Y-88340000D02*
X151010000Y-88340000D01*
X151010000Y-88340000D02*
X150875000Y-88475000D01*
%TO.N,/HV-_fused*%
X130000000Y-79500000D02*
X130000000Y-80140000D01*
X118975000Y-105050000D02*
X118975000Y-106675000D01*
X117800000Y-88500000D02*
X117800000Y-87050000D01*
X117800000Y-87050000D02*
X117750000Y-87000000D01*
%TO.N,/LED+*%
X130000000Y-76500000D02*
X123375000Y-83125000D01*
X123375000Y-83125000D02*
X117125000Y-83125000D01*
%TO.N,Net-(D3-A)*%
X125240000Y-102480000D02*
X127170000Y-102480000D01*
X119675000Y-90150000D02*
X119675000Y-102350000D01*
X148075000Y-88475000D02*
X121350000Y-88475000D01*
X119805000Y-102480000D02*
X125240000Y-102480000D01*
X121350000Y-88475000D02*
X119675000Y-90150000D01*
X119675000Y-102350000D02*
X119805000Y-102480000D01*
%TO.N,/HV+*%
X143700000Y-76500000D02*
X148940000Y-76500000D01*
%TO.N,Net-(D4-A2)*%
X116400000Y-88500000D02*
X116400000Y-106200000D01*
X116400000Y-88500000D02*
X116400000Y-85850000D01*
X125135000Y-107825000D02*
X125240000Y-107930000D01*
X116400000Y-106200000D02*
X116875000Y-106675000D01*
X116875000Y-106675000D02*
X118130000Y-107930000D01*
X118130000Y-107930000D02*
X125240000Y-107930000D01*
X116975000Y-106575000D02*
X116875000Y-106675000D01*
X116400000Y-85850000D02*
X117125000Y-85125000D01*
%TD*%
%TA.AperFunction,Conductor*%
%TO.N,/HV-_fused*%
G36*
X159812101Y-92295474D02*
G01*
X159858077Y-92348085D01*
X159869500Y-92400070D01*
X159869500Y-111053227D01*
X159849815Y-111120266D01*
X159797011Y-111166021D01*
X159746280Y-111177225D01*
X128768395Y-111372190D01*
X128701233Y-111352927D01*
X128655147Y-111300412D01*
X128644769Y-111231318D01*
X128673393Y-111167581D01*
X128688938Y-111152350D01*
X128959396Y-110930391D01*
X129240391Y-110649396D01*
X129492491Y-110342212D01*
X129713267Y-110011796D01*
X129900594Y-109661332D01*
X130052668Y-109294194D01*
X130168023Y-108913919D01*
X130245550Y-108524167D01*
X130284500Y-108128694D01*
X130284500Y-107731306D01*
X130245550Y-107335833D01*
X130168023Y-106946081D01*
X130052668Y-106565806D01*
X129900594Y-106198668D01*
X129713267Y-105848204D01*
X129713256Y-105848187D01*
X129492503Y-105517805D01*
X129492496Y-105517795D01*
X129492491Y-105517788D01*
X129300349Y-105283663D01*
X129273037Y-105219355D01*
X129284828Y-105150488D01*
X129300347Y-105126339D01*
X129492491Y-104892212D01*
X129713267Y-104561796D01*
X129900594Y-104211332D01*
X130052668Y-103844194D01*
X130168023Y-103463919D01*
X130245550Y-103074167D01*
X130284500Y-102678694D01*
X130284500Y-102345602D01*
X143049500Y-102345602D01*
X143049500Y-102614397D01*
X143084582Y-102880880D01*
X143084583Y-102880885D01*
X143084584Y-102880891D01*
X143084585Y-102880893D01*
X143154152Y-103140524D01*
X143257011Y-103388850D01*
X143257019Y-103388866D01*
X143300352Y-103463919D01*
X143391413Y-103621641D01*
X143391415Y-103621644D01*
X143391416Y-103621645D01*
X143555042Y-103834888D01*
X143555048Y-103834895D01*
X143745104Y-104024951D01*
X143745110Y-104024956D01*
X143958359Y-104188587D01*
X144107968Y-104274964D01*
X144191133Y-104322980D01*
X144191149Y-104322988D01*
X144346008Y-104387132D01*
X144439474Y-104425847D01*
X144699109Y-104495416D01*
X144887319Y-104520193D01*
X144965602Y-104530500D01*
X144965603Y-104530500D01*
X145234398Y-104530500D01*
X145294905Y-104522534D01*
X145500891Y-104495416D01*
X145760526Y-104425847D01*
X145947457Y-104348417D01*
X146008850Y-104322988D01*
X146008853Y-104322986D01*
X146008859Y-104322984D01*
X146241641Y-104188587D01*
X146454890Y-104024956D01*
X146644956Y-103834890D01*
X146808587Y-103621641D01*
X146942984Y-103388859D01*
X147045847Y-103140526D01*
X147115416Y-102880891D01*
X147150500Y-102614397D01*
X147150500Y-102345603D01*
X147115416Y-102079109D01*
X147045847Y-101819474D01*
X147007132Y-101726008D01*
X146942988Y-101571149D01*
X146942980Y-101571133D01*
X146894964Y-101487968D01*
X146808587Y-101338359D01*
X146644956Y-101125110D01*
X146644951Y-101125104D01*
X146454895Y-100935048D01*
X146454888Y-100935042D01*
X146241645Y-100771416D01*
X146241644Y-100771415D01*
X146241641Y-100771413D01*
X146148832Y-100717830D01*
X146008866Y-100637019D01*
X146008850Y-100637011D01*
X145760524Y-100534152D01*
X145630708Y-100499368D01*
X145500891Y-100464584D01*
X145500885Y-100464583D01*
X145500880Y-100464582D01*
X145234398Y-100429500D01*
X145234397Y-100429500D01*
X144965603Y-100429500D01*
X144965602Y-100429500D01*
X144699119Y-100464582D01*
X144699112Y-100464583D01*
X144699109Y-100464584D01*
X144644239Y-100479286D01*
X144439475Y-100534152D01*
X144191149Y-100637011D01*
X144191133Y-100637019D01*
X143958354Y-100771416D01*
X143745111Y-100935042D01*
X143745104Y-100935048D01*
X143555048Y-101125104D01*
X143555042Y-101125111D01*
X143391416Y-101338354D01*
X143257019Y-101571133D01*
X143257011Y-101571149D01*
X143154152Y-101819475D01*
X143084585Y-102079106D01*
X143084582Y-102079119D01*
X143049500Y-102345602D01*
X130284500Y-102345602D01*
X130284500Y-102281306D01*
X130245550Y-101885833D01*
X130168023Y-101496081D01*
X130052668Y-101115806D01*
X129900594Y-100748668D01*
X129840916Y-100637019D01*
X129713273Y-100398215D01*
X129713271Y-100398213D01*
X129713267Y-100398204D01*
X129713256Y-100398187D01*
X129492503Y-100067805D01*
X129492496Y-100067795D01*
X129492491Y-100067788D01*
X129240391Y-99760604D01*
X129240390Y-99760603D01*
X129240386Y-99760598D01*
X128959401Y-99479613D01*
X128652217Y-99227513D01*
X128652194Y-99227496D01*
X128321812Y-99006743D01*
X128321784Y-99006726D01*
X127971339Y-98819409D01*
X127971323Y-98819402D01*
X127919924Y-98798111D01*
X127865521Y-98754270D01*
X127843457Y-98687975D01*
X127860737Y-98620276D01*
X127868112Y-98609239D01*
X127933352Y-98522089D01*
X127933354Y-98522086D01*
X127983596Y-98387379D01*
X127983598Y-98387372D01*
X127989999Y-98327844D01*
X127990000Y-98327827D01*
X127990000Y-97280000D01*
X125948241Y-97280000D01*
X125961178Y-97248767D01*
X125990000Y-97103869D01*
X125990000Y-96956131D01*
X125961178Y-96811233D01*
X125948241Y-96780000D01*
X127990000Y-96780000D01*
X127990000Y-95732172D01*
X127989999Y-95732155D01*
X127983598Y-95672627D01*
X127983596Y-95672620D01*
X127933354Y-95537913D01*
X127933350Y-95537906D01*
X127847190Y-95422812D01*
X127847187Y-95422809D01*
X127732093Y-95336649D01*
X127732086Y-95336645D01*
X127597379Y-95286403D01*
X127597372Y-95286401D01*
X127537844Y-95280000D01*
X125490000Y-95280000D01*
X125490000Y-96321759D01*
X125458767Y-96308822D01*
X125313869Y-96280000D01*
X125166131Y-96280000D01*
X125021233Y-96308822D01*
X124990000Y-96321759D01*
X124990000Y-95280000D01*
X124409796Y-95280000D01*
X124342757Y-95260315D01*
X124297002Y-95207511D01*
X124285797Y-95156490D01*
X124275490Y-92549073D01*
X124294909Y-92481956D01*
X124347532Y-92435993D01*
X124398967Y-92424584D01*
X159744980Y-92276071D01*
X159812101Y-92295474D01*
G37*
%TD.AperFunction*%
%TD*%
D29*
%TO.C,F2*%
X135137500Y-85350000D03*
X138112500Y-85350000D03*
%TD*%
D30*
%TO.C,F1*%
X155700000Y-84312500D03*
X155700000Y-87287500D03*
%TD*%
D31*
%TO.C,D3*%
X150875000Y-88475000D03*
X148075000Y-88475000D03*
%TD*%
D32*
%TO.C,D4*%
X118975000Y-106675000D03*
X116875000Y-106675000D03*
%TD*%
D33*
%TO.C,D5*%
X116400000Y-88500000D03*
X117800000Y-88500000D03*
%TD*%
D16*
%TO.C,HV1*%
X146675000Y-75450000D03*
X140675000Y-75450000D03*
D17*
X143675000Y-79390000D03*
D18*
X143675000Y-76390000D03*
%TD*%
D16*
%TO.C,LED1*%
X133000000Y-75560000D03*
X127000000Y-75560000D03*
D17*
X130000000Y-79500000D03*
D18*
X130000000Y-76500000D03*
%TD*%
D19*
%TO.C,Q2*%
X145100000Y-102480000D03*
D20*
X125240000Y-97030000D03*
D21*
X125240000Y-102480000D03*
X125240000Y-107930000D03*
%TD*%
D22*
%TO.C,H3*%
X118679999Y-73530000D03*
%TD*%
%TO.C,H4*%
X118669999Y-115990001D03*
%TD*%
D34*
%TO.C,R1*%
X117125000Y-85125000D03*
X117125000Y-83125000D03*
%TD*%
D22*
%TO.C,H4*%
X154980001Y-73590000D03*
%TD*%
%TO.C,H3*%
X154970001Y-115990001D03*
%TD*%
G36*
X151150133Y-94619685D02*
G01*
X151195888Y-94672489D01*
X151207094Y-94724000D01*
X151207094Y-110201000D01*
X151187409Y-110268039D01*
X151134605Y-110313794D01*
X151083094Y-110325000D01*
X130581094Y-110325000D01*
X130514055Y-110305315D01*
X130468300Y-110252511D01*
X130457094Y-110201000D01*
X130457094Y-94724000D01*
X130476779Y-94656961D01*
X130529583Y-94611206D01*
X130581094Y-94600000D01*
X151083094Y-94600000D01*
X151150133Y-94619685D01*
G37*
D29*
%TO.C,F2*%
X135137500Y-85350000D03*
X138112500Y-85350000D03*
%TD*%
D30*
%TO.C,F1*%
X155700000Y-84312500D03*
X155700000Y-87287500D03*
%TD*%
D31*
%TO.C,D3*%
X150875000Y-88475000D03*
X148075000Y-88475000D03*
%TD*%
D32*
%TO.C,D4*%
X118975000Y-106675000D03*
X116875000Y-106675000D03*
%TD*%
D33*
%TO.C,D5*%
X116400000Y-88500000D03*
X117800000Y-88500000D03*
%TD*%
D34*
%TO.C,R1*%
X117125000Y-85125000D03*
X117125000Y-83125000D03*
%TD*%
D35*
X129781653Y-117490828D02*
X130138796Y-118490828D01*
X130138796Y-118490828D02*
X130495939Y-117490828D01*
X131853082Y-118490828D02*
X130995939Y-118490828D01*
X131424510Y-118490828D02*
X131424510Y-116990828D01*
X131424510Y-116990828D02*
X131281653Y-117205114D01*
X131281653Y-117205114D02*
X131138796Y-117347971D01*
X131138796Y-117347971D02*
X130995939Y-117419400D01*
X132495938Y-118347971D02*
X132567367Y-118419400D01*
X132567367Y-118419400D02*
X132495938Y-118490828D01*
X132495938Y-118490828D02*
X132424510Y-118419400D01*
X132424510Y-118419400D02*
X132495938Y-118347971D01*
X132495938Y-118347971D02*
X132495938Y-118490828D01*
X133138796Y-117133685D02*
X133210224Y-117062257D01*
X133210224Y-117062257D02*
X133353082Y-116990828D01*
X133353082Y-116990828D02*
X133710224Y-116990828D01*
X133710224Y-116990828D02*
X133853082Y-117062257D01*
X133853082Y-117062257D02*
X133924510Y-117133685D01*
X133924510Y-117133685D02*
X133995939Y-117276542D01*
X133995939Y-117276542D02*
X133995939Y-117419400D01*
X133995939Y-117419400D02*
X133924510Y-117633685D01*
X133924510Y-117633685D02*
X133067367Y-118490828D01*
X133067367Y-118490828D02*
X133995939Y-118490828D01*
X136567367Y-118490828D02*
X135710224Y-118490828D01*
X136138795Y-118490828D02*
X136138795Y-116990828D01*
X136138795Y-116990828D02*
X135995938Y-117205114D01*
X135995938Y-117205114D02*
X135853081Y-117347971D01*
X135853081Y-117347971D02*
X135710224Y-117419400D01*
X137995938Y-118490828D02*
X137138795Y-118490828D01*
X137567366Y-118490828D02*
X137567366Y-116990828D01*
X137567366Y-116990828D02*
X137424509Y-117205114D01*
X137424509Y-117205114D02*
X137281652Y-117347971D01*
X137281652Y-117347971D02*
X137138795Y-117419400D01*
X139710223Y-116919400D02*
X138424509Y-118847971D01*
X140138795Y-117133685D02*
X140210223Y-117062257D01*
X140210223Y-117062257D02*
X140353081Y-116990828D01*
X140353081Y-116990828D02*
X140710223Y-116990828D01*
X140710223Y-116990828D02*
X140853081Y-117062257D01*
X140853081Y-117062257D02*
X140924509Y-117133685D01*
X140924509Y-117133685D02*
X140995938Y-117276542D01*
X140995938Y-117276542D02*
X140995938Y-117419400D01*
X140995938Y-117419400D02*
X140924509Y-117633685D01*
X140924509Y-117633685D02*
X140067366Y-118490828D01*
X140067366Y-118490828D02*
X140995938Y-118490828D01*
X142353080Y-116990828D02*
X141638794Y-116990828D01*
X141638794Y-116990828D02*
X141567366Y-117705114D01*
X141567366Y-117705114D02*
X141638794Y-117633685D01*
X141638794Y-117633685D02*
X141781652Y-117562257D01*
X141781652Y-117562257D02*
X142138794Y-117562257D01*
X142138794Y-117562257D02*
X142281652Y-117633685D01*
X142281652Y-117633685D02*
X142353080Y-117705114D01*
X142353080Y-117705114D02*
X142424509Y-117847971D01*
X142424509Y-117847971D02*
X142424509Y-118205114D01*
X142424509Y-118205114D02*
X142353080Y-118347971D01*
X142353080Y-118347971D02*
X142281652Y-118419400D01*
X142281652Y-118419400D02*
X142138794Y-118490828D01*
X142138794Y-118490828D02*
X141781652Y-118490828D01*
X141781652Y-118490828D02*
X141638794Y-118419400D01*
X141638794Y-118419400D02*
X141567366Y-118347971D01*
D36*
X147878884Y-80347419D02*
X147878884Y-79347419D01*
X147878884Y-79823609D02*
X148450312Y-79823609D01*
X148450312Y-80347419D02*
X148450312Y-79347419D01*
X148783646Y-79347419D02*
X149116979Y-80347419D01*
X149116979Y-80347419D02*
X149450312Y-79347419D01*
X149783646Y-79966466D02*
X150545551Y-79966466D01*
X147688884Y-76202419D02*
X147688884Y-75202419D01*
X147688884Y-75678609D02*
X148260312Y-75678609D01*
X148260312Y-76202419D02*
X148260312Y-75202419D01*
X148593646Y-75202419D02*
X148926979Y-76202419D01*
X148926979Y-76202419D02*
X149260312Y-75202419D01*
X149593646Y-75821466D02*
X150355551Y-75821466D01*
X149974598Y-76202419D02*
X149974598Y-75440514D01*
D35*
X124110225Y-113390828D02*
X124610225Y-114890828D01*
X124610225Y-114890828D02*
X125110225Y-113390828D01*
X125824510Y-114890828D02*
X125681653Y-114819400D01*
X125681653Y-114819400D02*
X125610224Y-114747971D01*
X125610224Y-114747971D02*
X125538796Y-114605114D01*
X125538796Y-114605114D02*
X125538796Y-114176542D01*
X125538796Y-114176542D02*
X125610224Y-114033685D01*
X125610224Y-114033685D02*
X125681653Y-113962257D01*
X125681653Y-113962257D02*
X125824510Y-113890828D01*
X125824510Y-113890828D02*
X126038796Y-113890828D01*
X126038796Y-113890828D02*
X126181653Y-113962257D01*
X126181653Y-113962257D02*
X126253082Y-114033685D01*
X126253082Y-114033685D02*
X126324510Y-114176542D01*
X126324510Y-114176542D02*
X126324510Y-114605114D01*
X126324510Y-114605114D02*
X126253082Y-114747971D01*
X126253082Y-114747971D02*
X126181653Y-114819400D01*
X126181653Y-114819400D02*
X126038796Y-114890828D01*
X126038796Y-114890828D02*
X125824510Y-114890828D01*
X127181653Y-114890828D02*
X127038796Y-114819400D01*
X127038796Y-114819400D02*
X126967367Y-114676542D01*
X126967367Y-114676542D02*
X126967367Y-113390828D01*
X127538796Y-113890828D02*
X128110224Y-113890828D01*
X127753081Y-113390828D02*
X127753081Y-114676542D01*
X127753081Y-114676542D02*
X127824510Y-114819400D01*
X127824510Y-114819400D02*
X127967367Y-114890828D01*
X127967367Y-114890828D02*
X128110224Y-114890828D01*
X129253082Y-114890828D02*
X129253082Y-114105114D01*
X129253082Y-114105114D02*
X129181653Y-113962257D01*
X129181653Y-113962257D02*
X129038796Y-113890828D01*
X129038796Y-113890828D02*
X128753082Y-113890828D01*
X128753082Y-113890828D02*
X128610224Y-113962257D01*
X129253082Y-114819400D02*
X129110224Y-114890828D01*
X129110224Y-114890828D02*
X128753082Y-114890828D01*
X128753082Y-114890828D02*
X128610224Y-114819400D01*
X128610224Y-114819400D02*
X128538796Y-114676542D01*
X128538796Y-114676542D02*
X128538796Y-114533685D01*
X128538796Y-114533685D02*
X128610224Y-114390828D01*
X128610224Y-114390828D02*
X128753082Y-114319400D01*
X128753082Y-114319400D02*
X129110224Y-114319400D01*
X129110224Y-114319400D02*
X129253082Y-114247971D01*
X130610225Y-113890828D02*
X130610225Y-115105114D01*
X130610225Y-115105114D02*
X130538796Y-115247971D01*
X130538796Y-115247971D02*
X130467367Y-115319400D01*
X130467367Y-115319400D02*
X130324510Y-115390828D01*
X130324510Y-115390828D02*
X130110225Y-115390828D01*
X130110225Y-115390828D02*
X129967367Y-115319400D01*
X130610225Y-114819400D02*
X130467367Y-114890828D01*
X130467367Y-114890828D02*
X130181653Y-114890828D01*
X130181653Y-114890828D02*
X130038796Y-114819400D01*
X130038796Y-114819400D02*
X129967367Y-114747971D01*
X129967367Y-114747971D02*
X129895939Y-114605114D01*
X129895939Y-114605114D02*
X129895939Y-114176542D01*
X129895939Y-114176542D02*
X129967367Y-114033685D01*
X129967367Y-114033685D02*
X130038796Y-113962257D01*
X130038796Y-113962257D02*
X130181653Y-113890828D01*
X130181653Y-113890828D02*
X130467367Y-113890828D01*
X130467367Y-113890828D02*
X130610225Y-113962257D01*
X131895939Y-114819400D02*
X131753082Y-114890828D01*
X131753082Y-114890828D02*
X131467368Y-114890828D01*
X131467368Y-114890828D02*
X131324510Y-114819400D01*
X131324510Y-114819400D02*
X131253082Y-114676542D01*
X131253082Y-114676542D02*
X131253082Y-114105114D01*
X131253082Y-114105114D02*
X131324510Y-113962257D01*
X131324510Y-113962257D02*
X131467368Y-113890828D01*
X131467368Y-113890828D02*
X131753082Y-113890828D01*
X131753082Y-113890828D02*
X131895939Y-113962257D01*
X131895939Y-113962257D02*
X131967368Y-114105114D01*
X131967368Y-114105114D02*
X131967368Y-114247971D01*
X131967368Y-114247971D02*
X131253082Y-114390828D01*
X133753081Y-114890828D02*
X133753081Y-113390828D01*
X134467367Y-113890828D02*
X134467367Y-114890828D01*
X134467367Y-114033685D02*
X134538796Y-113962257D01*
X134538796Y-113962257D02*
X134681653Y-113890828D01*
X134681653Y-113890828D02*
X134895939Y-113890828D01*
X134895939Y-113890828D02*
X135038796Y-113962257D01*
X135038796Y-113962257D02*
X135110225Y-114105114D01*
X135110225Y-114105114D02*
X135110225Y-114890828D01*
X136467368Y-114890828D02*
X136467368Y-113390828D01*
X136467368Y-114819400D02*
X136324510Y-114890828D01*
X136324510Y-114890828D02*
X136038796Y-114890828D01*
X136038796Y-114890828D02*
X135895939Y-114819400D01*
X135895939Y-114819400D02*
X135824510Y-114747971D01*
X135824510Y-114747971D02*
X135753082Y-114605114D01*
X135753082Y-114605114D02*
X135753082Y-114176542D01*
X135753082Y-114176542D02*
X135824510Y-114033685D01*
X135824510Y-114033685D02*
X135895939Y-113962257D01*
X135895939Y-113962257D02*
X136038796Y-113890828D01*
X136038796Y-113890828D02*
X136324510Y-113890828D01*
X136324510Y-113890828D02*
X136467368Y-113962257D01*
X137181653Y-114890828D02*
X137181653Y-113890828D01*
X137181653Y-113390828D02*
X137110225Y-113462257D01*
X137110225Y-113462257D02*
X137181653Y-113533685D01*
X137181653Y-113533685D02*
X137253082Y-113462257D01*
X137253082Y-113462257D02*
X137181653Y-113390828D01*
X137181653Y-113390828D02*
X137181653Y-113533685D01*
X138538797Y-114819400D02*
X138395939Y-114890828D01*
X138395939Y-114890828D02*
X138110225Y-114890828D01*
X138110225Y-114890828D02*
X137967368Y-114819400D01*
X137967368Y-114819400D02*
X137895939Y-114747971D01*
X137895939Y-114747971D02*
X137824511Y-114605114D01*
X137824511Y-114605114D02*
X137824511Y-114176542D01*
X137824511Y-114176542D02*
X137895939Y-114033685D01*
X137895939Y-114033685D02*
X137967368Y-113962257D01*
X137967368Y-113962257D02*
X138110225Y-113890828D01*
X138110225Y-113890828D02*
X138395939Y-113890828D01*
X138395939Y-113890828D02*
X138538797Y-113962257D01*
X139824511Y-114890828D02*
X139824511Y-114105114D01*
X139824511Y-114105114D02*
X139753082Y-113962257D01*
X139753082Y-113962257D02*
X139610225Y-113890828D01*
X139610225Y-113890828D02*
X139324511Y-113890828D01*
X139324511Y-113890828D02*
X139181653Y-113962257D01*
X139824511Y-114819400D02*
X139681653Y-114890828D01*
X139681653Y-114890828D02*
X139324511Y-114890828D01*
X139324511Y-114890828D02*
X139181653Y-114819400D01*
X139181653Y-114819400D02*
X139110225Y-114676542D01*
X139110225Y-114676542D02*
X139110225Y-114533685D01*
X139110225Y-114533685D02*
X139181653Y-114390828D01*
X139181653Y-114390828D02*
X139324511Y-114319400D01*
X139324511Y-114319400D02*
X139681653Y-114319400D01*
X139681653Y-114319400D02*
X139824511Y-114247971D01*
X140324511Y-113890828D02*
X140895939Y-113890828D01*
X140538796Y-113390828D02*
X140538796Y-114676542D01*
X140538796Y-114676542D02*
X140610225Y-114819400D01*
X140610225Y-114819400D02*
X140753082Y-114890828D01*
X140753082Y-114890828D02*
X140895939Y-114890828D01*
X141610225Y-114890828D02*
X141467368Y-114819400D01*
X141467368Y-114819400D02*
X141395939Y-114747971D01*
X141395939Y-114747971D02*
X141324511Y-114605114D01*
X141324511Y-114605114D02*
X141324511Y-114176542D01*
X141324511Y-114176542D02*
X141395939Y-114033685D01*
X141395939Y-114033685D02*
X141467368Y-113962257D01*
X141467368Y-113962257D02*
X141610225Y-113890828D01*
X141610225Y-113890828D02*
X141824511Y-113890828D01*
X141824511Y-113890828D02*
X141967368Y-113962257D01*
X141967368Y-113962257D02*
X142038797Y-114033685D01*
X142038797Y-114033685D02*
X142110225Y-114176542D01*
X142110225Y-114176542D02*
X142110225Y-114605114D01*
X142110225Y-114605114D02*
X142038797Y-114747971D01*
X142038797Y-114747971D02*
X141967368Y-114819400D01*
X141967368Y-114819400D02*
X141824511Y-114890828D01*
X141824511Y-114890828D02*
X141610225Y-114890828D01*
X142753082Y-114890828D02*
X142753082Y-113890828D01*
X142753082Y-114176542D02*
X142824511Y-114033685D01*
X142824511Y-114033685D02*
X142895940Y-113962257D01*
X142895940Y-113962257D02*
X143038797Y-113890828D01*
X143038797Y-113890828D02*
X143181654Y-113890828D01*
X145538796Y-114890828D02*
X144824510Y-114890828D01*
X144824510Y-114890828D02*
X144824510Y-113390828D01*
X146038796Y-114890828D02*
X146038796Y-113890828D01*
X146038796Y-113390828D02*
X145967368Y-113462257D01*
X145967368Y-113462257D02*
X146038796Y-113533685D01*
X146038796Y-113533685D02*
X146110225Y-113462257D01*
X146110225Y-113462257D02*
X146038796Y-113390828D01*
X146038796Y-113390828D02*
X146038796Y-113533685D01*
X147395940Y-113890828D02*
X147395940Y-115105114D01*
X147395940Y-115105114D02*
X147324511Y-115247971D01*
X147324511Y-115247971D02*
X147253082Y-115319400D01*
X147253082Y-115319400D02*
X147110225Y-115390828D01*
X147110225Y-115390828D02*
X146895940Y-115390828D01*
X146895940Y-115390828D02*
X146753082Y-115319400D01*
X147395940Y-114819400D02*
X147253082Y-114890828D01*
X147253082Y-114890828D02*
X146967368Y-114890828D01*
X146967368Y-114890828D02*
X146824511Y-114819400D01*
X146824511Y-114819400D02*
X146753082Y-114747971D01*
X146753082Y-114747971D02*
X146681654Y-114605114D01*
X146681654Y-114605114D02*
X146681654Y-114176542D01*
X146681654Y-114176542D02*
X146753082Y-114033685D01*
X146753082Y-114033685D02*
X146824511Y-113962257D01*
X146824511Y-113962257D02*
X146967368Y-113890828D01*
X146967368Y-113890828D02*
X147253082Y-113890828D01*
X147253082Y-113890828D02*
X147395940Y-113962257D01*
X148110225Y-114890828D02*
X148110225Y-113390828D01*
X148753083Y-114890828D02*
X148753083Y-114105114D01*
X148753083Y-114105114D02*
X148681654Y-113962257D01*
X148681654Y-113962257D02*
X148538797Y-113890828D01*
X148538797Y-113890828D02*
X148324511Y-113890828D01*
X148324511Y-113890828D02*
X148181654Y-113962257D01*
X148181654Y-113962257D02*
X148110225Y-114033685D01*
X149253083Y-113890828D02*
X149824511Y-113890828D01*
X149467368Y-113390828D02*
X149467368Y-114676542D01*
X149467368Y-114676542D02*
X149538797Y-114819400D01*
X149538797Y-114819400D02*
X149681654Y-114890828D01*
X149681654Y-114890828D02*
X149824511Y-114890828D01*
D37*
X136291666Y-83451009D02*
X135958333Y-83451009D01*
X135958333Y-83974819D02*
X135958333Y-82974819D01*
X135958333Y-82974819D02*
X136434523Y-82974819D01*
X136767857Y-83070057D02*
X136815476Y-83022438D01*
X136815476Y-83022438D02*
X136910714Y-82974819D01*
X136910714Y-82974819D02*
X137148809Y-82974819D01*
X137148809Y-82974819D02*
X137244047Y-83022438D01*
X137244047Y-83022438D02*
X137291666Y-83070057D01*
X137291666Y-83070057D02*
X137339285Y-83165295D01*
X137339285Y-83165295D02*
X137339285Y-83260533D01*
X137339285Y-83260533D02*
X137291666Y-83403390D01*
X137291666Y-83403390D02*
X136720238Y-83974819D01*
X136720238Y-83974819D02*
X137339285Y-83974819D01*
X157461009Y-86133333D02*
X157461009Y-86466666D01*
X157984819Y-86466666D02*
X156984819Y-86466666D01*
X156984819Y-86466666D02*
X156984819Y-85990476D01*
X157984819Y-85085714D02*
X157984819Y-85657142D01*
X157984819Y-85371428D02*
X156984819Y-85371428D01*
X156984819Y-85371428D02*
X157127676Y-85466666D01*
X157127676Y-85466666D02*
X157222914Y-85561904D01*
X157222914Y-85561904D02*
X157270533Y-85657142D01*
X117186905Y-108979819D02*
X117186905Y-107979819D01*
X117186905Y-107979819D02*
X117425000Y-107979819D01*
X117425000Y-107979819D02*
X117567857Y-108027438D01*
X117567857Y-108027438D02*
X117663095Y-108122676D01*
X117663095Y-108122676D02*
X117710714Y-108217914D01*
X117710714Y-108217914D02*
X117758333Y-108408390D01*
X117758333Y-108408390D02*
X117758333Y-108551247D01*
X117758333Y-108551247D02*
X117710714Y-108741723D01*
X117710714Y-108741723D02*
X117663095Y-108836961D01*
X117663095Y-108836961D02*
X117567857Y-108932200D01*
X117567857Y-108932200D02*
X117425000Y-108979819D01*
X117425000Y-108979819D02*
X117186905Y-108979819D01*
X118615476Y-108313152D02*
X118615476Y-108979819D01*
X118377381Y-107932200D02*
X118139286Y-108646485D01*
X118139286Y-108646485D02*
X118758333Y-108646485D01*
X116361905Y-87654819D02*
X116361905Y-86654819D01*
X116361905Y-86654819D02*
X116600000Y-86654819D01*
X116600000Y-86654819D02*
X116742857Y-86702438D01*
X116742857Y-86702438D02*
X116838095Y-86797676D01*
X116838095Y-86797676D02*
X116885714Y-86892914D01*
X116885714Y-86892914D02*
X116933333Y-87083390D01*
X116933333Y-87083390D02*
X116933333Y-87226247D01*
X116933333Y-87226247D02*
X116885714Y-87416723D01*
X116885714Y-87416723D02*
X116838095Y-87511961D01*
X116838095Y-87511961D02*
X116742857Y-87607200D01*
X116742857Y-87607200D02*
X116600000Y-87654819D01*
X116600000Y-87654819D02*
X116361905Y-87654819D01*
X117838095Y-86654819D02*
X117361905Y-86654819D01*
X117361905Y-86654819D02*
X117314286Y-87131009D01*
X117314286Y-87131009D02*
X117361905Y-87083390D01*
X117361905Y-87083390D02*
X117457143Y-87035771D01*
X117457143Y-87035771D02*
X117695238Y-87035771D01*
X117695238Y-87035771D02*
X117790476Y-87083390D01*
X117790476Y-87083390D02*
X117838095Y-87131009D01*
X117838095Y-87131009D02*
X117885714Y-87226247D01*
X117885714Y-87226247D02*
X117885714Y-87464342D01*
X117885714Y-87464342D02*
X117838095Y-87559580D01*
X117838095Y-87559580D02*
X117790476Y-87607200D01*
X117790476Y-87607200D02*
X117695238Y-87654819D01*
X117695238Y-87654819D02*
X117457143Y-87654819D01*
X117457143Y-87654819D02*
X117361905Y-87607200D01*
X117361905Y-87607200D02*
X117314286Y-87559580D01*
X142559524Y-83619819D02*
X142559524Y-82619819D01*
X142559524Y-83096009D02*
X143130952Y-83096009D01*
X143130952Y-83619819D02*
X143130952Y-82619819D01*
X143464286Y-82619819D02*
X143797619Y-83619819D01*
X143797619Y-83619819D02*
X144130952Y-82619819D01*
X144988095Y-83619819D02*
X144416667Y-83619819D01*
X144702381Y-83619819D02*
X144702381Y-82619819D01*
X144702381Y-82619819D02*
X144607143Y-82762676D01*
X144607143Y-82762676D02*
X144511905Y-82857914D01*
X144511905Y-82857914D02*
X144416667Y-82905533D01*
X128940952Y-83264819D02*
X128464762Y-83264819D01*
X128464762Y-83264819D02*
X128464762Y-82264819D01*
X129274286Y-82741009D02*
X129607619Y-82741009D01*
X129750476Y-83264819D02*
X129274286Y-83264819D01*
X129274286Y-83264819D02*
X129274286Y-82264819D01*
X129274286Y-82264819D02*
X129750476Y-82264819D01*
X130179048Y-83264819D02*
X130179048Y-82264819D01*
X130179048Y-82264819D02*
X130417143Y-82264819D01*
X130417143Y-82264819D02*
X130560000Y-82312438D01*
X130560000Y-82312438D02*
X130655238Y-82407676D01*
X130655238Y-82407676D02*
X130702857Y-82502914D01*
X130702857Y-82502914D02*
X130750476Y-82693390D01*
X130750476Y-82693390D02*
X130750476Y-82836247D01*
X130750476Y-82836247D02*
X130702857Y-83026723D01*
X130702857Y-83026723D02*
X130655238Y-83121961D01*
X130655238Y-83121961D02*
X130560000Y-83217200D01*
X130560000Y-83217200D02*
X130417143Y-83264819D01*
X130417143Y-83264819D02*
X130179048Y-83264819D01*
X131702857Y-83264819D02*
X131131429Y-83264819D01*
X131417143Y-83264819D02*
X131417143Y-82264819D01*
X131417143Y-82264819D02*
X131321905Y-82407676D01*
X131321905Y-82407676D02*
X131226667Y-82502914D01*
X131226667Y-82502914D02*
X131131429Y-82550533D01*
X152770057Y-102575238D02*
X152722438Y-102670476D01*
X152722438Y-102670476D02*
X152627200Y-102765714D01*
X152627200Y-102765714D02*
X152484342Y-102908571D01*
X152484342Y-102908571D02*
X152436723Y-103003809D01*
X152436723Y-103003809D02*
X152436723Y-103099047D01*
X152674819Y-103051428D02*
X152627200Y-103146666D01*
X152627200Y-103146666D02*
X152531961Y-103241904D01*
X152531961Y-103241904D02*
X152341485Y-103289523D01*
X152341485Y-103289523D02*
X152008152Y-103289523D01*
X152008152Y-103289523D02*
X151817676Y-103241904D01*
X151817676Y-103241904D02*
X151722438Y-103146666D01*
X151722438Y-103146666D02*
X151674819Y-103051428D01*
X151674819Y-103051428D02*
X151674819Y-102860952D01*
X151674819Y-102860952D02*
X151722438Y-102765714D01*
X151722438Y-102765714D02*
X151817676Y-102670476D01*
X151817676Y-102670476D02*
X152008152Y-102622857D01*
X152008152Y-102622857D02*
X152341485Y-102622857D01*
X152341485Y-102622857D02*
X152531961Y-102670476D01*
X152531961Y-102670476D02*
X152627200Y-102765714D01*
X152627200Y-102765714D02*
X152674819Y-102860952D01*
X152674819Y-102860952D02*
X152674819Y-103051428D01*
X151770057Y-102241904D02*
X151722438Y-102194285D01*
X151722438Y-102194285D02*
X151674819Y-102099047D01*
X151674819Y-102099047D02*
X151674819Y-101860952D01*
X151674819Y-101860952D02*
X151722438Y-101765714D01*
X151722438Y-101765714D02*
X151770057Y-101718095D01*
X151770057Y-101718095D02*
X151865295Y-101670476D01*
X151865295Y-101670476D02*
X151960533Y-101670476D01*
X151960533Y-101670476D02*
X152103390Y-101718095D01*
X152103390Y-101718095D02*
X152674819Y-102289523D01*
X152674819Y-102289523D02*
X152674819Y-101670476D01*
X117918094Y-79284819D02*
X117918094Y-78284819D01*
X117918094Y-78761009D02*
X118489522Y-78761009D01*
X118489522Y-79284819D02*
X118489522Y-78284819D01*
X118870475Y-78284819D02*
X119489522Y-78284819D01*
X119489522Y-78284819D02*
X119156189Y-78665771D01*
X119156189Y-78665771D02*
X119299046Y-78665771D01*
X119299046Y-78665771D02*
X119394284Y-78713390D01*
X119394284Y-78713390D02*
X119441903Y-78761009D01*
X119441903Y-78761009D02*
X119489522Y-78856247D01*
X119489522Y-78856247D02*
X119489522Y-79094342D01*
X119489522Y-79094342D02*
X119441903Y-79189580D01*
X119441903Y-79189580D02*
X119394284Y-79237200D01*
X119394284Y-79237200D02*
X119299046Y-79284819D01*
X119299046Y-79284819D02*
X119013332Y-79284819D01*
X119013332Y-79284819D02*
X118918094Y-79237200D01*
X118918094Y-79237200D02*
X118870475Y-79189580D01*
X117908094Y-111144820D02*
X117908094Y-110144820D01*
X117908094Y-110621010D02*
X118479522Y-110621010D01*
X118479522Y-111144820D02*
X118479522Y-110144820D01*
X119384284Y-110478153D02*
X119384284Y-111144820D01*
X119146189Y-110097201D02*
X118908094Y-110811486D01*
X118908094Y-110811486D02*
X119527141Y-110811486D01*
X114429819Y-84291666D02*
X113953628Y-84624999D01*
X114429819Y-84863094D02*
X113429819Y-84863094D01*
X113429819Y-84863094D02*
X113429819Y-84482142D01*
X113429819Y-84482142D02*
X113477438Y-84386904D01*
X113477438Y-84386904D02*
X113525057Y-84339285D01*
X113525057Y-84339285D02*
X113620295Y-84291666D01*
X113620295Y-84291666D02*
X113763152Y-84291666D01*
X113763152Y-84291666D02*
X113858390Y-84339285D01*
X113858390Y-84339285D02*
X113906009Y-84386904D01*
X113906009Y-84386904D02*
X113953628Y-84482142D01*
X113953628Y-84482142D02*
X113953628Y-84863094D01*
X114429819Y-83339285D02*
X114429819Y-83910713D01*
X114429819Y-83624999D02*
X113429819Y-83624999D01*
X113429819Y-83624999D02*
X113572676Y-83720237D01*
X113572676Y-83720237D02*
X113667914Y-83815475D01*
X113667914Y-83815475D02*
X113715533Y-83910713D01*
X154218096Y-79344819D02*
X154218096Y-78344819D01*
X154218096Y-78821009D02*
X154789524Y-78821009D01*
X154789524Y-79344819D02*
X154789524Y-78344819D01*
X155694286Y-78678152D02*
X155694286Y-79344819D01*
X155456191Y-78297200D02*
X155218096Y-79011485D01*
X155218096Y-79011485D02*
X155837143Y-79011485D01*
X154208096Y-111144820D02*
X154208096Y-110144820D01*
X154208096Y-110621010D02*
X154779524Y-110621010D01*
X154779524Y-111144820D02*
X154779524Y-110144820D01*
X155160477Y-110144820D02*
X155779524Y-110144820D01*
X155779524Y-110144820D02*
X155446191Y-110525772D01*
X155446191Y-110525772D02*
X155589048Y-110525772D01*
X155589048Y-110525772D02*
X155684286Y-110573391D01*
X155684286Y-110573391D02*
X155731905Y-110621010D01*
X155731905Y-110621010D02*
X155779524Y-110716248D01*
X155779524Y-110716248D02*
X155779524Y-110954343D01*
X155779524Y-110954343D02*
X155731905Y-111049581D01*
X155731905Y-111049581D02*
X155684286Y-111097201D01*
X155684286Y-111097201D02*
X155589048Y-111144820D01*
X155589048Y-111144820D02*
X155303334Y-111144820D01*
X155303334Y-111144820D02*
X155208096Y-111097201D01*
X155208096Y-111097201D02*
X155160477Y-111049581D01*
D38*
%TO.C,F2*%
X136022936Y-84440000D02*
X137227064Y-84440000D01*
X136022936Y-86260000D02*
X137227064Y-86260000D01*
%TO.C,F1*%
X156610000Y-85197936D02*
X156610000Y-86402064D01*
X154790000Y-85197936D02*
X154790000Y-86402064D01*
%TO.C,D3*%
X151685000Y-87475000D02*
X147825000Y-87475000D01*
X151685000Y-89475000D02*
X147825000Y-89475000D01*
X151685000Y-89475000D02*
X151685000Y-87475000D01*
%TO.C,D4*%
X119535000Y-105825000D02*
X116875000Y-105825000D01*
X119535000Y-107525000D02*
X116875000Y-107525000D01*
X119535000Y-107525000D02*
X119535000Y-105825000D01*
%TO.C,D5*%
X115840000Y-87900000D02*
X115840000Y-89100000D01*
X117800000Y-87900000D02*
X115840000Y-87900000D01*
X117800000Y-89100000D02*
X115840000Y-89100000D01*
%TO.C,HV1*%
X139990000Y-74380000D02*
X139990000Y-74680000D01*
X139990000Y-81970000D02*
X139990000Y-76220000D01*
X141410000Y-81470000D02*
X141410000Y-81970000D01*
X141410000Y-81970000D02*
X139990000Y-81970000D01*
X145940000Y-81470000D02*
X141410000Y-81470000D01*
X145940000Y-81970000D02*
X145940000Y-81470000D01*
X147360000Y-74380000D02*
X139990000Y-74380000D01*
X147360000Y-74680000D02*
X147360000Y-74380000D01*
X147360000Y-76220000D02*
X147360000Y-81970000D01*
X147360000Y-81970000D02*
X145940000Y-81970000D01*
%TO.C,LED1*%
X126315000Y-74490000D02*
X126315000Y-74790000D01*
X126315000Y-82080000D02*
X126315000Y-76330000D01*
X127735000Y-81580000D02*
X127735000Y-82080000D01*
X127735000Y-82080000D02*
X126315000Y-82080000D01*
X132265000Y-81580000D02*
X127735000Y-81580000D01*
X132265000Y-82080000D02*
X132265000Y-81580000D01*
X133685000Y-74490000D02*
X126315000Y-74490000D01*
X133685000Y-74790000D02*
X133685000Y-74490000D01*
X133685000Y-76330000D02*
X133685000Y-82080000D01*
X133685000Y-82080000D02*
X132265000Y-82080000D01*
%TO.C,Q2*%
X130210000Y-94420000D02*
X130210000Y-110540000D01*
X130210000Y-94420000D02*
X151380000Y-94420000D01*
X130210000Y-96320000D02*
X127750000Y-96320000D01*
X130210000Y-97740000D02*
X127750000Y-97740000D01*
X130210000Y-101770000D02*
X127750000Y-101770000D01*
X130210000Y-103190000D02*
X127750000Y-103190000D01*
X130210000Y-107220000D02*
X127750000Y-107220000D01*
X130210000Y-108640000D02*
X127750000Y-108640000D01*
X130210000Y-110540000D02*
X151380000Y-110540000D01*
X151380000Y-94420000D02*
X151380000Y-110540000D01*
%TO.C,R1*%
X116390000Y-84352064D02*
X116390000Y-83897936D01*
X117860000Y-84352064D02*
X117860000Y-83897936D01*
%TD*%
D39*
X113270000Y-73490000D02*
G75*
G02*
X118670000Y-68090000I5400000J0D01*
G01*
X160370000Y-115990000D02*
G75*
G02*
X154970000Y-121390000I-5400000J0D01*
G01*
X154970000Y-68090000D02*
G75*
G02*
X160370000Y-73490000I0J-5400000D01*
G01*
X154970000Y-121390000D02*
X118670000Y-121390000D01*
X160370000Y-73490000D02*
X160370000Y-115990000D01*
X118670000Y-68090000D02*
X154970000Y-68090000D01*
X118670000Y-121390000D02*
G75*
G02*
X113270000Y-115990000I0J5400000D01*
G01*
X113270000Y-115990000D02*
X113270000Y-73490000D01*
M02*
