%TF.GenerationSoftware,KiCad,Pcbnew,9.0.4*%
%TF.CreationDate,2026-02-19T19:41:56-08:00*%
%TF.ProjectId,Power_board,506f7765-725f-4626-9f61-72642e6b6963,rev?*%
%TF.SameCoordinates,Original*%
%TF.FileFunction,Legend,Top*%
%TF.FilePolarity,Positive*%
%FSLAX46Y46*%
G04 Gerber Fmt 4.6, Leading zero omitted, Abs format (unit mm)*
G04 Created by KiCad (PCBNEW 9.0.4) date 2026-02-19 19:41:56*
%MOMM*%
%LPD*%
G01*
G04 APERTURE LIST*
%ADD10C,0.150000*%
%ADD11C,0.127000*%
%ADD12C,0.120000*%
G04 APERTURE END LIST*
D10*
X158238095Y-36904819D02*
X158238095Y-35904819D01*
X158238095Y-36381009D02*
X158809523Y-36381009D01*
X158809523Y-36904819D02*
X158809523Y-35904819D01*
X159714285Y-35904819D02*
X159523809Y-35904819D01*
X159523809Y-35904819D02*
X159428571Y-35952438D01*
X159428571Y-35952438D02*
X159380952Y-36000057D01*
X159380952Y-36000057D02*
X159285714Y-36142914D01*
X159285714Y-36142914D02*
X159238095Y-36333390D01*
X159238095Y-36333390D02*
X159238095Y-36714342D01*
X159238095Y-36714342D02*
X159285714Y-36809580D01*
X159285714Y-36809580D02*
X159333333Y-36857200D01*
X159333333Y-36857200D02*
X159428571Y-36904819D01*
X159428571Y-36904819D02*
X159619047Y-36904819D01*
X159619047Y-36904819D02*
X159714285Y-36857200D01*
X159714285Y-36857200D02*
X159761904Y-36809580D01*
X159761904Y-36809580D02*
X159809523Y-36714342D01*
X159809523Y-36714342D02*
X159809523Y-36476247D01*
X159809523Y-36476247D02*
X159761904Y-36381009D01*
X159761904Y-36381009D02*
X159714285Y-36333390D01*
X159714285Y-36333390D02*
X159619047Y-36285771D01*
X159619047Y-36285771D02*
X159428571Y-36285771D01*
X159428571Y-36285771D02*
X159333333Y-36333390D01*
X159333333Y-36333390D02*
X159285714Y-36381009D01*
X159285714Y-36381009D02*
X159238095Y-36476247D01*
X110426009Y-55083333D02*
X110426009Y-55416666D01*
X110949819Y-55416666D02*
X109949819Y-55416666D01*
X109949819Y-55416666D02*
X109949819Y-54940476D01*
X110283152Y-54130952D02*
X110949819Y-54130952D01*
X109902200Y-54369047D02*
X110616485Y-54607142D01*
X110616485Y-54607142D02*
X110616485Y-53988095D01*
X108866666Y-77344819D02*
X108866666Y-78059104D01*
X108866666Y-78059104D02*
X108819047Y-78201961D01*
X108819047Y-78201961D02*
X108723809Y-78297200D01*
X108723809Y-78297200D02*
X108580952Y-78344819D01*
X108580952Y-78344819D02*
X108485714Y-78344819D01*
X109295238Y-77440057D02*
X109342857Y-77392438D01*
X109342857Y-77392438D02*
X109438095Y-77344819D01*
X109438095Y-77344819D02*
X109676190Y-77344819D01*
X109676190Y-77344819D02*
X109771428Y-77392438D01*
X109771428Y-77392438D02*
X109819047Y-77440057D01*
X109819047Y-77440057D02*
X109866666Y-77535295D01*
X109866666Y-77535295D02*
X109866666Y-77630533D01*
X109866666Y-77630533D02*
X109819047Y-77773390D01*
X109819047Y-77773390D02*
X109247619Y-78344819D01*
X109247619Y-78344819D02*
X109866666Y-78344819D01*
X73876009Y-54848333D02*
X73876009Y-55181666D01*
X74399819Y-55181666D02*
X73399819Y-55181666D01*
X73399819Y-55181666D02*
X73399819Y-54705476D01*
X74399819Y-53800714D02*
X74399819Y-54372142D01*
X74399819Y-54086428D02*
X73399819Y-54086428D01*
X73399819Y-54086428D02*
X73542676Y-54181666D01*
X73542676Y-54181666D02*
X73637914Y-54276904D01*
X73637914Y-54276904D02*
X73685533Y-54372142D01*
X63883333Y-74299819D02*
X63550000Y-73823628D01*
X63311905Y-74299819D02*
X63311905Y-73299819D01*
X63311905Y-73299819D02*
X63692857Y-73299819D01*
X63692857Y-73299819D02*
X63788095Y-73347438D01*
X63788095Y-73347438D02*
X63835714Y-73395057D01*
X63835714Y-73395057D02*
X63883333Y-73490295D01*
X63883333Y-73490295D02*
X63883333Y-73633152D01*
X63883333Y-73633152D02*
X63835714Y-73728390D01*
X63835714Y-73728390D02*
X63788095Y-73776009D01*
X63788095Y-73776009D02*
X63692857Y-73823628D01*
X63692857Y-73823628D02*
X63311905Y-73823628D01*
X64264286Y-73395057D02*
X64311905Y-73347438D01*
X64311905Y-73347438D02*
X64407143Y-73299819D01*
X64407143Y-73299819D02*
X64645238Y-73299819D01*
X64645238Y-73299819D02*
X64740476Y-73347438D01*
X64740476Y-73347438D02*
X64788095Y-73395057D01*
X64788095Y-73395057D02*
X64835714Y-73490295D01*
X64835714Y-73490295D02*
X64835714Y-73585533D01*
X64835714Y-73585533D02*
X64788095Y-73728390D01*
X64788095Y-73728390D02*
X64216667Y-74299819D01*
X64216667Y-74299819D02*
X64835714Y-74299819D01*
X78123333Y-74229819D02*
X77790000Y-73753628D01*
X77551905Y-74229819D02*
X77551905Y-73229819D01*
X77551905Y-73229819D02*
X77932857Y-73229819D01*
X77932857Y-73229819D02*
X78028095Y-73277438D01*
X78028095Y-73277438D02*
X78075714Y-73325057D01*
X78075714Y-73325057D02*
X78123333Y-73420295D01*
X78123333Y-73420295D02*
X78123333Y-73563152D01*
X78123333Y-73563152D02*
X78075714Y-73658390D01*
X78075714Y-73658390D02*
X78028095Y-73706009D01*
X78028095Y-73706009D02*
X77932857Y-73753628D01*
X77932857Y-73753628D02*
X77551905Y-73753628D01*
X78456667Y-73229819D02*
X79075714Y-73229819D01*
X79075714Y-73229819D02*
X78742381Y-73610771D01*
X78742381Y-73610771D02*
X78885238Y-73610771D01*
X78885238Y-73610771D02*
X78980476Y-73658390D01*
X78980476Y-73658390D02*
X79028095Y-73706009D01*
X79028095Y-73706009D02*
X79075714Y-73801247D01*
X79075714Y-73801247D02*
X79075714Y-74039342D01*
X79075714Y-74039342D02*
X79028095Y-74134580D01*
X79028095Y-74134580D02*
X78980476Y-74182200D01*
X78980476Y-74182200D02*
X78885238Y-74229819D01*
X78885238Y-74229819D02*
X78599524Y-74229819D01*
X78599524Y-74229819D02*
X78504286Y-74182200D01*
X78504286Y-74182200D02*
X78456667Y-74134580D01*
X101426009Y-55083333D02*
X101426009Y-55416666D01*
X101949819Y-55416666D02*
X100949819Y-55416666D01*
X100949819Y-55416666D02*
X100949819Y-54940476D01*
X100949819Y-54654761D02*
X100949819Y-54035714D01*
X100949819Y-54035714D02*
X101330771Y-54369047D01*
X101330771Y-54369047D02*
X101330771Y-54226190D01*
X101330771Y-54226190D02*
X101378390Y-54130952D01*
X101378390Y-54130952D02*
X101426009Y-54083333D01*
X101426009Y-54083333D02*
X101521247Y-54035714D01*
X101521247Y-54035714D02*
X101759342Y-54035714D01*
X101759342Y-54035714D02*
X101854580Y-54083333D01*
X101854580Y-54083333D02*
X101902200Y-54130952D01*
X101902200Y-54130952D02*
X101949819Y-54226190D01*
X101949819Y-54226190D02*
X101949819Y-54511904D01*
X101949819Y-54511904D02*
X101902200Y-54607142D01*
X101902200Y-54607142D02*
X101854580Y-54654761D01*
X158238095Y-86154819D02*
X158238095Y-85154819D01*
X158238095Y-85631009D02*
X158809523Y-85631009D01*
X158809523Y-86154819D02*
X158809523Y-85154819D01*
X159190476Y-85154819D02*
X159857142Y-85154819D01*
X159857142Y-85154819D02*
X159428571Y-86154819D01*
X119426009Y-55083333D02*
X119426009Y-55416666D01*
X119949819Y-55416666D02*
X118949819Y-55416666D01*
X118949819Y-55416666D02*
X118949819Y-54940476D01*
X118949819Y-54083333D02*
X118949819Y-54559523D01*
X118949819Y-54559523D02*
X119426009Y-54607142D01*
X119426009Y-54607142D02*
X119378390Y-54559523D01*
X119378390Y-54559523D02*
X119330771Y-54464285D01*
X119330771Y-54464285D02*
X119330771Y-54226190D01*
X119330771Y-54226190D02*
X119378390Y-54130952D01*
X119378390Y-54130952D02*
X119426009Y-54083333D01*
X119426009Y-54083333D02*
X119521247Y-54035714D01*
X119521247Y-54035714D02*
X119759342Y-54035714D01*
X119759342Y-54035714D02*
X119854580Y-54083333D01*
X119854580Y-54083333D02*
X119902200Y-54130952D01*
X119902200Y-54130952D02*
X119949819Y-54226190D01*
X119949819Y-54226190D02*
X119949819Y-54464285D01*
X119949819Y-54464285D02*
X119902200Y-54559523D01*
X119902200Y-54559523D02*
X119854580Y-54607142D01*
X42738095Y-86154819D02*
X42738095Y-85154819D01*
X42738095Y-85631009D02*
X43309523Y-85631009D01*
X43309523Y-86154819D02*
X43309523Y-85154819D01*
X43928571Y-85583390D02*
X43833333Y-85535771D01*
X43833333Y-85535771D02*
X43785714Y-85488152D01*
X43785714Y-85488152D02*
X43738095Y-85392914D01*
X43738095Y-85392914D02*
X43738095Y-85345295D01*
X43738095Y-85345295D02*
X43785714Y-85250057D01*
X43785714Y-85250057D02*
X43833333Y-85202438D01*
X43833333Y-85202438D02*
X43928571Y-85154819D01*
X43928571Y-85154819D02*
X44119047Y-85154819D01*
X44119047Y-85154819D02*
X44214285Y-85202438D01*
X44214285Y-85202438D02*
X44261904Y-85250057D01*
X44261904Y-85250057D02*
X44309523Y-85345295D01*
X44309523Y-85345295D02*
X44309523Y-85392914D01*
X44309523Y-85392914D02*
X44261904Y-85488152D01*
X44261904Y-85488152D02*
X44214285Y-85535771D01*
X44214285Y-85535771D02*
X44119047Y-85583390D01*
X44119047Y-85583390D02*
X43928571Y-85583390D01*
X43928571Y-85583390D02*
X43833333Y-85631009D01*
X43833333Y-85631009D02*
X43785714Y-85678628D01*
X43785714Y-85678628D02*
X43738095Y-85773866D01*
X43738095Y-85773866D02*
X43738095Y-85964342D01*
X43738095Y-85964342D02*
X43785714Y-86059580D01*
X43785714Y-86059580D02*
X43833333Y-86107200D01*
X43833333Y-86107200D02*
X43928571Y-86154819D01*
X43928571Y-86154819D02*
X44119047Y-86154819D01*
X44119047Y-86154819D02*
X44214285Y-86107200D01*
X44214285Y-86107200D02*
X44261904Y-86059580D01*
X44261904Y-86059580D02*
X44309523Y-85964342D01*
X44309523Y-85964342D02*
X44309523Y-85773866D01*
X44309523Y-85773866D02*
X44261904Y-85678628D01*
X44261904Y-85678628D02*
X44214285Y-85631009D01*
X44214285Y-85631009D02*
X44119047Y-85583390D01*
X42738095Y-37154819D02*
X42738095Y-36154819D01*
X42738095Y-36631009D02*
X43309523Y-36631009D01*
X43309523Y-37154819D02*
X43309523Y-36154819D01*
X44261904Y-36154819D02*
X43785714Y-36154819D01*
X43785714Y-36154819D02*
X43738095Y-36631009D01*
X43738095Y-36631009D02*
X43785714Y-36583390D01*
X43785714Y-36583390D02*
X43880952Y-36535771D01*
X43880952Y-36535771D02*
X44119047Y-36535771D01*
X44119047Y-36535771D02*
X44214285Y-36583390D01*
X44214285Y-36583390D02*
X44261904Y-36631009D01*
X44261904Y-36631009D02*
X44309523Y-36726247D01*
X44309523Y-36726247D02*
X44309523Y-36964342D01*
X44309523Y-36964342D02*
X44261904Y-37059580D01*
X44261904Y-37059580D02*
X44214285Y-37107200D01*
X44214285Y-37107200D02*
X44119047Y-37154819D01*
X44119047Y-37154819D02*
X43880952Y-37154819D01*
X43880952Y-37154819D02*
X43785714Y-37107200D01*
X43785714Y-37107200D02*
X43738095Y-37059580D01*
X79654819Y-92511904D02*
X78654819Y-92511904D01*
X79131009Y-92511904D02*
X79131009Y-91940476D01*
X79654819Y-91940476D02*
X78654819Y-91940476D01*
X78988152Y-91035714D02*
X79654819Y-91035714D01*
X78607200Y-91273809D02*
X79321485Y-91511904D01*
X79321485Y-91511904D02*
X79321485Y-90892857D01*
X145431009Y-55098333D02*
X145431009Y-55431666D01*
X145954819Y-55431666D02*
X144954819Y-55431666D01*
X144954819Y-55431666D02*
X144954819Y-54955476D01*
X145383390Y-54431666D02*
X145335771Y-54526904D01*
X145335771Y-54526904D02*
X145288152Y-54574523D01*
X145288152Y-54574523D02*
X145192914Y-54622142D01*
X145192914Y-54622142D02*
X145145295Y-54622142D01*
X145145295Y-54622142D02*
X145050057Y-54574523D01*
X145050057Y-54574523D02*
X145002438Y-54526904D01*
X145002438Y-54526904D02*
X144954819Y-54431666D01*
X144954819Y-54431666D02*
X144954819Y-54241190D01*
X144954819Y-54241190D02*
X145002438Y-54145952D01*
X145002438Y-54145952D02*
X145050057Y-54098333D01*
X145050057Y-54098333D02*
X145145295Y-54050714D01*
X145145295Y-54050714D02*
X145192914Y-54050714D01*
X145192914Y-54050714D02*
X145288152Y-54098333D01*
X145288152Y-54098333D02*
X145335771Y-54145952D01*
X145335771Y-54145952D02*
X145383390Y-54241190D01*
X145383390Y-54241190D02*
X145383390Y-54431666D01*
X145383390Y-54431666D02*
X145431009Y-54526904D01*
X145431009Y-54526904D02*
X145478628Y-54574523D01*
X145478628Y-54574523D02*
X145573866Y-54622142D01*
X145573866Y-54622142D02*
X145764342Y-54622142D01*
X145764342Y-54622142D02*
X145859580Y-54574523D01*
X145859580Y-54574523D02*
X145907200Y-54526904D01*
X145907200Y-54526904D02*
X145954819Y-54431666D01*
X145954819Y-54431666D02*
X145954819Y-54241190D01*
X145954819Y-54241190D02*
X145907200Y-54145952D01*
X145907200Y-54145952D02*
X145859580Y-54098333D01*
X145859580Y-54098333D02*
X145764342Y-54050714D01*
X145764342Y-54050714D02*
X145573866Y-54050714D01*
X145573866Y-54050714D02*
X145478628Y-54098333D01*
X145478628Y-54098333D02*
X145431009Y-54145952D01*
X145431009Y-54145952D02*
X145383390Y-54241190D01*
X51404819Y-92511904D02*
X50404819Y-92511904D01*
X50881009Y-92511904D02*
X50881009Y-91940476D01*
X51404819Y-91940476D02*
X50404819Y-91940476D01*
X50500057Y-91511904D02*
X50452438Y-91464285D01*
X50452438Y-91464285D02*
X50404819Y-91369047D01*
X50404819Y-91369047D02*
X50404819Y-91130952D01*
X50404819Y-91130952D02*
X50452438Y-91035714D01*
X50452438Y-91035714D02*
X50500057Y-90988095D01*
X50500057Y-90988095D02*
X50595295Y-90940476D01*
X50595295Y-90940476D02*
X50690533Y-90940476D01*
X50690533Y-90940476D02*
X50833390Y-90988095D01*
X50833390Y-90988095D02*
X51404819Y-91559523D01*
X51404819Y-91559523D02*
X51404819Y-90940476D01*
X128426009Y-55113333D02*
X128426009Y-55446666D01*
X128949819Y-55446666D02*
X127949819Y-55446666D01*
X127949819Y-55446666D02*
X127949819Y-54970476D01*
X127949819Y-54160952D02*
X127949819Y-54351428D01*
X127949819Y-54351428D02*
X127997438Y-54446666D01*
X127997438Y-54446666D02*
X128045057Y-54494285D01*
X128045057Y-54494285D02*
X128187914Y-54589523D01*
X128187914Y-54589523D02*
X128378390Y-54637142D01*
X128378390Y-54637142D02*
X128759342Y-54637142D01*
X128759342Y-54637142D02*
X128854580Y-54589523D01*
X128854580Y-54589523D02*
X128902200Y-54541904D01*
X128902200Y-54541904D02*
X128949819Y-54446666D01*
X128949819Y-54446666D02*
X128949819Y-54256190D01*
X128949819Y-54256190D02*
X128902200Y-54160952D01*
X128902200Y-54160952D02*
X128854580Y-54113333D01*
X128854580Y-54113333D02*
X128759342Y-54065714D01*
X128759342Y-54065714D02*
X128521247Y-54065714D01*
X128521247Y-54065714D02*
X128426009Y-54113333D01*
X128426009Y-54113333D02*
X128378390Y-54160952D01*
X128378390Y-54160952D02*
X128330771Y-54256190D01*
X128330771Y-54256190D02*
X128330771Y-54446666D01*
X128330771Y-54446666D02*
X128378390Y-54541904D01*
X128378390Y-54541904D02*
X128426009Y-54589523D01*
X128426009Y-54589523D02*
X128521247Y-54637142D01*
X153926009Y-55113333D02*
X153926009Y-55446666D01*
X154449819Y-55446666D02*
X153449819Y-55446666D01*
X153449819Y-55446666D02*
X153449819Y-54970476D01*
X154449819Y-54541904D02*
X154449819Y-54351428D01*
X154449819Y-54351428D02*
X154402200Y-54256190D01*
X154402200Y-54256190D02*
X154354580Y-54208571D01*
X154354580Y-54208571D02*
X154211723Y-54113333D01*
X154211723Y-54113333D02*
X154021247Y-54065714D01*
X154021247Y-54065714D02*
X153640295Y-54065714D01*
X153640295Y-54065714D02*
X153545057Y-54113333D01*
X153545057Y-54113333D02*
X153497438Y-54160952D01*
X153497438Y-54160952D02*
X153449819Y-54256190D01*
X153449819Y-54256190D02*
X153449819Y-54446666D01*
X153449819Y-54446666D02*
X153497438Y-54541904D01*
X153497438Y-54541904D02*
X153545057Y-54589523D01*
X153545057Y-54589523D02*
X153640295Y-54637142D01*
X153640295Y-54637142D02*
X153878390Y-54637142D01*
X153878390Y-54637142D02*
X153973628Y-54589523D01*
X153973628Y-54589523D02*
X154021247Y-54541904D01*
X154021247Y-54541904D02*
X154068866Y-54446666D01*
X154068866Y-54446666D02*
X154068866Y-54256190D01*
X154068866Y-54256190D02*
X154021247Y-54160952D01*
X154021247Y-54160952D02*
X153973628Y-54113333D01*
X153973628Y-54113333D02*
X153878390Y-54065714D01*
X49583333Y-74284819D02*
X49250000Y-73808628D01*
X49011905Y-74284819D02*
X49011905Y-73284819D01*
X49011905Y-73284819D02*
X49392857Y-73284819D01*
X49392857Y-73284819D02*
X49488095Y-73332438D01*
X49488095Y-73332438D02*
X49535714Y-73380057D01*
X49535714Y-73380057D02*
X49583333Y-73475295D01*
X49583333Y-73475295D02*
X49583333Y-73618152D01*
X49583333Y-73618152D02*
X49535714Y-73713390D01*
X49535714Y-73713390D02*
X49488095Y-73761009D01*
X49488095Y-73761009D02*
X49392857Y-73808628D01*
X49392857Y-73808628D02*
X49011905Y-73808628D01*
X50535714Y-74284819D02*
X49964286Y-74284819D01*
X50250000Y-74284819D02*
X50250000Y-73284819D01*
X50250000Y-73284819D02*
X50154762Y-73427676D01*
X50154762Y-73427676D02*
X50059524Y-73522914D01*
X50059524Y-73522914D02*
X49964286Y-73570533D01*
X74580057Y-77845238D02*
X74532438Y-77940476D01*
X74532438Y-77940476D02*
X74437200Y-78035714D01*
X74437200Y-78035714D02*
X74294342Y-78178571D01*
X74294342Y-78178571D02*
X74246723Y-78273809D01*
X74246723Y-78273809D02*
X74246723Y-78369047D01*
X74484819Y-78321428D02*
X74437200Y-78416666D01*
X74437200Y-78416666D02*
X74341961Y-78511904D01*
X74341961Y-78511904D02*
X74151485Y-78559523D01*
X74151485Y-78559523D02*
X73818152Y-78559523D01*
X73818152Y-78559523D02*
X73627676Y-78511904D01*
X73627676Y-78511904D02*
X73532438Y-78416666D01*
X73532438Y-78416666D02*
X73484819Y-78321428D01*
X73484819Y-78321428D02*
X73484819Y-78130952D01*
X73484819Y-78130952D02*
X73532438Y-78035714D01*
X73532438Y-78035714D02*
X73627676Y-77940476D01*
X73627676Y-77940476D02*
X73818152Y-77892857D01*
X73818152Y-77892857D02*
X74151485Y-77892857D01*
X74151485Y-77892857D02*
X74341961Y-77940476D01*
X74341961Y-77940476D02*
X74437200Y-78035714D01*
X74437200Y-78035714D02*
X74484819Y-78130952D01*
X74484819Y-78130952D02*
X74484819Y-78321428D01*
X73580057Y-77511904D02*
X73532438Y-77464285D01*
X73532438Y-77464285D02*
X73484819Y-77369047D01*
X73484819Y-77369047D02*
X73484819Y-77130952D01*
X73484819Y-77130952D02*
X73532438Y-77035714D01*
X73532438Y-77035714D02*
X73580057Y-76988095D01*
X73580057Y-76988095D02*
X73675295Y-76940476D01*
X73675295Y-76940476D02*
X73770533Y-76940476D01*
X73770533Y-76940476D02*
X73913390Y-76988095D01*
X73913390Y-76988095D02*
X74484819Y-77559523D01*
X74484819Y-77559523D02*
X74484819Y-76940476D01*
X83238095Y-37654819D02*
X83238095Y-36654819D01*
X83238095Y-37131009D02*
X83809523Y-37131009D01*
X83809523Y-37654819D02*
X83809523Y-36654819D01*
X84333333Y-37654819D02*
X84523809Y-37654819D01*
X84523809Y-37654819D02*
X84619047Y-37607200D01*
X84619047Y-37607200D02*
X84666666Y-37559580D01*
X84666666Y-37559580D02*
X84761904Y-37416723D01*
X84761904Y-37416723D02*
X84809523Y-37226247D01*
X84809523Y-37226247D02*
X84809523Y-36845295D01*
X84809523Y-36845295D02*
X84761904Y-36750057D01*
X84761904Y-36750057D02*
X84714285Y-36702438D01*
X84714285Y-36702438D02*
X84619047Y-36654819D01*
X84619047Y-36654819D02*
X84428571Y-36654819D01*
X84428571Y-36654819D02*
X84333333Y-36702438D01*
X84333333Y-36702438D02*
X84285714Y-36750057D01*
X84285714Y-36750057D02*
X84238095Y-36845295D01*
X84238095Y-36845295D02*
X84238095Y-37083390D01*
X84238095Y-37083390D02*
X84285714Y-37178628D01*
X84285714Y-37178628D02*
X84333333Y-37226247D01*
X84333333Y-37226247D02*
X84428571Y-37273866D01*
X84428571Y-37273866D02*
X84619047Y-37273866D01*
X84619047Y-37273866D02*
X84714285Y-37226247D01*
X84714285Y-37226247D02*
X84761904Y-37178628D01*
X84761904Y-37178628D02*
X84809523Y-37083390D01*
X89080057Y-77845238D02*
X89032438Y-77940476D01*
X89032438Y-77940476D02*
X88937200Y-78035714D01*
X88937200Y-78035714D02*
X88794342Y-78178571D01*
X88794342Y-78178571D02*
X88746723Y-78273809D01*
X88746723Y-78273809D02*
X88746723Y-78369047D01*
X88984819Y-78321428D02*
X88937200Y-78416666D01*
X88937200Y-78416666D02*
X88841961Y-78511904D01*
X88841961Y-78511904D02*
X88651485Y-78559523D01*
X88651485Y-78559523D02*
X88318152Y-78559523D01*
X88318152Y-78559523D02*
X88127676Y-78511904D01*
X88127676Y-78511904D02*
X88032438Y-78416666D01*
X88032438Y-78416666D02*
X87984819Y-78321428D01*
X87984819Y-78321428D02*
X87984819Y-78130952D01*
X87984819Y-78130952D02*
X88032438Y-78035714D01*
X88032438Y-78035714D02*
X88127676Y-77940476D01*
X88127676Y-77940476D02*
X88318152Y-77892857D01*
X88318152Y-77892857D02*
X88651485Y-77892857D01*
X88651485Y-77892857D02*
X88841961Y-77940476D01*
X88841961Y-77940476D02*
X88937200Y-78035714D01*
X88937200Y-78035714D02*
X88984819Y-78130952D01*
X88984819Y-78130952D02*
X88984819Y-78321428D01*
X87984819Y-77559523D02*
X87984819Y-76940476D01*
X87984819Y-76940476D02*
X88365771Y-77273809D01*
X88365771Y-77273809D02*
X88365771Y-77130952D01*
X88365771Y-77130952D02*
X88413390Y-77035714D01*
X88413390Y-77035714D02*
X88461009Y-76988095D01*
X88461009Y-76988095D02*
X88556247Y-76940476D01*
X88556247Y-76940476D02*
X88794342Y-76940476D01*
X88794342Y-76940476D02*
X88889580Y-76988095D01*
X88889580Y-76988095D02*
X88937200Y-77035714D01*
X88937200Y-77035714D02*
X88984819Y-77130952D01*
X88984819Y-77130952D02*
X88984819Y-77416666D01*
X88984819Y-77416666D02*
X88937200Y-77511904D01*
X88937200Y-77511904D02*
X88889580Y-77559523D01*
X66738095Y-37654819D02*
X66738095Y-36654819D01*
X66738095Y-37131009D02*
X67309523Y-37131009D01*
X67309523Y-37654819D02*
X67309523Y-36654819D01*
X68309523Y-37654819D02*
X67738095Y-37654819D01*
X68023809Y-37654819D02*
X68023809Y-36654819D01*
X68023809Y-36654819D02*
X67928571Y-36797676D01*
X67928571Y-36797676D02*
X67833333Y-36892914D01*
X67833333Y-36892914D02*
X67738095Y-36940533D01*
X53270057Y-80265238D02*
X53222438Y-80360476D01*
X53222438Y-80360476D02*
X53127200Y-80455714D01*
X53127200Y-80455714D02*
X52984342Y-80598571D01*
X52984342Y-80598571D02*
X52936723Y-80693809D01*
X52936723Y-80693809D02*
X52936723Y-80789047D01*
X53174819Y-80741428D02*
X53127200Y-80836666D01*
X53127200Y-80836666D02*
X53031961Y-80931904D01*
X53031961Y-80931904D02*
X52841485Y-80979523D01*
X52841485Y-80979523D02*
X52508152Y-80979523D01*
X52508152Y-80979523D02*
X52317676Y-80931904D01*
X52317676Y-80931904D02*
X52222438Y-80836666D01*
X52222438Y-80836666D02*
X52174819Y-80741428D01*
X52174819Y-80741428D02*
X52174819Y-80550952D01*
X52174819Y-80550952D02*
X52222438Y-80455714D01*
X52222438Y-80455714D02*
X52317676Y-80360476D01*
X52317676Y-80360476D02*
X52508152Y-80312857D01*
X52508152Y-80312857D02*
X52841485Y-80312857D01*
X52841485Y-80312857D02*
X53031961Y-80360476D01*
X53031961Y-80360476D02*
X53127200Y-80455714D01*
X53127200Y-80455714D02*
X53174819Y-80550952D01*
X53174819Y-80550952D02*
X53174819Y-80741428D01*
X53174819Y-79360476D02*
X53174819Y-79931904D01*
X53174819Y-79646190D02*
X52174819Y-79646190D01*
X52174819Y-79646190D02*
X52317676Y-79741428D01*
X52317676Y-79741428D02*
X52412914Y-79836666D01*
X52412914Y-79836666D02*
X52460533Y-79931904D01*
X67754819Y-86511904D02*
X66754819Y-86511904D01*
X67231009Y-86511904D02*
X67231009Y-85940476D01*
X67754819Y-85940476D02*
X66754819Y-85940476D01*
X66754819Y-85559523D02*
X66754819Y-84940476D01*
X66754819Y-84940476D02*
X67135771Y-85273809D01*
X67135771Y-85273809D02*
X67135771Y-85130952D01*
X67135771Y-85130952D02*
X67183390Y-85035714D01*
X67183390Y-85035714D02*
X67231009Y-84988095D01*
X67231009Y-84988095D02*
X67326247Y-84940476D01*
X67326247Y-84940476D02*
X67564342Y-84940476D01*
X67564342Y-84940476D02*
X67659580Y-84988095D01*
X67659580Y-84988095D02*
X67707200Y-85035714D01*
X67707200Y-85035714D02*
X67754819Y-85130952D01*
X67754819Y-85130952D02*
X67754819Y-85416666D01*
X67754819Y-85416666D02*
X67707200Y-85511904D01*
X67707200Y-85511904D02*
X67659580Y-85559523D01*
X88126009Y-54848333D02*
X88126009Y-55181666D01*
X88649819Y-55181666D02*
X87649819Y-55181666D01*
X87649819Y-55181666D02*
X87649819Y-54705476D01*
X87745057Y-54372142D02*
X87697438Y-54324523D01*
X87697438Y-54324523D02*
X87649819Y-54229285D01*
X87649819Y-54229285D02*
X87649819Y-53991190D01*
X87649819Y-53991190D02*
X87697438Y-53895952D01*
X87697438Y-53895952D02*
X87745057Y-53848333D01*
X87745057Y-53848333D02*
X87840295Y-53800714D01*
X87840295Y-53800714D02*
X87935533Y-53800714D01*
X87935533Y-53800714D02*
X88078390Y-53848333D01*
X88078390Y-53848333D02*
X88649819Y-54419761D01*
X88649819Y-54419761D02*
X88649819Y-53800714D01*
X62150057Y-78777738D02*
X62102438Y-78872976D01*
X62102438Y-78872976D02*
X62007200Y-78968214D01*
X62007200Y-78968214D02*
X61864342Y-79111071D01*
X61864342Y-79111071D02*
X61816723Y-79206309D01*
X61816723Y-79206309D02*
X61816723Y-79301547D01*
X62054819Y-79253928D02*
X62007200Y-79349166D01*
X62007200Y-79349166D02*
X61911961Y-79444404D01*
X61911961Y-79444404D02*
X61721485Y-79492023D01*
X61721485Y-79492023D02*
X61388152Y-79492023D01*
X61388152Y-79492023D02*
X61197676Y-79444404D01*
X61197676Y-79444404D02*
X61102438Y-79349166D01*
X61102438Y-79349166D02*
X61054819Y-79253928D01*
X61054819Y-79253928D02*
X61054819Y-79063452D01*
X61054819Y-79063452D02*
X61102438Y-78968214D01*
X61102438Y-78968214D02*
X61197676Y-78872976D01*
X61197676Y-78872976D02*
X61388152Y-78825357D01*
X61388152Y-78825357D02*
X61721485Y-78825357D01*
X61721485Y-78825357D02*
X61911961Y-78872976D01*
X61911961Y-78872976D02*
X62007200Y-78968214D01*
X62007200Y-78968214D02*
X62054819Y-79063452D01*
X62054819Y-79063452D02*
X62054819Y-79253928D01*
X61054819Y-77968214D02*
X61054819Y-78158690D01*
X61054819Y-78158690D02*
X61102438Y-78253928D01*
X61102438Y-78253928D02*
X61150057Y-78301547D01*
X61150057Y-78301547D02*
X61292914Y-78396785D01*
X61292914Y-78396785D02*
X61483390Y-78444404D01*
X61483390Y-78444404D02*
X61864342Y-78444404D01*
X61864342Y-78444404D02*
X61959580Y-78396785D01*
X61959580Y-78396785D02*
X62007200Y-78349166D01*
X62007200Y-78349166D02*
X62054819Y-78253928D01*
X62054819Y-78253928D02*
X62054819Y-78063452D01*
X62054819Y-78063452D02*
X62007200Y-77968214D01*
X62007200Y-77968214D02*
X61959580Y-77920595D01*
X61959580Y-77920595D02*
X61864342Y-77872976D01*
X61864342Y-77872976D02*
X61626247Y-77872976D01*
X61626247Y-77872976D02*
X61531009Y-77920595D01*
X61531009Y-77920595D02*
X61483390Y-77968214D01*
X61483390Y-77968214D02*
X61435771Y-78063452D01*
X61435771Y-78063452D02*
X61435771Y-78253928D01*
X61435771Y-78253928D02*
X61483390Y-78349166D01*
X61483390Y-78349166D02*
X61531009Y-78396785D01*
X61531009Y-78396785D02*
X61626247Y-78444404D01*
X60126009Y-55324523D02*
X60126009Y-55657856D01*
X60649819Y-55657856D02*
X59649819Y-55657856D01*
X59649819Y-55657856D02*
X59649819Y-55181666D01*
X60649819Y-54276904D02*
X60649819Y-54848332D01*
X60649819Y-54562618D02*
X59649819Y-54562618D01*
X59649819Y-54562618D02*
X59792676Y-54657856D01*
X59792676Y-54657856D02*
X59887914Y-54753094D01*
X59887914Y-54753094D02*
X59935533Y-54848332D01*
X59649819Y-53657856D02*
X59649819Y-53562618D01*
X59649819Y-53562618D02*
X59697438Y-53467380D01*
X59697438Y-53467380D02*
X59745057Y-53419761D01*
X59745057Y-53419761D02*
X59840295Y-53372142D01*
X59840295Y-53372142D02*
X60030771Y-53324523D01*
X60030771Y-53324523D02*
X60268866Y-53324523D01*
X60268866Y-53324523D02*
X60459342Y-53372142D01*
X60459342Y-53372142D02*
X60554580Y-53419761D01*
X60554580Y-53419761D02*
X60602200Y-53467380D01*
X60602200Y-53467380D02*
X60649819Y-53562618D01*
X60649819Y-53562618D02*
X60649819Y-53657856D01*
X60649819Y-53657856D02*
X60602200Y-53753094D01*
X60602200Y-53753094D02*
X60554580Y-53800713D01*
X60554580Y-53800713D02*
X60459342Y-53848332D01*
X60459342Y-53848332D02*
X60268866Y-53895951D01*
X60268866Y-53895951D02*
X60030771Y-53895951D01*
X60030771Y-53895951D02*
X59840295Y-53848332D01*
X59840295Y-53848332D02*
X59745057Y-53800713D01*
X59745057Y-53800713D02*
X59697438Y-53753094D01*
X59697438Y-53753094D02*
X59649819Y-53657856D01*
X47950057Y-79512738D02*
X47902438Y-79607976D01*
X47902438Y-79607976D02*
X47807200Y-79703214D01*
X47807200Y-79703214D02*
X47664342Y-79846071D01*
X47664342Y-79846071D02*
X47616723Y-79941309D01*
X47616723Y-79941309D02*
X47616723Y-80036547D01*
X47854819Y-79988928D02*
X47807200Y-80084166D01*
X47807200Y-80084166D02*
X47711961Y-80179404D01*
X47711961Y-80179404D02*
X47521485Y-80227023D01*
X47521485Y-80227023D02*
X47188152Y-80227023D01*
X47188152Y-80227023D02*
X46997676Y-80179404D01*
X46997676Y-80179404D02*
X46902438Y-80084166D01*
X46902438Y-80084166D02*
X46854819Y-79988928D01*
X46854819Y-79988928D02*
X46854819Y-79798452D01*
X46854819Y-79798452D02*
X46902438Y-79703214D01*
X46902438Y-79703214D02*
X46997676Y-79607976D01*
X46997676Y-79607976D02*
X47188152Y-79560357D01*
X47188152Y-79560357D02*
X47521485Y-79560357D01*
X47521485Y-79560357D02*
X47711961Y-79607976D01*
X47711961Y-79607976D02*
X47807200Y-79703214D01*
X47807200Y-79703214D02*
X47854819Y-79798452D01*
X47854819Y-79798452D02*
X47854819Y-79988928D01*
X46854819Y-78655595D02*
X46854819Y-79131785D01*
X46854819Y-79131785D02*
X47331009Y-79179404D01*
X47331009Y-79179404D02*
X47283390Y-79131785D01*
X47283390Y-79131785D02*
X47235771Y-79036547D01*
X47235771Y-79036547D02*
X47235771Y-78798452D01*
X47235771Y-78798452D02*
X47283390Y-78703214D01*
X47283390Y-78703214D02*
X47331009Y-78655595D01*
X47331009Y-78655595D02*
X47426247Y-78607976D01*
X47426247Y-78607976D02*
X47664342Y-78607976D01*
X47664342Y-78607976D02*
X47759580Y-78655595D01*
X47759580Y-78655595D02*
X47807200Y-78703214D01*
X47807200Y-78703214D02*
X47854819Y-78798452D01*
X47854819Y-78798452D02*
X47854819Y-79036547D01*
X47854819Y-79036547D02*
X47807200Y-79131785D01*
X47807200Y-79131785D02*
X47759580Y-79179404D01*
X137126009Y-55098333D02*
X137126009Y-55431666D01*
X137649819Y-55431666D02*
X136649819Y-55431666D01*
X136649819Y-55431666D02*
X136649819Y-54955476D01*
X136649819Y-54669761D02*
X136649819Y-54003095D01*
X136649819Y-54003095D02*
X137649819Y-54431666D01*
X76440057Y-78807738D02*
X76392438Y-78902976D01*
X76392438Y-78902976D02*
X76297200Y-78998214D01*
X76297200Y-78998214D02*
X76154342Y-79141071D01*
X76154342Y-79141071D02*
X76106723Y-79236309D01*
X76106723Y-79236309D02*
X76106723Y-79331547D01*
X76344819Y-79283928D02*
X76297200Y-79379166D01*
X76297200Y-79379166D02*
X76201961Y-79474404D01*
X76201961Y-79474404D02*
X76011485Y-79522023D01*
X76011485Y-79522023D02*
X75678152Y-79522023D01*
X75678152Y-79522023D02*
X75487676Y-79474404D01*
X75487676Y-79474404D02*
X75392438Y-79379166D01*
X75392438Y-79379166D02*
X75344819Y-79283928D01*
X75344819Y-79283928D02*
X75344819Y-79093452D01*
X75344819Y-79093452D02*
X75392438Y-78998214D01*
X75392438Y-78998214D02*
X75487676Y-78902976D01*
X75487676Y-78902976D02*
X75678152Y-78855357D01*
X75678152Y-78855357D02*
X76011485Y-78855357D01*
X76011485Y-78855357D02*
X76201961Y-78902976D01*
X76201961Y-78902976D02*
X76297200Y-78998214D01*
X76297200Y-78998214D02*
X76344819Y-79093452D01*
X76344819Y-79093452D02*
X76344819Y-79283928D01*
X75678152Y-77998214D02*
X76344819Y-77998214D01*
X75297200Y-78236309D02*
X76011485Y-78474404D01*
X76011485Y-78474404D02*
X76011485Y-77855357D01*
D11*
%TO.C,F4*%
X102685000Y-51830000D02*
X102685000Y-71640000D01*
X102685000Y-71640000D02*
X109415000Y-71640000D01*
X109415000Y-51830000D02*
X102685000Y-51830000D01*
X109415000Y-71640000D02*
X109415000Y-51830000D01*
D12*
%TO.C,J2*%
X98015000Y-78980000D02*
X99435000Y-78980000D01*
X98015000Y-84730000D02*
X98015000Y-78980000D01*
X98015000Y-86270000D02*
X98015000Y-86570000D01*
X98015000Y-86570000D02*
X120385000Y-86570000D01*
X99435000Y-78980000D02*
X99435000Y-79480000D01*
X99435000Y-79480000D02*
X118965000Y-79480000D01*
X118965000Y-78980000D02*
X120385000Y-78980000D01*
X118965000Y-79480000D02*
X118965000Y-78980000D01*
X120385000Y-78980000D02*
X120385000Y-84730000D01*
X120385000Y-86570000D02*
X120385000Y-86270000D01*
D11*
%TO.C,F1*%
X66135000Y-51595000D02*
X66135000Y-71405000D01*
X66135000Y-71405000D02*
X72865000Y-71405000D01*
X72865000Y-51595000D02*
X66135000Y-51595000D01*
X72865000Y-71405000D02*
X72865000Y-51595000D01*
D12*
%TO.C,R2*%
X63822936Y-74760000D02*
X64277064Y-74760000D01*
X63822936Y-76230000D02*
X64277064Y-76230000D01*
%TO.C,R3*%
X78062936Y-74690000D02*
X78517064Y-74690000D01*
X78062936Y-76160000D02*
X78517064Y-76160000D01*
D11*
%TO.C,F3*%
X93685000Y-51830000D02*
X93685000Y-71640000D01*
X93685000Y-71640000D02*
X100415000Y-71640000D01*
X100415000Y-51830000D02*
X93685000Y-51830000D01*
X100415000Y-71640000D02*
X100415000Y-51830000D01*
%TO.C,F5*%
X111685000Y-51830000D02*
X111685000Y-71640000D01*
X111685000Y-71640000D02*
X118415000Y-71640000D01*
X118415000Y-51830000D02*
X111685000Y-51830000D01*
X118415000Y-71640000D02*
X118415000Y-51830000D01*
%TO.C,F8*%
X137885000Y-51845000D02*
X137885000Y-71655000D01*
X137885000Y-71655000D02*
X144615000Y-71655000D01*
X144615000Y-51845000D02*
X137885000Y-51845000D01*
X144615000Y-71655000D02*
X144615000Y-51845000D01*
%TO.C,F6*%
X120685000Y-51860000D02*
X120685000Y-71670000D01*
X120685000Y-71670000D02*
X127415000Y-71670000D01*
X127415000Y-51860000D02*
X120685000Y-51860000D01*
X127415000Y-71670000D02*
X127415000Y-51860000D01*
%TO.C,F9*%
X146185000Y-51860000D02*
X146185000Y-71670000D01*
X146185000Y-71670000D02*
X152915000Y-71670000D01*
X152915000Y-51860000D02*
X146185000Y-51860000D01*
X152915000Y-71670000D02*
X152915000Y-51860000D01*
D12*
%TO.C,R1*%
X49522936Y-74745000D02*
X49977064Y-74745000D01*
X49522936Y-76215000D02*
X49977064Y-76215000D01*
%TO.C,Q2*%
X67640000Y-74975000D02*
X67640000Y-80525000D01*
X73060000Y-74975000D02*
X73060000Y-80525000D01*
X73250000Y-74730000D02*
X72770000Y-74730000D01*
X72770000Y-74250000D01*
X73250000Y-74730000D01*
G36*
X73250000Y-74730000D02*
G01*
X72770000Y-74730000D01*
X72770000Y-74250000D01*
X73250000Y-74730000D01*
G37*
%TO.C,Q3*%
X82140000Y-74975000D02*
X82140000Y-80525000D01*
X87560000Y-74975000D02*
X87560000Y-80525000D01*
X87750000Y-74730000D02*
X87270000Y-74730000D01*
X87270000Y-74250000D01*
X87750000Y-74730000D01*
G36*
X87750000Y-74730000D02*
G01*
X87270000Y-74730000D01*
X87270000Y-74250000D01*
X87750000Y-74730000D01*
G37*
%TO.C,Q1*%
X53890000Y-74975000D02*
X53890000Y-80525000D01*
X59310000Y-74975000D02*
X59310000Y-80525000D01*
X59500000Y-74730000D02*
X59020000Y-74730000D01*
X59020000Y-74250000D01*
X59500000Y-74730000D01*
G36*
X59500000Y-74730000D02*
G01*
X59020000Y-74730000D01*
X59020000Y-74250000D01*
X59500000Y-74730000D01*
G37*
D11*
%TO.C,F2*%
X80385000Y-51595000D02*
X80385000Y-71405000D01*
X80385000Y-71405000D02*
X87115000Y-71405000D01*
X87115000Y-51595000D02*
X80385000Y-51595000D01*
X87115000Y-71405000D02*
X87115000Y-51595000D01*
D12*
%TO.C,Q6*%
X62440000Y-78682500D02*
X62440000Y-78032500D01*
X62440000Y-78682500D02*
X62440000Y-79332500D01*
X65560000Y-78682500D02*
X65560000Y-78032500D01*
X65560000Y-78682500D02*
X65560000Y-79332500D01*
X62490000Y-79845000D02*
X62160000Y-80085000D01*
X62160000Y-79605000D01*
X62490000Y-79845000D01*
G36*
X62490000Y-79845000D02*
G01*
X62160000Y-80085000D01*
X62160000Y-79605000D01*
X62490000Y-79845000D01*
G37*
D11*
%TO.C,F10*%
X52385000Y-51595000D02*
X52385000Y-71405000D01*
X52385000Y-71405000D02*
X59115000Y-71405000D01*
X59115000Y-51595000D02*
X52385000Y-51595000D01*
X59115000Y-71405000D02*
X59115000Y-51595000D01*
D12*
%TO.C,Q5*%
X48240000Y-79417500D02*
X48240000Y-78767500D01*
X48240000Y-79417500D02*
X48240000Y-80067500D01*
X51360000Y-79417500D02*
X51360000Y-78767500D01*
X51360000Y-79417500D02*
X51360000Y-80067500D01*
X48290000Y-80580000D02*
X47960000Y-80820000D01*
X47960000Y-80340000D01*
X48290000Y-80580000D01*
G36*
X48290000Y-80580000D02*
G01*
X47960000Y-80820000D01*
X47960000Y-80340000D01*
X48290000Y-80580000D01*
G37*
D11*
%TO.C,F7*%
X129385000Y-51845000D02*
X129385000Y-71655000D01*
X129385000Y-71655000D02*
X136115000Y-71655000D01*
X136115000Y-51845000D02*
X129385000Y-51845000D01*
X136115000Y-71655000D02*
X136115000Y-51845000D01*
D12*
%TO.C,Q4*%
X76730000Y-78712500D02*
X76730000Y-78062500D01*
X76730000Y-78712500D02*
X76730000Y-79362500D01*
X79850000Y-78712500D02*
X79850000Y-78062500D01*
X79850000Y-78712500D02*
X79850000Y-79362500D01*
X76780000Y-79875000D02*
X76450000Y-80115000D01*
X76450000Y-79635000D01*
X76780000Y-79875000D01*
G36*
X76780000Y-79875000D02*
G01*
X76450000Y-80115000D01*
X76450000Y-79635000D01*
X76780000Y-79875000D01*
G37*
%TD*%
M02*
