M48
; DRILL file {KiCad 9.0.4} date 2026-02-19T19:42:06-0800
; FORMAT={-:-/ absolute / metric / decimal}
; #@! TF.CreationDate,2026-02-19T19:42:06-08:00
; #@! TF.GenerationSoftware,Kicad,Pcbnew,9.0.4
; #@! TF.FileFunction,Plated,1,2,PTH
FMAT,2
METRIC
; #@! TA.AperFunction,Plated,PTH,ViaDrill
T1C0.300
; #@! TA.AperFunction,Plated,PTH,ComponentDrill
T2C1.020
; #@! TA.AperFunction,Plated,PTH,ComponentDrill
T3C1.600
; #@! TA.AperFunction,Plated,PTH,ComponentDrill
T4C5.300
%
G90
G05
T1
X48.85Y-82.0
X50.75Y-84.5
X63.0Y-81.2
X64.0Y-83.7
X77.34Y-81.0
X79.2Y-83.3
T2
X101.7Y-81.56
X101.7Y-84.56
X104.7Y-81.56
X104.7Y-84.56
X107.7Y-81.56
X107.7Y-84.56
X110.7Y-81.56
X110.7Y-84.56
X113.7Y-81.56
X113.7Y-84.56
X116.7Y-81.56
X116.7Y-84.56
T3
X54.05Y-54.765
X54.05Y-68.235
X57.45Y-54.765
X57.45Y-68.235
X67.8Y-54.765
X67.8Y-68.235
X71.2Y-54.765
X71.2Y-68.235
X82.05Y-54.765
X82.05Y-68.235
X85.45Y-54.765
X85.45Y-68.235
X95.35Y-55.0
X95.35Y-68.47
X98.75Y-55.0
X98.75Y-68.47
X104.35Y-55.0
X104.35Y-68.47
X107.75Y-55.0
X107.75Y-68.47
X113.35Y-55.0
X113.35Y-68.47
X116.75Y-55.0
X116.75Y-68.47
X122.35Y-55.03
X122.35Y-68.5
X125.75Y-55.03
X125.75Y-68.5
X131.05Y-55.015
X131.05Y-68.485
X134.45Y-55.015
X134.45Y-68.485
X139.55Y-55.015
X139.55Y-68.485
X142.95Y-55.015
X142.95Y-68.485
X147.85Y-55.03
X147.85Y-68.5
X151.25Y-55.03
X151.25Y-68.5
T4
X57.25Y-91.75
X67.5Y-43.5
X71.0Y-91.75
X84.0Y-43.5
X85.5Y-91.75
M30
