%TF.GenerationSoftware,KiCad,Pcbnew,9.0.4*%
%TF.CreationDate,2026-02-19T19:41:56-08:00*%
%TF.ProjectId,Power_board,506f7765-725f-4626-9f61-72642e6b6963,rev?*%
%TF.SameCoordinates,Original*%
%TF.FileFunction,Copper,L1,Top*%
%TF.FilePolarity,Positive*%
%FSLAX46Y46*%
G04 Gerber Fmt 4.6, Leading zero omitted, Abs format (unit mm)*
G04 Created by KiCad (PCBNEW 9.0.4) date 2026-02-19 19:41:56*
%MOMM*%
%LPD*%
G01*
G04 APERTURE LIST*
G04 Aperture macros list*
%AMRoundRect*
0 Rectangle with rounded corners*
0 $1 Rounding radius*
0 $2 $3 $4 $5 $6 $7 $8 $9 X,Y pos of 4 corners*
0 Add a 4 corners polygon primitive as box body*
4,1,4,$2,$3,$4,$5,$6,$7,$8,$9,$2,$3,0*
0 Add four circle primitives for the rounded corners*
1,1,$1+$1,$2,$3*
1,1,$1+$1,$4,$5*
1,1,$1+$1,$6,$7*
1,1,$1+$1,$8,$9*
0 Add four rect primitives between the rounded corners*
20,1,$1+$1,$2,$3,$4,$5,0*
20,1,$1+$1,$4,$5,$6,$7,0*
20,1,$1+$1,$6,$7,$8,$9,0*
20,1,$1+$1,$8,$9,$2,$3,0*%
G04 Aperture macros list end*
%TA.AperFunction,ComponentPad*%
%ADD10C,2.400000*%
%TD*%
%TA.AperFunction,ComponentPad*%
%ADD11RoundRect,0.250001X-0.499999X-0.499999X0.499999X-0.499999X0.499999X0.499999X-0.499999X0.499999X0*%
%TD*%
%TA.AperFunction,ComponentPad*%
%ADD12C,1.500000*%
%TD*%
%TA.AperFunction,SMDPad,CuDef*%
%ADD13RoundRect,0.250000X-0.350000X-0.450000X0.350000X-0.450000X0.350000X0.450000X-0.350000X0.450000X0*%
%TD*%
%TA.AperFunction,ComponentPad*%
%ADD14C,10.600000*%
%TD*%
%TA.AperFunction,SMDPad,CuDef*%
%ADD15R,0.500000X0.650000*%
%TD*%
%TA.AperFunction,SMDPad,CuDef*%
%ADD16R,4.600000X4.120000*%
%TD*%
%TA.AperFunction,SMDPad,CuDef*%
%ADD17R,0.500000X0.550000*%
%TD*%
%TA.AperFunction,SMDPad,CuDef*%
%ADD18RoundRect,0.150000X0.150000X-0.587500X0.150000X0.587500X-0.150000X0.587500X-0.150000X-0.587500X0*%
%TD*%
%TA.AperFunction,ViaPad*%
%ADD19C,0.600000*%
%TD*%
%TA.AperFunction,Conductor*%
%ADD20C,2.000000*%
%TD*%
%TA.AperFunction,Conductor*%
%ADD21C,0.200000*%
%TD*%
G04 APERTURE END LIST*
D10*
%TO.P,F4,1_1*%
%TO.N,/12V+*%
X107750000Y-55000000D03*
%TO.P,F4,1_2*%
%TO.N,N/C*%
X104350000Y-55000000D03*
%TO.P,F4,2_1*%
%TO.N,LC_2*%
X107750000Y-68470000D03*
%TO.P,F4,2_2*%
%TO.N,N/C*%
X104350000Y-68470000D03*
%TD*%
D11*
%TO.P,J2,1,Pin_1*%
%TO.N,LC_1*%
X101700000Y-81560000D03*
D12*
%TO.P,J2,2,Pin_2*%
%TO.N,LC_2*%
X104700000Y-81560000D03*
%TO.P,J2,3,Pin_3*%
%TO.N,LC_3*%
X107700000Y-81560000D03*
%TO.P,J2,4,Pin_4*%
%TO.N,LC_4*%
X110700000Y-81560000D03*
%TO.P,J2,5,Pin_5*%
%TO.N,LC_5*%
X113700000Y-81560000D03*
%TO.P,J2,6,Pin_6*%
%TO.N,LC_6*%
X116700000Y-81560000D03*
%TO.P,J2,7,Pin_7*%
%TO.N,LC_7*%
X101700000Y-84560000D03*
%TO.P,J2,8,Pin_8*%
%TO.N,GND*%
X104700000Y-84560000D03*
%TO.P,J2,9,Pin_9*%
%TO.N,HC_1_pwm*%
X107700000Y-84560000D03*
%TO.P,J2,10,Pin_10*%
%TO.N,HC_2_pwm*%
X110700000Y-84560000D03*
%TO.P,J2,11,Pin_11*%
%TO.N,HC_3_pwm*%
X113700000Y-84560000D03*
%TO.P,J2,12,Pin_12*%
%TO.N,unconnected-(J2-Pin_12-Pad12)*%
X116700000Y-84560000D03*
%TD*%
D10*
%TO.P,F1,1_1*%
%TO.N,/12V+*%
X71200000Y-54765000D03*
%TO.P,F1,1_2*%
%TO.N,N/C*%
X67800000Y-54765000D03*
%TO.P,F1,2_1*%
%TO.N,/S2*%
X71200000Y-68235000D03*
%TO.P,F1,2_2*%
%TO.N,N/C*%
X67800000Y-68235000D03*
%TD*%
D13*
%TO.P,R2,1*%
%TO.N,/12V+*%
X63050000Y-75495000D03*
%TO.P,R2,2*%
%TO.N,Net-(Q2-G)*%
X65050000Y-75495000D03*
%TD*%
%TO.P,R3,1*%
%TO.N,/12V+*%
X77290000Y-75425000D03*
%TO.P,R3,2*%
%TO.N,Net-(Q3-G)*%
X79290000Y-75425000D03*
%TD*%
D10*
%TO.P,F3,1_1*%
%TO.N,/12V+*%
X98750000Y-55000000D03*
%TO.P,F3,1_2*%
%TO.N,N/C*%
X95350000Y-55000000D03*
%TO.P,F3,2_1*%
%TO.N,LC_1*%
X98750000Y-68470000D03*
%TO.P,F3,2_2*%
%TO.N,N/C*%
X95350000Y-68470000D03*
%TD*%
%TO.P,F5,1_1*%
%TO.N,/12V+*%
X116750000Y-55000000D03*
%TO.P,F5,1_2*%
%TO.N,N/C*%
X113350000Y-55000000D03*
%TO.P,F5,2_1*%
%TO.N,LC_3*%
X116750000Y-68470000D03*
%TO.P,F5,2_2*%
%TO.N,N/C*%
X113350000Y-68470000D03*
%TD*%
D14*
%TO.P,H4,1,1*%
%TO.N,HC_3*%
X85500000Y-91750000D03*
%TD*%
D10*
%TO.P,F8,1_1*%
%TO.N,/12V+*%
X142950000Y-55015000D03*
%TO.P,F8,1_2*%
%TO.N,N/C*%
X139550000Y-55015000D03*
%TO.P,F8,2_1*%
%TO.N,LC_6*%
X142950000Y-68485000D03*
%TO.P,F8,2_2*%
%TO.N,N/C*%
X139550000Y-68485000D03*
%TD*%
D14*
%TO.P,H2,1,1*%
%TO.N,HC_1*%
X57250000Y-91750000D03*
%TD*%
D10*
%TO.P,F6,1_1*%
%TO.N,/12V+*%
X125750000Y-55030000D03*
%TO.P,F6,1_2*%
%TO.N,N/C*%
X122350000Y-55030000D03*
%TO.P,F6,2_1*%
%TO.N,LC_4*%
X125750000Y-68500000D03*
%TO.P,F6,2_2*%
%TO.N,N/C*%
X122350000Y-68500000D03*
%TD*%
%TO.P,F9,1_1*%
%TO.N,/12V+*%
X151250000Y-55030000D03*
%TO.P,F9,1_2*%
%TO.N,N/C*%
X147850000Y-55030000D03*
%TO.P,F9,2_1*%
%TO.N,LC_7*%
X151250000Y-68500000D03*
%TO.P,F9,2_2*%
%TO.N,N/C*%
X147850000Y-68500000D03*
%TD*%
D13*
%TO.P,R1,1*%
%TO.N,/12V+*%
X48750000Y-75480000D03*
%TO.P,R1,2*%
%TO.N,Net-(Q1-G)*%
X50750000Y-75480000D03*
%TD*%
D15*
%TO.P,Q2,1,S*%
%TO.N,/S2*%
X72255000Y-75000000D03*
%TO.P,Q2,2,S*%
X70985000Y-75000000D03*
%TO.P,Q2,3,S*%
X69715000Y-75000000D03*
%TO.P,Q2,4,G*%
%TO.N,Net-(Q2-G)*%
X68445000Y-75000000D03*
D16*
%TO.P,Q2,5,D*%
%TO.N,HC_2*%
X70350000Y-78215000D03*
D17*
X72255000Y-80550000D03*
X70985000Y-80550000D03*
X69715000Y-80550000D03*
X68445000Y-80550000D03*
%TD*%
D14*
%TO.P,H9,1,1*%
%TO.N,/12V+*%
X84000000Y-43500000D03*
%TD*%
D15*
%TO.P,Q3,1,S*%
%TO.N,/S3*%
X86755000Y-75000000D03*
%TO.P,Q3,2,S*%
X85485000Y-75000000D03*
%TO.P,Q3,3,S*%
X84215000Y-75000000D03*
%TO.P,Q3,4,G*%
%TO.N,Net-(Q3-G)*%
X82945000Y-75000000D03*
D16*
%TO.P,Q3,5,D*%
%TO.N,HC_3*%
X84850000Y-78215000D03*
D17*
X86755000Y-80550000D03*
X85485000Y-80550000D03*
X84215000Y-80550000D03*
X82945000Y-80550000D03*
%TD*%
D14*
%TO.P,H1,1,1*%
%TO.N,/12V+*%
X67500000Y-43500000D03*
%TD*%
D15*
%TO.P,Q1,1,S*%
%TO.N,/S1*%
X58505000Y-75000000D03*
%TO.P,Q1,2,S*%
X57235000Y-75000000D03*
%TO.P,Q1,3,S*%
X55965000Y-75000000D03*
%TO.P,Q1,4,G*%
%TO.N,Net-(Q1-G)*%
X54695000Y-75000000D03*
D16*
%TO.P,Q1,5,D*%
%TO.N,HC_1*%
X56600000Y-78215000D03*
D17*
X58505000Y-80550000D03*
X57235000Y-80550000D03*
X55965000Y-80550000D03*
X54695000Y-80550000D03*
%TD*%
D14*
%TO.P,H3,1,1*%
%TO.N,HC_2*%
X71000000Y-91750000D03*
%TD*%
D10*
%TO.P,F2,1_1*%
%TO.N,/12V+*%
X85450000Y-54765000D03*
%TO.P,F2,1_2*%
%TO.N,N/C*%
X82050000Y-54765000D03*
%TO.P,F2,2_1*%
%TO.N,/S3*%
X85450000Y-68235000D03*
%TO.P,F2,2_2*%
%TO.N,N/C*%
X82050000Y-68235000D03*
%TD*%
D18*
%TO.P,Q6,1,G*%
%TO.N,HC_2_pwm*%
X63050000Y-79620000D03*
%TO.P,Q6,2,S*%
%TO.N,GND*%
X64950000Y-79620000D03*
%TO.P,Q6,3,D*%
%TO.N,Net-(Q2-G)*%
X64000000Y-77745000D03*
%TD*%
D10*
%TO.P,F10,1_1*%
%TO.N,/12V+*%
X57450000Y-54765000D03*
%TO.P,F10,1_2*%
%TO.N,N/C*%
X54050000Y-54765000D03*
%TO.P,F10,2_1*%
%TO.N,/S1*%
X57450000Y-68235000D03*
%TO.P,F10,2_2*%
%TO.N,N/C*%
X54050000Y-68235000D03*
%TD*%
D18*
%TO.P,Q5,1,G*%
%TO.N,HC_1_pwm*%
X48850000Y-80355000D03*
%TO.P,Q5,2,S*%
%TO.N,GND*%
X50750000Y-80355000D03*
%TO.P,Q5,3,D*%
%TO.N,Net-(Q1-G)*%
X49800000Y-78480000D03*
%TD*%
D10*
%TO.P,F7,1_1*%
%TO.N,/12V+*%
X134450000Y-55015000D03*
%TO.P,F7,1_2*%
%TO.N,N/C*%
X131050000Y-55015000D03*
%TO.P,F7,2_1*%
%TO.N,LC_5*%
X134450000Y-68485000D03*
%TO.P,F7,2_2*%
%TO.N,N/C*%
X131050000Y-68485000D03*
%TD*%
D18*
%TO.P,Q4,1,G*%
%TO.N,HC_3_pwm*%
X77340000Y-79650000D03*
%TO.P,Q4,2,S*%
%TO.N,GND*%
X79240000Y-79650000D03*
%TO.P,Q4,3,D*%
%TO.N,Net-(Q3-G)*%
X78290000Y-77775000D03*
%TD*%
D19*
%TO.N,HC_2_pwm*%
X63000000Y-81200000D03*
%TO.N,HC_3_pwm*%
X77340000Y-81000000D03*
%TO.N,HC_1_pwm*%
X48850000Y-82000000D03*
%TO.N,GND*%
X64000000Y-83700000D03*
X50750000Y-84500000D03*
X79200000Y-83300000D03*
%TD*%
D20*
%TO.N,LC_4*%
X121450000Y-72800000D02*
X125750000Y-68500000D01*
X116800000Y-72800000D02*
X121450000Y-72800000D01*
X110700000Y-78900000D02*
X116800000Y-72800000D01*
X110700000Y-81560000D02*
X110700000Y-78900000D01*
D21*
%TO.N,/12V+*%
X48750000Y-63465000D02*
X57450000Y-54765000D01*
X48750000Y-75480000D02*
X48750000Y-63465000D01*
X77290000Y-62925000D02*
X85450000Y-54765000D01*
X77290000Y-75425000D02*
X77290000Y-62925000D01*
X77290000Y-75425000D02*
X77300000Y-75415000D01*
X63050000Y-62915000D02*
X71200000Y-54765000D01*
X63050000Y-75495000D02*
X63050000Y-62915000D01*
D20*
%TO.N,LC_7*%
X132490000Y-87260000D02*
X151250000Y-68500000D01*
X101700000Y-84560000D02*
X104400000Y-87260000D01*
X147850000Y-68500000D02*
X151250000Y-68500000D01*
X104400000Y-87260000D02*
X132490000Y-87260000D01*
%TO.N,LC_6*%
X116700000Y-81560000D02*
X129875000Y-81560000D01*
X139550000Y-68485000D02*
X142950000Y-68485000D01*
X129875000Y-81560000D02*
X142950000Y-68485000D01*
%TO.N,LC_5*%
X113700000Y-79550000D02*
X116250000Y-77000000D01*
X131050000Y-68485000D02*
X134450000Y-68485000D01*
X116250000Y-77000000D02*
X125935000Y-77000000D01*
X125935000Y-77000000D02*
X134450000Y-68485000D01*
X113700000Y-81560000D02*
X113700000Y-79550000D01*
%TO.N,LC_4*%
X122400000Y-68500000D02*
X125800000Y-68500000D01*
%TO.N,LC_3*%
X113350000Y-68470000D02*
X116750000Y-68470000D01*
X107700000Y-77520000D02*
X107700000Y-81560000D01*
X116750000Y-68470000D02*
X107700000Y-77520000D01*
%TO.N,LC_2*%
X104700000Y-68820000D02*
X104350000Y-68470000D01*
X104700000Y-71520000D02*
X107750000Y-68470000D01*
X104350000Y-68470000D02*
X107750000Y-68470000D01*
X104700000Y-81560000D02*
X104700000Y-71520000D01*
%TO.N,LC_1*%
X101700000Y-80450000D02*
X98750000Y-77500000D01*
X95350000Y-68470000D02*
X98750000Y-68470000D01*
X101700000Y-81560000D02*
X101700000Y-80450000D01*
X98750000Y-77500000D02*
X98750000Y-68470000D01*
D21*
%TO.N,HC_2_pwm*%
X63000000Y-81200000D02*
X63000000Y-79670000D01*
X63000000Y-79670000D02*
X63050000Y-79620000D01*
%TO.N,HC_3_pwm*%
X77340000Y-81000000D02*
X77340000Y-79650000D01*
%TO.N,HC_1_pwm*%
X49000000Y-80505000D02*
X48850000Y-80355000D01*
X48850000Y-82000000D02*
X48850000Y-80355000D01*
%TO.N,GND*%
X50750000Y-82200000D02*
X50750000Y-82105000D01*
X64000000Y-83700000D02*
X64800000Y-82900000D01*
X65000000Y-79670000D02*
X64950000Y-79620000D01*
X50750000Y-82200000D02*
X50750000Y-80355000D01*
X79200000Y-83300000D02*
X79200000Y-79690000D01*
X79200000Y-79690000D02*
X79240000Y-79650000D01*
X64950000Y-79620000D02*
X64950000Y-82750000D01*
X50750000Y-84500000D02*
X50750000Y-82200000D01*
X64950000Y-82750000D02*
X64800000Y-82900000D01*
%TO.N,Net-(Q1-G)*%
X54215000Y-75480000D02*
X54695000Y-75000000D01*
X50750000Y-75480000D02*
X54215000Y-75480000D01*
X49800000Y-78480000D02*
X49800000Y-76430000D01*
X49800000Y-76430000D02*
X50750000Y-75480000D01*
%TO.N,Net-(Q2-G)*%
X64000000Y-76545000D02*
X65050000Y-75495000D01*
X64000000Y-77745000D02*
X64000000Y-76545000D01*
X65050000Y-75495000D02*
X67950000Y-75495000D01*
X67950000Y-75495000D02*
X68445000Y-75000000D01*
%TO.N,Net-(Q3-G)*%
X78290000Y-77775000D02*
X78290000Y-76425000D01*
X79290000Y-75425000D02*
X82520000Y-75425000D01*
X82520000Y-75425000D02*
X82945000Y-75000000D01*
X78290000Y-76425000D02*
X79290000Y-75425000D01*
%TD*%
%TA.AperFunction,Conductor*%
%TO.N,/S1*%
G36*
X58943039Y-66837635D02*
G01*
X58988794Y-66890439D01*
X59000000Y-66941950D01*
X59000000Y-75443950D01*
X58980315Y-75510989D01*
X58927511Y-75556744D01*
X58876000Y-75567950D01*
X55562572Y-75567950D01*
X55495533Y-75548265D01*
X55449778Y-75495461D01*
X55439283Y-75430694D01*
X55445499Y-75372880D01*
X55445500Y-75372873D01*
X55445499Y-74627128D01*
X55439091Y-74567517D01*
X55388796Y-74432669D01*
X55388795Y-74432668D01*
X55388793Y-74432664D01*
X55302547Y-74317455D01*
X55302544Y-74317452D01*
X55187335Y-74231206D01*
X55187328Y-74231202D01*
X55052486Y-74180910D01*
X55052485Y-74180909D01*
X55052483Y-74180909D01*
X54992873Y-74174500D01*
X54992863Y-74174500D01*
X54397129Y-74174500D01*
X54397123Y-74174501D01*
X54337516Y-74180908D01*
X54202671Y-74231202D01*
X54202664Y-74231206D01*
X54087455Y-74317452D01*
X54087452Y-74317455D01*
X54001206Y-74432664D01*
X54001202Y-74432671D01*
X53950908Y-74567517D01*
X53944501Y-74627116D01*
X53944501Y-74627123D01*
X53944500Y-74627135D01*
X53944500Y-74755500D01*
X53924815Y-74822539D01*
X53872011Y-74868294D01*
X53820500Y-74879500D01*
X52374000Y-74879500D01*
X52306961Y-74859815D01*
X52261206Y-74807011D01*
X52250000Y-74755500D01*
X52250000Y-68956428D01*
X52269685Y-68889389D01*
X52322489Y-68843634D01*
X52391647Y-68833690D01*
X52455203Y-68862715D01*
X52488561Y-68908976D01*
X52521590Y-68988716D01*
X52521593Y-68988722D01*
X52521595Y-68988726D01*
X52633052Y-69181774D01*
X52633057Y-69181780D01*
X52633058Y-69181782D01*
X52768751Y-69358622D01*
X52768757Y-69358629D01*
X52926370Y-69516242D01*
X52926376Y-69516247D01*
X53103226Y-69651948D01*
X53296274Y-69763405D01*
X53502219Y-69848710D01*
X53717537Y-69906404D01*
X53938543Y-69935500D01*
X53938550Y-69935500D01*
X54161450Y-69935500D01*
X54161457Y-69935500D01*
X54382463Y-69906404D01*
X54597781Y-69848710D01*
X54803726Y-69763405D01*
X54996774Y-69651948D01*
X55173624Y-69516247D01*
X55331247Y-69358624D01*
X55466948Y-69181774D01*
X55578405Y-68988726D01*
X55663710Y-68782781D01*
X55721404Y-68567463D01*
X55750500Y-68346457D01*
X55750500Y-68123543D01*
X55721404Y-67902537D01*
X55663710Y-67687219D01*
X55643112Y-67637492D01*
X55578406Y-67481277D01*
X55578405Y-67481274D01*
X55466948Y-67288226D01*
X55331247Y-67111376D01*
X55331242Y-67111370D01*
X55249503Y-67029631D01*
X55216018Y-66968308D01*
X55221002Y-66898616D01*
X55262874Y-66842683D01*
X55328338Y-66818266D01*
X55337184Y-66817950D01*
X58876000Y-66817950D01*
X58943039Y-66837635D01*
G37*
%TD.AperFunction*%
%TD*%
%TA.AperFunction,Conductor*%
%TO.N,/12V+*%
G36*
X152693027Y-36021333D02*
G01*
X152738788Y-36074132D01*
X152750000Y-36125657D01*
X152750000Y-56376000D01*
X152730315Y-56443039D01*
X152677511Y-56488794D01*
X152626000Y-56500000D01*
X149084234Y-56500000D01*
X149017195Y-56480315D01*
X148971440Y-56427511D01*
X148961496Y-56358353D01*
X148990521Y-56294797D01*
X148996553Y-56288319D01*
X149131242Y-56153629D01*
X149131247Y-56153624D01*
X149266948Y-55976774D01*
X149378405Y-55783726D01*
X149463710Y-55577781D01*
X149521404Y-55362463D01*
X149550500Y-55141457D01*
X149550500Y-54918543D01*
X149521404Y-54697537D01*
X149463710Y-54482219D01*
X149451279Y-54452209D01*
X149378406Y-54276277D01*
X149378405Y-54276274D01*
X149266948Y-54083226D01*
X149131247Y-53906376D01*
X149131242Y-53906370D01*
X148973629Y-53748757D01*
X148973622Y-53748751D01*
X148796782Y-53613058D01*
X148796780Y-53613057D01*
X148796774Y-53613052D01*
X148603726Y-53501595D01*
X148603722Y-53501593D01*
X148397790Y-53416293D01*
X148397783Y-53416291D01*
X148397781Y-53416290D01*
X148182463Y-53358596D01*
X148182457Y-53358595D01*
X148182452Y-53358594D01*
X147961466Y-53329501D01*
X147961463Y-53329500D01*
X147961457Y-53329500D01*
X147738543Y-53329500D01*
X147738537Y-53329500D01*
X147738533Y-53329501D01*
X147517547Y-53358594D01*
X147517540Y-53358595D01*
X147517537Y-53358596D01*
X147414181Y-53386290D01*
X147302219Y-53416290D01*
X147302209Y-53416293D01*
X147096277Y-53501593D01*
X147096273Y-53501595D01*
X146903226Y-53613052D01*
X146903217Y-53613058D01*
X146726377Y-53748751D01*
X146726370Y-53748757D01*
X146568757Y-53906370D01*
X146568751Y-53906377D01*
X146433058Y-54083217D01*
X146433052Y-54083226D01*
X146321595Y-54276273D01*
X146321593Y-54276277D01*
X146236293Y-54482209D01*
X146236290Y-54482219D01*
X146186635Y-54667537D01*
X146178597Y-54697534D01*
X146178594Y-54697547D01*
X146149501Y-54918533D01*
X146149500Y-54918549D01*
X146149500Y-55141450D01*
X146149501Y-55141466D01*
X146178594Y-55362452D01*
X146178595Y-55362457D01*
X146178596Y-55362463D01*
X146228252Y-55547781D01*
X146236290Y-55577780D01*
X146236293Y-55577790D01*
X146321593Y-55783722D01*
X146321595Y-55783726D01*
X146433052Y-55976774D01*
X146433057Y-55976780D01*
X146433058Y-55976782D01*
X146568751Y-56153622D01*
X146568757Y-56153629D01*
X146703447Y-56288319D01*
X146736932Y-56349642D01*
X146731948Y-56419334D01*
X146690076Y-56475267D01*
X146624612Y-56499684D01*
X146615766Y-56500000D01*
X140769234Y-56500000D01*
X140702195Y-56480315D01*
X140656440Y-56427511D01*
X140646496Y-56358353D01*
X140675521Y-56294797D01*
X140681553Y-56288319D01*
X140831242Y-56138629D01*
X140831247Y-56138624D01*
X140966948Y-55961774D01*
X141078405Y-55768726D01*
X141163710Y-55562781D01*
X141221404Y-55347463D01*
X141250500Y-55126457D01*
X141250500Y-54903543D01*
X141221404Y-54682537D01*
X141163710Y-54467219D01*
X141149348Y-54432547D01*
X141078406Y-54261277D01*
X141078405Y-54261274D01*
X140966948Y-54068226D01*
X140831247Y-53891376D01*
X140831242Y-53891370D01*
X140673629Y-53733757D01*
X140673622Y-53733751D01*
X140496782Y-53598058D01*
X140496780Y-53598057D01*
X140496774Y-53598052D01*
X140303726Y-53486595D01*
X140303722Y-53486593D01*
X140097790Y-53401293D01*
X140097783Y-53401291D01*
X140097781Y-53401290D01*
X139882463Y-53343596D01*
X139882457Y-53343595D01*
X139882452Y-53343594D01*
X139661466Y-53314501D01*
X139661463Y-53314500D01*
X139661457Y-53314500D01*
X139438543Y-53314500D01*
X139438537Y-53314500D01*
X139438533Y-53314501D01*
X139217547Y-53343594D01*
X139217540Y-53343595D01*
X139217537Y-53343596D01*
X139058200Y-53386290D01*
X139002219Y-53401290D01*
X139002209Y-53401293D01*
X138796277Y-53486593D01*
X138796273Y-53486595D01*
X138603226Y-53598052D01*
X138603217Y-53598058D01*
X138426377Y-53733751D01*
X138426370Y-53733757D01*
X138268757Y-53891370D01*
X138268751Y-53891377D01*
X138133058Y-54068217D01*
X138133052Y-54068226D01*
X138021595Y-54261273D01*
X138021593Y-54261277D01*
X137936293Y-54467209D01*
X137936290Y-54467219D01*
X137878597Y-54682534D01*
X137878594Y-54682547D01*
X137849501Y-54903533D01*
X137849500Y-54903549D01*
X137849500Y-55126450D01*
X137849501Y-55126466D01*
X137878594Y-55347452D01*
X137878595Y-55347457D01*
X137878596Y-55347463D01*
X137924486Y-55518726D01*
X137936290Y-55562780D01*
X137936293Y-55562790D01*
X138021593Y-55768722D01*
X138021595Y-55768726D01*
X138133052Y-55961774D01*
X138133057Y-55961780D01*
X138133058Y-55961782D01*
X138268751Y-56138622D01*
X138268757Y-56138629D01*
X138418447Y-56288319D01*
X138451932Y-56349642D01*
X138446948Y-56419334D01*
X138405076Y-56475267D01*
X138339612Y-56499684D01*
X138330766Y-56500000D01*
X132269234Y-56500000D01*
X132202195Y-56480315D01*
X132156440Y-56427511D01*
X132146496Y-56358353D01*
X132175521Y-56294797D01*
X132181553Y-56288319D01*
X132331242Y-56138629D01*
X132331247Y-56138624D01*
X132466948Y-55961774D01*
X132578405Y-55768726D01*
X132663710Y-55562781D01*
X132721404Y-55347463D01*
X132750500Y-55126457D01*
X132750500Y-54903543D01*
X132721404Y-54682537D01*
X132663710Y-54467219D01*
X132649348Y-54432547D01*
X132578406Y-54261277D01*
X132578405Y-54261274D01*
X132466948Y-54068226D01*
X132331247Y-53891376D01*
X132331242Y-53891370D01*
X132173629Y-53733757D01*
X132173622Y-53733751D01*
X131996782Y-53598058D01*
X131996780Y-53598057D01*
X131996774Y-53598052D01*
X131803726Y-53486595D01*
X131803722Y-53486593D01*
X131597790Y-53401293D01*
X131597783Y-53401291D01*
X131597781Y-53401290D01*
X131382463Y-53343596D01*
X131382457Y-53343595D01*
X131382452Y-53343594D01*
X131161466Y-53314501D01*
X131161463Y-53314500D01*
X131161457Y-53314500D01*
X130938543Y-53314500D01*
X130938537Y-53314500D01*
X130938533Y-53314501D01*
X130717547Y-53343594D01*
X130717540Y-53343595D01*
X130717537Y-53343596D01*
X130558200Y-53386290D01*
X130502219Y-53401290D01*
X130502209Y-53401293D01*
X130296277Y-53486593D01*
X130296273Y-53486595D01*
X130103226Y-53598052D01*
X130103217Y-53598058D01*
X129926377Y-53733751D01*
X129926370Y-53733757D01*
X129768757Y-53891370D01*
X129768751Y-53891377D01*
X129633058Y-54068217D01*
X129633052Y-54068226D01*
X129521595Y-54261273D01*
X129521593Y-54261277D01*
X129436293Y-54467209D01*
X129436290Y-54467219D01*
X129378597Y-54682534D01*
X129378594Y-54682547D01*
X129349501Y-54903533D01*
X129349500Y-54903549D01*
X129349500Y-55126450D01*
X129349501Y-55126466D01*
X129378594Y-55347452D01*
X129378595Y-55347457D01*
X129378596Y-55347463D01*
X129424486Y-55518726D01*
X129436290Y-55562780D01*
X129436293Y-55562790D01*
X129521593Y-55768722D01*
X129521595Y-55768726D01*
X129633052Y-55961774D01*
X129633057Y-55961780D01*
X129633058Y-55961782D01*
X129768751Y-56138622D01*
X129768757Y-56138629D01*
X129918447Y-56288319D01*
X129951932Y-56349642D01*
X129946948Y-56419334D01*
X129905076Y-56475267D01*
X129839612Y-56499684D01*
X129830766Y-56500000D01*
X123584234Y-56500000D01*
X123517195Y-56480315D01*
X123471440Y-56427511D01*
X123461496Y-56358353D01*
X123490521Y-56294797D01*
X123496553Y-56288319D01*
X123631242Y-56153629D01*
X123631247Y-56153624D01*
X123766948Y-55976774D01*
X123878405Y-55783726D01*
X123963710Y-55577781D01*
X124021404Y-55362463D01*
X124050500Y-55141457D01*
X124050500Y-54918543D01*
X124021404Y-54697537D01*
X123963710Y-54482219D01*
X123951279Y-54452209D01*
X123878406Y-54276277D01*
X123878405Y-54276274D01*
X123766948Y-54083226D01*
X123631247Y-53906376D01*
X123631242Y-53906370D01*
X123473629Y-53748757D01*
X123473622Y-53748751D01*
X123296782Y-53613058D01*
X123296780Y-53613057D01*
X123296774Y-53613052D01*
X123103726Y-53501595D01*
X123103722Y-53501593D01*
X122897790Y-53416293D01*
X122897783Y-53416291D01*
X122897781Y-53416290D01*
X122682463Y-53358596D01*
X122682457Y-53358595D01*
X122682452Y-53358594D01*
X122461466Y-53329501D01*
X122461463Y-53329500D01*
X122461457Y-53329500D01*
X122238543Y-53329500D01*
X122238537Y-53329500D01*
X122238533Y-53329501D01*
X122017547Y-53358594D01*
X122017540Y-53358595D01*
X122017537Y-53358596D01*
X121914181Y-53386290D01*
X121802219Y-53416290D01*
X121802209Y-53416293D01*
X121596277Y-53501593D01*
X121596273Y-53501595D01*
X121403226Y-53613052D01*
X121403217Y-53613058D01*
X121226377Y-53748751D01*
X121226370Y-53748757D01*
X121068757Y-53906370D01*
X121068751Y-53906377D01*
X120933058Y-54083217D01*
X120933052Y-54083226D01*
X120821595Y-54276273D01*
X120821593Y-54276277D01*
X120736293Y-54482209D01*
X120736290Y-54482219D01*
X120686635Y-54667537D01*
X120678597Y-54697534D01*
X120678594Y-54697547D01*
X120649501Y-54918533D01*
X120649500Y-54918549D01*
X120649500Y-55141450D01*
X120649501Y-55141466D01*
X120678594Y-55362452D01*
X120678595Y-55362457D01*
X120678596Y-55362463D01*
X120728252Y-55547781D01*
X120736290Y-55577780D01*
X120736293Y-55577790D01*
X120821593Y-55783722D01*
X120821595Y-55783726D01*
X120933052Y-55976774D01*
X120933057Y-55976780D01*
X120933058Y-55976782D01*
X121068751Y-56153622D01*
X121068757Y-56153629D01*
X121203447Y-56288319D01*
X121236932Y-56349642D01*
X121231948Y-56419334D01*
X121190076Y-56475267D01*
X121124612Y-56499684D01*
X121115766Y-56500000D01*
X114553645Y-56500000D01*
X114486606Y-56480315D01*
X114440851Y-56427511D01*
X114430907Y-56358353D01*
X114459932Y-56294797D01*
X114471883Y-56282775D01*
X114473623Y-56281248D01*
X114631242Y-56123629D01*
X114631247Y-56123624D01*
X114766948Y-55946774D01*
X114878405Y-55753726D01*
X114963710Y-55547781D01*
X115021404Y-55332463D01*
X115050500Y-55111457D01*
X115050500Y-54888543D01*
X115021404Y-54667537D01*
X114963710Y-54452219D01*
X114955557Y-54432537D01*
X114932197Y-54376140D01*
X114878405Y-54246274D01*
X114766948Y-54053226D01*
X114727867Y-54002294D01*
X114631248Y-53876377D01*
X114631242Y-53876370D01*
X114473629Y-53718757D01*
X114473622Y-53718751D01*
X114296782Y-53583058D01*
X114296780Y-53583057D01*
X114296774Y-53583052D01*
X114103726Y-53471595D01*
X114103722Y-53471593D01*
X113897790Y-53386293D01*
X113897783Y-53386291D01*
X113897781Y-53386290D01*
X113682463Y-53328596D01*
X113682457Y-53328595D01*
X113682452Y-53328594D01*
X113461466Y-53299501D01*
X113461463Y-53299500D01*
X113461457Y-53299500D01*
X113238543Y-53299500D01*
X113238537Y-53299500D01*
X113238533Y-53299501D01*
X113017547Y-53328594D01*
X113017540Y-53328595D01*
X113017537Y-53328596D01*
X112802219Y-53386290D01*
X112802209Y-53386293D01*
X112596277Y-53471593D01*
X112596273Y-53471595D01*
X112403226Y-53583052D01*
X112403217Y-53583058D01*
X112226377Y-53718751D01*
X112226370Y-53718757D01*
X112068757Y-53876370D01*
X112068751Y-53876377D01*
X111933058Y-54053217D01*
X111933052Y-54053226D01*
X111821595Y-54246273D01*
X111821593Y-54246277D01*
X111736293Y-54452209D01*
X111736290Y-54452219D01*
X111682349Y-54653533D01*
X111678597Y-54667534D01*
X111678594Y-54667547D01*
X111649501Y-54888533D01*
X111649500Y-54888549D01*
X111649500Y-55111450D01*
X111649501Y-55111466D01*
X111678594Y-55332452D01*
X111678595Y-55332457D01*
X111678596Y-55332463D01*
X111686635Y-55362465D01*
X111736290Y-55547780D01*
X111736293Y-55547790D01*
X111804218Y-55711774D01*
X111821595Y-55753726D01*
X111933052Y-55946774D01*
X111933057Y-55946780D01*
X111933058Y-55946782D01*
X112068751Y-56123622D01*
X112068757Y-56123629D01*
X112226376Y-56281248D01*
X112228117Y-56282775D01*
X112228488Y-56283360D01*
X112229246Y-56284118D01*
X112229076Y-56284287D01*
X112265539Y-56341778D01*
X112265121Y-56411646D01*
X112226996Y-56470197D01*
X112163267Y-56498841D01*
X112146355Y-56500000D01*
X105553645Y-56500000D01*
X105486606Y-56480315D01*
X105440851Y-56427511D01*
X105430907Y-56358353D01*
X105459932Y-56294797D01*
X105471883Y-56282775D01*
X105473623Y-56281248D01*
X105631242Y-56123629D01*
X105631247Y-56123624D01*
X105766948Y-55946774D01*
X105878405Y-55753726D01*
X105963710Y-55547781D01*
X106021404Y-55332463D01*
X106050500Y-55111457D01*
X106050500Y-54888543D01*
X106021404Y-54667537D01*
X105963710Y-54452219D01*
X105955557Y-54432537D01*
X105932197Y-54376140D01*
X105878405Y-54246274D01*
X105766948Y-54053226D01*
X105727867Y-54002294D01*
X105631248Y-53876377D01*
X105631242Y-53876370D01*
X105473629Y-53718757D01*
X105473622Y-53718751D01*
X105296782Y-53583058D01*
X105296780Y-53583057D01*
X105296774Y-53583052D01*
X105103726Y-53471595D01*
X105103722Y-53471593D01*
X104897790Y-53386293D01*
X104897783Y-53386291D01*
X104897781Y-53386290D01*
X104682463Y-53328596D01*
X104682457Y-53328595D01*
X104682452Y-53328594D01*
X104461466Y-53299501D01*
X104461463Y-53299500D01*
X104461457Y-53299500D01*
X104238543Y-53299500D01*
X104238537Y-53299500D01*
X104238533Y-53299501D01*
X104017547Y-53328594D01*
X104017540Y-53328595D01*
X104017537Y-53328596D01*
X103802219Y-53386290D01*
X103802209Y-53386293D01*
X103596277Y-53471593D01*
X103596273Y-53471595D01*
X103403226Y-53583052D01*
X103403217Y-53583058D01*
X103226377Y-53718751D01*
X103226370Y-53718757D01*
X103068757Y-53876370D01*
X103068751Y-53876377D01*
X102933058Y-54053217D01*
X102933052Y-54053226D01*
X102821595Y-54246273D01*
X102821593Y-54246277D01*
X102736293Y-54452209D01*
X102736290Y-54452219D01*
X102682349Y-54653533D01*
X102678597Y-54667534D01*
X102678594Y-54667547D01*
X102649501Y-54888533D01*
X102649500Y-54888549D01*
X102649500Y-55111450D01*
X102649501Y-55111466D01*
X102678594Y-55332452D01*
X102678595Y-55332457D01*
X102678596Y-55332463D01*
X102686635Y-55362465D01*
X102736290Y-55547780D01*
X102736293Y-55547790D01*
X102804218Y-55711774D01*
X102821595Y-55753726D01*
X102933052Y-55946774D01*
X102933057Y-55946780D01*
X102933058Y-55946782D01*
X103068751Y-56123622D01*
X103068757Y-56123629D01*
X103226376Y-56281248D01*
X103228117Y-56282775D01*
X103228488Y-56283360D01*
X103229246Y-56284118D01*
X103229076Y-56284287D01*
X103265539Y-56341778D01*
X103265121Y-56411646D01*
X103226996Y-56470197D01*
X103163267Y-56498841D01*
X103146355Y-56500000D01*
X96553645Y-56500000D01*
X96486606Y-56480315D01*
X96440851Y-56427511D01*
X96430907Y-56358353D01*
X96459932Y-56294797D01*
X96471883Y-56282775D01*
X96473623Y-56281248D01*
X96631242Y-56123629D01*
X96631247Y-56123624D01*
X96766948Y-55946774D01*
X96878405Y-55753726D01*
X96963710Y-55547781D01*
X97021404Y-55332463D01*
X97050500Y-55111457D01*
X97050500Y-54888543D01*
X97021404Y-54667537D01*
X96963710Y-54452219D01*
X96955557Y-54432537D01*
X96932197Y-54376140D01*
X96878405Y-54246274D01*
X96766948Y-54053226D01*
X96727867Y-54002294D01*
X96631248Y-53876377D01*
X96631242Y-53876370D01*
X96473629Y-53718757D01*
X96473622Y-53718751D01*
X96296782Y-53583058D01*
X96296780Y-53583057D01*
X96296774Y-53583052D01*
X96103726Y-53471595D01*
X96103722Y-53471593D01*
X95897790Y-53386293D01*
X95897783Y-53386291D01*
X95897781Y-53386290D01*
X95682463Y-53328596D01*
X95682457Y-53328595D01*
X95682452Y-53328594D01*
X95461466Y-53299501D01*
X95461463Y-53299500D01*
X95461457Y-53299500D01*
X95238543Y-53299500D01*
X95238537Y-53299500D01*
X95238533Y-53299501D01*
X95017547Y-53328594D01*
X95017540Y-53328595D01*
X95017537Y-53328596D01*
X94802219Y-53386290D01*
X94802209Y-53386293D01*
X94596277Y-53471593D01*
X94596273Y-53471595D01*
X94403226Y-53583052D01*
X94403217Y-53583058D01*
X94226377Y-53718751D01*
X94226370Y-53718757D01*
X94068757Y-53876370D01*
X94068751Y-53876377D01*
X93933058Y-54053217D01*
X93933052Y-54053226D01*
X93821595Y-54246273D01*
X93821593Y-54246277D01*
X93736293Y-54452209D01*
X93736290Y-54452219D01*
X93682349Y-54653533D01*
X93678597Y-54667534D01*
X93678594Y-54667547D01*
X93649501Y-54888533D01*
X93649500Y-54888549D01*
X93649500Y-55111450D01*
X93649501Y-55111466D01*
X93678594Y-55332452D01*
X93678595Y-55332457D01*
X93678596Y-55332463D01*
X93686635Y-55362465D01*
X93736290Y-55547780D01*
X93736293Y-55547790D01*
X93804218Y-55711774D01*
X93821595Y-55753726D01*
X93933052Y-55946774D01*
X93933057Y-55946780D01*
X93933058Y-55946782D01*
X94068751Y-56123622D01*
X94068757Y-56123629D01*
X94226376Y-56281248D01*
X94228117Y-56282775D01*
X94228488Y-56283360D01*
X94229246Y-56284118D01*
X94229076Y-56284287D01*
X94265539Y-56341778D01*
X94265121Y-56411646D01*
X94226996Y-56470197D01*
X94163267Y-56498841D01*
X94146355Y-56500000D01*
X82908668Y-56500000D01*
X82841629Y-56480315D01*
X82795874Y-56427511D01*
X82785930Y-56358353D01*
X82814955Y-56294797D01*
X82846667Y-56268613D01*
X82859728Y-56261071D01*
X82996774Y-56181948D01*
X83173624Y-56046247D01*
X83331247Y-55888624D01*
X83466948Y-55711774D01*
X83578405Y-55518726D01*
X83663710Y-55312781D01*
X83721404Y-55097463D01*
X83750500Y-54876457D01*
X83750500Y-54653543D01*
X83721404Y-54432537D01*
X83663710Y-54217219D01*
X83578405Y-54011274D01*
X83466948Y-53818226D01*
X83331247Y-53641376D01*
X83331242Y-53641370D01*
X83173629Y-53483757D01*
X83173622Y-53483751D01*
X82996782Y-53348058D01*
X82996780Y-53348057D01*
X82996774Y-53348052D01*
X82803726Y-53236595D01*
X82803722Y-53236593D01*
X82597790Y-53151293D01*
X82597783Y-53151291D01*
X82597781Y-53151290D01*
X82382463Y-53093596D01*
X82382457Y-53093595D01*
X82382452Y-53093594D01*
X82161466Y-53064501D01*
X82161463Y-53064500D01*
X82161457Y-53064500D01*
X81938543Y-53064500D01*
X81938537Y-53064500D01*
X81938533Y-53064501D01*
X81717547Y-53093594D01*
X81717540Y-53093595D01*
X81717537Y-53093596D01*
X81502219Y-53151290D01*
X81502209Y-53151293D01*
X81296277Y-53236593D01*
X81296273Y-53236595D01*
X81103226Y-53348052D01*
X81103217Y-53348058D01*
X80926377Y-53483751D01*
X80926370Y-53483757D01*
X80768757Y-53641370D01*
X80768751Y-53641377D01*
X80633058Y-53818217D01*
X80633052Y-53818226D01*
X80521595Y-54011273D01*
X80521593Y-54011277D01*
X80436293Y-54217209D01*
X80436290Y-54217219D01*
X80378597Y-54432534D01*
X80378594Y-54432547D01*
X80349501Y-54653533D01*
X80349500Y-54653549D01*
X80349500Y-54876450D01*
X80349501Y-54876466D01*
X80378594Y-55097452D01*
X80378595Y-55097457D01*
X80378596Y-55097463D01*
X80390387Y-55141466D01*
X80436290Y-55312780D01*
X80436293Y-55312790D01*
X80521593Y-55518722D01*
X80521595Y-55518726D01*
X80633052Y-55711774D01*
X80633057Y-55711780D01*
X80633058Y-55711782D01*
X80768751Y-55888622D01*
X80768757Y-55888629D01*
X80926370Y-56046242D01*
X80926376Y-56046247D01*
X81103226Y-56181948D01*
X81233716Y-56257287D01*
X81253333Y-56268613D01*
X81301548Y-56319181D01*
X81314770Y-56387788D01*
X81288802Y-56452652D01*
X81231888Y-56493180D01*
X81191332Y-56500000D01*
X68658668Y-56500000D01*
X68591629Y-56480315D01*
X68545874Y-56427511D01*
X68535930Y-56358353D01*
X68564955Y-56294797D01*
X68596667Y-56268613D01*
X68609728Y-56261071D01*
X68746774Y-56181948D01*
X68923624Y-56046247D01*
X69081247Y-55888624D01*
X69216948Y-55711774D01*
X69328405Y-55518726D01*
X69413710Y-55312781D01*
X69471404Y-55097463D01*
X69500500Y-54876457D01*
X69500500Y-54653543D01*
X69471404Y-54432537D01*
X69413710Y-54217219D01*
X69328405Y-54011274D01*
X69216948Y-53818226D01*
X69081247Y-53641376D01*
X69081242Y-53641370D01*
X68923629Y-53483757D01*
X68923622Y-53483751D01*
X68746782Y-53348058D01*
X68746780Y-53348057D01*
X68746774Y-53348052D01*
X68553726Y-53236595D01*
X68553722Y-53236593D01*
X68347790Y-53151293D01*
X68347783Y-53151291D01*
X68347781Y-53151290D01*
X68132463Y-53093596D01*
X68132457Y-53093595D01*
X68132452Y-53093594D01*
X67911466Y-53064501D01*
X67911463Y-53064500D01*
X67911457Y-53064500D01*
X67688543Y-53064500D01*
X67688537Y-53064500D01*
X67688533Y-53064501D01*
X67467547Y-53093594D01*
X67467540Y-53093595D01*
X67467537Y-53093596D01*
X67252219Y-53151290D01*
X67252209Y-53151293D01*
X67046277Y-53236593D01*
X67046273Y-53236595D01*
X66853226Y-53348052D01*
X66853217Y-53348058D01*
X66676377Y-53483751D01*
X66676370Y-53483757D01*
X66518757Y-53641370D01*
X66518751Y-53641377D01*
X66383058Y-53818217D01*
X66383052Y-53818226D01*
X66271595Y-54011273D01*
X66271593Y-54011277D01*
X66186293Y-54217209D01*
X66186290Y-54217219D01*
X66128597Y-54432534D01*
X66128594Y-54432547D01*
X66099501Y-54653533D01*
X66099500Y-54653549D01*
X66099500Y-54876450D01*
X66099501Y-54876466D01*
X66128594Y-55097452D01*
X66128595Y-55097457D01*
X66128596Y-55097463D01*
X66140387Y-55141466D01*
X66186290Y-55312780D01*
X66186293Y-55312790D01*
X66271593Y-55518722D01*
X66271595Y-55518726D01*
X66383052Y-55711774D01*
X66383057Y-55711780D01*
X66383058Y-55711782D01*
X66518751Y-55888622D01*
X66518757Y-55888629D01*
X66676370Y-56046242D01*
X66676376Y-56046247D01*
X66853226Y-56181948D01*
X66983716Y-56257287D01*
X67003333Y-56268613D01*
X67051548Y-56319181D01*
X67064770Y-56387788D01*
X67038802Y-56452652D01*
X66981888Y-56493180D01*
X66941332Y-56500000D01*
X54908668Y-56500000D01*
X54841629Y-56480315D01*
X54795874Y-56427511D01*
X54785930Y-56358353D01*
X54814955Y-56294797D01*
X54846667Y-56268613D01*
X54859728Y-56261071D01*
X54996774Y-56181948D01*
X55173624Y-56046247D01*
X55331247Y-55888624D01*
X55466948Y-55711774D01*
X55578405Y-55518726D01*
X55663710Y-55312781D01*
X55721404Y-55097463D01*
X55750500Y-54876457D01*
X55750500Y-54653543D01*
X55721404Y-54432537D01*
X55663710Y-54217219D01*
X55578405Y-54011274D01*
X55466948Y-53818226D01*
X55331247Y-53641376D01*
X55331242Y-53641370D01*
X55173629Y-53483757D01*
X55173622Y-53483751D01*
X54996782Y-53348058D01*
X54996780Y-53348057D01*
X54996774Y-53348052D01*
X54803726Y-53236595D01*
X54803722Y-53236593D01*
X54597790Y-53151293D01*
X54597783Y-53151291D01*
X54597781Y-53151290D01*
X54382463Y-53093596D01*
X54382457Y-53093595D01*
X54382452Y-53093594D01*
X54161466Y-53064501D01*
X54161463Y-53064500D01*
X54161457Y-53064500D01*
X53938543Y-53064500D01*
X53938537Y-53064500D01*
X53938533Y-53064501D01*
X53717547Y-53093594D01*
X53717540Y-53093595D01*
X53717537Y-53093596D01*
X53502219Y-53151290D01*
X53502209Y-53151293D01*
X53296277Y-53236593D01*
X53296273Y-53236595D01*
X53103226Y-53348052D01*
X53103217Y-53348058D01*
X52926377Y-53483751D01*
X52926370Y-53483757D01*
X52768757Y-53641370D01*
X52768751Y-53641377D01*
X52633058Y-53818217D01*
X52633052Y-53818226D01*
X52521595Y-54011273D01*
X52521593Y-54011277D01*
X52436293Y-54217209D01*
X52436290Y-54217219D01*
X52378597Y-54432534D01*
X52378594Y-54432547D01*
X52349501Y-54653533D01*
X52349500Y-54653549D01*
X52349500Y-54876450D01*
X52349501Y-54876466D01*
X52378594Y-55097452D01*
X52378595Y-55097457D01*
X52378596Y-55097463D01*
X52390387Y-55141466D01*
X52436290Y-55312780D01*
X52436293Y-55312790D01*
X52521593Y-55518722D01*
X52521595Y-55518726D01*
X52633052Y-55711774D01*
X52633057Y-55711780D01*
X52633058Y-55711782D01*
X52768751Y-55888622D01*
X52768757Y-55888629D01*
X52926370Y-56046242D01*
X52926376Y-56046247D01*
X53103226Y-56181948D01*
X53233716Y-56257287D01*
X53253333Y-56268613D01*
X53301548Y-56319181D01*
X53314770Y-56387788D01*
X53288802Y-56452652D01*
X53231888Y-56493180D01*
X53191332Y-56500000D01*
X52124000Y-56500000D01*
X52056961Y-56480315D01*
X52011206Y-56427511D01*
X52000000Y-56376000D01*
X52000000Y-36138069D01*
X52019685Y-36071030D01*
X52072489Y-36025275D01*
X52123978Y-36014070D01*
X152625988Y-36001657D01*
X152693027Y-36021333D01*
G37*
%TD.AperFunction*%
%TD*%
%TA.AperFunction,Conductor*%
%TO.N,HC_3*%
G36*
X88193039Y-77769685D02*
G01*
X88238794Y-77822489D01*
X88250000Y-77874000D01*
X88250000Y-83250000D01*
X91126000Y-83250000D01*
X91193039Y-83269685D01*
X91238794Y-83322489D01*
X91250000Y-83374000D01*
X91250000Y-97376000D01*
X91230315Y-97443039D01*
X91177511Y-97488794D01*
X91126000Y-97500000D01*
X79874000Y-97500000D01*
X79806961Y-97480315D01*
X79761206Y-97427511D01*
X79750000Y-97376000D01*
X79750000Y-83933440D01*
X79769685Y-83866401D01*
X79786320Y-83845758D01*
X79821786Y-83810292D01*
X79821789Y-83810289D01*
X79909394Y-83679179D01*
X79951905Y-83576548D01*
X79995745Y-83522144D01*
X80062039Y-83500079D01*
X80066466Y-83500000D01*
X81500000Y-83500000D01*
X81500000Y-77874000D01*
X81519685Y-77806961D01*
X81572489Y-77761206D01*
X81624000Y-77750000D01*
X88126000Y-77750000D01*
X88193039Y-77769685D01*
G37*
%TD.AperFunction*%
%TD*%
%TA.AperFunction,Conductor*%
%TO.N,HC_2*%
G36*
X73693039Y-78019685D02*
G01*
X73738794Y-78072489D01*
X73750000Y-78124000D01*
X73750000Y-83500000D01*
X76626000Y-83500000D01*
X76693039Y-83519685D01*
X76738794Y-83572489D01*
X76750000Y-83624000D01*
X76750000Y-97376000D01*
X76730315Y-97443039D01*
X76677511Y-97488794D01*
X76626000Y-97500000D01*
X65374000Y-97500000D01*
X65306961Y-97480315D01*
X65261206Y-97427511D01*
X65250000Y-97376000D01*
X65250000Y-83624000D01*
X65269685Y-83556961D01*
X65322489Y-83511206D01*
X65374000Y-83500000D01*
X67000000Y-83500000D01*
X67000000Y-78124000D01*
X67019685Y-78056961D01*
X67072489Y-78011206D01*
X67124000Y-78000000D01*
X73626000Y-78000000D01*
X73693039Y-78019685D01*
G37*
%TD.AperFunction*%
%TD*%
%TA.AperFunction,Conductor*%
%TO.N,HC_1*%
G36*
X60193039Y-77769685D02*
G01*
X60238794Y-77822489D01*
X60250000Y-77874000D01*
X60250000Y-83500000D01*
X62876000Y-83500000D01*
X62943039Y-83519685D01*
X62988794Y-83572489D01*
X63000000Y-83624000D01*
X63000000Y-97376000D01*
X62980315Y-97443039D01*
X62927511Y-97488794D01*
X62876000Y-97500000D01*
X51624000Y-97500000D01*
X51556961Y-97480315D01*
X51511206Y-97427511D01*
X51500000Y-97376000D01*
X51500000Y-84805811D01*
X51509439Y-84758358D01*
X51519737Y-84733497D01*
X51550500Y-84578842D01*
X51550500Y-84421158D01*
X51550500Y-84421155D01*
X51550499Y-84421153D01*
X51519739Y-84266511D01*
X51519738Y-84266510D01*
X51519737Y-84266503D01*
X51509437Y-84241636D01*
X51500000Y-84194189D01*
X51500000Y-83624000D01*
X51519685Y-83556961D01*
X51572489Y-83511206D01*
X51624000Y-83500000D01*
X53250000Y-83500000D01*
X53250000Y-77874000D01*
X53269685Y-77806961D01*
X53322489Y-77761206D01*
X53374000Y-77750000D01*
X60126000Y-77750000D01*
X60193039Y-77769685D01*
G37*
%TD.AperFunction*%
%TD*%
%TA.AperFunction,Conductor*%
%TO.N,/S3*%
G36*
X87193039Y-67029842D02*
G01*
X87238794Y-67082646D01*
X87250000Y-67134157D01*
X87250000Y-75386157D01*
X87230315Y-75453196D01*
X87177511Y-75498951D01*
X87126000Y-75510157D01*
X83818786Y-75510157D01*
X83751747Y-75490472D01*
X83705992Y-75437668D01*
X83696032Y-75376217D01*
X83695601Y-75376194D01*
X83695500Y-75376194D01*
X83695499Y-75376188D01*
X83695322Y-75376179D01*
X83695497Y-75372913D01*
X83695496Y-75372906D01*
X83695500Y-75372873D01*
X83695499Y-74627128D01*
X83689091Y-74567517D01*
X83638796Y-74432669D01*
X83638795Y-74432668D01*
X83638793Y-74432664D01*
X83552547Y-74317455D01*
X83552544Y-74317452D01*
X83437335Y-74231206D01*
X83437328Y-74231202D01*
X83302486Y-74180910D01*
X83302485Y-74180909D01*
X83302483Y-74180909D01*
X83242873Y-74174500D01*
X83242863Y-74174500D01*
X82647129Y-74174500D01*
X82647123Y-74174501D01*
X82587516Y-74180908D01*
X82452671Y-74231202D01*
X82452664Y-74231206D01*
X82337455Y-74317452D01*
X82337452Y-74317455D01*
X82251206Y-74432664D01*
X82251202Y-74432671D01*
X82200908Y-74567517D01*
X82194501Y-74627116D01*
X82194501Y-74627123D01*
X82194500Y-74627135D01*
X82194500Y-74700500D01*
X82174815Y-74767539D01*
X82122011Y-74813294D01*
X82070500Y-74824500D01*
X80624000Y-74824500D01*
X80556961Y-74804815D01*
X80511206Y-74752011D01*
X80500000Y-74700500D01*
X80500000Y-69373670D01*
X80519685Y-69306631D01*
X80572489Y-69260876D01*
X80641647Y-69250932D01*
X80705203Y-69279957D01*
X80722376Y-69298184D01*
X80768751Y-69358622D01*
X80768757Y-69358629D01*
X80926370Y-69516242D01*
X80926376Y-69516247D01*
X81103226Y-69651948D01*
X81296274Y-69763405D01*
X81502219Y-69848710D01*
X81717537Y-69906404D01*
X81938543Y-69935500D01*
X81938550Y-69935500D01*
X82161450Y-69935500D01*
X82161457Y-69935500D01*
X82382463Y-69906404D01*
X82597781Y-69848710D01*
X82803726Y-69763405D01*
X82996774Y-69651948D01*
X83173624Y-69516247D01*
X83331247Y-69358624D01*
X83466948Y-69181774D01*
X83578405Y-68988726D01*
X83663710Y-68782781D01*
X83721404Y-68567463D01*
X83750500Y-68346457D01*
X83750500Y-68123543D01*
X83721404Y-67902537D01*
X83663710Y-67687219D01*
X83578405Y-67481274D01*
X83466948Y-67288226D01*
X83466943Y-67288220D01*
X83466941Y-67288216D01*
X83406650Y-67209643D01*
X83381456Y-67144474D01*
X83395495Y-67076029D01*
X83444309Y-67026039D01*
X83505026Y-67010157D01*
X87126000Y-67010157D01*
X87193039Y-67029842D01*
G37*
%TD.AperFunction*%
%TD*%
%TA.AperFunction,Conductor*%
%TO.N,/S2*%
G36*
X72693039Y-66882131D02*
G01*
X72738794Y-66934935D01*
X72750000Y-66986446D01*
X72750000Y-75488446D01*
X72730315Y-75555485D01*
X72677511Y-75601240D01*
X72626000Y-75612446D01*
X69300563Y-75612446D01*
X69233524Y-75592761D01*
X69187769Y-75539957D01*
X69177825Y-75470799D01*
X69184380Y-75445115D01*
X69185915Y-75440995D01*
X69189091Y-75432483D01*
X69195500Y-75372873D01*
X69195499Y-74627128D01*
X69189091Y-74567517D01*
X69146113Y-74452288D01*
X69138797Y-74432671D01*
X69138793Y-74432664D01*
X69052547Y-74317455D01*
X69052544Y-74317452D01*
X68937335Y-74231206D01*
X68937328Y-74231202D01*
X68802486Y-74180910D01*
X68802485Y-74180909D01*
X68802483Y-74180909D01*
X68742873Y-74174500D01*
X68742863Y-74174500D01*
X68147129Y-74174500D01*
X68147123Y-74174501D01*
X68087516Y-74180908D01*
X67952671Y-74231202D01*
X67952664Y-74231206D01*
X67837455Y-74317452D01*
X67837452Y-74317455D01*
X67751206Y-74432664D01*
X67751202Y-74432671D01*
X67700908Y-74567517D01*
X67694501Y-74627116D01*
X67694501Y-74627123D01*
X67694500Y-74627135D01*
X67694500Y-74770500D01*
X67674815Y-74837539D01*
X67622011Y-74883294D01*
X67570500Y-74894500D01*
X66230301Y-74894500D01*
X66214723Y-74889925D01*
X66198494Y-74890351D01*
X66181889Y-74880284D01*
X66163262Y-74874815D01*
X66152014Y-74862172D01*
X66138746Y-74854129D01*
X66126953Y-74834005D01*
X66118894Y-74824947D01*
X66115224Y-74817438D01*
X66084814Y-74725666D01*
X66015267Y-74612912D01*
X66012593Y-74607440D01*
X66008292Y-74582232D01*
X66000000Y-74552993D01*
X66000000Y-68956428D01*
X66019685Y-68889389D01*
X66072489Y-68843634D01*
X66141647Y-68833690D01*
X66205203Y-68862715D01*
X66238561Y-68908976D01*
X66271590Y-68988716D01*
X66271593Y-68988722D01*
X66271595Y-68988726D01*
X66383052Y-69181774D01*
X66383057Y-69181780D01*
X66383058Y-69181782D01*
X66518751Y-69358622D01*
X66518757Y-69358629D01*
X66676370Y-69516242D01*
X66676376Y-69516247D01*
X66853226Y-69651948D01*
X67046274Y-69763405D01*
X67252219Y-69848710D01*
X67467537Y-69906404D01*
X67688543Y-69935500D01*
X67688550Y-69935500D01*
X67911450Y-69935500D01*
X67911457Y-69935500D01*
X68132463Y-69906404D01*
X68347781Y-69848710D01*
X68553726Y-69763405D01*
X68746774Y-69651948D01*
X68923624Y-69516247D01*
X69081247Y-69358624D01*
X69216948Y-69181774D01*
X69328405Y-68988726D01*
X69413710Y-68782781D01*
X69471404Y-68567463D01*
X69500500Y-68346457D01*
X69500500Y-68123543D01*
X69471404Y-67902537D01*
X69413710Y-67687219D01*
X69393112Y-67637492D01*
X69328406Y-67481277D01*
X69328405Y-67481274D01*
X69216948Y-67288226D01*
X69081247Y-67111376D01*
X69081242Y-67111370D01*
X69043999Y-67074127D01*
X69010514Y-67012804D01*
X69015498Y-66943112D01*
X69057370Y-66887179D01*
X69122834Y-66862762D01*
X69131680Y-66862446D01*
X72626000Y-66862446D01*
X72693039Y-66882131D01*
G37*
%TD.AperFunction*%
%TD*%
M02*
