%TF.GenerationSoftware,KiCad,Pcbnew,9.0.4*%
%TF.CreationDate,2026-02-19T19:41:56-08:00*%
%TF.ProjectId,Power_board,506f7765-725f-4626-9f61-72642e6b6963,rev?*%
%TF.SameCoordinates,Original*%
%TF.FileFunction,Soldermask,Top*%
%TF.FilePolarity,Negative*%
%FSLAX46Y46*%
G04 Gerber Fmt 4.6, Leading zero omitted, Abs format (unit mm)*
G04 Created by KiCad (PCBNEW 9.0.4) date 2026-02-19 19:41:56*
%MOMM*%
%LPD*%
G01*
G04 APERTURE LIST*
G04 Aperture macros list*
%AMRoundRect*
0 Rectangle with rounded corners*
0 $1 Rounding radius*
0 $2 $3 $4 $5 $6 $7 $8 $9 X,Y pos of 4 corners*
0 Add a 4 corners polygon primitive as box body*
4,1,4,$2,$3,$4,$5,$6,$7,$8,$9,$2,$3,0*
0 Add four circle primitives for the rounded corners*
1,1,$1+$1,$2,$3*
1,1,$1+$1,$4,$5*
1,1,$1+$1,$6,$7*
1,1,$1+$1,$8,$9*
0 Add four rect primitives between the rounded corners*
20,1,$1+$1,$2,$3,$4,$5,0*
20,1,$1+$1,$4,$5,$6,$7,0*
20,1,$1+$1,$6,$7,$8,$9,0*
20,1,$1+$1,$8,$9,$2,$3,0*%
G04 Aperture macros list end*
%ADD10C,5.300000*%
%ADD11C,2.604000*%
%ADD12C,1.020000*%
%ADD13RoundRect,0.250001X-0.499999X-0.499999X0.499999X-0.499999X0.499999X0.499999X-0.499999X0.499999X0*%
%ADD14C,1.500000*%
%ADD15RoundRect,0.250000X-0.350000X-0.450000X0.350000X-0.450000X0.350000X0.450000X-0.350000X0.450000X0*%
%ADD16C,10.600000*%
%ADD17R,0.500000X0.650000*%
%ADD18R,4.600000X4.120000*%
%ADD19R,0.500000X0.550000*%
%ADD20RoundRect,0.150000X0.150000X-0.587500X0.150000X0.587500X-0.150000X0.587500X-0.150000X-0.587500X0*%
G04 APERTURE END LIST*
D10*
%TO.C,H6*%
X159000000Y-42750000D03*
%TD*%
D11*
%TO.C,F4*%
X107750000Y-55000000D03*
X104350000Y-55000000D03*
X107750000Y-68470000D03*
X104350000Y-68470000D03*
%TD*%
D12*
%TO.C,J2*%
X98700000Y-85500000D03*
X119700000Y-85500000D03*
D13*
X101700000Y-81560000D03*
D14*
X104700000Y-81560000D03*
X107700000Y-81560000D03*
X110700000Y-81560000D03*
X113700000Y-81560000D03*
X116700000Y-81560000D03*
X101700000Y-84560000D03*
X104700000Y-84560000D03*
X107700000Y-84560000D03*
X110700000Y-84560000D03*
X113700000Y-84560000D03*
X116700000Y-84560000D03*
%TD*%
D11*
%TO.C,F1*%
X71200000Y-54765000D03*
X67800000Y-54765000D03*
X71200000Y-68235000D03*
X67800000Y-68235000D03*
%TD*%
D15*
%TO.C,R2*%
X63050000Y-75495000D03*
X65050000Y-75495000D03*
%TD*%
%TO.C,R3*%
X77290000Y-75425000D03*
X79290000Y-75425000D03*
%TD*%
D11*
%TO.C,F3*%
X98750000Y-55000000D03*
X95350000Y-55000000D03*
X98750000Y-68470000D03*
X95350000Y-68470000D03*
%TD*%
D10*
%TO.C,H7*%
X159000000Y-92000000D03*
%TD*%
D11*
%TO.C,F5*%
X116750000Y-55000000D03*
X113350000Y-55000000D03*
X116750000Y-68470000D03*
X113350000Y-68470000D03*
%TD*%
D10*
%TO.C,H8*%
X43500000Y-92000000D03*
%TD*%
%TO.C,H5*%
X43500000Y-43000000D03*
%TD*%
D16*
%TO.C,H4*%
X85500000Y-91750000D03*
%TD*%
D11*
%TO.C,F8*%
X142950000Y-55015000D03*
X139550000Y-55015000D03*
X142950000Y-68485000D03*
X139550000Y-68485000D03*
%TD*%
D16*
%TO.C,H2*%
X57250000Y-91750000D03*
%TD*%
D11*
%TO.C,F6*%
X125750000Y-55030000D03*
X122350000Y-55030000D03*
X125750000Y-68500000D03*
X122350000Y-68500000D03*
%TD*%
%TO.C,F9*%
X151250000Y-55030000D03*
X147850000Y-55030000D03*
X151250000Y-68500000D03*
X147850000Y-68500000D03*
%TD*%
D15*
%TO.C,R1*%
X48750000Y-75480000D03*
X50750000Y-75480000D03*
%TD*%
D17*
%TO.C,Q2*%
X72255000Y-75000000D03*
X70985000Y-75000000D03*
X69715000Y-75000000D03*
X68445000Y-75000000D03*
D18*
X70350000Y-78215000D03*
D19*
X72255000Y-80550000D03*
X70985000Y-80550000D03*
X69715000Y-80550000D03*
X68445000Y-80550000D03*
%TD*%
D16*
%TO.C,H9*%
X84000000Y-43500000D03*
%TD*%
D17*
%TO.C,Q3*%
X86755000Y-75000000D03*
X85485000Y-75000000D03*
X84215000Y-75000000D03*
X82945000Y-75000000D03*
D18*
X84850000Y-78215000D03*
D19*
X86755000Y-80550000D03*
X85485000Y-80550000D03*
X84215000Y-80550000D03*
X82945000Y-80550000D03*
%TD*%
D16*
%TO.C,H1*%
X67500000Y-43500000D03*
%TD*%
D17*
%TO.C,Q1*%
X58505000Y-75000000D03*
X57235000Y-75000000D03*
X55965000Y-75000000D03*
X54695000Y-75000000D03*
D18*
X56600000Y-78215000D03*
D19*
X58505000Y-80550000D03*
X57235000Y-80550000D03*
X55965000Y-80550000D03*
X54695000Y-80550000D03*
%TD*%
D16*
%TO.C,H3*%
X71000000Y-91750000D03*
%TD*%
D11*
%TO.C,F2*%
X85450000Y-54765000D03*
X82050000Y-54765000D03*
X85450000Y-68235000D03*
X82050000Y-68235000D03*
%TD*%
D20*
%TO.C,Q6*%
X63050000Y-79620000D03*
X64950000Y-79620000D03*
X64000000Y-77745000D03*
%TD*%
D11*
%TO.C,F10*%
X57450000Y-54765000D03*
X54050000Y-54765000D03*
X57450000Y-68235000D03*
X54050000Y-68235000D03*
%TD*%
D20*
%TO.C,Q5*%
X48850000Y-80355000D03*
X50750000Y-80355000D03*
X49800000Y-78480000D03*
%TD*%
D11*
%TO.C,F7*%
X134450000Y-55015000D03*
X131050000Y-55015000D03*
X134450000Y-68485000D03*
X131050000Y-68485000D03*
%TD*%
D20*
%TO.C,Q4*%
X77340000Y-79650000D03*
X79240000Y-79650000D03*
X78290000Y-77775000D03*
%TD*%
M02*
