%TF.GenerationSoftware,KiCad,Pcbnew,9.0.4*%
%TF.CreationDate,2026-03-29T23:45:04-07:00*%
%TF.ProjectId,Roll_Hoop_Board,526f6c6c-5f48-46f6-9f70-5f426f617264,rev?*%
%TF.SameCoordinates,Original*%
%TF.FileFunction,Legend,Top*%
%TF.FilePolarity,Positive*%
%FSLAX46Y46*%
G04 Gerber Fmt 4.6, Leading zero omitted, Abs format (unit mm)*
G04 Created by KiCad (PCBNEW 9.0.4) date 2026-03-29 23:45:04*
%MOMM*%
%LPD*%
G01*
G04 APERTURE LIST*
%ADD10C,0.150000*%
%ADD11C,0.300000*%
%ADD12C,0.127000*%
%ADD13C,0.120000*%
G04 APERTURE END LIST*
D10*
X130963332Y-41731009D02*
X131106189Y-41778628D01*
X131106189Y-41778628D02*
X131153808Y-41826247D01*
X131153808Y-41826247D02*
X131201427Y-41921485D01*
X131201427Y-41921485D02*
X131201427Y-42064342D01*
X131201427Y-42064342D02*
X131153808Y-42159580D01*
X131153808Y-42159580D02*
X131106189Y-42207200D01*
X131106189Y-42207200D02*
X131010951Y-42254819D01*
X131010951Y-42254819D02*
X130629999Y-42254819D01*
X130629999Y-42254819D02*
X130629999Y-41254819D01*
X130629999Y-41254819D02*
X130963332Y-41254819D01*
X130963332Y-41254819D02*
X131058570Y-41302438D01*
X131058570Y-41302438D02*
X131106189Y-41350057D01*
X131106189Y-41350057D02*
X131153808Y-41445295D01*
X131153808Y-41445295D02*
X131153808Y-41540533D01*
X131153808Y-41540533D02*
X131106189Y-41635771D01*
X131106189Y-41635771D02*
X131058570Y-41683390D01*
X131058570Y-41683390D02*
X130963332Y-41731009D01*
X130963332Y-41731009D02*
X130629999Y-41731009D01*
X132058570Y-42254819D02*
X132058570Y-41731009D01*
X132058570Y-41731009D02*
X132010951Y-41635771D01*
X132010951Y-41635771D02*
X131915713Y-41588152D01*
X131915713Y-41588152D02*
X131725237Y-41588152D01*
X131725237Y-41588152D02*
X131629999Y-41635771D01*
X132058570Y-42207200D02*
X131963332Y-42254819D01*
X131963332Y-42254819D02*
X131725237Y-42254819D01*
X131725237Y-42254819D02*
X131629999Y-42207200D01*
X131629999Y-42207200D02*
X131582380Y-42111961D01*
X131582380Y-42111961D02*
X131582380Y-42016723D01*
X131582380Y-42016723D02*
X131629999Y-41921485D01*
X131629999Y-41921485D02*
X131725237Y-41873866D01*
X131725237Y-41873866D02*
X131963332Y-41873866D01*
X131963332Y-41873866D02*
X132058570Y-41826247D01*
X132963332Y-42207200D02*
X132868094Y-42254819D01*
X132868094Y-42254819D02*
X132677618Y-42254819D01*
X132677618Y-42254819D02*
X132582380Y-42207200D01*
X132582380Y-42207200D02*
X132534761Y-42159580D01*
X132534761Y-42159580D02*
X132487142Y-42064342D01*
X132487142Y-42064342D02*
X132487142Y-41778628D01*
X132487142Y-41778628D02*
X132534761Y-41683390D01*
X132534761Y-41683390D02*
X132582380Y-41635771D01*
X132582380Y-41635771D02*
X132677618Y-41588152D01*
X132677618Y-41588152D02*
X132868094Y-41588152D01*
X132868094Y-41588152D02*
X132963332Y-41635771D01*
X133391904Y-42254819D02*
X133391904Y-41254819D01*
X133487142Y-41873866D02*
X133772856Y-42254819D01*
X133772856Y-41588152D02*
X133391904Y-41969104D01*
X133963333Y-42350057D02*
X134725237Y-42350057D01*
X134963333Y-42254819D02*
X134963333Y-41254819D01*
X134963333Y-41254819D02*
X135344285Y-41254819D01*
X135344285Y-41254819D02*
X135439523Y-41302438D01*
X135439523Y-41302438D02*
X135487142Y-41350057D01*
X135487142Y-41350057D02*
X135534761Y-41445295D01*
X135534761Y-41445295D02*
X135534761Y-41588152D01*
X135534761Y-41588152D02*
X135487142Y-41683390D01*
X135487142Y-41683390D02*
X135439523Y-41731009D01*
X135439523Y-41731009D02*
X135344285Y-41778628D01*
X135344285Y-41778628D02*
X134963333Y-41778628D01*
X136391904Y-42254819D02*
X136391904Y-41731009D01*
X136391904Y-41731009D02*
X136344285Y-41635771D01*
X136344285Y-41635771D02*
X136249047Y-41588152D01*
X136249047Y-41588152D02*
X136058571Y-41588152D01*
X136058571Y-41588152D02*
X135963333Y-41635771D01*
X136391904Y-42207200D02*
X136296666Y-42254819D01*
X136296666Y-42254819D02*
X136058571Y-42254819D01*
X136058571Y-42254819D02*
X135963333Y-42207200D01*
X135963333Y-42207200D02*
X135915714Y-42111961D01*
X135915714Y-42111961D02*
X135915714Y-42016723D01*
X135915714Y-42016723D02*
X135963333Y-41921485D01*
X135963333Y-41921485D02*
X136058571Y-41873866D01*
X136058571Y-41873866D02*
X136296666Y-41873866D01*
X136296666Y-41873866D02*
X136391904Y-41826247D01*
X136868095Y-41588152D02*
X136868095Y-42254819D01*
X136868095Y-41683390D02*
X136915714Y-41635771D01*
X136915714Y-41635771D02*
X137010952Y-41588152D01*
X137010952Y-41588152D02*
X137153809Y-41588152D01*
X137153809Y-41588152D02*
X137249047Y-41635771D01*
X137249047Y-41635771D02*
X137296666Y-41731009D01*
X137296666Y-41731009D02*
X137296666Y-42254819D01*
X138153809Y-42207200D02*
X138058571Y-42254819D01*
X138058571Y-42254819D02*
X137868095Y-42254819D01*
X137868095Y-42254819D02*
X137772857Y-42207200D01*
X137772857Y-42207200D02*
X137725238Y-42111961D01*
X137725238Y-42111961D02*
X137725238Y-41731009D01*
X137725238Y-41731009D02*
X137772857Y-41635771D01*
X137772857Y-41635771D02*
X137868095Y-41588152D01*
X137868095Y-41588152D02*
X138058571Y-41588152D01*
X138058571Y-41588152D02*
X138153809Y-41635771D01*
X138153809Y-41635771D02*
X138201428Y-41731009D01*
X138201428Y-41731009D02*
X138201428Y-41826247D01*
X138201428Y-41826247D02*
X137725238Y-41921485D01*
X138772857Y-42254819D02*
X138677619Y-42207200D01*
X138677619Y-42207200D02*
X138630000Y-42111961D01*
X138630000Y-42111961D02*
X138630000Y-41254819D01*
X139677619Y-42254819D02*
X139106191Y-42254819D01*
X139391905Y-42254819D02*
X139391905Y-41254819D01*
X139391905Y-41254819D02*
X139296667Y-41397676D01*
X139296667Y-41397676D02*
X139201429Y-41492914D01*
X139201429Y-41492914D02*
X139106191Y-41540533D01*
X147350475Y-41711009D02*
X147017142Y-41711009D01*
X147017142Y-42234819D02*
X147017142Y-41234819D01*
X147017142Y-41234819D02*
X147493332Y-41234819D01*
X147874285Y-42234819D02*
X147874285Y-41568152D01*
X147874285Y-41758628D02*
X147921904Y-41663390D01*
X147921904Y-41663390D02*
X147969523Y-41615771D01*
X147969523Y-41615771D02*
X148064761Y-41568152D01*
X148064761Y-41568152D02*
X148159999Y-41568152D01*
X148636190Y-42234819D02*
X148540952Y-42187200D01*
X148540952Y-42187200D02*
X148493333Y-42139580D01*
X148493333Y-42139580D02*
X148445714Y-42044342D01*
X148445714Y-42044342D02*
X148445714Y-41758628D01*
X148445714Y-41758628D02*
X148493333Y-41663390D01*
X148493333Y-41663390D02*
X148540952Y-41615771D01*
X148540952Y-41615771D02*
X148636190Y-41568152D01*
X148636190Y-41568152D02*
X148779047Y-41568152D01*
X148779047Y-41568152D02*
X148874285Y-41615771D01*
X148874285Y-41615771D02*
X148921904Y-41663390D01*
X148921904Y-41663390D02*
X148969523Y-41758628D01*
X148969523Y-41758628D02*
X148969523Y-42044342D01*
X148969523Y-42044342D02*
X148921904Y-42139580D01*
X148921904Y-42139580D02*
X148874285Y-42187200D01*
X148874285Y-42187200D02*
X148779047Y-42234819D01*
X148779047Y-42234819D02*
X148636190Y-42234819D01*
X149398095Y-41568152D02*
X149398095Y-42234819D01*
X149398095Y-41663390D02*
X149445714Y-41615771D01*
X149445714Y-41615771D02*
X149540952Y-41568152D01*
X149540952Y-41568152D02*
X149683809Y-41568152D01*
X149683809Y-41568152D02*
X149779047Y-41615771D01*
X149779047Y-41615771D02*
X149826666Y-41711009D01*
X149826666Y-41711009D02*
X149826666Y-42234819D01*
X150160000Y-41568152D02*
X150540952Y-41568152D01*
X150302857Y-41234819D02*
X150302857Y-42091961D01*
X150302857Y-42091961D02*
X150350476Y-42187200D01*
X150350476Y-42187200D02*
X150445714Y-42234819D01*
X150445714Y-42234819D02*
X150540952Y-42234819D01*
X150636191Y-42330057D02*
X151398095Y-42330057D01*
X151636191Y-42234819D02*
X151636191Y-41234819D01*
X151636191Y-41234819D02*
X152017143Y-41234819D01*
X152017143Y-41234819D02*
X152112381Y-41282438D01*
X152112381Y-41282438D02*
X152160000Y-41330057D01*
X152160000Y-41330057D02*
X152207619Y-41425295D01*
X152207619Y-41425295D02*
X152207619Y-41568152D01*
X152207619Y-41568152D02*
X152160000Y-41663390D01*
X152160000Y-41663390D02*
X152112381Y-41711009D01*
X152112381Y-41711009D02*
X152017143Y-41758628D01*
X152017143Y-41758628D02*
X151636191Y-41758628D01*
X153064762Y-42234819D02*
X153064762Y-41711009D01*
X153064762Y-41711009D02*
X153017143Y-41615771D01*
X153017143Y-41615771D02*
X152921905Y-41568152D01*
X152921905Y-41568152D02*
X152731429Y-41568152D01*
X152731429Y-41568152D02*
X152636191Y-41615771D01*
X153064762Y-42187200D02*
X152969524Y-42234819D01*
X152969524Y-42234819D02*
X152731429Y-42234819D01*
X152731429Y-42234819D02*
X152636191Y-42187200D01*
X152636191Y-42187200D02*
X152588572Y-42091961D01*
X152588572Y-42091961D02*
X152588572Y-41996723D01*
X152588572Y-41996723D02*
X152636191Y-41901485D01*
X152636191Y-41901485D02*
X152731429Y-41853866D01*
X152731429Y-41853866D02*
X152969524Y-41853866D01*
X152969524Y-41853866D02*
X153064762Y-41806247D01*
X153540953Y-41568152D02*
X153540953Y-42234819D01*
X153540953Y-41663390D02*
X153588572Y-41615771D01*
X153588572Y-41615771D02*
X153683810Y-41568152D01*
X153683810Y-41568152D02*
X153826667Y-41568152D01*
X153826667Y-41568152D02*
X153921905Y-41615771D01*
X153921905Y-41615771D02*
X153969524Y-41711009D01*
X153969524Y-41711009D02*
X153969524Y-42234819D01*
X154826667Y-42187200D02*
X154731429Y-42234819D01*
X154731429Y-42234819D02*
X154540953Y-42234819D01*
X154540953Y-42234819D02*
X154445715Y-42187200D01*
X154445715Y-42187200D02*
X154398096Y-42091961D01*
X154398096Y-42091961D02*
X154398096Y-41711009D01*
X154398096Y-41711009D02*
X154445715Y-41615771D01*
X154445715Y-41615771D02*
X154540953Y-41568152D01*
X154540953Y-41568152D02*
X154731429Y-41568152D01*
X154731429Y-41568152D02*
X154826667Y-41615771D01*
X154826667Y-41615771D02*
X154874286Y-41711009D01*
X154874286Y-41711009D02*
X154874286Y-41806247D01*
X154874286Y-41806247D02*
X154398096Y-41901485D01*
X155445715Y-42234819D02*
X155350477Y-42187200D01*
X155350477Y-42187200D02*
X155302858Y-42091961D01*
X155302858Y-42091961D02*
X155302858Y-41234819D01*
X156350477Y-42234819D02*
X155779049Y-42234819D01*
X156064763Y-42234819D02*
X156064763Y-41234819D01*
X156064763Y-41234819D02*
X155969525Y-41377676D01*
X155969525Y-41377676D02*
X155874287Y-41472914D01*
X155874287Y-41472914D02*
X155779049Y-41520533D01*
X181519047Y-41651009D02*
X181852380Y-41651009D01*
X181995237Y-42174819D02*
X181519047Y-42174819D01*
X181519047Y-42174819D02*
X181519047Y-41174819D01*
X181519047Y-41174819D02*
X181995237Y-41174819D01*
X182423809Y-41793866D02*
X183185714Y-41793866D01*
X183614285Y-42127200D02*
X183757142Y-42174819D01*
X183757142Y-42174819D02*
X183995237Y-42174819D01*
X183995237Y-42174819D02*
X184090475Y-42127200D01*
X184090475Y-42127200D02*
X184138094Y-42079580D01*
X184138094Y-42079580D02*
X184185713Y-41984342D01*
X184185713Y-41984342D02*
X184185713Y-41889104D01*
X184185713Y-41889104D02*
X184138094Y-41793866D01*
X184138094Y-41793866D02*
X184090475Y-41746247D01*
X184090475Y-41746247D02*
X183995237Y-41698628D01*
X183995237Y-41698628D02*
X183804761Y-41651009D01*
X183804761Y-41651009D02*
X183709523Y-41603390D01*
X183709523Y-41603390D02*
X183661904Y-41555771D01*
X183661904Y-41555771D02*
X183614285Y-41460533D01*
X183614285Y-41460533D02*
X183614285Y-41365295D01*
X183614285Y-41365295D02*
X183661904Y-41270057D01*
X183661904Y-41270057D02*
X183709523Y-41222438D01*
X183709523Y-41222438D02*
X183804761Y-41174819D01*
X183804761Y-41174819D02*
X184042856Y-41174819D01*
X184042856Y-41174819D02*
X184185713Y-41222438D01*
X184471428Y-41508152D02*
X184852380Y-41508152D01*
X184614285Y-41174819D02*
X184614285Y-42031961D01*
X184614285Y-42031961D02*
X184661904Y-42127200D01*
X184661904Y-42127200D02*
X184757142Y-42174819D01*
X184757142Y-42174819D02*
X184852380Y-42174819D01*
X185328571Y-42174819D02*
X185233333Y-42127200D01*
X185233333Y-42127200D02*
X185185714Y-42079580D01*
X185185714Y-42079580D02*
X185138095Y-41984342D01*
X185138095Y-41984342D02*
X185138095Y-41698628D01*
X185138095Y-41698628D02*
X185185714Y-41603390D01*
X185185714Y-41603390D02*
X185233333Y-41555771D01*
X185233333Y-41555771D02*
X185328571Y-41508152D01*
X185328571Y-41508152D02*
X185471428Y-41508152D01*
X185471428Y-41508152D02*
X185566666Y-41555771D01*
X185566666Y-41555771D02*
X185614285Y-41603390D01*
X185614285Y-41603390D02*
X185661904Y-41698628D01*
X185661904Y-41698628D02*
X185661904Y-41984342D01*
X185661904Y-41984342D02*
X185614285Y-42079580D01*
X185614285Y-42079580D02*
X185566666Y-42127200D01*
X185566666Y-42127200D02*
X185471428Y-42174819D01*
X185471428Y-42174819D02*
X185328571Y-42174819D01*
X186090476Y-41508152D02*
X186090476Y-42508152D01*
X186090476Y-41555771D02*
X186185714Y-41508152D01*
X186185714Y-41508152D02*
X186376190Y-41508152D01*
X186376190Y-41508152D02*
X186471428Y-41555771D01*
X186471428Y-41555771D02*
X186519047Y-41603390D01*
X186519047Y-41603390D02*
X186566666Y-41698628D01*
X186566666Y-41698628D02*
X186566666Y-41984342D01*
X186566666Y-41984342D02*
X186519047Y-42079580D01*
X186519047Y-42079580D02*
X186471428Y-42127200D01*
X186471428Y-42127200D02*
X186376190Y-42174819D01*
X186376190Y-42174819D02*
X186185714Y-42174819D01*
X186185714Y-42174819D02*
X186090476Y-42127200D01*
X186947619Y-42127200D02*
X187042857Y-42174819D01*
X187042857Y-42174819D02*
X187233333Y-42174819D01*
X187233333Y-42174819D02*
X187328571Y-42127200D01*
X187328571Y-42127200D02*
X187376190Y-42031961D01*
X187376190Y-42031961D02*
X187376190Y-41984342D01*
X187376190Y-41984342D02*
X187328571Y-41889104D01*
X187328571Y-41889104D02*
X187233333Y-41841485D01*
X187233333Y-41841485D02*
X187090476Y-41841485D01*
X187090476Y-41841485D02*
X186995238Y-41793866D01*
X186995238Y-41793866D02*
X186947619Y-41698628D01*
X186947619Y-41698628D02*
X186947619Y-41651009D01*
X186947619Y-41651009D02*
X186995238Y-41555771D01*
X186995238Y-41555771D02*
X187090476Y-41508152D01*
X187090476Y-41508152D02*
X187233333Y-41508152D01*
X187233333Y-41508152D02*
X187328571Y-41555771D01*
X188328571Y-42174819D02*
X187757143Y-42174819D01*
X188042857Y-42174819D02*
X188042857Y-41174819D01*
X188042857Y-41174819D02*
X187947619Y-41317676D01*
X187947619Y-41317676D02*
X187852381Y-41412914D01*
X187852381Y-41412914D02*
X187757143Y-41460533D01*
X192061904Y-42157200D02*
X192204761Y-42204819D01*
X192204761Y-42204819D02*
X192442856Y-42204819D01*
X192442856Y-42204819D02*
X192538094Y-42157200D01*
X192538094Y-42157200D02*
X192585713Y-42109580D01*
X192585713Y-42109580D02*
X192633332Y-42014342D01*
X192633332Y-42014342D02*
X192633332Y-41919104D01*
X192633332Y-41919104D02*
X192585713Y-41823866D01*
X192585713Y-41823866D02*
X192538094Y-41776247D01*
X192538094Y-41776247D02*
X192442856Y-41728628D01*
X192442856Y-41728628D02*
X192252380Y-41681009D01*
X192252380Y-41681009D02*
X192157142Y-41633390D01*
X192157142Y-41633390D02*
X192109523Y-41585771D01*
X192109523Y-41585771D02*
X192061904Y-41490533D01*
X192061904Y-41490533D02*
X192061904Y-41395295D01*
X192061904Y-41395295D02*
X192109523Y-41300057D01*
X192109523Y-41300057D02*
X192157142Y-41252438D01*
X192157142Y-41252438D02*
X192252380Y-41204819D01*
X192252380Y-41204819D02*
X192490475Y-41204819D01*
X192490475Y-41204819D02*
X192633332Y-41252438D01*
X193061904Y-41538152D02*
X193061904Y-42538152D01*
X193061904Y-41585771D02*
X193157142Y-41538152D01*
X193157142Y-41538152D02*
X193347618Y-41538152D01*
X193347618Y-41538152D02*
X193442856Y-41585771D01*
X193442856Y-41585771D02*
X193490475Y-41633390D01*
X193490475Y-41633390D02*
X193538094Y-41728628D01*
X193538094Y-41728628D02*
X193538094Y-42014342D01*
X193538094Y-42014342D02*
X193490475Y-42109580D01*
X193490475Y-42109580D02*
X193442856Y-42157200D01*
X193442856Y-42157200D02*
X193347618Y-42204819D01*
X193347618Y-42204819D02*
X193157142Y-42204819D01*
X193157142Y-42204819D02*
X193061904Y-42157200D01*
X194347618Y-42157200D02*
X194252380Y-42204819D01*
X194252380Y-42204819D02*
X194061904Y-42204819D01*
X194061904Y-42204819D02*
X193966666Y-42157200D01*
X193966666Y-42157200D02*
X193919047Y-42061961D01*
X193919047Y-42061961D02*
X193919047Y-41681009D01*
X193919047Y-41681009D02*
X193966666Y-41585771D01*
X193966666Y-41585771D02*
X194061904Y-41538152D01*
X194061904Y-41538152D02*
X194252380Y-41538152D01*
X194252380Y-41538152D02*
X194347618Y-41585771D01*
X194347618Y-41585771D02*
X194395237Y-41681009D01*
X194395237Y-41681009D02*
X194395237Y-41776247D01*
X194395237Y-41776247D02*
X193919047Y-41871485D01*
X195252380Y-42204819D02*
X195252380Y-41681009D01*
X195252380Y-41681009D02*
X195204761Y-41585771D01*
X195204761Y-41585771D02*
X195109523Y-41538152D01*
X195109523Y-41538152D02*
X194919047Y-41538152D01*
X194919047Y-41538152D02*
X194823809Y-41585771D01*
X195252380Y-42157200D02*
X195157142Y-42204819D01*
X195157142Y-42204819D02*
X194919047Y-42204819D01*
X194919047Y-42204819D02*
X194823809Y-42157200D01*
X194823809Y-42157200D02*
X194776190Y-42061961D01*
X194776190Y-42061961D02*
X194776190Y-41966723D01*
X194776190Y-41966723D02*
X194823809Y-41871485D01*
X194823809Y-41871485D02*
X194919047Y-41823866D01*
X194919047Y-41823866D02*
X195157142Y-41823866D01*
X195157142Y-41823866D02*
X195252380Y-41776247D01*
X195728571Y-42204819D02*
X195728571Y-41204819D01*
X195823809Y-41823866D02*
X196109523Y-42204819D01*
X196109523Y-41538152D02*
X195728571Y-41919104D01*
X196919047Y-42157200D02*
X196823809Y-42204819D01*
X196823809Y-42204819D02*
X196633333Y-42204819D01*
X196633333Y-42204819D02*
X196538095Y-42157200D01*
X196538095Y-42157200D02*
X196490476Y-42061961D01*
X196490476Y-42061961D02*
X196490476Y-41681009D01*
X196490476Y-41681009D02*
X196538095Y-41585771D01*
X196538095Y-41585771D02*
X196633333Y-41538152D01*
X196633333Y-41538152D02*
X196823809Y-41538152D01*
X196823809Y-41538152D02*
X196919047Y-41585771D01*
X196919047Y-41585771D02*
X196966666Y-41681009D01*
X196966666Y-41681009D02*
X196966666Y-41776247D01*
X196966666Y-41776247D02*
X196490476Y-41871485D01*
X197395238Y-42204819D02*
X197395238Y-41538152D01*
X197395238Y-41728628D02*
X197442857Y-41633390D01*
X197442857Y-41633390D02*
X197490476Y-41585771D01*
X197490476Y-41585771D02*
X197585714Y-41538152D01*
X197585714Y-41538152D02*
X197680952Y-41538152D01*
X197966667Y-41300057D02*
X198014286Y-41252438D01*
X198014286Y-41252438D02*
X198109524Y-41204819D01*
X198109524Y-41204819D02*
X198347619Y-41204819D01*
X198347619Y-41204819D02*
X198442857Y-41252438D01*
X198442857Y-41252438D02*
X198490476Y-41300057D01*
X198490476Y-41300057D02*
X198538095Y-41395295D01*
X198538095Y-41395295D02*
X198538095Y-41490533D01*
X198538095Y-41490533D02*
X198490476Y-41633390D01*
X198490476Y-41633390D02*
X197919048Y-42204819D01*
X197919048Y-42204819D02*
X198538095Y-42204819D01*
X202561904Y-42137200D02*
X202704761Y-42184819D01*
X202704761Y-42184819D02*
X202942856Y-42184819D01*
X202942856Y-42184819D02*
X203038094Y-42137200D01*
X203038094Y-42137200D02*
X203085713Y-42089580D01*
X203085713Y-42089580D02*
X203133332Y-41994342D01*
X203133332Y-41994342D02*
X203133332Y-41899104D01*
X203133332Y-41899104D02*
X203085713Y-41803866D01*
X203085713Y-41803866D02*
X203038094Y-41756247D01*
X203038094Y-41756247D02*
X202942856Y-41708628D01*
X202942856Y-41708628D02*
X202752380Y-41661009D01*
X202752380Y-41661009D02*
X202657142Y-41613390D01*
X202657142Y-41613390D02*
X202609523Y-41565771D01*
X202609523Y-41565771D02*
X202561904Y-41470533D01*
X202561904Y-41470533D02*
X202561904Y-41375295D01*
X202561904Y-41375295D02*
X202609523Y-41280057D01*
X202609523Y-41280057D02*
X202657142Y-41232438D01*
X202657142Y-41232438D02*
X202752380Y-41184819D01*
X202752380Y-41184819D02*
X202990475Y-41184819D01*
X202990475Y-41184819D02*
X203133332Y-41232438D01*
X203561904Y-41518152D02*
X203561904Y-42518152D01*
X203561904Y-41565771D02*
X203657142Y-41518152D01*
X203657142Y-41518152D02*
X203847618Y-41518152D01*
X203847618Y-41518152D02*
X203942856Y-41565771D01*
X203942856Y-41565771D02*
X203990475Y-41613390D01*
X203990475Y-41613390D02*
X204038094Y-41708628D01*
X204038094Y-41708628D02*
X204038094Y-41994342D01*
X204038094Y-41994342D02*
X203990475Y-42089580D01*
X203990475Y-42089580D02*
X203942856Y-42137200D01*
X203942856Y-42137200D02*
X203847618Y-42184819D01*
X203847618Y-42184819D02*
X203657142Y-42184819D01*
X203657142Y-42184819D02*
X203561904Y-42137200D01*
X204847618Y-42137200D02*
X204752380Y-42184819D01*
X204752380Y-42184819D02*
X204561904Y-42184819D01*
X204561904Y-42184819D02*
X204466666Y-42137200D01*
X204466666Y-42137200D02*
X204419047Y-42041961D01*
X204419047Y-42041961D02*
X204419047Y-41661009D01*
X204419047Y-41661009D02*
X204466666Y-41565771D01*
X204466666Y-41565771D02*
X204561904Y-41518152D01*
X204561904Y-41518152D02*
X204752380Y-41518152D01*
X204752380Y-41518152D02*
X204847618Y-41565771D01*
X204847618Y-41565771D02*
X204895237Y-41661009D01*
X204895237Y-41661009D02*
X204895237Y-41756247D01*
X204895237Y-41756247D02*
X204419047Y-41851485D01*
X205752380Y-42184819D02*
X205752380Y-41661009D01*
X205752380Y-41661009D02*
X205704761Y-41565771D01*
X205704761Y-41565771D02*
X205609523Y-41518152D01*
X205609523Y-41518152D02*
X205419047Y-41518152D01*
X205419047Y-41518152D02*
X205323809Y-41565771D01*
X205752380Y-42137200D02*
X205657142Y-42184819D01*
X205657142Y-42184819D02*
X205419047Y-42184819D01*
X205419047Y-42184819D02*
X205323809Y-42137200D01*
X205323809Y-42137200D02*
X205276190Y-42041961D01*
X205276190Y-42041961D02*
X205276190Y-41946723D01*
X205276190Y-41946723D02*
X205323809Y-41851485D01*
X205323809Y-41851485D02*
X205419047Y-41803866D01*
X205419047Y-41803866D02*
X205657142Y-41803866D01*
X205657142Y-41803866D02*
X205752380Y-41756247D01*
X206228571Y-42184819D02*
X206228571Y-41184819D01*
X206323809Y-41803866D02*
X206609523Y-42184819D01*
X206609523Y-41518152D02*
X206228571Y-41899104D01*
X207419047Y-42137200D02*
X207323809Y-42184819D01*
X207323809Y-42184819D02*
X207133333Y-42184819D01*
X207133333Y-42184819D02*
X207038095Y-42137200D01*
X207038095Y-42137200D02*
X206990476Y-42041961D01*
X206990476Y-42041961D02*
X206990476Y-41661009D01*
X206990476Y-41661009D02*
X207038095Y-41565771D01*
X207038095Y-41565771D02*
X207133333Y-41518152D01*
X207133333Y-41518152D02*
X207323809Y-41518152D01*
X207323809Y-41518152D02*
X207419047Y-41565771D01*
X207419047Y-41565771D02*
X207466666Y-41661009D01*
X207466666Y-41661009D02*
X207466666Y-41756247D01*
X207466666Y-41756247D02*
X206990476Y-41851485D01*
X207895238Y-42184819D02*
X207895238Y-41518152D01*
X207895238Y-41708628D02*
X207942857Y-41613390D01*
X207942857Y-41613390D02*
X207990476Y-41565771D01*
X207990476Y-41565771D02*
X208085714Y-41518152D01*
X208085714Y-41518152D02*
X208180952Y-41518152D01*
X209038095Y-42184819D02*
X208466667Y-42184819D01*
X208752381Y-42184819D02*
X208752381Y-41184819D01*
X208752381Y-41184819D02*
X208657143Y-41327676D01*
X208657143Y-41327676D02*
X208561905Y-41422914D01*
X208561905Y-41422914D02*
X208466667Y-41470533D01*
D11*
%TO.C,J2*%
X189190000Y-41910000D02*
G75*
G02*
X188790000Y-41910000I-200000J0D01*
G01*
X188790000Y-41910000D02*
G75*
G02*
X189190000Y-41910000I200000J0D01*
G01*
D12*
X230170000Y-68370000D02*
X169210000Y-68370000D01*
X230170000Y-43110000D02*
X230170000Y-68370000D01*
X169210000Y-68370000D02*
X169210000Y-43110000D01*
X169210000Y-43110000D02*
X230170000Y-43110000D01*
D13*
%TO.C,Back_Panel1*%
X141815000Y-33120000D02*
X128445000Y-33120000D01*
X128445000Y-33120000D02*
X128445000Y-33420000D01*
X141815000Y-33420000D02*
X141815000Y-33120000D01*
X141815000Y-34960000D02*
X141815000Y-40710000D01*
X140395000Y-40210000D02*
X129865000Y-40210000D01*
X129865000Y-40210000D02*
X129865000Y-40710000D01*
X141815000Y-40710000D02*
X140395000Y-40710000D01*
X140395000Y-40710000D02*
X140395000Y-40210000D01*
X129865000Y-40710000D02*
X128445000Y-40710000D01*
X128445000Y-40710000D02*
X128445000Y-34960000D01*
%TO.C,Front_Panel1*%
X144975000Y-40690000D02*
X144975000Y-34940000D01*
X146395000Y-40690000D02*
X144975000Y-40690000D01*
X156925000Y-40690000D02*
X156925000Y-40190000D01*
X158345000Y-40690000D02*
X156925000Y-40690000D01*
X146395000Y-40190000D02*
X146395000Y-40690000D01*
X156925000Y-40190000D02*
X146395000Y-40190000D01*
X158345000Y-34940000D02*
X158345000Y-40690000D01*
X158345000Y-33400000D02*
X158345000Y-33100000D01*
X144975000Y-33100000D02*
X144975000Y-33400000D01*
X158345000Y-33100000D02*
X144975000Y-33100000D01*
%TO.C,E-Stops1*%
X188585000Y-33040000D02*
X181215000Y-33040000D01*
X181215000Y-33040000D02*
X181215000Y-33340000D01*
X188585000Y-33340000D02*
X188585000Y-33040000D01*
X188585000Y-34880000D02*
X188585000Y-40630000D01*
X187165000Y-40130000D02*
X182635000Y-40130000D01*
X182635000Y-40130000D02*
X182635000Y-40630000D01*
X188585000Y-40630000D02*
X187165000Y-40630000D01*
X187165000Y-40630000D02*
X187165000Y-40130000D01*
X182635000Y-40630000D02*
X181215000Y-40630000D01*
X181215000Y-40630000D02*
X181215000Y-34880000D01*
D12*
%TO.C,J1*%
X107750000Y-43110000D02*
X168710000Y-43110000D01*
X107750000Y-68370000D02*
X107750000Y-43110000D01*
X168710000Y-43110000D02*
X168710000Y-68370000D01*
X168710000Y-68370000D02*
X107750000Y-68370000D01*
D11*
X127730000Y-41910000D02*
G75*
G02*
X127330000Y-41910000I-200000J0D01*
G01*
X127330000Y-41910000D02*
G75*
G02*
X127730000Y-41910000I200000J0D01*
G01*
D13*
%TO.C,Speaker2*%
X198985000Y-33070000D02*
X191615000Y-33070000D01*
X191615000Y-33070000D02*
X191615000Y-33370000D01*
X198985000Y-33370000D02*
X198985000Y-33070000D01*
X198985000Y-34910000D02*
X198985000Y-40660000D01*
X197565000Y-40160000D02*
X193035000Y-40160000D01*
X193035000Y-40160000D02*
X193035000Y-40660000D01*
X198985000Y-40660000D02*
X197565000Y-40660000D01*
X197565000Y-40660000D02*
X197565000Y-40160000D01*
X193035000Y-40660000D02*
X191615000Y-40660000D01*
X191615000Y-40660000D02*
X191615000Y-34910000D01*
%TO.C,Speaker1*%
X209485000Y-33050000D02*
X202115000Y-33050000D01*
X202115000Y-33050000D02*
X202115000Y-33350000D01*
X209485000Y-33350000D02*
X209485000Y-33050000D01*
X209485000Y-34890000D02*
X209485000Y-40640000D01*
X208065000Y-40140000D02*
X203535000Y-40140000D01*
X203535000Y-40140000D02*
X203535000Y-40640000D01*
X209485000Y-40640000D02*
X208065000Y-40640000D01*
X208065000Y-40640000D02*
X208065000Y-40140000D01*
X203535000Y-40640000D02*
X202115000Y-40640000D01*
X202115000Y-40640000D02*
X202115000Y-34890000D01*
%TD*%
M02*
