%TF.GenerationSoftware,KiCad,Pcbnew,9.0.4*%
%TF.CreationDate,2026-03-29T23:45:04-07:00*%
%TF.ProjectId,Roll_Hoop_Board,526f6c6c-5f48-46f6-9f70-5f426f617264,rev?*%
%TF.SameCoordinates,Original*%
%TF.FileFunction,Soldermask,Top*%
%TF.FilePolarity,Negative*%
%FSLAX46Y46*%
G04 Gerber Fmt 4.6, Leading zero omitted, Abs format (unit mm)*
G04 Created by KiCad (PCBNEW 9.0.4) date 2026-03-29 23:45:04*
%MOMM*%
%LPD*%
G01*
G04 APERTURE LIST*
G04 Aperture macros list*
%AMRoundRect*
0 Rectangle with rounded corners*
0 $1 Rounding radius*
0 $2 $3 $4 $5 $6 $7 $8 $9 X,Y pos of 4 corners*
0 Add a 4 corners polygon primitive as box body*
4,1,4,$2,$3,$4,$5,$6,$7,$8,$9,$2,$3,0*
0 Add four circle primitives for the rounded corners*
1,1,$1+$1,$2,$3*
1,1,$1+$1,$4,$5*
1,1,$1+$1,$6,$7*
1,1,$1+$1,$8,$9*
0 Add four rect primitives between the rounded corners*
20,1,$1+$1,$2,$3,$4,$5,0*
20,1,$1+$1,$4,$5,$6,$7,0*
20,1,$1+$1,$6,$7,$8,$9,0*
20,1,$1+$1,$8,$9,$2,$3,0*%
G04 Aperture macros list end*
%ADD10C,2.004000*%
%ADD11RoundRect,0.102000X-0.900000X-0.900000X0.900000X-0.900000X0.900000X0.900000X-0.900000X0.900000X0*%
%ADD12C,3.040000*%
%ADD13C,1.500000*%
%ADD14RoundRect,0.250001X0.499999X0.499999X-0.499999X0.499999X-0.499999X-0.499999X0.499999X-0.499999X0*%
%ADD15C,1.020000*%
G04 APERTURE END LIST*
D10*
%TO.C,J2*%
X189210000Y-51860000D03*
X193400000Y-51860000D03*
X197590000Y-51860000D03*
X201790000Y-51860000D03*
X205980000Y-51860000D03*
X210170000Y-51860000D03*
X210170000Y-45510000D03*
X205980000Y-45510000D03*
X201790000Y-45510000D03*
X197590000Y-45510000D03*
X193400000Y-45510000D03*
D11*
X189210000Y-45510000D03*
D12*
X208580000Y-58210000D03*
X190800000Y-58210000D03*
%TD*%
D13*
%TO.C,Back_Panel1*%
X132130000Y-35130000D03*
X135130000Y-35130000D03*
X138130000Y-35130000D03*
X132130000Y-38130000D03*
X135130000Y-38130000D03*
D14*
X138130000Y-38130000D03*
D15*
X129130000Y-34190000D03*
X141130000Y-34190000D03*
%TD*%
%TO.C,Front_Panel1*%
X157660000Y-34170000D03*
X145660000Y-34170000D03*
D14*
X154660000Y-38110000D03*
D13*
X151660000Y-38110000D03*
X148660000Y-38110000D03*
X154660000Y-35110000D03*
X151660000Y-35110000D03*
X148660000Y-35110000D03*
%TD*%
D15*
%TO.C,E-Stops1*%
X187900000Y-34110000D03*
X181900000Y-34110000D03*
D14*
X184900000Y-38050000D03*
D13*
X184900000Y-35050000D03*
%TD*%
D12*
%TO.C,J1*%
X129340000Y-58210000D03*
X147120000Y-58210000D03*
D11*
X127750000Y-45510000D03*
D10*
X131940000Y-45510000D03*
X136130000Y-45510000D03*
X140330000Y-45510000D03*
X144520000Y-45510000D03*
X148710000Y-45510000D03*
X148710000Y-51860000D03*
X144520000Y-51860000D03*
X140330000Y-51860000D03*
X136130000Y-51860000D03*
X131940000Y-51860000D03*
X127750000Y-51860000D03*
%TD*%
D15*
%TO.C,Speaker2*%
X198300000Y-34140000D03*
X192300000Y-34140000D03*
D14*
X195300000Y-38080000D03*
D13*
X195300000Y-35080000D03*
%TD*%
D15*
%TO.C,Speaker1*%
X208800000Y-34120000D03*
X202800000Y-34120000D03*
D14*
X205800000Y-38060000D03*
D13*
X205800000Y-35060000D03*
%TD*%
M02*
