M48
; DRILL file {KiCad 9.0.4} date 2026-03-29T23:45:35-0700
; FORMAT={-:-/ absolute / metric / decimal}
; #@! TF.CreationDate,2026-03-29T23:45:35-07:00
; #@! TF.GenerationSoftware,Kicad,Pcbnew,9.0.4
; #@! TF.FileFunction,Plated,1,2,PTH
FMAT,2
METRIC
; #@! TA.AperFunction,Plated,PTH,ComponentDrill
T1C1.020
; #@! TA.AperFunction,Plated,PTH,ComponentDrill
T2C1.200
%
G90
G05
T1
X132.13Y-35.13
X132.13Y-38.13
X135.13Y-35.13
X135.13Y-38.13
X138.13Y-35.13
X138.13Y-38.13
X148.66Y-35.11
X148.66Y-38.11
X151.66Y-35.11
X151.66Y-38.11
X154.66Y-35.11
X154.66Y-38.11
X184.9Y-35.05
X184.9Y-38.05
X195.3Y-35.08
X195.3Y-38.08
X205.8Y-35.06
X205.8Y-38.06
T2
X127.75Y-45.51
X127.75Y-51.86
X131.94Y-45.51
X131.94Y-51.86
X136.13Y-45.51
X136.13Y-51.86
X140.33Y-45.51
X140.33Y-51.86
X144.52Y-45.51
X144.52Y-51.86
X148.71Y-45.51
X148.71Y-51.86
X189.21Y-45.51
X189.21Y-51.86
X193.4Y-45.51
X193.4Y-51.86
X197.59Y-45.51
X197.59Y-51.86
X201.79Y-45.51
X201.79Y-51.86
X205.98Y-45.51
X205.98Y-51.86
X210.17Y-45.51
X210.17Y-51.86
M30
