%TF.GenerationSoftware,KiCad,Pcbnew,9.0.4*%
%TF.CreationDate,2026-03-29T23:45:04-07:00*%
%TF.ProjectId,Roll_Hoop_Board,526f6c6c-5f48-46f6-9f70-5f426f617264,rev?*%
%TF.SameCoordinates,Original*%
%TF.FileFunction,Copper,L2,Bot*%
%TF.FilePolarity,Positive*%
%FSLAX46Y46*%
G04 Gerber Fmt 4.6, Leading zero omitted, Abs format (unit mm)*
G04 Created by KiCad (PCBNEW 9.0.4) date 2026-03-29 23:45:04*
%MOMM*%
%LPD*%
G01*
G04 APERTURE LIST*
G04 Aperture macros list*
%AMRoundRect*
0 Rectangle with rounded corners*
0 $1 Rounding radius*
0 $2 $3 $4 $5 $6 $7 $8 $9 X,Y pos of 4 corners*
0 Add a 4 corners polygon primitive as box body*
4,1,4,$2,$3,$4,$5,$6,$7,$8,$9,$2,$3,0*
0 Add four circle primitives for the rounded corners*
1,1,$1+$1,$2,$3*
1,1,$1+$1,$4,$5*
1,1,$1+$1,$6,$7*
1,1,$1+$1,$8,$9*
0 Add four rect primitives between the rounded corners*
20,1,$1+$1,$2,$3,$4,$5,0*
20,1,$1+$1,$4,$5,$6,$7,0*
20,1,$1+$1,$6,$7,$8,$9,0*
20,1,$1+$1,$8,$9,$2,$3,0*%
G04 Aperture macros list end*
%TA.AperFunction,ComponentPad*%
%ADD10C,1.800000*%
%TD*%
%TA.AperFunction,ComponentPad*%
%ADD11R,1.800000X1.800000*%
%TD*%
%TA.AperFunction,ComponentPad*%
%ADD12C,1.500000*%
%TD*%
%TA.AperFunction,ComponentPad*%
%ADD13RoundRect,0.250001X0.499999X0.499999X-0.499999X0.499999X-0.499999X-0.499999X0.499999X-0.499999X0*%
%TD*%
%TA.AperFunction,Conductor*%
%ADD14C,0.300000*%
%TD*%
%TA.AperFunction,Conductor*%
%ADD15C,0.200000*%
%TD*%
G04 APERTURE END LIST*
D10*
%TO.P,J2,12,12*%
%TO.N,CAN_H*%
X189210000Y-51860000D03*
%TO.P,J2,11,11*%
%TO.N,DSH_PWR*%
X193400000Y-51860000D03*
%TO.P,J2,10,10*%
%TO.N,DSH_SDC_IN*%
X197590000Y-51860000D03*
%TO.P,J2,9,9*%
%TO.N,DSH_SDC_OUT*%
X201790000Y-51860000D03*
%TO.P,J2,8,8*%
%TO.N,Green_Out*%
X205980000Y-51860000D03*
%TO.P,J2,7,7*%
%TO.N,Speaker_Out*%
X210170000Y-51860000D03*
%TO.P,J2,6,6*%
%TO.N,GND*%
X210170000Y-45510000D03*
%TO.P,J2,5,5*%
%TO.N,Red_Out*%
X205980000Y-45510000D03*
%TO.P,J2,4,4*%
%TO.N,unconnected-(J2-Pad4)*%
X201790000Y-45510000D03*
%TO.P,J2,3,3*%
%TO.N,unconnected-(J2-Pad3)*%
X197590000Y-45510000D03*
%TO.P,J2,2,2*%
%TO.N,CAN_S*%
X193400000Y-45510000D03*
D11*
%TO.P,J2,1,1*%
%TO.N,CAN_L*%
X189210000Y-45510000D03*
%TD*%
D12*
%TO.P,Back_Panel1,6,Pin_6*%
%TO.N,+12V*%
X132130000Y-35130000D03*
%TO.P,Back_Panel1,5,Pin_5*%
X135130000Y-35130000D03*
%TO.P,Back_Panel1,4,Pin_4*%
%TO.N,RLH_RML_YELLOW*%
X138130000Y-35130000D03*
%TO.P,Back_Panel1,3,Pin_3*%
%TO.N,Red_Out*%
X132130000Y-38130000D03*
%TO.P,Back_Panel1,2,Pin_2*%
%TO.N,Green_Out*%
X135130000Y-38130000D03*
D13*
%TO.P,Back_Panel1,1,Pin_1*%
%TO.N,GND*%
X138130000Y-38130000D03*
%TD*%
%TO.P,Front_Panel1,1,Pin_1*%
%TO.N,GND*%
X154660000Y-38110000D03*
D12*
%TO.P,Front_Panel1,2,Pin_2*%
%TO.N,Green_Out*%
X151660000Y-38110000D03*
%TO.P,Front_Panel1,3,Pin_3*%
%TO.N,Red_Out*%
X148660000Y-38110000D03*
%TO.P,Front_Panel1,4,Pin_4*%
%TO.N,RLH_RML_YELLOW*%
X154660000Y-35110000D03*
%TO.P,Front_Panel1,5,Pin_5*%
%TO.N,+12V*%
X151660000Y-35110000D03*
%TO.P,Front_Panel1,6,Pin_6*%
X148660000Y-35110000D03*
%TD*%
D13*
%TO.P,E-Stops1,1,Pin_1*%
%TO.N,DSH_SDC_IN*%
X184900000Y-38050000D03*
D12*
%TO.P,E-Stops1,2,Pin_2*%
%TO.N,RLH_SDC_IN*%
X184900000Y-35050000D03*
%TD*%
D11*
%TO.P,J1,1,1*%
%TO.N,RLH_RML_YELLOW*%
X127750000Y-45510000D03*
D10*
%TO.P,J1,2,2*%
%TO.N,RLH_SDC_IN*%
X131940000Y-45510000D03*
%TO.P,J1,3,3*%
%TO.N,unconnected-(J1-Pad3)*%
X136130000Y-45510000D03*
%TO.P,J1,4,4*%
%TO.N,DSH_PWR*%
X140330000Y-45510000D03*
%TO.P,J1,5,5*%
%TO.N,+12V*%
X144520000Y-45510000D03*
%TO.P,J1,6,6*%
%TO.N,CAN_L*%
X148710000Y-45510000D03*
%TO.P,J1,7,7*%
%TO.N,CAN_H*%
X148710000Y-51860000D03*
%TO.P,J1,8,8*%
%TO.N,CAN_S*%
X144520000Y-51860000D03*
%TO.P,J1,9,9*%
%TO.N,DSH_SDC_OUT*%
X140330000Y-51860000D03*
%TO.P,J1,10,10*%
%TO.N,Extra*%
X136130000Y-51860000D03*
%TO.P,J1,11,11*%
%TO.N,GND*%
X131940000Y-51860000D03*
%TO.P,J1,12,12*%
%TO.N,unconnected-(J1-Pad12)*%
X127750000Y-51860000D03*
%TD*%
D13*
%TO.P,Speaker2,1,Pin_1*%
%TO.N,+12V*%
X195300000Y-38080000D03*
D12*
%TO.P,Speaker2,2,Pin_2*%
%TO.N,Speaker_Out*%
X195300000Y-35080000D03*
%TD*%
D13*
%TO.P,Speaker1,1,Pin_1*%
%TO.N,+12V*%
X205800000Y-38060000D03*
D12*
%TO.P,Speaker1,2,Pin_2*%
%TO.N,Speaker_Out*%
X205800000Y-35060000D03*
%TD*%
D14*
%TO.N,Red_Out*%
X205980000Y-45510000D02*
X197080000Y-36610000D01*
X150160000Y-36610000D02*
X148660000Y-38110000D01*
X197080000Y-36610000D02*
X150160000Y-36610000D01*
%TO.N,Green_Out*%
X202200000Y-48080000D02*
X161970000Y-48080000D01*
X153500000Y-39950000D02*
X151660000Y-38110000D01*
X205980000Y-51860000D02*
X202200000Y-48080000D01*
X161970000Y-48080000D02*
X153840000Y-39950000D01*
X153840000Y-39950000D02*
X153500000Y-39950000D01*
%TO.N,RLH_RML_YELLOW*%
X138130000Y-35130000D02*
X136231000Y-37029000D01*
X136231000Y-37029000D02*
X131673950Y-37029000D01*
X127750000Y-40952950D02*
X127750000Y-45510000D01*
X131673950Y-37029000D02*
X127750000Y-40952950D01*
%TO.N,+12V*%
X148660000Y-35110000D02*
X144520000Y-39250000D01*
X144520000Y-39250000D02*
X144520000Y-45510000D01*
D15*
%TO.N,CAN_S*%
X192780000Y-44890000D02*
X193400000Y-45510000D01*
%TO.N,unconnected-(J2-Pad3)*%
X197360000Y-45510000D02*
X197590000Y-45510000D01*
X197590000Y-45510000D02*
X197590000Y-45910000D01*
%TD*%
%TA.AperFunction,Conductor*%
%TO.N,GND*%
G36*
X212095859Y-31170659D02*
G01*
X212141614Y-31223463D01*
X212152820Y-31274974D01*
X212152820Y-59772949D01*
X212133135Y-59839988D01*
X212080331Y-59885743D01*
X212028820Y-59896949D01*
X209655183Y-59896949D01*
X209588144Y-59877264D01*
X209542389Y-59824460D01*
X209532445Y-59755302D01*
X209561470Y-59691746D01*
X209579697Y-59674573D01*
X209655819Y-59616161D01*
X209749877Y-59543989D01*
X209913989Y-59379877D01*
X210055276Y-59195748D01*
X210171320Y-58994752D01*
X210260137Y-58780330D01*
X210320206Y-58556149D01*
X210350500Y-58326045D01*
X210350500Y-58093955D01*
X210320206Y-57863851D01*
X210260137Y-57639670D01*
X210171320Y-57425248D01*
X210171314Y-57425237D01*
X210055279Y-57224256D01*
X210055278Y-57224254D01*
X209913990Y-57040124D01*
X209913984Y-57040117D01*
X209749882Y-56876015D01*
X209749875Y-56876009D01*
X209565745Y-56734721D01*
X209565743Y-56734720D01*
X209364762Y-56618685D01*
X209364754Y-56618681D01*
X209364752Y-56618680D01*
X209150330Y-56529863D01*
X209150331Y-56529863D01*
X209150328Y-56529862D01*
X209008203Y-56491780D01*
X208926149Y-56469794D01*
X208897386Y-56466007D01*
X208696052Y-56439500D01*
X208696045Y-56439500D01*
X208463955Y-56439500D01*
X208463947Y-56439500D01*
X208233851Y-56469794D01*
X208009671Y-56529862D01*
X207795254Y-56618677D01*
X207795237Y-56618685D01*
X207594256Y-56734720D01*
X207594254Y-56734721D01*
X207410124Y-56876009D01*
X207410117Y-56876015D01*
X207246015Y-57040117D01*
X207246009Y-57040124D01*
X207104721Y-57224254D01*
X207104720Y-57224256D01*
X206988685Y-57425237D01*
X206988677Y-57425254D01*
X206899862Y-57639671D01*
X206839794Y-57863851D01*
X206809500Y-58093947D01*
X206809500Y-58326052D01*
X206839794Y-58556148D01*
X206899862Y-58780328D01*
X206988677Y-58994745D01*
X206988685Y-58994762D01*
X207104720Y-59195743D01*
X207104721Y-59195745D01*
X207246009Y-59379875D01*
X207246015Y-59379882D01*
X207410117Y-59543984D01*
X207410124Y-59543990D01*
X207580303Y-59674573D01*
X207621506Y-59731001D01*
X207625661Y-59800747D01*
X207591449Y-59861667D01*
X207529732Y-59894420D01*
X207504817Y-59896949D01*
X191875183Y-59896949D01*
X191808144Y-59877264D01*
X191762389Y-59824460D01*
X191752445Y-59755302D01*
X191781470Y-59691746D01*
X191799697Y-59674573D01*
X191875819Y-59616161D01*
X191969877Y-59543989D01*
X192133989Y-59379877D01*
X192275276Y-59195748D01*
X192391320Y-58994752D01*
X192480137Y-58780330D01*
X192540206Y-58556149D01*
X192570500Y-58326045D01*
X192570500Y-58093955D01*
X192540206Y-57863851D01*
X192480137Y-57639670D01*
X192391320Y-57425248D01*
X192391314Y-57425237D01*
X192275279Y-57224256D01*
X192275278Y-57224254D01*
X192133990Y-57040124D01*
X192133984Y-57040117D01*
X191969882Y-56876015D01*
X191969875Y-56876009D01*
X191785745Y-56734721D01*
X191785743Y-56734720D01*
X191584762Y-56618685D01*
X191584754Y-56618681D01*
X191584752Y-56618680D01*
X191370330Y-56529863D01*
X191370331Y-56529863D01*
X191370328Y-56529862D01*
X191228203Y-56491780D01*
X191146149Y-56469794D01*
X191117386Y-56466007D01*
X190916052Y-56439500D01*
X190916045Y-56439500D01*
X190683955Y-56439500D01*
X190683947Y-56439500D01*
X190453851Y-56469794D01*
X190229671Y-56529862D01*
X190015254Y-56618677D01*
X190015237Y-56618685D01*
X189814256Y-56734720D01*
X189814254Y-56734721D01*
X189630124Y-56876009D01*
X189630117Y-56876015D01*
X189466015Y-57040117D01*
X189466009Y-57040124D01*
X189324721Y-57224254D01*
X189324720Y-57224256D01*
X189208685Y-57425237D01*
X189208677Y-57425254D01*
X189119862Y-57639671D01*
X189059794Y-57863851D01*
X189029500Y-58093947D01*
X189029500Y-58326052D01*
X189059794Y-58556148D01*
X189119862Y-58780328D01*
X189208677Y-58994745D01*
X189208685Y-58994762D01*
X189324720Y-59195743D01*
X189324721Y-59195745D01*
X189466009Y-59379875D01*
X189466015Y-59379882D01*
X189630117Y-59543984D01*
X189630124Y-59543990D01*
X189800303Y-59674573D01*
X189841506Y-59731001D01*
X189845661Y-59800747D01*
X189811449Y-59861667D01*
X189749732Y-59894420D01*
X189724817Y-59896949D01*
X148195183Y-59896949D01*
X148128144Y-59877264D01*
X148082389Y-59824460D01*
X148072445Y-59755302D01*
X148101470Y-59691746D01*
X148119697Y-59674573D01*
X148195819Y-59616161D01*
X148289877Y-59543989D01*
X148453989Y-59379877D01*
X148595276Y-59195748D01*
X148711320Y-58994752D01*
X148800137Y-58780330D01*
X148860206Y-58556149D01*
X148890500Y-58326045D01*
X148890500Y-58093955D01*
X148860206Y-57863851D01*
X148800137Y-57639670D01*
X148711320Y-57425248D01*
X148711314Y-57425237D01*
X148595279Y-57224256D01*
X148595278Y-57224254D01*
X148453990Y-57040124D01*
X148453984Y-57040117D01*
X148289882Y-56876015D01*
X148289875Y-56876009D01*
X148105745Y-56734721D01*
X148105743Y-56734720D01*
X147904762Y-56618685D01*
X147904754Y-56618681D01*
X147904752Y-56618680D01*
X147690330Y-56529863D01*
X147690331Y-56529863D01*
X147690328Y-56529862D01*
X147548203Y-56491780D01*
X147466149Y-56469794D01*
X147437386Y-56466007D01*
X147236052Y-56439500D01*
X147236045Y-56439500D01*
X147003955Y-56439500D01*
X147003947Y-56439500D01*
X146773851Y-56469794D01*
X146549671Y-56529862D01*
X146335254Y-56618677D01*
X146335237Y-56618685D01*
X146134256Y-56734720D01*
X146134254Y-56734721D01*
X145950124Y-56876009D01*
X145950117Y-56876015D01*
X145786015Y-57040117D01*
X145786009Y-57040124D01*
X145644721Y-57224254D01*
X145644720Y-57224256D01*
X145528685Y-57425237D01*
X145528677Y-57425254D01*
X145439862Y-57639671D01*
X145379794Y-57863851D01*
X145349500Y-58093947D01*
X145349500Y-58326052D01*
X145379794Y-58556148D01*
X145439862Y-58780328D01*
X145528677Y-58994745D01*
X145528685Y-58994762D01*
X145644720Y-59195743D01*
X145644721Y-59195745D01*
X145786009Y-59379875D01*
X145786015Y-59379882D01*
X145950117Y-59543984D01*
X145950124Y-59543990D01*
X146120303Y-59674573D01*
X146161506Y-59731001D01*
X146165661Y-59800747D01*
X146131449Y-59861667D01*
X146069732Y-59894420D01*
X146044817Y-59896949D01*
X130415183Y-59896949D01*
X130348144Y-59877264D01*
X130302389Y-59824460D01*
X130292445Y-59755302D01*
X130321470Y-59691746D01*
X130339697Y-59674573D01*
X130415819Y-59616161D01*
X130509877Y-59543989D01*
X130673989Y-59379877D01*
X130815276Y-59195748D01*
X130931320Y-58994752D01*
X131020137Y-58780330D01*
X131080206Y-58556149D01*
X131110500Y-58326045D01*
X131110500Y-58093955D01*
X131080206Y-57863851D01*
X131020137Y-57639670D01*
X130931320Y-57425248D01*
X130931314Y-57425237D01*
X130815279Y-57224256D01*
X130815278Y-57224254D01*
X130673990Y-57040124D01*
X130673984Y-57040117D01*
X130509882Y-56876015D01*
X130509875Y-56876009D01*
X130325745Y-56734721D01*
X130325743Y-56734720D01*
X130124762Y-56618685D01*
X130124754Y-56618681D01*
X130124752Y-56618680D01*
X129910330Y-56529863D01*
X129910331Y-56529863D01*
X129910328Y-56529862D01*
X129768203Y-56491780D01*
X129686149Y-56469794D01*
X129657386Y-56466007D01*
X129456052Y-56439500D01*
X129456045Y-56439500D01*
X129223955Y-56439500D01*
X129223947Y-56439500D01*
X128993851Y-56469794D01*
X128769671Y-56529862D01*
X128555254Y-56618677D01*
X128555237Y-56618685D01*
X128354256Y-56734720D01*
X128354254Y-56734721D01*
X128170124Y-56876009D01*
X128170117Y-56876015D01*
X128006015Y-57040117D01*
X128006009Y-57040124D01*
X127864721Y-57224254D01*
X127864720Y-57224256D01*
X127748685Y-57425237D01*
X127748677Y-57425254D01*
X127659862Y-57639671D01*
X127599794Y-57863851D01*
X127569500Y-58093947D01*
X127569500Y-58326052D01*
X127599794Y-58556148D01*
X127659862Y-58780328D01*
X127748677Y-58994745D01*
X127748685Y-58994762D01*
X127864720Y-59195743D01*
X127864721Y-59195745D01*
X128006009Y-59379875D01*
X128006015Y-59379882D01*
X128170117Y-59543984D01*
X128170124Y-59543990D01*
X128340303Y-59674573D01*
X128381506Y-59731001D01*
X128385661Y-59800747D01*
X128351449Y-59861667D01*
X128289732Y-59894420D01*
X128264817Y-59896949D01*
X126216079Y-59896949D01*
X126149040Y-59877264D01*
X126103285Y-59824460D01*
X126092079Y-59772949D01*
X126092079Y-51773389D01*
X126649500Y-51773389D01*
X126649500Y-51946610D01*
X126672462Y-52091591D01*
X126676598Y-52117701D01*
X126730127Y-52282445D01*
X126808768Y-52436788D01*
X126910586Y-52576928D01*
X127033072Y-52699414D01*
X127173212Y-52801232D01*
X127327555Y-52879873D01*
X127492299Y-52933402D01*
X127663389Y-52960500D01*
X127663390Y-52960500D01*
X127836610Y-52960500D01*
X127836611Y-52960500D01*
X128007701Y-52933402D01*
X128172445Y-52879873D01*
X128326788Y-52801232D01*
X128466928Y-52699414D01*
X128589414Y-52576928D01*
X128691232Y-52436788D01*
X128769873Y-52282445D01*
X128823402Y-52117701D01*
X128850500Y-51946611D01*
X128850500Y-51773389D01*
X128846767Y-51749818D01*
X130540000Y-51749818D01*
X130540000Y-51970181D01*
X130574473Y-52187835D01*
X130642567Y-52397410D01*
X130742611Y-52593756D01*
X130788932Y-52657513D01*
X131375387Y-52071058D01*
X131380889Y-52091591D01*
X131459881Y-52228408D01*
X131571592Y-52340119D01*
X131708409Y-52419111D01*
X131728939Y-52424612D01*
X131142485Y-53011065D01*
X131142485Y-53011066D01*
X131206243Y-53057388D01*
X131402589Y-53157432D01*
X131612164Y-53225526D01*
X131829819Y-53260000D01*
X132050181Y-53260000D01*
X132267835Y-53225526D01*
X132477410Y-53157432D01*
X132673760Y-53057386D01*
X132737513Y-53011066D01*
X132737514Y-53011066D01*
X132151059Y-52424612D01*
X132171591Y-52419111D01*
X132308408Y-52340119D01*
X132420119Y-52228408D01*
X132499111Y-52091591D01*
X132504612Y-52071060D01*
X133091066Y-52657514D01*
X133091066Y-52657513D01*
X133137386Y-52593760D01*
X133237432Y-52397410D01*
X133305526Y-52187835D01*
X133340000Y-51970181D01*
X133340000Y-51773389D01*
X135029500Y-51773389D01*
X135029500Y-51946610D01*
X135052462Y-52091591D01*
X135056598Y-52117701D01*
X135110127Y-52282445D01*
X135188768Y-52436788D01*
X135290586Y-52576928D01*
X135413072Y-52699414D01*
X135553212Y-52801232D01*
X135707555Y-52879873D01*
X135872299Y-52933402D01*
X136043389Y-52960500D01*
X136043390Y-52960500D01*
X136216610Y-52960500D01*
X136216611Y-52960500D01*
X136387701Y-52933402D01*
X136552445Y-52879873D01*
X136706788Y-52801232D01*
X136846928Y-52699414D01*
X136969414Y-52576928D01*
X137071232Y-52436788D01*
X137149873Y-52282445D01*
X137203402Y-52117701D01*
X137230500Y-51946611D01*
X137230500Y-51773389D01*
X139229500Y-51773389D01*
X139229500Y-51946610D01*
X139252462Y-52091591D01*
X139256598Y-52117701D01*
X139310127Y-52282445D01*
X139388768Y-52436788D01*
X139490586Y-52576928D01*
X139613072Y-52699414D01*
X139753212Y-52801232D01*
X139907555Y-52879873D01*
X140072299Y-52933402D01*
X140243389Y-52960500D01*
X140243390Y-52960500D01*
X140416610Y-52960500D01*
X140416611Y-52960500D01*
X140587701Y-52933402D01*
X140752445Y-52879873D01*
X140906788Y-52801232D01*
X141046928Y-52699414D01*
X141169414Y-52576928D01*
X141271232Y-52436788D01*
X141349873Y-52282445D01*
X141403402Y-52117701D01*
X141430500Y-51946611D01*
X141430500Y-51773389D01*
X143419500Y-51773389D01*
X143419500Y-51946610D01*
X143442462Y-52091591D01*
X143446598Y-52117701D01*
X143500127Y-52282445D01*
X143578768Y-52436788D01*
X143680586Y-52576928D01*
X143803072Y-52699414D01*
X143943212Y-52801232D01*
X144097555Y-52879873D01*
X144262299Y-52933402D01*
X144433389Y-52960500D01*
X144433390Y-52960500D01*
X144606610Y-52960500D01*
X144606611Y-52960500D01*
X144777701Y-52933402D01*
X144942445Y-52879873D01*
X145096788Y-52801232D01*
X145236928Y-52699414D01*
X145359414Y-52576928D01*
X145461232Y-52436788D01*
X145539873Y-52282445D01*
X145593402Y-52117701D01*
X145620500Y-51946611D01*
X145620500Y-51773389D01*
X147609500Y-51773389D01*
X147609500Y-51946610D01*
X147632462Y-52091591D01*
X147636598Y-52117701D01*
X147690127Y-52282445D01*
X147768768Y-52436788D01*
X147870586Y-52576928D01*
X147993072Y-52699414D01*
X148133212Y-52801232D01*
X148287555Y-52879873D01*
X148452299Y-52933402D01*
X148623389Y-52960500D01*
X148623390Y-52960500D01*
X148796610Y-52960500D01*
X148796611Y-52960500D01*
X148967701Y-52933402D01*
X149132445Y-52879873D01*
X149286788Y-52801232D01*
X149426928Y-52699414D01*
X149549414Y-52576928D01*
X149651232Y-52436788D01*
X149729873Y-52282445D01*
X149783402Y-52117701D01*
X149810500Y-51946611D01*
X149810500Y-51773389D01*
X188109500Y-51773389D01*
X188109500Y-51946610D01*
X188132462Y-52091591D01*
X188136598Y-52117701D01*
X188190127Y-52282445D01*
X188268768Y-52436788D01*
X188370586Y-52576928D01*
X188493072Y-52699414D01*
X188633212Y-52801232D01*
X188787555Y-52879873D01*
X188952299Y-52933402D01*
X189123389Y-52960500D01*
X189123390Y-52960500D01*
X189296610Y-52960500D01*
X189296611Y-52960500D01*
X189467701Y-52933402D01*
X189632445Y-52879873D01*
X189786788Y-52801232D01*
X189926928Y-52699414D01*
X190049414Y-52576928D01*
X190151232Y-52436788D01*
X190229873Y-52282445D01*
X190283402Y-52117701D01*
X190310500Y-51946611D01*
X190310500Y-51773389D01*
X192299500Y-51773389D01*
X192299500Y-51946610D01*
X192322462Y-52091591D01*
X192326598Y-52117701D01*
X192380127Y-52282445D01*
X192458768Y-52436788D01*
X192560586Y-52576928D01*
X192683072Y-52699414D01*
X192823212Y-52801232D01*
X192977555Y-52879873D01*
X193142299Y-52933402D01*
X193313389Y-52960500D01*
X193313390Y-52960500D01*
X193486610Y-52960500D01*
X193486611Y-52960500D01*
X193657701Y-52933402D01*
X193822445Y-52879873D01*
X193976788Y-52801232D01*
X194116928Y-52699414D01*
X194239414Y-52576928D01*
X194341232Y-52436788D01*
X194419873Y-52282445D01*
X194473402Y-52117701D01*
X194500500Y-51946611D01*
X194500500Y-51773389D01*
X196489500Y-51773389D01*
X196489500Y-51946610D01*
X196512462Y-52091591D01*
X196516598Y-52117701D01*
X196570127Y-52282445D01*
X196648768Y-52436788D01*
X196750586Y-52576928D01*
X196873072Y-52699414D01*
X197013212Y-52801232D01*
X197167555Y-52879873D01*
X197332299Y-52933402D01*
X197503389Y-52960500D01*
X197503390Y-52960500D01*
X197676610Y-52960500D01*
X197676611Y-52960500D01*
X197847701Y-52933402D01*
X198012445Y-52879873D01*
X198166788Y-52801232D01*
X198306928Y-52699414D01*
X198429414Y-52576928D01*
X198531232Y-52436788D01*
X198609873Y-52282445D01*
X198663402Y-52117701D01*
X198690500Y-51946611D01*
X198690500Y-51773389D01*
X200689500Y-51773389D01*
X200689500Y-51946610D01*
X200712462Y-52091591D01*
X200716598Y-52117701D01*
X200770127Y-52282445D01*
X200848768Y-52436788D01*
X200950586Y-52576928D01*
X201073072Y-52699414D01*
X201213212Y-52801232D01*
X201367555Y-52879873D01*
X201532299Y-52933402D01*
X201703389Y-52960500D01*
X201703390Y-52960500D01*
X201876610Y-52960500D01*
X201876611Y-52960500D01*
X202047701Y-52933402D01*
X202212445Y-52879873D01*
X202366788Y-52801232D01*
X202506928Y-52699414D01*
X202629414Y-52576928D01*
X202731232Y-52436788D01*
X202809873Y-52282445D01*
X202863402Y-52117701D01*
X202890500Y-51946611D01*
X202890500Y-51773389D01*
X202863402Y-51602299D01*
X202809873Y-51437555D01*
X202731232Y-51283212D01*
X202629414Y-51143072D01*
X202506928Y-51020586D01*
X202366788Y-50918768D01*
X202212445Y-50840127D01*
X202047701Y-50786598D01*
X202047699Y-50786597D01*
X202047698Y-50786597D01*
X201916271Y-50765781D01*
X201876611Y-50759500D01*
X201703389Y-50759500D01*
X201663728Y-50765781D01*
X201532302Y-50786597D01*
X201367552Y-50840128D01*
X201213211Y-50918768D01*
X201133256Y-50976859D01*
X201073072Y-51020586D01*
X201073070Y-51020588D01*
X201073069Y-51020588D01*
X200950588Y-51143069D01*
X200950588Y-51143070D01*
X200950586Y-51143072D01*
X200906859Y-51203256D01*
X200848768Y-51283211D01*
X200770128Y-51437552D01*
X200716597Y-51602302D01*
X200689500Y-51773389D01*
X198690500Y-51773389D01*
X198663402Y-51602299D01*
X198609873Y-51437555D01*
X198531232Y-51283212D01*
X198429414Y-51143072D01*
X198306928Y-51020586D01*
X198166788Y-50918768D01*
X198012445Y-50840127D01*
X197847701Y-50786598D01*
X197847699Y-50786597D01*
X197847698Y-50786597D01*
X197716271Y-50765781D01*
X197676611Y-50759500D01*
X197503389Y-50759500D01*
X197463728Y-50765781D01*
X197332302Y-50786597D01*
X197167552Y-50840128D01*
X197013211Y-50918768D01*
X196933256Y-50976859D01*
X196873072Y-51020586D01*
X196873070Y-51020588D01*
X196873069Y-51020588D01*
X196750588Y-51143069D01*
X196750588Y-51143070D01*
X196750586Y-51143072D01*
X196706859Y-51203256D01*
X196648768Y-51283211D01*
X196570128Y-51437552D01*
X196516597Y-51602302D01*
X196489500Y-51773389D01*
X194500500Y-51773389D01*
X194473402Y-51602299D01*
X194419873Y-51437555D01*
X194341232Y-51283212D01*
X194239414Y-51143072D01*
X194116928Y-51020586D01*
X193976788Y-50918768D01*
X193822445Y-50840127D01*
X193657701Y-50786598D01*
X193657699Y-50786597D01*
X193657698Y-50786597D01*
X193526271Y-50765781D01*
X193486611Y-50759500D01*
X193313389Y-50759500D01*
X193273728Y-50765781D01*
X193142302Y-50786597D01*
X192977552Y-50840128D01*
X192823211Y-50918768D01*
X192743256Y-50976859D01*
X192683072Y-51020586D01*
X192683070Y-51020588D01*
X192683069Y-51020588D01*
X192560588Y-51143069D01*
X192560588Y-51143070D01*
X192560586Y-51143072D01*
X192516859Y-51203256D01*
X192458768Y-51283211D01*
X192380128Y-51437552D01*
X192326597Y-51602302D01*
X192299500Y-51773389D01*
X190310500Y-51773389D01*
X190283402Y-51602299D01*
X190229873Y-51437555D01*
X190151232Y-51283212D01*
X190049414Y-51143072D01*
X189926928Y-51020586D01*
X189786788Y-50918768D01*
X189632445Y-50840127D01*
X189467701Y-50786598D01*
X189467699Y-50786597D01*
X189467698Y-50786597D01*
X189336271Y-50765781D01*
X189296611Y-50759500D01*
X189123389Y-50759500D01*
X189083728Y-50765781D01*
X188952302Y-50786597D01*
X188787552Y-50840128D01*
X188633211Y-50918768D01*
X188553256Y-50976859D01*
X188493072Y-51020586D01*
X188493070Y-51020588D01*
X188493069Y-51020588D01*
X188370588Y-51143069D01*
X188370588Y-51143070D01*
X188370586Y-51143072D01*
X188326859Y-51203256D01*
X188268768Y-51283211D01*
X188190128Y-51437552D01*
X188136597Y-51602302D01*
X188109500Y-51773389D01*
X149810500Y-51773389D01*
X149783402Y-51602299D01*
X149729873Y-51437555D01*
X149651232Y-51283212D01*
X149549414Y-51143072D01*
X149426928Y-51020586D01*
X149286788Y-50918768D01*
X149132445Y-50840127D01*
X148967701Y-50786598D01*
X148967699Y-50786597D01*
X148967698Y-50786597D01*
X148836271Y-50765781D01*
X148796611Y-50759500D01*
X148623389Y-50759500D01*
X148583728Y-50765781D01*
X148452302Y-50786597D01*
X148287552Y-50840128D01*
X148133211Y-50918768D01*
X148053256Y-50976859D01*
X147993072Y-51020586D01*
X147993070Y-51020588D01*
X147993069Y-51020588D01*
X147870588Y-51143069D01*
X147870588Y-51143070D01*
X147870586Y-51143072D01*
X147826859Y-51203256D01*
X147768768Y-51283211D01*
X147690128Y-51437552D01*
X147636597Y-51602302D01*
X147609500Y-51773389D01*
X145620500Y-51773389D01*
X145593402Y-51602299D01*
X145539873Y-51437555D01*
X145461232Y-51283212D01*
X145359414Y-51143072D01*
X145236928Y-51020586D01*
X145096788Y-50918768D01*
X144942445Y-50840127D01*
X144777701Y-50786598D01*
X144777699Y-50786597D01*
X144777698Y-50786597D01*
X144646271Y-50765781D01*
X144606611Y-50759500D01*
X144433389Y-50759500D01*
X144393728Y-50765781D01*
X144262302Y-50786597D01*
X144097552Y-50840128D01*
X143943211Y-50918768D01*
X143863256Y-50976859D01*
X143803072Y-51020586D01*
X143803070Y-51020588D01*
X143803069Y-51020588D01*
X143680588Y-51143069D01*
X143680588Y-51143070D01*
X143680586Y-51143072D01*
X143636859Y-51203256D01*
X143578768Y-51283211D01*
X143500128Y-51437552D01*
X143446597Y-51602302D01*
X143419500Y-51773389D01*
X141430500Y-51773389D01*
X141403402Y-51602299D01*
X141349873Y-51437555D01*
X141271232Y-51283212D01*
X141169414Y-51143072D01*
X141046928Y-51020586D01*
X140906788Y-50918768D01*
X140752445Y-50840127D01*
X140587701Y-50786598D01*
X140587699Y-50786597D01*
X140587698Y-50786597D01*
X140456271Y-50765781D01*
X140416611Y-50759500D01*
X140243389Y-50759500D01*
X140203728Y-50765781D01*
X140072302Y-50786597D01*
X139907552Y-50840128D01*
X139753211Y-50918768D01*
X139673256Y-50976859D01*
X139613072Y-51020586D01*
X139613070Y-51020588D01*
X139613069Y-51020588D01*
X139490588Y-51143069D01*
X139490588Y-51143070D01*
X139490586Y-51143072D01*
X139446859Y-51203256D01*
X139388768Y-51283211D01*
X139310128Y-51437552D01*
X139256597Y-51602302D01*
X139229500Y-51773389D01*
X137230500Y-51773389D01*
X137203402Y-51602299D01*
X137149873Y-51437555D01*
X137071232Y-51283212D01*
X136969414Y-51143072D01*
X136846928Y-51020586D01*
X136706788Y-50918768D01*
X136552445Y-50840127D01*
X136387701Y-50786598D01*
X136387699Y-50786597D01*
X136387698Y-50786597D01*
X136256271Y-50765781D01*
X136216611Y-50759500D01*
X136043389Y-50759500D01*
X136003728Y-50765781D01*
X135872302Y-50786597D01*
X135707552Y-50840128D01*
X135553211Y-50918768D01*
X135473256Y-50976859D01*
X135413072Y-51020586D01*
X135413070Y-51020588D01*
X135413069Y-51020588D01*
X135290588Y-51143069D01*
X135290588Y-51143070D01*
X135290586Y-51143072D01*
X135246859Y-51203256D01*
X135188768Y-51283211D01*
X135110128Y-51437552D01*
X135056597Y-51602302D01*
X135029500Y-51773389D01*
X133340000Y-51773389D01*
X133340000Y-51749818D01*
X133305526Y-51532164D01*
X133237432Y-51322589D01*
X133137388Y-51126243D01*
X133091066Y-51062485D01*
X133091065Y-51062485D01*
X132504612Y-51648939D01*
X132499111Y-51628409D01*
X132420119Y-51491592D01*
X132308408Y-51379881D01*
X132171591Y-51300889D01*
X132151057Y-51295387D01*
X132737513Y-50708932D01*
X132673756Y-50662611D01*
X132477410Y-50562567D01*
X132267835Y-50494473D01*
X132050181Y-50460000D01*
X131829819Y-50460000D01*
X131612164Y-50494473D01*
X131402589Y-50562567D01*
X131206233Y-50662616D01*
X131142485Y-50708931D01*
X131142485Y-50708932D01*
X131728940Y-51295387D01*
X131708409Y-51300889D01*
X131571592Y-51379881D01*
X131459881Y-51491592D01*
X131380889Y-51628409D01*
X131375387Y-51648940D01*
X130788932Y-51062485D01*
X130788931Y-51062485D01*
X130742616Y-51126233D01*
X130642567Y-51322589D01*
X130574473Y-51532164D01*
X130540000Y-51749818D01*
X128846767Y-51749818D01*
X128838560Y-51698003D01*
X128823403Y-51602303D01*
X128823402Y-51602302D01*
X128823402Y-51602301D01*
X128823402Y-51602299D01*
X128769873Y-51437555D01*
X128691232Y-51283212D01*
X128589414Y-51143072D01*
X128466928Y-51020586D01*
X128326788Y-50918768D01*
X128172445Y-50840127D01*
X128007701Y-50786598D01*
X128007699Y-50786597D01*
X128007698Y-50786597D01*
X127876271Y-50765781D01*
X127836611Y-50759500D01*
X127663389Y-50759500D01*
X127623728Y-50765781D01*
X127492302Y-50786597D01*
X127327552Y-50840128D01*
X127173211Y-50918768D01*
X127093256Y-50976859D01*
X127033072Y-51020586D01*
X127033070Y-51020588D01*
X127033069Y-51020588D01*
X126910588Y-51143069D01*
X126910588Y-51143070D01*
X126910586Y-51143072D01*
X126866859Y-51203256D01*
X126808768Y-51283211D01*
X126730128Y-51437552D01*
X126676597Y-51602302D01*
X126649500Y-51773389D01*
X126092079Y-51773389D01*
X126092079Y-44590247D01*
X126649500Y-44590247D01*
X126649500Y-46429752D01*
X126661131Y-46488229D01*
X126661132Y-46488230D01*
X126705447Y-46554552D01*
X126771769Y-46598867D01*
X126771770Y-46598868D01*
X126830247Y-46610499D01*
X126830250Y-46610500D01*
X126830252Y-46610500D01*
X128669750Y-46610500D01*
X128669751Y-46610499D01*
X128684568Y-46607552D01*
X128728229Y-46598868D01*
X128728229Y-46598867D01*
X128728231Y-46598867D01*
X128794552Y-46554552D01*
X128838867Y-46488231D01*
X128838867Y-46488229D01*
X128838868Y-46488229D01*
X128850499Y-46429752D01*
X128850500Y-46429750D01*
X128850500Y-45423389D01*
X130839500Y-45423389D01*
X130839500Y-45596610D01*
X130862462Y-45741591D01*
X130866598Y-45767701D01*
X130920127Y-45932445D01*
X130998768Y-46086788D01*
X131100586Y-46226928D01*
X131223072Y-46349414D01*
X131363212Y-46451232D01*
X131517555Y-46529873D01*
X131682299Y-46583402D01*
X131853389Y-46610500D01*
X131853390Y-46610500D01*
X132026610Y-46610500D01*
X132026611Y-46610500D01*
X132197701Y-46583402D01*
X132362445Y-46529873D01*
X132516788Y-46451232D01*
X132656928Y-46349414D01*
X132779414Y-46226928D01*
X132881232Y-46086788D01*
X132959873Y-45932445D01*
X133013402Y-45767701D01*
X133040500Y-45596611D01*
X133040500Y-45423389D01*
X135029500Y-45423389D01*
X135029500Y-45596610D01*
X135052462Y-45741591D01*
X135056598Y-45767701D01*
X135110127Y-45932445D01*
X135188768Y-46086788D01*
X135290586Y-46226928D01*
X135413072Y-46349414D01*
X135553212Y-46451232D01*
X135707555Y-46529873D01*
X135872299Y-46583402D01*
X136043389Y-46610500D01*
X136043390Y-46610500D01*
X136216610Y-46610500D01*
X136216611Y-46610500D01*
X136387701Y-46583402D01*
X136552445Y-46529873D01*
X136706788Y-46451232D01*
X136846928Y-46349414D01*
X136969414Y-46226928D01*
X137071232Y-46086788D01*
X137149873Y-45932445D01*
X137203402Y-45767701D01*
X137230500Y-45596611D01*
X137230500Y-45423389D01*
X139229500Y-45423389D01*
X139229500Y-45596610D01*
X139252462Y-45741591D01*
X139256598Y-45767701D01*
X139310127Y-45932445D01*
X139388768Y-46086788D01*
X139490586Y-46226928D01*
X139613072Y-46349414D01*
X139753212Y-46451232D01*
X139907555Y-46529873D01*
X140072299Y-46583402D01*
X140243389Y-46610500D01*
X140243390Y-46610500D01*
X140416610Y-46610500D01*
X140416611Y-46610500D01*
X140587701Y-46583402D01*
X140752445Y-46529873D01*
X140906788Y-46451232D01*
X141046928Y-46349414D01*
X141169414Y-46226928D01*
X141271232Y-46086788D01*
X141349873Y-45932445D01*
X141403402Y-45767701D01*
X141430500Y-45596611D01*
X141430500Y-45423389D01*
X143419500Y-45423389D01*
X143419500Y-45596610D01*
X143442462Y-45741591D01*
X143446598Y-45767701D01*
X143500127Y-45932445D01*
X143578768Y-46086788D01*
X143680586Y-46226928D01*
X143803072Y-46349414D01*
X143943212Y-46451232D01*
X144097555Y-46529873D01*
X144262299Y-46583402D01*
X144433389Y-46610500D01*
X144433390Y-46610500D01*
X144606610Y-46610500D01*
X144606611Y-46610500D01*
X144777701Y-46583402D01*
X144942445Y-46529873D01*
X145096788Y-46451232D01*
X145236928Y-46349414D01*
X145359414Y-46226928D01*
X145461232Y-46086788D01*
X145539873Y-45932445D01*
X145593402Y-45767701D01*
X145620500Y-45596611D01*
X145620500Y-45423389D01*
X147609500Y-45423389D01*
X147609500Y-45596610D01*
X147632462Y-45741591D01*
X147636598Y-45767701D01*
X147690127Y-45932445D01*
X147768768Y-46086788D01*
X147870586Y-46226928D01*
X147993072Y-46349414D01*
X148133212Y-46451232D01*
X148287555Y-46529873D01*
X148452299Y-46583402D01*
X148623389Y-46610500D01*
X148623390Y-46610500D01*
X148796610Y-46610500D01*
X148796611Y-46610500D01*
X148967701Y-46583402D01*
X149132445Y-46529873D01*
X149286788Y-46451232D01*
X149426928Y-46349414D01*
X149549414Y-46226928D01*
X149651232Y-46086788D01*
X149729873Y-45932445D01*
X149783402Y-45767701D01*
X149810500Y-45596611D01*
X149810500Y-45423389D01*
X149783402Y-45252299D01*
X149729873Y-45087555D01*
X149651232Y-44933212D01*
X149549414Y-44793072D01*
X149426928Y-44670586D01*
X149286788Y-44568768D01*
X149132445Y-44490127D01*
X148967701Y-44436598D01*
X148967699Y-44436597D01*
X148967698Y-44436597D01*
X148836271Y-44415781D01*
X148796611Y-44409500D01*
X148623389Y-44409500D01*
X148583728Y-44415781D01*
X148452302Y-44436597D01*
X148287552Y-44490128D01*
X148133211Y-44568768D01*
X148076490Y-44609979D01*
X147993072Y-44670586D01*
X147993070Y-44670588D01*
X147993069Y-44670588D01*
X147870588Y-44793069D01*
X147870588Y-44793070D01*
X147870586Y-44793072D01*
X147828907Y-44850438D01*
X147768768Y-44933211D01*
X147690128Y-45087552D01*
X147636597Y-45252302D01*
X147609500Y-45423389D01*
X145620500Y-45423389D01*
X145593402Y-45252299D01*
X145539873Y-45087555D01*
X145461232Y-44933212D01*
X145359414Y-44793072D01*
X145236928Y-44670586D01*
X145096788Y-44568768D01*
X145009848Y-44524470D01*
X144938205Y-44487966D01*
X144887409Y-44439991D01*
X144870500Y-44377481D01*
X144870500Y-39446543D01*
X144890185Y-39379504D01*
X144906814Y-39358867D01*
X146249302Y-38016379D01*
X147709500Y-38016379D01*
X147709500Y-38203620D01*
X147746025Y-38387243D01*
X147746027Y-38387251D01*
X147817676Y-38560228D01*
X147817681Y-38560237D01*
X147921697Y-38715907D01*
X147921700Y-38715911D01*
X148054088Y-38848299D01*
X148054092Y-38848302D01*
X148209762Y-38952318D01*
X148209768Y-38952321D01*
X148209769Y-38952322D01*
X148382749Y-39023973D01*
X148483292Y-39043972D01*
X148566379Y-39060499D01*
X148566383Y-39060500D01*
X148566384Y-39060500D01*
X148753617Y-39060500D01*
X148753618Y-39060499D01*
X148937251Y-39023973D01*
X149110231Y-38952322D01*
X149265908Y-38848302D01*
X149398302Y-38715908D01*
X149502322Y-38560231D01*
X149573973Y-38387251D01*
X149610500Y-38203616D01*
X149610500Y-38016384D01*
X149573973Y-37832749D01*
X149564369Y-37809564D01*
X149556900Y-37740098D01*
X149588173Y-37677618D01*
X149591221Y-37674459D01*
X150268862Y-36996819D01*
X150330185Y-36963334D01*
X150356543Y-36960500D01*
X151327972Y-36960500D01*
X151395011Y-36980185D01*
X151440766Y-37032989D01*
X151450710Y-37102147D01*
X151421685Y-37165703D01*
X151375425Y-37199060D01*
X151343622Y-37212234D01*
X151209771Y-37267676D01*
X151209762Y-37267681D01*
X151054092Y-37371697D01*
X151054088Y-37371700D01*
X150921700Y-37504088D01*
X150921697Y-37504092D01*
X150817681Y-37659762D01*
X150817676Y-37659771D01*
X150746027Y-37832748D01*
X150746025Y-37832756D01*
X150709500Y-38016379D01*
X150709500Y-38203620D01*
X150746025Y-38387243D01*
X150746027Y-38387251D01*
X150817676Y-38560228D01*
X150817681Y-38560237D01*
X150921697Y-38715907D01*
X150921700Y-38715911D01*
X151054088Y-38848299D01*
X151054092Y-38848302D01*
X151209762Y-38952318D01*
X151209768Y-38952321D01*
X151209769Y-38952322D01*
X151382749Y-39023973D01*
X151483292Y-39043972D01*
X151566379Y-39060499D01*
X151566383Y-39060500D01*
X151566384Y-39060500D01*
X151753617Y-39060500D01*
X151753618Y-39060499D01*
X151937251Y-39023973D01*
X151960434Y-39014369D01*
X152029903Y-39006901D01*
X152092383Y-39038176D01*
X152095568Y-39041250D01*
X153284788Y-40230470D01*
X153364712Y-40276614D01*
X153453856Y-40300500D01*
X153643456Y-40300500D01*
X153710495Y-40320185D01*
X153731137Y-40336819D01*
X157731330Y-44337011D01*
X161689531Y-48295212D01*
X161754788Y-48360469D01*
X161754791Y-48360470D01*
X161754794Y-48360473D01*
X161834706Y-48406611D01*
X161834707Y-48406611D01*
X161834712Y-48406614D01*
X161923856Y-48430500D01*
X202003456Y-48430500D01*
X202070495Y-48450185D01*
X202091137Y-48466819D01*
X204931347Y-51307028D01*
X204964832Y-51368351D01*
X204961597Y-51433026D01*
X204906598Y-51602297D01*
X204906597Y-51602301D01*
X204879500Y-51773389D01*
X204879500Y-51946610D01*
X204902462Y-52091591D01*
X204906598Y-52117701D01*
X204960127Y-52282445D01*
X205038768Y-52436788D01*
X205140586Y-52576928D01*
X205263072Y-52699414D01*
X205403212Y-52801232D01*
X205557555Y-52879873D01*
X205722299Y-52933402D01*
X205893389Y-52960500D01*
X205893390Y-52960500D01*
X206066610Y-52960500D01*
X206066611Y-52960500D01*
X206237701Y-52933402D01*
X206402445Y-52879873D01*
X206556788Y-52801232D01*
X206696928Y-52699414D01*
X206819414Y-52576928D01*
X206921232Y-52436788D01*
X206999873Y-52282445D01*
X207053402Y-52117701D01*
X207080500Y-51946611D01*
X207080500Y-51773389D01*
X209069500Y-51773389D01*
X209069500Y-51946610D01*
X209092462Y-52091591D01*
X209096598Y-52117701D01*
X209150127Y-52282445D01*
X209228768Y-52436788D01*
X209330586Y-52576928D01*
X209453072Y-52699414D01*
X209593212Y-52801232D01*
X209747555Y-52879873D01*
X209912299Y-52933402D01*
X210083389Y-52960500D01*
X210083390Y-52960500D01*
X210256610Y-52960500D01*
X210256611Y-52960500D01*
X210427701Y-52933402D01*
X210592445Y-52879873D01*
X210746788Y-52801232D01*
X210886928Y-52699414D01*
X211009414Y-52576928D01*
X211111232Y-52436788D01*
X211189873Y-52282445D01*
X211243402Y-52117701D01*
X211270500Y-51946611D01*
X211270500Y-51773389D01*
X211243402Y-51602299D01*
X211189873Y-51437555D01*
X211111232Y-51283212D01*
X211009414Y-51143072D01*
X210886928Y-51020586D01*
X210746788Y-50918768D01*
X210592445Y-50840127D01*
X210427701Y-50786598D01*
X210427699Y-50786597D01*
X210427698Y-50786597D01*
X210296271Y-50765781D01*
X210256611Y-50759500D01*
X210083389Y-50759500D01*
X210043728Y-50765781D01*
X209912302Y-50786597D01*
X209747552Y-50840128D01*
X209593211Y-50918768D01*
X209513256Y-50976859D01*
X209453072Y-51020586D01*
X209453070Y-51020588D01*
X209453069Y-51020588D01*
X209330588Y-51143069D01*
X209330588Y-51143070D01*
X209330586Y-51143072D01*
X209286859Y-51203256D01*
X209228768Y-51283211D01*
X209150128Y-51437552D01*
X209096597Y-51602302D01*
X209069500Y-51773389D01*
X207080500Y-51773389D01*
X207053402Y-51602299D01*
X206999873Y-51437555D01*
X206921232Y-51283212D01*
X206819414Y-51143072D01*
X206696928Y-51020586D01*
X206556788Y-50918768D01*
X206402445Y-50840127D01*
X206237701Y-50786598D01*
X206237699Y-50786597D01*
X206237698Y-50786597D01*
X206106271Y-50765781D01*
X206066611Y-50759500D01*
X205893389Y-50759500D01*
X205861192Y-50764599D01*
X205722301Y-50786597D01*
X205722297Y-50786598D01*
X205553026Y-50841597D01*
X205483185Y-50843592D01*
X205427028Y-50811347D01*
X202415213Y-47799531D01*
X202415208Y-47799527D01*
X202335290Y-47753387D01*
X202335289Y-47753386D01*
X202335288Y-47753386D01*
X202246144Y-47729500D01*
X202246143Y-47729500D01*
X162166543Y-47729500D01*
X162099504Y-47709815D01*
X162078862Y-47693181D01*
X159057522Y-44671841D01*
X158975928Y-44590247D01*
X188109500Y-44590247D01*
X188109500Y-46429752D01*
X188121131Y-46488229D01*
X188121132Y-46488230D01*
X188165447Y-46554552D01*
X188231769Y-46598867D01*
X188231770Y-46598868D01*
X188290247Y-46610499D01*
X188290250Y-46610500D01*
X188290252Y-46610500D01*
X190129750Y-46610500D01*
X190129751Y-46610499D01*
X190144568Y-46607552D01*
X190188229Y-46598868D01*
X190188229Y-46598867D01*
X190188231Y-46598867D01*
X190254552Y-46554552D01*
X190298867Y-46488231D01*
X190298867Y-46488229D01*
X190298868Y-46488229D01*
X190310499Y-46429752D01*
X190310500Y-46429750D01*
X190310500Y-45423389D01*
X192299500Y-45423389D01*
X192299500Y-45596610D01*
X192322462Y-45741591D01*
X192326598Y-45767701D01*
X192380127Y-45932445D01*
X192458768Y-46086788D01*
X192560586Y-46226928D01*
X192683072Y-46349414D01*
X192823212Y-46451232D01*
X192977555Y-46529873D01*
X193142299Y-46583402D01*
X193313389Y-46610500D01*
X193313390Y-46610500D01*
X193486610Y-46610500D01*
X193486611Y-46610500D01*
X193657701Y-46583402D01*
X193822445Y-46529873D01*
X193976788Y-46451232D01*
X194116928Y-46349414D01*
X194239414Y-46226928D01*
X194341232Y-46086788D01*
X194419873Y-45932445D01*
X194473402Y-45767701D01*
X194500500Y-45596611D01*
X194500500Y-45423389D01*
X196489500Y-45423389D01*
X196489500Y-45596610D01*
X196512462Y-45741591D01*
X196516598Y-45767701D01*
X196570127Y-45932445D01*
X196648768Y-46086788D01*
X196750586Y-46226928D01*
X196873072Y-46349414D01*
X197013212Y-46451232D01*
X197167555Y-46529873D01*
X197332299Y-46583402D01*
X197503389Y-46610500D01*
X197503390Y-46610500D01*
X197676610Y-46610500D01*
X197676611Y-46610500D01*
X197847701Y-46583402D01*
X198012445Y-46529873D01*
X198166788Y-46451232D01*
X198306928Y-46349414D01*
X198429414Y-46226928D01*
X198531232Y-46086788D01*
X198609873Y-45932445D01*
X198663402Y-45767701D01*
X198690500Y-45596611D01*
X198690500Y-45423389D01*
X200689500Y-45423389D01*
X200689500Y-45596610D01*
X200712462Y-45741591D01*
X200716598Y-45767701D01*
X200770127Y-45932445D01*
X200848768Y-46086788D01*
X200950586Y-46226928D01*
X201073072Y-46349414D01*
X201213212Y-46451232D01*
X201367555Y-46529873D01*
X201532299Y-46583402D01*
X201703389Y-46610500D01*
X201703390Y-46610500D01*
X201876610Y-46610500D01*
X201876611Y-46610500D01*
X202047701Y-46583402D01*
X202212445Y-46529873D01*
X202366788Y-46451232D01*
X202506928Y-46349414D01*
X202629414Y-46226928D01*
X202731232Y-46086788D01*
X202809873Y-45932445D01*
X202863402Y-45767701D01*
X202890500Y-45596611D01*
X202890500Y-45423389D01*
X202863402Y-45252299D01*
X202809873Y-45087555D01*
X202731232Y-44933212D01*
X202629414Y-44793072D01*
X202506928Y-44670586D01*
X202366788Y-44568768D01*
X202212445Y-44490127D01*
X202047701Y-44436598D01*
X202047699Y-44436597D01*
X202047698Y-44436597D01*
X201916271Y-44415781D01*
X201876611Y-44409500D01*
X201703389Y-44409500D01*
X201663728Y-44415781D01*
X201532302Y-44436597D01*
X201367552Y-44490128D01*
X201213211Y-44568768D01*
X201156490Y-44609979D01*
X201073072Y-44670586D01*
X201073070Y-44670588D01*
X201073069Y-44670588D01*
X200950588Y-44793069D01*
X200950588Y-44793070D01*
X200950586Y-44793072D01*
X200908907Y-44850438D01*
X200848768Y-44933211D01*
X200770128Y-45087552D01*
X200716597Y-45252302D01*
X200689500Y-45423389D01*
X198690500Y-45423389D01*
X198663402Y-45252299D01*
X198609873Y-45087555D01*
X198531232Y-44933212D01*
X198429414Y-44793072D01*
X198306928Y-44670586D01*
X198166788Y-44568768D01*
X198012445Y-44490127D01*
X197847701Y-44436598D01*
X197847699Y-44436597D01*
X197847698Y-44436597D01*
X197716271Y-44415781D01*
X197676611Y-44409500D01*
X197503389Y-44409500D01*
X197463728Y-44415781D01*
X197332302Y-44436597D01*
X197167552Y-44490128D01*
X197013211Y-44568768D01*
X196956490Y-44609979D01*
X196873072Y-44670586D01*
X196873070Y-44670588D01*
X196873069Y-44670588D01*
X196750588Y-44793069D01*
X196750588Y-44793070D01*
X196750586Y-44793072D01*
X196708907Y-44850438D01*
X196648768Y-44933211D01*
X196570128Y-45087552D01*
X196516597Y-45252302D01*
X196489500Y-45423389D01*
X194500500Y-45423389D01*
X194473402Y-45252299D01*
X194419873Y-45087555D01*
X194341232Y-44933212D01*
X194239414Y-44793072D01*
X194116928Y-44670586D01*
X193976788Y-44568768D01*
X193822445Y-44490127D01*
X193657701Y-44436598D01*
X193657699Y-44436597D01*
X193657698Y-44436597D01*
X193526271Y-44415781D01*
X193486611Y-44409500D01*
X193313389Y-44409500D01*
X193273728Y-44415781D01*
X193142302Y-44436597D01*
X192977552Y-44490128D01*
X192823200Y-44568774D01*
X192819194Y-44571229D01*
X192754408Y-44589500D01*
X192740438Y-44589500D01*
X192664012Y-44609979D01*
X192664011Y-44609979D01*
X192595489Y-44649539D01*
X192539539Y-44705489D01*
X192499979Y-44774011D01*
X192499979Y-44774012D01*
X192479500Y-44850439D01*
X192479500Y-44864407D01*
X192461237Y-44929182D01*
X192458770Y-44933207D01*
X192380128Y-45087552D01*
X192326597Y-45252302D01*
X192299500Y-45423389D01*
X190310500Y-45423389D01*
X190310500Y-44590249D01*
X190310499Y-44590247D01*
X190298868Y-44531770D01*
X190298867Y-44531769D01*
X190254552Y-44465447D01*
X190188230Y-44421132D01*
X190188229Y-44421131D01*
X190129752Y-44409500D01*
X190129748Y-44409500D01*
X188290252Y-44409500D01*
X188290247Y-44409500D01*
X188231770Y-44421131D01*
X188231769Y-44421132D01*
X188165447Y-44465447D01*
X188121132Y-44531769D01*
X188121131Y-44531770D01*
X188109500Y-44590247D01*
X158975928Y-44590247D01*
X154055213Y-39669531D01*
X154055208Y-39669527D01*
X153975290Y-39623387D01*
X153975289Y-39623386D01*
X153975288Y-39623386D01*
X153886144Y-39599500D01*
X153886143Y-39599500D01*
X153696544Y-39599500D01*
X153629505Y-39579815D01*
X153608863Y-39563181D01*
X152591250Y-38545568D01*
X152557765Y-38484245D01*
X152558595Y-38427968D01*
X152560828Y-38418983D01*
X152573973Y-38387251D01*
X152610500Y-38203616D01*
X152610500Y-38016384D01*
X152573973Y-37832749D01*
X152502322Y-37659769D01*
X152502321Y-37659768D01*
X152502318Y-37659762D01*
X152398302Y-37504092D01*
X152398299Y-37504088D01*
X152265911Y-37371700D01*
X152265907Y-37371697D01*
X152110237Y-37267681D01*
X152110228Y-37267676D01*
X151976378Y-37212234D01*
X151944574Y-37199060D01*
X151890172Y-37155220D01*
X151868107Y-37088926D01*
X151885386Y-37021227D01*
X151936523Y-36973616D01*
X151992028Y-36960500D01*
X153457247Y-36960500D01*
X153524286Y-36980185D01*
X153570041Y-37032989D01*
X153579985Y-37102147D01*
X153562786Y-37149597D01*
X153475643Y-37290876D01*
X153475641Y-37290881D01*
X153420494Y-37457303D01*
X153420493Y-37457310D01*
X153410000Y-37560014D01*
X153410000Y-37860000D01*
X154215440Y-37860000D01*
X154184755Y-37913147D01*
X154150000Y-38042857D01*
X154150000Y-38177143D01*
X154184755Y-38306853D01*
X154215440Y-38360000D01*
X153410000Y-38360000D01*
X153410000Y-38659985D01*
X153420493Y-38762689D01*
X153420494Y-38762696D01*
X153475641Y-38929118D01*
X153475643Y-38929123D01*
X153567684Y-39078344D01*
X153691655Y-39202315D01*
X153840876Y-39294356D01*
X153840881Y-39294358D01*
X154007303Y-39349505D01*
X154007310Y-39349506D01*
X154110014Y-39359999D01*
X154110027Y-39360000D01*
X154410000Y-39360000D01*
X154410000Y-38554560D01*
X154463147Y-38585245D01*
X154592857Y-38620000D01*
X154727143Y-38620000D01*
X154856853Y-38585245D01*
X154910000Y-38554560D01*
X154910000Y-39360000D01*
X155209973Y-39360000D01*
X155209985Y-39359999D01*
X155312689Y-39349506D01*
X155312696Y-39349505D01*
X155479118Y-39294358D01*
X155479123Y-39294356D01*
X155628344Y-39202315D01*
X155752315Y-39078344D01*
X155844356Y-38929123D01*
X155844358Y-38929118D01*
X155899505Y-38762696D01*
X155899506Y-38762689D01*
X155909999Y-38659985D01*
X155910000Y-38659972D01*
X155910000Y-38360000D01*
X155104560Y-38360000D01*
X155135245Y-38306853D01*
X155170000Y-38177143D01*
X155170000Y-38042857D01*
X155135245Y-37913147D01*
X155104560Y-37860000D01*
X155910000Y-37860000D01*
X155910000Y-37560027D01*
X155909999Y-37560014D01*
X155899506Y-37457310D01*
X155899505Y-37457303D01*
X155844358Y-37290881D01*
X155844356Y-37290876D01*
X155757214Y-37149597D01*
X155738774Y-37082204D01*
X155759697Y-37015541D01*
X155813339Y-36970771D01*
X155862753Y-36960500D01*
X184063266Y-36960500D01*
X184130305Y-36980185D01*
X184176060Y-37032989D01*
X184186004Y-37102147D01*
X184156979Y-37165703D01*
X184136899Y-37184270D01*
X184077851Y-37227848D01*
X183997206Y-37337118D01*
X183952353Y-37465302D01*
X183949500Y-37495731D01*
X183949500Y-38604258D01*
X183952354Y-38634698D01*
X183952354Y-38634699D01*
X183997206Y-38762881D01*
X184004587Y-38772882D01*
X184077850Y-38872150D01*
X184187118Y-38952793D01*
X184315302Y-38997646D01*
X184315301Y-38997646D01*
X184319271Y-38998018D01*
X184345735Y-39000500D01*
X185454264Y-39000499D01*
X185484698Y-38997646D01*
X185612882Y-38952793D01*
X185722150Y-38872150D01*
X185802793Y-38762882D01*
X185847646Y-38634698D01*
X185850500Y-38604265D01*
X185850499Y-37495736D01*
X185847646Y-37465302D01*
X185802793Y-37337118D01*
X185722150Y-37227850D01*
X185722148Y-37227849D01*
X185722148Y-37227848D01*
X185663101Y-37184270D01*
X185620850Y-37128623D01*
X185615391Y-37058967D01*
X185648458Y-36997417D01*
X185709552Y-36963516D01*
X185736734Y-36960500D01*
X194503914Y-36960500D01*
X194570953Y-36980185D01*
X194616708Y-37032989D01*
X194626652Y-37102147D01*
X194597627Y-37165703D01*
X194577548Y-37184269D01*
X194518499Y-37227850D01*
X194477850Y-37257850D01*
X194397206Y-37367118D01*
X194352353Y-37495302D01*
X194349500Y-37525731D01*
X194349500Y-38634258D01*
X194352354Y-38664698D01*
X194352354Y-38664699D01*
X194397206Y-38792881D01*
X194397207Y-38792882D01*
X194477850Y-38902150D01*
X194587118Y-38982793D01*
X194715302Y-39027646D01*
X194715301Y-39027646D01*
X194719271Y-39028018D01*
X194745735Y-39030500D01*
X195854264Y-39030499D01*
X195884698Y-39027646D01*
X196012882Y-38982793D01*
X196122150Y-38902150D01*
X196202793Y-38792882D01*
X196247646Y-38664698D01*
X196250500Y-38634265D01*
X196250499Y-37525736D01*
X196247646Y-37495302D01*
X196202793Y-37367118D01*
X196122150Y-37257850D01*
X196022451Y-37184269D01*
X195980202Y-37128623D01*
X195974743Y-37058966D01*
X196007811Y-36997417D01*
X196068905Y-36963516D01*
X196096086Y-36960500D01*
X196883456Y-36960500D01*
X196950495Y-36980185D01*
X196971137Y-36996819D01*
X204931347Y-44957029D01*
X204964832Y-45018352D01*
X204961597Y-45083028D01*
X204906597Y-45252301D01*
X204879500Y-45423389D01*
X204879500Y-45596610D01*
X204902462Y-45741591D01*
X204906598Y-45767701D01*
X204960127Y-45932445D01*
X205038768Y-46086788D01*
X205140586Y-46226928D01*
X205263072Y-46349414D01*
X205403212Y-46451232D01*
X205557555Y-46529873D01*
X205722299Y-46583402D01*
X205893389Y-46610500D01*
X205893390Y-46610500D01*
X206066610Y-46610500D01*
X206066611Y-46610500D01*
X206237701Y-46583402D01*
X206402445Y-46529873D01*
X206556788Y-46451232D01*
X206696928Y-46349414D01*
X206819414Y-46226928D01*
X206921232Y-46086788D01*
X206999873Y-45932445D01*
X207053402Y-45767701D01*
X207080500Y-45596611D01*
X207080500Y-45423389D01*
X207076767Y-45399818D01*
X208770000Y-45399818D01*
X208770000Y-45620181D01*
X208804473Y-45837835D01*
X208872567Y-46047410D01*
X208972611Y-46243756D01*
X209018932Y-46307513D01*
X209605387Y-45721058D01*
X209610889Y-45741591D01*
X209689881Y-45878408D01*
X209801592Y-45990119D01*
X209938409Y-46069111D01*
X209958939Y-46074612D01*
X209372485Y-46661065D01*
X209372485Y-46661066D01*
X209436243Y-46707388D01*
X209632589Y-46807432D01*
X209842164Y-46875526D01*
X210059819Y-46910000D01*
X210280181Y-46910000D01*
X210497835Y-46875526D01*
X210707410Y-46807432D01*
X210903760Y-46707386D01*
X210967513Y-46661066D01*
X210967514Y-46661066D01*
X210381059Y-46074612D01*
X210401591Y-46069111D01*
X210538408Y-45990119D01*
X210650119Y-45878408D01*
X210729111Y-45741591D01*
X210734612Y-45721059D01*
X211321066Y-46307514D01*
X211321066Y-46307513D01*
X211367386Y-46243760D01*
X211467432Y-46047410D01*
X211535526Y-45837835D01*
X211570000Y-45620181D01*
X211570000Y-45399818D01*
X211535526Y-45182164D01*
X211467432Y-44972589D01*
X211367388Y-44776243D01*
X211321066Y-44712485D01*
X211321065Y-44712485D01*
X210734612Y-45298939D01*
X210729111Y-45278409D01*
X210650119Y-45141592D01*
X210538408Y-45029881D01*
X210401591Y-44950889D01*
X210381057Y-44945387D01*
X210967513Y-44358932D01*
X210903756Y-44312611D01*
X210707410Y-44212567D01*
X210497835Y-44144473D01*
X210280181Y-44110000D01*
X210059819Y-44110000D01*
X209842164Y-44144473D01*
X209632589Y-44212567D01*
X209436233Y-44312616D01*
X209372485Y-44358931D01*
X209372485Y-44358932D01*
X209958940Y-44945387D01*
X209938409Y-44950889D01*
X209801592Y-45029881D01*
X209689881Y-45141592D01*
X209610889Y-45278409D01*
X209605387Y-45298940D01*
X209018932Y-44712485D01*
X209018931Y-44712485D01*
X208972616Y-44776233D01*
X208872567Y-44972589D01*
X208804473Y-45182164D01*
X208770000Y-45399818D01*
X207076767Y-45399818D01*
X207068560Y-45348003D01*
X207053403Y-45252303D01*
X207053402Y-45252302D01*
X207053402Y-45252301D01*
X207053402Y-45252299D01*
X206999873Y-45087555D01*
X206921232Y-44933212D01*
X206819414Y-44793072D01*
X206696928Y-44670586D01*
X206556788Y-44568768D01*
X206402445Y-44490127D01*
X206237701Y-44436598D01*
X206237699Y-44436597D01*
X206237698Y-44436597D01*
X206106271Y-44415781D01*
X206066611Y-44409500D01*
X205893389Y-44409500D01*
X205861192Y-44414599D01*
X205722301Y-44436597D01*
X205553028Y-44491597D01*
X205483186Y-44493592D01*
X205427029Y-44461347D01*
X198471413Y-37505731D01*
X204849500Y-37505731D01*
X204849500Y-38614258D01*
X204852354Y-38644698D01*
X204852354Y-38644699D01*
X204897206Y-38772881D01*
X204897207Y-38772882D01*
X204977850Y-38882150D01*
X205087118Y-38962793D01*
X205215302Y-39007646D01*
X205215301Y-39007646D01*
X205219271Y-39008018D01*
X205245735Y-39010500D01*
X206354264Y-39010499D01*
X206384698Y-39007646D01*
X206512882Y-38962793D01*
X206622150Y-38882150D01*
X206702793Y-38772882D01*
X206747646Y-38644698D01*
X206750500Y-38614265D01*
X206750499Y-37505736D01*
X206747646Y-37475302D01*
X206702793Y-37347118D01*
X206622150Y-37237850D01*
X206512882Y-37157207D01*
X206512881Y-37157206D01*
X206384695Y-37112353D01*
X206384698Y-37112353D01*
X206354268Y-37109500D01*
X205245741Y-37109500D01*
X205215301Y-37112354D01*
X205215300Y-37112354D01*
X205087118Y-37157206D01*
X204977850Y-37237850D01*
X204897206Y-37347118D01*
X204852353Y-37475302D01*
X204849500Y-37505731D01*
X198471413Y-37505731D01*
X197295213Y-36329531D01*
X197295208Y-36329527D01*
X197215290Y-36283387D01*
X197215289Y-36283386D01*
X197215288Y-36283386D01*
X197126144Y-36259500D01*
X195501349Y-36259500D01*
X195434310Y-36239815D01*
X195388555Y-36187011D01*
X195378611Y-36117853D01*
X195407636Y-36054297D01*
X195466414Y-36016523D01*
X195477158Y-36013883D01*
X195518315Y-36005695D01*
X195577251Y-35993973D01*
X195750231Y-35922322D01*
X195905908Y-35818302D01*
X196038302Y-35685908D01*
X196142322Y-35530231D01*
X196213973Y-35357251D01*
X196250500Y-35173616D01*
X196250500Y-34986384D01*
X196246521Y-34966379D01*
X204849500Y-34966379D01*
X204849500Y-35153620D01*
X204886025Y-35337243D01*
X204886027Y-35337251D01*
X204957676Y-35510228D01*
X204957681Y-35510237D01*
X205061697Y-35665907D01*
X205061700Y-35665911D01*
X205194088Y-35798299D01*
X205194092Y-35798302D01*
X205349762Y-35902318D01*
X205349768Y-35902321D01*
X205349769Y-35902322D01*
X205522749Y-35973973D01*
X205692629Y-36007764D01*
X205706379Y-36010499D01*
X205706383Y-36010500D01*
X205706384Y-36010500D01*
X205893617Y-36010500D01*
X205893618Y-36010499D01*
X206077251Y-35973973D01*
X206250231Y-35902322D01*
X206405908Y-35798302D01*
X206538302Y-35665908D01*
X206642322Y-35510231D01*
X206713973Y-35337251D01*
X206750500Y-35153616D01*
X206750500Y-34966384D01*
X206713973Y-34782749D01*
X206642322Y-34609769D01*
X206642321Y-34609768D01*
X206642318Y-34609762D01*
X206538302Y-34454092D01*
X206538299Y-34454088D01*
X206405911Y-34321700D01*
X206405907Y-34321697D01*
X206250237Y-34217681D01*
X206250228Y-34217676D01*
X206125530Y-34166025D01*
X206077251Y-34146027D01*
X206077243Y-34146025D01*
X205893620Y-34109500D01*
X205893616Y-34109500D01*
X205706384Y-34109500D01*
X205706379Y-34109500D01*
X205522756Y-34146025D01*
X205522748Y-34146027D01*
X205349771Y-34217676D01*
X205349762Y-34217681D01*
X205194092Y-34321697D01*
X205194088Y-34321700D01*
X205061700Y-34454088D01*
X205061697Y-34454092D01*
X204957681Y-34609762D01*
X204957676Y-34609771D01*
X204886027Y-34782748D01*
X204886025Y-34782756D01*
X204849500Y-34966379D01*
X196246521Y-34966379D01*
X196213973Y-34802749D01*
X196154749Y-34659771D01*
X196142323Y-34629771D01*
X196142318Y-34629762D01*
X196038302Y-34474092D01*
X196038299Y-34474088D01*
X195905911Y-34341700D01*
X195905907Y-34341697D01*
X195750237Y-34237681D01*
X195750228Y-34237676D01*
X195622821Y-34184903D01*
X195577251Y-34166027D01*
X195577243Y-34166025D01*
X195393620Y-34129500D01*
X195393616Y-34129500D01*
X195206384Y-34129500D01*
X195206379Y-34129500D01*
X195022756Y-34166025D01*
X195022748Y-34166027D01*
X194849771Y-34237676D01*
X194849762Y-34237681D01*
X194694092Y-34341697D01*
X194694088Y-34341700D01*
X194561700Y-34474088D01*
X194561697Y-34474092D01*
X194457681Y-34629762D01*
X194457676Y-34629771D01*
X194386027Y-34802748D01*
X194386025Y-34802756D01*
X194349500Y-34986379D01*
X194349500Y-35173620D01*
X194386025Y-35357243D01*
X194386027Y-35357251D01*
X194457676Y-35530228D01*
X194457681Y-35530237D01*
X194561697Y-35685907D01*
X194561700Y-35685911D01*
X194694088Y-35818299D01*
X194694092Y-35818302D01*
X194849762Y-35922318D01*
X194849768Y-35922321D01*
X194849769Y-35922322D01*
X195022749Y-35993973D01*
X195055558Y-36000499D01*
X195122842Y-36013883D01*
X195184753Y-36046268D01*
X195219327Y-36106983D01*
X195215588Y-36176753D01*
X195174722Y-36233425D01*
X195109704Y-36259006D01*
X195098651Y-36259500D01*
X154992028Y-36259500D01*
X154924989Y-36239815D01*
X154879234Y-36187011D01*
X154869290Y-36117853D01*
X154898315Y-36054297D01*
X154944574Y-36020939D01*
X155110231Y-35952322D01*
X155265908Y-35848302D01*
X155398302Y-35715908D01*
X155502322Y-35560231D01*
X155573973Y-35387251D01*
X155610500Y-35203616D01*
X155610500Y-35016384D01*
X155598564Y-34956379D01*
X183949500Y-34956379D01*
X183949500Y-35143620D01*
X183986025Y-35327243D01*
X183986027Y-35327251D01*
X184057676Y-35500228D01*
X184057681Y-35500237D01*
X184161697Y-35655907D01*
X184161700Y-35655911D01*
X184294088Y-35788299D01*
X184294092Y-35788302D01*
X184449762Y-35892318D01*
X184449768Y-35892321D01*
X184449769Y-35892322D01*
X184622749Y-35963973D01*
X184806379Y-36000499D01*
X184806383Y-36000500D01*
X184806384Y-36000500D01*
X184993617Y-36000500D01*
X184993618Y-36000499D01*
X185177251Y-35963973D01*
X185350231Y-35892322D01*
X185505908Y-35788302D01*
X185638302Y-35655908D01*
X185742322Y-35500231D01*
X185813973Y-35327251D01*
X185850500Y-35143616D01*
X185850500Y-34956384D01*
X185813973Y-34772749D01*
X185754749Y-34629771D01*
X185742323Y-34599771D01*
X185742318Y-34599762D01*
X185638302Y-34444092D01*
X185638299Y-34444088D01*
X185505911Y-34311700D01*
X185505907Y-34311697D01*
X185350237Y-34207681D01*
X185350228Y-34207676D01*
X185233920Y-34159500D01*
X185177251Y-34136027D01*
X185177243Y-34136025D01*
X184993620Y-34099500D01*
X184993616Y-34099500D01*
X184806384Y-34099500D01*
X184806379Y-34099500D01*
X184622756Y-34136025D01*
X184622748Y-34136027D01*
X184449771Y-34207676D01*
X184449762Y-34207681D01*
X184294092Y-34311697D01*
X184294088Y-34311700D01*
X184161700Y-34444088D01*
X184161697Y-34444092D01*
X184057681Y-34599762D01*
X184057676Y-34599771D01*
X183986027Y-34772748D01*
X183986025Y-34772756D01*
X183949500Y-34956379D01*
X155598564Y-34956379D01*
X155573973Y-34832749D01*
X155502322Y-34659769D01*
X155502321Y-34659768D01*
X155502318Y-34659762D01*
X155398302Y-34504092D01*
X155398299Y-34504088D01*
X155265911Y-34371700D01*
X155265907Y-34371697D01*
X155110237Y-34267681D01*
X155110228Y-34267676D01*
X154965386Y-34207681D01*
X154937251Y-34196027D01*
X154937243Y-34196025D01*
X154753620Y-34159500D01*
X154753616Y-34159500D01*
X154566384Y-34159500D01*
X154566379Y-34159500D01*
X154382756Y-34196025D01*
X154382748Y-34196027D01*
X154209771Y-34267676D01*
X154209762Y-34267681D01*
X154054092Y-34371697D01*
X154054088Y-34371700D01*
X153921700Y-34504088D01*
X153921697Y-34504092D01*
X153817681Y-34659762D01*
X153817676Y-34659771D01*
X153746027Y-34832748D01*
X153746025Y-34832756D01*
X153709500Y-35016379D01*
X153709500Y-35203620D01*
X153746025Y-35387243D01*
X153746027Y-35387251D01*
X153817676Y-35560228D01*
X153817681Y-35560237D01*
X153921697Y-35715907D01*
X153921700Y-35715911D01*
X154054088Y-35848299D01*
X154054092Y-35848302D01*
X154209762Y-35952318D01*
X154209768Y-35952321D01*
X154209769Y-35952322D01*
X154375425Y-36020939D01*
X154429828Y-36064780D01*
X154451893Y-36131074D01*
X154434614Y-36198773D01*
X154383477Y-36246384D01*
X154327972Y-36259500D01*
X151992028Y-36259500D01*
X151924989Y-36239815D01*
X151879234Y-36187011D01*
X151869290Y-36117853D01*
X151898315Y-36054297D01*
X151944574Y-36020939D01*
X152110231Y-35952322D01*
X152265908Y-35848302D01*
X152398302Y-35715908D01*
X152502322Y-35560231D01*
X152573973Y-35387251D01*
X152610500Y-35203616D01*
X152610500Y-35016384D01*
X152573973Y-34832749D01*
X152502322Y-34659769D01*
X152502321Y-34659768D01*
X152502318Y-34659762D01*
X152398302Y-34504092D01*
X152398299Y-34504088D01*
X152265911Y-34371700D01*
X152265907Y-34371697D01*
X152110237Y-34267681D01*
X152110228Y-34267676D01*
X151937251Y-34196027D01*
X151937243Y-34196025D01*
X151753620Y-34159500D01*
X151753616Y-34159500D01*
X151566384Y-34159500D01*
X151566379Y-34159500D01*
X151382756Y-34196025D01*
X151382748Y-34196027D01*
X151209771Y-34267676D01*
X151209762Y-34267681D01*
X151054092Y-34371697D01*
X151054088Y-34371700D01*
X150921700Y-34504088D01*
X150921697Y-34504092D01*
X150817681Y-34659762D01*
X150817676Y-34659771D01*
X150746027Y-34832748D01*
X150746025Y-34832756D01*
X150709500Y-35016379D01*
X150709500Y-35203620D01*
X150746025Y-35387243D01*
X150746027Y-35387251D01*
X150817676Y-35560228D01*
X150817681Y-35560237D01*
X150921697Y-35715907D01*
X150921700Y-35715911D01*
X151054088Y-35848299D01*
X151054092Y-35848302D01*
X151209762Y-35952318D01*
X151209768Y-35952321D01*
X151209769Y-35952322D01*
X151375425Y-36020939D01*
X151429828Y-36064780D01*
X151451893Y-36131074D01*
X151434614Y-36198773D01*
X151383477Y-36246384D01*
X151327972Y-36259500D01*
X150113856Y-36259500D01*
X150024712Y-36283386D01*
X150024711Y-36283386D01*
X150024709Y-36283387D01*
X150024706Y-36283388D01*
X149944794Y-36329526D01*
X149944785Y-36329533D01*
X149095567Y-37178749D01*
X149034244Y-37212234D01*
X148964552Y-37207250D01*
X148960436Y-37205630D01*
X148937252Y-37196027D01*
X148937243Y-37196024D01*
X148753620Y-37159500D01*
X148753616Y-37159500D01*
X148566384Y-37159500D01*
X148566379Y-37159500D01*
X148382756Y-37196025D01*
X148382748Y-37196027D01*
X148209771Y-37267676D01*
X148209762Y-37267681D01*
X148054092Y-37371697D01*
X148054088Y-37371700D01*
X147921700Y-37504088D01*
X147921697Y-37504092D01*
X147817681Y-37659762D01*
X147817676Y-37659771D01*
X147746027Y-37832748D01*
X147746025Y-37832756D01*
X147709500Y-38016379D01*
X146249302Y-38016379D01*
X148224433Y-36041247D01*
X148285754Y-36007764D01*
X148355446Y-36012748D01*
X148359533Y-36014356D01*
X148382749Y-36023973D01*
X148566379Y-36060499D01*
X148566383Y-36060500D01*
X148566384Y-36060500D01*
X148753617Y-36060500D01*
X148753618Y-36060499D01*
X148937251Y-36023973D01*
X149110231Y-35952322D01*
X149265908Y-35848302D01*
X149398302Y-35715908D01*
X149502322Y-35560231D01*
X149573973Y-35387251D01*
X149610500Y-35203616D01*
X149610500Y-35016384D01*
X149573973Y-34832749D01*
X149502322Y-34659769D01*
X149502321Y-34659768D01*
X149502318Y-34659762D01*
X149398302Y-34504092D01*
X149398299Y-34504088D01*
X149265911Y-34371700D01*
X149265907Y-34371697D01*
X149110237Y-34267681D01*
X149110228Y-34267676D01*
X148937251Y-34196027D01*
X148937243Y-34196025D01*
X148753620Y-34159500D01*
X148753616Y-34159500D01*
X148566384Y-34159500D01*
X148566379Y-34159500D01*
X148382756Y-34196025D01*
X148382748Y-34196027D01*
X148209771Y-34267676D01*
X148209762Y-34267681D01*
X148054092Y-34371697D01*
X148054088Y-34371700D01*
X147921700Y-34504088D01*
X147921697Y-34504092D01*
X147817681Y-34659762D01*
X147817676Y-34659771D01*
X147746027Y-34832748D01*
X147746025Y-34832756D01*
X147709500Y-35016379D01*
X147709500Y-35203620D01*
X147746024Y-35387243D01*
X147746027Y-35387252D01*
X147755630Y-35410436D01*
X147763097Y-35479906D01*
X147731821Y-35542384D01*
X147728749Y-35545567D01*
X144239531Y-39034786D01*
X144239527Y-39034791D01*
X144193387Y-39114709D01*
X144193386Y-39114712D01*
X144169500Y-39203856D01*
X144169500Y-44377481D01*
X144149815Y-44444520D01*
X144101795Y-44487966D01*
X143943211Y-44568768D01*
X143886490Y-44609979D01*
X143803072Y-44670586D01*
X143803070Y-44670588D01*
X143803069Y-44670588D01*
X143680588Y-44793069D01*
X143680588Y-44793070D01*
X143680586Y-44793072D01*
X143638907Y-44850438D01*
X143578768Y-44933211D01*
X143500128Y-45087552D01*
X143446597Y-45252302D01*
X143419500Y-45423389D01*
X141430500Y-45423389D01*
X141403402Y-45252299D01*
X141349873Y-45087555D01*
X141271232Y-44933212D01*
X141169414Y-44793072D01*
X141046928Y-44670586D01*
X140906788Y-44568768D01*
X140752445Y-44490127D01*
X140587701Y-44436598D01*
X140587699Y-44436597D01*
X140587698Y-44436597D01*
X140456271Y-44415781D01*
X140416611Y-44409500D01*
X140243389Y-44409500D01*
X140203728Y-44415781D01*
X140072302Y-44436597D01*
X139907552Y-44490128D01*
X139753211Y-44568768D01*
X139696490Y-44609979D01*
X139613072Y-44670586D01*
X139613070Y-44670588D01*
X139613069Y-44670588D01*
X139490588Y-44793069D01*
X139490588Y-44793070D01*
X139490586Y-44793072D01*
X139448907Y-44850438D01*
X139388768Y-44933211D01*
X139310128Y-45087552D01*
X139256597Y-45252302D01*
X139229500Y-45423389D01*
X137230500Y-45423389D01*
X137203402Y-45252299D01*
X137149873Y-45087555D01*
X137071232Y-44933212D01*
X136969414Y-44793072D01*
X136846928Y-44670586D01*
X136706788Y-44568768D01*
X136552445Y-44490127D01*
X136387701Y-44436598D01*
X136387699Y-44436597D01*
X136387698Y-44436597D01*
X136256271Y-44415781D01*
X136216611Y-44409500D01*
X136043389Y-44409500D01*
X136003728Y-44415781D01*
X135872302Y-44436597D01*
X135707552Y-44490128D01*
X135553211Y-44568768D01*
X135496490Y-44609979D01*
X135413072Y-44670586D01*
X135413070Y-44670588D01*
X135413069Y-44670588D01*
X135290588Y-44793069D01*
X135290588Y-44793070D01*
X135290586Y-44793072D01*
X135248907Y-44850438D01*
X135188768Y-44933211D01*
X135110128Y-45087552D01*
X135056597Y-45252302D01*
X135029500Y-45423389D01*
X133040500Y-45423389D01*
X133013402Y-45252299D01*
X132959873Y-45087555D01*
X132881232Y-44933212D01*
X132779414Y-44793072D01*
X132656928Y-44670586D01*
X132516788Y-44568768D01*
X132362445Y-44490127D01*
X132197701Y-44436598D01*
X132197699Y-44436597D01*
X132197698Y-44436597D01*
X132066271Y-44415781D01*
X132026611Y-44409500D01*
X131853389Y-44409500D01*
X131813728Y-44415781D01*
X131682302Y-44436597D01*
X131517552Y-44490128D01*
X131363211Y-44568768D01*
X131306490Y-44609979D01*
X131223072Y-44670586D01*
X131223070Y-44670588D01*
X131223069Y-44670588D01*
X131100588Y-44793069D01*
X131100588Y-44793070D01*
X131100586Y-44793072D01*
X131058907Y-44850438D01*
X130998768Y-44933211D01*
X130920128Y-45087552D01*
X130866597Y-45252302D01*
X130839500Y-45423389D01*
X128850500Y-45423389D01*
X128850500Y-44590249D01*
X128850499Y-44590247D01*
X128838868Y-44531770D01*
X128838867Y-44531769D01*
X128794552Y-44465447D01*
X128728230Y-44421132D01*
X128728229Y-44421131D01*
X128669752Y-44409500D01*
X128669748Y-44409500D01*
X128224500Y-44409500D01*
X128157461Y-44389815D01*
X128111706Y-44337011D01*
X128100500Y-44285500D01*
X128100500Y-41149492D01*
X128120185Y-41082453D01*
X128136814Y-41061816D01*
X130981535Y-38217094D01*
X131042856Y-38183611D01*
X131112548Y-38188595D01*
X131168481Y-38230467D01*
X131190831Y-38280586D01*
X131216025Y-38407243D01*
X131216027Y-38407251D01*
X131287676Y-38580228D01*
X131287681Y-38580237D01*
X131391697Y-38735907D01*
X131391700Y-38735911D01*
X131524088Y-38868299D01*
X131524092Y-38868302D01*
X131679762Y-38972318D01*
X131679768Y-38972321D01*
X131679769Y-38972322D01*
X131852749Y-39043973D01*
X132025545Y-39078344D01*
X132036379Y-39080499D01*
X132036383Y-39080500D01*
X132036384Y-39080500D01*
X132223617Y-39080500D01*
X132223618Y-39080499D01*
X132407251Y-39043973D01*
X132580231Y-38972322D01*
X132735908Y-38868302D01*
X132868302Y-38735908D01*
X132972322Y-38580231D01*
X133043973Y-38407251D01*
X133080500Y-38223616D01*
X133080500Y-38036384D01*
X133043973Y-37852749D01*
X132972322Y-37679769D01*
X132972321Y-37679768D01*
X132972318Y-37679762D01*
X132900575Y-37572391D01*
X132879697Y-37505713D01*
X132898182Y-37438333D01*
X132950160Y-37391643D01*
X133003677Y-37379500D01*
X134256323Y-37379500D01*
X134323362Y-37399185D01*
X134369117Y-37451989D01*
X134379061Y-37521147D01*
X134359425Y-37572391D01*
X134287681Y-37679762D01*
X134287676Y-37679771D01*
X134216027Y-37852748D01*
X134216025Y-37852756D01*
X134179500Y-38036379D01*
X134179500Y-38223620D01*
X134216025Y-38407243D01*
X134216027Y-38407251D01*
X134287676Y-38580228D01*
X134287681Y-38580237D01*
X134391697Y-38735907D01*
X134391700Y-38735911D01*
X134524088Y-38868299D01*
X134524092Y-38868302D01*
X134679762Y-38972318D01*
X134679768Y-38972321D01*
X134679769Y-38972322D01*
X134852749Y-39043973D01*
X135025545Y-39078344D01*
X135036379Y-39080499D01*
X135036383Y-39080500D01*
X135036384Y-39080500D01*
X135223617Y-39080500D01*
X135223618Y-39080499D01*
X135407251Y-39043973D01*
X135580231Y-38972322D01*
X135735908Y-38868302D01*
X135868302Y-38735908D01*
X135972322Y-38580231D01*
X136043973Y-38407251D01*
X136080500Y-38223616D01*
X136080500Y-38036384D01*
X136043973Y-37852749D01*
X135972322Y-37679769D01*
X135972321Y-37679768D01*
X135972318Y-37679762D01*
X135949596Y-37645756D01*
X135905669Y-37580014D01*
X136880000Y-37580014D01*
X136880000Y-37880000D01*
X137685440Y-37880000D01*
X137654755Y-37933147D01*
X137620000Y-38062857D01*
X137620000Y-38197143D01*
X137654755Y-38326853D01*
X137685440Y-38380000D01*
X136880000Y-38380000D01*
X136880000Y-38679985D01*
X136890493Y-38782689D01*
X136890494Y-38782696D01*
X136945641Y-38949118D01*
X136945643Y-38949123D01*
X137037684Y-39098344D01*
X137161655Y-39222315D01*
X137310876Y-39314356D01*
X137310881Y-39314358D01*
X137477303Y-39369505D01*
X137477310Y-39369506D01*
X137580014Y-39379999D01*
X137580027Y-39380000D01*
X137880000Y-39380000D01*
X137880000Y-38574560D01*
X137933147Y-38605245D01*
X138062857Y-38640000D01*
X138197143Y-38640000D01*
X138326853Y-38605245D01*
X138380000Y-38574560D01*
X138380000Y-39380000D01*
X138679973Y-39380000D01*
X138679985Y-39379999D01*
X138782689Y-39369506D01*
X138782696Y-39369505D01*
X138949118Y-39314358D01*
X138949123Y-39314356D01*
X139098344Y-39222315D01*
X139222315Y-39098344D01*
X139314356Y-38949123D01*
X139314358Y-38949118D01*
X139369505Y-38782696D01*
X139369506Y-38782689D01*
X139379999Y-38679985D01*
X139380000Y-38679972D01*
X139380000Y-38380000D01*
X138574560Y-38380000D01*
X138605245Y-38326853D01*
X138640000Y-38197143D01*
X138640000Y-38062857D01*
X138605245Y-37933147D01*
X138574560Y-37880000D01*
X139380000Y-37880000D01*
X139380000Y-37580027D01*
X139379999Y-37580014D01*
X139369506Y-37477310D01*
X139369505Y-37477303D01*
X139314358Y-37310881D01*
X139314356Y-37310876D01*
X139222315Y-37161655D01*
X139098344Y-37037684D01*
X138949123Y-36945643D01*
X138949118Y-36945641D01*
X138782696Y-36890494D01*
X138782689Y-36890493D01*
X138679985Y-36880000D01*
X138380000Y-36880000D01*
X138380000Y-37685439D01*
X138326853Y-37654755D01*
X138197143Y-37620000D01*
X138062857Y-37620000D01*
X137933147Y-37654755D01*
X137880000Y-37685439D01*
X137880000Y-36880000D01*
X137580014Y-36880000D01*
X137477310Y-36890493D01*
X137477303Y-36890494D01*
X137310881Y-36945641D01*
X137310876Y-36945643D01*
X137161655Y-37037684D01*
X137037684Y-37161655D01*
X136945643Y-37310876D01*
X136945641Y-37310881D01*
X136890494Y-37477303D01*
X136890493Y-37477310D01*
X136880000Y-37580014D01*
X135905669Y-37580014D01*
X135900575Y-37572391D01*
X135879697Y-37505713D01*
X135898182Y-37438333D01*
X135950160Y-37391643D01*
X136003677Y-37379500D01*
X136277142Y-37379500D01*
X136277144Y-37379500D01*
X136366288Y-37355614D01*
X136378220Y-37348725D01*
X136446212Y-37309470D01*
X137694433Y-36061247D01*
X137755754Y-36027764D01*
X137825445Y-36032748D01*
X137829533Y-36034356D01*
X137852749Y-36043973D01*
X137957354Y-36064780D01*
X138036379Y-36080499D01*
X138036383Y-36080500D01*
X138036384Y-36080500D01*
X138223617Y-36080500D01*
X138223618Y-36080499D01*
X138407251Y-36043973D01*
X138580231Y-35972322D01*
X138735908Y-35868302D01*
X138868302Y-35735908D01*
X138972322Y-35580231D01*
X139043973Y-35407251D01*
X139080500Y-35223616D01*
X139080500Y-35036384D01*
X139043973Y-34852749D01*
X138972322Y-34679769D01*
X138972321Y-34679768D01*
X138972318Y-34679762D01*
X138868302Y-34524092D01*
X138868299Y-34524088D01*
X138735911Y-34391700D01*
X138735907Y-34391697D01*
X138580237Y-34287681D01*
X138580228Y-34287676D01*
X138459516Y-34237676D01*
X138407251Y-34216027D01*
X138407243Y-34216025D01*
X138223620Y-34179500D01*
X138223616Y-34179500D01*
X138036384Y-34179500D01*
X138036379Y-34179500D01*
X137852756Y-34216025D01*
X137852748Y-34216027D01*
X137679771Y-34287676D01*
X137679762Y-34287681D01*
X137524092Y-34391697D01*
X137524088Y-34391700D01*
X137391700Y-34524088D01*
X137391697Y-34524092D01*
X137287681Y-34679762D01*
X137287676Y-34679771D01*
X137216027Y-34852748D01*
X137216025Y-34852756D01*
X137179500Y-35036379D01*
X137179500Y-35223620D01*
X137216024Y-35407243D01*
X137216027Y-35407252D01*
X137225630Y-35430436D01*
X137233097Y-35499906D01*
X137201821Y-35562384D01*
X137198749Y-35565567D01*
X136122137Y-36642181D01*
X136060814Y-36675666D01*
X136034456Y-36678500D01*
X131627806Y-36678500D01*
X131538662Y-36702386D01*
X131538661Y-36702386D01*
X131538659Y-36702387D01*
X131538656Y-36702388D01*
X131458744Y-36748526D01*
X131458735Y-36748533D01*
X127469531Y-40737736D01*
X127469527Y-40737741D01*
X127423387Y-40817659D01*
X127423386Y-40817662D01*
X127399500Y-40906806D01*
X127399500Y-44285500D01*
X127379815Y-44352539D01*
X127327011Y-44398294D01*
X127275500Y-44409500D01*
X126830247Y-44409500D01*
X126771770Y-44421131D01*
X126771769Y-44421132D01*
X126705447Y-44465447D01*
X126661132Y-44531769D01*
X126661131Y-44531770D01*
X126649500Y-44590247D01*
X126092079Y-44590247D01*
X126092079Y-35036379D01*
X131179500Y-35036379D01*
X131179500Y-35223620D01*
X131216025Y-35407243D01*
X131216027Y-35407251D01*
X131287676Y-35580228D01*
X131287681Y-35580237D01*
X131391697Y-35735907D01*
X131391700Y-35735911D01*
X131524088Y-35868299D01*
X131524092Y-35868302D01*
X131679762Y-35972318D01*
X131679771Y-35972323D01*
X131683757Y-35973974D01*
X131852749Y-36043973D01*
X131957354Y-36064780D01*
X132036379Y-36080499D01*
X132036383Y-36080500D01*
X132036384Y-36080500D01*
X132223617Y-36080500D01*
X132223618Y-36080499D01*
X132407251Y-36043973D01*
X132580231Y-35972322D01*
X132735908Y-35868302D01*
X132868302Y-35735908D01*
X132972322Y-35580231D01*
X133043973Y-35407251D01*
X133080500Y-35223616D01*
X133080500Y-35036384D01*
X133080499Y-35036379D01*
X134179500Y-35036379D01*
X134179500Y-35223620D01*
X134216025Y-35407243D01*
X134216027Y-35407251D01*
X134287676Y-35580228D01*
X134287681Y-35580237D01*
X134391697Y-35735907D01*
X134391700Y-35735911D01*
X134524088Y-35868299D01*
X134524092Y-35868302D01*
X134679762Y-35972318D01*
X134679771Y-35972323D01*
X134683757Y-35973974D01*
X134852749Y-36043973D01*
X134957354Y-36064780D01*
X135036379Y-36080499D01*
X135036383Y-36080500D01*
X135036384Y-36080500D01*
X135223617Y-36080500D01*
X135223618Y-36080499D01*
X135407251Y-36043973D01*
X135580231Y-35972322D01*
X135735908Y-35868302D01*
X135868302Y-35735908D01*
X135972322Y-35580231D01*
X136043973Y-35407251D01*
X136080500Y-35223616D01*
X136080500Y-35036384D01*
X136043973Y-34852749D01*
X135972322Y-34679769D01*
X135972321Y-34679768D01*
X135972318Y-34679762D01*
X135868302Y-34524092D01*
X135868299Y-34524088D01*
X135735911Y-34391700D01*
X135735907Y-34391697D01*
X135580237Y-34287681D01*
X135580228Y-34287676D01*
X135407251Y-34216027D01*
X135407243Y-34216025D01*
X135223620Y-34179500D01*
X135223616Y-34179500D01*
X135036384Y-34179500D01*
X135036379Y-34179500D01*
X134852756Y-34216025D01*
X134852748Y-34216027D01*
X134679771Y-34287676D01*
X134679762Y-34287681D01*
X134524092Y-34391697D01*
X134524088Y-34391700D01*
X134391700Y-34524088D01*
X134391697Y-34524092D01*
X134287681Y-34679762D01*
X134287676Y-34679771D01*
X134216027Y-34852748D01*
X134216025Y-34852756D01*
X134179500Y-35036379D01*
X133080499Y-35036379D01*
X133043973Y-34852749D01*
X132972322Y-34679769D01*
X132972321Y-34679768D01*
X132972318Y-34679762D01*
X132868302Y-34524092D01*
X132868299Y-34524088D01*
X132735911Y-34391700D01*
X132735907Y-34391697D01*
X132580237Y-34287681D01*
X132580228Y-34287676D01*
X132407251Y-34216027D01*
X132407243Y-34216025D01*
X132223620Y-34179500D01*
X132223616Y-34179500D01*
X132036384Y-34179500D01*
X132036379Y-34179500D01*
X131852756Y-34216025D01*
X131852748Y-34216027D01*
X131679771Y-34287676D01*
X131679762Y-34287681D01*
X131524092Y-34391697D01*
X131524088Y-34391700D01*
X131391700Y-34524088D01*
X131391697Y-34524092D01*
X131287681Y-34679762D01*
X131287676Y-34679771D01*
X131216027Y-34852748D01*
X131216025Y-34852756D01*
X131179500Y-35036379D01*
X126092079Y-35036379D01*
X126092079Y-34115092D01*
X128369500Y-34115092D01*
X128369500Y-34264907D01*
X128398723Y-34411822D01*
X128398725Y-34411830D01*
X128456051Y-34550229D01*
X128456056Y-34550238D01*
X128539280Y-34674790D01*
X128539283Y-34674794D01*
X128645205Y-34780716D01*
X128645209Y-34780719D01*
X128769761Y-34863943D01*
X128769767Y-34863946D01*
X128769768Y-34863947D01*
X128908170Y-34921275D01*
X129055092Y-34950499D01*
X129055096Y-34950500D01*
X129055097Y-34950500D01*
X129204904Y-34950500D01*
X129204905Y-34950499D01*
X129351830Y-34921275D01*
X129490232Y-34863947D01*
X129614791Y-34780719D01*
X129720719Y-34674791D01*
X129803947Y-34550232D01*
X129861275Y-34411830D01*
X129890500Y-34264903D01*
X129890500Y-34115097D01*
X129890499Y-34115092D01*
X140369500Y-34115092D01*
X140369500Y-34264907D01*
X140398723Y-34411822D01*
X140398725Y-34411830D01*
X140456051Y-34550229D01*
X140456056Y-34550238D01*
X140539280Y-34674790D01*
X140539283Y-34674794D01*
X140645205Y-34780716D01*
X140645209Y-34780719D01*
X140769761Y-34863943D01*
X140769767Y-34863946D01*
X140769768Y-34863947D01*
X140908170Y-34921275D01*
X141055092Y-34950499D01*
X141055096Y-34950500D01*
X141055097Y-34950500D01*
X141204904Y-34950500D01*
X141204905Y-34950499D01*
X141351830Y-34921275D01*
X141490232Y-34863947D01*
X141614791Y-34780719D01*
X141720719Y-34674791D01*
X141803947Y-34550232D01*
X141861275Y-34411830D01*
X141890500Y-34264903D01*
X141890500Y-34115097D01*
X141886521Y-34095092D01*
X144899500Y-34095092D01*
X144899500Y-34244907D01*
X144928723Y-34391822D01*
X144928725Y-34391830D01*
X144986051Y-34530229D01*
X144986056Y-34530238D01*
X145069280Y-34654790D01*
X145069283Y-34654794D01*
X145175205Y-34760716D01*
X145175209Y-34760719D01*
X145299761Y-34843943D01*
X145299770Y-34843948D01*
X145304075Y-34845731D01*
X145438170Y-34901275D01*
X145585092Y-34930499D01*
X145585096Y-34930500D01*
X145585097Y-34930500D01*
X145734904Y-34930500D01*
X145734905Y-34930499D01*
X145881830Y-34901275D01*
X146020232Y-34843947D01*
X146144791Y-34760719D01*
X146250719Y-34654791D01*
X146333947Y-34530232D01*
X146391275Y-34391830D01*
X146420500Y-34244903D01*
X146420500Y-34095097D01*
X146420499Y-34095092D01*
X156899500Y-34095092D01*
X156899500Y-34244907D01*
X156928723Y-34391822D01*
X156928725Y-34391830D01*
X156986051Y-34530229D01*
X156986056Y-34530238D01*
X157069280Y-34654790D01*
X157069283Y-34654794D01*
X157175205Y-34760716D01*
X157175209Y-34760719D01*
X157299761Y-34843943D01*
X157299770Y-34843948D01*
X157304075Y-34845731D01*
X157438170Y-34901275D01*
X157585092Y-34930499D01*
X157585096Y-34930500D01*
X157585097Y-34930500D01*
X157734904Y-34930500D01*
X157734905Y-34930499D01*
X157881830Y-34901275D01*
X158020232Y-34843947D01*
X158144791Y-34760719D01*
X158250719Y-34654791D01*
X158333947Y-34530232D01*
X158391275Y-34391830D01*
X158420500Y-34244903D01*
X158420500Y-34095097D01*
X158414156Y-34063201D01*
X158412166Y-34053196D01*
X158408565Y-34035092D01*
X181139500Y-34035092D01*
X181139500Y-34184907D01*
X181168723Y-34331822D01*
X181168725Y-34331830D01*
X181226051Y-34470229D01*
X181226056Y-34470238D01*
X181309280Y-34594790D01*
X181309283Y-34594794D01*
X181415205Y-34700716D01*
X181415209Y-34700719D01*
X181539761Y-34783943D01*
X181539770Y-34783948D01*
X181563917Y-34793950D01*
X181678170Y-34841275D01*
X181825092Y-34870499D01*
X181825096Y-34870500D01*
X181825097Y-34870500D01*
X181974904Y-34870500D01*
X181974905Y-34870499D01*
X182121830Y-34841275D01*
X182260232Y-34783947D01*
X182384791Y-34700719D01*
X182490719Y-34594791D01*
X182573947Y-34470232D01*
X182631275Y-34331830D01*
X182660500Y-34184903D01*
X182660500Y-34035097D01*
X182660499Y-34035092D01*
X187139500Y-34035092D01*
X187139500Y-34184907D01*
X187168723Y-34331822D01*
X187168725Y-34331830D01*
X187226051Y-34470229D01*
X187226056Y-34470238D01*
X187309280Y-34594790D01*
X187309283Y-34594794D01*
X187415205Y-34700716D01*
X187415209Y-34700719D01*
X187539761Y-34783943D01*
X187539770Y-34783948D01*
X187563917Y-34793950D01*
X187678170Y-34841275D01*
X187825092Y-34870499D01*
X187825096Y-34870500D01*
X187825097Y-34870500D01*
X187974904Y-34870500D01*
X187974905Y-34870499D01*
X188121830Y-34841275D01*
X188260232Y-34783947D01*
X188384791Y-34700719D01*
X188490719Y-34594791D01*
X188573947Y-34470232D01*
X188631275Y-34331830D01*
X188660500Y-34184903D01*
X188660500Y-34065092D01*
X191539500Y-34065092D01*
X191539500Y-34214907D01*
X191568723Y-34361822D01*
X191568725Y-34361830D01*
X191626051Y-34500229D01*
X191626056Y-34500238D01*
X191709280Y-34624790D01*
X191709283Y-34624794D01*
X191815205Y-34730716D01*
X191815209Y-34730719D01*
X191939761Y-34813943D01*
X191939767Y-34813946D01*
X191939768Y-34813947D01*
X192078170Y-34871275D01*
X192225092Y-34900499D01*
X192225096Y-34900500D01*
X192225097Y-34900500D01*
X192374904Y-34900500D01*
X192374905Y-34900499D01*
X192521830Y-34871275D01*
X192660232Y-34813947D01*
X192784791Y-34730719D01*
X192890719Y-34624791D01*
X192973947Y-34500232D01*
X193031275Y-34361830D01*
X193060500Y-34214903D01*
X193060500Y-34065097D01*
X193060499Y-34065092D01*
X197539500Y-34065092D01*
X197539500Y-34214907D01*
X197568723Y-34361822D01*
X197568725Y-34361830D01*
X197626051Y-34500229D01*
X197626056Y-34500238D01*
X197709280Y-34624790D01*
X197709283Y-34624794D01*
X197815205Y-34730716D01*
X197815209Y-34730719D01*
X197939761Y-34813943D01*
X197939767Y-34813946D01*
X197939768Y-34813947D01*
X198078170Y-34871275D01*
X198225092Y-34900499D01*
X198225096Y-34900500D01*
X198225097Y-34900500D01*
X198374904Y-34900500D01*
X198374905Y-34900499D01*
X198521830Y-34871275D01*
X198660232Y-34813947D01*
X198784791Y-34730719D01*
X198890719Y-34624791D01*
X198973947Y-34500232D01*
X199031275Y-34361830D01*
X199060500Y-34214903D01*
X199060500Y-34065097D01*
X199056521Y-34045092D01*
X202039500Y-34045092D01*
X202039500Y-34194907D01*
X202068723Y-34341822D01*
X202068725Y-34341830D01*
X202126051Y-34480229D01*
X202126056Y-34480238D01*
X202209280Y-34604790D01*
X202209283Y-34604794D01*
X202315205Y-34710716D01*
X202315209Y-34710719D01*
X202439761Y-34793943D01*
X202439767Y-34793946D01*
X202439768Y-34793947D01*
X202578170Y-34851275D01*
X202725092Y-34880499D01*
X202725096Y-34880500D01*
X202725097Y-34880500D01*
X202874904Y-34880500D01*
X202874905Y-34880499D01*
X203021830Y-34851275D01*
X203160232Y-34793947D01*
X203284791Y-34710719D01*
X203390719Y-34604791D01*
X203473947Y-34480232D01*
X203531275Y-34341830D01*
X203560500Y-34194903D01*
X203560500Y-34045097D01*
X203560499Y-34045092D01*
X208039500Y-34045092D01*
X208039500Y-34194907D01*
X208068723Y-34341822D01*
X208068725Y-34341830D01*
X208126051Y-34480229D01*
X208126056Y-34480238D01*
X208209280Y-34604790D01*
X208209283Y-34604794D01*
X208315205Y-34710716D01*
X208315209Y-34710719D01*
X208439761Y-34793943D01*
X208439767Y-34793946D01*
X208439768Y-34793947D01*
X208578170Y-34851275D01*
X208725092Y-34880499D01*
X208725096Y-34880500D01*
X208725097Y-34880500D01*
X208874904Y-34880500D01*
X208874905Y-34880499D01*
X209021830Y-34851275D01*
X209160232Y-34793947D01*
X209284791Y-34710719D01*
X209390719Y-34604791D01*
X209473947Y-34480232D01*
X209531275Y-34341830D01*
X209560500Y-34194903D01*
X209560500Y-34045097D01*
X209531275Y-33898170D01*
X209473947Y-33759768D01*
X209473946Y-33759767D01*
X209473943Y-33759761D01*
X209390719Y-33635209D01*
X209390716Y-33635205D01*
X209284794Y-33529283D01*
X209284790Y-33529280D01*
X209160238Y-33446056D01*
X209160229Y-33446051D01*
X209021830Y-33388725D01*
X209021822Y-33388723D01*
X208874907Y-33359500D01*
X208874903Y-33359500D01*
X208725097Y-33359500D01*
X208725092Y-33359500D01*
X208578177Y-33388723D01*
X208578169Y-33388725D01*
X208439770Y-33446051D01*
X208439761Y-33446056D01*
X208315209Y-33529280D01*
X208315205Y-33529283D01*
X208209283Y-33635205D01*
X208209280Y-33635209D01*
X208126056Y-33759761D01*
X208126051Y-33759770D01*
X208068725Y-33898169D01*
X208068723Y-33898177D01*
X208039500Y-34045092D01*
X203560499Y-34045092D01*
X203531275Y-33898170D01*
X203473947Y-33759768D01*
X203473946Y-33759767D01*
X203473943Y-33759761D01*
X203390719Y-33635209D01*
X203390716Y-33635205D01*
X203284794Y-33529283D01*
X203284790Y-33529280D01*
X203160238Y-33446056D01*
X203160229Y-33446051D01*
X203021830Y-33388725D01*
X203021822Y-33388723D01*
X202874907Y-33359500D01*
X202874903Y-33359500D01*
X202725097Y-33359500D01*
X202725092Y-33359500D01*
X202578177Y-33388723D01*
X202578169Y-33388725D01*
X202439770Y-33446051D01*
X202439761Y-33446056D01*
X202315209Y-33529280D01*
X202315205Y-33529283D01*
X202209283Y-33635205D01*
X202209280Y-33635209D01*
X202126056Y-33759761D01*
X202126051Y-33759770D01*
X202068725Y-33898169D01*
X202068723Y-33898177D01*
X202039500Y-34045092D01*
X199056521Y-34045092D01*
X199031275Y-33918170D01*
X198973947Y-33779768D01*
X198973946Y-33779767D01*
X198973943Y-33779761D01*
X198890719Y-33655209D01*
X198890716Y-33655205D01*
X198784794Y-33549283D01*
X198784790Y-33549280D01*
X198660238Y-33466056D01*
X198660229Y-33466051D01*
X198521830Y-33408725D01*
X198521822Y-33408723D01*
X198374907Y-33379500D01*
X198374903Y-33379500D01*
X198225097Y-33379500D01*
X198225092Y-33379500D01*
X198078177Y-33408723D01*
X198078169Y-33408725D01*
X197939770Y-33466051D01*
X197939761Y-33466056D01*
X197815209Y-33549280D01*
X197815205Y-33549283D01*
X197709283Y-33655205D01*
X197709280Y-33655209D01*
X197626056Y-33779761D01*
X197626051Y-33779770D01*
X197568725Y-33918169D01*
X197568723Y-33918177D01*
X197539500Y-34065092D01*
X193060499Y-34065092D01*
X193031275Y-33918170D01*
X192973947Y-33779768D01*
X192973946Y-33779767D01*
X192973943Y-33779761D01*
X192890719Y-33655209D01*
X192890716Y-33655205D01*
X192784794Y-33549283D01*
X192784790Y-33549280D01*
X192660238Y-33466056D01*
X192660229Y-33466051D01*
X192521830Y-33408725D01*
X192521822Y-33408723D01*
X192374907Y-33379500D01*
X192374903Y-33379500D01*
X192225097Y-33379500D01*
X192225092Y-33379500D01*
X192078177Y-33408723D01*
X192078169Y-33408725D01*
X191939770Y-33466051D01*
X191939761Y-33466056D01*
X191815209Y-33549280D01*
X191815205Y-33549283D01*
X191709283Y-33655205D01*
X191709280Y-33655209D01*
X191626056Y-33779761D01*
X191626051Y-33779770D01*
X191568725Y-33918169D01*
X191568723Y-33918177D01*
X191539500Y-34065092D01*
X188660500Y-34065092D01*
X188660500Y-34035097D01*
X188631275Y-33888170D01*
X188573947Y-33749768D01*
X188573946Y-33749767D01*
X188573943Y-33749761D01*
X188490719Y-33625209D01*
X188490716Y-33625205D01*
X188384794Y-33519283D01*
X188384790Y-33519280D01*
X188260238Y-33436056D01*
X188260229Y-33436051D01*
X188121830Y-33378725D01*
X188121822Y-33378723D01*
X187974907Y-33349500D01*
X187974903Y-33349500D01*
X187825097Y-33349500D01*
X187825092Y-33349500D01*
X187678177Y-33378723D01*
X187678169Y-33378725D01*
X187539770Y-33436051D01*
X187539761Y-33436056D01*
X187415209Y-33519280D01*
X187415205Y-33519283D01*
X187309283Y-33625205D01*
X187309280Y-33625209D01*
X187226056Y-33749761D01*
X187226051Y-33749770D01*
X187168725Y-33888169D01*
X187168723Y-33888177D01*
X187139500Y-34035092D01*
X182660499Y-34035092D01*
X182631275Y-33888170D01*
X182573947Y-33749768D01*
X182573946Y-33749767D01*
X182573943Y-33749761D01*
X182490719Y-33625209D01*
X182490716Y-33625205D01*
X182384794Y-33519283D01*
X182384790Y-33519280D01*
X182260238Y-33436056D01*
X182260229Y-33436051D01*
X182121830Y-33378725D01*
X182121822Y-33378723D01*
X181974907Y-33349500D01*
X181974903Y-33349500D01*
X181825097Y-33349500D01*
X181825092Y-33349500D01*
X181678177Y-33378723D01*
X181678169Y-33378725D01*
X181539770Y-33436051D01*
X181539761Y-33436056D01*
X181415209Y-33519280D01*
X181415205Y-33519283D01*
X181309283Y-33625205D01*
X181309280Y-33625209D01*
X181226056Y-33749761D01*
X181226051Y-33749770D01*
X181168725Y-33888169D01*
X181168723Y-33888177D01*
X181139500Y-34035092D01*
X158408565Y-34035092D01*
X158400929Y-33996705D01*
X158391275Y-33948170D01*
X158333947Y-33809768D01*
X158333946Y-33809767D01*
X158333943Y-33809761D01*
X158250719Y-33685209D01*
X158250716Y-33685205D01*
X158144794Y-33579283D01*
X158144790Y-33579280D01*
X158020238Y-33496056D01*
X158020229Y-33496051D01*
X157881830Y-33438725D01*
X157881822Y-33438723D01*
X157734907Y-33409500D01*
X157734903Y-33409500D01*
X157585097Y-33409500D01*
X157585092Y-33409500D01*
X157438177Y-33438723D01*
X157438169Y-33438725D01*
X157299770Y-33496051D01*
X157299761Y-33496056D01*
X157175209Y-33579280D01*
X157175205Y-33579283D01*
X157069283Y-33685205D01*
X157069280Y-33685209D01*
X156986056Y-33809761D01*
X156986051Y-33809770D01*
X156928725Y-33948169D01*
X156928723Y-33948177D01*
X156899500Y-34095092D01*
X146420499Y-34095092D01*
X146391275Y-33948170D01*
X146333947Y-33809768D01*
X146333946Y-33809767D01*
X146333943Y-33809761D01*
X146250719Y-33685209D01*
X146250716Y-33685205D01*
X146144794Y-33579283D01*
X146144790Y-33579280D01*
X146020238Y-33496056D01*
X146020229Y-33496051D01*
X145881830Y-33438725D01*
X145881822Y-33438723D01*
X145734907Y-33409500D01*
X145734903Y-33409500D01*
X145585097Y-33409500D01*
X145585092Y-33409500D01*
X145438177Y-33438723D01*
X145438169Y-33438725D01*
X145299770Y-33496051D01*
X145299761Y-33496056D01*
X145175209Y-33579280D01*
X145175205Y-33579283D01*
X145069283Y-33685205D01*
X145069280Y-33685209D01*
X144986056Y-33809761D01*
X144986051Y-33809770D01*
X144928725Y-33948169D01*
X144928723Y-33948177D01*
X144899500Y-34095092D01*
X141886521Y-34095092D01*
X141861275Y-33968170D01*
X141803947Y-33829768D01*
X141803946Y-33829767D01*
X141803943Y-33829761D01*
X141720719Y-33705209D01*
X141720716Y-33705205D01*
X141614794Y-33599283D01*
X141614790Y-33599280D01*
X141490238Y-33516056D01*
X141490229Y-33516051D01*
X141351830Y-33458725D01*
X141351822Y-33458723D01*
X141204907Y-33429500D01*
X141204903Y-33429500D01*
X141055097Y-33429500D01*
X141055092Y-33429500D01*
X140908177Y-33458723D01*
X140908169Y-33458725D01*
X140769770Y-33516051D01*
X140769761Y-33516056D01*
X140645209Y-33599280D01*
X140645205Y-33599283D01*
X140539283Y-33705205D01*
X140539280Y-33705209D01*
X140456056Y-33829761D01*
X140456051Y-33829770D01*
X140398725Y-33968169D01*
X140398723Y-33968177D01*
X140369500Y-34115092D01*
X129890499Y-34115092D01*
X129861275Y-33968170D01*
X129803947Y-33829768D01*
X129803946Y-33829767D01*
X129803943Y-33829761D01*
X129720719Y-33705209D01*
X129720716Y-33705205D01*
X129614794Y-33599283D01*
X129614790Y-33599280D01*
X129490238Y-33516056D01*
X129490229Y-33516051D01*
X129351830Y-33458725D01*
X129351822Y-33458723D01*
X129204907Y-33429500D01*
X129204903Y-33429500D01*
X129055097Y-33429500D01*
X129055092Y-33429500D01*
X128908177Y-33458723D01*
X128908169Y-33458725D01*
X128769770Y-33516051D01*
X128769761Y-33516056D01*
X128645209Y-33599280D01*
X128645205Y-33599283D01*
X128539283Y-33705205D01*
X128539280Y-33705209D01*
X128456056Y-33829761D01*
X128456051Y-33829770D01*
X128398725Y-33968169D01*
X128398723Y-33968177D01*
X128369500Y-34115092D01*
X126092079Y-34115092D01*
X126092079Y-31450907D01*
X126111764Y-31383868D01*
X126164568Y-31338113D01*
X126215358Y-31326910D01*
X156697698Y-31150975D01*
X156698414Y-31150974D01*
X212028820Y-31150974D01*
X212095859Y-31170659D01*
G37*
%TD.AperFunction*%
%TD*%
M02*
