%TF.GenerationSoftware,KiCad,Pcbnew,9.0.4*%
%TF.CreationDate,2026-03-29T23:45:04-07:00*%
%TF.ProjectId,Roll_Hoop_Board,526f6c6c-5f48-46f6-9f70-5f426f617264,rev?*%
%TF.SameCoordinates,Original*%
%TF.FileFunction,Copper,L1,Top*%
%TF.FilePolarity,Positive*%
%FSLAX46Y46*%
G04 Gerber Fmt 4.6, Leading zero omitted, Abs format (unit mm)*
G04 Created by KiCad (PCBNEW 9.0.4) date 2026-03-29 23:45:04*
%MOMM*%
%LPD*%
G01*
G04 APERTURE LIST*
G04 Aperture macros list*
%AMRoundRect*
0 Rectangle with rounded corners*
0 $1 Rounding radius*
0 $2 $3 $4 $5 $6 $7 $8 $9 X,Y pos of 4 corners*
0 Add a 4 corners polygon primitive as box body*
4,1,4,$2,$3,$4,$5,$6,$7,$8,$9,$2,$3,0*
0 Add four circle primitives for the rounded corners*
1,1,$1+$1,$2,$3*
1,1,$1+$1,$4,$5*
1,1,$1+$1,$6,$7*
1,1,$1+$1,$8,$9*
0 Add four rect primitives between the rounded corners*
20,1,$1+$1,$2,$3,$4,$5,0*
20,1,$1+$1,$4,$5,$6,$7,0*
20,1,$1+$1,$6,$7,$8,$9,0*
20,1,$1+$1,$8,$9,$2,$3,0*%
G04 Aperture macros list end*
%TA.AperFunction,ComponentPad*%
%ADD10C,1.800000*%
%TD*%
%TA.AperFunction,ComponentPad*%
%ADD11R,1.800000X1.800000*%
%TD*%
%TA.AperFunction,ComponentPad*%
%ADD12C,1.500000*%
%TD*%
%TA.AperFunction,ComponentPad*%
%ADD13RoundRect,0.250001X0.499999X0.499999X-0.499999X0.499999X-0.499999X-0.499999X0.499999X-0.499999X0*%
%TD*%
%TA.AperFunction,Conductor*%
%ADD14C,0.500000*%
%TD*%
%TA.AperFunction,Conductor*%
%ADD15C,0.300000*%
%TD*%
%TA.AperFunction,Conductor*%
%ADD16C,0.200000*%
%TD*%
G04 APERTURE END LIST*
D10*
%TO.P,J2,12,12*%
%TO.N,CAN_H*%
X189210000Y-51860000D03*
%TO.P,J2,11,11*%
%TO.N,DSH_PWR*%
X193400000Y-51860000D03*
%TO.P,J2,10,10*%
%TO.N,DSH_SDC_IN*%
X197590000Y-51860000D03*
%TO.P,J2,9,9*%
%TO.N,DSH_SDC_OUT*%
X201790000Y-51860000D03*
%TO.P,J2,8,8*%
%TO.N,Green_Out*%
X205980000Y-51860000D03*
%TO.P,J2,7,7*%
%TO.N,Speaker_Out*%
X210170000Y-51860000D03*
%TO.P,J2,6,6*%
%TO.N,GND*%
X210170000Y-45510000D03*
%TO.P,J2,5,5*%
%TO.N,Red_Out*%
X205980000Y-45510000D03*
%TO.P,J2,4,4*%
%TO.N,unconnected-(J2-Pad4)*%
X201790000Y-45510000D03*
%TO.P,J2,3,3*%
%TO.N,unconnected-(J2-Pad3)*%
X197590000Y-45510000D03*
%TO.P,J2,2,2*%
%TO.N,CAN_S*%
X193400000Y-45510000D03*
D11*
%TO.P,J2,1,1*%
%TO.N,CAN_L*%
X189210000Y-45510000D03*
%TD*%
D12*
%TO.P,Back_Panel1,6,Pin_6*%
%TO.N,+12V*%
X132130000Y-35130000D03*
%TO.P,Back_Panel1,5,Pin_5*%
X135130000Y-35130000D03*
%TO.P,Back_Panel1,4,Pin_4*%
%TO.N,RLH_RML_YELLOW*%
X138130000Y-35130000D03*
%TO.P,Back_Panel1,3,Pin_3*%
%TO.N,Red_Out*%
X132130000Y-38130000D03*
%TO.P,Back_Panel1,2,Pin_2*%
%TO.N,Green_Out*%
X135130000Y-38130000D03*
D13*
%TO.P,Back_Panel1,1,Pin_1*%
%TO.N,GND*%
X138130000Y-38130000D03*
%TD*%
%TO.P,Front_Panel1,1,Pin_1*%
%TO.N,GND*%
X154660000Y-38110000D03*
D12*
%TO.P,Front_Panel1,2,Pin_2*%
%TO.N,Green_Out*%
X151660000Y-38110000D03*
%TO.P,Front_Panel1,3,Pin_3*%
%TO.N,Red_Out*%
X148660000Y-38110000D03*
%TO.P,Front_Panel1,4,Pin_4*%
%TO.N,RLH_RML_YELLOW*%
X154660000Y-35110000D03*
%TO.P,Front_Panel1,5,Pin_5*%
%TO.N,+12V*%
X151660000Y-35110000D03*
%TO.P,Front_Panel1,6,Pin_6*%
X148660000Y-35110000D03*
%TD*%
D13*
%TO.P,E-Stops1,1,Pin_1*%
%TO.N,DSH_SDC_IN*%
X184900000Y-38050000D03*
D12*
%TO.P,E-Stops1,2,Pin_2*%
%TO.N,RLH_SDC_IN*%
X184900000Y-35050000D03*
%TD*%
D11*
%TO.P,J1,1,1*%
%TO.N,RLH_RML_YELLOW*%
X127750000Y-45510000D03*
D10*
%TO.P,J1,2,2*%
%TO.N,RLH_SDC_IN*%
X131940000Y-45510000D03*
%TO.P,J1,3,3*%
%TO.N,unconnected-(J1-Pad3)*%
X136130000Y-45510000D03*
%TO.P,J1,4,4*%
%TO.N,DSH_PWR*%
X140330000Y-45510000D03*
%TO.P,J1,5,5*%
%TO.N,+12V*%
X144520000Y-45510000D03*
%TO.P,J1,6,6*%
%TO.N,CAN_L*%
X148710000Y-45510000D03*
%TO.P,J1,7,7*%
%TO.N,CAN_H*%
X148710000Y-51860000D03*
%TO.P,J1,8,8*%
%TO.N,CAN_S*%
X144520000Y-51860000D03*
%TO.P,J1,9,9*%
%TO.N,DSH_SDC_OUT*%
X140330000Y-51860000D03*
%TO.P,J1,10,10*%
%TO.N,Extra*%
X136130000Y-51860000D03*
%TO.P,J1,11,11*%
%TO.N,GND*%
X131940000Y-51860000D03*
%TO.P,J1,12,12*%
%TO.N,unconnected-(J1-Pad12)*%
X127750000Y-51860000D03*
%TD*%
D13*
%TO.P,Speaker2,1,Pin_1*%
%TO.N,+12V*%
X195300000Y-38080000D03*
D12*
%TO.P,Speaker2,2,Pin_2*%
%TO.N,Speaker_Out*%
X195300000Y-35080000D03*
%TD*%
D13*
%TO.P,Speaker1,1,Pin_1*%
%TO.N,+12V*%
X205800000Y-38060000D03*
D12*
%TO.P,Speaker1,2,Pin_2*%
%TO.N,Speaker_Out*%
X205800000Y-35060000D03*
%TD*%
D14*
%TO.N,RLH_SDC_IN*%
X131940000Y-45510000D02*
X133490000Y-43960000D01*
X133490000Y-43960000D02*
X175900000Y-43960000D01*
X175900000Y-43960000D02*
X184910000Y-34950000D01*
D15*
%TO.N,Red_Out*%
X132130000Y-38130000D02*
X133420000Y-39420000D01*
X133420000Y-39420000D02*
X147350000Y-39420000D01*
X147350000Y-39420000D02*
X148660000Y-38110000D01*
%TO.N,Green_Out*%
X151660000Y-38110000D02*
X150490000Y-36940000D01*
X150490000Y-36940000D02*
X136320000Y-36940000D01*
X136320000Y-36940000D02*
X135130000Y-38130000D01*
%TO.N,RLH_RML_YELLOW*%
X138130000Y-35130000D02*
X139280000Y-36280000D01*
X139280000Y-36280000D02*
X153490000Y-36280000D01*
X153490000Y-36280000D02*
X154660000Y-35110000D01*
D16*
%TO.N,CAN_L*%
X148710000Y-45510000D02*
X151719000Y-48519000D01*
X151719000Y-48519000D02*
X186201000Y-48519000D01*
X186201000Y-48519000D02*
X189210000Y-45510000D01*
%TO.N,CAN_H*%
X148710000Y-51860000D02*
X151650000Y-48920000D01*
X151650000Y-48920000D02*
X186270000Y-48920000D01*
X186270000Y-48920000D02*
X189210000Y-51860000D01*
D14*
%TO.N,DSH_SDC_IN*%
X184910000Y-37950000D02*
X187750603Y-37950000D01*
X187750603Y-37950000D02*
X197590000Y-47789397D01*
X197590000Y-47789397D02*
X197590000Y-51860000D01*
D15*
%TO.N,Speaker_Out*%
X205810000Y-35210000D02*
X211760000Y-41160000D01*
X211760000Y-41160000D02*
X211760000Y-50270000D01*
X211760000Y-50270000D02*
X210170000Y-51860000D01*
X205810000Y-35210000D02*
X195430000Y-35210000D01*
D16*
X195430000Y-35210000D02*
X195300000Y-35080000D01*
D15*
%TO.N,+12V*%
X195300000Y-38080000D02*
X195450000Y-38080000D01*
X195450000Y-38080000D02*
X195580000Y-38210000D01*
X195580000Y-38210000D02*
X205810000Y-38210000D01*
X151660000Y-35110000D02*
X153671000Y-33099000D01*
X192547349Y-33099000D02*
X194199000Y-34750651D01*
X153671000Y-33099000D02*
X192547349Y-33099000D01*
X194199000Y-34750651D02*
X194199000Y-36979000D01*
X194199000Y-36979000D02*
X195300000Y-38080000D01*
X135130000Y-35130000D02*
X137101000Y-33159000D01*
X137101000Y-33159000D02*
X146709000Y-33159000D01*
X146709000Y-33159000D02*
X148660000Y-35110000D01*
X148660000Y-35110000D02*
X151660000Y-35110000D01*
X132130000Y-35130000D02*
X135130000Y-35130000D01*
D16*
%TO.N,CAN_S*%
X145721000Y-53061000D02*
X189707471Y-53061000D01*
X144520000Y-51860000D02*
X145721000Y-53061000D01*
X189707471Y-53061000D02*
X193400000Y-49368471D01*
X193400000Y-49368471D02*
X193400000Y-45510000D01*
D14*
%TO.N,DSH_SDC_OUT*%
X199160000Y-54490000D02*
X201790000Y-51860000D01*
X140330000Y-51860000D02*
X142960000Y-54490000D01*
X142960000Y-54490000D02*
X199160000Y-54490000D01*
%TO.N,DSH_PWR*%
X140330000Y-45510000D02*
X140330000Y-49580603D01*
X144361397Y-53612000D02*
X191648000Y-53612000D01*
X191648000Y-53612000D02*
X193400000Y-51860000D01*
X140330000Y-49580603D02*
X144361397Y-53612000D01*
%TD*%
%TA.AperFunction,Conductor*%
%TO.N,GND*%
G36*
X212095859Y-31170659D02*
G01*
X212141614Y-31223463D01*
X212152820Y-31274974D01*
X212152820Y-40757776D01*
X212133135Y-40824815D01*
X212080331Y-40870570D01*
X212011173Y-40880514D01*
X211947617Y-40851489D01*
X211941139Y-40845457D01*
X206690244Y-35594562D01*
X206656759Y-35533239D01*
X206661743Y-35463547D01*
X206663329Y-35459513D01*
X206713973Y-35337251D01*
X206750500Y-35153616D01*
X206750500Y-34966384D01*
X206713973Y-34782749D01*
X206642322Y-34609769D01*
X206642321Y-34609768D01*
X206642318Y-34609762D01*
X206538302Y-34454092D01*
X206538299Y-34454088D01*
X206405911Y-34321700D01*
X206405907Y-34321697D01*
X206250237Y-34217681D01*
X206250228Y-34217676D01*
X206125530Y-34166025D01*
X206077251Y-34146027D01*
X206077243Y-34146025D01*
X205893620Y-34109500D01*
X205893616Y-34109500D01*
X205706384Y-34109500D01*
X205706379Y-34109500D01*
X205522756Y-34146025D01*
X205522748Y-34146027D01*
X205349771Y-34217676D01*
X205349762Y-34217681D01*
X205194092Y-34321697D01*
X205194088Y-34321700D01*
X205061700Y-34454088D01*
X205061697Y-34454092D01*
X204957681Y-34609762D01*
X204957676Y-34609771D01*
X204920006Y-34700716D01*
X204886028Y-34782748D01*
X204885943Y-34782953D01*
X204842102Y-34837356D01*
X204775808Y-34859421D01*
X204771382Y-34859500D01*
X203435373Y-34859500D01*
X203368334Y-34839815D01*
X203322579Y-34787011D01*
X203312635Y-34717853D01*
X203341660Y-34654297D01*
X203347692Y-34647819D01*
X203390716Y-34604794D01*
X203390719Y-34604791D01*
X203473947Y-34480232D01*
X203531275Y-34341830D01*
X203560500Y-34194903D01*
X203560500Y-34045097D01*
X203560499Y-34045092D01*
X208039500Y-34045092D01*
X208039500Y-34194907D01*
X208068723Y-34341822D01*
X208068725Y-34341830D01*
X208126051Y-34480229D01*
X208126056Y-34480238D01*
X208209280Y-34604790D01*
X208209283Y-34604794D01*
X208315205Y-34710716D01*
X208315209Y-34710719D01*
X208439761Y-34793943D01*
X208439767Y-34793946D01*
X208439768Y-34793947D01*
X208578170Y-34851275D01*
X208725092Y-34880499D01*
X208725096Y-34880500D01*
X208725097Y-34880500D01*
X208874904Y-34880500D01*
X208874905Y-34880499D01*
X209021830Y-34851275D01*
X209160232Y-34793947D01*
X209284791Y-34710719D01*
X209390719Y-34604791D01*
X209473947Y-34480232D01*
X209531275Y-34341830D01*
X209560500Y-34194903D01*
X209560500Y-34045097D01*
X209531275Y-33898170D01*
X209473947Y-33759768D01*
X209473946Y-33759767D01*
X209473943Y-33759761D01*
X209390719Y-33635209D01*
X209390716Y-33635205D01*
X209284794Y-33529283D01*
X209284790Y-33529280D01*
X209160238Y-33446056D01*
X209160229Y-33446051D01*
X209021830Y-33388725D01*
X209021822Y-33388723D01*
X208874907Y-33359500D01*
X208874903Y-33359500D01*
X208725097Y-33359500D01*
X208725092Y-33359500D01*
X208578177Y-33388723D01*
X208578169Y-33388725D01*
X208439770Y-33446051D01*
X208439761Y-33446056D01*
X208315209Y-33529280D01*
X208315205Y-33529283D01*
X208209283Y-33635205D01*
X208209280Y-33635209D01*
X208126056Y-33759761D01*
X208126051Y-33759770D01*
X208068725Y-33898169D01*
X208068723Y-33898177D01*
X208039500Y-34045092D01*
X203560499Y-34045092D01*
X203531275Y-33898170D01*
X203473947Y-33759768D01*
X203473946Y-33759767D01*
X203473943Y-33759761D01*
X203390719Y-33635209D01*
X203390716Y-33635205D01*
X203284794Y-33529283D01*
X203284790Y-33529280D01*
X203160238Y-33446056D01*
X203160229Y-33446051D01*
X203021830Y-33388725D01*
X203021822Y-33388723D01*
X202874907Y-33359500D01*
X202874903Y-33359500D01*
X202725097Y-33359500D01*
X202725092Y-33359500D01*
X202578177Y-33388723D01*
X202578169Y-33388725D01*
X202439770Y-33446051D01*
X202439761Y-33446056D01*
X202315209Y-33529280D01*
X202315205Y-33529283D01*
X202209283Y-33635205D01*
X202209280Y-33635209D01*
X202126056Y-33759761D01*
X202126051Y-33759770D01*
X202068725Y-33898169D01*
X202068723Y-33898177D01*
X202039500Y-34045092D01*
X202039500Y-34194907D01*
X202068723Y-34341822D01*
X202068725Y-34341830D01*
X202126051Y-34480229D01*
X202126056Y-34480238D01*
X202209280Y-34604790D01*
X202209283Y-34604794D01*
X202252308Y-34647819D01*
X202285793Y-34709142D01*
X202280809Y-34778834D01*
X202238937Y-34834767D01*
X202173473Y-34859184D01*
X202164627Y-34859500D01*
X198955373Y-34859500D01*
X198888334Y-34839815D01*
X198842579Y-34787011D01*
X198832635Y-34717853D01*
X198861660Y-34654297D01*
X198867692Y-34647819D01*
X198890716Y-34624794D01*
X198890719Y-34624791D01*
X198973947Y-34500232D01*
X199031275Y-34361830D01*
X199060500Y-34214903D01*
X199060500Y-34065097D01*
X199031275Y-33918170D01*
X198973947Y-33779768D01*
X198973946Y-33779767D01*
X198973943Y-33779761D01*
X198890719Y-33655209D01*
X198890716Y-33655205D01*
X198784794Y-33549283D01*
X198784790Y-33549280D01*
X198660238Y-33466056D01*
X198660229Y-33466051D01*
X198521830Y-33408725D01*
X198521822Y-33408723D01*
X198374907Y-33379500D01*
X198374903Y-33379500D01*
X198225097Y-33379500D01*
X198225092Y-33379500D01*
X198078177Y-33408723D01*
X198078169Y-33408725D01*
X197939770Y-33466051D01*
X197939761Y-33466056D01*
X197815209Y-33549280D01*
X197815205Y-33549283D01*
X197709283Y-33655205D01*
X197709280Y-33655209D01*
X197626056Y-33779761D01*
X197626051Y-33779770D01*
X197568725Y-33918169D01*
X197568723Y-33918177D01*
X197539500Y-34065092D01*
X197539500Y-34214907D01*
X197568723Y-34361822D01*
X197568725Y-34361830D01*
X197626051Y-34500229D01*
X197626056Y-34500238D01*
X197709280Y-34624790D01*
X197709283Y-34624794D01*
X197732308Y-34647819D01*
X197765793Y-34709142D01*
X197760809Y-34778834D01*
X197718937Y-34834767D01*
X197653473Y-34859184D01*
X197644627Y-34859500D01*
X196320334Y-34859500D01*
X196253295Y-34839815D01*
X196207540Y-34787011D01*
X196205773Y-34782953D01*
X196205691Y-34782756D01*
X196154749Y-34659771D01*
X196142323Y-34629771D01*
X196142318Y-34629762D01*
X196038302Y-34474092D01*
X196038299Y-34474088D01*
X195905911Y-34341700D01*
X195905907Y-34341697D01*
X195750237Y-34237681D01*
X195750228Y-34237676D01*
X195577251Y-34166027D01*
X195577243Y-34166025D01*
X195393620Y-34129500D01*
X195393616Y-34129500D01*
X195206384Y-34129500D01*
X195206379Y-34129500D01*
X195022756Y-34166025D01*
X195022748Y-34166027D01*
X194849771Y-34237676D01*
X194849762Y-34237681D01*
X194694092Y-34341697D01*
X194577590Y-34458199D01*
X194516267Y-34491683D01*
X194446575Y-34486699D01*
X194402228Y-34458198D01*
X193586421Y-33642391D01*
X192762561Y-32818530D01*
X192762560Y-32818529D01*
X192762557Y-32818527D01*
X192682639Y-32772387D01*
X192682638Y-32772386D01*
X192682637Y-32772386D01*
X192593493Y-32748500D01*
X153624856Y-32748500D01*
X153535711Y-32772386D01*
X153455787Y-32818531D01*
X153455784Y-32818533D01*
X152095567Y-34178749D01*
X152034244Y-34212234D01*
X151964552Y-34207250D01*
X151960436Y-34205630D01*
X151937252Y-34196027D01*
X151937243Y-34196024D01*
X151753620Y-34159500D01*
X151753616Y-34159500D01*
X151566384Y-34159500D01*
X151566379Y-34159500D01*
X151382756Y-34196025D01*
X151382748Y-34196027D01*
X151209771Y-34267676D01*
X151209762Y-34267681D01*
X151054092Y-34371697D01*
X151054088Y-34371700D01*
X150921700Y-34504088D01*
X150921697Y-34504092D01*
X150817681Y-34659762D01*
X150817679Y-34659766D01*
X150817678Y-34659769D01*
X150808074Y-34682953D01*
X150764235Y-34737356D01*
X150697941Y-34759421D01*
X150693514Y-34759500D01*
X149626486Y-34759500D01*
X149559447Y-34739815D01*
X149513692Y-34687011D01*
X149511938Y-34682986D01*
X149502322Y-34659769D01*
X149502320Y-34659766D01*
X149502318Y-34659762D01*
X149398302Y-34504092D01*
X149398299Y-34504088D01*
X149265911Y-34371700D01*
X149265907Y-34371697D01*
X149110237Y-34267681D01*
X149110228Y-34267676D01*
X148937251Y-34196027D01*
X148937243Y-34196025D01*
X148753620Y-34159500D01*
X148753616Y-34159500D01*
X148566384Y-34159500D01*
X148566379Y-34159500D01*
X148382751Y-34196025D01*
X148382743Y-34196028D01*
X148359562Y-34205630D01*
X148290093Y-34213097D01*
X148227614Y-34181821D01*
X148224431Y-34178749D01*
X146924213Y-32878531D01*
X146924208Y-32878527D01*
X146844290Y-32832387D01*
X146844289Y-32832386D01*
X146844288Y-32832386D01*
X146755144Y-32808500D01*
X137054856Y-32808500D01*
X136965712Y-32832386D01*
X136965709Y-32832387D01*
X136885791Y-32878527D01*
X136885786Y-32878531D01*
X135565567Y-34198749D01*
X135504244Y-34232234D01*
X135434552Y-34227250D01*
X135430436Y-34225630D01*
X135407252Y-34216027D01*
X135407243Y-34216024D01*
X135223620Y-34179500D01*
X135223616Y-34179500D01*
X135036384Y-34179500D01*
X135036379Y-34179500D01*
X134852756Y-34216025D01*
X134852748Y-34216027D01*
X134679771Y-34287676D01*
X134679762Y-34287681D01*
X134524092Y-34391697D01*
X134524088Y-34391700D01*
X134391700Y-34524088D01*
X134391697Y-34524092D01*
X134287681Y-34679762D01*
X134287679Y-34679766D01*
X134285280Y-34685558D01*
X134278074Y-34702953D01*
X134234235Y-34757356D01*
X134167941Y-34779421D01*
X134163514Y-34779500D01*
X133096486Y-34779500D01*
X133029447Y-34759815D01*
X132983692Y-34707011D01*
X132981938Y-34702986D01*
X132972322Y-34679769D01*
X132972320Y-34679766D01*
X132972318Y-34679762D01*
X132868302Y-34524092D01*
X132868299Y-34524088D01*
X132735911Y-34391700D01*
X132735907Y-34391697D01*
X132580237Y-34287681D01*
X132580228Y-34287676D01*
X132407251Y-34216027D01*
X132407243Y-34216025D01*
X132223620Y-34179500D01*
X132223616Y-34179500D01*
X132036384Y-34179500D01*
X132036379Y-34179500D01*
X131852756Y-34216025D01*
X131852748Y-34216027D01*
X131679771Y-34287676D01*
X131679762Y-34287681D01*
X131524092Y-34391697D01*
X131524088Y-34391700D01*
X131391700Y-34524088D01*
X131391697Y-34524092D01*
X131287681Y-34679762D01*
X131287676Y-34679771D01*
X131216027Y-34852748D01*
X131216025Y-34852756D01*
X131179500Y-35036379D01*
X131179500Y-35223620D01*
X131216025Y-35407243D01*
X131216027Y-35407251D01*
X131287676Y-35580228D01*
X131287681Y-35580237D01*
X131391697Y-35735907D01*
X131391700Y-35735911D01*
X131524088Y-35868299D01*
X131524092Y-35868302D01*
X131679762Y-35972318D01*
X131679771Y-35972323D01*
X131683757Y-35973974D01*
X131852749Y-36043973D01*
X132036379Y-36080499D01*
X132036383Y-36080500D01*
X132036384Y-36080500D01*
X132223617Y-36080500D01*
X132223618Y-36080499D01*
X132407251Y-36043973D01*
X132580231Y-35972322D01*
X132735908Y-35868302D01*
X132868302Y-35735908D01*
X132972322Y-35580231D01*
X132981925Y-35557046D01*
X133025765Y-35502644D01*
X133092059Y-35480579D01*
X133096486Y-35480500D01*
X134163514Y-35480500D01*
X134230553Y-35500185D01*
X134276308Y-35552989D01*
X134278061Y-35557013D01*
X134287659Y-35580185D01*
X134287679Y-35580233D01*
X134287681Y-35580237D01*
X134391697Y-35735907D01*
X134391700Y-35735911D01*
X134524088Y-35868299D01*
X134524092Y-35868302D01*
X134679762Y-35972318D01*
X134679771Y-35972323D01*
X134683757Y-35973974D01*
X134852749Y-36043973D01*
X135036379Y-36080499D01*
X135036383Y-36080500D01*
X135036384Y-36080500D01*
X135223617Y-36080500D01*
X135223618Y-36080499D01*
X135407251Y-36043973D01*
X135580231Y-35972322D01*
X135735908Y-35868302D01*
X135868302Y-35735908D01*
X135972322Y-35580231D01*
X136043973Y-35407251D01*
X136080500Y-35223616D01*
X136080500Y-35036384D01*
X136043973Y-34852749D01*
X136034369Y-34829564D01*
X136026900Y-34760098D01*
X136058173Y-34697618D01*
X136061219Y-34694461D01*
X137209863Y-33545819D01*
X137271186Y-33512334D01*
X137297544Y-33509500D01*
X140438062Y-33509500D01*
X140505101Y-33529185D01*
X140550856Y-33581989D01*
X140560800Y-33651147D01*
X140541164Y-33702391D01*
X140456056Y-33829762D01*
X140456051Y-33829770D01*
X140398725Y-33968169D01*
X140398723Y-33968177D01*
X140369500Y-34115092D01*
X140369500Y-34264907D01*
X140398723Y-34411822D01*
X140398725Y-34411830D01*
X140456051Y-34550229D01*
X140456056Y-34550238D01*
X140539280Y-34674790D01*
X140539283Y-34674794D01*
X140645205Y-34780716D01*
X140645209Y-34780719D01*
X140769761Y-34863943D01*
X140769767Y-34863946D01*
X140769768Y-34863947D01*
X140908170Y-34921275D01*
X141055092Y-34950499D01*
X141055096Y-34950500D01*
X141055097Y-34950500D01*
X141204904Y-34950500D01*
X141204905Y-34950499D01*
X141351830Y-34921275D01*
X141490232Y-34863947D01*
X141614791Y-34780719D01*
X141720719Y-34674791D01*
X141803947Y-34550232D01*
X141861275Y-34411830D01*
X141890500Y-34264903D01*
X141890500Y-34115097D01*
X141861275Y-33968170D01*
X141803947Y-33829768D01*
X141720719Y-33705209D01*
X141720718Y-33705208D01*
X141718836Y-33702391D01*
X141697958Y-33635714D01*
X141716442Y-33568334D01*
X141768421Y-33521643D01*
X141821938Y-33509500D01*
X144954698Y-33509500D01*
X145021737Y-33529185D01*
X145067492Y-33581989D01*
X145077436Y-33651147D01*
X145057800Y-33702391D01*
X144986056Y-33809761D01*
X144986051Y-33809770D01*
X144928725Y-33948169D01*
X144928723Y-33948177D01*
X144899500Y-34095092D01*
X144899500Y-34244907D01*
X144928723Y-34391822D01*
X144928725Y-34391830D01*
X144986051Y-34530229D01*
X144986056Y-34530238D01*
X145069280Y-34654790D01*
X145069283Y-34654794D01*
X145175205Y-34760716D01*
X145175209Y-34760719D01*
X145299761Y-34843943D01*
X145299767Y-34843946D01*
X145299768Y-34843947D01*
X145438170Y-34901275D01*
X145585092Y-34930499D01*
X145585096Y-34930500D01*
X145585097Y-34930500D01*
X145734904Y-34930500D01*
X145734905Y-34930499D01*
X145881830Y-34901275D01*
X146020232Y-34843947D01*
X146144791Y-34760719D01*
X146250719Y-34654791D01*
X146333947Y-34530232D01*
X146391275Y-34391830D01*
X146420500Y-34244903D01*
X146420500Y-34095097D01*
X146391275Y-33948170D01*
X146333947Y-33809768D01*
X146333946Y-33809767D01*
X146333943Y-33809761D01*
X146262200Y-33702391D01*
X146259162Y-33692690D01*
X146252508Y-33685011D01*
X146248899Y-33659913D01*
X146241322Y-33635714D01*
X146244010Y-33625913D01*
X146242564Y-33615853D01*
X146253098Y-33592786D01*
X146259806Y-33568334D01*
X146267366Y-33561542D01*
X146271589Y-33552297D01*
X146292921Y-33538587D01*
X146311785Y-33521643D01*
X146323382Y-33519011D01*
X146330367Y-33514523D01*
X146365302Y-33509500D01*
X146512456Y-33509500D01*
X146579495Y-33529185D01*
X146600137Y-33545819D01*
X147728749Y-34674431D01*
X147762234Y-34735754D01*
X147757250Y-34805446D01*
X147755630Y-34809562D01*
X147746028Y-34832743D01*
X147746025Y-34832751D01*
X147709500Y-35016379D01*
X147709500Y-35203620D01*
X147746025Y-35387243D01*
X147746027Y-35387251D01*
X147817676Y-35560228D01*
X147817681Y-35560237D01*
X147921697Y-35715907D01*
X147921700Y-35715911D01*
X147923608Y-35717819D01*
X147924288Y-35719064D01*
X147925563Y-35720618D01*
X147925268Y-35720859D01*
X147957093Y-35779142D01*
X147952109Y-35848834D01*
X147910237Y-35904767D01*
X147844773Y-35929184D01*
X147835927Y-35929500D01*
X139476544Y-35929500D01*
X139409505Y-35909815D01*
X139388863Y-35893181D01*
X139061250Y-35565568D01*
X139027765Y-35504245D01*
X139032749Y-35434553D01*
X139034370Y-35430434D01*
X139043973Y-35407251D01*
X139080500Y-35223616D01*
X139080500Y-35036384D01*
X139043973Y-34852749D01*
X138975322Y-34687011D01*
X138972323Y-34679771D01*
X138972318Y-34679762D01*
X138868302Y-34524092D01*
X138868299Y-34524088D01*
X138735911Y-34391700D01*
X138735907Y-34391697D01*
X138580237Y-34287681D01*
X138580228Y-34287676D01*
X138407251Y-34216027D01*
X138407243Y-34216025D01*
X138223620Y-34179500D01*
X138223616Y-34179500D01*
X138036384Y-34179500D01*
X138036379Y-34179500D01*
X137852756Y-34216025D01*
X137852748Y-34216027D01*
X137679771Y-34287676D01*
X137679762Y-34287681D01*
X137524092Y-34391697D01*
X137524088Y-34391700D01*
X137391700Y-34524088D01*
X137391697Y-34524092D01*
X137287681Y-34679762D01*
X137287676Y-34679771D01*
X137216027Y-34852748D01*
X137216025Y-34852756D01*
X137179500Y-35036379D01*
X137179500Y-35223620D01*
X137216025Y-35407243D01*
X137216027Y-35407251D01*
X137287676Y-35580228D01*
X137287681Y-35580237D01*
X137391697Y-35735907D01*
X137391700Y-35735911D01*
X137524088Y-35868299D01*
X137524092Y-35868302D01*
X137679762Y-35972318D01*
X137679771Y-35972323D01*
X137683757Y-35973974D01*
X137852749Y-36043973D01*
X138036379Y-36080499D01*
X138036383Y-36080500D01*
X138036384Y-36080500D01*
X138223617Y-36080500D01*
X138223618Y-36080499D01*
X138407251Y-36043973D01*
X138430434Y-36034369D01*
X138499903Y-36026901D01*
X138562383Y-36058176D01*
X138565568Y-36061250D01*
X138882137Y-36377819D01*
X138915622Y-36439142D01*
X138910638Y-36508834D01*
X138868766Y-36564767D01*
X138803302Y-36589184D01*
X138794456Y-36589500D01*
X136273856Y-36589500D01*
X136184712Y-36613386D01*
X136184709Y-36613387D01*
X136104791Y-36659527D01*
X136104786Y-36659531D01*
X135565567Y-37198749D01*
X135504244Y-37232234D01*
X135434552Y-37227250D01*
X135430436Y-37225630D01*
X135407252Y-37216027D01*
X135407243Y-37216024D01*
X135223620Y-37179500D01*
X135223616Y-37179500D01*
X135036384Y-37179500D01*
X135036379Y-37179500D01*
X134852756Y-37216025D01*
X134852748Y-37216027D01*
X134679771Y-37287676D01*
X134679762Y-37287681D01*
X134524092Y-37391697D01*
X134524088Y-37391700D01*
X134391700Y-37524088D01*
X134391697Y-37524092D01*
X134287681Y-37679762D01*
X134287676Y-37679771D01*
X134216027Y-37852748D01*
X134216025Y-37852756D01*
X134179500Y-38036379D01*
X134179500Y-38223620D01*
X134216025Y-38407243D01*
X134216027Y-38407251D01*
X134287676Y-38580228D01*
X134287681Y-38580237D01*
X134391697Y-38735907D01*
X134391700Y-38735911D01*
X134513608Y-38857819D01*
X134547093Y-38919142D01*
X134542109Y-38988834D01*
X134500237Y-39044767D01*
X134434773Y-39069184D01*
X134425927Y-39069500D01*
X133616544Y-39069500D01*
X133549505Y-39049815D01*
X133528863Y-39033181D01*
X133061250Y-38565568D01*
X133027765Y-38504245D01*
X133032749Y-38434553D01*
X133034370Y-38430434D01*
X133043973Y-38407251D01*
X133080500Y-38223616D01*
X133080500Y-38036384D01*
X133043973Y-37852749D01*
X132972322Y-37679769D01*
X132972321Y-37679768D01*
X132972318Y-37679762D01*
X132868302Y-37524092D01*
X132868299Y-37524088D01*
X132735911Y-37391700D01*
X132735907Y-37391697D01*
X132580237Y-37287681D01*
X132580228Y-37287676D01*
X132407251Y-37216027D01*
X132407243Y-37216025D01*
X132223620Y-37179500D01*
X132223616Y-37179500D01*
X132036384Y-37179500D01*
X132036379Y-37179500D01*
X131852756Y-37216025D01*
X131852748Y-37216027D01*
X131679771Y-37287676D01*
X131679762Y-37287681D01*
X131524092Y-37391697D01*
X131524088Y-37391700D01*
X131391700Y-37524088D01*
X131391697Y-37524092D01*
X131287681Y-37679762D01*
X131287676Y-37679771D01*
X131216027Y-37852748D01*
X131216025Y-37852756D01*
X131179500Y-38036379D01*
X131179500Y-38223620D01*
X131216025Y-38407243D01*
X131216027Y-38407251D01*
X131287676Y-38580228D01*
X131287681Y-38580237D01*
X131391697Y-38735907D01*
X131391700Y-38735911D01*
X131524088Y-38868299D01*
X131524092Y-38868302D01*
X131679762Y-38972318D01*
X131679771Y-38972323D01*
X131704734Y-38982663D01*
X131852749Y-39043973D01*
X131981083Y-39069500D01*
X132036379Y-39080499D01*
X132036383Y-39080500D01*
X132036384Y-39080500D01*
X132223617Y-39080500D01*
X132223618Y-39080499D01*
X132407251Y-39043973D01*
X132430434Y-39034369D01*
X132499903Y-39026901D01*
X132562383Y-39058176D01*
X132565568Y-39061250D01*
X133204787Y-39700469D01*
X133284712Y-39746614D01*
X133373856Y-39770500D01*
X133373858Y-39770500D01*
X147396142Y-39770500D01*
X147396144Y-39770500D01*
X147485288Y-39746614D01*
X147565212Y-39700470D01*
X148224433Y-39041247D01*
X148285754Y-39007764D01*
X148355445Y-39012748D01*
X148359533Y-39014356D01*
X148382749Y-39023973D01*
X148566379Y-39060499D01*
X148566383Y-39060500D01*
X148566384Y-39060500D01*
X148753617Y-39060500D01*
X148753618Y-39060499D01*
X148937251Y-39023973D01*
X149110231Y-38952322D01*
X149265908Y-38848302D01*
X149398302Y-38715908D01*
X149502322Y-38560231D01*
X149573973Y-38387251D01*
X149610500Y-38203616D01*
X149610500Y-38016384D01*
X149573973Y-37832749D01*
X149510603Y-37679762D01*
X149502323Y-37659771D01*
X149502318Y-37659762D01*
X149398302Y-37504092D01*
X149398299Y-37504088D01*
X149396392Y-37502181D01*
X149395711Y-37500935D01*
X149394437Y-37499382D01*
X149394731Y-37499140D01*
X149362907Y-37440858D01*
X149367891Y-37371166D01*
X149409763Y-37315233D01*
X149475227Y-37290816D01*
X149484073Y-37290500D01*
X150293456Y-37290500D01*
X150360495Y-37310185D01*
X150381137Y-37326819D01*
X150728749Y-37674431D01*
X150762234Y-37735754D01*
X150757250Y-37805446D01*
X150755630Y-37809562D01*
X150746028Y-37832743D01*
X150746025Y-37832751D01*
X150709500Y-38016379D01*
X150709500Y-38203620D01*
X150746025Y-38387243D01*
X150746027Y-38387251D01*
X150817676Y-38560228D01*
X150817681Y-38560237D01*
X150921697Y-38715907D01*
X150921700Y-38715911D01*
X151054088Y-38848299D01*
X151054092Y-38848302D01*
X151209762Y-38952318D01*
X151209768Y-38952321D01*
X151209769Y-38952322D01*
X151382749Y-39023973D01*
X151566379Y-39060499D01*
X151566383Y-39060500D01*
X151566384Y-39060500D01*
X151753617Y-39060500D01*
X151753618Y-39060499D01*
X151937251Y-39023973D01*
X152110231Y-38952322D01*
X152265908Y-38848302D01*
X152398302Y-38715908D01*
X152502322Y-38560231D01*
X152573973Y-38387251D01*
X152610500Y-38203616D01*
X152610500Y-38016384D01*
X152573973Y-37832749D01*
X152510603Y-37679762D01*
X152502323Y-37659771D01*
X152502318Y-37659762D01*
X152479596Y-37625756D01*
X152435668Y-37560014D01*
X153410000Y-37560014D01*
X153410000Y-37860000D01*
X154215440Y-37860000D01*
X154184755Y-37913147D01*
X154150000Y-38042857D01*
X154150000Y-38177143D01*
X154184755Y-38306853D01*
X154215440Y-38360000D01*
X153410000Y-38360000D01*
X153410000Y-38659985D01*
X153420493Y-38762689D01*
X153420494Y-38762696D01*
X153475641Y-38929118D01*
X153475643Y-38929123D01*
X153567684Y-39078344D01*
X153691655Y-39202315D01*
X153840876Y-39294356D01*
X153840881Y-39294358D01*
X154007303Y-39349505D01*
X154007310Y-39349506D01*
X154110014Y-39359999D01*
X154110027Y-39360000D01*
X154410000Y-39360000D01*
X154410000Y-38554560D01*
X154463147Y-38585245D01*
X154592857Y-38620000D01*
X154727143Y-38620000D01*
X154856853Y-38585245D01*
X154910000Y-38554560D01*
X154910000Y-39360000D01*
X155209973Y-39360000D01*
X155209985Y-39359999D01*
X155312689Y-39349506D01*
X155312696Y-39349505D01*
X155479118Y-39294358D01*
X155479123Y-39294356D01*
X155628344Y-39202315D01*
X155752315Y-39078344D01*
X155844356Y-38929123D01*
X155844358Y-38929118D01*
X155899505Y-38762696D01*
X155899506Y-38762689D01*
X155909999Y-38659985D01*
X155910000Y-38659972D01*
X155910000Y-38360000D01*
X155104560Y-38360000D01*
X155135245Y-38306853D01*
X155170000Y-38177143D01*
X155170000Y-38042857D01*
X155135245Y-37913147D01*
X155104560Y-37860000D01*
X155910000Y-37860000D01*
X155910000Y-37560027D01*
X155909999Y-37560014D01*
X155899506Y-37457310D01*
X155899505Y-37457303D01*
X155844358Y-37290881D01*
X155844356Y-37290876D01*
X155752315Y-37141655D01*
X155628344Y-37017684D01*
X155479123Y-36925643D01*
X155479118Y-36925641D01*
X155312696Y-36870494D01*
X155312689Y-36870493D01*
X155209985Y-36860000D01*
X154910000Y-36860000D01*
X154910000Y-37665439D01*
X154856853Y-37634755D01*
X154727143Y-37600000D01*
X154592857Y-37600000D01*
X154463147Y-37634755D01*
X154410000Y-37665439D01*
X154410000Y-36860000D01*
X154110014Y-36860000D01*
X154007310Y-36870493D01*
X154007303Y-36870494D01*
X153840881Y-36925641D01*
X153840876Y-36925643D01*
X153691655Y-37017684D01*
X153567684Y-37141655D01*
X153475643Y-37290876D01*
X153475641Y-37290881D01*
X153420494Y-37457303D01*
X153420493Y-37457310D01*
X153410000Y-37560014D01*
X152435668Y-37560014D01*
X152398302Y-37504092D01*
X152398299Y-37504088D01*
X152265911Y-37371700D01*
X152265907Y-37371697D01*
X152110237Y-37267681D01*
X152110228Y-37267676D01*
X151937251Y-37196027D01*
X151937243Y-37196025D01*
X151753620Y-37159500D01*
X151753616Y-37159500D01*
X151566384Y-37159500D01*
X151566379Y-37159500D01*
X151382751Y-37196025D01*
X151382743Y-37196028D01*
X151359562Y-37205630D01*
X151290093Y-37213097D01*
X151227614Y-37181821D01*
X151224431Y-37178749D01*
X150887863Y-36842181D01*
X150854378Y-36780858D01*
X150859362Y-36711166D01*
X150901234Y-36655233D01*
X150966698Y-36630816D01*
X150975544Y-36630500D01*
X153536142Y-36630500D01*
X153536144Y-36630500D01*
X153625288Y-36606614D01*
X153705212Y-36560470D01*
X154224433Y-36041247D01*
X154285754Y-36007764D01*
X154355445Y-36012748D01*
X154359533Y-36014356D01*
X154382749Y-36023973D01*
X154566379Y-36060499D01*
X154566383Y-36060500D01*
X154566384Y-36060500D01*
X154753617Y-36060500D01*
X154753618Y-36060499D01*
X154937251Y-36023973D01*
X155110231Y-35952322D01*
X155265908Y-35848302D01*
X155398302Y-35715908D01*
X155502322Y-35560231D01*
X155573973Y-35387251D01*
X155610500Y-35203616D01*
X155610500Y-35016384D01*
X155573973Y-34832749D01*
X155502322Y-34659769D01*
X155502320Y-34659766D01*
X155502318Y-34659762D01*
X155398302Y-34504092D01*
X155398299Y-34504088D01*
X155265911Y-34371700D01*
X155265907Y-34371697D01*
X155110237Y-34267681D01*
X155110228Y-34267676D01*
X154937251Y-34196027D01*
X154937243Y-34196025D01*
X154753620Y-34159500D01*
X154753616Y-34159500D01*
X154566384Y-34159500D01*
X154566379Y-34159500D01*
X154382756Y-34196025D01*
X154382748Y-34196027D01*
X154209771Y-34267676D01*
X154209762Y-34267681D01*
X154054092Y-34371697D01*
X154054088Y-34371700D01*
X153921700Y-34504088D01*
X153921697Y-34504092D01*
X153817681Y-34659762D01*
X153817676Y-34659771D01*
X153746027Y-34832748D01*
X153746025Y-34832756D01*
X153709500Y-35016379D01*
X153709500Y-35203620D01*
X153746024Y-35387243D01*
X153746027Y-35387252D01*
X153755630Y-35410436D01*
X153763097Y-35479906D01*
X153731821Y-35542384D01*
X153728749Y-35545567D01*
X153381137Y-35893181D01*
X153319814Y-35926666D01*
X153293456Y-35929500D01*
X152484073Y-35929500D01*
X152417034Y-35909815D01*
X152371279Y-35857011D01*
X152361335Y-35787853D01*
X152390360Y-35724297D01*
X152396392Y-35717819D01*
X152398299Y-35715911D01*
X152398302Y-35715908D01*
X152502322Y-35560231D01*
X152573973Y-35387251D01*
X152610500Y-35203616D01*
X152610500Y-35016384D01*
X152573973Y-34832749D01*
X152564369Y-34809562D01*
X152556900Y-34740098D01*
X152588173Y-34677618D01*
X152591220Y-34674461D01*
X153779863Y-33485819D01*
X153841186Y-33452334D01*
X153867544Y-33449500D01*
X157005627Y-33449500D01*
X157072666Y-33469185D01*
X157118421Y-33521989D01*
X157128365Y-33591147D01*
X157099340Y-33654703D01*
X157093308Y-33661181D01*
X157069283Y-33685205D01*
X157069280Y-33685209D01*
X156986056Y-33809761D01*
X156986051Y-33809770D01*
X156928725Y-33948169D01*
X156928723Y-33948177D01*
X156899500Y-34095092D01*
X156899500Y-34244907D01*
X156928723Y-34391822D01*
X156928725Y-34391830D01*
X156986051Y-34530229D01*
X156986056Y-34530238D01*
X157069280Y-34654790D01*
X157069283Y-34654794D01*
X157175205Y-34760716D01*
X157175209Y-34760719D01*
X157299761Y-34843943D01*
X157299767Y-34843946D01*
X157299768Y-34843947D01*
X157438170Y-34901275D01*
X157585092Y-34930499D01*
X157585096Y-34930500D01*
X157585097Y-34930500D01*
X157734904Y-34930500D01*
X157734905Y-34930499D01*
X157881830Y-34901275D01*
X158020232Y-34843947D01*
X158144791Y-34760719D01*
X158250719Y-34654791D01*
X158333947Y-34530232D01*
X158391275Y-34391830D01*
X158420500Y-34244903D01*
X158420500Y-34095097D01*
X158391275Y-33948170D01*
X158333947Y-33809768D01*
X158333946Y-33809767D01*
X158333943Y-33809761D01*
X158250719Y-33685209D01*
X158250716Y-33685205D01*
X158226692Y-33661181D01*
X158193207Y-33599858D01*
X158198191Y-33530166D01*
X158240063Y-33474233D01*
X158305527Y-33449816D01*
X158314373Y-33449500D01*
X181194698Y-33449500D01*
X181261737Y-33469185D01*
X181307492Y-33521989D01*
X181317436Y-33591147D01*
X181297800Y-33642391D01*
X181226056Y-33749761D01*
X181226051Y-33749770D01*
X181168725Y-33888169D01*
X181168723Y-33888177D01*
X181139500Y-34035092D01*
X181139500Y-34184907D01*
X181168723Y-34331822D01*
X181168725Y-34331830D01*
X181226051Y-34470229D01*
X181226056Y-34470238D01*
X181309280Y-34594790D01*
X181309283Y-34594794D01*
X181415205Y-34700716D01*
X181415209Y-34700719D01*
X181539761Y-34783943D01*
X181539770Y-34783948D01*
X181571123Y-34796934D01*
X181678170Y-34841275D01*
X181825092Y-34870499D01*
X181825096Y-34870500D01*
X181825097Y-34870500D01*
X181974904Y-34870500D01*
X181974905Y-34870499D01*
X182121830Y-34841275D01*
X182260232Y-34783947D01*
X182384791Y-34700719D01*
X182490719Y-34594791D01*
X182573947Y-34470232D01*
X182631275Y-34331830D01*
X182660500Y-34184903D01*
X182660500Y-34035097D01*
X182631275Y-33888170D01*
X182573947Y-33749768D01*
X182573946Y-33749767D01*
X182573943Y-33749761D01*
X182502200Y-33642391D01*
X182481322Y-33575714D01*
X182499806Y-33508334D01*
X182551785Y-33461643D01*
X182605302Y-33449500D01*
X187194698Y-33449500D01*
X187261737Y-33469185D01*
X187307492Y-33521989D01*
X187317436Y-33591147D01*
X187297800Y-33642391D01*
X187226056Y-33749761D01*
X187226051Y-33749770D01*
X187168725Y-33888169D01*
X187168723Y-33888177D01*
X187139500Y-34035092D01*
X187139500Y-34184907D01*
X187168723Y-34331822D01*
X187168725Y-34331830D01*
X187226051Y-34470229D01*
X187226056Y-34470238D01*
X187309280Y-34594790D01*
X187309283Y-34594794D01*
X187415205Y-34700716D01*
X187415209Y-34700719D01*
X187539761Y-34783943D01*
X187539770Y-34783948D01*
X187571123Y-34796934D01*
X187678170Y-34841275D01*
X187825092Y-34870499D01*
X187825096Y-34870500D01*
X187825097Y-34870500D01*
X187974904Y-34870500D01*
X187974905Y-34870499D01*
X188121830Y-34841275D01*
X188260232Y-34783947D01*
X188384791Y-34700719D01*
X188490719Y-34594791D01*
X188573947Y-34470232D01*
X188631275Y-34331830D01*
X188660500Y-34184903D01*
X188660500Y-34035097D01*
X188631275Y-33888170D01*
X188573947Y-33749768D01*
X188573946Y-33749767D01*
X188573943Y-33749761D01*
X188502200Y-33642391D01*
X188481322Y-33575714D01*
X188499806Y-33508334D01*
X188551785Y-33461643D01*
X188605302Y-33449500D01*
X191615926Y-33449500D01*
X191682965Y-33469185D01*
X191728720Y-33521989D01*
X191738664Y-33591147D01*
X191711778Y-33652167D01*
X191709277Y-33655213D01*
X191626056Y-33779761D01*
X191626051Y-33779770D01*
X191568725Y-33918169D01*
X191568723Y-33918177D01*
X191539500Y-34065092D01*
X191539500Y-34214907D01*
X191568723Y-34361822D01*
X191568725Y-34361830D01*
X191626051Y-34500229D01*
X191626056Y-34500238D01*
X191709280Y-34624790D01*
X191709283Y-34624794D01*
X191815205Y-34730716D01*
X191815209Y-34730719D01*
X191939761Y-34813943D01*
X191939767Y-34813946D01*
X191939768Y-34813947D01*
X192078170Y-34871275D01*
X192201629Y-34895832D01*
X192225092Y-34900499D01*
X192225096Y-34900500D01*
X192225097Y-34900500D01*
X192374904Y-34900500D01*
X192374905Y-34900499D01*
X192521830Y-34871275D01*
X192660232Y-34813947D01*
X192784791Y-34730719D01*
X192890719Y-34624791D01*
X192973947Y-34500232D01*
X193031275Y-34361830D01*
X193033005Y-34353128D01*
X193065386Y-34291220D01*
X193126100Y-34256642D01*
X193195870Y-34260378D01*
X193242304Y-34289636D01*
X193812181Y-34859513D01*
X193845666Y-34920836D01*
X193848500Y-34947194D01*
X193848500Y-37025143D01*
X193861936Y-37075287D01*
X193872386Y-37114289D01*
X193872387Y-37114290D01*
X193918527Y-37194208D01*
X193918531Y-37194213D01*
X194313181Y-37588863D01*
X194346666Y-37650186D01*
X194349500Y-37676544D01*
X194349500Y-38634258D01*
X194352354Y-38664698D01*
X194352354Y-38664699D01*
X194397206Y-38792881D01*
X194397207Y-38792882D01*
X194477850Y-38902150D01*
X194587118Y-38982793D01*
X194715302Y-39027646D01*
X194715301Y-39027646D01*
X194719271Y-39028018D01*
X194745735Y-39030500D01*
X195854264Y-39030499D01*
X195884698Y-39027646D01*
X196012882Y-38982793D01*
X196122150Y-38902150D01*
X196202793Y-38792882D01*
X196247646Y-38664698D01*
X196247646Y-38664689D01*
X196249099Y-38658045D01*
X196282633Y-38596749D01*
X196343983Y-38563313D01*
X196370244Y-38560500D01*
X204734909Y-38560500D01*
X204801948Y-38580185D01*
X204847703Y-38632989D01*
X204851951Y-38643546D01*
X204897206Y-38772881D01*
X204897207Y-38772882D01*
X204977850Y-38882150D01*
X205087118Y-38962793D01*
X205215302Y-39007646D01*
X205215301Y-39007646D01*
X205216560Y-39007764D01*
X205245735Y-39010500D01*
X206354264Y-39010499D01*
X206384698Y-39007646D01*
X206512882Y-38962793D01*
X206622150Y-38882150D01*
X206702793Y-38772882D01*
X206747646Y-38644698D01*
X206750500Y-38614265D01*
X206750499Y-37505736D01*
X206747646Y-37475302D01*
X206702793Y-37347118D01*
X206622150Y-37237850D01*
X206512882Y-37157207D01*
X206512881Y-37157206D01*
X206384695Y-37112353D01*
X206384698Y-37112353D01*
X206354268Y-37109500D01*
X205245741Y-37109500D01*
X205215301Y-37112354D01*
X205215300Y-37112354D01*
X205087118Y-37157206D01*
X204977850Y-37237850D01*
X204897206Y-37347118D01*
X204852353Y-37475302D01*
X204849500Y-37505731D01*
X204849500Y-37735500D01*
X204829815Y-37802539D01*
X204777011Y-37848294D01*
X204725500Y-37859500D01*
X196374499Y-37859500D01*
X196307460Y-37839815D01*
X196261705Y-37787011D01*
X196250499Y-37735500D01*
X196250499Y-37525741D01*
X196250499Y-37525736D01*
X196247646Y-37495302D01*
X196202793Y-37367118D01*
X196122150Y-37257850D01*
X196038380Y-37196025D01*
X196012881Y-37177206D01*
X195884695Y-37132353D01*
X195884698Y-37132353D01*
X195854269Y-37129500D01*
X195854265Y-37129500D01*
X194896544Y-37129500D01*
X194829505Y-37109815D01*
X194808863Y-37093181D01*
X194585819Y-36870137D01*
X194552334Y-36808814D01*
X194549500Y-36782456D01*
X194549500Y-35953676D01*
X194569185Y-35886637D01*
X194621989Y-35840882D01*
X194691147Y-35830938D01*
X194742389Y-35850573D01*
X194849769Y-35922322D01*
X195022749Y-35993973D01*
X195206379Y-36030499D01*
X195206383Y-36030500D01*
X195206384Y-36030500D01*
X195393617Y-36030500D01*
X195393618Y-36030499D01*
X195577251Y-35993973D01*
X195750231Y-35922322D01*
X195905908Y-35818302D01*
X196038302Y-35685908D01*
X196085274Y-35615608D01*
X196138885Y-35570804D01*
X196188376Y-35560500D01*
X204924988Y-35560500D01*
X204992027Y-35580185D01*
X205028091Y-35615611D01*
X205061696Y-35665906D01*
X205061700Y-35665911D01*
X205194088Y-35798299D01*
X205194092Y-35798302D01*
X205349762Y-35902318D01*
X205349771Y-35902323D01*
X205388956Y-35918554D01*
X205522749Y-35973973D01*
X205692629Y-36007764D01*
X205706379Y-36010499D01*
X205706383Y-36010500D01*
X205706384Y-36010500D01*
X205893617Y-36010500D01*
X205893617Y-36010499D01*
X205968182Y-35995668D01*
X206013113Y-35986731D01*
X206082704Y-35992958D01*
X206124985Y-36020667D01*
X211373181Y-41268863D01*
X211406666Y-41330186D01*
X211409500Y-41356544D01*
X211409500Y-44585302D01*
X211389815Y-44652341D01*
X211337011Y-44698096D01*
X211335120Y-44698430D01*
X210734612Y-45298939D01*
X210729111Y-45278409D01*
X210650119Y-45141592D01*
X210538408Y-45029881D01*
X210401591Y-44950889D01*
X210381057Y-44945387D01*
X210967513Y-44358932D01*
X210903756Y-44312611D01*
X210707410Y-44212567D01*
X210497835Y-44144473D01*
X210280181Y-44110000D01*
X210059819Y-44110000D01*
X209842164Y-44144473D01*
X209632589Y-44212567D01*
X209436233Y-44312616D01*
X209372485Y-44358931D01*
X209372485Y-44358932D01*
X209958940Y-44945387D01*
X209938409Y-44950889D01*
X209801592Y-45029881D01*
X209689881Y-45141592D01*
X209610889Y-45278409D01*
X209605387Y-45298940D01*
X209018932Y-44712485D01*
X209018931Y-44712485D01*
X208972616Y-44776233D01*
X208872567Y-44972589D01*
X208804473Y-45182164D01*
X208770000Y-45399818D01*
X208770000Y-45620181D01*
X208804473Y-45837835D01*
X208872567Y-46047410D01*
X208972611Y-46243756D01*
X209018932Y-46307513D01*
X209605387Y-45721058D01*
X209610889Y-45741591D01*
X209689881Y-45878408D01*
X209801592Y-45990119D01*
X209938409Y-46069111D01*
X209958939Y-46074612D01*
X209372485Y-46661065D01*
X209372485Y-46661066D01*
X209436243Y-46707388D01*
X209632589Y-46807432D01*
X209842164Y-46875526D01*
X210059819Y-46910000D01*
X210280181Y-46910000D01*
X210497835Y-46875526D01*
X210707410Y-46807432D01*
X210903760Y-46707386D01*
X210967513Y-46661066D01*
X210967514Y-46661066D01*
X210381059Y-46074612D01*
X210401591Y-46069111D01*
X210538408Y-45990119D01*
X210650119Y-45878408D01*
X210729111Y-45741591D01*
X210734612Y-45721059D01*
X211337621Y-46324069D01*
X211344141Y-46325439D01*
X211393901Y-46374487D01*
X211409500Y-46434696D01*
X211409500Y-50073455D01*
X211389815Y-50140494D01*
X211373181Y-50161136D01*
X210722969Y-50811347D01*
X210661646Y-50844832D01*
X210596970Y-50841597D01*
X210427698Y-50786597D01*
X210273999Y-50762254D01*
X210256611Y-50759500D01*
X210083389Y-50759500D01*
X210066001Y-50762254D01*
X209912302Y-50786597D01*
X209747552Y-50840128D01*
X209593211Y-50918768D01*
X209513256Y-50976859D01*
X209453072Y-51020586D01*
X209453070Y-51020588D01*
X209453069Y-51020588D01*
X209330588Y-51143069D01*
X209330588Y-51143070D01*
X209330586Y-51143072D01*
X209286859Y-51203256D01*
X209228768Y-51283211D01*
X209150128Y-51437552D01*
X209096597Y-51602302D01*
X209069500Y-51773389D01*
X209069500Y-51946610D01*
X209096597Y-52117697D01*
X209096597Y-52117699D01*
X209096598Y-52117701D01*
X209150127Y-52282445D01*
X209228768Y-52436788D01*
X209330586Y-52576928D01*
X209453072Y-52699414D01*
X209593212Y-52801232D01*
X209747555Y-52879873D01*
X209912299Y-52933402D01*
X210083389Y-52960500D01*
X210083390Y-52960500D01*
X210256610Y-52960500D01*
X210256611Y-52960500D01*
X210427701Y-52933402D01*
X210592445Y-52879873D01*
X210746788Y-52801232D01*
X210886928Y-52699414D01*
X211009414Y-52576928D01*
X211111232Y-52436788D01*
X211189873Y-52282445D01*
X211243402Y-52117701D01*
X211270500Y-51946611D01*
X211270500Y-51773389D01*
X211243402Y-51602299D01*
X211189873Y-51437555D01*
X211189869Y-51437547D01*
X211188401Y-51433029D01*
X211186406Y-51363188D01*
X211218649Y-51307031D01*
X211941140Y-50584540D01*
X212002462Y-50551057D01*
X212072154Y-50556041D01*
X212128087Y-50597913D01*
X212152504Y-50663377D01*
X212152820Y-50672223D01*
X212152820Y-59772949D01*
X212133135Y-59839988D01*
X212080331Y-59885743D01*
X212028820Y-59896949D01*
X209655183Y-59896949D01*
X209588144Y-59877264D01*
X209542389Y-59824460D01*
X209532445Y-59755302D01*
X209561470Y-59691746D01*
X209579697Y-59674573D01*
X209655819Y-59616161D01*
X209749877Y-59543989D01*
X209913989Y-59379877D01*
X210055276Y-59195748D01*
X210171320Y-58994752D01*
X210260137Y-58780330D01*
X210320206Y-58556149D01*
X210350500Y-58326045D01*
X210350500Y-58093955D01*
X210320206Y-57863851D01*
X210260137Y-57639670D01*
X210171320Y-57425248D01*
X210171314Y-57425237D01*
X210055279Y-57224256D01*
X210055278Y-57224254D01*
X209913990Y-57040124D01*
X209913984Y-57040117D01*
X209749882Y-56876015D01*
X209749875Y-56876009D01*
X209565745Y-56734721D01*
X209565743Y-56734720D01*
X209364762Y-56618685D01*
X209364754Y-56618681D01*
X209364752Y-56618680D01*
X209150330Y-56529863D01*
X209150331Y-56529863D01*
X209150328Y-56529862D01*
X209008203Y-56491780D01*
X208926149Y-56469794D01*
X208897386Y-56466007D01*
X208696052Y-56439500D01*
X208696045Y-56439500D01*
X208463955Y-56439500D01*
X208463947Y-56439500D01*
X208233851Y-56469794D01*
X208009671Y-56529862D01*
X207795254Y-56618677D01*
X207795237Y-56618685D01*
X207594256Y-56734720D01*
X207594254Y-56734721D01*
X207410124Y-56876009D01*
X207410117Y-56876015D01*
X207246015Y-57040117D01*
X207246009Y-57040124D01*
X207104721Y-57224254D01*
X207104720Y-57224256D01*
X206988685Y-57425237D01*
X206988677Y-57425254D01*
X206899862Y-57639671D01*
X206839794Y-57863851D01*
X206809500Y-58093947D01*
X206809500Y-58326052D01*
X206839794Y-58556148D01*
X206899862Y-58780328D01*
X206988677Y-58994745D01*
X206988685Y-58994762D01*
X207104720Y-59195743D01*
X207104721Y-59195745D01*
X207246009Y-59379875D01*
X207246015Y-59379882D01*
X207410117Y-59543984D01*
X207410124Y-59543990D01*
X207580303Y-59674573D01*
X207621506Y-59731001D01*
X207625661Y-59800747D01*
X207591449Y-59861667D01*
X207529732Y-59894420D01*
X207504817Y-59896949D01*
X191875183Y-59896949D01*
X191808144Y-59877264D01*
X191762389Y-59824460D01*
X191752445Y-59755302D01*
X191781470Y-59691746D01*
X191799697Y-59674573D01*
X191875819Y-59616161D01*
X191969877Y-59543989D01*
X192133989Y-59379877D01*
X192275276Y-59195748D01*
X192391320Y-58994752D01*
X192480137Y-58780330D01*
X192540206Y-58556149D01*
X192570500Y-58326045D01*
X192570500Y-58093955D01*
X192540206Y-57863851D01*
X192480137Y-57639670D01*
X192391320Y-57425248D01*
X192391314Y-57425237D01*
X192275279Y-57224256D01*
X192275278Y-57224254D01*
X192133990Y-57040124D01*
X192133984Y-57040117D01*
X191969882Y-56876015D01*
X191969875Y-56876009D01*
X191785745Y-56734721D01*
X191785743Y-56734720D01*
X191584762Y-56618685D01*
X191584754Y-56618681D01*
X191584752Y-56618680D01*
X191370330Y-56529863D01*
X191370331Y-56529863D01*
X191370328Y-56529862D01*
X191228203Y-56491780D01*
X191146149Y-56469794D01*
X191117386Y-56466007D01*
X190916052Y-56439500D01*
X190916045Y-56439500D01*
X190683955Y-56439500D01*
X190683947Y-56439500D01*
X190453851Y-56469794D01*
X190229671Y-56529862D01*
X190015254Y-56618677D01*
X190015237Y-56618685D01*
X189814256Y-56734720D01*
X189814254Y-56734721D01*
X189630124Y-56876009D01*
X189630117Y-56876015D01*
X189466015Y-57040117D01*
X189466009Y-57040124D01*
X189324721Y-57224254D01*
X189324720Y-57224256D01*
X189208685Y-57425237D01*
X189208677Y-57425254D01*
X189119862Y-57639671D01*
X189059794Y-57863851D01*
X189029500Y-58093947D01*
X189029500Y-58326052D01*
X189059794Y-58556148D01*
X189119862Y-58780328D01*
X189208677Y-58994745D01*
X189208685Y-58994762D01*
X189324720Y-59195743D01*
X189324721Y-59195745D01*
X189466009Y-59379875D01*
X189466015Y-59379882D01*
X189630117Y-59543984D01*
X189630124Y-59543990D01*
X189800303Y-59674573D01*
X189841506Y-59731001D01*
X189845661Y-59800747D01*
X189811449Y-59861667D01*
X189749732Y-59894420D01*
X189724817Y-59896949D01*
X148195183Y-59896949D01*
X148128144Y-59877264D01*
X148082389Y-59824460D01*
X148072445Y-59755302D01*
X148101470Y-59691746D01*
X148119697Y-59674573D01*
X148195819Y-59616161D01*
X148289877Y-59543989D01*
X148453989Y-59379877D01*
X148595276Y-59195748D01*
X148711320Y-58994752D01*
X148800137Y-58780330D01*
X148860206Y-58556149D01*
X148890500Y-58326045D01*
X148890500Y-58093955D01*
X148860206Y-57863851D01*
X148800137Y-57639670D01*
X148711320Y-57425248D01*
X148711314Y-57425237D01*
X148595279Y-57224256D01*
X148595278Y-57224254D01*
X148453990Y-57040124D01*
X148453984Y-57040117D01*
X148289882Y-56876015D01*
X148289875Y-56876009D01*
X148105745Y-56734721D01*
X148105743Y-56734720D01*
X147904762Y-56618685D01*
X147904754Y-56618681D01*
X147904752Y-56618680D01*
X147690330Y-56529863D01*
X147690331Y-56529863D01*
X147690328Y-56529862D01*
X147548203Y-56491780D01*
X147466149Y-56469794D01*
X147437386Y-56466007D01*
X147236052Y-56439500D01*
X147236045Y-56439500D01*
X147003955Y-56439500D01*
X147003947Y-56439500D01*
X146773851Y-56469794D01*
X146549671Y-56529862D01*
X146335254Y-56618677D01*
X146335237Y-56618685D01*
X146134256Y-56734720D01*
X146134254Y-56734721D01*
X145950124Y-56876009D01*
X145950117Y-56876015D01*
X145786015Y-57040117D01*
X145786009Y-57040124D01*
X145644721Y-57224254D01*
X145644720Y-57224256D01*
X145528685Y-57425237D01*
X145528677Y-57425254D01*
X145439862Y-57639671D01*
X145379794Y-57863851D01*
X145349500Y-58093947D01*
X145349500Y-58326052D01*
X145379794Y-58556148D01*
X145439862Y-58780328D01*
X145528677Y-58994745D01*
X145528685Y-58994762D01*
X145644720Y-59195743D01*
X145644721Y-59195745D01*
X145786009Y-59379875D01*
X145786015Y-59379882D01*
X145950117Y-59543984D01*
X145950124Y-59543990D01*
X146120303Y-59674573D01*
X146161506Y-59731001D01*
X146165661Y-59800747D01*
X146131449Y-59861667D01*
X146069732Y-59894420D01*
X146044817Y-59896949D01*
X130415183Y-59896949D01*
X130348144Y-59877264D01*
X130302389Y-59824460D01*
X130292445Y-59755302D01*
X130321470Y-59691746D01*
X130339697Y-59674573D01*
X130415819Y-59616161D01*
X130509877Y-59543989D01*
X130673989Y-59379877D01*
X130815276Y-59195748D01*
X130931320Y-58994752D01*
X131020137Y-58780330D01*
X131080206Y-58556149D01*
X131110500Y-58326045D01*
X131110500Y-58093955D01*
X131080206Y-57863851D01*
X131020137Y-57639670D01*
X130931320Y-57425248D01*
X130931314Y-57425237D01*
X130815279Y-57224256D01*
X130815278Y-57224254D01*
X130673990Y-57040124D01*
X130673984Y-57040117D01*
X130509882Y-56876015D01*
X130509875Y-56876009D01*
X130325745Y-56734721D01*
X130325743Y-56734720D01*
X130124762Y-56618685D01*
X130124754Y-56618681D01*
X130124752Y-56618680D01*
X129910330Y-56529863D01*
X129910331Y-56529863D01*
X129910328Y-56529862D01*
X129768203Y-56491780D01*
X129686149Y-56469794D01*
X129657386Y-56466007D01*
X129456052Y-56439500D01*
X129456045Y-56439500D01*
X129223955Y-56439500D01*
X129223947Y-56439500D01*
X128993851Y-56469794D01*
X128769671Y-56529862D01*
X128555254Y-56618677D01*
X128555237Y-56618685D01*
X128354256Y-56734720D01*
X128354254Y-56734721D01*
X128170124Y-56876009D01*
X128170117Y-56876015D01*
X128006015Y-57040117D01*
X128006009Y-57040124D01*
X127864721Y-57224254D01*
X127864720Y-57224256D01*
X127748685Y-57425237D01*
X127748677Y-57425254D01*
X127659862Y-57639671D01*
X127599794Y-57863851D01*
X127569500Y-58093947D01*
X127569500Y-58326052D01*
X127599794Y-58556148D01*
X127659862Y-58780328D01*
X127748677Y-58994745D01*
X127748685Y-58994762D01*
X127864720Y-59195743D01*
X127864721Y-59195745D01*
X128006009Y-59379875D01*
X128006015Y-59379882D01*
X128170117Y-59543984D01*
X128170124Y-59543990D01*
X128340303Y-59674573D01*
X128381506Y-59731001D01*
X128385661Y-59800747D01*
X128351449Y-59861667D01*
X128289732Y-59894420D01*
X128264817Y-59896949D01*
X126216079Y-59896949D01*
X126149040Y-59877264D01*
X126103285Y-59824460D01*
X126092079Y-59772949D01*
X126092079Y-51773389D01*
X126649500Y-51773389D01*
X126649500Y-51946610D01*
X126676597Y-52117697D01*
X126676597Y-52117699D01*
X126676598Y-52117701D01*
X126730127Y-52282445D01*
X126808768Y-52436788D01*
X126910586Y-52576928D01*
X127033072Y-52699414D01*
X127173212Y-52801232D01*
X127327555Y-52879873D01*
X127492299Y-52933402D01*
X127663389Y-52960500D01*
X127663390Y-52960500D01*
X127836610Y-52960500D01*
X127836611Y-52960500D01*
X128007701Y-52933402D01*
X128172445Y-52879873D01*
X128326788Y-52801232D01*
X128466928Y-52699414D01*
X128589414Y-52576928D01*
X128691232Y-52436788D01*
X128769873Y-52282445D01*
X128823402Y-52117701D01*
X128850500Y-51946611D01*
X128850500Y-51773389D01*
X128846767Y-51749818D01*
X130540000Y-51749818D01*
X130540000Y-51970181D01*
X130574473Y-52187835D01*
X130642567Y-52397410D01*
X130742611Y-52593756D01*
X130788932Y-52657513D01*
X131375387Y-52071058D01*
X131380889Y-52091591D01*
X131459881Y-52228408D01*
X131571592Y-52340119D01*
X131708409Y-52419111D01*
X131728939Y-52424612D01*
X131142485Y-53011065D01*
X131142485Y-53011066D01*
X131206243Y-53057388D01*
X131402589Y-53157432D01*
X131612164Y-53225526D01*
X131829819Y-53260000D01*
X132050181Y-53260000D01*
X132267835Y-53225526D01*
X132477410Y-53157432D01*
X132673760Y-53057386D01*
X132737513Y-53011066D01*
X132737514Y-53011066D01*
X132151059Y-52424612D01*
X132171591Y-52419111D01*
X132308408Y-52340119D01*
X132420119Y-52228408D01*
X132499111Y-52091591D01*
X132504612Y-52071060D01*
X133091066Y-52657514D01*
X133091066Y-52657513D01*
X133137386Y-52593760D01*
X133237432Y-52397410D01*
X133305526Y-52187835D01*
X133340000Y-51970181D01*
X133340000Y-51773389D01*
X135029500Y-51773389D01*
X135029500Y-51946610D01*
X135056597Y-52117697D01*
X135056597Y-52117699D01*
X135056598Y-52117701D01*
X135110127Y-52282445D01*
X135188768Y-52436788D01*
X135290586Y-52576928D01*
X135413072Y-52699414D01*
X135553212Y-52801232D01*
X135707555Y-52879873D01*
X135872299Y-52933402D01*
X136043389Y-52960500D01*
X136043390Y-52960500D01*
X136216610Y-52960500D01*
X136216611Y-52960500D01*
X136387701Y-52933402D01*
X136552445Y-52879873D01*
X136706788Y-52801232D01*
X136846928Y-52699414D01*
X136969414Y-52576928D01*
X137071232Y-52436788D01*
X137149873Y-52282445D01*
X137203402Y-52117701D01*
X137230500Y-51946611D01*
X137230500Y-51773389D01*
X137203402Y-51602299D01*
X137149873Y-51437555D01*
X137071232Y-51283212D01*
X136969414Y-51143072D01*
X136846928Y-51020586D01*
X136706788Y-50918768D01*
X136552445Y-50840127D01*
X136387701Y-50786598D01*
X136387699Y-50786597D01*
X136387698Y-50786597D01*
X136233999Y-50762254D01*
X136216611Y-50759500D01*
X136043389Y-50759500D01*
X136026001Y-50762254D01*
X135872302Y-50786597D01*
X135707552Y-50840128D01*
X135553211Y-50918768D01*
X135473256Y-50976859D01*
X135413072Y-51020586D01*
X135413070Y-51020588D01*
X135413069Y-51020588D01*
X135290588Y-51143069D01*
X135290588Y-51143070D01*
X135290586Y-51143072D01*
X135246859Y-51203256D01*
X135188768Y-51283211D01*
X135110128Y-51437552D01*
X135056597Y-51602302D01*
X135029500Y-51773389D01*
X133340000Y-51773389D01*
X133340000Y-51749818D01*
X133305526Y-51532164D01*
X133237432Y-51322589D01*
X133137388Y-51126243D01*
X133091066Y-51062485D01*
X133091065Y-51062485D01*
X132504612Y-51648939D01*
X132499111Y-51628409D01*
X132420119Y-51491592D01*
X132308408Y-51379881D01*
X132171591Y-51300889D01*
X132151057Y-51295387D01*
X132737513Y-50708932D01*
X132673756Y-50662611D01*
X132477410Y-50562567D01*
X132267835Y-50494473D01*
X132050181Y-50460000D01*
X131829819Y-50460000D01*
X131612164Y-50494473D01*
X131402589Y-50562567D01*
X131206233Y-50662616D01*
X131142485Y-50708931D01*
X131142485Y-50708932D01*
X131728940Y-51295387D01*
X131708409Y-51300889D01*
X131571592Y-51379881D01*
X131459881Y-51491592D01*
X131380889Y-51628409D01*
X131375387Y-51648940D01*
X130788932Y-51062485D01*
X130788931Y-51062485D01*
X130742616Y-51126233D01*
X130642567Y-51322589D01*
X130574473Y-51532164D01*
X130540000Y-51749818D01*
X128846767Y-51749818D01*
X128838560Y-51698003D01*
X128823403Y-51602303D01*
X128823402Y-51602302D01*
X128823402Y-51602301D01*
X128823402Y-51602299D01*
X128769873Y-51437555D01*
X128691232Y-51283212D01*
X128589414Y-51143072D01*
X128466928Y-51020586D01*
X128326788Y-50918768D01*
X128172445Y-50840127D01*
X128007701Y-50786598D01*
X128007699Y-50786597D01*
X128007698Y-50786597D01*
X127853999Y-50762254D01*
X127836611Y-50759500D01*
X127663389Y-50759500D01*
X127646001Y-50762254D01*
X127492302Y-50786597D01*
X127327552Y-50840128D01*
X127173211Y-50918768D01*
X127093256Y-50976859D01*
X127033072Y-51020586D01*
X127033070Y-51020588D01*
X127033069Y-51020588D01*
X126910588Y-51143069D01*
X126910588Y-51143070D01*
X126910586Y-51143072D01*
X126866859Y-51203256D01*
X126808768Y-51283211D01*
X126730128Y-51437552D01*
X126676597Y-51602302D01*
X126649500Y-51773389D01*
X126092079Y-51773389D01*
X126092079Y-44590247D01*
X126649500Y-44590247D01*
X126649500Y-46429752D01*
X126661131Y-46488229D01*
X126661132Y-46488230D01*
X126705447Y-46554552D01*
X126771769Y-46598867D01*
X126771770Y-46598868D01*
X126830247Y-46610499D01*
X126830250Y-46610500D01*
X126830252Y-46610500D01*
X128669750Y-46610500D01*
X128669751Y-46610499D01*
X128684568Y-46607552D01*
X128728229Y-46598868D01*
X128728229Y-46598867D01*
X128728231Y-46598867D01*
X128794552Y-46554552D01*
X128838867Y-46488231D01*
X128838867Y-46488229D01*
X128838868Y-46488229D01*
X128850499Y-46429752D01*
X128850500Y-46429750D01*
X128850500Y-45423389D01*
X130839500Y-45423389D01*
X130839500Y-45596610D01*
X130865460Y-45760521D01*
X130866598Y-45767701D01*
X130920127Y-45932445D01*
X130998768Y-46086788D01*
X131100586Y-46226928D01*
X131223072Y-46349414D01*
X131363212Y-46451232D01*
X131517555Y-46529873D01*
X131682299Y-46583402D01*
X131853389Y-46610500D01*
X131853390Y-46610500D01*
X132026610Y-46610500D01*
X132026611Y-46610500D01*
X132197701Y-46583402D01*
X132362445Y-46529873D01*
X132516788Y-46451232D01*
X132656928Y-46349414D01*
X132779414Y-46226928D01*
X132881232Y-46086788D01*
X132959873Y-45932445D01*
X133013402Y-45767701D01*
X133040500Y-45596611D01*
X133040500Y-45423389D01*
X133013402Y-45252299D01*
X132993082Y-45189764D01*
X132991087Y-45119927D01*
X133023331Y-45063770D01*
X133640284Y-44446819D01*
X133701607Y-44413334D01*
X133727965Y-44410500D01*
X135389417Y-44410500D01*
X135456456Y-44430185D01*
X135502211Y-44482989D01*
X135512155Y-44552147D01*
X135483130Y-44615703D01*
X135462305Y-44634815D01*
X135413072Y-44670586D01*
X135413070Y-44670588D01*
X135413069Y-44670588D01*
X135290588Y-44793069D01*
X135290588Y-44793070D01*
X135290586Y-44793072D01*
X135246859Y-44853256D01*
X135188768Y-44933211D01*
X135110128Y-45087552D01*
X135056597Y-45252302D01*
X135029500Y-45423389D01*
X135029500Y-45596610D01*
X135055460Y-45760521D01*
X135056598Y-45767701D01*
X135110127Y-45932445D01*
X135188768Y-46086788D01*
X135290586Y-46226928D01*
X135413072Y-46349414D01*
X135553212Y-46451232D01*
X135707555Y-46529873D01*
X135872299Y-46583402D01*
X136043389Y-46610500D01*
X136043390Y-46610500D01*
X136216610Y-46610500D01*
X136216611Y-46610500D01*
X136387701Y-46583402D01*
X136552445Y-46529873D01*
X136706788Y-46451232D01*
X136846928Y-46349414D01*
X136969414Y-46226928D01*
X137071232Y-46086788D01*
X137149873Y-45932445D01*
X137203402Y-45767701D01*
X137230500Y-45596611D01*
X137230500Y-45423389D01*
X137203402Y-45252299D01*
X137149873Y-45087555D01*
X137071232Y-44933212D01*
X136969414Y-44793072D01*
X136846928Y-44670586D01*
X136797696Y-44634816D01*
X136755032Y-44579488D01*
X136749053Y-44509874D01*
X136781659Y-44448079D01*
X136842498Y-44413722D01*
X136870583Y-44410500D01*
X139589417Y-44410500D01*
X139656456Y-44430185D01*
X139702211Y-44482989D01*
X139712155Y-44552147D01*
X139683130Y-44615703D01*
X139662305Y-44634815D01*
X139613072Y-44670586D01*
X139613070Y-44670588D01*
X139613069Y-44670588D01*
X139490588Y-44793069D01*
X139490588Y-44793070D01*
X139490586Y-44793072D01*
X139446859Y-44853256D01*
X139388768Y-44933211D01*
X139310128Y-45087552D01*
X139256597Y-45252302D01*
X139229500Y-45423389D01*
X139229500Y-45596610D01*
X139255460Y-45760521D01*
X139256598Y-45767701D01*
X139310127Y-45932445D01*
X139388768Y-46086788D01*
X139490586Y-46226928D01*
X139613072Y-46349414D01*
X139692186Y-46406894D01*
X139753207Y-46451229D01*
X139753211Y-46451231D01*
X139753212Y-46451232D01*
X139811795Y-46481081D01*
X139862590Y-46529053D01*
X139879500Y-46591565D01*
X139879500Y-49639911D01*
X139903712Y-49730275D01*
X139910200Y-49754488D01*
X139910200Y-49754489D01*
X139910201Y-49754490D01*
X139969511Y-49857217D01*
X139969513Y-49857219D01*
X140687600Y-50575306D01*
X140721085Y-50636629D01*
X140716101Y-50706321D01*
X140674229Y-50762254D01*
X140608765Y-50786671D01*
X140580522Y-50785460D01*
X140416611Y-50759500D01*
X140243389Y-50759500D01*
X140226001Y-50762254D01*
X140072302Y-50786597D01*
X139907552Y-50840128D01*
X139753211Y-50918768D01*
X139673256Y-50976859D01*
X139613072Y-51020586D01*
X139613070Y-51020588D01*
X139613069Y-51020588D01*
X139490588Y-51143069D01*
X139490588Y-51143070D01*
X139490586Y-51143072D01*
X139446859Y-51203256D01*
X139388768Y-51283211D01*
X139310128Y-51437552D01*
X139256597Y-51602302D01*
X139229500Y-51773389D01*
X139229500Y-51946610D01*
X139256597Y-52117697D01*
X139256597Y-52117699D01*
X139256598Y-52117701D01*
X139310127Y-52282445D01*
X139388768Y-52436788D01*
X139490586Y-52576928D01*
X139613072Y-52699414D01*
X139753212Y-52801232D01*
X139907555Y-52879873D01*
X140072299Y-52933402D01*
X140243389Y-52960500D01*
X140243390Y-52960500D01*
X140416610Y-52960500D01*
X140416611Y-52960500D01*
X140587701Y-52933402D01*
X140650231Y-52913083D01*
X140720070Y-52911087D01*
X140776229Y-52943332D01*
X142683386Y-54850490D01*
X142786113Y-54909799D01*
X142810321Y-54916284D01*
X142810324Y-54916286D01*
X142810325Y-54916286D01*
X142840447Y-54924357D01*
X142900691Y-54940500D01*
X142900693Y-54940500D01*
X199219308Y-54940500D01*
X199219309Y-54940500D01*
X199309673Y-54916286D01*
X199333887Y-54909799D01*
X199436614Y-54850489D01*
X201343770Y-52943332D01*
X201405091Y-52909849D01*
X201469766Y-52913083D01*
X201503350Y-52923996D01*
X201532298Y-52933402D01*
X201595001Y-52943333D01*
X201703389Y-52960500D01*
X201703390Y-52960500D01*
X201876610Y-52960500D01*
X201876611Y-52960500D01*
X202047701Y-52933402D01*
X202212445Y-52879873D01*
X202366788Y-52801232D01*
X202506928Y-52699414D01*
X202629414Y-52576928D01*
X202731232Y-52436788D01*
X202809873Y-52282445D01*
X202863402Y-52117701D01*
X202890500Y-51946611D01*
X202890500Y-51773389D01*
X204879500Y-51773389D01*
X204879500Y-51946610D01*
X204906597Y-52117697D01*
X204906597Y-52117699D01*
X204906598Y-52117701D01*
X204960127Y-52282445D01*
X205038768Y-52436788D01*
X205140586Y-52576928D01*
X205263072Y-52699414D01*
X205403212Y-52801232D01*
X205557555Y-52879873D01*
X205722299Y-52933402D01*
X205893389Y-52960500D01*
X205893390Y-52960500D01*
X206066610Y-52960500D01*
X206066611Y-52960500D01*
X206237701Y-52933402D01*
X206402445Y-52879873D01*
X206556788Y-52801232D01*
X206696928Y-52699414D01*
X206819414Y-52576928D01*
X206921232Y-52436788D01*
X206999873Y-52282445D01*
X207053402Y-52117701D01*
X207080500Y-51946611D01*
X207080500Y-51773389D01*
X207053402Y-51602299D01*
X206999873Y-51437555D01*
X206921232Y-51283212D01*
X206819414Y-51143072D01*
X206696928Y-51020586D01*
X206556788Y-50918768D01*
X206402445Y-50840127D01*
X206237701Y-50786598D01*
X206237699Y-50786597D01*
X206237698Y-50786597D01*
X206083999Y-50762254D01*
X206066611Y-50759500D01*
X205893389Y-50759500D01*
X205876001Y-50762254D01*
X205722302Y-50786597D01*
X205557552Y-50840128D01*
X205403211Y-50918768D01*
X205323256Y-50976859D01*
X205263072Y-51020586D01*
X205263070Y-51020588D01*
X205263069Y-51020588D01*
X205140588Y-51143069D01*
X205140588Y-51143070D01*
X205140586Y-51143072D01*
X205096859Y-51203256D01*
X205038768Y-51283211D01*
X204960128Y-51437552D01*
X204906597Y-51602302D01*
X204879500Y-51773389D01*
X202890500Y-51773389D01*
X202863402Y-51602299D01*
X202809873Y-51437555D01*
X202731232Y-51283212D01*
X202629414Y-51143072D01*
X202506928Y-51020586D01*
X202366788Y-50918768D01*
X202212445Y-50840127D01*
X202047701Y-50786598D01*
X202047699Y-50786597D01*
X202047698Y-50786597D01*
X201893999Y-50762254D01*
X201876611Y-50759500D01*
X201703389Y-50759500D01*
X201686001Y-50762254D01*
X201532302Y-50786597D01*
X201367552Y-50840128D01*
X201213211Y-50918768D01*
X201133256Y-50976859D01*
X201073072Y-51020586D01*
X201073070Y-51020588D01*
X201073069Y-51020588D01*
X200950588Y-51143069D01*
X200950588Y-51143070D01*
X200950586Y-51143072D01*
X200906859Y-51203256D01*
X200848768Y-51283211D01*
X200770128Y-51437552D01*
X200716597Y-51602302D01*
X200689500Y-51773389D01*
X200689500Y-51946610D01*
X200716598Y-52117704D01*
X200736914Y-52180232D01*
X200738909Y-52250074D01*
X200706664Y-52306230D01*
X199009716Y-54003181D01*
X198948393Y-54036666D01*
X198922035Y-54039500D01*
X192156965Y-54039500D01*
X192089926Y-54019815D01*
X192044171Y-53967011D01*
X192034227Y-53897853D01*
X192063252Y-53834297D01*
X192069284Y-53827819D01*
X192671576Y-53225526D01*
X192953770Y-52943331D01*
X193015091Y-52909848D01*
X193079764Y-52913082D01*
X193142299Y-52933402D01*
X193313389Y-52960500D01*
X193313390Y-52960500D01*
X193486610Y-52960500D01*
X193486611Y-52960500D01*
X193657701Y-52933402D01*
X193822445Y-52879873D01*
X193976788Y-52801232D01*
X194116928Y-52699414D01*
X194239414Y-52576928D01*
X194341232Y-52436788D01*
X194419873Y-52282445D01*
X194473402Y-52117701D01*
X194500500Y-51946611D01*
X194500500Y-51773389D01*
X194473402Y-51602299D01*
X194419873Y-51437555D01*
X194341232Y-51283212D01*
X194239414Y-51143072D01*
X194116928Y-51020586D01*
X193976788Y-50918768D01*
X193822445Y-50840127D01*
X193657701Y-50786598D01*
X193657699Y-50786597D01*
X193657698Y-50786597D01*
X193503999Y-50762254D01*
X193486611Y-50759500D01*
X193313389Y-50759500D01*
X193296001Y-50762254D01*
X193142302Y-50786597D01*
X192977552Y-50840128D01*
X192823211Y-50918768D01*
X192743256Y-50976859D01*
X192683072Y-51020586D01*
X192683070Y-51020588D01*
X192683069Y-51020588D01*
X192560588Y-51143069D01*
X192560588Y-51143070D01*
X192560586Y-51143072D01*
X192516859Y-51203256D01*
X192458768Y-51283211D01*
X192380128Y-51437552D01*
X192326597Y-51602302D01*
X192299500Y-51773389D01*
X192299500Y-51946610D01*
X192326597Y-52117698D01*
X192326598Y-52117702D01*
X192346915Y-52180232D01*
X192348910Y-52250073D01*
X192316665Y-52306230D01*
X191497716Y-53125181D01*
X191436393Y-53158666D01*
X191410035Y-53161500D01*
X190331304Y-53161500D01*
X190264265Y-53141815D01*
X190218510Y-53089011D01*
X190208566Y-53019853D01*
X190237591Y-52956297D01*
X190243623Y-52949819D01*
X191933838Y-51259604D01*
X193640460Y-49552982D01*
X193680022Y-49484459D01*
X193700500Y-49408033D01*
X193700500Y-49328909D01*
X193700500Y-46659586D01*
X193720185Y-46592547D01*
X193772989Y-46546792D01*
X193786171Y-46541658D01*
X193822445Y-46529873D01*
X193976788Y-46451232D01*
X194116928Y-46349414D01*
X194239414Y-46226928D01*
X194341232Y-46086788D01*
X194419873Y-45932445D01*
X194473402Y-45767701D01*
X194497926Y-45612861D01*
X194527854Y-45549729D01*
X194587165Y-45512797D01*
X194657027Y-45513795D01*
X194708079Y-45544580D01*
X197103181Y-47939681D01*
X197136666Y-48001004D01*
X197139500Y-48027362D01*
X197139500Y-50778433D01*
X197119815Y-50845472D01*
X197071796Y-50888917D01*
X197013214Y-50918766D01*
X196943142Y-50969677D01*
X196873072Y-51020586D01*
X196873070Y-51020588D01*
X196873069Y-51020588D01*
X196750588Y-51143069D01*
X196750588Y-51143070D01*
X196750586Y-51143072D01*
X196706859Y-51203256D01*
X196648768Y-51283211D01*
X196570128Y-51437552D01*
X196516597Y-51602302D01*
X196489500Y-51773389D01*
X196489500Y-51946610D01*
X196516597Y-52117697D01*
X196516597Y-52117699D01*
X196516598Y-52117701D01*
X196570127Y-52282445D01*
X196648768Y-52436788D01*
X196750586Y-52576928D01*
X196873072Y-52699414D01*
X197013212Y-52801232D01*
X197167555Y-52879873D01*
X197332299Y-52933402D01*
X197503389Y-52960500D01*
X197503390Y-52960500D01*
X197676610Y-52960500D01*
X197676611Y-52960500D01*
X197847701Y-52933402D01*
X198012445Y-52879873D01*
X198166788Y-52801232D01*
X198306928Y-52699414D01*
X198429414Y-52576928D01*
X198531232Y-52436788D01*
X198609873Y-52282445D01*
X198663402Y-52117701D01*
X198690500Y-51946611D01*
X198690500Y-51773389D01*
X198663402Y-51602299D01*
X198609873Y-51437555D01*
X198531232Y-51283212D01*
X198429414Y-51143072D01*
X198306928Y-51020586D01*
X198166788Y-50918768D01*
X198166787Y-50918767D01*
X198166785Y-50918766D01*
X198108204Y-50888917D01*
X198057409Y-50840943D01*
X198040500Y-50778433D01*
X198040500Y-47730090D01*
X198040500Y-47730088D01*
X198009799Y-47615511D01*
X198009799Y-47615510D01*
X198009799Y-47615509D01*
X197950492Y-47512786D01*
X197950488Y-47512781D01*
X197232400Y-46794693D01*
X197198915Y-46733370D01*
X197203899Y-46663678D01*
X197245771Y-46607745D01*
X197311235Y-46583328D01*
X197339477Y-46584538D01*
X197503389Y-46610500D01*
X197503390Y-46610500D01*
X197676610Y-46610500D01*
X197676611Y-46610500D01*
X197847701Y-46583402D01*
X198012445Y-46529873D01*
X198166788Y-46451232D01*
X198306928Y-46349414D01*
X198429414Y-46226928D01*
X198531232Y-46086788D01*
X198609873Y-45932445D01*
X198663402Y-45767701D01*
X198690500Y-45596611D01*
X198690500Y-45423389D01*
X200689500Y-45423389D01*
X200689500Y-45596610D01*
X200715460Y-45760521D01*
X200716598Y-45767701D01*
X200770127Y-45932445D01*
X200848768Y-46086788D01*
X200950586Y-46226928D01*
X201073072Y-46349414D01*
X201213212Y-46451232D01*
X201367555Y-46529873D01*
X201532299Y-46583402D01*
X201703389Y-46610500D01*
X201703390Y-46610500D01*
X201876610Y-46610500D01*
X201876611Y-46610500D01*
X202047701Y-46583402D01*
X202212445Y-46529873D01*
X202366788Y-46451232D01*
X202506928Y-46349414D01*
X202629414Y-46226928D01*
X202731232Y-46086788D01*
X202809873Y-45932445D01*
X202863402Y-45767701D01*
X202890500Y-45596611D01*
X202890500Y-45423389D01*
X204879500Y-45423389D01*
X204879500Y-45596610D01*
X204905460Y-45760521D01*
X204906598Y-45767701D01*
X204960127Y-45932445D01*
X205038768Y-46086788D01*
X205140586Y-46226928D01*
X205263072Y-46349414D01*
X205403212Y-46451232D01*
X205557555Y-46529873D01*
X205722299Y-46583402D01*
X205893389Y-46610500D01*
X205893390Y-46610500D01*
X206066610Y-46610500D01*
X206066611Y-46610500D01*
X206237701Y-46583402D01*
X206402445Y-46529873D01*
X206556788Y-46451232D01*
X206696928Y-46349414D01*
X206819414Y-46226928D01*
X206921232Y-46086788D01*
X206999873Y-45932445D01*
X207053402Y-45767701D01*
X207080500Y-45596611D01*
X207080500Y-45423389D01*
X207068560Y-45348003D01*
X207053403Y-45252303D01*
X207053402Y-45252302D01*
X207053402Y-45252299D01*
X206999873Y-45087555D01*
X206921232Y-44933212D01*
X206819414Y-44793072D01*
X206696928Y-44670586D01*
X206556788Y-44568768D01*
X206402445Y-44490127D01*
X206237701Y-44436598D01*
X206237699Y-44436597D01*
X206237698Y-44436597D01*
X206106271Y-44415781D01*
X206066611Y-44409500D01*
X205893389Y-44409500D01*
X205853728Y-44415781D01*
X205722302Y-44436597D01*
X205557552Y-44490128D01*
X205403211Y-44568768D01*
X205338612Y-44615703D01*
X205263072Y-44670586D01*
X205263070Y-44670588D01*
X205263069Y-44670588D01*
X205140588Y-44793069D01*
X205140588Y-44793070D01*
X205140586Y-44793072D01*
X205096859Y-44853256D01*
X205038768Y-44933211D01*
X204960128Y-45087552D01*
X204906597Y-45252302D01*
X204879500Y-45423389D01*
X202890500Y-45423389D01*
X202863402Y-45252299D01*
X202809873Y-45087555D01*
X202731232Y-44933212D01*
X202629414Y-44793072D01*
X202506928Y-44670586D01*
X202366788Y-44568768D01*
X202212445Y-44490127D01*
X202047701Y-44436598D01*
X202047699Y-44436597D01*
X202047698Y-44436597D01*
X201916271Y-44415781D01*
X201876611Y-44409500D01*
X201703389Y-44409500D01*
X201663728Y-44415781D01*
X201532302Y-44436597D01*
X201367552Y-44490128D01*
X201213211Y-44568768D01*
X201148612Y-44615703D01*
X201073072Y-44670586D01*
X201073070Y-44670588D01*
X201073069Y-44670588D01*
X200950588Y-44793069D01*
X200950588Y-44793070D01*
X200950586Y-44793072D01*
X200906859Y-44853256D01*
X200848768Y-44933211D01*
X200770128Y-45087552D01*
X200716597Y-45252302D01*
X200689500Y-45423389D01*
X198690500Y-45423389D01*
X198663402Y-45252299D01*
X198609873Y-45087555D01*
X198531232Y-44933212D01*
X198429414Y-44793072D01*
X198306928Y-44670586D01*
X198166788Y-44568768D01*
X198012445Y-44490127D01*
X197847701Y-44436598D01*
X197847699Y-44436597D01*
X197847698Y-44436597D01*
X197716271Y-44415781D01*
X197676611Y-44409500D01*
X197503389Y-44409500D01*
X197463728Y-44415781D01*
X197332302Y-44436597D01*
X197167552Y-44490128D01*
X197013211Y-44568768D01*
X196948612Y-44615703D01*
X196873072Y-44670586D01*
X196873070Y-44670588D01*
X196873069Y-44670588D01*
X196750588Y-44793069D01*
X196750588Y-44793070D01*
X196750586Y-44793072D01*
X196706859Y-44853256D01*
X196648768Y-44933211D01*
X196570128Y-45087552D01*
X196516597Y-45252302D01*
X196489500Y-45423389D01*
X196489500Y-45596611D01*
X196489499Y-45596611D01*
X196515460Y-45760521D01*
X196506505Y-45829814D01*
X196461509Y-45883266D01*
X196394757Y-45903905D01*
X196327443Y-45885180D01*
X196305306Y-45867599D01*
X188027219Y-37589513D01*
X188027217Y-37589511D01*
X187924490Y-37530201D01*
X187883735Y-37519281D01*
X187883732Y-37519280D01*
X187852532Y-37510920D01*
X187809912Y-37499500D01*
X187809911Y-37499500D01*
X185947595Y-37499500D01*
X185880556Y-37479815D01*
X185834801Y-37427011D01*
X185830553Y-37416453D01*
X185802794Y-37337120D01*
X185802793Y-37337118D01*
X185786641Y-37315233D01*
X185722150Y-37227850D01*
X185612882Y-37147207D01*
X185612881Y-37147206D01*
X185484695Y-37102353D01*
X185484698Y-37102353D01*
X185454268Y-37099500D01*
X184345741Y-37099500D01*
X184315301Y-37102354D01*
X184315300Y-37102354D01*
X184187118Y-37147206D01*
X184077850Y-37227850D01*
X183997206Y-37337118D01*
X183952353Y-37465302D01*
X183949500Y-37495731D01*
X183949500Y-38604258D01*
X183952354Y-38634698D01*
X183952354Y-38634699D01*
X183997206Y-38762881D01*
X184004587Y-38772882D01*
X184077850Y-38872150D01*
X184187118Y-38952793D01*
X184315302Y-38997646D01*
X184315301Y-38997646D01*
X184319271Y-38998018D01*
X184345735Y-39000500D01*
X185454264Y-39000499D01*
X185484698Y-38997646D01*
X185612882Y-38952793D01*
X185722150Y-38872150D01*
X185802793Y-38762882D01*
X185847646Y-38634698D01*
X185850500Y-38604265D01*
X185850500Y-38524500D01*
X185870185Y-38457461D01*
X185922989Y-38411706D01*
X185974500Y-38400500D01*
X187512638Y-38400500D01*
X187579677Y-38420185D01*
X187600319Y-38436819D01*
X193365419Y-44201920D01*
X193398904Y-44263243D01*
X193393920Y-44332935D01*
X193352048Y-44388868D01*
X193297136Y-44412074D01*
X193142302Y-44436597D01*
X192977552Y-44490128D01*
X192823211Y-44568768D01*
X192758612Y-44615703D01*
X192683072Y-44670586D01*
X192683070Y-44670588D01*
X192683069Y-44670588D01*
X192560588Y-44793069D01*
X192560588Y-44793070D01*
X192560586Y-44793072D01*
X192516859Y-44853256D01*
X192458768Y-44933211D01*
X192380128Y-45087552D01*
X192326597Y-45252302D01*
X192299500Y-45423389D01*
X192299500Y-45596610D01*
X192325460Y-45760521D01*
X192326598Y-45767701D01*
X192380127Y-45932445D01*
X192458768Y-46086788D01*
X192560586Y-46226928D01*
X192683072Y-46349414D01*
X192788177Y-46425777D01*
X192823213Y-46451233D01*
X192895823Y-46488229D01*
X192977555Y-46529873D01*
X193013818Y-46541655D01*
X193071492Y-46581091D01*
X193098691Y-46645449D01*
X193099500Y-46659586D01*
X193099500Y-49192637D01*
X193079815Y-49259676D01*
X193063181Y-49280318D01*
X190518079Y-51825419D01*
X190456756Y-51858904D01*
X190387064Y-51853920D01*
X190331131Y-51812048D01*
X190307925Y-51757137D01*
X190292524Y-51659896D01*
X190283403Y-51602303D01*
X190283402Y-51602302D01*
X190283402Y-51602301D01*
X190283402Y-51602299D01*
X190229873Y-51437555D01*
X190151232Y-51283212D01*
X190049414Y-51143072D01*
X189926928Y-51020586D01*
X189786788Y-50918768D01*
X189632445Y-50840127D01*
X189467701Y-50786598D01*
X189467699Y-50786597D01*
X189467698Y-50786597D01*
X189313999Y-50762254D01*
X189296611Y-50759500D01*
X189123389Y-50759500D01*
X189106001Y-50762254D01*
X188952301Y-50786597D01*
X188787557Y-50840125D01*
X188753576Y-50857439D01*
X188684907Y-50870333D01*
X188620167Y-50844054D01*
X188609604Y-50834633D01*
X186547652Y-48772681D01*
X186514167Y-48711358D01*
X186519151Y-48641666D01*
X186547652Y-48597319D01*
X188498152Y-46646819D01*
X188559475Y-46613334D01*
X188585833Y-46610500D01*
X190129750Y-46610500D01*
X190129751Y-46610499D01*
X190144568Y-46607552D01*
X190188229Y-46598868D01*
X190188229Y-46598867D01*
X190188231Y-46598867D01*
X190254552Y-46554552D01*
X190298867Y-46488231D01*
X190298867Y-46488229D01*
X190298868Y-46488229D01*
X190310499Y-46429752D01*
X190310500Y-46429750D01*
X190310500Y-44590249D01*
X190310499Y-44590247D01*
X190298868Y-44531770D01*
X190298867Y-44531769D01*
X190254552Y-44465447D01*
X190188230Y-44421132D01*
X190188229Y-44421131D01*
X190129752Y-44409500D01*
X190129748Y-44409500D01*
X188290252Y-44409500D01*
X188290247Y-44409500D01*
X188231770Y-44421131D01*
X188231769Y-44421132D01*
X188165447Y-44465447D01*
X188121132Y-44531769D01*
X188121131Y-44531770D01*
X188109500Y-44590247D01*
X188109500Y-46134167D01*
X188089815Y-46201206D01*
X188073181Y-46221848D01*
X186112848Y-48182181D01*
X186051525Y-48215666D01*
X186025167Y-48218500D01*
X151894833Y-48218500D01*
X151827794Y-48198815D01*
X151807152Y-48182181D01*
X149735366Y-46110395D01*
X149701881Y-46049072D01*
X149706865Y-45979380D01*
X149712563Y-45966418D01*
X149729871Y-45932449D01*
X149729872Y-45932447D01*
X149729873Y-45932445D01*
X149783402Y-45767701D01*
X149810500Y-45596611D01*
X149810500Y-45423389D01*
X149783402Y-45252299D01*
X149729873Y-45087555D01*
X149651232Y-44933212D01*
X149549414Y-44793072D01*
X149426928Y-44670586D01*
X149377696Y-44634816D01*
X149335032Y-44579488D01*
X149329053Y-44509874D01*
X149361659Y-44448079D01*
X149422498Y-44413722D01*
X149450583Y-44410500D01*
X175959308Y-44410500D01*
X175959309Y-44410500D01*
X176049673Y-44386286D01*
X176073887Y-44379799D01*
X176176614Y-44320489D01*
X184501435Y-35995666D01*
X184562756Y-35962183D01*
X184616463Y-35964345D01*
X184616774Y-35962785D01*
X184806379Y-36000499D01*
X184806383Y-36000500D01*
X184806384Y-36000500D01*
X184993617Y-36000500D01*
X184993618Y-36000499D01*
X185177251Y-35963973D01*
X185350231Y-35892322D01*
X185505908Y-35788302D01*
X185638302Y-35655908D01*
X185742322Y-35500231D01*
X185813973Y-35327251D01*
X185850500Y-35143616D01*
X185850500Y-34956384D01*
X185813973Y-34772749D01*
X185754749Y-34629771D01*
X185742323Y-34599771D01*
X185742318Y-34599762D01*
X185638302Y-34444092D01*
X185638299Y-34444088D01*
X185505911Y-34311700D01*
X185505907Y-34311697D01*
X185350237Y-34207681D01*
X185350228Y-34207676D01*
X185177251Y-34136027D01*
X185177243Y-34136025D01*
X184993620Y-34099500D01*
X184993616Y-34099500D01*
X184806384Y-34099500D01*
X184806379Y-34099500D01*
X184622756Y-34136025D01*
X184622748Y-34136027D01*
X184449771Y-34207676D01*
X184449762Y-34207681D01*
X184294092Y-34311697D01*
X184294088Y-34311700D01*
X184161700Y-34444088D01*
X184161697Y-34444092D01*
X184057681Y-34599762D01*
X184057676Y-34599771D01*
X183986027Y-34772748D01*
X183986025Y-34772756D01*
X183949500Y-34956379D01*
X183949500Y-35143616D01*
X183958101Y-35186861D01*
X183951872Y-35256453D01*
X183924164Y-35298731D01*
X175749716Y-43473181D01*
X175688393Y-43506666D01*
X175662035Y-43509500D01*
X133430691Y-43509500D01*
X133340325Y-43533713D01*
X133340324Y-43533712D01*
X133316116Y-43540199D01*
X133316113Y-43540200D01*
X133213386Y-43599511D01*
X133213383Y-43599513D01*
X132386230Y-44426665D01*
X132324907Y-44460150D01*
X132260232Y-44456915D01*
X132197702Y-44436598D01*
X132197698Y-44436597D01*
X132066271Y-44415781D01*
X132026611Y-44409500D01*
X131853389Y-44409500D01*
X131813728Y-44415781D01*
X131682302Y-44436597D01*
X131517552Y-44490128D01*
X131363211Y-44568768D01*
X131298612Y-44615703D01*
X131223072Y-44670586D01*
X131223070Y-44670588D01*
X131223069Y-44670588D01*
X131100588Y-44793069D01*
X131100588Y-44793070D01*
X131100586Y-44793072D01*
X131056859Y-44853256D01*
X130998768Y-44933211D01*
X130920128Y-45087552D01*
X130866597Y-45252302D01*
X130839500Y-45423389D01*
X128850500Y-45423389D01*
X128850500Y-44590249D01*
X128850499Y-44590247D01*
X128838868Y-44531770D01*
X128838867Y-44531769D01*
X128794552Y-44465447D01*
X128728230Y-44421132D01*
X128728229Y-44421131D01*
X128669752Y-44409500D01*
X128669748Y-44409500D01*
X126830252Y-44409500D01*
X126830247Y-44409500D01*
X126771770Y-44421131D01*
X126771769Y-44421132D01*
X126705447Y-44465447D01*
X126661132Y-44531769D01*
X126661131Y-44531770D01*
X126649500Y-44590247D01*
X126092079Y-44590247D01*
X126092079Y-34115092D01*
X128369500Y-34115092D01*
X128369500Y-34264907D01*
X128398723Y-34411822D01*
X128398725Y-34411830D01*
X128456051Y-34550229D01*
X128456056Y-34550238D01*
X128539280Y-34674790D01*
X128539283Y-34674794D01*
X128645205Y-34780716D01*
X128645209Y-34780719D01*
X128769761Y-34863943D01*
X128769767Y-34863946D01*
X128769768Y-34863947D01*
X128908170Y-34921275D01*
X129055092Y-34950499D01*
X129055096Y-34950500D01*
X129055097Y-34950500D01*
X129204904Y-34950500D01*
X129204905Y-34950499D01*
X129351830Y-34921275D01*
X129490232Y-34863947D01*
X129614791Y-34780719D01*
X129720719Y-34674791D01*
X129803947Y-34550232D01*
X129861275Y-34411830D01*
X129890500Y-34264903D01*
X129890500Y-34115097D01*
X129861275Y-33968170D01*
X129803947Y-33829768D01*
X129803946Y-33829767D01*
X129803943Y-33829761D01*
X129720719Y-33705209D01*
X129720716Y-33705205D01*
X129614794Y-33599283D01*
X129614790Y-33599280D01*
X129490238Y-33516056D01*
X129490229Y-33516051D01*
X129351830Y-33458725D01*
X129351822Y-33458723D01*
X129204907Y-33429500D01*
X129204903Y-33429500D01*
X129055097Y-33429500D01*
X129055092Y-33429500D01*
X128908177Y-33458723D01*
X128908169Y-33458725D01*
X128769770Y-33516051D01*
X128769761Y-33516056D01*
X128645209Y-33599280D01*
X128645205Y-33599283D01*
X128539283Y-33705205D01*
X128539280Y-33705209D01*
X128456056Y-33829761D01*
X128456051Y-33829770D01*
X128398725Y-33968169D01*
X128398723Y-33968177D01*
X128369500Y-34115092D01*
X126092079Y-34115092D01*
X126092079Y-31450907D01*
X126111764Y-31383868D01*
X126164568Y-31338113D01*
X126215358Y-31326910D01*
X156697698Y-31150975D01*
X156698414Y-31150974D01*
X212028820Y-31150974D01*
X212095859Y-31170659D01*
G37*
%TD.AperFunction*%
%TA.AperFunction,Conductor*%
G36*
X136847714Y-37310185D02*
G01*
X136893469Y-37362989D01*
X136903413Y-37432147D01*
X136898381Y-37453503D01*
X136890495Y-37477299D01*
X136890493Y-37477310D01*
X136880000Y-37580014D01*
X136880000Y-37880000D01*
X137685440Y-37880000D01*
X137654755Y-37933147D01*
X137620000Y-38062857D01*
X137620000Y-38197143D01*
X137654755Y-38326853D01*
X137685440Y-38380000D01*
X136880000Y-38380000D01*
X136880000Y-38679985D01*
X136890493Y-38782689D01*
X136890494Y-38782696D01*
X136931518Y-38906496D01*
X136933920Y-38976324D01*
X136898188Y-39036366D01*
X136835668Y-39067559D01*
X136813812Y-39069500D01*
X135834073Y-39069500D01*
X135767034Y-39049815D01*
X135721279Y-38997011D01*
X135711335Y-38927853D01*
X135740360Y-38864297D01*
X135746392Y-38857819D01*
X135868299Y-38735911D01*
X135868302Y-38735908D01*
X135972322Y-38580231D01*
X136043973Y-38407251D01*
X136080500Y-38223616D01*
X136080500Y-38036384D01*
X136043973Y-37852749D01*
X136034369Y-37829564D01*
X136026900Y-37760098D01*
X136058173Y-37697618D01*
X136061217Y-37694463D01*
X136428863Y-37326819D01*
X136490186Y-37293334D01*
X136516544Y-37290500D01*
X136780675Y-37290500D01*
X136847714Y-37310185D01*
G37*
%TD.AperFunction*%
%TA.AperFunction,Conductor*%
G36*
X147902966Y-37310185D02*
G01*
X147948721Y-37362989D01*
X147958665Y-37432147D01*
X147929640Y-37495703D01*
X147923608Y-37502181D01*
X147921700Y-37504088D01*
X147921697Y-37504092D01*
X147817681Y-37659762D01*
X147817676Y-37659771D01*
X147746027Y-37832748D01*
X147746025Y-37832756D01*
X147709500Y-38016379D01*
X147709500Y-38203620D01*
X147746024Y-38387243D01*
X147746027Y-38387252D01*
X147755630Y-38410436D01*
X147763097Y-38479906D01*
X147731821Y-38542384D01*
X147728749Y-38545567D01*
X147241137Y-39033181D01*
X147179814Y-39066666D01*
X147153456Y-39069500D01*
X139446188Y-39069500D01*
X139379149Y-39049815D01*
X139333394Y-38997011D01*
X139323450Y-38927853D01*
X139328482Y-38906496D01*
X139369505Y-38782696D01*
X139369506Y-38782689D01*
X139379999Y-38679985D01*
X139380000Y-38679972D01*
X139380000Y-38380000D01*
X138574560Y-38380000D01*
X138605245Y-38326853D01*
X138640000Y-38197143D01*
X138640000Y-38062857D01*
X138605245Y-37933147D01*
X138574560Y-37880000D01*
X139380000Y-37880000D01*
X139380000Y-37580027D01*
X139379999Y-37580014D01*
X139369506Y-37477310D01*
X139369504Y-37477299D01*
X139361619Y-37453503D01*
X139359218Y-37383675D01*
X139394950Y-37323633D01*
X139457470Y-37292441D01*
X139479325Y-37290500D01*
X147835927Y-37290500D01*
X147902966Y-37310185D01*
G37*
%TD.AperFunction*%
%TD*%
M02*
